<svg width="100" height="100" viewBox="0 0 100 100" xmlns="http://www.w3.org/2000/svg"><title>design-categories-billboard-design</title><g fill="none" fill-rule="evenodd"><path fill="#6E8097" fill-rule="nonzero" d="M38.414 60.886h23.172V55.23H38.414z"/><path stroke="#5D6D81" stroke-width="2" stroke-linecap="round" stroke-linejoin="round" d="M38.414 60.886h23.172V55.23H38.414z"/><path fill="#6E8097" fill-rule="nonzero" d="M41.31 66.543h17.38v-5.657H41.31z"/><path stroke="#5D6D81" stroke-width="2" stroke-linecap="round" stroke-linejoin="round" d="M41.31 66.543h17.38v-5.657H41.31z"/><path fill="#F4F4F4" fill-rule="nonzero" d="M47.103 90.583h5.794v-24.04h-5.794z"/><path stroke="#5D6D81" stroke-width="2" stroke-linecap="round" stroke-linejoin="round" d="M47.103 90.583h5.794v-24.04h-5.794zM8 90.583h84"/><path fill="#F08481" fill-rule="nonzero" d="M15.241 17.048h11.587V8.563H15.24z"/><path stroke="#5D6D81" stroke-width="2" stroke-linecap="round" stroke-linejoin="round" d="M15.241 17.048h11.587V8.563H15.24z"/><path fill="#7DDEB1" fill-rule="nonzero" d="M73.172 17.048H84.76V8.563H73.172z"/><path stroke="#5D6D81" stroke-width="2" stroke-linecap="round" stroke-linejoin="round" d="M73.172 17.048H84.76V8.563H73.172z"/><path fill="#EBB200" fill-rule="nonzero" d="M44.207 17.048h11.586V8.563H44.207z"/><path stroke="#5D6D81" stroke-width="2" stroke-linecap="round" stroke-linejoin="round" d="M44.207 17.048h11.586V8.563H44.207z"/><path fill="#FFF" fill-rule="nonzero" d="M84.759 12.806v4.242H73.172v-4.242H55.793v4.242H44.207v-4.242h-17.38v4.242H15.242v-4.242H8V55.23h84V12.806z"/><path stroke="#5D6D81" stroke-width="2" stroke-linecap="round" stroke-linejoin="round" d="M84.759 12.806v4.242H73.172v-4.242H55.793v4.242H44.207v-4.242h-17.38v4.242H15.242v-4.242H8V55.23h84V12.806zM58.69 29.775h20.276M58.69 43.917h20.276m-23.173-7.071h26.07"/><path d="M30.624 48.003v-1.238c.883 0 1.753-.097 2.599-.288l.272 1.208a13.09 13.09 0 0 1-2.871.318zm5.635-1.282l-.537-1.115a11.77 11.77 0 0 0 2.214-1.39l.77.97a13.01 13.01 0 0 1-2.447 1.535zm4.52-3.6l-.967-.773a11.771 11.771 0 0 0 1.397-2.21l1.114.542a13.01 13.01 0 0 1-1.545 2.442zm2.503-5.138l-1.206-.283c.199-.844.303-1.713.31-2.596l1.239.01a13.03 13.03 0 0 1-.343 2.87zm.04-5.784l-1.209.266a11.671 11.671 0 0 0-.842-2.473l1.12-.528c.41.872.724 1.789.932 2.735zm-2.461-5.214l-.975.764a11.838 11.838 0 0 0-1.83-1.867l.782-.96a13.114 13.114 0 0 1 2.023 2.063zm-4.574-3.69l-.54 1.114c-.785-.38-1.61-.672-2.464-.87l.278-1.206a12.93 12.93 0 0 1 2.726.962zm-5.52-1.294l-.014 1.238h-.126c-.842 0-1.67.087-2.478.26l-.26-1.21A13.058 13.058 0 0 1 30.628 22h.14zm-5.65 1.22l.526 1.12c-.792.371-1.54.83-2.23 1.366l-.76-.978a13.002 13.002 0 0 1 2.465-1.509zm-4.557 3.55l.958.784a11.777 11.777 0 0 0-1.422 2.194l-1.108-.554c.432-.864.96-1.678 1.572-2.425zM18 31.882l1.202.296c-.208.842-.322 1.71-.339 2.592l-1.238-.024c.019-.974.145-1.933.374-2.864zm-.104 5.785l1.212-.253c.18.858.454 1.69.817 2.483l-1.126.516a12.909 12.909 0 0 1-.903-2.746zm2.404 5.238l.983-.754c.532.694 1.14 1.327 1.81 1.887l-.792.95a13.075 13.075 0 0 1-2-2.083zm4.53 3.738l.553-1.108c.78.389 1.603.69 2.454.897l-.292 1.203a12.913 12.913 0 0 1-2.715-.992zM30.34 48l.027-1.238.252.003v1.238L30.34 48zm8.852-14.832a.207.207 0 0 1 .227.164.213.213 0 0 1-.137.248c-1.266.424-4.671 1.746-5.216 2.764-.572 1.068.97 3.942 1.613 4.959a.216.216 0 0 1-.057.29.202.202 0 0 1-.283-.05c-.021-.032-2.158-3.068-4.211-2.857-1.195.121-3.284 3.114-3.988 4.257a.204.204 0 0 1-.173.099.2.2 0 0 1-.1-.027.216.216 0 0 1-.085-.278c.483-1.024 1.579-3.887.861-4.82-1.536-2-5.247-.888-5.285-.877a.205.205 0 0 1-.255-.139.214.214 0 0 1 .132-.265c1.085-.372 3.943-1.55 4.254-2.563-.11-1.93-2.644-4.123-2.67-4.145a.216.216 0 0 1-.03-.295.202.202 0 0 1 .287-.036c.032.026 3.277 2.566 5.589 1.797 2.554-.85 3.771-4.467 3.783-4.503a.205.205 0 0 1 .248-.137c.105.029.17.137.148.246-.008.044-.843 4.445.248 5.895.475.632 3.38.503 5.1.273zm-2.286-3.584a1.552 1.552 0 1 1-1.69 2.602 1.552 1.552 0 0 1 1.69-2.602zm-11.98 3.041c.54.349.693 1.07.342 1.61a1.162 1.162 0 1 1-.342-1.61zm1.094 5.173c.479.35.615 1.07.304 1.61s-.951.692-1.431.342c-.48-.35-.615-1.07-.304-1.61s.951-.692 1.43-.342zm6.348 2.348a1.293 1.293 0 1 1-1.407 2.17 1.293 1.293 0 0 1 1.407-2.17zm4.397-4.138a1.293 1.293 0 1 1-1.407 2.169 1.293 1.293 0 0 1 1.407-2.17zm-6.585-8.493a1.55 1.55 0 1 1-1.688 2.602 1.551 1.551 0 1 1 1.688-2.602z" fill="#5D6D81" fill-rule="nonzero"/></g></svg>