<svg id="Layer_1" data-name="Layer 1" xmlns="http://www.w3.org/2000/svg" viewBox="0 0 170.46 170.46"><defs><style>.cls-1{fill:#6e8097;}.cls-2{fill:none;stroke:#5d6d81;stroke-linecap:round;stroke-width:2px;}.cls-3{fill:#5baadc;}.cls-4{fill:#ebb200;}</style></defs><title>brochure</title><path class="cls-1" d="M104.31,61.35a2.75,2.75,0,0,0-2.41-.51L68.55,69.18H46.43A2.81,2.81,0,0,0,43.62,72v2.8H40.81a8.43,8.43,0,0,0,0,16.85h2.81v2.81a2.81,2.81,0,0,0,2.81,2.81h2.8v14a8.43,8.43,0,1,0,16.85,0v-14h2.47l33.35,8.33a2.79,2.79,0,0,0,3.4-2,2.59,2.59,0,0,0,.09-.68V63.56A2.81,2.81,0,0,0,104.31,61.35ZM43.62,86H40.81a2.81,2.81,0,1,1,0-5.61h2.81Zm16.85,25.27a2.81,2.81,0,1,1-5.62,0v-14h5.62Zm5.61-19.65H49.23V74.79H66.08Zm33.69,7.63-28.07-7V74.18l28.07-7Z" transform="translate(-14.54 -14.83)"/><path class="cls-2" d="M181.19,15.83H80.12a2.81,2.81,0,0,0-2.81,2.81V43.91h-59a2.81,2.81,0,0,0-2.81,2.81V181.48a2.81,2.81,0,0,0,2.81,2.81H119.42a2.81,2.81,0,0,0,2.81-2.81V156.22h59a2.81,2.81,0,0,0,2.81-2.81V18.64A2.81,2.81,0,0,0,181.19,15.83ZM82.93,24.1l27.74,19.81H82.93Zm33.69,154.58H21.16V49.53h95.46Zm61.76-28.08H122.23V46.72a2.77,2.77,0,0,0-1.2-2.25l0,0-32.18-23h89.5Z" transform="translate(-14.54 -14.83)"/><path class="cls-3" d="M167.15,29.87H133.46a2.8,2.8,0,0,0-2.8,2.81V49.53a2.8,2.8,0,0,0,2.8,2.8h33.69a2.8,2.8,0,0,0,2.81-2.8V32.68A2.81,2.81,0,0,0,167.15,29.87Zm-2.8,16.85H136.27V35.49h28.08Z" transform="translate(-14.54 -14.83)"/><path class="cls-3" d="M167.15,97.26H133.46a2.8,2.8,0,0,0-2.8,2.8v16.85a2.8,2.8,0,0,0,2.8,2.81h33.69a2.81,2.81,0,0,0,2.81-2.81V100.06A2.8,2.8,0,0,0,167.15,97.26Zm-2.8,16.84H136.27V102.87h28.08Z" transform="translate(-14.54 -14.83)"/><path class="cls-4" d="M54.85,142.18H32.39a2.8,2.8,0,0,0-2.81,2.8v22.47a2.8,2.8,0,0,0,2.81,2.8H54.85a2.8,2.8,0,0,0,2.81-2.8V145A2.8,2.8,0,0,0,54.85,142.18ZM52,164.64H35.2V147.79H52Z" transform="translate(-14.54 -14.83)"/><rect class="cls-4" x="71.19" y="127.34" width="22.46" height="5.62"/><rect class="cls-4" x="51.54" y="138.57" width="42.11" height="5.62"/><rect class="cls-4" x="51.54" y="149.8" width="33.69" height="5.62"/><rect class="cls-3" x="135.77" y="43.11" width="19.65" height="5.62"/><rect class="cls-3" x="116.11" y="54.34" width="39.31" height="5.62"/><rect class="cls-3" x="116.11" y="65.58" width="30.88" height="5.62"/><rect class="cls-3" x="135.77" y="110.5" width="19.65" height="5.62"/><rect class="cls-3" x="116.11" y="121.73" width="39.31" height="5.62"/><rect class="cls-4" x="59.96" y="127.34" width="5.62" height="5.62"/><rect class="cls-3" x="124.53" y="110.5" width="5.62" height="5.62"/><rect class="cls-3" x="124.53" y="43.11" width="5.62" height="5.62"/></svg>