<svg width="100" height="100" viewBox="0 0 100 100" xmlns="http://www.w3.org/2000/svg"><title>design-categories-businesscard-design</title><g fill="none" fill-rule="evenodd"><path d="M69.371 87.672L7.635 55.533c-1.51-.786-2.103-2.66-1.326-4.185l19.211-37.7a3.058 3.058 0 0 1 4.14-1.34l61.737 32.14c1.51.785 2.104 2.659 1.326 4.185l-19.21 37.7a3.058 3.058 0 0 1-4.142 1.339" fill="#6E8097"/><path d="M69.82 86.819a2.088 2.088 0 0 0 2.829-.922l19.21-37.7c.54-1.057.129-2.356-.91-2.896L29.212 13.16a2.088 2.088 0 0 0-2.829.922l-19.21 37.7c-.539 1.057-.128 2.356.91 2.897l61.737 32.14zm-.897 1.706L7.186 56.386c-1.98-1.031-2.755-3.48-1.74-5.474l19.211-37.7a4.028 4.028 0 0 1 5.452-1.756l61.737 32.138c1.98 1.03 2.757 3.48 1.74 5.474l-19.21 37.7a4.028 4.028 0 0 1-5.453 1.757z" fill="#5D6D81" fill-rule="nonzero"/><path d="M50.256 45.7a.347.347 0 0 0-.138-.094c-.339-.154-.819-.208-1.441-.164L46.46 49.23c.562-.022 1.245-.39 2.05-1.105.692-.617 1.213-1.225 1.565-1.826.184-.314.244-.514.181-.599m.18 2.763c-.37.722-.967 1.407-1.79 2.054-.661.523-1.38.964-2.157 1.326-.681.3-1.142.444-1.384.428a1.024 1.024 0 0 1-.367-.115c-.29-.15-.573-.414-.846-.79-.252-.324-.415-.618-.488-.881l3.67-7.162c.107-.162.26-.213.454-.154.023.004.176.112.459.326.056.037.288.069.695.095.408.027.73.102.968.224.291.15.528.37.714.66.104.171.24.468.408.89.245.614.325 1.166.24 1.66-.061.329-.253.809-.576 1.439m3.332 6.317a.718.718 0 0 1-.401.3c-.411.313-.928.575-1.552.788-.672.223-1.143.266-1.412.129a.623.623 0 0 1-.106-.067 20.3 20.3 0 0 1-.82-.855c-.522-.6-.763-1.364-.72-2.29.044-.834.3-1.698.77-2.593.573-1.094 1.29-1.952 2.154-2.571.918-.66 1.726-.835 2.425-.523.27.12.586.448.95.985.363.536.553.983.571 1.34.018.358-.186 1.016-.612 1.974-.09.206-.223.395-.399.566-.208.204-.373.264-.49.179a6.328 6.328 0 0 1-.776-.669c-.36-.358-.531-.591-.515-.702a.253.253 0 0 1 .025-.1c.032-.06.1-.119.204-.18a.522.522 0 0 0 .203-.18c.176-.255.328-.501.452-.74.181-.345.266-.604.254-.778-.557.087-1.12.418-1.687.996-.478.488-.908 1.096-1.29 1.826a7.647 7.647 0 0 0-.638 1.584c-.13.492-.148.82-.056.985.047.074.305.035.773-.119.47-.152.795-.3.98-.44.011-.004.097-.094.26-.273.102-.1.194-.144.276-.137.135.018.38.263.736.732.356.47.502.747.44.833" fill="#000"/><path d="M60.9 55.564l3.451 1.744c-1.567 3.073-4.168 5.56-7.367 7.157l-1.736-3.442c2.48-1.239 4.47-3.142 5.652-5.459zm-13.507 6.853l-.481 3.822a15.543 15.543 0 0 1-5.206-1.593 15.175 15.175 0 0 1-4.098-3.102l2.83-2.629c.88.939 1.893 1.71 3.054 2.313a11.65 11.65 0 0 0 3.9 1.189zM37.07 51.694l-3.834.53c-.484-3.463.052-6.99 1.59-10.068l3.467 1.715c-1.184 2.369-1.602 5.113-1.223 7.823zm6.78-13.19l-1.59-3.512c3.174-1.424 6.789-1.756 10.28-.94l-.886 3.75c-2.667-.624-5.41-.372-7.804.702zm14.7 3.357l2.853-2.603c2.394 2.596 3.955 5.832 4.42 9.207l-3.836.522c-.356-2.586-1.569-5.1-3.436-7.126z" fill="#5D6D81" fill-rule="nonzero"/><path d="M15.156 73.567c-1.7 0-3.076-1.388-3.076-3.102v-40.95c0-1.713 1.377-3.102 3.076-3.102H84.64c1.699 0 3.076 1.389 3.076 3.103v40.95c0 1.713-1.377 3.101-3.076 3.101H15.156z" fill="#F5F5F5"/><path d="M84.64 72.604c1.163 0 2.11-.954 2.11-2.139v-40.95c0-1.184-.947-2.139-2.11-2.139H15.157c-1.162 0-2.108.955-2.108 2.14v40.95c0 1.184.946 2.138 2.108 2.138H84.64zm0 1.926H15.157c-2.237 0-4.044-1.822-4.044-4.065v-40.95c0-2.242 1.807-4.065 4.044-4.065H84.64c2.236 0 4.044 1.823 4.044 4.066v40.95c0 2.242-1.808 4.064-4.044 4.064z" fill="#5D6D81" fill-rule="nonzero"/><path d="M17.428 44.108a.965.965 0 0 1-.968-.963c0-.531.433-.963.968-.963h11.46c.535 0 .968.432.968.963a.965.965 0 0 1-.968.963h-11.46zm17.572 0a.965.965 0 0 1-.968-.963c0-.531.434-.963.968-.963h11.46c.535 0 .968.432.968.963a.965.965 0 0 1-.968.963H35zm-17.572 13.69a.965.965 0 0 1-.968-.963c0-.532.433-.963.968-.963h11.46c.535 0 .968.431.968.963a.965.965 0 0 1-.968.963h-11.46zm17.572 0a.965.965 0 0 1-.968-.963c0-.532.434-.963.968-.963h11.46c.535 0 .968.431.968.963a.965.965 0 0 1-.968.963H35z" fill="#5D6D81" fill-rule="nonzero"/><path d="M17.428 64.643a.965.965 0 0 1-.968-.963c0-.532.433-.963.968-.963h.764c.534 0 .968.431.968.963a.965.965 0 0 1-.968.963h-.764z" fill="#EBB200" fill-rule="nonzero"/><path d="M24.304 64.643a.965.965 0 0 1-.968-.963c0-.532.434-.963.968-.963h3.056c.535 0 .968.431.968.963a.965.965 0 0 1-.968.963h-3.056z" fill="#F08481" fill-rule="nonzero"/><path d="M32.708 65.023a.965.965 0 0 1-.968-.962c0-.532.434-.963.968-.963h.764c.535 0 .968.43.968.963a.965.965 0 0 1-.968.962h-.764z" fill="#7DDEB1" fill-rule="nonzero"/><path d="M39.584 64.643a.965.965 0 0 1-.968-.963c0-.532.434-.963.968-.963h3.056c.535 0 .968.431.968.963a.965.965 0 0 1-.968.963h-3.056z" fill="#5BAADC" fill-rule="nonzero"/><path d="M17.428 37.644a.965.965 0 0 1-.968-.963c0-.532.433-.963.968-.963h11.46c.535 0 .968.43.968.963a.965.965 0 0 1-.968.963h-11.46zM35 37.263a.965.965 0 0 1-.968-.962c0-.532.434-.963.968-.963h11.46c.535 0 .968.43.968.963a.965.965 0 0 1-.968.962H35zm-17.572 13.69a.965.965 0 0 1-.968-.963c0-.531.433-.963.968-.963h11.46c.535 0 .968.432.968.963a.965.965 0 0 1-.968.963h-11.46zm17.572 0a.965.965 0 0 1-.968-.963c0-.531.434-.963.968-.963h11.46c.535 0 .968.432.968.963a.965.965 0 0 1-.968.963H35zm33.22 13.414v-1.359c.97 0 1.923-.106 2.851-.315l.3 1.325a14.338 14.338 0 0 1-3.15.349zm6.183-1.406l-.59-1.224a12.911 12.911 0 0 0 2.43-1.524l.844 1.063a14.27 14.27 0 0 1-2.684 1.685zm4.957-3.949l-1.06-.849a12.877 12.877 0 0 0 1.533-2.424l1.222.594a14.272 14.272 0 0 1-1.695 2.68zm2.747-5.637l-1.323-.31c.218-.927.332-1.88.34-2.849l1.359.012a14.294 14.294 0 0 1-.376 3.147zm.044-6.345l-1.326.291a12.804 12.804 0 0 0-.925-2.713l1.229-.58c.45.958.794 1.963 1.022 3.002zm-2.7-5.72l-1.07.838a12.986 12.986 0 0 0-2.008-2.048l.859-1.053c.82.67 1.565 1.429 2.219 2.263zm-5.018-4.049l-.592 1.223a12.806 12.806 0 0 0-2.704-.954l.306-1.324c1.036.24 2.038.594 2.99 1.055zm-6.056-1.42l-.015 1.359-.138-.001c-.924 0-1.833.096-2.719.286l-.284-1.328c.98-.21 1.983-.316 3.003-.316h.153zM62.18 37.18l.576 1.23c-.869.407-1.689.91-2.446 1.498l-.833-1.073a14.263 14.263 0 0 1 2.703-1.655zm-5 3.895l1.05.86a12.92 12.92 0 0 0-1.56 2.407l-1.214-.607a14.278 14.278 0 0 1 1.723-2.66zm-2.81 5.608l1.32.325a12.92 12.92 0 0 0-.372 2.844l-1.358-.026c.02-1.069.159-2.12.41-3.143zm-.112 6.346l1.33-.277c.196.942.497 1.855.895 2.724l-1.235.566c-.44-.962-.773-1.97-.99-3.013zm2.637 5.747l1.078-.826c.584.76 1.25 1.455 1.987 2.07l-.87 1.042a14.344 14.344 0 0 1-2.195-2.286zm4.97 4.1l.606-1.215a12.8 12.8 0 0 0 2.692.984l-.32 1.32a14.166 14.166 0 0 1-2.978-1.088zm6.044 1.488l.03-1.358.276.003v1.359c-.102 0-.204-.001-.306-.004zm9.71-16.27a.227.227 0 0 1 .25.179.234.234 0 0 1-.151.272c-1.389.465-5.124 1.916-5.722 3.032-.627 1.172 1.065 4.325 1.77 5.44a.237.237 0 0 1-.062.32.221.221 0 0 1-.31-.057c-.024-.034-2.369-3.364-4.621-3.134-1.311.134-3.602 3.417-4.374 4.671a.224.224 0 0 1-.19.108.219.219 0 0 1-.11-.03.237.237 0 0 1-.094-.304c.53-1.124 1.732-4.264.945-5.289-1.685-2.192-5.756-.973-5.797-.96a.225.225 0 0 1-.28-.153.234.234 0 0 1 .144-.291c1.191-.408 4.326-1.701 4.667-2.812-.12-2.118-2.9-4.523-2.929-4.547a.237.237 0 0 1-.032-.324.221.221 0 0 1 .314-.04c.035.029 3.595 2.816 6.131 1.972 2.802-.932 4.137-4.9 4.15-4.94a.225.225 0 0 1 .273-.15c.114.031.186.15.162.27-.009.048-.925 4.876.272 6.467.521.693 3.708.551 5.594.3zm-2.507-3.933a1.702 1.702 0 1 1-1.853 2.856 1.702 1.702 0 0 1 1.853-2.856zM61.97 47.497c.592.382.76 1.174.374 1.765a1.275 1.275 0 1 1-2.14-1.39 1.275 1.275 0 0 1 1.766-.375zm1.2 5.675c.525.383.675 1.173.333 1.765-.341.592-1.043.76-1.57.376-.526-.384-.674-1.174-.333-1.765.341-.593 1.043-.76 1.57-.376zm6.963 2.576a1.418 1.418 0 1 1-1.543 2.38 1.418 1.418 0 0 1 1.543-2.38zm4.825-4.54a1.418 1.418 0 1 1-1.544 2.38 1.418 1.418 0 0 1 1.544-2.38zm-7.224-9.318a1.702 1.702 0 1 1-1.852 2.856 1.702 1.702 0 0 1 1.852-2.856z" fill="#5D6D81" fill-rule="nonzero"/></g></svg>