<svg id="Layer_1" data-name="Layer 1" xmlns="http://www.w3.org/2000/svg" viewBox="0 0 165.12 178.44"><defs><style>.cls-1,.cls-8{fill:#232020;}.cls-10,.cls-2,.cls-4{fill:#fff;}.cls-2,.cls-3,.cls-4,.cls-5,.cls-6,.cls-7,.cls-8,.cls-9{stroke:#232020;stroke-miterlimit:10;}.cls-3,.cls-5,.cls-6{fill:none;}.cls-3,.cls-4,.cls-5,.cls-9{stroke-linecap:round;}.cls-3{stroke-width:2px;}.cls-7,.cls-9{fill:#ffdb3b;}</style></defs><title>character-design</title><path class="cls-1" d="M176.91,63.85s-1.09-6.2-5.2-8.84-11.32-4.11-11.32-4.11H146s-7.22,1.47-11.33,4.11-5.19,8.84-5.19,8.84l24,.15h0Z" transform="translate(-17.58 -9.07)"/><path class="cls-2" d="M160.44,51.1c-1.33-2.27-1.68-7.56-1.68-7.56-2.1-.15-4.92,1.25-5.56,1.59-.76-.39-3.46-1.7-5.5-1.55,0,0-.34,5.29-1.68,7.56,0,0,2.58,4,6.67,3.87A10.69,10.69,0,0,0,160.44,51.1Z" transform="translate(-17.58 -9.07)"/><path class="cls-1" d="M158.78,44s-5.76,5.34-11.5,3.16l.39-3.29s5.54,1.7,7.67,1.24A16.56,16.56,0,0,0,158.78,44Z" transform="translate(-17.58 -9.07)"/><path class="cls-2" d="M141.07,22.05V33.26a12,12,0,1,0,24,0V22.05s-4.07-3.76-11.87-3.76C144.06,18.29,141.07,22.05,141.07,22.05Z" transform="translate(-17.58 -9.07)"/><path class="cls-2" d="M141,28s-1.9.7-2,3.61a3.86,3.86,0,0,0,2.05,3.8Z" transform="translate(-17.58 -9.07)"/><path class="cls-2" d="M165.15,27.68s1.9.7,2,3.6a3.85,3.85,0,0,1-2,3.8Z" transform="translate(-17.58 -9.07)"/><path class="cls-3" d="M145.35,24.59a2.56,2.56,0,0,1,2.15-.82,2.74,2.74,0,0,1,2,.86" transform="translate(-17.58 -9.07)"/><path class="cls-1" d="M148.73,29.36c0,.78-.34,1.41-.75,1.41s-.75-.63-.75-1.41S147.56,28,148,28,148.73,28.58,148.73,29.36Z" transform="translate(-17.58 -9.07)"/><path class="cls-4" d="M152.31,30.07a44.29,44.29,0,0,0-.64,4.94c.13.37,1.66,1,3.14.39" transform="translate(-17.58 -9.07)"/><path class="cls-3" d="M160.2,24.84a2.54,2.54,0,0,0-2.15-.81,2.74,2.74,0,0,0-2,.86" transform="translate(-17.58 -9.07)"/><path class="cls-5" d="M150.53,38.6a5.62,5.62,0,0,0,4.91-.11" transform="translate(-17.58 -9.07)"/><ellipse class="cls-6" cx="130.01" cy="20.28" rx="3.84" ry="3.92"/><path class="cls-6" d="M140.82,27.93a5,5,0,0,1,3,.62" transform="translate(-17.58 -9.07)"/><path class="cls-1" d="M157.07,29.46c0,.78.34,1.41.76,1.41s.75-.63.75-1.41-.34-1.41-.75-1.41S157.07,28.68,157.07,29.46Z" transform="translate(-17.58 -9.07)"/><ellipse class="cls-6" cx="140.63" cy="20.38" rx="3.84" ry="3.92"/><path class="cls-6" d="M165,28a4.94,4.94,0,0,0-3,.62" transform="translate(-17.58 -9.07)"/><path class="cls-6" d="M151.51,29.41s.87-.91,2.9,0" transform="translate(-17.58 -9.07)"/><path class="cls-7" d="M166,17.27a3.18,3.18,0,0,0-.8-3.23,2.61,2.61,0,0,0-2.94-.73,2.59,2.59,0,0,0-2.11-2.18,2.7,2.7,0,0,0-2.68.87,2.78,2.78,0,0,0-2.76-2.41,2.05,2.05,0,0,0-1.64.67,2.55,2.55,0,0,0-.31.27,2.15,2.15,0,0,0-.21-.2,2,2,0,0,0-1.72-.76A2.78,2.78,0,0,0,148,12a2.69,2.69,0,0,0-2.67-.87,2.59,2.59,0,0,0-2.12,2.18,2.61,2.61,0,0,0-2.94.73,3.21,3.21,0,0,0-.8,3.23,3.56,3.56,0,0,0-1.19,2.7,2.55,2.55,0,0,0,1.81,2l.21,6.42s1-.43,2.62-3.11,1.19-4.18,1.19-4.18,3.37.45,6.84.69a18.11,18.11,0,0,0,2,.11,14.26,14.26,0,0,0,1.52-.09c3.47-.24,6.85-.7,6.85-.7s-.44,1.52,1.18,4.19,2.62,3.11,2.62,3.11l.21-6.42a2.55,2.55,0,0,0,1.81-2A3.56,3.56,0,0,0,166,17.27Z" transform="translate(-17.58 -9.07)"/><path class="cls-7" d="M53.7,86.2s9.12,3.27,8.13,8-9.7,5.68-9.7,5.68S53.93,88.17,53.7,86.2Z" transform="translate(-17.58 -9.07)"/><path class="cls-7" d="M29.72,86.24s-9.12,3.27-8.13,8,9.7,5.69,9.7,5.69S29.48,88.21,29.72,86.24Z" transform="translate(-17.58 -9.07)"/><path class="cls-8" d="M65.57,124.48s-1.09-6.2-5.2-8.84-11.32-4.11-11.32-4.11H34.7s-7.21,1.48-11.33,4.12-5.19,8.84-5.19,8.84l24,.15h0Z" transform="translate(-17.58 -9.07)"/><path class="cls-2" d="M49.1,111.73c-1.33-2.27-1.68-7.56-1.68-7.56-2.1-.15-4.92,1.25-5.56,1.59-.76-.39-3.46-1.7-5.49-1.55,0,0-.35,5.29-1.69,7.56,0,0,2.58,4,6.67,3.87A10.67,10.67,0,0,0,49.1,111.73Z" transform="translate(-17.58 -9.07)"/><path class="cls-1" d="M47.44,104.65s-5.76,5.33-11.5,3.16l.39-3.29s5.54,1.7,7.68,1.24A16.59,16.59,0,0,0,47.44,104.65Z" transform="translate(-17.58 -9.07)"/><path class="cls-2" d="M29.73,82.68V93.89a12,12,0,0,0,24,0V82.68s-4.07-3.76-11.87-3.76C32.72,78.92,29.73,82.68,29.73,82.68Z" transform="translate(-17.58 -9.07)"/><path class="cls-2" d="M29.62,88.58s-1.9.7-2,3.6A3.85,3.85,0,0,0,29.7,96Z" transform="translate(-17.58 -9.07)"/><path class="cls-2" d="M53.81,88.31s1.9.69,2,3.6a3.85,3.85,0,0,1-2,3.8Z" transform="translate(-17.58 -9.07)"/><path class="cls-3" d="M34,85.21a2.54,2.54,0,0,1,2.15-.81,2.74,2.74,0,0,1,2,.86" transform="translate(-17.58 -9.07)"/><path class="cls-1" d="M37.39,90c0,.78-.34,1.41-.75,1.41s-.75-.63-.75-1.41.33-1.41.75-1.41S37.39,89.21,37.39,90Z" transform="translate(-17.58 -9.07)"/><path class="cls-4" d="M41,90.7a44.29,44.29,0,0,0-.64,4.94c.13.37,1.66,1,3.14.39" transform="translate(-17.58 -9.07)"/><path class="cls-3" d="M48.86,85.47a2.54,2.54,0,0,0-2.15-.81,2.67,2.67,0,0,0-2,.86" transform="translate(-17.58 -9.07)"/><path class="cls-5" d="M39.19,99.23a5.62,5.62,0,0,0,4.91-.11" transform="translate(-17.58 -9.07)"/><ellipse class="cls-6" cx="18.67" cy="80.91" rx="3.84" ry="3.92"/><path class="cls-6" d="M29.48,88.56a4.89,4.89,0,0,1,3,.62" transform="translate(-17.58 -9.07)"/><path class="cls-1" d="M45.73,90.09c0,.78.34,1.41.76,1.41s.75-.63.75-1.41-.34-1.41-.75-1.41S45.73,89.31,45.73,90.09Z" transform="translate(-17.58 -9.07)"/><ellipse class="cls-6" cx="29.29" cy="81.01" rx="3.84" ry="3.92"/><path class="cls-6" d="M53.64,88.66a4.94,4.94,0,0,0-3,.62" transform="translate(-17.58 -9.07)"/><path class="cls-6" d="M40.17,90s.87-.91,2.9,0" transform="translate(-17.58 -9.07)"/><path class="cls-7" d="M55.56,81.78c-1.45-1.57-1.28-9-5.35-11.23a19.5,19.5,0,0,0-9-2,19.1,19.1,0,0,0-8,2c-4.07,2.21-3.9,9.65-5.35,11.22s-7,7.39-6.29,12.16c0,0,6.15-9.92,20.37-11,13.89,1.22,19.91,10.93,19.91,10.93C62.6,89.16,57,83.35,55.56,81.78Z" transform="translate(-17.58 -9.07)"/><path class="cls-9" d="M30,81.17a29.88,29.88,0,0,1,24,.12" transform="translate(-17.58 -9.07)"/><path class="cls-1" d="M110.68,36.54s6.09,6.63,4.15,8-4.34-2.48-4.34-2.48,3,4.38,2.67,6.16-2.71,1-4.34-3.72c0,0,.93,4.26-.35,5s-2.13-2-2.13-4.11c0,0,.35,3.14-.7,4.07,0,0-1-4.54-1.15-5.82,0,0,0-.08,0-.11C104.32,42.39,109.13,41.66,110.68,36.54Z" transform="translate(-17.58 -9.07)"/><path class="cls-1" d="M87.83,36.48s-6.09,6.63-4.15,8S88,42,88,42s-3,4.38-2.67,6.16,2.71,1,4.34-3.72c0,0-.93,4.27.35,5s2.13-2,2.13-4.11c0,0-.35,3.15.7,4.08,0,0,.95-4.55,1.15-5.82,0,0,0-.08,0-.12C94.19,42.34,89.38,41.6,87.83,36.48Z" transform="translate(-17.58 -9.07)"/><path class="cls-1" d="M123.28,63.39s-1.09-6.21-5.2-8.84-11.32-4.11-11.32-4.11H92.4s-7.21,1.48-11.32,4.11-5.2,8.84-5.2,8.84l24.05.16h0Z" transform="translate(-17.58 -9.07)"/><path class="cls-2" d="M106.81,50.64c-1.34-2.27-1.69-7.56-1.69-7.56-2.09-.16-4.91,1.25-5.56,1.59-.75-.39-3.45-1.71-5.49-1.56,0,0-.35,5.3-1.68,7.56,0,0,2.57,4,6.67,3.87A10.66,10.66,0,0,0,106.81,50.64Z" transform="translate(-17.58 -9.07)"/><path class="cls-1" d="M105.14,43.56s-5.75,5.33-11.49,3.16l.38-3.3s5.55,1.71,7.68,1.24A16.27,16.27,0,0,0,105.14,43.56Z" transform="translate(-17.58 -9.07)"/><path class="cls-2" d="M87.44,21.59V32.8a12,12,0,0,0,24,0V21.59s-4.07-3.76-11.87-3.76C90.43,17.83,87.44,21.59,87.44,21.59Z" transform="translate(-17.58 -9.07)"/><path class="cls-2" d="M87.32,27.48s-1.9.7-2,3.61a3.85,3.85,0,0,0,2.05,3.8Z" transform="translate(-17.58 -9.07)"/><path class="cls-2" d="M111.52,27.21s1.9.7,2,3.61a3.85,3.85,0,0,1-2.06,3.8Z" transform="translate(-17.58 -9.07)"/><path class="cls-3" d="M92.65,26a2.54,2.54,0,0,1,2.15-.81,2.74,2.74,0,0,1,2,.86" transform="translate(-17.58 -9.07)"/><path class="cls-1" d="M95.33,29c0,.75-.33,1.37-.73,1.37s-.73-.62-.73-1.37.33-1.37.73-1.37S95.33,28.29,95.33,29Z" transform="translate(-17.58 -9.07)"/><path class="cls-4" d="M98.48,29.36a46.77,46.77,0,0,0-.64,4.94c.14.37,1.67,1,3.14.39" transform="translate(-17.58 -9.07)"/><path class="cls-3" d="M106.3,26a2.56,2.56,0,0,0-2.15-.82,2.73,2.73,0,0,0-2,.87" transform="translate(-17.58 -9.07)"/><path class="cls-5" d="M96.89,38.14a5.63,5.63,0,0,0,4.92-.12" transform="translate(-17.58 -9.07)"/><path class="cls-7" d="M89.94,20.46s.87,1.67-.72,4.35-2.55,3.1-2.55,3.1-.47-5.35.19-7.6A27.85,27.85,0,0,1,89.94,20.46Z" transform="translate(-17.58 -9.07)"/><path class="cls-1" d="M99.46,11.58c-11.59,0-12.76,8.65-12.76,8.65l3.46.19c2.66-1,8.59.29,9.09.15.62.16,6.62-1.22,9.29-.2l3.45-.19S111.28,11.58,99.46,11.58Z" transform="translate(-17.58 -9.07)"/><path class="cls-7" d="M108.55,20.08s-.87,1.66.72,4.34,2.56,3.1,2.56,3.1.46-5.35-.19-7.6A27.11,27.11,0,0,0,108.55,20.08Z" transform="translate(-17.58 -9.07)"/><path class="cls-10" d="M92.84,18.06a.22.22,0,0,1-.21-.14l-1.22-2.84a.25.25,0,0,1,.12-.3.23.23,0,0,1,.3.12l1.22,2.84a.24.24,0,0,1-.12.3Z" transform="translate(-17.58 -9.07)"/><path class="cls-10" d="M96.62,17.28a.24.24,0,0,1-.2-.16l-.88-3.06a.22.22,0,0,1,.16-.29.23.23,0,0,1,.29.15L96.87,17a.23.23,0,0,1-.16.29Z" transform="translate(-17.58 -9.07)"/><path class="cls-10" d="M106.61,18.49a.23.23,0,0,0,.21-.14L108,15.51a.22.22,0,0,0-.12-.3.21.21,0,0,0-.29.12l-1.22,2.84a.23.23,0,0,0,.12.3Z" transform="translate(-17.58 -9.07)"/><path class="cls-10" d="M102.74,17.54a.27.27,0,0,0,.2-.17l.88-3.06a.22.22,0,0,0-.16-.29.23.23,0,0,0-.29.16l-.88,3.06a.23.23,0,0,0,.16.29Z" transform="translate(-17.58 -9.07)"/><path class="cls-10" d="M99.6,17a.21.21,0,0,1-.13-.22l.1-3.18a.23.23,0,0,1,.24-.23.24.24,0,0,1,.23.24l-.1,3.19a.25.25,0,0,1-.25.23A.16.16,0,0,1,99.6,17Z" transform="translate(-17.58 -9.07)"/><path class="cls-1" d="M104.56,28.92c0,.76-.33,1.37-.73,1.37s-.73-.61-.73-1.37.32-1.36.73-1.36S104.56,28.17,104.56,28.92Z" transform="translate(-17.58 -9.07)"/><path class="cls-7" d="M66.19,63.23S65.11,57,61,54.39s-11.33-4.11-11.33-4.11H35.32S28.11,51.76,24,54.4s-5.2,8.84-5.2,8.84l24,.15h0Z" transform="translate(-17.58 -9.07)"/><path class="cls-2" d="M49.73,50.48C48.39,48.21,48,42.92,48,42.92c-2.1-.15-4.91,1.25-5.56,1.59C41.72,44.12,39,42.81,37,43c0,0-.35,5.29-1.69,7.56,0,0,2.58,3.95,6.68,3.87A10.69,10.69,0,0,0,49.73,50.48Z" transform="translate(-17.58 -9.07)"/><path class="cls-1" d="M48.06,43.4s-5.76,5.34-11.5,3.16L37,43.27s5.54,1.7,7.68,1.24A16.59,16.59,0,0,0,48.06,43.4Z" transform="translate(-17.58 -9.07)"/><path class="cls-2" d="M30.36,21.43V32.64a12,12,0,1,0,24,0V21.43s-4.07-3.76-11.86-3.76C33.34,17.67,30.36,21.43,30.36,21.43Z" transform="translate(-17.58 -9.07)"/><path class="cls-2" d="M30.24,26.86s-1.9.7-2,3.61a3.86,3.86,0,0,0,2.06,3.8Z" transform="translate(-17.58 -9.07)"/><path class="cls-2" d="M54.44,27.06s1.9.7,2,3.6a3.85,3.85,0,0,1-2,3.8Z" transform="translate(-17.58 -9.07)"/><path class="cls-1" d="M56.56,20.35c-.31-1.71-3.28-7.91-14.26-8.07-11,.16-13.84,6.32-14.15,8s.93,1.94.93,1.94l.11,5.39,1-.78.12,3.8,1.43.2a19,19,0,0,1,1.09-5.74c.77-1.94,0-4.93,0-4.93,1.66-2.48,9.42-.47,9.42-.47s7.72-1.79,9.34.61a10,10,0,0,0,.15,4.83,19.33,19.33,0,0,1,1.09,5.74l1.43-.2.12-3.8,1,.78.12-5.39S56.87,22.05,56.56,20.35Z" transform="translate(-17.58 -9.07)"/><path class="cls-3" d="M35.56,25.83A2.57,2.57,0,0,1,37.72,25a2.73,2.73,0,0,1,2,.86" transform="translate(-17.58 -9.07)"/><path class="cls-4" d="M41.4,29.2a44.6,44.6,0,0,0-.64,4.94c.14.37,1.67,1,3.14.39" transform="translate(-17.58 -9.07)"/><path class="cls-3" d="M49.22,25.81A2.57,2.57,0,0,0,47.06,25a2.73,2.73,0,0,0-2,.86" transform="translate(-17.58 -9.07)"/><path class="cls-1" d="M42.27,34.82a.78.78,0,0,1,.47,1.37,4.54,4.54,0,0,1-2.38,1,4.3,4.3,0,0,1-4.08-1.36,5.21,5.21,0,0,0,2.88-.07A7.77,7.77,0,0,1,42.27,34.82Z" transform="translate(-17.58 -9.07)"/><path class="cls-1" d="M42.46,34.83A.78.78,0,0,0,42,36.2a4.5,4.5,0,0,0,2.38,1,4.3,4.3,0,0,0,4.08-1.36,5.31,5.31,0,0,1-2.88-.07A7.77,7.77,0,0,0,42.46,34.83Z" transform="translate(-17.58 -9.07)"/><path class="cls-5" d="M39.81,38a5.64,5.64,0,0,0,4.92-.11" transform="translate(-17.58 -9.07)"/><line class="cls-6" x1="1.72" y1="52.21" x2="47.97" y2="52.21"/><path class="cls-6" d="M33.42,50.83s1.4,5.39,8.84,5.16,9.08-5.16,9.08-5.16" transform="translate(-17.58 -9.07)"/><line class="cls-6" x1="2.36" y1="50.12" x2="47.27" y2="50.12"/><line class="cls-6" x1="3.93" y1="47.85" x2="45.92" y2="47.85"/><line class="cls-6" x1="6.03" y1="45.52" x2="18.84" y2="45.52"/><line class="cls-6" x1="30.42" y1="45.33" x2="43.41" y2="45.33"/><ellipse class="cls-1" cx="20.06" cy="19.89" rx="0.73" ry="1.37"/><path class="cls-1" d="M47.61,28.84c0,.76-.33,1.37-.73,1.37s-.73-.61-.73-1.37.32-1.37.73-1.37S47.61,28.09,47.61,28.84Z" transform="translate(-17.58 -9.07)"/><path class="cls-2" d="M125.91,125s-1.08-8.15-5.19-11.62S109.39,108,109.39,108H95s-7.21,1.94-11.32,5.4S78.52,125,78.52,125l24,.2h0Z" transform="translate(-17.58 -9.07)"/><line class="cls-6" x1="61.44" y1="113.37" x2="107.69" y2="113.37"/><line class="cls-6" x1="62.08" y1="110.62" x2="106.99" y2="110.62"/><line class="cls-6" x1="63.65" y1="107.64" x2="105.64" y2="107.64"/><line class="cls-6" x1="65.75" y1="104.58" x2="78.56" y2="104.58"/><line class="cls-6" x1="90.14" y1="104.32" x2="103.13" y2="104.32"/><path class="cls-7" d="M117.6,99.38c0-3.37-1.28-7-1.28-9.77s-.7-16.5-15.36-15.8c-12.51.59-13.73,13-13.73,15.78S86,96,86,99.36s2.68,4.31,3.26,5-3,3.61-1.39,6.75,13.9,9,14,9.08v0s12.34-5.94,14-9.08-2-6-1.4-6.75S117.6,102.76,117.6,99.38Z" transform="translate(-17.58 -9.07)"/><path class="cls-2" d="M91.42,88.57,92,96.14c0,6,6.4,10.53,9.93,10.53,4,0,9.27-3.12,10-11.07l.6-8.42A12.91,12.91,0,0,0,102,82C93.71,82,91.42,88.57,91.42,88.57Z" transform="translate(-17.58 -9.07)"/><path class="cls-3" d="M94.89,87.79a2.34,2.34,0,0,1,2-.74,2.47,2.47,0,0,1,1.84.79" transform="translate(-17.58 -9.07)"/><path class="cls-1" d="M98,92.15c0,.72-.31,1.29-.69,1.29s-.69-.57-.69-1.29.31-1.29.69-1.29S98,91.44,98,92.15Z" transform="translate(-17.58 -9.07)"/><path class="cls-4" d="M101.24,92.8a40.12,40.12,0,0,0-.58,4.52,2.68,2.68,0,0,0,2.87.35" transform="translate(-17.58 -9.07)"/><path class="cls-3" d="M108.46,88a2.34,2.34,0,0,0-2-.75,2.5,2.5,0,0,0-1.83.79" transform="translate(-17.58 -9.07)"/><path class="cls-5" d="M99.62,100.6a5.15,5.15,0,0,0,4.49-.11" transform="translate(-17.58 -9.07)"/><path class="cls-1" d="M105.6,92.25c0,.71.31,1.29.69,1.29s.69-.58.69-1.29-.31-1.29-.69-1.29S105.6,91.53,105.6,92.25Z" transform="translate(-17.58 -9.07)"/><path class="cls-8" d="M102.21,78.4C99.7,78.4,89,81.8,91.57,90.29c0,0,2-5.74,10.66-5.7,8.38.4,10.1,5.73,10.1,5.73C115.17,81.93,104.53,78.4,102.21,78.4Z" transform="translate(-17.58 -9.07)"/><path class="cls-6" d="M91.55,104.5s4.13,2.21,4.25,3.55-4-.29-4-.29" transform="translate(-17.58 -9.07)"/><path class="cls-6" d="M113.07,105.32s-3.72,3.49-7.62,4.47" transform="translate(-17.58 -9.07)"/><ellipse class="cls-6" cx="78.76" cy="83.45" rx="3.84" ry="3.92"/><path class="cls-6" d="M91.51,91.06a4.31,4.31,0,0,1,1,.66" transform="translate(-17.58 -9.07)"/><ellipse class="cls-6" cx="89.38" cy="83.55" rx="3.84" ry="3.92"/><path class="cls-6" d="M112.25,91s-1.24.4-1.5.84" transform="translate(-17.58 -9.07)"/><path class="cls-6" d="M100.26,92.57s.87-.91,2.9,0" transform="translate(-17.58 -9.07)"/><path class="cls-1" d="M182.7,126.12s-1.08-6.2-5.19-8.84-11.33-4.11-11.33-4.11H151.83s-7.21,1.47-11.32,4.11-5.2,8.84-5.2,8.84l24.05.16h0Z" transform="translate(-17.58 -9.07)"/><path class="cls-2" d="M166.24,113.37c-1.34-2.26-1.69-7.56-1.69-7.56-2.09-.15-4.91,1.25-5.56,1.6-.75-.4-3.46-1.71-5.49-1.56,0,0-.35,5.29-1.69,7.56,0,0,2.58,4,6.68,3.87A10.69,10.69,0,0,0,166.24,113.37Z" transform="translate(-17.58 -9.07)"/><path class="cls-1" d="M164.57,106.29s-5.76,5.34-11.5,3.17l.39-3.3s5.55,1.71,7.68,1.24A16.59,16.59,0,0,0,164.57,106.29Z" transform="translate(-17.58 -9.07)"/><path class="cls-2" d="M146.87,84.33v11.2a12,12,0,1,0,24,0V84.33s-4.08-3.77-11.87-3.77C149.86,80.56,146.87,84.33,146.87,84.33Z" transform="translate(-17.58 -9.07)"/><path class="cls-2" d="M146.75,90.22s-1.9.7-2,3.61a3.85,3.85,0,0,0,2.05,3.8Z" transform="translate(-17.58 -9.07)"/><path class="cls-2" d="M171,90s1.9.7,2,3.61a3.88,3.88,0,0,1-2.06,3.8Z" transform="translate(-17.58 -9.07)"/><path class="cls-3" d="M151.14,86.86A2.59,2.59,0,0,1,153.3,86a2.73,2.73,0,0,1,2,.86" transform="translate(-17.58 -9.07)"/><path class="cls-1" d="M154.53,91.63c0,.78-.34,1.41-.76,1.41s-.75-.63-.75-1.41.34-1.41.75-1.41S154.53,90.85,154.53,91.63Z" transform="translate(-17.58 -9.07)"/><path class="cls-4" d="M158.1,92.34a46.77,46.77,0,0,0-.64,4.94c.14.37,1.67,1,3.14.39" transform="translate(-17.58 -9.07)"/><path class="cls-3" d="M166,87.11a2.57,2.57,0,0,0-2.15-.81,2.74,2.74,0,0,0-2,.86" transform="translate(-17.58 -9.07)"/><path class="cls-5" d="M156.32,100.87a5.65,5.65,0,0,0,4.92-.11" transform="translate(-17.58 -9.07)"/><path class="cls-1" d="M162.87,91.73c0,.78.34,1.41.75,1.41s.75-.63.75-1.41-.33-1.41-.75-1.41S162.87,91,162.87,91.73Z" transform="translate(-17.58 -9.07)"/><path class="cls-8" d="M158.74,73.93c-14.28,0-18.08,16.72-17.07,26.84s10.24,11.55,10.71,11,1.22-5.34,1.22-5.34c-5-1.9-6.77-8.77-6.77-8.77-2.37-1-2.13-4-2.13-4,.35-3,2.25-3.37,2.25-3.37.11-2.87,6.26-6,11.79-6.09,6,.47,11.9,3.57,12,6.44,0,0,1.79.09,2.14,3.07,0,0,.23,3-2.14,4,0,0-1.63,6.8-6.67,8.7,0,0,.66,4.83,1.13,5.41s9.69-.85,10.7-11S174.87,73.93,158.74,73.93Z" transform="translate(-17.58 -9.07)"/><path class="cls-8" d="M157.32,94.58a1.76,1.76,0,1,1-1.76-1.82A1.8,1.8,0,0,1,157.32,94.58Z" transform="translate(-17.58 -9.07)"/><path class="cls-8" d="M163.66,94.73a1.76,1.76,0,1,1-1.76-1.82A1.79,1.79,0,0,1,163.66,94.73Z" transform="translate(-17.58 -9.07)"/><path class="cls-6" d="M160.29,94.52a2.9,2.9,0,0,0-3.28.1" transform="translate(-17.58 -9.07)"/><path class="cls-8" d="M41,137.25c-5.77,1-8.67,7.45-11.34,8.78s-2.44,6.29-.52,7.1a2.74,2.74,0,0,0,.23,4.19A5,5,0,0,0,25,160.64s-3-.35-2.74,3.49c0,0-1.69.11-1.28,2.32s3.2,1.46,3.2,1.46a2.3,2.3,0,0,0,2,2.38,3.3,3.3,0,0,0,3.08-.75s.41,1.57,3.26,1.62,3.72-1.33,3.72-1.33a3.92,3.92,0,0,0,3,.17c1.57-.58,10.12-.7,10.12-.7a6.37,6.37,0,0,0,5.7,1,3.18,3.18,0,0,0,3.08.52c1.63-.7,1.69-1.39,1.69-1.39a6.53,6.53,0,0,0,3.66-.41,3.48,3.48,0,0,0,2-2.85s1.74.52,2.62-.47a1.91,1.91,0,0,0-1.86-3.14s.81-1.45-1-2.44a3.62,3.62,0,0,0-1.69-3.2c-1.8-1-2.85-.35-2.85-.35a3.87,3.87,0,0,0-1-2.21,2.58,2.58,0,0,0-1.86-.35s2.1-6.46-.58-10.06c-2.55-3.44-5-2.91-5-2.91S50.43,135.56,41,137.25Z" transform="translate(-17.58 -9.07)"/><path class="cls-7" d="M66.35,186.14s-1-6.2-4.78-8.84-10.42-4.11-10.42-4.11H38s-6.64,1.48-10.42,4.12-4.78,8.84-4.78,8.84l22.12.15h0Z" transform="translate(-17.58 -9.07)"/><path class="cls-2" d="M50.47,173.13c-1.11-1.89-1.4-6.29-1.4-6.29a10.48,10.48,0,0,0-4.63,1.33,10.25,10.25,0,0,0-4.56-1.3s-.29,4.4-1.4,6.29c0,0,2.14,3.29,5.55,3.21A8.85,8.85,0,0,0,50.47,173.13Z" transform="translate(-17.58 -9.07)"/><path class="cls-1" d="M49.08,167.25s-4.78,4.43-9.55,2.62l.32-2.74s4.61,1.42,6.38,1A13.51,13.51,0,0,0,49.08,167.25Z" transform="translate(-17.58 -9.07)"/><path class="cls-2" d="M33.66,150.72l.58,7.57c0,6.05,6.4,10.52,9.93,10.52,4,0,9.27-3.11,10-11.06l.61-8.43a12.93,12.93,0,0,0-10.51-5.13C36,144.19,33.66,150.72,33.66,150.72Z" transform="translate(-17.58 -9.07)"/><path class="cls-3" d="M37.12,149.94a2.34,2.34,0,0,1,2-.75,2.5,2.5,0,0,1,1.83.79" transform="translate(-17.58 -9.07)"/><path class="cls-1" d="M40.21,154.3c0,.71-.3,1.29-.68,1.29s-.69-.58-.69-1.29.31-1.29.69-1.29S40.21,153.59,40.21,154.3Z" transform="translate(-17.58 -9.07)"/><path class="cls-4" d="M43.48,155a40.22,40.22,0,0,0-.58,4.51,2.67,2.67,0,0,0,2.87.36" transform="translate(-17.58 -9.07)"/><path class="cls-3" d="M50.7,150.17a2.35,2.35,0,0,0-2-.74,2.47,2.47,0,0,0-1.83.78" transform="translate(-17.58 -9.07)"/><path class="cls-5" d="M41.85,162.74a5.15,5.15,0,0,0,4.5-.1" transform="translate(-17.58 -9.07)"/><path class="cls-1" d="M47.84,154.39c0,.71.31,1.29.69,1.29s.68-.58.68-1.29-.31-1.29-.68-1.29S47.84,153.68,47.84,154.39Z" transform="translate(-17.58 -9.07)"/><path class="cls-8" d="M33.67,150.83a15.26,15.26,0,0,0,2.56-2.38c1.17-1.4,1.31-1.89,3.06-1.69s3.22-.26,3.57-.81c0,0,2.3,1.57,4,.84s1.86-1.1,1.86-1.1,0,1.07,1.54,1.83,2,.38,2,.38.17,3.54,2.5,4.56a9.66,9.66,0,0,0,.49-4.42c-.4-1.95-2.38-3.66-7.3-4.39S34.81,142.81,33.67,150.83Z" transform="translate(-17.58 -9.07)"/><path class="cls-2" d="M33.66,152.27s-1.84.83-1.72,3.74a3.85,3.85,0,0,0,2.31,3.65Z" transform="translate(-17.58 -9.07)"/><path class="cls-2" d="M54.54,152.57s1.85.82,1.73,3.73A3.86,3.86,0,0,1,54,160Z" transform="translate(-17.58 -9.07)"/><path class="cls-2" d="M126,186.37l-21.48.16h0l-22.11-.15s1-6.21,4.77-8.84,10.42-4.11,10.42-4.11h13.2a40.59,40.59,0,0,1,8.89,3.18,16,16,0,0,1,1.41.85l.12.08a9,9,0,0,1,2.26,2.38,12.46,12.46,0,0,1,.82,1.4A19.21,19.21,0,0,1,126,186.37Z" transform="translate(-17.58 -9.07)"/><path class="cls-2" d="M110.15,173.36c-1.11-1.88-1.4-6.28-1.4-6.28a10.41,10.41,0,0,0-4.62,1.32,10.36,10.36,0,0,0-4.57-1.29s-.29,4.4-1.4,6.28c0,0,2.14,3.29,5.55,3.22A8.89,8.89,0,0,0,110.15,173.36Z" transform="translate(-17.58 -9.07)"/><path class="cls-1" d="M108.76,167.48s-4.78,4.43-9.55,2.62l.32-2.73s4.61,1.41,6.38,1A13.83,13.83,0,0,0,108.76,167.48Z" transform="translate(-17.58 -9.07)"/><path class="cls-2" d="M93.34,151l.58,7.57c0,6,6.4,10.52,9.93,10.52,4,0,9.27-3.11,10-11.06l.6-8.43a12.92,12.92,0,0,0-10.5-5.13C95.63,144.42,93.34,151,93.34,151Z" transform="translate(-17.58 -9.07)"/><path class="cls-3" d="M96.81,150.17a2.33,2.33,0,0,1,2-.75,2.51,2.51,0,0,1,1.84.79" transform="translate(-17.58 -9.07)"/><ellipse class="cls-1" cx="81.63" cy="145.46" rx="0.69" ry="1.29"/><path class="cls-4" d="M103.16,155.18a40.12,40.12,0,0,0-.58,4.52,2.68,2.68,0,0,0,2.87.35" transform="translate(-17.58 -9.07)"/><path class="cls-3" d="M110.38,150.4a2.35,2.35,0,0,0-2-.74,2.5,2.5,0,0,0-1.83.79" transform="translate(-17.58 -9.07)"/><path class="cls-5" d="M101.54,163a5.13,5.13,0,0,0,4.49-.1" transform="translate(-17.58 -9.07)"/><ellipse class="cls-1" cx="90.62" cy="145.56" rx="0.69" ry="1.29"/><path class="cls-2" d="M114.23,152.8s1.84.83,1.72,3.73a3.86,3.86,0,0,1-2.32,3.65Z" transform="translate(-17.58 -9.07)"/><path class="cls-8" d="M109.55,145.72a14.42,14.42,0,0,1-6.29,4.08c-3.56.93-.15-3.07-.15-3.07s-9,2.14-9.43,8.42c0,0,.12,6.07.78,7.23a26.51,26.51,0,0,0,4.6,5.06c.81.47.52.35.52.35s-.55,4.46-1.42,5.6c0,0-13.47,1.88-15,10.14a2.37,2.37,0,0,1-.78-2.4,2.56,2.56,0,0,1-1.71,1.32c-1.12.15-2.21-8,3.34-13.19s3.88-14.11,3.8-17.64a14.19,14.19,0,0,1,7.1-12.28c6.22-3.49,10.66-3.43,15.2,0,0,0,5.12-.24,7.29,5.81s4,10.94,3.18,17.84-4.5,10.55-6.91,11l-3.54-.63s-1.74-4.1-1.39-5.88a12.32,12.32,0,0,0,4.86-7.48s1.7,0,2.32-3.65c0,0,.13-2.61-1.71-3.55a17.83,17.83,0,0,1-.3,2.89c-.2.31-1.55-1.63-1.4-3.92A5.68,5.68,0,0,1,109.55,145.72Z" transform="translate(-17.58 -9.07)"/><ellipse class="cls-1" cx="79.32" cy="173.56" rx="0.84" ry="0.81"/><ellipse class="cls-1" cx="82.43" cy="171.32" rx="0.84" ry="0.81"/><path class="cls-1" d="M100.77,184.86a.85.85,0,1,1-.84-.81A.83.83,0,0,1,100.77,184.86Z" transform="translate(-17.58 -9.07)"/><path class="cls-1" d="M103.91,182.57a.84.84,0,1,1-.84-.82A.83.83,0,0,1,103.91,182.57Z" transform="translate(-17.58 -9.07)"/><ellipse class="cls-1" cx="88.69" cy="171.43" rx="0.84" ry="0.81"/><path class="cls-1" d="M107,185a.84.84,0,0,1-1.68,0,.84.84,0,0,1,1.68,0Z" transform="translate(-17.58 -9.07)"/><path class="cls-1" d="M110.17,182.68a.85.85,0,0,1-1.69,0,.85.85,0,0,1,1.69,0Z" transform="translate(-17.58 -9.07)"/><ellipse class="cls-1" cx="94.94" cy="171.52" rx="0.84" ry="0.81"/><path class="cls-1" d="M113.28,185.07a.85.85,0,1,1-.85-.82A.83.83,0,0,1,113.28,185.07Z" transform="translate(-17.58 -9.07)"/><path class="cls-1" d="M116.42,182.77a.85.85,0,0,1-1.69,0,.85.85,0,0,1,1.69,0Z" transform="translate(-17.58 -9.07)"/><ellipse class="cls-1" cx="76.19" cy="171.2" rx="0.84" ry="0.81"/><ellipse class="cls-1" cx="76.1" cy="175.68" rx="0.84" ry="0.81"/><path class="cls-1" d="M91.7,182.66a.85.85,0,0,1-1.69,0,.85.85,0,0,1,1.69,0Z" transform="translate(-17.58 -9.07)"/><path class="cls-1" d="M88.57,180.31a.85.85,0,1,1-.85-.82A.83.83,0,0,1,88.57,180.31Z" transform="translate(-17.58 -9.07)"/><ellipse class="cls-1" cx="70.05" cy="175.72" rx="0.84" ry="0.81"/><ellipse class="cls-1" cx="103.81" cy="173.65" rx="0.84" ry="0.81"/><path class="cls-1" d="M119.1,180.36a.84.84,0,1,1-.84-.81A.82.82,0,0,1,119.1,180.36Z" transform="translate(-17.58 -9.07)"/><ellipse class="cls-1" cx="100.59" cy="175.78" rx="0.84" ry="0.81"/><ellipse class="cls-1" cx="68.06" cy="173.7" rx="0.84" ry="0.81"/><path class="cls-1" d="M91.75,177.55a.85.85,0,0,1-1.69,0,.85.85,0,0,1,1.69,0Z" transform="translate(-17.58 -9.07)"/><path class="cls-1" d="M98,176.86a.85.85,0,0,1-1.69,0,.85.85,0,0,1,1.69,0Z" transform="translate(-17.58 -9.07)"/><ellipse class="cls-1" cx="92.47" cy="167.84" rx="0.84" ry="0.81"/><ellipse class="cls-1" cx="98.4" cy="168.11" rx="0.84" ry="0.81"/><path class="cls-1" d="M97.12,173.34s.19,3.72,2.92,5.13,4.27-2,4.27-2L98,172.88Z" transform="translate(-17.58 -9.07)"/><ellipse class="cls-1" cx="76.29" cy="165.86" rx="0.84" ry="0.81"/><path class="cls-1" d="M114.46,174.69a.85.85,0,1,1-.84-.81A.83.83,0,0,1,114.46,174.69Z" transform="translate(-17.58 -9.07)"/><path class="cls-1" d="M110.87,173.55s-.18,3.63-2.84,5-4.17-1.94-4.17-1.94l6.19-3.52Z" transform="translate(-17.58 -9.07)"/><path class="cls-1" d="M121.13,177.45a.85.85,0,0,1-1.63-.3.8.8,0,0,1,.22-.55A16,16,0,0,1,121.13,177.45Z" transform="translate(-17.58 -9.07)"/><path class="cls-1" d="M124.33,181.31a.73.73,0,0,1-.3.05.82.82,0,0,1-.84-.81.79.79,0,0,1,.32-.64A12.46,12.46,0,0,1,124.33,181.31Z" transform="translate(-17.58 -9.07)"/><path class="cls-1" d="M125.88,184.85A.85.85,0,1,1,125,184,.83.83,0,0,1,125.88,184.85Z" transform="translate(-17.58 -9.07)"/><path class="cls-2" d="M181.87,186.84,160.4,187h0l-22.12-.15s.8-5,3.67-7.9a7.73,7.73,0,0,1,1.11-.95c3.78-2.63,10.94-4.14,10.94-4.14,1.12-1.89,1.4-6.29,1.4-6.29a10.45,10.45,0,0,1,4.57,1.29,10.49,10.49,0,0,1,4.62-1.32s.29,4.4,1.41,6.29a42.52,42.52,0,0,1,9.57,3.24,13.7,13.7,0,0,1,1.4.85l.12.08a8.86,8.86,0,0,1,2.27,2.38,12.24,12.24,0,0,1,.81,1.39A19.34,19.34,0,0,1,181.87,186.84Z" transform="translate(-17.58 -9.07)"/><path class="cls-1" d="M164.61,167.94s-4.79,4.43-9.56,2.63l.32-2.74s4.61,1.42,6.39,1A13.13,13.13,0,0,0,164.61,167.94Z" transform="translate(-17.58 -9.07)"/><path class="cls-2" d="M149.19,151.41l.58,7.58c0,6,6.4,10.52,9.92,10.52,4,0,9.27-3.12,10-11.07l.6-8.42a12.92,12.92,0,0,0-10.5-5.13C151.47,144.89,149.19,151.41,149.19,151.41Z" transform="translate(-17.58 -9.07)"/><path class="cls-3" d="M152.65,150.63a2.35,2.35,0,0,1,2-.74,2.5,2.5,0,0,1,1.83.79" transform="translate(-17.58 -9.07)"/><path class="cls-1" d="M155.74,155c0,.71-.31,1.29-.69,1.29s-.68-.58-.68-1.29.3-1.29.68-1.29S155.74,154.28,155.74,155Z" transform="translate(-17.58 -9.07)"/><path class="cls-4" d="M159,155.64a42.4,42.4,0,0,0-.59,4.52,2.69,2.69,0,0,0,2.87.36" transform="translate(-17.58 -9.07)"/><path class="cls-3" d="M166.22,150.87a2.33,2.33,0,0,0-2-.75,2.51,2.51,0,0,0-1.84.79" transform="translate(-17.58 -9.07)"/><path class="cls-5" d="M157.38,163.44a5.13,5.13,0,0,0,4.49-.1" transform="translate(-17.58 -9.07)"/><path class="cls-1" d="M163.36,155.09c0,.71.31,1.29.69,1.29s.69-.58.69-1.29-.31-1.29-.69-1.29S163.36,154.38,163.36,155.09Z" transform="translate(-17.58 -9.07)"/><path class="cls-2" d="M170.07,153.26s1.85.83,1.72,3.74a3.85,3.85,0,0,1-2.31,3.65Z" transform="translate(-17.58 -9.07)"/><path class="cls-2" d="M149.22,153.5s-1.85.82-1.72,3.73a3.85,3.85,0,0,0,2.31,3.65Z" transform="translate(-17.58 -9.07)"/><path class="cls-8" d="M166.71,147.62a48.16,48.16,0,0,1-7.49.86c-3.68.08-8.68-2.1-9.89,5.31,0,0-1.35-.31-1.82,3.14a10.69,10.69,0,0,1-3.3-7.87c.08-5,3.91-7.72,7.3-9.42,5.08-2.56,12.29-2.84,16.79,2.48,0,0,6.94,3,2.83,12.06L170,153.4l-.19,2.21S167.79,154.41,166.71,147.62Z" transform="translate(-17.58 -9.07)"/><path class="cls-8" d="M148.67,160.31s-1.93,1-1.35,3.91-.7,2.17-1.44,4-2.83,5.31,1.44,7.6,5,1.16,5.23,2.09-1,3.57.35,4.85,2.72.54,2.25-.23-1.43-1.36-.74-1.59,1.67,1,1.71,2.32.66,1.28,1.24,0-1.12-3.22-.85-3.64,1.59-.55,1.94-2.56-1.79-5.42-3.4-6.49l.1-2.55s-4.87-2.61-5.34-7.14Z" transform="translate(-17.58 -9.07)"/><path class="cls-7" d="M181.87,186.84,160.4,187h0l-22.12-.15s.8-5,3.67-7.9h0s19.46,13,33.58-1.89a13.7,13.7,0,0,1,1.4.85l.12.08a8.86,8.86,0,0,1,2.27,2.38,12.24,12.24,0,0,1,.81,1.39A19.34,19.34,0,0,1,181.87,186.84Z" transform="translate(-17.58 -9.07)"/><path class="cls-2" d="M149.33,161a.39.39,0,0,0-.63-.18c-.88.72-2.72,2.38-2.09,3.26.81,1.13,3,1.57,3.61,1.1S149.75,162.17,149.33,161Z" transform="translate(-17.58 -9.07)"/><path class="cls-2" d="M169.5,160.63a.4.4,0,0,1,.64-.18c.88.72,2.72,2.39,2.09,3.26-.81,1.13-3,1.57-3.61,1.1S169.09,161.78,169.5,160.63Z" transform="translate(-17.58 -9.07)"/><path class="cls-6" d="M147.43,175.82a15.93,15.93,0,0,0,.78,6.16" transform="translate(-17.58 -9.07)"/><path class="cls-6" d="M169.58,174.89s.47,4.66-.58,7.06" transform="translate(-17.58 -9.07)"/></svg>