<?xml version="1.0" encoding="iso-8859-1"?>
<!-- Generator: Adobe Illustrator 19.0.0, SVG Export Plug-In . SVG Version: 6.00 Build 0)  -->
<svg version="1.1" id="Capa_1" xmlns="http://www.w3.org/2000/svg" xmlns:xlink="http://www.w3.org/1999/xlink" x="0px" y="0px"
	 viewBox="0 0 512 512" style="enable-background:new 0 0 512 512;" xml:space="preserve">
<g>
	<g>
		<path d="M0,0v512h512V0H0z M482,482H30V30h452V482z"/>
	</g>
</g>
<g>
	<g>
		<path d="M60,60v392h392V60H60z M229.262,352l-40.32-60.96L148.382,352h-36l58.8-84l-60.721-86.4h36l42.48,63.36l42.24-63.36h35.76
			l-60.72,86.4l58.8,84H229.262z M390.54,353.68c-23.221,0-21.119-23.52-21.119-23.52c-4.643,8.002-18.477,24.24-43.68,24.24
			c-36.922,0-59.761-30.775-59.761-65.28c0-39.12,26.339-65.04,56.16-65.04c25.262,0,38.317,17.04,42.479,24.24V176.8h32.16v138.24
			c0,3.36,4.718,9.442,7.44,9.6V352h0.002C398.618,353.118,394.058,353.68,390.54,353.68z"/>
	</g>
</g>
<g>
	<g>
		<path d="M332.221,251.44c-21.901,0-32.88,21.727-32.88,38.4c0,18.327,13.479,37.2,34.8,37.2c20.179,0,29.358-18.079,30.479-21.12
			v-30C363.338,272.402,351.819,251.44,332.221,251.44z"/>
	</g>
</g>
<g>
</g>
<g>
</g>
<g>
</g>
<g>
</g>
<g>
</g>
<g>
</g>
<g>
</g>
<g>
</g>
<g>
</g>
<g>
</g>
<g>
</g>
<g>
</g>
<g>
</g>
<g>
</g>
<g>
</g>
</svg>
