<svg width="100" height="100" viewBox="0 0 100 100" xmlns="http://www.w3.org/2000/svg" xmlns:xlink="http://www.w3.org/1999/xlink"><title>design-categories-label-design</title><defs><path id="a" d="M0 80h80V0H0z"/></defs><g transform="translate(10 10)" fill="none" fill-rule="evenodd"><path d="M33.593 37.403s-.11 3.534 5.023 7.537c13.087 10.21 8.281 32.868-7.15 32.982H15.859C.428 77.808-4.38 55.15 8.709 44.94c5.131-4.003 5.022-7.537 5.022-7.537" fill="#F5F5F5"/><path d="M13.7 36.403a1 1 0 0 1 1.03.969c.011.653-.173 1.612-.714 2.798-.846 1.855-2.362 3.74-4.692 5.558C-3.1 55.42 1.497 76.816 15.858 76.922H31.46C45.827 76.816 50.424 55.42 38 45.728c-2.33-1.817-3.845-3.702-4.691-5.556-.541-1.186-.726-2.147-.716-2.78a1.004 1.004 0 0 1 1.032-.989 1 1 0 0 1 .968 1.025 2.75 2.75 0 0 0 .06.476c.08.423.233.906.475 1.438.71 1.556 2.021 3.186 4.103 4.809 13.805 10.77 8.674 34.65-7.764 34.771H15.85C-.58 78.801-5.712 54.921 8.094 44.151c2.081-1.623 3.392-3.254 4.102-4.81a6.407 6.407 0 0 0 .476-1.438c.047-.242.06-.405.06-.479a.999.999 0 0 1 .968-1.02zm20.893 1.03z" fill="#5D6D81" fill-rule="nonzero"/><path d="M70.51 13.711l-.05-.04c-1.854-1.567-1.351-4.299.648-5.699.788-.552 1.299-1.428 1.299-2.41V4.053c0-1.658-1.455-3.015-3.234-3.015H51.39c-1.778 0-3.233 1.357-3.233 3.015V5.56c0 1.005.533 1.89 1.35 2.437 1.87 1.25 2.625 3.657 1.135 5.293a4.21 4.21 0 0 1-.47.44c-3.407 2.736-8.482 5.763-8.482 12.936v20.732c6.717 7.818 6.12 19.785.197 26.187.663 2.479 3.06 4.336 5.916 4.336H72.76c3.362 0 6.112-2.564 6.112-5.7V26.667c0-7.194-5.01-10.212-8.363-12.956" fill="#F5F5F5"/><path d="M73.853 15.098c4.014 3.327 6.02 6.6 6.02 11.569v45.555c0 3.704-3.212 6.7-7.112 6.7H47.803c-3.256 0-6.088-2.11-6.882-5.077l-.142-.533.374-.405c5.814-6.285 5.934-17.692-.221-24.856l-.242-.28V26.666c0-4.968 2.042-8.245 6.12-11.57.57-.466 2.447-1.914 2.734-2.144.135-.11.254-.22.358-.336.972-1.066.55-2.784-.951-3.788-1.112-.743-1.794-1.947-1.794-3.268V4.054c0-2.227 1.917-4.015 4.233-4.015h17.783c2.316 0 4.234 1.788 4.234 4.015v1.507c0 1.293-.654 2.48-1.725 3.23-1.567 1.097-1.834 3.052-.58 4.112.347.284 2.195 1.733 2.751 2.195zm-26.05 61.824H72.76c2.825 0 5.112-2.133 5.112-4.7V26.667c0-4.276-1.698-7.046-5.296-10.03-.53-.44-2.371-1.883-2.7-2.152-2.396-2.022-1.918-5.528.658-7.332.55-.386.872-.97.872-1.592V4.054c0-1.09-.993-2.015-2.234-2.015H51.39c-1.241 0-2.233.925-2.233 2.015v1.507c0 .633.334 1.223.906 1.605 2.436 1.63 3.198 4.735 1.32 6.796a5.176 5.176 0 0 1-.584.548c-.312.25-2.18 1.692-2.726 2.137-3.656 2.982-5.383 5.753-5.383 10.02v20.367c6.43 7.776 6.367 19.765.327 26.788.724 1.822 2.616 3.1 4.786 3.1z" fill="#5D6D81" fill-rule="nonzero"/><path d="M53.868 7.312a1 1 0 1 1 0 2h-2.112c-2.344 0-4.305-1.727-4.305-3.91V3.949c0-2.183 1.961-3.909 4.305-3.909h18.178c2.344 0 4.305 1.726 4.305 3.91v1.454c0 2.182-1.961 3.909-4.305 3.909h-9.456a1 1 0 1 1 0-2h9.456c1.292 0 2.305-.892 2.305-1.91V3.949c0-1.017-1.013-1.909-2.305-1.909H51.756c-1.292 0-2.305.892-2.305 1.91v1.454c0 1.017 1.013 1.909 2.305 1.909h2.112zM17.959 36.403a1 1 0 0 1 0 2h-3.452c-2.325 0-4.24-1.842-4.24-4.117 0-2.276 1.915-4.117 4.24-4.117h19.437c2.325 0 4.24 1.841 4.24 4.117 0 2.275-1.915 4.117-4.24 4.117h-7.699a1 1 0 1 1 0-2h7.699c1.238 0 2.24-.964 2.24-2.117s-1.002-2.117-2.24-2.117H14.507c-1.238 0-2.24.964-2.24 2.117s1.002 2.117 2.24 2.117h3.452z" fill="#5D6D81" fill-rule="nonzero"/><mask id="b" fill="#fff"><use xlink:href="#a"/></mask><path fill="#EBB200" mask="url(#b)" d="M60.845 66.494h18.028V30.13H60.845z"/><g mask="url(#b)" fill="#FFF" fill-rule="nonzero"><path d="M75.805 57.737v-1c.713 0 1.416-.079 2.1-.233l.22.976c-.756.17-1.532.257-2.32.257zm4.552-1.035l-.434-.901a9.506 9.506 0 0 0 1.788-1.122l.622.783c-.61.485-1.273.901-1.976 1.24zm3.65-2.907l-.78-.625a9.56 9.56 0 0 0 1.128-1.785l.9.437c-.342.702-.76 1.364-1.248 1.973zm2.022-4.15l-.974-.23c.16-.681.245-1.383.251-2.096l1 .008c-.007.787-.1 1.563-.277 2.317zm.033-4.672l-.977.214a9.427 9.427 0 0 0-.68-1.997l.904-.427c.332.705.585 1.445.753 2.21zm-1.988-4.212l-.787.617a9.561 9.561 0 0 0-1.48-1.508l.633-.774a10.561 10.561 0 0 1 1.634 1.665zm-3.695-2.98l-.436.9a9.428 9.428 0 0 0-1.99-.703l.225-.974c.763.176 1.5.437 2.201.777zm-4.459-1.046l-.01 1h-.102c-.68 0-1.35.07-2.002.21l-.209-.978a10.56 10.56 0 0 1 2.21-.232h.113zm-4.562.985l.424.906c-.64.3-1.243.67-1.8 1.103l-.614-.79a10.501 10.501 0 0 1 1.99-1.219zm-3.682 2.868l.774.633a9.512 9.512 0 0 0-1.148 1.772l-.895-.447c.35-.698.775-1.355 1.27-1.958zm-2.068 4.129l.971.239a9.512 9.512 0 0 0-.273 2.094l-1-.02c.015-.786.117-1.56.302-2.313zm-.083 4.672l.98-.204c.144.694.365 1.365.659 2.005l-.91.417a10.426 10.426 0 0 1-.729-2.218zm1.942 4.231l.794-.608c.43.56.92 1.071 1.462 1.523l-.64.768a10.56 10.56 0 0 1-1.616-1.683zm3.659 3.02l.446-.896a9.43 9.43 0 0 0 1.982.725l-.236.972a10.43 10.43 0 0 1-2.192-.802zm4.45 1.095l.022-1 .204.002v1c-.076 0-.15 0-.226-.002zm7.15-11.98a.167.167 0 0 1 .183.132.172.172 0 0 1-.111.2c-1.023.343-3.773 1.411-4.213 2.233-.462.863.784 3.184 1.303 4.005a.174.174 0 0 1-.046.235.163.163 0 0 1-.228-.041c-.018-.025-1.744-2.477-3.402-2.308-.965.099-2.652 2.516-3.22 3.44a.165.165 0 0 1-.14.079.16.16 0 0 1-.082-.022.174.174 0 0 1-.068-.224c.39-.828 1.275-3.14.696-3.894-1.241-1.614-4.239-.716-4.269-.707a.166.166 0 0 1-.206-.113.172.172 0 0 1 .106-.214c.877-.3 3.185-1.252 3.436-2.07-.088-1.56-2.135-3.33-2.156-3.348a.175.175 0 0 1-.024-.239.163.163 0 0 1 .231-.028c.027.02 2.647 2.073 4.515 1.451 2.063-.686 3.046-3.608 3.055-3.637a.166.166 0 0 1 .2-.11.17.17 0 0 1 .12.198c-.006.036-.68 3.59.2 4.762.384.51 2.73.406 4.12.22zm-1.847-2.895a1.253 1.253 0 1 1-1.364 2.102 1.253 1.253 0 0 1 1.364-2.102zm-9.676 2.456c.436.282.56.865.276 1.3a.939.939 0 1 1-.276-1.3zm.883 4.179c.387.282.498.864.246 1.3-.251.436-.768.559-1.156.276-.387-.283-.496-.864-.245-1.3.251-.436.768-.56 1.155-.276zm5.128 1.896a1.044 1.044 0 1 1-1.137 1.752 1.044 1.044 0 0 1 1.137-1.752zm3.552-3.342a1.044 1.044 0 1 1-1.137 1.752 1.044 1.044 0 0 1 1.137-1.752zm-5.319-6.86a1.252 1.252 0 1 1-1.364 2.102 1.253 1.253 0 1 1 1.364-2.102z"/></g><path d="M59.845 67.494V29.13h20.028v38.364H59.845zm18.028-2V31.13H61.845v34.364h16.028z" fill="#5D6D81" fill-rule="nonzero" mask="url(#b)"/><path d="M18.22 50.91H3.565C.517 56.507.422 63.275 2.748 68.57H18.22c1.754 0 3.19-1.324 3.19-2.943V53.853c0-1.62-1.436-2.944-3.19-2.944" fill="#5BAADC" mask="url(#b)"/><g fill="#FFF" mask="url(#b)"><path d="M14.21 58.322c-.02-.084-.108-.14-.2-.13-1.523.183-4.094.285-4.515-.215-.966-1.149-.227-4.634-.22-4.669.02-.086-.038-.172-.13-.195-.093-.022-.19.025-.22.109-.01.028-1.088 2.893-3.35 3.566-2.046.61-4.919-1.403-4.947-1.423a.193.193 0 0 0-.254.028.159.159 0 0 0 .026.234c.023.017 2.267 1.754 2.364 3.282-.275.802-2.805 1.736-3.766 2.03-.094.03-.146.122-.116.21.03.087.13.136.225.11.033-.009 3.319-.889 4.679.694.635.74-.335 3.006-.763 3.817a.162.162 0 0 0 .075.22.193.193 0 0 0 .243-.056c.623-.905 2.472-3.275 3.53-3.372 1.817-.166 3.71 2.238 3.728 2.262a.192.192 0 0 0 .25.041.16.16 0 0 0 .05-.23c-.568-.806-1.934-3.081-1.427-3.927.482-.806 3.496-1.853 4.617-2.19a.166.166 0 0 0 .122-.196"/><path d="M11.91 55.446c.624.373.8 1.14.396 1.716-.403.573-1.236.737-1.859.364-.622-.373-.8-1.14-.395-1.715.404-.574 1.236-.738 1.859-.365M1.306 57.833c.46.275.592.843.292 1.267-.297.425-.912.546-1.373.27-.46-.276-.59-.843-.291-1.267.298-.425.913-.546 1.372-.27m1.14 4.253c.453.27.582.829.288 1.247-.294.418-.9.536-1.353.265-.453-.271-.58-.83-.287-1.247.294-.418.9-.537 1.352-.265m5.33 1.691c.51.306.655.934.323 1.404-.33.47-1.01.603-1.52.298s-.655-.934-.324-1.403c.33-.47 1.012-.604 1.52-.3m4.205-3.3c.542.324.695.99.344 1.49-.35.498-1.074.64-1.615.317-.541-.324-.695-.99-.344-1.49s1.074-.64 1.615-.317m-6.01-6.573c.624.373.8 1.14.396 1.715-.404.574-1.236.737-1.858.365-.624-.373-.8-1.14-.396-1.715.404-.574 1.237-.738 1.859-.365"/></g><path d="M18.22 50.91H3.565C.517 56.507.422 63.275 2.748 68.57H18.22c1.754 0 3.19-1.324 3.19-2.943V53.853c0-1.62-1.436-2.944-3.19-2.944z" stroke="#5D6D81" stroke-width="2" stroke-linecap="round" mask="url(#b)"/></g></svg>