<svg width="100" height="100" viewBox="0 0 100 100" xmlns="http://www.w3.org/2000/svg"><title>design-categories-letterhead-design</title><g fill="none" fill-rule="evenodd"><path fill="#F5F5F5" d="M83.292 27.574L62.668 7H17v85.234h66.292z"/><g stroke="#5D6D81" stroke-width="2"><path d="M83.292 27.574L62.668 7H17v85.234h66.292z"/><path fill="#6E8097" d="M61.438 7v20.762h20.993"/></g><path d="M42.412 19.02h7.734" stroke="#5D6D81" stroke-width="2" stroke-linecap="round"/><path d="M42.412 24.484H53.46" stroke="#7DDEB1" stroke-width="2" stroke-linecap="round"/><path d="M30.258 60.544H55.67m3.315-9.834h9.943" stroke="#5D6D81" stroke-width="2" stroke-linecap="round"/><path d="M30.258 40.875h7.734" stroke="#5BAADC" stroke-width="2" stroke-linecap="round"/><path d="M52.356 40.875h9.943" stroke="#5D6D81" stroke-width="2" stroke-linecap="round"/><path d="M37.992 50.71H53.46" stroke="#EBB200" stroke-width="2" stroke-linecap="round"/><path d="M38.16 19.684a.19.19 0 0 1 .21.14.181.181 0 0 1-.126.213c-1.17.365-4.313 1.5-4.816 2.375-.528.918.896 3.387 1.49 4.26a.178.178 0 0 1-.053.25.195.195 0 0 1-.261-.044c-.02-.026-1.993-2.635-3.888-2.454-1.104.105-3.032 2.676-3.682 3.658a.195.195 0 0 1-.253.061.179.179 0 0 1-.078-.238c.446-.88 1.458-3.34.795-4.142-1.418-1.717-4.844-.762-4.879-.752a.192.192 0 0 1-.235-.12.18.18 0 0 1 .121-.228c1.002-.32 3.64-1.332 3.928-2.202-.102-1.659-2.442-3.542-2.465-3.561a.177.177 0 0 1-.027-.254.195.195 0 0 1 .264-.03c.03.022 3.025 2.205 5.16 1.544 2.358-.73 3.482-3.838 3.493-3.87a.192.192 0 0 1 .229-.117.182.182 0 0 1 .137.211c-.008.038-.779 3.819.229 5.065.438.543 3.12.432 4.708.235zm-2.11-3.08c.664.401.853 1.226.422 1.845-.43.616-1.318.792-1.981.392-.664-.402-.853-1.227-.422-1.844.43-.618 1.318-.794 1.982-.393zm-11.06 2.613c.498.3.64.92.315 1.383-.321.463-.986.595-1.485.294-.498-.301-.64-.92-.316-1.383.323-.463.988-.595 1.486-.294zM26 23.661c.442.3.568.92.28 1.383a.93.93 0 0 1-1.32.294 1.026 1.026 0 0 1-.282-1.382.93.93 0 0 1 1.322-.295zm5.86 2.018c.554.335.711 1.023.352 1.537-.359.515-1.098.661-1.651.327-.553-.334-.711-1.023-.351-1.537.358-.515 1.098-.66 1.65-.327zm4.06-3.555c.554.333.71 1.022.352 1.536-.359.515-1.098.662-1.651.327-.554-.333-.71-1.021-.352-1.536.359-.515 1.099-.661 1.652-.327zm-6.079-7.297c.664.4.853 1.225.422 1.843-.43.618-1.318.794-1.981.393-.665-.401-.853-1.227-.422-1.844.43-.618 1.318-.794 1.981-.392z" fill="#5D6D81" fill-rule="nonzero"/><path d="M58.985 71.472h9.943" stroke="#F08481" stroke-width="2" stroke-linecap="round"/><path d="M37.992 71.472H53.46" stroke="#5D6D81" stroke-width="2" stroke-linecap="round"/></g></svg>