<svg id="Layer_1" data-name="Layer 1" xmlns="http://www.w3.org/2000/svg" viewBox="0 0 176 176"><defs><style>.cls-1{fill:#6e8097;}.cls-2{fill:none;stroke:#5d6d81;stroke-linecap:round;stroke-width:5px;}</style></defs><title>logo-design</title><path class="cls-1" d="M40.71,109.32l.71-.13.68-.33a3.29,3.29,0,0,1,1.38-.36.38.38,0,0,1,.27.13l1-.66a2.8,2.8,0,0,1,1.3-.34s.13-.12.3-.38a3.41,3.41,0,0,1,.48-.61l.49-.69a5.41,5.41,0,0,0,.69-1.14v-.22a2.23,2.23,0,0,1,.25-.49,1.49,1.49,0,0,1,.46-.53.45.45,0,0,0,.24-.29V103a1,1,0,0,1,.18-.38,2,2,0,0,1,.48-.52,3.08,3.08,0,0,0,.67-1l.27-.31.22-.13a.26.26,0,0,0,0-.18.81.81,0,0,0,0-.29.92.92,0,0,0,.29-.4l.18-.6.22-.13v-.4a1.4,1.4,0,0,1,.34-.57,5.45,5.45,0,0,0,.74-1.52l.69-1.33v-.09a4,4,0,0,0-.6.31l-.62.34a1.91,1.91,0,0,0-.41.33,1.15,1.15,0,0,1-.67.35,2.06,2.06,0,0,1-1.17.7,1.9,1.9,0,0,0-.85.3l-.27.14a.53.53,0,0,0-.27.13.47.47,0,0,1-.26.13,1.11,1.11,0,0,1-.56-.26h-.09v.17c0,.24-.06.37-.18.4a2,2,0,0,0-.39.13,1,1,0,0,1-.29.07c-.43,0-.68-.1-.73-.32a.85.85,0,0,0-.23-.43.34.34,0,0,1-.13-.27A2.33,2.33,0,0,1,47,95.6a2,2,0,0,0,.38-.16h.08l.43.11a1.18,1.18,0,0,1,.57.24.28.28,0,0,0,.23.12l.37,0,.31,0c.06,0,.18-.12.37-.34a1,1,0,0,1,.72-.39,9.33,9.33,0,0,0,2.17-1.05.58.58,0,0,1,.38-.31l.27-.33c0-.06.16-.14.49-.23a1.64,1.64,0,0,0,.89-.8,3.61,3.61,0,0,0,.39-.75.68.68,0,0,0-.05-.17.3.3,0,0,1,.18-.14c.18-.61.33-1,.47-1a7.42,7.42,0,0,0,.89-.83v-.09l-.09-.22v-.09a1.63,1.63,0,0,1,.91-1.51c.13-.79.36-1.24.68-1.36l.27-.13-.09-.69c0-.12.16-.21.47-.27l.13-.06.82-1.45a.71.71,0,0,1,.62-.46.17.17,0,0,1,.11.06h.09c.12,0,.18-.06.18-.2a.3.3,0,0,0,0-.13v-.13q0-.5.78-1.11a2.9,2.9,0,0,1,1.86-.62c.15,0,.43.18.85.54a2.06,2.06,0,0,1,.63,1.65l-.26.85a5.35,5.35,0,0,1,.13.55c0,.12-.12.21-.35.27a.52.52,0,0,0,0,.29,1,1,0,0,1-.1.44,3.92,3.92,0,0,0-.19.69s-.07,0-.13.09l-.4.13c0,.39-.09.59-.13.6h-.11l-.25.09c-.19.06-.29.15-.29.27a2.41,2.41,0,0,0,0,.26.2.2,0,0,1,0,.14c0,.35-.36.6-1.08.73a.69.69,0,0,1-.34.61,1.61,1.61,0,0,0-.44.43l-1.06,1.07a9.42,9.42,0,0,1-1.89,1.27,2.32,2.32,0,0,0-.2.57,1.4,1.4,0,0,1-.27.6l-.8,1.87v.18a.56.56,0,0,1-.28.42V96a2.11,2.11,0,0,1-.27.55l-.73,1.8q-.27.56-.48.9a3,3,0,0,0-.32.71,2.06,2.06,0,0,1-.34.66,1.86,1.86,0,0,0-.31.56c-.06.19-.32.33-.78.41a.51.51,0,0,0,.2.18c.11.06.16.12.16.18s-.1.19-.13.24a1.4,1.4,0,0,0-.1.35,1.4,1.4,0,0,1-.15.4,1.79,1.79,0,0,1-.2.28,2.69,2.69,0,0,0-.2.27.73.73,0,0,1-.22.24l-.18.46-.22.18s-.05,0-.05.13a.39.39,0,0,0,.05.14,2.84,2.84,0,0,1-.51.86,1.54,1.54,0,0,0,0,.56,1.33,1.33,0,0,1,.56.09,4.21,4.21,0,0,1,.58-.25A.93.93,0,0,1,53,106a1,1,0,0,0,.23.08l.36-.16.51.16.27,0,.59,0,.36-.11.38.06.35-.11h.18c.09,0,.42.06,1,.16h0a1.46,1.46,0,0,0,.43-.2h0a1,1,0,0,1,.33.08,1.4,1.4,0,0,0,.38.07L59,106l1,.2.27-.09a.21.21,0,0,1,.11,0,19.16,19.16,0,0,1,2.62.58l.69.13a.33.33,0,0,0,.22,0,1.21,1.21,0,0,0,.55-.18,3.54,3.54,0,0,1,1.49.56,1.74,1.74,0,0,0,.28.15,1.32,1.32,0,0,1,.36.24,4.65,4.65,0,0,0,.57.44.84.84,0,0,1,.43.7,3.6,3.6,0,0,1-.33,1.77c-.22.37-.44.56-.67.56a4.12,4.12,0,0,1-2.08-.82,1.67,1.67,0,0,0-.44-.44.65.65,0,0,1-.3-.47l-.08-.09h-.65a.51.51,0,0,1-.26-.14l-.45-.08a3.32,3.32,0,0,1-.55-.34.52.52,0,0,0-.3-.11.82.82,0,0,1-.39-.15,1.6,1.6,0,0,1-.71-.23h-.47l-.13-.08c-.06-.2-.17-.29-.31-.29h-.2l-.18,0h-.4l-.33-.22h-.09l-.31.13-.47-.17-.31.13a2.83,2.83,0,0,1-1-.13l-.36,0a1,1,0,0,0-.29-.18l-1.17.18-.49,0-.47,0-.18-.13s-.11.11-.3.21a5.25,5.25,0,0,1-1.1.3l-.73.13-.43,0-.26.09a2,2,0,0,1-.83.95c-.06,0-.1.09-.13.27a.7.7,0,0,1-.3.45,2.36,2.36,0,0,0-.39.35.94.94,0,0,1-.28.22c-.11,0-.24.25-.41.63a.87.87,0,0,1-.84.57l-.33-.09a1,1,0,0,0,.14.19.31.31,0,0,1,.08.19c0,.26-.19.4-.57.4a1.19,1.19,0,0,0-.32.21,2.41,2.41,0,0,1-.72.34l-.18.18a.68.68,0,0,1-.42.09l-1.31.51h0l-.34-.07a.44.44,0,0,0-.17.07h-.45a1.07,1.07,0,0,1-.46-.2l-.31.2a1.34,1.34,0,0,0-.51-.2,1.17,1.17,0,0,1-.77-.18q-.18-.18-.27-.18L40,113a2.5,2.5,0,0,0-.52-.11c-.2,0-.48-.26-.85-.73a2.13,2.13,0,0,1-.54-1.07.65.65,0,0,1,.18-.42,1.81,1.81,0,0,1,.57-.38c.27-.11.56-.25.87-.39Zm-.34,1.27-.82.38c-.18.06-.27.13-.27.22a.48.48,0,0,1,.09.13,1.87,1.87,0,0,1,.62.26.92.92,0,0,0,.53.16l.62.14.6,0,.18.09a5.79,5.79,0,0,0,.55-.38s0,0,.05,0l.53,0a3.6,3.6,0,0,0,.33-.25,1.55,1.55,0,0,1,.53-.28,2.6,2.6,0,0,1,.69-.73,2.37,2.37,0,0,1,.17-.4l.14-.47c-.7.06-1.1.11-1.22.13l-1.64.52C41.05,110.37,40.48,110.54,40.37,110.59ZM61.65,86.32l.64-.42a6.19,6.19,0,0,0,.83-1.29,4.16,4.16,0,0,0,.65-1.85,1.45,1.45,0,0,0,0-.35,1.66,1.66,0,0,0-.75.46c-.08.14-.38.54-.91,1.2a3.89,3.89,0,0,0-.82,1.26,3.3,3.3,0,0,1-.36.89,4.28,4.28,0,0,0-.35.75,1.94,1.94,0,0,1-.21.43,1.2,1.2,0,0,0-.19.4.08.08,0,0,0,.09.09,6.71,6.71,0,0,0,1.19-1.23A1.12,1.12,0,0,1,61.65,86.32Z" transform="translate(-8 -14)"/><path class="cls-1" d="M73.45,101.28l.13-.11h.14c.09-.09.13-.14.13-.17a.27.27,0,0,0-.07-.18.32.32,0,0,1-.06-.18.63.63,0,0,1,.42-.64,1.5,1.5,0,0,1-.07-.54.59.59,0,0,1,.19-.4,1.8,1.8,0,0,0,.34-.76.83.83,0,0,1,.67-.66v-.09l-.09-.24a.86.86,0,0,1,.18-.4v-.22a.35.35,0,0,1,.29-.36c.19,0,.29-.09.29-.15a1,1,0,0,1,.38-.65l-.09-.35c0-.12.13-.28.4-.49.48-.49.73-.86.73-1.11v-.22c0-.14.21-.38.64-.74,0,0,0,0,0,0l.31,0a4.15,4.15,0,0,0,.13-.65c0-.23.32-.58.87-1.06l0-.15a4.22,4.22,0,0,1,.36-.45l.2,0a5.56,5.56,0,0,0,.35-.69c.06-.15.14-.23.23-.24a.47.47,0,0,0,.25-.16.62.62,0,0,1,.35-.18c.19-.25.37-.51.54-.77a2.17,2.17,0,0,1,.72-.69c.06-.55.22-.82.47-.82l.31,0a3.31,3.31,0,0,1,1.18-1.26l.82-.6h.13a1,1,0,0,0,.33-.36l.32-.22c0-.28.16-.42.4-.42h.2A2.19,2.19,0,0,1,88.09,83l.34.08a.55.55,0,0,1,.35.34l.22.4c.06.21.12.31.18.31l.28-.27a6,6,0,0,0,2.45-1,2.72,2.72,0,0,0,.49.09.45.45,0,0,1,.24.09h.09a1.17,1.17,0,0,0,.32-.16,1.55,1.55,0,0,1,.32-.15l.74,0,.66.14.94-.05a2.23,2.23,0,0,1,1.17.56c.17.34.34.53.53.59s.44.46.77,1.22a4.88,4.88,0,0,1,.5,1.5v.37l-.09.71,0,.52a.84.84,0,0,1-.18.56,1,1,0,0,0-.18.66,4.66,4.66,0,0,1-.54,1.81,4.9,4.9,0,0,0-.55,1.52c-.35.93-.63,1.4-.82,1.4l-.49,1.26a1.17,1.17,0,0,1-.41.59l-.41.28,0,.64c0,.15-.2.38-.61.69-.11.27-.24.53-.36.79a1.6,1.6,0,0,1-.5.61,8.78,8.78,0,0,0-1,1.64,2.8,2.8,0,0,1-.4.31,12.88,12.88,0,0,0-.9,1.24,3,3,0,0,1-.7.81l-.31.33a1,1,0,0,1-.51.31.48.48,0,0,1,0,.22.87.87,0,0,1-.5.77,2.44,2.44,0,0,0-.63.48l-1,.91a1.5,1.5,0,0,0-.34.4,3.83,3.83,0,0,1-.43.51l-.32.49c-1,.66-1.51,1-1.55,1a1.73,1.73,0,0,0-.27.47l-.42.13a1.45,1.45,0,0,1-1,.87l-.22.09a.36.36,0,0,1-.2.15l-.28.15a3.26,3.26,0,0,1-.63.23l-.49.16-.22-.05a.51.51,0,0,1-.53.49h-.25a1.4,1.4,0,0,1-.4.18l-.09,0a1.65,1.65,0,0,1-.17.34l-.69-.05a1.43,1.43,0,0,1-.47.18l-.22,0-.22.22a1.7,1.7,0,0,0-.36-.18l-.15,0a3.71,3.71,0,0,1-.8.14l-.29-.09a3,3,0,0,0-.73-.31l-.84,0s-.13-.09-.3-.27a3.55,3.55,0,0,0-.72-.59,3.19,3.19,0,0,1-.94-1.34,4.41,4.41,0,0,1-.46-1.31L72.58,107l0-.38-.13-1.22a2,2,0,0,1,.44-1.18,3.87,3.87,0,0,1,0-.51v-.31l0-.51a.82.82,0,0,1,.33-.62l0-.56A1.58,1.58,0,0,0,73.45,101.28ZM84.31,106l0-.11v-.26c0-.26.19-.4.56-.45a3.49,3.49,0,0,0,.5-.72c.15-.29.28-.43.37-.43H86c.09,0,.13,0,.13-.09l0-.36a4.14,4.14,0,0,1,.56-.67c.29-.31.58-.62.86-1a8.79,8.79,0,0,0,.73-1,8.46,8.46,0,0,1,.6-.84c.2-.23.34-.42.44-.56a1.52,1.52,0,0,1,.59-.47L90,99V98.6a7,7,0,0,1,.51-.82c.52-.4.81-.74.85-1a1.69,1.69,0,0,1,.33-.77,2.53,2.53,0,0,0,.36-.64c.25-.14.38-.25.38-.31l.17-.31a5.68,5.68,0,0,0,.27-.64l.38-.36a2,2,0,0,0,.38-.85.65.65,0,0,1,.32-.55c.17-.07.25-.14.25-.2a1.52,1.52,0,0,0-.09-.26v-.11a.74.74,0,0,1,.27-.49,9.87,9.87,0,0,0,.61-1.39,2.39,2.39,0,0,1,.35-.7l-.09-.6c0-.09.09-.23.26-.44-.11-.43-.17-.66-.17-.69a2.28,2.28,0,0,1,.22-.64l-.05-.45.09-.29a1.1,1.1,0,0,0-.4-.75c0-.46-.41-.69-1.24-.69l-.4,0-.87-.13a6.5,6.5,0,0,1-2,.64.88.88,0,0,0-.59.36,2,2,0,0,1-.36.36l-.23-.09h-.09c-.1,0-.17.12-.2.36a.66.66,0,0,1-.41.55,5.1,5.1,0,0,0-1.1.86,6.07,6.07,0,0,0-1,1.08,2.17,2.17,0,0,1-.56.64,1.3,1.3,0,0,0-.46.8,2.56,2.56,0,0,1-.41,1l-.31.49v.33c0,.09-.1.19-.31.31l.09.27,0,.26,0,.38-.09.53.22,1c0,1.14-.42,1.71-1.27,1.71a1.37,1.37,0,0,1-.74-.17,1.65,1.65,0,0,1-.4-1,8.14,8.14,0,0,1-.15-1s.07-.26.19-.72a3.21,3.21,0,0,1,.33-.88.61.61,0,0,0,.13-.31.14.14,0,0,0,0-.09,1.53,1.53,0,0,0,.62-.83,3.5,3.5,0,0,1,.43-1,13,13,0,0,0,1.64-2.64c.18-.18.49-.44.91-.78a1.16,1.16,0,0,1,.36-.53l.31-.43.51-.44a1.83,1.83,0,0,0,.54-.47,2.55,2.55,0,0,0-1.14.47l-.71.55a1.9,1.9,0,0,1-.53.37,1,1,0,0,0-.41.4,2.51,2.51,0,0,1-.46.54,4.61,4.61,0,0,0-.52.59,1.61,1.61,0,0,1-.46.46c-.23.06-.39.27-.46.64a4.07,4.07,0,0,1-.4.54L83,90a1.86,1.86,0,0,1-.28.31,3.76,3.76,0,0,0-.41.49,5.3,5.3,0,0,1-.58.34.91.91,0,0,1,0,.31,3.61,3.61,0,0,1-.41.73,5.24,5.24,0,0,0-.58,1.12,1.1,1.1,0,0,1-.39.61,1.61,1.61,0,0,0-.45.83,5.14,5.14,0,0,1-.76,1.41,6.14,6.14,0,0,0-.58.89,5.56,5.56,0,0,1-.51.78,4.94,4.94,0,0,0-.34.91l-.35.35-.51,1.69s-.07.14-.22.27a1.48,1.48,0,0,1-.36.87.91.91,0,0,1-.09.37l-.17.63-.38.42v.09l.09.22v.09a1.48,1.48,0,0,1-.25.61,2.35,2.35,0,0,0-.26,1.1,2.65,2.65,0,0,1-.15.91,1.3,1.3,0,0,0-.14.52,2.25,2.25,0,0,1-.07.41l.09.35-.09.69a.76.76,0,0,0,.1.21.77.77,0,0,1,.1.24l-.11.29a.12.12,0,0,0,0,.08,1.06,1.06,0,0,0,.75,1.07,3.64,3.64,0,0,0,1.2.29,4.71,4.71,0,0,0,1.31-.33,3.62,3.62,0,0,0,1.22-.64,1.73,1.73,0,0,1,.63-.43,2.73,2.73,0,0,0,.61-.33c.32-.42.57-.64.74-.67a1.85,1.85,0,0,0,.77-.55l.26-.14c.16-.29.26-.44.29-.44l.31-.2c.21-.39.36-.58.45-.58l.33,0a.14.14,0,0,0,.09,0A1.77,1.77,0,0,1,84.31,106Z" transform="translate(-8 -14)"/><path class="cls-1" d="M98.26,103.37h.2l-.11-.29h-.13c-.12,0-.18-.07-.18-.22a1.38,1.38,0,0,1,.38-.78v-.22c0-.25.28-.69.84-1.31l.34,0,0-.47.13-.31a3.14,3.14,0,0,0,.18-.51l.27,0,0-.26v-.23a.48.48,0,0,1,.47-.55,1.47,1.47,0,0,1-.09-.36.51.51,0,0,1,.18-.31l.13-.29a2.21,2.21,0,0,1,.39-.52,1.69,1.69,0,0,0,.39-.59,2.2,2.2,0,0,1,.31-.55l0-.2a5.12,5.12,0,0,1,.75-1l.74-.78c.1,0,.21-.2.33-.52s.27-.48.47-.48h.09a.21.21,0,0,0,.13.09s0,0,0,0l0-.36c.3-.29.44-.49.44-.6s.37-.6,1.12-1.08a.51.51,0,0,0,.23-.29,2.32,2.32,0,0,1,.72-.71l.18-.18a6.39,6.39,0,0,1,.58-.45,1.66,1.66,0,0,1,1.33-1l.14-.11a.56.56,0,0,1,.55-.49,2,2,0,0,1,1.49-.77.86.86,0,0,1-.05-.27c0-.19.11-.29.31-.29l.34.11a1.3,1.3,0,0,1,.56-.64,1.51,1.51,0,0,0,.41-.24.71.71,0,0,1,.29-.18.74.74,0,0,1,.3-.09,1.28,1.28,0,0,0,.61-.4,1.45,1.45,0,0,0,.47-.22h.13l.09,0a1.31,1.31,0,0,1,.78-.42l.62-.22a.74.74,0,0,1,.28.06.46.46,0,0,0,.18.07,1.58,1.58,0,0,0,.45-.18h.09a1.66,1.66,0,0,0,.83.2c.36,0,.6.27.72.76l.27.55a1,1,0,0,1,.13.45,1.12,1.12,0,0,0,.12.6.61.61,0,0,1,.13.26,1,1,0,0,1-.13.37,1.26,1.26,0,0,0-.12.59,1.2,1.2,0,0,1-.18.46l-.17.4c-.4,1.37-.78,2-1.14,2-.86,0-1.28-.28-1.28-.82s.42-1.22,1.28-2a1.73,1.73,0,0,0,.4-.59,2,2,0,0,0,.27-.63c0-.28-.13-.42-.4-.42a1,1,0,0,0-.63.19,1.57,1.57,0,0,1-.67.23,1.31,1.31,0,0,0-.52.13l-.36.18a13,13,0,0,0-1.33.82l-6,4.78-.09.35a1.53,1.53,0,0,1-.37.27,1.12,1.12,0,0,0-.46.64,4,4,0,0,1-.95,1.2l-.78,1.05-.18.4A8.55,8.55,0,0,0,104,98.13a2.83,2.83,0,0,1-.76.69s0,0,0,0l.08.36v.09a11.68,11.68,0,0,1-1.46,2.33l0,.09a3.32,3.32,0,0,1-.41,1.29,2.58,2.58,0,0,0-.34.71,1.77,1.77,0,0,1-.25.52,3.24,3.24,0,0,0-.32.67,2.73,2.73,0,0,1-.28.61.93.93,0,0,0-.15.41,2,2,0,0,1-.29.65,3.29,3.29,0,0,1,.13.47c0,.06-.11.57-.35,1.53v.09a1.11,1.11,0,0,0,.18.55c.11.21.22.31.31.31a4.51,4.51,0,0,0,1.15-.57,4.65,4.65,0,0,0,1.4-1.16l.53-.26.34-.31a3.33,3.33,0,0,0,.57-.09c.27-.64.5-1,.69-1.09h.42a.76.76,0,0,0,.22-.6c0-.09.22-.36.64-.8s.74-.79,1-1a2.42,2.42,0,0,1,.41-.43,2.51,2.51,0,0,1,.65-.81,2.66,2.66,0,0,0,.67-.88c.11-.28.28-.42.5-.42s.31,0,.31-.13a1,1,0,0,1,.14-.35l0-.18a3.14,3.14,0,0,1,.69-.78l.18-.22a1.06,1.06,0,0,1,.33-.47l.27-.26a.82.82,0,0,1,.28-.52,2.75,2.75,0,0,0,.55-.76,4.81,4.81,0,0,1,.65-.92,2.32,2.32,0,0,0,.86-1.24,2.58,2.58,0,0,1,.87-1.29l.55-.92a1.21,1.21,0,0,1,1-.5c.31,0,.7.32,1.18,1a3.08,3.08,0,0,1,.73,1.85l-.2.89a3.91,3.91,0,0,1-.51,1.57,1.79,1.79,0,0,0-.39.79,1.73,1.73,0,0,1-.37.73,3.4,3.4,0,0,0-.53,1.27l-.65,1.22-.17.51a8.49,8.49,0,0,0-.27,1,1,1,0,0,1-.08.19l-.12.17a.83.83,0,0,0-.13.25c0,.11-.07.16-.08.16s0,0,0,0a2.53,2.53,0,0,0-.27.6c0,.15,0,.22.13.22a.66.66,0,0,0,.42-.26,1.38,1.38,0,0,1,.45-.38.5.5,0,0,0,.29-.3c0-.13.19-.26.43-.41a1.44,1.44,0,0,1,.46-.22h.18a2.68,2.68,0,0,0,.77-.62,3.17,3.17,0,0,1,.72-.4l.66-.32a3.11,3.11,0,0,0,1.14-.82l.27,0a1.71,1.71,0,0,1,.46-.18c.09,0,.14.16.14.47a.48.48,0,0,1-.3.42.89.89,0,0,0-.35.24l0,.16v.09a1.56,1.56,0,0,1-.34.83,1.23,1.23,0,0,1-.73.58.71.71,0,0,0-.55.4,1,1,0,0,1-.25.36,1.11,1.11,0,0,0-.31-.13h-.09a.66.66,0,0,0-.41.24,4.42,4.42,0,0,1-.83.63l-.35.31a.41.41,0,0,1-.31.17,13.57,13.57,0,0,0-1.33,1,2.76,2.76,0,0,0-1.49,1.09l-.42.68a4.46,4.46,0,0,1-.31.52l-.36,1.35a2.87,2.87,0,0,1-.46.69v0l.08.49a2.29,2.29,0,0,1-.34.48,4.49,4.49,0,0,0-.61,1.5L110,115l-.22.36a2.2,2.2,0,0,0-.42.6,1.48,1.48,0,0,1-.6,1.13c0,.09-.16.41-.4,1l-.27.92-.42.51-.09.35-.38.5a2.93,2.93,0,0,0-.41.85,2.25,2.25,0,0,1-.6.93c-.29.27-.44.48-.44.63a6,6,0,0,1-.74,1.09,5,5,0,0,0-.84,1.33c-.06.24-.24.37-.56.4a1.36,1.36,0,0,0-.11.39.45.45,0,0,1-.34.41.65.65,0,0,0-.44.39.54.54,0,0,1-.53.32c-.3,0-.49.07-.56.2a.33.33,0,0,1-.29.2,1.55,1.55,0,0,1-1.69-1.26.93.93,0,0,0-.21-.42.7.7,0,0,1-.19-.43,2.52,2.52,0,0,0-.25-.71v0l.09-.27s0,0,0-.09l-.14-.47a3.16,3.16,0,0,0,.23-.82l0-.53a5.64,5.64,0,0,1,.78-2.2,8.17,8.17,0,0,0,1-2.4,2.91,2.91,0,0,1,.38-.46l.44-.8.18-.2a.51.51,0,0,1,0-.22c0-.18.15-.36.44-.55a1.54,1.54,0,0,0,.52-.45l.29-.36.27-.47c0-.41.23-.62.53-.62a.5.5,0,0,1,.15,0,.71.71,0,0,0,.14-.38v-.09l0-.22c0-.05.14-.21.4-.49l.83-.82.22-.38,1.38-1.18a4.09,4.09,0,0,0,.4-.51l2.08-2.08.18-.09c.14-.06.2-.11.2-.14a1.84,1.84,0,0,1,.29-.94,4.6,4.6,0,0,0,.42-.88v-.26a1.91,1.91,0,0,0,.2-.34l.23-.17a.56.56,0,0,1,.17-.36l0-.47a3,3,0,0,0,.51-.77,2.72,2.72,0,0,1,.44-1.14v-.17a1,1,0,0,1,.45-.82s.12-.15.22-.45.16-.45.16-.47l0-.26a3.42,3.42,0,0,1-1.29,1.18,10.68,10.68,0,0,0-1.4,1.57c-.11.19-.2.29-.26.29h-.29c-.06,0-.16.07-.31.21s-.22.24-.22.3l.13.45a3,3,0,0,0-.27.33l0,0-.24,0-.09.13,0,.31-.1.16a2.52,2.52,0,0,1-.65.49c-.2.37-.37.57-.54.61s-.24.12-.24.25q0,.56-.78,1a.61.61,0,0,0-.2.2,5.41,5.41,0,0,1-.35.42l-.14.24a.36.36,0,0,0-.13,0l-.27,0c-.07,0-.17.22-.28.58l-.09.09-.27,0a1.23,1.23,0,0,0-.18.42l-1.51,1.49-1,.34a3.74,3.74,0,0,1-1,.17,1.37,1.37,0,0,1-1.06-.4.12.12,0,0,1-.09-.06l-.56.06c-.1,0-.34-.17-.71-.51l-.42-.22s-.19-.24-.56-.69-.57-.74-.57-.91l0-.78,0-.39,0-.92a1.74,1.74,0,0,1,.17-.63,2.54,2.54,0,0,0,.2-.55.78.78,0,0,1,.18-.33l.05-.31a.56.56,0,0,1,.15-.41,2,2,0,0,0,.25-.27l.09-.09.35,0-.13-.35S98.23,103.37,98.26,103.37Zm2.68,19.45-.13.29.13.54-.09.95c0,.34.08.51.23.51a3.23,3.23,0,0,0,1.06-.94,7,7,0,0,1,.58-.75,2.3,2.3,0,0,0,.41-.74q.24-.57.33-.57h.22c.12,0,.18-.21.18-.64a8,8,0,0,1,.21-.8c.14-.49.28-.75.43-.8a1.52,1.52,0,0,0,.09-.35l.31-.4a2.44,2.44,0,0,0,.25-.47l.13-.56c.3-.88.66-1.39,1.09-1.53.06,0,.09-.09.09-.2l.2-.66a1.28,1.28,0,0,1,.75-1.09v0a1.23,1.23,0,0,0,0-.29v-.13a.56.56,0,0,1,.11-.31,2.09,2.09,0,0,0,.2-.52,2,2,0,0,1,.46-.77v-.26a.7.7,0,0,1,.37-.68.56.56,0,0,0,.37-.5l-.11-.51-.09,0c0,.28-.19.52-.57.71a1.67,1.67,0,0,0-.72.57.67.67,0,0,1-.46.34c-.2,0-.31.3-.34.76a1.5,1.5,0,0,1-.65.31.87.87,0,0,0-.64.78c0,.4-.15.63-.31.69l-.53.08a.63.63,0,0,0-.28.36,8.51,8.51,0,0,1-.81,1.24l-.33.8-.23.25a5,5,0,0,0-.58,1.66l-.38.65a.88.88,0,0,0-.31.6,3.26,3.26,0,0,1-.42,1.08v.36a1.45,1.45,0,0,0-.22.47Z" transform="translate(-8 -14)"/><path class="cls-1" d="M122.57,101.28l.13-.11h.14c.09-.09.13-.14.13-.17a.27.27,0,0,0-.07-.18.32.32,0,0,1-.06-.18.63.63,0,0,1,.42-.64,1.5,1.5,0,0,1-.07-.54.64.64,0,0,1,.19-.4,1.92,1.92,0,0,0,.35-.76.81.81,0,0,1,.66-.66v-.09l-.09-.24a.86.86,0,0,1,.18-.4v-.22a.35.35,0,0,1,.29-.36c.19,0,.29-.09.29-.15a1,1,0,0,1,.38-.65l-.09-.35c0-.12.13-.28.4-.49.49-.49.73-.86.73-1.11v-.22c0-.14.22-.38.64-.74,0,0,0,0,0,0l.31,0a4.15,4.15,0,0,0,.13-.65c0-.23.32-.58.87-1.06l0-.15a4.22,4.22,0,0,1,.36-.45l.2,0a4.41,4.41,0,0,0,.35-.69c.06-.15.14-.23.23-.24a.47.47,0,0,0,.25-.16.62.62,0,0,1,.35-.18c.19-.25.37-.51.54-.77a2.17,2.17,0,0,1,.72-.69c.06-.55.22-.82.47-.82l.31,0a3.31,3.31,0,0,1,1.18-1.26l.82-.6h.13a1.06,1.06,0,0,0,.34-.36l.31-.22c0-.28.16-.42.4-.42h.2a2.19,2.19,0,0,1,1.53-.91l.34.08a.55.55,0,0,1,.35.34l.22.4c.06.21.12.31.18.31l.29-.27a6,6,0,0,0,2.44-1,2.72,2.72,0,0,0,.49.09.45.45,0,0,1,.24.09h.09a1.17,1.17,0,0,0,.32-.16,1.31,1.31,0,0,1,.33-.15l.73,0,.66.14.94-.05a2.2,2.2,0,0,1,1.17.56c.17.34.34.53.53.59s.44.46.77,1.22a4.88,4.88,0,0,1,.5,1.5v.37l-.09.71,0,.52a.84.84,0,0,1-.18.56,1,1,0,0,0-.18.66,4.66,4.66,0,0,1-.54,1.81,4.78,4.78,0,0,0-.54,1.52c-.36.93-.63,1.4-.83,1.4L145,95.53a1.12,1.12,0,0,1-.41.59l-.41.28,0,.64q0,.22-.6.69c-.12.27-.24.53-.37.79a1.6,1.6,0,0,1-.5.61,8.78,8.78,0,0,0-1,1.64,2.3,2.3,0,0,1-.4.31,12.88,12.88,0,0,0-.9,1.24,3,3,0,0,1-.7.81l-.31.33a1,1,0,0,1-.51.31.48.48,0,0,1,.05.22.89.89,0,0,1-.51.77,2.44,2.44,0,0,0-.63.48l-1,.91a1.71,1.71,0,0,0-.34.4,3.83,3.83,0,0,1-.43.51l-.31.49q-1.5,1-1.56,1a2.61,2.61,0,0,0-.27.47l-.42.13a1.45,1.45,0,0,1-1,.87l-.22.09a.36.36,0,0,1-.2.15l-.28.15a3.26,3.26,0,0,1-.63.23l-.49.16-.22-.05a.51.51,0,0,1-.53.49h-.25a1.4,1.4,0,0,1-.4.18l-.09,0a1.65,1.65,0,0,1-.17.34l-.69-.05a1.43,1.43,0,0,1-.47.18l-.22,0-.22.22a2.14,2.14,0,0,0-.35-.18l-.16,0a3.71,3.71,0,0,1-.8.14l-.29-.09a3,3,0,0,0-.73-.31l-.84,0s-.13-.09-.3-.27a3.55,3.55,0,0,0-.72-.59,3.28,3.28,0,0,1-.94-1.34,4.41,4.41,0,0,1-.46-1.31l-.13-1.26,0-.38-.13-1.22a2,2,0,0,1,.44-1.18,3.87,3.87,0,0,1,0-.51v-.31l0-.51a.82.82,0,0,1,.33-.62l0-.56A1.58,1.58,0,0,0,122.57,101.28ZM133.43,106l0-.11v-.26c0-.26.19-.4.56-.45a3.49,3.49,0,0,0,.5-.72c.15-.29.28-.43.37-.43h.22c.09,0,.13,0,.13-.09l0-.36a5.64,5.64,0,0,1,.56-.67c.29-.31.58-.62.86-1a7.69,7.69,0,0,0,.73-1,8.46,8.46,0,0,1,.6-.84c.2-.23.34-.42.44-.56a1.52,1.52,0,0,1,.59-.47l.08-.09V98.6a8.31,8.31,0,0,1,.52-.82c.51-.4.8-.74.84-1a1.81,1.81,0,0,1,.33-.77,2.53,2.53,0,0,0,.36-.64c.25-.14.38-.25.38-.31l.17-.31a5.68,5.68,0,0,0,.27-.64l.38-.36a2,2,0,0,0,.38-.85.65.65,0,0,1,.32-.55c.17-.07.25-.14.25-.2a1.1,1.1,0,0,0-.08-.26v-.11a.72.72,0,0,1,.26-.49,9.87,9.87,0,0,0,.61-1.39,2.67,2.67,0,0,1,.35-.7l-.09-.6c0-.09.09-.23.26-.44-.11-.43-.17-.66-.17-.69a2.28,2.28,0,0,1,.22-.64l0-.45.09-.29a1.1,1.1,0,0,0-.4-.75c0-.46-.41-.69-1.24-.69l-.4,0-.87-.13a6.5,6.5,0,0,1-2,.64.88.88,0,0,0-.59.36q-.31.36-.36.36l-.23-.09h-.08q-.17,0-.21.36a.65.65,0,0,1-.41.55,5.1,5.1,0,0,0-1.1.86,5.55,5.55,0,0,0-1,1.08,2.36,2.36,0,0,1-.57.64,1.35,1.35,0,0,0-.46.8,2.56,2.56,0,0,1-.41,1l-.31.49v.33c0,.09-.1.19-.31.31l.09.27,0,.26,0,.38-.09.53.22,1c0,1.14-.42,1.71-1.27,1.71a1.37,1.37,0,0,1-.74-.17,1.65,1.65,0,0,1-.4-1,7.34,7.34,0,0,1-.14-1s.06-.26.18-.72a3.21,3.21,0,0,1,.33-.88.53.53,0,0,0,.13-.31.18.18,0,0,0,0-.09,1.56,1.56,0,0,0,.61-.83,3.5,3.5,0,0,1,.43-1,13,13,0,0,0,1.64-2.64,11.84,11.84,0,0,1,.92-.78,1,1,0,0,1,.35-.53l.31-.43.51-.44a1.83,1.83,0,0,0,.54-.47,2.6,2.6,0,0,0-1.14.47l-.71.55a1.9,1.9,0,0,1-.53.37,1,1,0,0,0-.41.4,2.51,2.51,0,0,1-.46.54,4.61,4.61,0,0,0-.52.59,1.61,1.61,0,0,1-.46.46c-.23.06-.39.27-.46.64a4.07,4.07,0,0,1-.4.54l-.13.37a1.86,1.86,0,0,1-.28.31,3.76,3.76,0,0,0-.41.49,5.3,5.3,0,0,1-.58.34.91.91,0,0,1,.05.31,3.61,3.61,0,0,1-.41.73,5.24,5.24,0,0,0-.58,1.12,1.1,1.1,0,0,1-.39.61,1.69,1.69,0,0,0-.45.83,5.37,5.37,0,0,1-.75,1.41,5.7,5.7,0,0,0-.59.89,5.56,5.56,0,0,1-.51.78,4.15,4.15,0,0,0-.33.91l-.36.35-.51,1.69s-.07.14-.22.27a1.48,1.48,0,0,1-.36.87.91.91,0,0,1-.09.37l-.17.63-.38.42v.09l.09.22v.09a1.48,1.48,0,0,1-.25.61,2.35,2.35,0,0,0-.26,1.1,2.65,2.65,0,0,1-.15.91,1.3,1.3,0,0,0-.14.52,2.25,2.25,0,0,1-.07.41l.09.35-.09.69a1.39,1.39,0,0,0,.1.21.77.77,0,0,1,.1.24l-.11.29a.12.12,0,0,0,0,.08,1.06,1.06,0,0,0,.75,1.07,3.69,3.69,0,0,0,1.2.29,4.71,4.71,0,0,0,1.31-.33,3.52,3.52,0,0,0,1.22-.64,1.73,1.73,0,0,1,.63-.43,2.73,2.73,0,0,0,.61-.33c.32-.42.57-.64.74-.67a1.85,1.85,0,0,0,.77-.55l.26-.14c.16-.29.26-.44.29-.44l.31-.2c.21-.39.36-.58.45-.58l.33,0a.14.14,0,0,0,.09,0A1.77,1.77,0,0,1,133.43,106Z" transform="translate(-8 -14)"/><circle class="cls-2" cx="88" cy="88" r="85.5"/></svg>