<?xml version="1.0" encoding="UTF-8"?><svg xmlns="http://www.w3.org/2000/svg" xmlns:xlink="http://www.w3.org/1999/xlink" version="1.1" id="Layer_1" x="0px" y="0px" viewBox="0 0 16 16" xml:space="preserve"><path d="M11.816 3.875L9.342 1l2.199.401.275 2.474zM11.779 6L8 16 4.222 6h7.557zM4.555 5L8 1l3.445 4h-6.89zm-.704-.719l-.302-2.423L6.577 1 3.851 4.281zM2.934 5H0l2.631-2.423L2.934 5zm.219 1l3.154 8.409L0 6h3.153zm9.693 0H16l-6.307 8.41L12.846 6zm.102-1l-.305-2.749L16 5h-3.052z"/><metadata><rdf:RDF xmlns:rdf="http://www.w3.org/1999/02/22-rdf-syntax-ns#" xmlns:rdfs="http://www.w3.org/2000/01/rdf-schema#" xmlns:dc="http://purl.org/dc/elements/1.1/"><rdf:Description about="https://iconscout.com/legal#licenses" dc:title="sketch,logo,solid,e" dc:description="sketch,logo,solid,e" dc:publisher="Iconscout" dc:date="2018-03-05" dc:format="image/svg+xml" dc:language="en"><dc:creator><rdf:Bag><rdf:li>Pixel Icons</rdf:li></rdf:Bag></dc:creator></rdf:Description></rdf:RDF></metadata></svg>