<svg width="100" height="100" viewBox="0 0 100 100" xmlns="http://www.w3.org/2000/svg"><title>design-categories-stationery-design</title><g fill="none" fill-rule="evenodd"><path d="M83.695 61.98c0-1.49 1.55-2.699 2.762-2.699v.12c0-1.989-1.4-3.48-3.563-3.48h-7.839c-2.164 0-4.365 1.491-4.365 3.48v-.06c2.426 0 3.162 1.178 3.162 2.67 0 1.49-1.203 2.684-2.827 2.684l7.893 8.99 7.778-9.002c-1.624 0-3-1.212-3-2.703z" fill="#D0E8F9"/><path d="M83.695 61.98c0-1.49 1.55-2.699 2.762-2.699v.12c0-1.989-1.4-3.48-3.563-3.48h-7.839c-2.164 0-4.365 1.491-4.365 3.48v-.06c2.426 0 3.162 1.178 3.162 2.67 0 1.49-1.203 2.684-2.827 2.684l7.893 8.99 7.778-9.002c-1.624 0-3-1.212-3-2.703z" stroke="#5D6D81" stroke-width="2" stroke-linejoin="round"/><path stroke="#5D6D81" stroke-width="2" stroke-linejoin="round" d="M77.36 64.64l1.664-1.614h1.523l2.147 1.613v1.353l-2.147 1.771h-1.523l-1.665-1.771zm1.333 9.044l.008-7.105"/><path fill="#5BAADC" d="M74.691 52.368h9.337V9.737h-9.337z"/><path stroke="#5D6D81" stroke-width="2" stroke-linejoin="round" d="M74.691 52.368h9.337V9.737h-9.337z"/><path fill="#EBB200" d="M76.025 9.737h6.67V5h-6.67z"/><path stroke="#5D6D81" stroke-width="2" stroke-linejoin="round" d="M76.025 9.737h6.67V5h-6.67z"/><path stroke="#5D6D81" stroke-width="2" stroke-linecap="round" stroke-linejoin="round" d="M70.69 25.132V13.289h4.001m0 11.843h9.337m-9.337 4.736h4.002m-4.002 3.553h2.668"/><path d="M74.691 55.921h8.003v-4.737h-7.502v4.485s-.506.252-.5.252" fill="#FFF"/><path d="M74.691 55.921h8.003v-4.737h-7.502v4.485s-.506.252-.5.252z" stroke="#5D6D81" stroke-width="2" stroke-linejoin="round"/><path fill="#F5F5F5" d="M8 83.158h56.02V20.395H8z"/><path stroke="#5D6D81" stroke-width="2" stroke-linecap="round" d="M8 83.158h56.02V20.395H8z"/><path d="M51.95 35.744H20.07c-.075.073-.146.047-.2 0L8.083 20.822c-.178-.158-.052-.427.2-.427h55.454c.252 0 .378.27.2.427L52.15 35.744c-.052.047-.123.073-.199 0" fill="#6E8097"/><path d="M51.95 35.744H20.07c-.075.073-.146.047-.2 0L8.083 20.822c-.178-.158-.052-.427.2-.427h55.454c.252 0 .378.27.2.427L52.15 35.744c-.052.047-.123.073-.199 0z" stroke="#5D6D81" stroke-width="2" stroke-linecap="round"/><path d="M51.95 74.911H20.07c-.075-.069-.146-.044-.2 0L8.083 82.756c-.178.148-.052.402.2.402h55.454c.252 0 .378-.254.2-.402L52.15 74.91c-.052-.044-.123-.069-.199 0" fill="#6E8097"/><path d="M51.95 74.911H20.07c-.075-.069-.146-.044-.2 0L8.083 82.756c-.178.148-.052.402.2.402h55.454c.252 0 .378-.254.2-.402L52.15 74.91c-.052-.044-.123-.069-.199 0zM36.01 35.79v39.078" stroke="#5D6D81" stroke-width="2" stroke-linecap="round"/><path fill="#F5F5F5" d="M21.338 50v45h70.693V50z"/><path stroke="#5D6D81" stroke-width="2" stroke-linecap="round" d="M21.338 50v45h70.693V50z"/><path d="M92.031 93.128V51.872c0-.568-.731-.89-1.24-.546l-24.103 21.71 24.104 20.638c.508.345 1.24.022 1.24-.546" fill="#F5F5F5"/><path d="M92.031 51.872c0-.568-.731-.89-1.24-.546l-24.103 21.71 24.104 20.638c.508.345 1.24.022 1.24-.546V51.872z" stroke="#5D6D81" stroke-width="2" stroke-linecap="round"/><path d="M21.338 50.001l33.078 29.984c1.278 1.073 3.26 1.073 4.537 0L92.031 50" fill="#F5F5F5"/><path d="M21.338 50.001l33.078 29.984c1.278 1.073 3.26 1.073 4.537 0L92.031 50" stroke="#5D6D81" stroke-width="2" stroke-linecap="round"/><path d="M21.338 93.128V51.872c0-.568.732-.89 1.24-.546l24.103 21.71-24.103 20.638c-.508.345-1.24.022-1.24-.546" fill="#F5F5F5"/><path d="M21.338 93.128V51.872c0-.568.732-.89 1.24-.546l24.103 21.71-24.103 20.638c-.508.345-1.24.022-1.24-.546z" stroke="#5D6D81" stroke-width="2" stroke-linecap="round"/><path d="M90.697 50l-4.416-14.105-.033-.106L25.46 49.73c-.182.042-.146.271.042.271h65.196z" fill="#6E8097"/><path d="M90.697 50l-4.416-14.105-.033-.106L25.46 49.73c-.182.042-.146.271.042.271h65.196z" stroke="#5D6D81" stroke-width="2" stroke-linecap="round"/><path fill="#F08481" d="M81.36 50.284l-1.587-5.92-9.083 2.43.936 3.49z"/><path stroke="#5D6D81" stroke-width="2" stroke-linecap="round" d="M81.36 50l-1.587-5.921-9.083 2.431.936 3.49z"/><path d="M25.563 49.732l35.79-8.021H25.34V50h.265c-.19 0-.227-.227-.042-.268" fill="#6E8097"/><path d="M25.563 49.732l35.79-8.021H25.34V50h.265c-.19 0-.227-.227-.042-.268z" stroke="#5D6D81" stroke-width="2" stroke-linecap="round"/><path d="M65.355 74.767c0 4.17-4.544 8.39-9.015 8.39-4.473 0-8.325-4.22-8.325-8.39 0-4.17 3.852-7.004 8.325-7.004 4.471 0 9.015 2.835 9.015 7.004z" stroke="#5D6D81" stroke-width="2" fill="#6E8097"/><path d="M61.938 74.047a.13.13 0 1 1 .057.253c-.804.26-2.965 1.071-3.31 1.696-.364.656.615 2.42 1.023 3.043a.13.13 0 0 1-.215.147c-.014-.019-1.37-1.882-2.674-1.753-.758.075-2.084 1.912-2.53 2.613a.13.13 0 0 1-.228-.127c.306-.628 1.002-2.385.546-2.958-.975-1.227-3.33-.544-3.354-.537a.13.13 0 1 1-.078-.248c.689-.229 2.502-.952 2.7-1.574-.07-1.184-1.679-2.53-1.695-2.543a.13.13 0 0 1-.019-.182.13.13 0 0 1 .182-.022c.02.016 2.08 1.576 3.548 1.103 1.62-.521 2.393-2.74 2.401-2.763a.13.13 0 0 1 .157-.084.13.13 0 0 1 .095.15c-.006.028-.536 2.728.157 3.619.301.387 2.145.308 3.237.167zm-1.45-2.2a.933.933 0 0 1 .289 1.318c-.296.44-.906.566-1.362.28a.933.933 0 0 1-.29-1.317 1.005 1.005 0 0 1 1.362-.28zm-7.605 1.867c.342.214.44.657.217.987a.752.752 0 0 1-1.022.21.7.7 0 0 1-.217-.987.753.753 0 0 1 1.022-.21zm.694 3.174c.304.215.39.657.193.988-.197.331-.604.425-.908.21-.305-.215-.39-.657-.193-.987.197-.332.604-.425.908-.21zm4.03 1.441c.38.24.488.731.24 1.098a.837.837 0 0 1-1.134.234.777.777 0 0 1-.242-1.098.838.838 0 0 1 1.135-.234zm2.79-2.54c.381.24.489.73.242 1.098a.838.838 0 0 1-1.135.234.778.778 0 0 1-.242-1.097.838.838 0 0 1 1.136-.234zm-4.179-5.211a.932.932 0 0 1 .29 1.317 1.005 1.005 0 0 1-1.362.28.933.933 0 0 1-.29-1.317 1.005 1.005 0 0 1 1.362-.28z" fill="#FFF" fill-rule="nonzero"/></g></svg>