<svg xmlns="http://www.w3.org/2000/svg" xmlns:xlink="http://www.w3.org/1999/xlink" viewBox="0 0 606.85 451.75"><defs><style>.cls-1{mask:url(#mask);}.cls-123,.cls-139,.cls-143,.cls-183,.cls-2{mix-blend-mode:multiply;}.cls-2{fill:url(#linear-gradient);}.cls-3{isolation:isolate;}.cls-144,.cls-175,.cls-4{opacity:0.5;}.cls-140,.cls-4{mix-blend-mode:screen;}.cls-5{fill:#240d4d;}.cls-177,.cls-6{opacity:0.2;}.cls-7{opacity:0;}.cls-8{opacity:0.09;}.cls-9{opacity:0.18;}.cls-10{opacity:0.27;}.cls-11{opacity:0.36;}.cls-12{opacity:0.45;}.cls-13{opacity:0.55;}.cls-14{opacity:0.64;}.cls-15{opacity:0.73;}.cls-16{opacity:0.82;}.cls-17{opacity:0.91;}.cls-18{fill:url(#linear-gradient-2);}.cls-19{fill:url(#linear-gradient-3);}.cls-20{fill:url(#linear-gradient-4);}.cls-21{fill:url(#linear-gradient-5);}.cls-22{fill:url(#linear-gradient-6);}.cls-23{fill:url(#linear-gradient-7);}.cls-24{fill:url(#linear-gradient-8);}.cls-25{fill:url(#linear-gradient-9);}.cls-26{fill:url(#linear-gradient-10);}.cls-27{fill:url(#linear-gradient-11);}.cls-28{fill:url(#linear-gradient-12);}.cls-29{fill:url(#linear-gradient-13);}.cls-30{fill:url(#linear-gradient-14);}.cls-31{fill:url(#linear-gradient-15);}.cls-32{fill:url(#linear-gradient-16);}.cls-33{fill:url(#linear-gradient-17);}.cls-34{fill:url(#linear-gradient-18);}.cls-35{fill:url(#linear-gradient-19);}.cls-36{fill:url(#linear-gradient-20);}.cls-37{fill:url(#linear-gradient-21);}.cls-38{fill:url(#linear-gradient-22);}.cls-39{fill:url(#linear-gradient-23);}.cls-40{fill:url(#linear-gradient-24);}.cls-41{fill:url(#linear-gradient-25);}.cls-42{fill:url(#linear-gradient-26);}.cls-43{fill:url(#linear-gradient-27);}.cls-44{fill:url(#linear-gradient-28);}.cls-45{fill:url(#linear-gradient-29);}.cls-46{fill:url(#linear-gradient-30);}.cls-47{fill:url(#linear-gradient-31);}.cls-48{fill:url(#linear-gradient-32);}.cls-49{fill:url(#linear-gradient-33);}.cls-50{fill:url(#linear-gradient-34);}.cls-51{fill:url(#linear-gradient-35);}.cls-52{fill:url(#linear-gradient-36);}.cls-53{fill:url(#linear-gradient-37);}.cls-54{fill:url(#linear-gradient-38);}.cls-55{fill:url(#linear-gradient-39);}.cls-56{fill:url(#linear-gradient-40);}.cls-57{fill:url(#linear-gradient-41);}.cls-58{fill:url(#linear-gradient-42);}.cls-59{fill:url(#linear-gradient-43);}.cls-60{fill:url(#linear-gradient-44);}.cls-61{fill:#bfa3df;}.cls-62{fill:#c0a4df;}.cls-63{fill:#c0a5e0;}.cls-64{fill:#c1a6e0;}.cls-65{fill:#c2a7e0;}.cls-66{fill:#c2a8e1;}.cls-67{fill:#c3a9e1;}.cls-68{fill:#c4aae1;}.cls-69{fill:#c4abe1;}.cls-70{fill:#c5ace2;}.cls-71{fill:#c6ade2;}.cls-72{fill:#c6aee2;}.cls-73{fill:#c7afe3;}.cls-74{fill:#c8b0e3;}.cls-75{fill:#c8b1e3;}.cls-76{fill:#c9b2e4;}.cls-77{fill:#cab3e4;}.cls-78{fill:#cab4e4;}.cls-79{fill:#cbb5e5;}.cls-80{fill:#ccb6e5;}.cls-81{fill:#ccb7e5;}.cls-82{fill:#cdb8e6;}.cls-83{fill:#ceb9e6;}.cls-84{fill:#cebae6;}.cls-85{fill:#cfbbe6;}.cls-86{fill:#d0bce7;}.cls-87{fill:#d0bde7;}.cls-88{fill:#d1bee7;}.cls-89{fill:#d2bfe8;}.cls-90{fill:#d3c0e8;}.cls-91{fill:#d4c1e9;}.cls-92{fill:#d5c2e9;}.cls-93{fill:#d5c3e9;}.cls-94{fill:#d6c4ea;}.cls-95{fill:#d7c5ea;}.cls-96{fill:#d7c6ea;}.cls-97{fill:#d8c7ea;}.cls-98{fill:#d9c8eb;}.cls-99{fill:#d9c9eb;}.cls-100{fill:#dacaeb;}.cls-101{fill:#dbcbec;}.cls-102{fill:#dbccec;}.cls-103{fill:#dccdec;}.cls-104{fill:#ddceed;}.cls-105{fill:#ddcfed;}.cls-106{fill:#ded0ed;}.cls-107{fill:#dfd1ee;}.cls-108{fill:#dfd2ee;}.cls-109{fill:#e0d3ee;}.cls-110{fill:#e1d4ef;}.cls-111{fill:#e1d5ef;}.cls-112{fill:#e2d6ef;}.cls-113{fill:#e3d7ef;}.cls-114{fill:#e3d8f0;}.cls-115{fill:#e4d9f0;}.cls-116{fill:#e5daf0;}.cls-117{fill:#e5dbf1;}.cls-118,.cls-140,.cls-173{fill:#e6dcf1;}.cls-119{fill:url(#linear-gradient-45);}.cls-120{fill:url(#linear-gradient-46);}.cls-121{fill:url(#linear-gradient-47);}.cls-122{fill:url(#linear-gradient-48);}.cls-123{fill:url(#linear-gradient-49);}.cls-124,.cls-143{fill:#c7b2df;}.cls-125,.cls-162{opacity:0.7;}.cls-126{opacity:0.02;}.cls-127{opacity:0.05;}.cls-128{opacity:0.07;}.cls-129{opacity:0.1;}.cls-130{opacity:0.12;}.cls-131{opacity:0.15;}.cls-132{opacity:0.17;}.cls-133{opacity:0.2;}.cls-134{opacity:0.22;}.cls-135{opacity:0.25;}.cls-136{opacity:0.27;}.cls-137,.cls-182{opacity:0.3;}.cls-138{fill:url(#linear-gradient-50);}.cls-139,.cls-145,.cls-162{fill:#ded2ec;}.cls-141{fill:url(#linear-gradient-51);}.cls-142{fill:#272425;}.cls-142,.cls-190{mix-blend-mode:color-dodge;}.cls-146,.cls-163,.cls-165,.cls-173,.cls-176{opacity:0.8;}.cls-147,.cls-180{opacity:0.6;}.cls-148{fill:url(#linear-gradient-52);}.cls-149{fill:url(#linear-gradient-53);}.cls-150{fill:url(#linear-gradient-54);}.cls-151{fill:url(#linear-gradient-55);}.cls-152{fill:url(#linear-gradient-56);}.cls-153{fill:url(#linear-gradient-57);}.cls-154{fill:url(#linear-gradient-58);}.cls-155{fill:url(#linear-gradient-59);}.cls-156{fill:url(#linear-gradient-60);}.cls-157{fill:url(#linear-gradient-61);}.cls-158{fill:url(#linear-gradient-62);}.cls-159{fill:url(#linear-gradient-63);}.cls-160{fill:url(#linear-gradient-64);}.cls-161{fill:url(#linear-gradient-65);}.cls-163{fill:url(#linear-gradient-66);}.cls-164{fill:url(#linear-gradient-67);}.cls-165{fill:url(#linear-gradient-68);}.cls-166{fill:url(#linear-gradient-69);}.cls-167{fill:url(#linear-gradient-70);}.cls-168{fill:url(#linear-gradient-71);}.cls-169{fill:url(#linear-gradient-72);}.cls-170{fill:url(#linear-gradient-73);}.cls-171{fill:url(#linear-gradient-74);}.cls-172{fill:url(#linear-gradient-75);}.cls-174,.cls-175,.cls-176,.cls-177,.cls-178,.cls-179,.cls-180,.cls-181,.cls-182{fill:#3e1785;}.cls-178{opacity:0.85;}.cls-179{opacity:0.75;}.cls-181{opacity:0.4;}.cls-184{fill:url(#linear-gradient-76);}.cls-185{mask:url(#mask-2);}.cls-186{fill:url(#linear-gradient-77);}.cls-187{fill:url(#linear-gradient-78);}.cls-188{fill:#e8e0f1;}.cls-189{fill:url(#linear-gradient-79);}.cls-190{fill:#434244;}.cls-191{filter:url(#luminosity-noclip-2);}.cls-192{filter:url(#luminosity-noclip);}</style><filter id="luminosity-noclip" x="320.62" y="-8442.06" width="206.01" height="32766" filterUnits="userSpaceOnUse" color-interpolation-filters="sRGB"><feFlood flood-color="#fff" result="bg"/><feBlend in="SourceGraphic" in2="bg"/></filter><mask id="mask" x="320.62" y="-8442.06" width="206.01" height="32766" maskUnits="userSpaceOnUse"><g class="cls-192"/></mask><linearGradient id="linear-gradient" x1="409.55" y1="191.95" x2="467.18" y2="88.7" gradientUnits="userSpaceOnUse"><stop offset="0"/><stop offset="1" stop-color="#fff"/></linearGradient><linearGradient id="linear-gradient-2" x1="420.05" y1="362.22" x2="420.05" y2="420.27" gradientUnits="userSpaceOnUse"><stop offset="0.04" stop-color="#5e29d0"/><stop offset="0.38" stop-color="#6d1dc9"/><stop offset="0.98" stop-color="#9200b7"/></linearGradient><linearGradient id="linear-gradient-3" x1="418" y1="354.92" x2="413.39" y2="425.77" xlink:href="#linear-gradient-2"/><linearGradient id="linear-gradient-4" x1="416.97" y1="346.83" x2="406" y2="430.7" xlink:href="#linear-gradient-2"/><linearGradient id="linear-gradient-5" x1="417.09" y1="338.12" x2="397.96" y2="434.96" xlink:href="#linear-gradient-2"/><linearGradient id="linear-gradient-6" x1="418.47" y1="329" x2="389.34" y2="438.44" xlink:href="#linear-gradient-2"/><linearGradient id="linear-gradient-7" x1="421.17" y1="319.66" x2="380.25" y2="441.04" xlink:href="#linear-gradient-2"/><linearGradient id="linear-gradient-8" x1="425.2" y1="310.35" x2="370.78" y2="442.67" xlink:href="#linear-gradient-2"/><linearGradient id="linear-gradient-9" x1="430.57" y1="301.31" x2="361.08" y2="443.26" xlink:href="#linear-gradient-2"/><linearGradient id="linear-gradient-10" x1="437.6" y1="292.09" x2="351.33" y2="442.67" xlink:href="#linear-gradient-2"/><linearGradient id="linear-gradient-11" x1="447.02" y1="281.96" x2="337.68" y2="446.93" xlink:href="#linear-gradient-2"/><linearGradient id="linear-gradient-12" x1="458.28" y1="272.34" x2="323.07" y2="450.07" xlink:href="#linear-gradient-2"/><linearGradient id="linear-gradient-13" x1="471.41" y1="263.42" x2="307.9" y2="451.61" xlink:href="#linear-gradient-2"/><linearGradient id="linear-gradient-14" x1="486.31" y1="255.56" x2="292.39" y2="451.43" xlink:href="#linear-gradient-2"/><linearGradient id="linear-gradient-15" x1="502.79" y1="249.08" x2="276.76" y2="449.48" xlink:href="#linear-gradient-2"/><linearGradient id="linear-gradient-16" x1="520.62" y1="244.28" x2="261.26" y2="445.71" xlink:href="#linear-gradient-2"/><linearGradient id="linear-gradient-17" x1="539.51" y1="241.39" x2="246.12" y2="440.09" xlink:href="#linear-gradient-2"/><linearGradient id="linear-gradient-18" x1="559.12" y1="240.59" x2="231.57" y2="432.62" xlink:href="#linear-gradient-2"/><linearGradient id="linear-gradient-19" x1="579.07" y1="241.95" x2="217.84" y2="423.28" xlink:href="#linear-gradient-2"/><linearGradient id="linear-gradient-20" x1="599.07" y1="245.69" x2="205.24" y2="412.29" xlink:href="#linear-gradient-2"/><linearGradient id="linear-gradient-21" x1="618.74" y1="251.87" x2="194.02" y2="399.8" xlink:href="#linear-gradient-2"/><linearGradient id="linear-gradient-22" x1="637.69" y1="260.46" x2="184.38" y2="385.98" xlink:href="#linear-gradient-2"/><linearGradient id="linear-gradient-23" x1="655.51" y1="271.39" x2="176.51" y2="371.04" xlink:href="#linear-gradient-2"/><linearGradient id="linear-gradient-24" x1="653.53" y1="275.01" x2="174.39" y2="368.38" xlink:href="#linear-gradient-2"/><linearGradient id="linear-gradient-25" x1="653.33" y1="274.56" x2="174.42" y2="367.89" gradientUnits="userSpaceOnUse"><stop offset="0.04" stop-color="#632fd1"/><stop offset="0.4" stop-color="#7223c9"/><stop offset="0.98" stop-color="#9408b9"/></linearGradient><linearGradient id="linear-gradient-26" x1="653.17" y1="274.11" x2="174.43" y2="367.41" gradientUnits="userSpaceOnUse"><stop offset="0.04" stop-color="#6735d1"/><stop offset="0.41" stop-color="#7629ca"/><stop offset="0.98" stop-color="#9610bb"/></linearGradient><linearGradient id="linear-gradient-27" x1="653.04" y1="273.65" x2="174.44" y2="366.92" gradientUnits="userSpaceOnUse"><stop offset="0.04" stop-color="#6c3ad2"/><stop offset="0.43" stop-color="#7b2ecb"/><stop offset="0.98" stop-color="#9817bd"/></linearGradient><linearGradient id="linear-gradient-28" x1="652.92" y1="273.2" x2="174.45" y2="366.44" gradientUnits="userSpaceOnUse"><stop offset="0.04" stop-color="#7040d3"/><stop offset="0.44" stop-color="#7f34cc"/><stop offset="0.98" stop-color="#9b1fbf"/></linearGradient><linearGradient id="linear-gradient-29" x1="652.79" y1="272.74" x2="174.45" y2="365.95" gradientUnits="userSpaceOnUse"><stop offset="0.04" stop-color="#7546d4"/><stop offset="0.46" stop-color="#843acd"/><stop offset="0.98" stop-color="#9d27c1"/></linearGradient><linearGradient id="linear-gradient-30" x1="652.67" y1="272.28" x2="174.46" y2="365.47" gradientUnits="userSpaceOnUse"><stop offset="0.04" stop-color="#7a4cd4"/><stop offset="0.49" stop-color="#8940cd"/><stop offset="0.98" stop-color="#9f2fc2"/></linearGradient><linearGradient id="linear-gradient-31" x1="652.55" y1="271.82" x2="174.46" y2="364.99" gradientUnits="userSpaceOnUse"><stop offset="0.04" stop-color="#7e52d5"/><stop offset="0.51" stop-color="#8d46ce"/><stop offset="0.98" stop-color="#a136c4"/></linearGradient><linearGradient id="linear-gradient-32" x1="652.43" y1="271.36" x2="174.46" y2="364.51" gradientUnits="userSpaceOnUse"><stop offset="0.04" stop-color="#8357d6"/><stop offset="0.55" stop-color="#924bce"/><stop offset="0.98" stop-color="#a33ec6"/></linearGradient><linearGradient id="linear-gradient-33" x1="652.32" y1="270.9" x2="174.46" y2="364.02" gradientUnits="userSpaceOnUse"><stop offset="0.04" stop-color="#885dd6"/><stop offset="0.59" stop-color="#9751cf"/><stop offset="0.98" stop-color="#a546c8"/></linearGradient><linearGradient id="linear-gradient-34" x1="652.21" y1="270.44" x2="174.46" y2="363.54" gradientUnits="userSpaceOnUse"><stop offset="0.04" stop-color="#8c63d7"/><stop offset="0.63" stop-color="#9b57d0"/><stop offset="0.98" stop-color="#a74eca"/></linearGradient><linearGradient id="linear-gradient-35" x1="652.11" y1="269.97" x2="174.46" y2="363.06" gradientUnits="userSpaceOnUse"><stop offset="0.04" stop-color="#9169d8"/><stop offset="0.67" stop-color="#a05dd1"/><stop offset="0.98" stop-color="#a5c"/></linearGradient><linearGradient id="linear-gradient-36" x1="652.02" y1="269.51" x2="174.46" y2="362.57" gradientUnits="userSpaceOnUse"><stop offset="0.04" stop-color="#956fd9"/><stop offset="0.71" stop-color="#a463d2"/><stop offset="0.98" stop-color="#ac5dce"/></linearGradient><linearGradient id="linear-gradient-37" x1="651.94" y1="269.04" x2="174.46" y2="362.09" gradientUnits="userSpaceOnUse"><stop offset="0.04" stop-color="#9a75d9"/><stop offset="0.8" stop-color="#a969d2"/><stop offset="0.98" stop-color="#ae65d0"/></linearGradient><linearGradient id="linear-gradient-38" x1="651.87" y1="268.57" x2="174.46" y2="361.61" gradientUnits="userSpaceOnUse"><stop offset="0.04" stop-color="#9f7ada"/><stop offset="0.91" stop-color="#ae6ed3"/><stop offset="0.98" stop-color="#b06dd2"/></linearGradient><linearGradient id="linear-gradient-39" x1="651.81" y1="268.1" x2="174.45" y2="361.13" gradientUnits="userSpaceOnUse"><stop offset="0.04" stop-color="#a380db"/><stop offset="0.98" stop-color="#b274d4"/></linearGradient><linearGradient id="linear-gradient-40" x1="651.76" y1="267.63" x2="174.45" y2="360.64" gradientUnits="userSpaceOnUse"><stop offset="0.04" stop-color="#a886db"/><stop offset="0.98" stop-color="#b47cd5"/></linearGradient><linearGradient id="linear-gradient-41" x1="651.71" y1="267.15" x2="174.45" y2="360.16" gradientUnits="userSpaceOnUse"><stop offset="0.04" stop-color="#ad8cdc"/><stop offset="0.98" stop-color="#b684d7"/></linearGradient><linearGradient id="linear-gradient-42" x1="651.68" y1="266.68" x2="174.45" y2="359.68" gradientUnits="userSpaceOnUse"><stop offset="0.04" stop-color="#b192dd"/><stop offset="0.98" stop-color="#b98cd9"/></linearGradient><linearGradient id="linear-gradient-43" x1="651.65" y1="266.2" x2="174.44" y2="359.2" gradientUnits="userSpaceOnUse"><stop offset="0.04" stop-color="#b697de"/><stop offset="0.98" stop-color="#bb93db"/></linearGradient><linearGradient id="linear-gradient-44" x1="651.64" y1="265.72" x2="174.44" y2="358.72" gradientUnits="userSpaceOnUse"><stop offset="0.04" stop-color="#ba9dde"/><stop offset="0.98" stop-color="#bd9bdd"/></linearGradient><linearGradient id="linear-gradient-45" x1="597.43" y1="320" x2="591.43" y2="306.8" xlink:href="#linear-gradient-2"/><linearGradient id="linear-gradient-46" x1="9414.83" y1="-699.51" x2="9404.6" y2="-680.43" gradientTransform="matrix(-0.87, 0.5, -0.5, 1.44, 8394.99, -3298.92)" gradientUnits="userSpaceOnUse"><stop offset="0.04" stop-color="#a280da"/><stop offset="0.98" stop-color="#ae76d3"/></linearGradient><linearGradient id="linear-gradient-47" x1="574.12" y1="339.83" x2="565.51" y2="318.63" xlink:href="#linear-gradient-2"/><linearGradient id="linear-gradient-48" x1="9437.35" y1="-687.43" x2="9427.12" y2="-668.35" xlink:href="#linear-gradient-46"/><linearGradient id="linear-gradient-49" x1="495.26" y1="190.09" x2="270.95" y2="541.78" gradientUnits="userSpaceOnUse"><stop offset="0" stop-color="#fff"/><stop offset="1" stop-color="#ded2ec"/></linearGradient><linearGradient id="linear-gradient-50" x1="360.71" y1="301.45" x2="339.85" y2="410.43" xlink:href="#linear-gradient-2"/><linearGradient id="linear-gradient-51" x1="22.04" y1="-37.74" x2="322.75" y2="530.76" xlink:href="#linear-gradient-2"/><linearGradient id="linear-gradient-52" x1="171.56" y1="291.97" x2="213.09" y2="291.97" gradientUnits="userSpaceOnUse"><stop offset="0" stop-color="#2b115c"/><stop offset="1" stop-color="#3a167f"/></linearGradient><linearGradient id="linear-gradient-53" x1="154.16" y1="276.96" x2="212.89" y2="276.96" xlink:href="#linear-gradient-52"/><linearGradient id="linear-gradient-54" x1="136.76" y1="270.02" x2="184.74" y2="270.02" xlink:href="#linear-gradient-52"/><linearGradient id="linear-gradient-55" x1="119.37" y1="261.84" x2="160.9" y2="261.84" xlink:href="#linear-gradient-52"/><linearGradient id="linear-gradient-56" x1="101.97" y1="254.28" x2="134.91" y2="254.28" xlink:href="#linear-gradient-52"/><linearGradient id="linear-gradient-57" x1="84.58" y1="240.34" x2="130.98" y2="240.34" xlink:href="#linear-gradient-52"/><linearGradient id="linear-gradient-58" x1="67.18" y1="232.37" x2="106.42" y2="232.37" xlink:href="#linear-gradient-52"/><linearGradient id="linear-gradient-59" x1="171.56" y1="294.37" x2="204.78" y2="294.37" xlink:href="#linear-gradient-52"/><linearGradient id="linear-gradient-60" x1="154.16" y1="280.6" x2="200.28" y2="280.6" xlink:href="#linear-gradient-52"/><linearGradient id="linear-gradient-61" x1="136.76" y1="271.8" x2="178.58" y2="271.8" xlink:href="#linear-gradient-52"/><linearGradient id="linear-gradient-62" x1="119.37" y1="264.24" x2="152.59" y2="264.24" xlink:href="#linear-gradient-52"/><linearGradient id="linear-gradient-63" x1="101.97" y1="256.68" x2="126.6" y2="256.68" xlink:href="#linear-gradient-52"/><linearGradient id="linear-gradient-64" x1="84.58" y1="242.74" x2="122.67" y2="242.74" xlink:href="#linear-gradient-52"/><linearGradient id="linear-gradient-65" x1="67.18" y1="236.01" x2="93.81" y2="236.01" xlink:href="#linear-gradient-52"/><linearGradient id="linear-gradient-66" x1="876.61" y1="1606.87" x2="872.34" y2="1698.41" gradientTransform="matrix(0.87, 0.5, -1, 0.58, 1033.48, -1127.82)" xlink:href="#linear-gradient-52"/><linearGradient id="linear-gradient-67" x1="194.52" y1="198.25" x2="208.39" y2="243.07" xlink:href="#linear-gradient-2"/><linearGradient id="linear-gradient-68" x1="106.89" y1="275.78" x2="137.03" y2="275.78" xlink:href="#linear-gradient-52"/><linearGradient id="linear-gradient-69" x1="91.67" y1="-128.17" x2="392.38" y2="440.33" gradientUnits="userSpaceOnUse"><stop offset="0.04" stop-color="#871fa5"/><stop offset="0.26" stop-color="#962bab"/><stop offset="0.69" stop-color="#bf4abc"/><stop offset="1" stop-color="#df63c9"/></linearGradient><linearGradient id="linear-gradient-70" x1="5306.47" y1="86.91" x2="5428.39" y2="202.88" gradientTransform="matrix(-1, 0, 0, 1, 5685.67, 0)" xlink:href="#linear-gradient-2"/><linearGradient id="linear-gradient-71" x1="5396.82" y1="96.01" x2="5415.25" y2="187.01" gradientTransform="matrix(-1, 0, 0, 1, 5685.67, 0)" xlink:href="#linear-gradient-2"/><linearGradient id="linear-gradient-72" x1="5425.04" y1="130.76" x2="5463.69" y2="243.17" gradientTransform="matrix(-1, 0, 0, 1, 5685.67, 0)" xlink:href="#linear-gradient-2"/><linearGradient id="linear-gradient-73" x1="191.61" y1="178.08" x2="204.68" y2="231.7" xlink:href="#linear-gradient-2"/><linearGradient id="linear-gradient-74" x1="243.38" y1="184.09" x2="258.58" y2="229.44" xlink:href="#linear-gradient-2"/><linearGradient id="linear-gradient-75" x1="207.92" y1="163.48" x2="236.62" y2="235.68" xlink:href="#linear-gradient-2"/><linearGradient id="linear-gradient-76" x1="223.72" y1="-164.99" x2="524.43" y2="403.51" xlink:href="#linear-gradient-52"/><filter id="luminosity-noclip-2" x="320.62" y="121.5" width="206.01" height="106.57" filterUnits="userSpaceOnUse" color-interpolation-filters="sRGB"><feFlood flood-color="#fff" result="bg"/><feBlend in="SourceGraphic" in2="bg"/></filter><mask id="mask-2" x="243.63" y="68.44" width="206.01" height="106.57" maskUnits="userSpaceOnUse"><g class="cls-191"><g transform="translate(-77 -53.06)"><g class="cls-1"><path class="cls-2" d="M352.22,121.78c3.56,2.06,35-3.12,44.32,2.24,9.09,5.25-7.55,24.21,3.91,30.82S479.73,141,490,146.93s-9.09,29.43,1,35.25,28.17,1.52,33.89,4.83-4.67,9.32-1.31,11.25l-51.63,29.81L320.62,140.71Z"/></g></g></g></mask><linearGradient id="linear-gradient-77" x1="409.55" y1="191.95" x2="467.18" y2="88.7" gradientUnits="userSpaceOnUse"><stop offset="0" stop-color="#4b1aa5"/><stop offset="1" stop-color="#a33df9"/></linearGradient><linearGradient id="linear-gradient-78" x1="351.62" y1="159.8" x2="527.83" y2="159.8" xlink:href="#linear-gradient-69"/><linearGradient id="linear-gradient-79" x1="426.45" y1="7.01" x2="576.34" y2="227.97" xlink:href="#linear-gradient-69"/></defs><title>ux-web</title><g class="cls-3"><g id="Arrow"><g class="cls-4"><path class="cls-5" d="M349.36,319.29,222.74,246.18c-8.34-4.81-8.39-12.62-.1-17.4L520.79,56.64c8.29-4.79,21.82-4.76,30.15,0L677.57,129.8c8.34,4.81,8.38,12.62.09,17.4L379.51,319.34C371.22,324.13,357.7,324.1,349.36,319.29ZM549.74,57.39c-7.67-4.43-20.11-4.46-27.74,0L223.85,229.47c-7.62,4.41-7.58,11.59.09,16L350.56,318.6c7.67,4.42,20.12,4.45,27.74,0L676.45,146.51c7.63-4.4,7.59-11.59-.08-16Z" transform="translate(-77 -53.06)"/><polygon class="cls-5" points="541.38 67.31 490.26 37.8 493.57 35.9 544.68 65.41 541.38 67.31"/><path class="cls-5" d="M584.06,133.15l6.77,3.91,3.36-1.95-6.77-3.91Zm18.17,15.57-4.17-2.41-3.36,1.94,4.16,2.41Zm3.77-6.79-9-5.21-3.36,1.94,9,5.21Zm20.76,12.33-18-10.73-3.37,1.94,18,10.73ZM599.33,156l-14.59-8.41-3.36,1.94L596,158ZM582,146l-9-5.21-3.37,1.94,9,5.21Zm-8.8-10.16,18.75,10.83,3.36-1.94-18.74-10.83Zm13.71,22L568.13,147l-3.37,1.94,18.75,10.82Zm32.53.86L605,150.32l-3.37,1.94,14.41,8.32Zm-9.82,3.28-7.49-4.31-3.36,1.94,7.48,4.31ZM584.65,129.6l-6.54-3.77-3.36,1.94,6.53,3.77Zm-19.3,15.75-10.52-6.07-3.37,1.94L562,147.29Zm4.81-6.18-7.57-4.38-3.37,2,7.58,4.37Zm3.6-6.89-3.41-2L567,132.25l3.4,2Z" transform="translate(-77 -53.06)"/><path class="cls-5" d="M569.41,117.71l-48.41,28-48.32-27.9L521.1,89.81l48.31,27.9Zm3.61,0-51.94-30-52,30,51.94,30,52-30Z" transform="translate(-77 -53.06)"/></g><g class="cls-6"><path class="cls-7" d="M342.4,504.82c8,0,15.3-1.76,21.05-5.08L656.82,330.88c7.67-4.43,12.08-11.44,12.08-19.24,0-8.55-5.31-16.51-14.55-21.85L527.81,216.74a51.75,51.75,0,0,0-25.57-6.5c-8,0-15.3,1.75-21.05,5.07L187.82,384.17c-7.67,4.43-12.08,11.45-12.08,19.24,0,8.55,5.31,16.51,14.55,21.85l126.54,73.06A51.86,51.86,0,0,0,342.4,504.82Z" transform="translate(-77 -53.06)"/><path class="cls-8" d="M481.42,215.82,188.06,384.68c-7.38,4.25-11.55,10.94-11.52,18.35,0,8.1,5.11,15.68,14,20.8L311.37,493.6c.2.12,6.1,3.49,6.33,3.56a50.43,50.43,0,0,0,25.73,5.77,45.16,45.16,0,0,0,20.76-5.55L655.94,329.46c7.37-4.26,11.55-10.95,11.51-18.36,0-8.1-5.11-15.68-14-20.8L527.69,217.68a52.68,52.68,0,0,0-9.32-4.15,54.37,54.37,0,0,0-16-2.61C494.41,210.84,487.12,212.53,481.42,215.82Z" transform="translate(-77 -53.06)"/><path class="cls-9" d="M481.66,216.32,188.29,385.18c-7.07,4.09-11,10.45-10.95,17.47.07,7.65,4.92,14.85,13.42,19.76l121.42,70.1c.38.22,5.94,3.36,6.39,3.5a49.05,49.05,0,0,0,25.9,5c6.56,0,15.75-3.3,20.46-6L655.06,328c7.07-4.08,11-10.45,11-17.47-.07-7.66-4.92-14.85-13.42-19.76l-125-72.18a60,60,0,0,0-9.22-4.21,54,54,0,0,0-15.84-2.81C494.61,211.44,487.3,213.06,481.66,216.32Z" transform="translate(-77 -53.06)"/><path class="cls-10" d="M481.89,216.83,188.53,385.69c-6.77,3.91-10.5,9.95-10.39,16.58.11,7.21,4.73,14,12.86,18.71l122,70.43c.58.33,5.78,3.24,6.46,3.45a47.52,47.52,0,0,0,26.06,4.29c5.83,0,16-4.07,20.17-6.48L654.18,326.6c6.77-3.91,10.5-10,10.39-16.59-.11-7.2-4.74-14-12.86-18.7L527.44,219.56a70.57,70.57,0,0,0-9.12-4.28,53.91,53.91,0,0,0-15.7-3C494.8,212.05,487.48,213.6,481.89,216.83Z" transform="translate(-77 -53.06)"/><path class="cls-11" d="M482.13,217.33,188.76,386.19c-6.46,3.74-10,9.45-9.83,15.7.15,6.76,4.55,13.19,12.3,17.66l122.56,70.76c.77.45,5.62,3.11,6.52,3.39a46,46,0,0,0,26.22,3.56c5.11,0,16.21-4.84,19.87-6.95L653.29,325.18c6.47-3.74,10-9.46,9.84-15.71-.15-6.75-4.55-13.18-12.3-17.65L527.31,220.5a83.41,83.41,0,0,0-9-4.34,53.45,53.45,0,0,0-15.54-3.2C495,212.65,487.66,214.14,482.13,217.33Z" transform="translate(-77 -53.06)"/><path class="cls-12" d="M482.36,217.84,189,386.7c-6.17,3.56-9.45,8.95-9.27,14.82.18,6.3,4.36,12.35,11.74,16.61l123.12,71.08a70.12,70.12,0,0,0,6.59,3.34,44.66,44.66,0,0,0,26.39,2.83c4.37,0,16.43-5.62,19.57-7.43l285.27-164.2c6.17-3.56,9.45-8.95,9.27-14.82-.18-6.31-4.35-12.35-11.73-16.61L527.19,221.45c-1.58-.91-7.12-3.76-8.92-4.41a53.53,53.53,0,0,0-15.39-3.4C495.19,213.26,487.84,214.67,482.36,217.84Z" transform="translate(-77 -53.06)"/><path class="cls-13" d="M482.6,218.34,189.24,387.2c-5.87,3.39-8.92,8.46-8.71,13.94.22,5.86,4.17,11.51,11.17,15.56l123.7,71.41a57.83,57.83,0,0,0,6.65,3.28c8.4,3.48,18.56,4.29,26.55,2.1,3.65,0,16.66-6.39,19.28-7.9L651.53,322.32c5.87-3.39,8.92-8.45,8.71-13.93-.22-5.86-4.17-11.52-11.17-15.56l-122-70.44c-1.31-.76-7.32-3.91-8.81-4.48A53.21,53.21,0,0,0,503,214.32C495.38,213.86,488,215.21,482.6,218.34Z" transform="translate(-77 -53.06)"/><path class="cls-14" d="M482.83,218.85,189.47,387.71c-5.56,3.21-8.39,8-8.14,13.05.25,5.41,4,10.68,10.61,14.51L316.2,487a50.74,50.74,0,0,0,6.72,3.23c8.59,3.36,18.93,3.91,26.72,1.36,2.91,0,16.88-7.16,19-8.36l282-162.35c5.57-3.21,8.4-7.95,8.15-13-.26-5.42-4-10.69-10.61-14.52l-121.25-70c-1.05-.61-7.53-4.08-8.72-4.54A52.84,52.84,0,0,0,503.14,215C495.57,214.46,488.21,215.75,482.83,218.85Z" transform="translate(-77 -53.06)"/><path class="cls-15" d="M483.07,219.36,189.71,388.21c-5.27,3-7.87,7.46-7.59,12.17.3,5,3.8,9.85,10,13.46L317,485.92a45.26,45.26,0,0,0,6.79,3.16c8.78,3.25,19.3,3.55,26.88.63,2.19,0,17.11-7.93,18.68-8.83L649.77,319.47c5.26-3,7.87-7.46,7.58-12.17-.29-5-3.79-9.85-10-13.46L526.82,224.27c-.79-.45-7.73-4.25-8.62-4.6a52,52,0,0,0-14.94-4C495.77,215.07,488.39,216.28,483.07,219.36Z" transform="translate(-77 -53.06)"/><path class="cls-16" d="M483.3,219.86,189.94,388.72c-5,2.86-7.34,7-7,11.28.33,4.52,3.6,9,9.49,12.42l125.4,72.4a40.94,40.94,0,0,0,6.85,3.11c9,3.12,19.67,3.18,27-.11,1.46,0,17.34-8.7,18.39-9.3L648.89,318c5-2.86,7.34-7,7-11.28-.33-4.52-3.6-9-9.48-12.42L526.69,225.21c-.52-.3-7.93-4.42-8.52-4.67-4.55-1.87-9.54-3.68-14.78-4.17C496,215.67,488.57,216.82,483.3,219.86Z" transform="translate(-77 -53.06)"/><path class="cls-17" d="M483.54,220.37,190.18,389.22c-4.66,2.69-6.82,6.46-6.46,10.4s3.41,8.19,8.92,11.37l126,72.73a37.25,37.25,0,0,0,6.92,3.06c9.16,3,20,2.8,27.21-.85.73,0,17.56-9.47,18.09-9.77L648,316.61c4.66-2.69,6.82-6.45,6.46-10.39s-3.41-8.19-8.92-11.37l-119-68.69c-.26-.16-8.13-4.62-8.42-4.74-4.5-1.91-9.43-3.82-14.63-4.37C496.15,216.27,488.75,217.36,483.54,220.37Z" transform="translate(-77 -53.06)"/><path d="M353.77,484.05,647.13,315.19c8.81-5.09,7.7-14-2.46-19.84L518.13,222.3c-10.17-5.87-25.55-6.51-34.36-1.43L190.41,389.73c-8.8,5.08-7.7,14,2.47,19.83l126.54,73.06C329.59,488.49,345,489.13,353.77,484.05Z" transform="translate(-77 -53.06)"/></g><path class="cls-18" d="M312.21,455.47,193.9,387.17c-6-3.44-8.92-8-9-12.85,0-.43,0-4.1,0-4.53.49-5.58,4.78-2.5,12.7-7.08L475.83,202.1c15.41-8.89,38.71-9.86,52.06-2.15l118.3,68.3c6,3.44,8.93-2.62,9,2.2,0,.42,0,5.88,0,6.3-.48,5.59-4.77,11.38-12.7,16L364.27,453.32C348.86,462.21,325.55,463.18,312.21,455.47Z" transform="translate(-77 -53.06)"/><path class="cls-19" d="M475.83,201.62c15.41-8.89,38.71-9.86,52.06-2.16l118.3,68.31c5.86,3.38,8.62-2.26,8.95,2.46,0,.49.06,5.79,0,6.29-.46,5.59-4.77,11.39-12.7,16L364.27,453.1c-15.41,8.9-38.72,9.86-52.06,2.16L193.9,387c-6-3.45-9-8.06-9-12.9,0-.47,0-4.05.1-4.53.66-5.5,4.82-2.77,12.64-7.29Z" transform="translate(-77 -53.06)"/><path class="cls-20" d="M475.83,201.14c15.41-8.9,38.71-9.86,52.06-2.16l118.3,68.3c5.75,3.32,8.38-1.88,8.89,2.72.06.57.13,5.7.08,6.29-.45,5.6-4.76,11.4-12.7,16L364.27,452.88c-15.41,8.9-38.72,9.87-52.06,2.16L193.9,386.74c-6-3.47-9-8.1-9-12.95,0-.53.07-4,.15-4.54.81-5.41,4.87-3,12.59-7.5Z" transform="translate(-77 -53.06)"/><path class="cls-21" d="M475.83,200.66c15.41-8.9,38.71-9.87,52.06-2.16l118.3,68.3c5.64,3.26,8.18-1.52,8.83,3,.09.65.19,5.62.14,6.28-.43,5.61-4.75,11.42-12.7,16L364.27,452.67c-15.41,8.89-38.72,9.86-52.06,2.16L193.9,386.52c-6-3.47-9-8.12-9-13,0-.59.1-3.95.21-4.55.92-5.33,4.91-3.31,12.53-7.71Z" transform="translate(-77 -53.06)"/><path class="cls-22" d="M475.83,200.17c15.41-8.89,38.71-9.86,52.06-2.15l118.3,68.3c5.54,3.19,8-1.16,8.76,3.23.13.73.27,5.53.21,6.27-.42,5.61-4.74,11.43-12.7,16L364.27,452.45c-15.41,8.9-38.72,9.86-52.06,2.16L193.9,386.31c-6-3.49-9.05-8.16-9-13.05,0-.64.14-3.9.26-4.54,1-5.26,5-3.59,12.48-7.94Z" transform="translate(-77 -53.06)"/><path class="cls-23" d="M475.83,199.69c15.41-8.9,38.71-9.86,52.06-2.16l118.3,68.31c5.43,3.13,7.87-.8,8.7,3.48a59.66,59.66,0,0,1,.27,6.27c-.41,5.62-4.73,11.43-12.7,16L364.27,452.24c-15.41,8.89-38.72,9.86-52.06,2.15L193.9,386.09c-6.06-3.5-9.07-8.19-9-13.09,0-.69.17-3.85.32-4.55,1.1-5.19,5-3.86,12.42-8.15Z" transform="translate(-77 -53.06)"/><path class="cls-24" d="M475.83,199.21c15.41-8.9,38.71-9.86,52.06-2.16l118.3,68.3c5.33,3.08,7.73-.43,8.64,3.75a50.19,50.19,0,0,1,.33,6.26c-.4,5.62-4.73,11.44-12.7,16.05L364.27,452c-15.41,8.9-38.72,9.86-52.06,2.16L193.9,385.88c-6.08-3.52-9.1-8.22-9-13.15,0-.74.2-3.8.37-4.55,1.18-5.11,5-4.13,12.37-8.36Z" transform="translate(-77 -53.06)"/><path class="cls-25" d="M475.83,198.73c15.41-8.9,38.71-9.87,52.06-2.16l118.3,68.3c5.22,3,7.61-.07,8.58,4a43.63,43.63,0,0,1,.4,6.25c-.4,5.63-4.73,11.46-12.71,16.07L364.27,451.8c-15.41,8.9-38.72,9.87-52.06,2.16L193.9,385.66c-6.1-3.52-9.12-8.25-9-13.19a35.3,35.3,0,0,1,.42-4.56c1.24-5,5.08-4.4,12.31-8.57Z" transform="translate(-77 -53.06)"/><path class="cls-26" d="M475.83,198.24c15.41-8.89,38.71-9.86,52.06-2.16l118.3,68.31c5.12,2.95,7.5.28,8.52,4.26a39.54,39.54,0,0,1,.46,6.24c-.39,5.63-4.72,11.47-12.71,16.09L364.27,451.59c-15.41,8.89-38.72,9.86-52.06,2.16L193.9,385.44c-6.12-3.53-9.13-8.28-9-13.24a34.07,34.07,0,0,1,.47-4.56c1.3-5,5.13-4.67,12.26-8.79Z" transform="translate(-77 -53.06)"/><path class="cls-27" d="M475.83,197.76c15.41-8.9,38.71-9.86,52.06-2.16l118.3,68.3c5,2.9,7.39.64,8.45,4.52a33.5,33.5,0,0,1,.53,6.24c-.39,5.64-4.71,11.48-12.71,16.1L364.27,451.37c-15.41,8.9-38.72,9.86-52.06,2.16L193.9,385.23c-6.14-3.55-9.15-8.31-9-13.29a32.64,32.64,0,0,1,.52-4.57c1.36-4.89,5.18-4.94,12.21-9Z" transform="translate(-77 -53.06)"/><path class="cls-28" d="M475.83,197.28c15.41-8.9,38.71-9.87,52.06-2.16l118.3,68.3c4.9,2.83,7.29,1,8.39,4.78a30.31,30.31,0,0,1,.59,6.23c-.38,5.64-4.71,11.49-12.71,16.12L364.27,451.16c-15.41,8.89-38.72,9.86-52.06,2.15L193.9,385c-6.16-3.56-9.17-8.34-9-13.33a27.86,27.86,0,0,1,.58-4.58c1.41-4.82,5.21-5.21,12.15-9.21Z" transform="translate(-77 -53.06)"/><path class="cls-29" d="M475.83,196.79c15.41-8.89,38.71-9.86,52.06-2.15l118.3,68.3c4.8,2.77,7.19,1.35,8.33,5a27.22,27.22,0,0,1,.65,6.22c-.37,5.65-4.7,11.51-12.71,16.14L364.27,450.94c-15.41,8.9-38.72,9.86-52.06,2.16L193.9,384.8c-6.18-3.57-9.19-8.38-9-13.39a27,27,0,0,1,.63-4.58c1.46-4.75,5.26-5.48,12.1-9.43Z" transform="translate(-77 -53.06)"/><path class="cls-30" d="M475.83,196.31c15.41-8.89,38.71-9.86,52.06-2.16l118.3,68.31c4.69,2.7,7.09,1.69,8.27,5.29a24.62,24.62,0,0,1,.71,6.21c-.37,5.65-4.69,11.52-12.71,16.15L364.27,450.72c-15.41,8.9-38.72,9.87-52.06,2.16L193.9,384.58c-6.2-3.58-9.2-8.41-9-13.43a24.63,24.63,0,0,1,.69-4.59c1.5-4.68,5.3-5.75,12-9.64Z" transform="translate(-77 -53.06)"/><path class="cls-31" d="M475.83,195.83c15.41-8.9,38.71-9.86,52.06-2.16L646.19,262c4.59,2.65,7,2,8.21,5.55a22.17,22.17,0,0,1,.77,6.21c-.36,5.65-4.68,11.53-12.71,16.17L364.27,450.51c-15.41,8.89-38.72,9.86-52.06,2.16L193.9,384.36c-6.22-3.59-9.22-8.43-9-13.48a23.21,23.21,0,0,1,.74-4.59c1.54-4.61,5.35-6,12-9.85Z" transform="translate(-77 -53.06)"/><path class="cls-32" d="M475.83,195.35c15.41-8.9,38.71-9.87,52.06-2.16l118.3,68.3c4.48,2.59,6.91,2.39,8.14,5.8a20.23,20.23,0,0,1,.84,6.21c-.35,5.66-4.67,11.54-12.71,16.18L364.27,450.29c-15.41,8.9-38.72,9.87-52.06,2.16L193.9,384.15c-6.24-3.61-9.23-8.47-9-13.53a21.35,21.35,0,0,1,.8-4.6c1.57-4.55,5.39-6.28,11.93-10.06Z" transform="translate(-77 -53.06)"/><path class="cls-33" d="M475.83,194.86c15.41-8.89,38.71-9.86,52.06-2.15L646.19,261c4.38,2.52,6.82,2.74,8.08,6.06a18.78,18.78,0,0,1,.91,6.19c-.36,5.67-4.68,11.56-12.72,16.21L364.27,450.08c-15.41,8.89-38.72,9.86-52.06,2.15L193.9,383.93c-6.26-3.61-9.24-8.5-9-13.58a20.33,20.33,0,0,1,.85-4.59c1.62-4.49,5.43-6.56,11.88-10.29Z" transform="translate(-77 -53.06)"/><path class="cls-34" d="M475.83,194.38c15.41-8.9,38.71-9.86,52.06-2.16l118.3,68.31c4.27,2.46,6.73,3.08,8,6.31a17.55,17.55,0,0,1,1,6.19c-.35,5.67-4.67,11.57-12.72,16.22L364.27,449.86c-15.41,8.9-38.72,9.86-52.06,2.16L193.9,383.72c-6.28-3.63-9.26-8.53-9-13.63a18,18,0,0,1,.9-4.6c1.65-4.43,5.47-6.83,11.82-10.5Z" transform="translate(-77 -53.06)"/><path class="cls-35" d="M475.83,193.9c15.41-8.9,38.71-9.86,52.06-2.16L646.19,260c4.17,2.41,6.65,3.43,8,6.58a16.07,16.07,0,0,1,1,6.18c-.35,5.67-4.66,11.58-12.72,16.24L364.27,449.64c-15.41,8.9-38.72,9.87-52.06,2.16L193.9,383.5c-6.3-3.64-9.27-8.56-9-13.67a16.91,16.91,0,0,1,1-4.61c1.69-4.37,5.52-7.1,11.77-10.71Z" transform="translate(-77 -53.06)"/><path class="cls-36" d="M475.83,193.42c15.41-8.9,38.71-9.87,52.06-2.16l118.3,68.3c4.06,2.34,6.56,3.76,7.9,6.83a15,15,0,0,1,1.09,6.17c-.35,5.69-4.65,11.6-12.72,16.26L364.27,449.43c-15.41,8.9-38.72,9.86-52.06,2.16L193.9,383.28c-6.32-3.64-9.28-8.59-9-13.72a16,16,0,0,1,1-4.61c1.71-4.31,5.56-7.37,11.71-10.92Z" transform="translate(-77 -53.06)"/><path class="cls-37" d="M475.83,192.93c15.41-8.89,38.71-9.86,52.06-2.15l118.3,68.3c3.95,2.28,6.47,4.1,7.84,7.09a14,14,0,0,1,1.15,6.16c-.34,5.69-4.64,11.61-12.72,16.27L364.27,449.21c-15.41,8.9-38.72,9.87-52.06,2.16L193.9,383.07c-6.34-3.66-9.3-8.62-9-13.77a15.52,15.52,0,0,1,1.06-4.62c1.75-4.25,5.61-7.64,11.66-11.14Z" transform="translate(-77 -53.06)"/><path class="cls-38" d="M475.83,192.45c15.41-8.9,38.71-9.86,52.06-2.16l118.3,68.31c3.85,2.21,6.39,4.43,7.77,7.34a12.91,12.91,0,0,1,1.22,6.16c-.33,5.69-4.64,11.62-12.72,16.29L364.27,449c-15.41,8.89-38.72,9.86-52.06,2.15L193.9,382.85c-6.36-3.67-9.3-8.65-9-13.82a14.51,14.51,0,0,1,1.12-4.62c1.78-4.19,5.64-7.91,11.6-11.35Z" transform="translate(-77 -53.06)"/><path class="cls-39" d="M312.21,450.94,193.9,382.64c-13.34-7.71-11.67-21.17,3.74-30.06L475.83,192c15.41-8.9,38.71-9.87,52.06-2.16l118.3,68.3c13.35,7.71,11.67,21.16-3.73,30.06L364.27,448.78C348.86,457.68,325.55,458.64,312.21,450.94Z" transform="translate(-77 -53.06)"/><path class="cls-40" d="M312.21,451.07,193.9,382.77c-6-3.44-8.92-8-9-12.85,0-.43,0-9.7,0-10.13.49-5.58,4.78-2.51,12.7-7.08L475.83,192.1c15.41-8.9,38.71-9.86,52.06-2.16l118.3,68.31c6,3.44,8.93-2.62,9,2.2,0,.42,0,11.48,0,11.9-.48,5.59-4.77,11.38-12.7,15.95L364.27,448.91C348.86,457.81,325.55,458.78,312.21,451.07Z" transform="translate(-77 -53.06)"/><path class="cls-41" d="M475.83,191.62c15.41-8.9,38.71-9.87,52.06-2.16l118.3,68.3c5.83,3.37,8.41-2.27,8.92,2.4.06.56.09,11.25,0,11.82-.65,5.54-4.81,11.29-12.68,15.84L364.27,448.43c-15.41,8.9-38.72,9.86-52.06,2.16L193.9,382.29c-5.93-3.43-8.84-8-9-12.79,0-.55.06-9.52.15-10.08.87-5.43,4.82-2.7,12.59-7.19Z" transform="translate(-77 -53.06)"/><path class="cls-42" d="M475.83,191.13c15.41-8.89,38.71-9.86,52.06-2.15l118.3,68.3c5.7,3.29,8.07-1.93,8.82,2.6.12.7.2,11,.11,11.73-.76,5.49-4.84,11.21-12.66,15.73L364.27,448c-15.41,8.89-38.72,9.86-52.06,2.16L193.9,381.8c-5.91-3.41-8.78-7.95-9-12.73,0-.66.1-9.32.24-10,1.11-5.3,4.86-2.91,12.49-7.32Z" transform="translate(-77 -53.06)"/><path class="cls-43" d="M475.83,190.65c15.41-8.89,38.71-9.86,52.06-2.16l118.3,68.31c5.57,3.21,7.82-1.59,8.73,2.8.17.84.31,10.78.18,11.64-.84,5.45-4.88,11.13-12.64,15.62L364.27,447.47c-15.41,8.89-38.72,9.86-52.06,2.15L193.9,381.32c-5.88-3.4-8.74-7.92-9-12.67,0-.78.14-9.14.34-9.95,1.28-5.17,4.9-3.11,12.39-7.44Z" transform="translate(-77 -53.06)"/><path class="cls-44" d="M475.83,190.17c15.41-8.9,38.71-9.86,52.06-2.16l118.3,68.3c5.44,3.14,7.62-1.24,8.63,3a108.44,108.44,0,0,1,.25,11.55c-.89,5.41-4.9,11.05-12.61,15.5L364.27,447c-15.41,8.9-38.72,9.87-52.06,2.16L193.9,380.84c-5.86-3.39-8.7-7.89-9-12.61,0-.9.19-9,.45-9.89,1.39-5,4.93-3.32,12.28-7.56Z" transform="translate(-77 -53.06)"/><path class="cls-45" d="M475.83,189.69c15.41-8.9,38.71-9.87,52.06-2.16l118.3,68.3c5.31,3.06,7.45-.91,8.54,3.2a86.19,86.19,0,0,1,.32,11.48c-.93,5.36-4.93,11-12.59,15.38L364.27,446.5c-15.41,8.9-38.72,9.86-52.06,2.16L193.9,380.36c-5.83-3.37-8.67-7.85-9-12.55a83.62,83.62,0,0,1,.54-9.83c1.48-4.93,5-3.52,12.18-7.68Z" transform="translate(-77 -53.06)"/><path class="cls-46" d="M475.83,189.2c15.41-8.89,38.71-9.86,52.06-2.15l118.3,68.3c5.17,3,7.3-.58,8.45,3.4a72.15,72.15,0,0,1,.39,11.39c-1,5.32-5,10.87-12.57,15.27L364.27,446c-15.41,8.89-38.72,9.86-52.06,2.16L193.9,379.87c-5.81-3.35-8.65-7.8-9-12.48a69,69,0,0,1,.64-9.78c1.55-4.81,5-3.72,12.08-7.8Z" transform="translate(-77 -53.06)"/><path class="cls-47" d="M475.83,188.72c15.41-8.9,38.71-9.86,52.06-2.16l118.3,68.31c5,2.91,7.16-.26,8.35,3.6a59.23,59.23,0,0,1,.47,11.3c-1,5.29-5,10.79-12.55,15.16L364.27,445.53c-15.41,8.9-38.72,9.87-52.06,2.16L193.9,379.39c-5.78-3.34-8.62-7.77-9-12.42-.1-1.26.28-8.39.73-9.72,1.61-4.7,5.06-3.92,12-7.92Z" transform="translate(-77 -53.06)"/><path class="cls-48" d="M475.83,188.24c15.41-8.9,38.71-9.86,52.06-2.16l118.3,68.3c4.91,2.84,7,.07,8.26,3.8.51,1.56.86,9.62.54,11.22-1,5.25-5,10.71-12.53,15L364.27,445.05c-15.41,8.9-38.72,9.86-52.06,2.16L193.9,378.91c-5.75-3.33-8.6-7.73-9-12.36-.11-1.38.31-8.2.84-9.66,1.66-4.6,5.09-4.13,11.87-8Z" transform="translate(-77 -53.06)"/><path class="cls-49" d="M475.83,187.76c15.41-8.9,38.71-9.87,52.06-2.16l118.3,68.3c4.78,2.76,6.9.39,8.16,4,.6,1.7,1,9.38.62,11.13-1.07,5.22-5.07,10.63-12.51,14.93L364.27,444.57c-15.41,8.9-38.72,9.86-52.06,2.16L193.9,378.42c-5.73-3.31-8.58-7.69-9-12.3-.13-1.49.33-8,.93-9.59,1.71-4.5,5.13-4.33,11.77-8.16Z" transform="translate(-77 -53.06)"/><path class="cls-50" d="M475.83,187.27c15.41-8.89,38.71-9.86,52.06-2.15l118.3,68.3c4.65,2.68,6.78.7,8.07,4.2.68,1.84,1.09,9.15.69,11-1.1,5.18-5.1,10.55-12.49,14.82L364.27,444.09c-15.41,8.89-38.72,9.86-52.06,2.15L193.9,377.94c-5.7-3.29-8.56-7.65-9-12.24-.14-1.61.36-7.83,1-9.54,1.75-4.39,5.18-4.53,11.67-8.28Z" transform="translate(-77 -53.06)"/><path class="cls-51" d="M475.83,186.79c15.41-8.9,38.71-9.86,52.06-2.16l118.3,68.31c4.52,2.6,6.66,1,8,4.4.76,2,1.21,8.91.76,11-1.12,5.15-5.13,10.47-12.47,14.7L364.27,443.6c-15.41,8.9-38.72,9.87-52.06,2.16L193.9,377.46c-5.68-3.28-8.54-7.62-9-12.18-.15-1.73.38-7.65,1.14-9.48,1.78-4.3,5.21-4.73,11.56-8.4Z" transform="translate(-77 -53.06)"/><path class="cls-52" d="M475.83,186.31c15.41-8.9,38.71-9.86,52.06-2.16l118.3,68.3c4.39,2.53,6.55,1.33,7.88,4.6.86,2.11,1.33,8.69.84,10.87-1.15,5.11-5.17,10.38-12.45,14.59L364.27,443.12c-15.41,8.9-38.72,9.86-52.06,2.16L193.9,377c-5.65-3.27-8.52-7.58-9-12.12-.18-1.85.39-7.47,1.23-9.42,1.81-4.2,5.25-4.94,11.46-8.52Z" transform="translate(-77 -53.06)"/><path class="cls-53" d="M475.83,185.83c15.41-8.9,38.71-9.87,52.06-2.16L646.19,252c4.26,2.46,6.44,1.64,7.79,4.8,1,2.24,1.45,8.45.91,10.78-1.17,5.08-5.2,10.3-12.43,14.48L364.27,442.64c-15.41,8.89-38.72,9.86-52.06,2.16L193.9,376.49c-5.63-3.25-8.5-7.53-9-12.05-.19-2,.4-7.29,1.33-9.36,1.85-4.11,5.29-5.14,11.36-8.65Z" transform="translate(-77 -53.06)"/><path class="cls-54" d="M475.83,185.34c15.41-8.89,38.71-9.86,52.06-2.16l118.3,68.31c4.13,2.38,6.32,1.95,7.69,5a23.56,23.56,0,0,1,1,10.69c-1.2,5.05-5.24,10.22-12.41,14.37L364.27,442.16c-15.41,8.89-38.72,9.86-52.06,2.15L193.9,376c-5.6-3.24-8.48-7.5-8.94-12a24.68,24.68,0,0,1,1.43-9.31c1.87-4,5.33-5.34,11.25-8.76Z" transform="translate(-77 -53.06)"/><path class="cls-55" d="M475.83,184.86c15.41-8.9,38.71-9.86,52.06-2.16L646.19,251c4,2.31,6.21,2.26,7.6,5.21a21.35,21.35,0,0,1,1.06,10.61c-1.22,5-5.27,10.13-12.39,14.24L364.27,441.67c-15.41,8.9-38.72,9.87-52.06,2.16L193.9,375.53c-5.58-3.22-8.47-7.46-8.94-11.93a22.5,22.5,0,0,1,1.53-9.25c1.9-3.93,5.37-5.54,11.15-8.88Z" transform="translate(-77 -53.06)"/><path class="cls-56" d="M475.83,184.38c15.41-8.9,38.71-9.87,52.06-2.16l118.3,68.3c3.86,2.23,6.1,2.56,7.51,5.4a19.3,19.3,0,0,1,1.13,10.53c-1.24,5-5.3,10.05-12.37,14.13L364.27,441.19c-15.41,8.9-38.72,9.86-52.06,2.16L193.9,375.05c-5.55-3.21-8.45-7.42-8.93-11.88a20.5,20.5,0,0,1,1.62-9.18c1.94-3.84,5.41-5.75,11-9Z" transform="translate(-77 -53.06)"/><path class="cls-57" d="M475.83,183.89c15.41-8.89,38.71-9.86,52.06-2.15L646.19,250c3.73,2.15,6,2.86,7.41,5.6a17.56,17.56,0,0,1,1.21,10.44c-1.26,4.94-5.34,10-12.35,14L364.27,440.71c-15.41,8.89-38.72,9.86-52.06,2.16L193.9,374.56c-5.53-3.19-8.43-7.38-8.93-11.81a18.86,18.86,0,0,1,1.73-9.12c2-3.76,5.44-5.95,10.94-9.13Z" transform="translate(-77 -53.06)"/><path class="cls-58" d="M475.83,183.41c15.41-8.89,38.71-9.86,52.06-2.16l118.3,68.31c3.6,2.07,5.88,3.15,7.32,5.8a15.88,15.88,0,0,1,1.27,10.35c-1.27,4.91-5.36,9.88-12.32,13.91L364.27,440.22c-15.41,8.9-38.72,9.87-52.06,2.16L193.9,374.08c-5.5-3.18-8.42-7.34-8.93-11.75a17.33,17.33,0,0,1,1.83-9.06c2-3.68,5.48-6.16,10.84-9.25Z" transform="translate(-77 -53.06)"/><path class="cls-59" d="M475.83,182.93c15.41-8.9,38.71-9.86,52.06-2.16l118.3,68.3c3.47,2,5.77,3.45,7.22,6a14.56,14.56,0,0,1,1.35,10.27c-1.29,4.88-5.39,9.8-12.3,13.79L364.27,439.74c-15.41,8.9-38.72,9.86-52.06,2.16L193.9,373.6c-5.48-3.17-8.4-7.3-8.92-11.69a16.06,16.06,0,0,1,1.92-9c2-3.59,5.53-6.35,10.74-9.36Z" transform="translate(-77 -53.06)"/><path class="cls-60" d="M475.83,182.45c15.41-8.9,38.71-9.87,52.06-2.16l118.3,68.3c3.34,1.93,5.66,3.74,7.13,6.2A13.35,13.35,0,0,1,654.74,265c-1.31,4.85-5.43,9.72-12.28,13.68L364.27,439.26c-15.41,8.9-38.72,9.86-52.06,2.16L193.9,373.11c-5.45-3.14-8.38-7.26-8.92-11.62a14.8,14.8,0,0,1,2-8.95c2-3.52,5.56-6.55,10.63-9.48Z" transform="translate(-77 -53.06)"/><path class="cls-61" d="M312.21,440.93,193.9,372.63c-13.34-7.7-11.67-21.16,3.74-30.06L475.83,182c15.41-8.89,38.71-9.86,52.06-2.15l118.3,68.3c13.35,7.7,11.67,21.16-3.73,30.06L364.27,438.78C348.86,447.67,325.55,448.64,312.21,440.93Z" transform="translate(-77 -53.06)"/><path class="cls-61" d="M312.21,440.93,193.9,372.63c-13.34-7.7-11.67-21.16,3.74-30.06L475.83,182c15.41-8.89,38.71-9.86,52.06-2.15l118.3,68.3c13.35,7.7,11.67,21.16-3.73,30.06L364.27,438.78C348.86,447.67,325.55,448.64,312.21,440.93Z" transform="translate(-77 -53.06)"/><path class="cls-62" d="M197.74,342.58,475.85,182c15.38-8.87,38.63-9.83,51.94-2.15l118.26,68.28c13.32,7.69,11.65,21.11-3.73,30L364.21,438.69c-15.37,8.88-38.62,9.84-51.94,2.16L194,372.57C180.7,364.88,182.37,351.46,197.74,342.58Z" transform="translate(-77 -53.06)"/><path class="cls-63" d="M197.84,342.59l278-160.52c15.34-8.86,38.54-9.82,51.82-2.15l118.21,68.25c13.29,7.67,11.62,21.06-3.72,29.92l-278,160.52c-15.33,8.86-38.53,9.82-51.81,2.15L194.12,372.51C180.84,364.84,182.5,351.45,197.84,342.59Z" transform="translate(-77 -53.06)"/><path class="cls-64" d="M197.94,342.6l278-160.48c15.3-8.84,38.44-9.8,51.69-2.15L645.77,248.2c13.25,7.65,11.59,21-3.71,29.85l-278,160.48c-15.3,8.83-38.44,9.79-51.69,2.14L194.23,372.45C181,364.8,182.64,351.44,197.94,342.6Z" transform="translate(-77 -53.06)"/><path class="cls-65" d="M198,342.61l277.9-160.44c15.26-8.81,38.35-9.77,51.56-2.14l118.13,68.2c13.22,7.63,11.57,21-3.7,29.78L364,438.45c-15.26,8.81-38.35,9.77-51.57,2.14l-118.12-68.2C181.12,364.75,182.77,351.42,198,342.61Z" transform="translate(-77 -53.06)"/><path class="cls-66" d="M198.14,342.62,476,182.22c15.23-8.79,38.26-9.75,51.45-2.13l118.08,68.17c13.19,7.62,11.54,20.91-3.69,29.71L364,438.37c-15.23,8.79-38.26,9.74-51.45,2.13L194.44,372.32C181.26,364.71,182.91,351.41,198.14,342.62Z" transform="translate(-77 -53.06)"/><path class="cls-67" d="M198.24,342.63,476,182.27c15.19-8.77,38.17-9.72,51.32-2.13l118.05,68.15c13.15,7.6,11.5,20.87-3.69,29.64L363.92,438.29c-15.19,8.77-38.17,9.72-51.33,2.12l-118-68.15C181.4,364.67,183.05,351.4,198.24,342.63Z" transform="translate(-77 -53.06)"/><path class="cls-68" d="M198.33,342.64,476,182.32c15.15-8.75,38.07-9.7,51.2-2.12l118,68.12c13.12,7.58,11.47,20.82-3.68,29.56L363.86,438.2c-15.16,8.75-38.08,9.7-51.2,2.13l-118-68.13C181.54,364.62,183.18,351.39,198.33,342.64Z" transform="translate(-77 -53.06)"/><path class="cls-69" d="M198.43,342.65,476,182.37c15.12-8.73,38-9.67,51.08-2.12l118,68.11c13.09,7.55,11.45,20.76-3.67,29.48L363.8,438.12c-15.12,8.73-38,9.68-51.08,2.12l-118-68.1C181.68,364.58,183.32,351.38,198.43,342.65Z" transform="translate(-77 -53.06)"/><path class="cls-70" d="M198.53,342.66,476.07,182.42c15.08-8.7,37.89-9.65,50.95-2.11l117.92,68.08c13.06,7.54,11.42,20.71-3.66,29.41L363.74,438c-15.08,8.71-37.89,9.65-50.95,2.11L194.87,372.08C181.81,364.54,183.45,351.37,198.53,342.66Z" transform="translate(-77 -53.06)"/><path class="cls-71" d="M198.63,342.67,476.1,182.47c15-8.68,37.8-9.63,50.83-2.1l117.87,68c13,7.52,11.39,20.66-3.65,29.34L363.68,438c-15,8.69-37.8,9.63-50.83,2.11L195,372C182,364.49,183.59,351.35,198.63,342.67Z" transform="translate(-77 -53.06)"/><path class="cls-72" d="M198.73,342.68l277.4-160.16c15-8.66,37.71-9.6,50.7-2.1l117.83,68c13,7.5,11.36,20.61-3.64,29.27L363.62,437.88c-15,8.66-37.71,9.6-50.7,2.1L195.09,372C182.09,364.45,183.72,351.34,198.73,342.68Z" transform="translate(-77 -53.06)"/><path class="cls-73" d="M198.83,342.69,476.15,182.58c15-8.65,37.62-9.59,50.59-2.1l117.78,68c13,7.48,11.34,20.56-3.63,29.2L363.56,437.8c-15,8.64-37.62,9.58-50.58,2.09l-117.78-68C182.23,364.41,183.86,351.33,198.83,342.69Z" transform="translate(-77 -53.06)"/><path class="cls-74" d="M198.93,342.7,476.18,182.63c14.94-8.63,37.53-9.56,50.46-2.1l117.74,68c12.93,7.47,11.31,20.51-3.63,29.13L363.5,437.71c-14.93,8.63-37.52,9.56-50.46,2.1l-117.73-68C182.37,364.36,184,351.32,198.93,342.7Z" transform="translate(-77 -53.06)"/><path class="cls-75" d="M199,342.71l277.18-160c14.9-8.6,37.43-9.54,50.33-2.09l117.7,67.95c12.9,7.45,11.28,20.46-3.62,29.06l-277.18,160c-14.89,8.6-37.43,9.54-50.33,2.09l-117.7-68C182.51,364.32,184.13,351.31,199,342.71Z" transform="translate(-77 -53.06)"/><path class="cls-76" d="M199.13,342.72l277.11-160c14.86-8.58,37.34-9.51,50.21-2.08L644.1,248.57c12.87,7.43,11.25,20.41-3.61,29l-277.11,160c-14.86,8.58-37.34,9.51-50.21,2.08L195.52,371.71C182.65,364.28,184.27,351.3,199.13,342.72Z" transform="translate(-77 -53.06)"/><path class="cls-77" d="M199.23,342.73l277-160c14.83-8.56,37.25-9.49,50.09-2.08L644,248.6c12.84,7.42,11.23,20.36-3.6,28.92l-277,160c-14.83,8.56-37.26,9.49-50.09,2.08l-117.61-67.9C182.79,364.23,184.4,351.29,199.23,342.73Z" transform="translate(-77 -53.06)"/><path class="cls-78" d="M199.32,342.74l277-159.91c14.79-8.54,37.16-9.47,50-2.07l117.56,67.87c12.81,7.4,11.2,20.31-3.59,28.85l-277,159.91c-14.79,8.54-37.16,9.46-50,2.07L195.74,371.58C182.93,364.19,184.54,351.27,199.32,342.74Z" transform="translate(-77 -53.06)"/><path class="cls-79" d="M199.42,342.75l276.9-159.87c14.75-8.52,37.06-9.44,49.84-2.07l117.52,67.85c12.77,7.38,11.17,20.26-3.58,28.78L363.21,437.31c-14.75,8.51-37.07,9.44-49.84,2.06L195.85,371.52C183.07,364.15,184.67,351.26,199.42,342.75Z" transform="translate(-77 -53.06)"/><path class="cls-80" d="M199.52,342.76,476.34,182.93c14.72-8.49,37-9.42,49.72-2.06L643.54,248.7c12.74,7.35,11.14,20.21-3.57,28.7L363.15,437.22c-14.72,8.5-37,9.42-49.72,2.06L196,371.46C183.21,364.1,184.81,351.25,199.52,342.76Z" transform="translate(-77 -53.06)"/><path class="cls-81" d="M199.62,342.76,476.37,183c14.68-8.47,36.88-9.39,49.6-2l117.43,67.8c12.71,7.34,11.12,20.16-3.56,28.63L363.09,437.14c-14.68,8.48-36.88,9.4-49.6,2.06L196.06,371.4C183.35,364.06,184.94,351.24,199.62,342.76Z" transform="translate(-77 -53.06)"/><path class="cls-82" d="M199.72,342.77,476.4,183c14.64-8.45,36.79-9.37,49.47-2.05l117.39,67.78c12.68,7.32,11.09,20.11-3.55,28.56L363,437.06c-14.64,8.45-36.79,9.37-49.47,2.05L196.17,371.34C183.49,364,185.08,351.23,199.72,342.77Z" transform="translate(-77 -53.06)"/><path class="cls-83" d="M199.82,342.78l276.61-159.7c14.6-8.43,36.7-9.34,49.34-2l117.35,67.75c12.65,7.3,11.06,20.06-3.54,28.49L363,437c-14.61,8.43-36.7,9.35-49.35,2L196.28,371.27C183.63,364,185.21,351.22,199.82,342.78Z" transform="translate(-77 -53.06)"/><path class="cls-84" d="M199.92,342.79,476.45,183.14c14.57-8.42,36.61-9.33,49.23-2L643,248.82c12.62,7.28,11,20-3.53,28.42L362.91,436.9c-14.57,8.41-36.61,9.32-49.22,2L196.38,371.21C183.77,363.93,185.35,351.2,199.92,342.79Z" transform="translate(-77 -53.06)"/><path class="cls-85" d="M200,342.8,476.48,183.19c14.53-8.39,36.52-9.3,49.1-2l117.26,67.7c12.59,7.27,11,20-3.52,28.35L362.85,436.82c-14.53,8.39-36.51,9.3-49.1,2l-117.26-67.7C183.91,363.89,185.49,351.19,200,342.8Z" transform="translate(-77 -53.06)"/><path class="cls-86" d="M200.12,342.81,476.51,183.24c14.49-8.37,36.42-9.28,49-2L642.7,248.88c12.55,7.25,11,19.91-3.52,28.28L362.79,436.73c-14.49,8.37-36.42,9.28-49,2L196.6,371.09C184.05,363.84,185.62,351.18,200.12,342.81Z" transform="translate(-77 -53.06)"/><path class="cls-87" d="M200.22,342.82,476.54,183.29c14.46-8.35,36.33-9.26,48.85-2l117.17,67.65c12.52,7.23,11,19.86-3.51,28.21L362.73,436.65c-14.46,8.35-36.33,9.26-48.85,2L196.71,371C184.19,363.8,185.76,351.17,200.22,342.82Z" transform="translate(-77 -53.06)"/><path class="cls-88" d="M200.31,342.83,476.56,183.34c14.43-8.33,36.24-9.23,48.73-2l117.13,67.62c12.49,7.21,10.93,19.81-3.5,28.14L362.67,436.57c-14.42,8.33-36.24,9.23-48.73,2L196.82,371C184.33,363.76,185.89,351.16,200.31,342.83Z" transform="translate(-77 -53.06)"/><path class="cls-89" d="M200.41,342.84,476.59,183.39c14.39-8.31,36.15-9.21,48.61-2L642.28,249c12.46,7.2,10.9,19.76-3.49,28.07L362.62,436.49c-14.39,8.3-36.15,9.21-48.61,2L196.92,370.9C184.46,363.71,186,351.15,200.41,342.84Z" transform="translate(-77 -53.06)"/><path class="cls-90" d="M200.51,342.85,476.62,183.44c14.35-8.28,36-9.18,48.48-2l117,67.58c12.43,7.17,10.87,19.7-3.48,28L362.56,436.41c-14.35,8.28-36.06,9.18-48.49,2L197,370.84C184.6,363.67,186.16,351.14,200.51,342.85Z" transform="translate(-77 -53.06)"/><path class="cls-90" d="M200.61,342.86l276-159.37c14.32-8.26,36-9.16,48.37-2L642,249c12.4,7.15,10.84,19.65-3.47,27.92l-276,159.37c-14.32,8.26-36,9.16-48.36,2l-117-67.55C184.74,363.62,186.3,351.12,200.61,342.86Z" transform="translate(-77 -53.06)"/><path class="cls-91" d="M200.71,342.87l276-159.33c14.28-8.24,35.88-9.13,48.24-2l117,67.53c12.37,7.14,10.82,19.6-3.46,27.85l-276,159.32c-14.28,8.25-35.88,9.14-48.24,2L197.25,370.72C184.88,363.58,186.43,351.11,200.71,342.87Z" transform="translate(-77 -53.06)"/><path class="cls-92" d="M200.81,342.88,476.7,183.59c14.24-8.22,35.78-9.11,48.11-2l116.91,67.5c12.34,7.12,10.79,19.55-3.45,27.78L362.38,436.16c-14.24,8.22-35.78,9.12-48.11,2l-116.92-67.5C185,363.54,186.57,351.1,200.81,342.88Z" transform="translate(-77 -53.06)"/><path class="cls-93" d="M200.91,342.89,476.73,183.65c14.2-8.21,35.69-9.1,48-2l116.86,67.47c12.3,7.1,10.76,19.51-3.44,27.71L362.32,436.08c-14.2,8.2-35.69,9.09-48,2L197.46,370.6C185.16,363.49,186.7,351.09,200.91,342.89Z" transform="translate(-77 -53.06)"/><path class="cls-94" d="M201,342.9,476.75,183.7c14.17-8.18,35.6-9.07,47.87-2l116.82,67.45c12.27,7.08,10.73,19.46-3.43,27.64L362.26,436c-14.17,8.18-35.6,9.07-47.87,2L197.57,370.53C185.3,363.45,186.84,351.08,201,342.9Z" transform="translate(-77 -53.06)"/><path class="cls-95" d="M201.11,342.91,476.78,183.75c14.13-8.16,35.51-9.05,47.74-2L641.3,249.19c12.24,7.07,10.71,19.41-3.42,27.57L362.2,435.92c-14.13,8.15-35.5,9-47.74,2L197.68,370.47C185.44,363.41,187,351.07,201.11,342.91Z" transform="translate(-77 -53.06)"/><path class="cls-96" d="M201.21,342.92,476.81,183.8c14.09-8.14,35.41-9,47.62-2l116.73,67.4c12.21,7,10.68,19.36-3.41,27.5L362.14,435.83c-14.09,8.14-35.41,9-47.62,2l-116.73-67.4C185.58,363.36,187.11,351.06,201.21,342.92Z" transform="translate(-77 -53.06)"/><path class="cls-97" d="M201.3,342.93,476.84,183.85c14.05-8.12,35.32-9,47.49-2L641,249.25c12.18,7,10.65,19.31-3.41,27.42L362.08,435.75c-14.05,8.12-35.32,9-47.49,2l-116.7-67.37C185.72,363.32,187.25,351,201.3,342.93Z" transform="translate(-77 -53.06)"/><path class="cls-98" d="M201.4,342.94l275.46-159c14-8.09,35.23-9,47.38-2l116.65,67.34c12.14,7,10.61,19.26-3.41,27.35L362,435.67c-14,8.1-35.23,9-47.37,2L198,370.29C185.86,363.28,187.38,351,201.4,342.94Z" transform="translate(-77 -53.06)"/><path class="cls-99" d="M201.5,343,476.89,184c14-8.07,35.14-8.95,47.25-2l116.61,67.32c12.11,7,10.59,19.21-3.4,27.28L362,435.59c-14,8.07-35.13,9-47.24,2L198.11,370.23C186,363.23,187.52,351,201.5,343Z" transform="translate(-77 -53.06)"/><path class="cls-100" d="M201.6,343,476.92,184c13.95-8.05,35-8.93,47.12-1.95l116.57,67.3c12.07,7,10.56,19.15-3.39,27.2l-275.31,159c-14,8.05-35.05,8.93-47.13,1.95l-116.56-67.3C186.14,363.19,187.65,351,201.6,343Z" transform="translate(-77 -53.06)"/><path class="cls-101" d="M201.7,343,477,184.05c13.91-8,34.95-8.9,47-2l116.52,67.28c12,6.95,10.53,19.1-3.38,27.13L361.85,435.43c-13.91,8-35,8.9-47,1.94L198.33,370.1C186.28,363.15,187.79,351,201.7,343Z" transform="translate(-77 -53.06)"/><path class="cls-102" d="M201.8,343,477,184.1c13.88-8,34.87-8.88,46.88-1.94l116.48,67.25c12,6.93,10.51,19-3.37,27.06L361.79,435.34c-13.88,8-34.87,8.89-46.88,2L198.43,370C186.42,363.1,187.92,351,201.8,343Z" transform="translate(-77 -53.06)"/><path class="cls-103" d="M201.9,343,477,184.15c13.84-8,34.77-8.85,46.76-1.93l116.43,67.22c12,6.92,10.48,19-3.36,27L361.73,435.26c-13.84,8-34.77,8.86-46.76,1.94L198.54,370C186.56,363.06,188.06,351,201.9,343Z" transform="translate(-77 -53.06)"/><path class="cls-104" d="M202,343,477,184.21c13.8-8,34.68-8.84,46.63-1.94l116.39,67.2c12,6.9,10.45,19-3.35,26.92l-275,158.79c-13.8,8-34.68,8.83-46.63,1.93L198.65,369.92C186.7,363,188.2,351,202,343Z" transform="translate(-77 -53.06)"/><path class="cls-105" d="M202.1,343l275-158.74c13.77-7.95,34.59-8.81,46.51-1.93L639.91,249.5c11.92,6.88,10.42,18.9-3.34,26.85l-275,158.75c-13.77,7.95-34.59,8.81-46.51,1.93L198.76,369.86C186.84,363,188.33,351,202.1,343Z" transform="translate(-77 -53.06)"/><path class="cls-106" d="M202.2,343l274.88-158.7c13.73-7.93,34.5-8.79,46.39-1.92l116.3,67.14c11.89,6.87,10.4,18.86-3.33,26.78L361.55,435c-13.73,7.92-34.5,8.78-46.38,1.92L198.86,369.79C187,362.93,188.47,350.94,202.2,343Z" transform="translate(-77 -53.06)"/><path class="cls-107" d="M202.29,343,477.11,184.36c13.69-7.91,34.4-8.76,46.26-1.92l116.26,67.12c11.86,6.85,10.37,18.81-3.32,26.71L361.49,434.94c-13.69,7.9-34.4,8.76-46.26,1.91L199,369.73C187.11,362.89,188.6,350.93,202.29,343Z" transform="translate(-77 -53.06)"/><path class="cls-108" d="M202.39,343,477.14,184.41c13.65-7.88,34.31-8.74,46.13-1.91l116.22,67.09c11.82,6.83,10.34,18.76-3.31,26.64L361.43,434.85c-13.65,7.89-34.31,8.74-46.14,1.92l-116.21-67.1C187.25,362.84,188.74,350.92,202.39,343Z" transform="translate(-77 -53.06)"/><path class="cls-109" d="M202.49,343,477.16,184.46c13.62-7.86,34.22-8.72,46-1.91l116.17,67.07c11.79,6.81,10.31,18.71-3.31,26.57L361.37,434.77c-13.62,7.87-34.22,8.72-46,1.91L199.19,369.61C187.39,362.8,188.87,350.91,202.49,343Z" transform="translate(-77 -53.06)"/><path class="cls-110" d="M202.59,343.05l274.6-158.54c13.58-7.84,34.13-8.69,45.89-1.9l116.13,67c11.76,6.8,10.29,18.66-3.3,26.5L361.31,434.69c-13.58,7.84-34.12,8.69-45.89,1.9l-116.12-67C187.53,362.76,189,350.89,202.59,343.05Z" transform="translate(-77 -53.06)"/><path class="cls-111" d="M202.69,343.06l274.53-158.5c13.54-7.82,34-8.67,45.77-1.89l116.08,67c11.73,6.77,10.26,18.6-3.29,26.42L361.25,434.61c-13.54,7.82-34,8.67-45.76,1.9l-116.09-67C187.67,362.71,189.14,350.88,202.69,343.06Z" transform="translate(-77 -53.06)"/><path class="cls-112" d="M202.79,343.07,477.25,184.61c13.51-7.8,33.94-8.64,45.64-1.89l116,67c11.7,6.75,10.23,18.55-3.28,26.35L361.2,434.53c-13.51,7.8-33.95,8.64-45.65,1.89l-116-67C187.81,362.67,189.28,350.87,202.79,343.07Z" transform="translate(-77 -53.06)"/><path class="cls-113" d="M202.89,343.08,477.27,184.66c13.48-7.77,33.86-8.62,45.52-1.88l116,67c11.67,6.73,10.2,18.5-3.27,26.28L361.14,434.45c-13.48,7.77-33.86,8.62-45.52,1.88l-116-67C188,362.63,189.42,350.86,202.89,343.08Z" transform="translate(-77 -53.06)"/><path class="cls-114" d="M203,343.09,477.3,184.72c13.44-7.76,33.76-8.6,45.4-1.89l115.95,66.95c11.64,6.72,10.18,18.45-3.26,26.21L361.08,434.36c-13.44,7.76-33.76,8.6-45.4,1.89l-116-66.95C188.09,362.58,189.55,350.85,203,343.09Z" transform="translate(-77 -53.06)"/><path class="cls-115" d="M203.09,343.1,477.33,184.77c13.4-7.74,33.67-8.58,45.27-1.88l115.91,66.92c11.6,6.7,10.15,18.4-3.25,26.14L361,434.28c-13.4,7.74-33.67,8.58-45.28,1.88l-115.9-66.92C188.23,362.54,189.69,350.84,203.09,343.1Z" transform="translate(-77 -53.06)"/><path class="cls-116" d="M203.18,343.11,477.35,184.82c13.37-7.72,33.58-8.56,45.16-1.87l115.86,66.89c11.57,6.68,10.12,18.35-3.24,26.07L361,434.2c-13.36,7.72-33.58,8.55-45.15,1.87L199.94,369.18C188.37,362.5,189.82,350.82,203.18,343.11Z" transform="translate(-77 -53.06)"/><path class="cls-117" d="M203.28,343.12l274.1-158.25c13.33-7.7,33.49-8.53,45-1.87l115.82,66.87c11.54,6.66,10.09,18.3-3.23,26L360.9,434.12c-13.33,7.69-33.49,8.53-45,1.87L200.05,369.12C188.51,362.45,190,350.81,203.28,343.12Z" transform="translate(-77 -53.06)"/><path class="cls-118" d="M203.38,343.13l274-158.21c13.29-7.67,33.39-8.51,44.9-1.86L638.09,249.9c11.51,6.65,10.07,18.25-3.22,25.93L360.84,434c-13.29,7.67-33.39,8.5-44.9,1.86L200.16,369.05C188.65,362.41,190.09,350.8,203.38,343.13Z" transform="translate(-77 -53.06)"/><path class="cls-119" d="M587.07,321l14.07-8.12a7.62,7.62,0,0,0,3.18-6.08h0c0-2.34-1.42-3.42-3.18-2.4l-14.07,8.12a7.61,7.61,0,0,0-3.17,6.08h0C583.9,320.94,585.32,322,587.07,321Z" transform="translate(-77 -53.06)"/><path class="cls-120" d="M585.81,320.55a1.74,1.74,0,0,0,.85-.27l14.07-8.12a6.82,6.82,0,0,0,2.76-5.36c0-.9-.28-1.95-1.08-1.95a1.74,1.74,0,0,0-.85.27l-14.07,8.12a6.81,6.81,0,0,0-2.76,5.36C584.73,319.5,585,320.55,585.81,320.55Z" transform="translate(-77 -53.06)"/><path class="cls-121" d="M562,335.5,576,327.38a7.65,7.65,0,0,0,3.18-6.08h0c0-2.34-1.43-3.41-3.18-2.4L562,327a7.62,7.62,0,0,0-3.18,6.08h0C558.78,335.44,560.2,336.52,562,335.5Z" transform="translate(-77 -53.06)"/><path class="cls-122" d="M560.69,335.05a1.71,1.71,0,0,0,.85-.27l14.07-8.12a6.83,6.83,0,0,0,2.77-5.36c0-.9-.29-1.95-1.09-1.95a1.74,1.74,0,0,0-.85.27l-14.07,8.12a6.82,6.82,0,0,0-2.76,5.36C559.61,334,559.89,335.05,560.69,335.05Z" transform="translate(-77 -53.06)"/><path class="cls-123" d="M336,436.4h0a34.92,34.92,0,0,1-17.15-4.12l-112.5-65c-4.74-2.73-7.35-6.41-7.36-10.36s2.58-7.56,7.25-10.26l280.2-161.76a34.43,34.43,0,0,1,17-4.07A34.81,34.81,0,0,1,520.5,185L633,250c4.74,2.73,7.35,6.42,7.35,10.36s-2.57,7.56-7.25,10.26L352.91,432.34A34.56,34.56,0,0,1,336,436.4Zm167.4-253.93a32.84,32.84,0,0,0-16.16,3.85L207,348.09c-4.16,2.4-6.45,5.55-6.45,8.87s2.33,6.54,6.56,9l112.5,64.95A33.23,33.23,0,0,0,336,434.8h0A32.87,32.87,0,0,0,352.11,431L632.3,269.18c4.16-2.4,6.45-5.55,6.45-8.87s-2.32-6.54-6.55-9l-112.5-65A33.23,33.23,0,0,0,503.35,182.47Z" transform="translate(-77 -53.06)"/><path class="cls-124" d="M582.13,231.94l-27.91-16.11c-1.09-.64-1-1.74.31-2.48h0a4.76,4.76,0,0,1,4.29-.17l27.9,16.11c1.1.63,1,1.74-.31,2.47h0A4.77,4.77,0,0,1,582.13,231.94Z" transform="translate(-77 -53.06)"/><g class="cls-125"><path class="cls-126" d="M375.55,395.47a22.62,22.62,0,0,1-11.28-2.68l-26.76-15.45-26.77-15.45c-3.67-2.12-5.77-5.39-5.77-9,0-4,2.66-7.89,7.29-10.56a28.79,28.79,0,0,1,14-3.55,22.62,22.62,0,0,1,11.28,2.67l26.76,15.46,26.77,15.45c3.67,2.12,5.77,5.39,5.77,9,0,4-2.65,7.89-7.28,10.56A28.86,28.86,0,0,1,375.55,395.47Z" transform="translate(-77 -53.06)"/><path class="cls-127" d="M313.26,342.67h0a28,28,0,0,1,13.68-3.44,22.83,22.83,0,0,1,9.67,2c.42.19.91.45,1.3.67L364,356.91l2.23,1.29L390,372a12.75,12.75,0,0,1,4.69,4.55,9,9,0,0,1,1.15,4c.13,3.9-2.39,7.68-6.94,10.31a28,28,0,0,1-13.68,3.44,22.87,22.87,0,0,1-9.68-2c-.42-.19-.91-.45-1.29-.67l-26.07-15.05L336,375.3l-23.83-13.76a12.75,12.75,0,0,1-4.69-4.55,9.09,9.09,0,0,1-1.15-4C306.18,349.08,308.7,345.3,313.26,342.67Z" transform="translate(-77 -53.06)"/><path class="cls-128" d="M314.26,343h0a27.21,27.21,0,0,1,13.31-3.34,22.32,22.32,0,0,1,9.41,1.93c.37.18.9.46,1.25.66l25.36,14.64,2.17,1.26L389,371.53a14.12,14.12,0,0,1,4.65,4.33,9.09,9.09,0,0,1,1.26,3.82c.26,3.75-2.12,7.46-6.6,10.05a27.25,27.25,0,0,1-13.32,3.34,22.24,22.24,0,0,1-9.4-1.93c-.38-.18-.91-.46-1.26-.66l-25.36-14.64-2.17-1.26L313.56,361.2a14,14,0,0,1-4.64-4.34,8.9,8.9,0,0,1-1.26-3.82C307.39,349.29,309.77,345.58,314.26,343Z" transform="translate(-77 -53.06)"/><path class="cls-129" d="M315.26,343.3h0a26.41,26.41,0,0,1,12.95-3.23,21.49,21.49,0,0,1,9.13,1.91c.34.15.91.46,1.22.64l24.66,14.24,2.11,1.22,22.55,13a15.48,15.48,0,0,1,4.59,4.12,8.92,8.92,0,0,1,1.37,3.62c.4,3.61-1.84,7.25-6.25,9.8a26.41,26.41,0,0,1-12.95,3.23,21.57,21.57,0,0,1-9.14-1.9c-.33-.16-.9-.47-1.21-.65l-24.67-14.24-2.1-1.21-22.55-13a15.51,15.51,0,0,1-4.59-4.13A8.94,8.94,0,0,1,309,353.1C308.6,349.49,310.85,345.85,315.26,343.3Z" transform="translate(-77 -53.06)"/><path class="cls-130" d="M316.26,343.62h0a25.73,25.73,0,0,1,12.58-3.13,21,21,0,0,1,8.87,1.88c.29.14.9.47,1.17.63l24,13.83,2,1.19,21.9,12.64a17.69,17.69,0,0,1,4.54,3.92,9.11,9.11,0,0,1,1.49,3.43c.53,3.46-1.57,7-5.91,9.53a25.52,25.52,0,0,1-12.58,3.13,20.8,20.8,0,0,1-8.87-1.88c-.29-.14-.91-.47-1.18-.63l-24-13.83-2.05-1.18-21.9-12.65a17.33,17.33,0,0,1-4.54-3.91,8.87,8.87,0,0,1-1.49-3.43C309.81,349.69,311.92,346.13,316.26,343.62Z" transform="translate(-77 -53.06)"/><path class="cls-131" d="M317.26,343.94h0a24.82,24.82,0,0,1,12.22-3,20.34,20.34,0,0,1,8.59,1.85c.25.13.91.48,1.14.62l23.26,13.43,2,1.15,21.26,12.27a20.53,20.53,0,0,1,4.49,3.7,9.19,9.19,0,0,1,1.61,3.24c.67,3.32-1.31,6.82-5.57,9.28a24.78,24.78,0,0,1-12.21,3,20.06,20.06,0,0,1-8.6-1.85c-.25-.12-.91-.48-1.14-.61L341,373.58l-2-1.15-21.27-12.28a20.74,20.74,0,0,1-4.49-3.69,9.33,9.33,0,0,1-1.6-3.24C311,349.89,313,346.4,317.26,343.94Z" transform="translate(-77 -53.06)"/><path class="cls-132" d="M318.26,344.25h0a24.12,24.12,0,0,1,11.85-2.92,19.47,19.47,0,0,1,8.33,1.83c.21.1.9.49,1.1.6l22.56,13L364,357.9l20.62,11.9a25.1,25.1,0,0,1,4.44,3.49,9.83,9.83,0,0,1,1.72,3c.81,3.18-1,6.6-5.23,9a23.9,23.9,0,0,1-11.85,2.92,19.39,19.39,0,0,1-8.33-1.82c-.21-.1-.9-.49-1.1-.6l-22.56-13-1.93-1.12-20.62-11.9a25.1,25.1,0,0,1-4.44-3.49,9.71,9.71,0,0,1-1.71-3C312.22,350.09,314.07,346.68,318.26,344.25Z" transform="translate(-77 -53.06)"/><path class="cls-133" d="M319.26,344.57h0a23.21,23.21,0,0,1,11.49-2.82,19,19,0,0,1,8.05,1.8l1.06.59,21.86,12.62,1.87,1.08,20,11.53a30.74,30.74,0,0,1,4.39,3.27,10.31,10.31,0,0,1,1.83,2.85c1,3-.76,6.39-4.88,8.77a23.17,23.17,0,0,1-11.48,2.82,19,19,0,0,1-8.06-1.8l-1.06-.59-21.86-12.62L340.58,371l-20-11.53a31.31,31.31,0,0,1-4.39-3.27,10.31,10.31,0,0,1-1.83-2.85C313.43,350.3,315.14,347,319.26,344.57Z" transform="translate(-77 -53.06)"/><path class="cls-134" d="M320.26,344.89h0a22.31,22.31,0,0,1,11.12-2.71,18,18,0,0,1,7.79,1.77l1,.57,21.16,12.21,1.81,1,19.33,11.16c.59.34,4.08,2.55,4.34,3.06a6.47,6.47,0,0,1,1.95,2.66c1.1,2.89-.49,6.17-4.54,8.5a22.28,22.28,0,0,1-11.11,2.72,18.22,18.22,0,0,1-7.8-1.78l-1-.56-21.15-12.22-1.82-1.05L322,359.11c-.59-.34-4.08-2.55-4.34-3.06a6.6,6.6,0,0,1-1.95-2.65C314.63,350.5,316.22,347.22,320.26,344.89Z" transform="translate(-77 -53.06)"/><path class="cls-135" d="M321.27,345.2h0A21.43,21.43,0,0,1,332,342.6a17.48,17.48,0,0,1,7.53,1.74l1,.55L361,356.71l1.76,1,18.69,10.79a42.52,42.52,0,0,1,4.29,2.84,6.56,6.56,0,0,1,2.06,2.47c1.24,2.75-.22,6-4.2,8.25a21.56,21.56,0,0,1-10.75,2.61,17.47,17.47,0,0,1-7.52-1.75l-1-.55-20.46-11.81-1.75-1-18.69-10.79a39.86,39.86,0,0,1-4.29-2.84,6.31,6.31,0,0,1-2.06-2.47C315.82,350.7,317.29,347.5,321.27,345.2Z" transform="translate(-77 -53.06)"/><path class="cls-136" d="M322.27,345.52h0a20.63,20.63,0,0,1,10.38-2.5,16.56,16.56,0,0,1,7.25,1.72l.94.53,19.76,11.41,1.69,1,18,10.42c.2.11,4.15,2.46,4.24,2.63a6.36,6.36,0,0,1,2.17,2.27c1.4,2.61.05,5.74-3.85,8a20.64,20.64,0,0,1-10.38,2.51,16.84,16.84,0,0,1-7.25-1.72l-.94-.54-19.76-11.41-1.7-1-18-10.42c-.2-.12-4.15-2.46-4.24-2.63a6.51,6.51,0,0,1-2.18-2.28C317,350.91,318.36,347.77,322.27,345.52Z" transform="translate(-77 -53.06)"/><path class="cls-137" d="M365.23,380.58l-21.59-12.46-21.59-12.47c-4.36-2.51-3.81-6.91,1.22-9.81h0c5-2.91,12.64-3.22,17-.71l21.59,12.47,21.59,12.47c4.36,2.51,3.81,6.91-1.22,9.81h0C377.2,382.78,369.59,383.1,365.23,380.58Z" transform="translate(-77 -53.06)"/></g><path class="cls-138" d="M366.4,374.55l-53.53-30.91c-5.4-3.12-4.72-8.56,1.51-12.16h0c6.24-3.6,15.67-4,21.07-.88L389,361.51c5.4,3.12,4.72,8.56-1.51,12.16h0C381.23,377.27,371.8,377.66,366.4,374.55Z" transform="translate(-77 -53.06)"/><path class="cls-139" d="M366.4,373.84l-53.53-30.91c-5.4-3.12-4.72-8.56,1.51-12.16h0c6.24-3.6,15.67-4,21.07-.88L389,360.8c5.4,3.12,4.72,8.56-1.51,12.16h0C381.23,376.56,371.8,377,366.4,373.84Z" transform="translate(-77 -53.06)"/><polygon class="cls-118" points="288.54 306.37 287.13 301.66 284.88 302.96 270.41 294.61 268.17 295.9 282.64 304.25 280.39 305.56 288.54 306.37"/><polygon class="cls-140" points="284.26 312.29 287.31 314.05 292.82 310.87 289.78 309.11 284.26 312.29"/><polygon class="cls-140" points="288.23 314.58 291.28 316.34 300.94 310.76 297.9 309 288.23 314.58"/><polygon class="cls-140" points="306.02 308.9 292.2 316.88 295.24 318.63 309.06 310.66 306.02 308.9"/><path class="cls-139" d="M447.77,300l-13.48-7.79L431.14,294l13.48,7.78Zm-6.13,4.85-16.08-9.29-3.15,1.82,16.08,9.28Zm19.77,3-11.05-6.37-3.14,1.81,11,6.38Zm6.9,4-4.3-2.49-3.15,1.82,4.3,2.49ZM405.05,275.3l-9.84-5.69-3.15,1.82,9.85,5.68ZM403,282.49l-15-8.68-3.15,1.81,15,8.69Zm41.25,23.82-3.15,1.81,4.22,2.44,3.15-1.82Zm-19.05-19.39L407.65,276.8l-3.15,1.81L422,288.74Zm6.5,3.75-3.9-2.25-3.15,1.82,3.9,2.25ZM423,294l-8.44-4.87L411.37,291l8.45,4.87Zm-17.37-10-3.15,1.82,6.33,3.65,3.15-1.81Zm42.32,28.07,11.53,6.66,3.15-1.82-11.53-6.66Zm37.21,9.46-14.21-8.2-3.15,1.82,14.21,8.2Zm9.17,5.3-6.57-3.8-3.15,1.82,6.58,3.8Zm-73.59-3.17-11.05-6.38-3.14,1.82,11,6.38Zm3.46-2.75,11.53,6.66,3.15-1.82-11.53-6.66Zm17.33,1.62,5,2.91,3.14-1.82-5-2.91Zm-13.71,8.85,11,6.38,3.15-1.82-11-6.37Zm10.51-2.31,4.93,2.84,3.15-1.81-4.93-2.85ZM374,291.93l6.33,3.65,3.15-1.81-6.33-3.66Zm17,14.56-3.9-2.25-3.15,1.82,3.9,2.25Zm3.52-6.35-8.44-4.87-3.15,1.81,8.45,4.88Zm18.68,10.78-16.08-9.28L394,303.46,410,312.74Zm3.18,18.61-11.53-6.66-3.15,1.82,11.53,6.66ZM385.14,290l17.54,10.13,3.15-1.82-17.54-10.12Zm42.71,24.66,11,6.38L442,319.2l-11-6.37Zm-11.27,27,3.15-1.82-4.3-2.48-3.15,1.82Zm22.67,1.07L419,331l-3.14,1.82,20.3,11.72ZM428.4,311.33l-13.48-7.79-3.15,1.82,13.48,7.78Zm-40.14,2-13.64-7.88-3.15,1.82,13.64,7.88Zm36.45,4.27-8.93-5.16-3.15,1.82,8.93,5.16ZM372,303.93l-8.44-4.87-3.15,1.81,8.44,4.88Zm-8.23-9.5,17.54,10.13,3.15-1.82-17.54-10.13ZM376.61,315l-17.54-10.13-3.14,1.82,17.54,10.13Zm30.44.8L393.57,308l-3.14,1.82,13.48,7.78Zm5.78,20.11-11-6.38-3.15,1.82,11,6.38Zm-20.32.29,4.23,2.44,3.14-1.82-4.22-2.44Zm6.82,3.94,11.53,6.66L414,345l-11.53-6.66ZM382.56,322,396,329.82l3.15-1.82-13.48-7.78Zm-19.77-3,8.45,4.88,3.15-1.82-8.45-4.88Zm39.44,2.36-11.37-6.56-3.15,1.82,11.37,6.56Zm-26.17-3.08,3.9,2.25,3.15-1.82-3.9-2.25Zm92.29,16.1-3.15,1.82,6.58,3.8,3.15-1.82Zm-14.5,12,3.41,2,3.14-1.82-3.41-2Zm-14.9-.21,11,6.37,3.15-1.81-11-6.38Zm-3,6.68,6.58,3.79,3.15-1.81-6.58-3.8Zm-16.81-9.71,14.21,8.21,3.15-1.82-14.21-8.21Zm-45.34-17.79,16.07,9.28,3.15-1.82L377,323.57Zm11.85-38.72-10-5.78-3.15,1.81,10,5.78Zm63.44,40.26,13.47,7.78,3.15-1.82-13.48-7.78Zm-43.85-25.32,3.89,2.25,3.15-1.82-3.9-2.25Zm62.14,40.63L448.5,331.32l-3.15,1.81,18.92,10.93Zm-12.48,1.18-10.37-6-3.15,1.82,10.38,6Zm-26.61-15.36-5-2.91L420.15,327l5,2.9Zm-53.8-39.45-6.11-3.53-3.15,1.82,6.11,3.53Zm-38.31,15.06,15,8.68,3.15-1.81-15-8.69Zm20.26-.33-9.85-5.68-3.15,1.82,9.85,5.68Zm4.5-5.78-7.09-4.09-3.14,1.81,7.08,4.09Zm3.36-6.45-3.18-1.84L358,291.09l3.19,1.84Zm-10.48,22.74,6.34,3.66,3.14-1.82L357,312Z" transform="translate(-77 -53.06)"/><path class="cls-126" d="M254,396.74,94,304.64a15.56,15.56,0,0,1,0-26.94l127.58-74.16a15.56,15.56,0,0,1,15.6,0l160,92.1a15.56,15.56,0,0,1,0,26.94L269.57,396.72A15.56,15.56,0,0,1,254,396.74Z" transform="translate(-77 -53.06)"/><path class="cls-127" d="M254.67,395.23,95.76,303.73a15.17,15.17,0,0,1,0-26.26L221,204.63a15.2,15.2,0,0,1,15.21,0l158.9,91.51a15.17,15.17,0,0,1,0,26.25l-125.3,72.85A15.18,15.18,0,0,1,254.67,395.23Z" transform="translate(-77 -53.06)"/><path class="cls-128" d="M255.36,393.73,97.5,302.83a14.78,14.78,0,0,1,0-25.58l123-71.52a14.79,14.79,0,0,1,14.81,0l157.87,90.9a14.78,14.78,0,0,1,0,25.58l-123,71.52A14.76,14.76,0,0,1,255.36,393.73Z" transform="translate(-77 -53.06)"/><path class="cls-129" d="M256.06,392.22,99.23,301.92a14.38,14.38,0,0,1,0-24.89l120.72-70.2a14.38,14.38,0,0,1,14.42,0l156.82,90.3a14.38,14.38,0,0,1,0,24.89L270.47,392.2A14.36,14.36,0,0,1,256.06,392.22Z" transform="translate(-77 -53.06)"/><path class="cls-130" d="M256.75,390.72,101,301a14,14,0,0,1,0-24.21l118.43-68.88a14,14,0,0,1,14,0l155.78,89.7a14,14,0,0,1,0,24.2L270.77,390.7A14,14,0,0,1,256.75,390.72Z" transform="translate(-77 -53.06)"/><path class="cls-131" d="M257.45,389.21l-154.74-89.1a13.59,13.59,0,0,1,0-23.52L218.82,209a13.56,13.56,0,0,1,13.62,0l154.74,89.1a13.59,13.59,0,0,1,0,23.52L271.07,389.19A13.59,13.59,0,0,1,257.45,389.21Z" transform="translate(-77 -53.06)"/><path class="cls-132" d="M258.14,387.7l-153.7-88.49a13.2,13.2,0,0,1,0-22.84l113.86-66.25a13.2,13.2,0,0,1,13.23,0L385.2,298.6a13.2,13.2,0,0,1,0,22.84L271.37,387.69A13.2,13.2,0,0,1,258.14,387.7Z" transform="translate(-77 -53.06)"/><path class="cls-133" d="M258.84,386.2,106.18,298.3a12.8,12.8,0,0,1,0-22.15l111.57-64.93a12.81,12.81,0,0,1,12.83,0l152.66,87.9a12.8,12.8,0,0,1,0,22.15L271.67,386.18A12.81,12.81,0,0,1,258.84,386.2Z" transform="translate(-77 -53.06)"/><path class="cls-134" d="M259.53,384.69,107.91,297.4a12.41,12.41,0,0,1,0-21.47l109.29-63.61a12.43,12.43,0,0,1,12.44,0l151.61,87.3a12.4,12.4,0,0,1,0,21.47L272,384.67A12.4,12.4,0,0,1,259.53,384.69Z" transform="translate(-77 -53.06)"/><path class="cls-135" d="M260.22,383.18,109.65,296.49a12,12,0,0,1,0-20.79l107-62.28a12,12,0,0,1,12,0l150.58,86.69a12,12,0,0,1,0,20.79l-107,62.29A12,12,0,0,1,260.22,383.18Z" transform="translate(-77 -53.06)"/><path class="cls-136" d="M260.92,381.68,111.39,295.59a11.62,11.62,0,0,1,0-20.11l104.71-61a11.61,11.61,0,0,1,11.65,0l149.53,86.09a11.61,11.61,0,0,1,0,20.1l-104.71,61A11.63,11.63,0,0,1,260.92,381.68Z" transform="translate(-77 -53.06)"/><path class="cls-137" d="M261.61,380.17,113.12,294.68a11.22,11.22,0,0,1,0-19.42l102.43-59.65a11.22,11.22,0,0,1,11.25,0l148.49,85.49a11.22,11.22,0,0,1,0,19.42L272.87,380.15A11.22,11.22,0,0,1,261.61,380.17Z" transform="translate(-77 -53.06)"/><polygon class="cls-141" points="186.44 326.58 0 219.19 142.53 136.54 328.97 243.94 186.44 326.58"/><polygon class="cls-142" points="186.44 325.24 1.94 218.06 0 219.19 186.44 326.58 326.22 245.09 324.28 244.86 186.44 325.24"/><polygon class="cls-143" points="280.29 258 150.1 182.83 150.79 182.44 280.98 257.6 280.29 258"/><polygon class="cls-143" points="253.64 273.38 123.46 198.22 124.14 197.82 254.33 272.98 253.64 273.38"/><polygon class="cls-143" points="293.61 250.3 163.43 175.14 164.12 174.74 294.3 249.91 293.61 250.3"/><polygon class="cls-143" points="266.96 265.69 136.78 190.53 137.47 190.13 267.65 265.29 266.96 265.69"/><g class="cls-144"><polygon class="cls-145" points="142.54 208.51 133.67 203.39 166.34 184.53 175.21 189.65 142.54 208.51"/><polygon class="cls-145" points="159.94 218.55 151.07 213.43 200.93 184.65 209.79 189.77 159.94 218.55"/><polygon class="cls-145" points="177.33 228.6 168.47 223.48 207.58 200.9 216.45 206.01 177.33 228.6"/><polygon class="cls-145" points="194.73 238.64 185.86 233.52 218.53 214.66 227.4 219.78 194.73 238.64"/><polygon class="cls-145" points="212.13 248.68 203.26 243.56 227.33 229.67 236.19 234.79 212.13 248.68"/><polygon class="cls-145" points="229.52 258.73 220.66 253.61 253.32 234.75 262.19 239.87 229.52 258.73"/><polygon class="cls-145" points="246.92 268.77 238.05 263.65 283.61 237.35 292.48 242.47 246.92 268.77"/></g><g class="cls-146"><polygon class="cls-145" points="142.54 208.51 133.67 203.39 158.03 189.33 166.9 194.45 142.54 208.51"/><polygon class="cls-145" points="159.94 218.55 151.07 213.43 188.32 191.93 197.19 197.04 159.94 218.55"/><polygon class="cls-145" points="177.33 228.6 168.47 223.48 201.42 204.45 210.28 209.57 177.33 228.6"/><polygon class="cls-145" points="194.73 238.64 185.86 233.52 210.22 219.46 219.09 224.58 194.73 238.64"/><polygon class="cls-145" points="212.13 248.68 203.26 243.56 219.02 234.47 227.89 239.58 212.13 248.68"/><polygon class="cls-145" points="229.52 258.73 220.66 253.61 245.01 239.55 253.88 244.66 229.52 258.73"/><polygon class="cls-145" points="246.92 268.77 238.05 263.65 271 244.63 279.87 249.75 246.92 268.77"/></g><polygon class="cls-143" points="85.84 219.31 216.03 294.47 216.72 294.08 86.53 218.91 85.84 219.31"/><polygon class="cls-143" points="59.2 234.7 189.38 309.86 190.07 309.46 59.88 234.3 59.2 234.7"/><polygon class="cls-143" points="99.17 211.62 229.35 286.78 230.04 286.38 99.86 211.22 99.17 211.62"/><polygon class="cls-143" points="72.52 227 202.7 302.17 203.39 301.77 73.21 226.61 72.52 227"/><g class="cls-147"><polygon class="cls-148" points="171.56 298.84 180.42 303.96 213.09 285.1 204.22 279.98 171.56 298.84"/><polygon class="cls-149" points="154.16 288.8 163.03 293.92 212.88 265.13 204.02 260.01 154.16 288.8"/><polygon class="cls-150" points="136.76 278.75 145.63 283.87 184.74 261.29 175.88 256.17 136.76 278.75"/><polygon class="cls-151" points="119.37 268.71 128.24 273.83 160.9 254.97 152.03 249.85 119.37 268.71"/><polygon class="cls-152" points="101.97 258.67 110.84 263.78 134.91 249.89 126.04 244.77 101.97 258.67"/><polygon class="cls-153" points="84.58 248.62 93.44 253.74 130.98 232.07 122.11 226.95 84.58 248.62"/><polygon class="cls-154" points="67.18 238.58 76.05 243.7 106.42 226.16 97.55 221.04 67.18 238.58"/></g><g class="cls-146"><polygon class="cls-155" points="171.56 298.84 180.42 303.96 204.78 289.9 195.91 284.78 171.56 298.84"/><polygon class="cls-156" points="154.16 288.8 163.03 293.92 200.28 272.41 191.41 267.29 154.16 288.8"/><polygon class="cls-157" points="136.76 278.75 145.63 283.87 178.58 264.85 169.72 259.73 136.76 278.75"/><polygon class="cls-158" points="119.37 268.71 128.24 273.83 152.59 259.77 143.72 254.65 119.37 268.71"/><polygon class="cls-159" points="101.97 258.67 110.84 263.78 126.6 254.69 117.73 249.57 101.97 258.67"/><polygon class="cls-160" points="84.58 248.62 93.44 253.74 122.67 236.87 113.8 231.75 84.58 248.62"/><polygon class="cls-161" points="67.18 238.58 76.05 243.7 93.81 233.44 84.94 228.32 67.18 238.58"/></g><path class="cls-162" d="M217.42,232.71c-7.66,4.42-20.11,4.4-27.81-.05s-7.74-11.64-.09-16,20.11-4.4,27.81,0S225.07,228.29,217.42,232.71Z" transform="translate(-77 -53.06)"/><path class="cls-163" d="M153.66,270.86c-7.66,4.42-20.11,4.4-27.81-.05s-7.74-11.64-.09-16.06,20.11-4.39,27.81.06S161.31,266.44,153.66,270.86Z" transform="translate(-77 -53.06)"/><path class="cls-164" d="M206,227.75a2.48,2.48,0,0,1-.86-1.66c0-.34.48-.62,1.09-.62a10.24,10.24,0,0,0,2.34-.26,2.18,2.18,0,0,0,1.51,0c.39-.23.52-.54.33-.74,1.58-1,2.31-2.2.07-3.49a5.91,5.91,0,0,0-6.05,0,1.75,1.75,0,0,0-1.28.2.52.52,0,0,0,0,.87,2.36,2.36,0,0,0-.44,1.35c0,.35-.48.64-1.08.63a9.28,9.28,0,0,1-2.86-.5,4.78,4.78,0,0,0-3.72.25l-1.74,1c-.34.2-.34.52,0,.71l9.34,5.4a1.4,1.4,0,0,0,1.23,0l1.74-1C206.57,229.31,206.71,228.42,206,227.75Z" transform="translate(-77 -53.06)"/><path class="cls-162" d="M148,257.73c-4.52-2.61-11.87-2.63-16.37,0s-4.47,6.84,0,9.45,11.88,2.63,16.38,0S152.55,260.35,148,257.73Zm-1.57,8.52a14.53,14.53,0,0,1-13.13,0c-3.63-2.1-3.65-5.5,0-7.58a14.56,14.56,0,0,1,13.13,0C150,260.76,150.06,264.16,146.45,266.25Zm-.54-7.3a1.78,1.78,0,0,0-1.62,0l-6.14,3.54,5.76,3.33a1.78,1.78,0,0,0,1.62,0c.45-.26.45-.68,0-.93l-4.14-2.39,4.53-2.61A.5.5,0,0,0,145.91,259Z" transform="translate(-77 -53.06)"/><path class="cls-165" d="M137,282.67l-16-9.24-3.14,1.81,16,9.24Zm-18.6-10.73L110,267.08l-3.13,1.81,8.41,4.86Z" transform="translate(-77 -53.06)"/><polygon class="cls-162" points="91.94 178.23 109.41 188.32 112.54 186.51 95.07 176.43 91.94 178.23"/><polygon class="cls-162" points="111.99 189.81 115.87 192.05 119.01 190.24 115.13 188 111.99 189.81"/><path class="cls-126" d="M323.6,306.3l-160-92.1a15.56,15.56,0,0,1,0-26.94L291.2,113.1a15.56,15.56,0,0,1,15.6,0l160,92.1a15.56,15.56,0,0,1,0,26.94L339.2,306.28A15.56,15.56,0,0,1,323.6,306.3Z" transform="translate(-77 -53.06)"/><path class="cls-127" d="M324.3,304.8,165.39,213.29a15.16,15.16,0,0,1,0-26.25L290.65,114.2a15.17,15.17,0,0,1,15.21,0l158.9,91.5a15.17,15.17,0,0,1,0,26.26L339.5,304.78A15.18,15.18,0,0,1,324.3,304.8Z" transform="translate(-77 -53.06)"/><path class="cls-128" d="M325,303.29l-157.86-90.9a14.78,14.78,0,0,1,0-25.58l123-71.52a14.81,14.81,0,0,1,14.81,0l157.87,90.91a14.78,14.78,0,0,1,0,25.57l-123,71.52A14.76,14.76,0,0,1,325,303.29Z" transform="translate(-77 -53.06)"/><path class="cls-129" d="M325.69,301.78l-156.83-90.3a14.38,14.38,0,0,1,0-24.89l120.72-70.2a14.38,14.38,0,0,1,14.41,0l156.83,90.3a14.38,14.38,0,0,1,0,24.89L340.1,301.77A14.38,14.38,0,0,1,325.69,301.78Z" transform="translate(-77 -53.06)"/><path class="cls-130" d="M326.38,300.28,170.6,210.58a14,14,0,0,1,0-24.21L289,117.49a14,14,0,0,1,14,0l155.78,89.7a14,14,0,0,1,0,24.21L340.4,300.26A14,14,0,0,1,326.38,300.28Z" transform="translate(-77 -53.06)"/><path class="cls-131" d="M327.08,298.77l-154.74-89.1a13.59,13.59,0,0,1,0-23.52l116.15-67.56a13.56,13.56,0,0,1,13.62,0l154.74,89.1a13.59,13.59,0,0,1,0,23.52L340.7,298.75A13.56,13.56,0,0,1,327.08,298.77Z" transform="translate(-77 -53.06)"/><path class="cls-132" d="M327.77,297.27l-153.7-88.5a13.2,13.2,0,0,1,0-22.84L287.9,119.69a13.17,13.17,0,0,1,13.23,0l153.7,88.49a13.2,13.2,0,0,1,0,22.84L341,297.25A13.22,13.22,0,0,1,327.77,297.27Z" transform="translate(-77 -53.06)"/><path class="cls-133" d="M328.46,295.76l-152.65-87.9a12.8,12.8,0,0,1,0-22.15l111.57-64.93a12.79,12.79,0,0,1,12.83,0l152.66,87.89a12.8,12.8,0,0,1,0,22.16L341.3,295.74A12.81,12.81,0,0,1,328.46,295.76Z" transform="translate(-77 -53.06)"/><path class="cls-134" d="M329.16,294.25,177.54,207a12.41,12.41,0,0,1,0-21.47L286.8,121.88a12.43,12.43,0,0,1,12.44,0l151.61,87.3a12.4,12.4,0,0,1,0,21.47L341.6,294.23A12.38,12.38,0,0,1,329.16,294.25Z" transform="translate(-77 -53.06)"/><path class="cls-135" d="M329.85,292.75l-150.57-86.7a12,12,0,0,1,0-20.78l107-62.29a12,12,0,0,1,12,0l150.57,86.69a12,12,0,0,1,0,20.79l-107,62.29A12,12,0,0,1,329.85,292.75Z" transform="translate(-77 -53.06)"/><path class="cls-136" d="M330.55,291.24,181,205.15A11.62,11.62,0,0,1,181,185l104.71-61a11.63,11.63,0,0,1,11.65,0l149.53,86.09a11.62,11.62,0,0,1,0,20.11l-104.71,61A11.61,11.61,0,0,1,330.55,291.24Z" transform="translate(-77 -53.06)"/><path class="cls-137" d="M331.24,289.73,182.75,204.24a11.22,11.22,0,0,1,0-19.42l102.43-59.64a11.2,11.2,0,0,1,11.25,0l148.49,85.49a11.22,11.22,0,0,1,0,19.42L342.5,289.72A11.22,11.22,0,0,1,331.24,289.73Z" transform="translate(-77 -53.06)"/><polygon class="cls-166" points="256.07 236.15 69.63 128.75 212.16 46.1 398.6 153.5 256.07 236.15"/><polygon class="cls-142" points="256.07 234.8 71.57 127.63 69.63 128.75 256.07 236.15 395.85 154.65 393.91 154.43 256.07 234.8"/><path class="cls-167" d="M304.36,185a49.86,49.86,0,0,0,11.38-4.67c9.69-5.6,13.65-13.27,11.86-20.54-3.1-11.47-20.31-20.24-41.06-20.2-2.24,0-4.44.11-6.58.32l-3-10a95.51,95.51,0,0,1,30.39,1.48A80.49,80.49,0,0,1,321,135.46h0l.41.17c.7.29,1.39.58,2.07.89s1.08.49,1.61.74l.12.06c6.64,3.18,11.55,6.88,15.33,11.6,13.67,17,.8,37.28-28.75,45.28Z" transform="translate(-77 -53.06)"/><path class="cls-168" d="M241.75,185.36C232.49,179,228,171.85,228.08,163.5l16.63,0c0,.08,0,.15,0,.23,0,5.9,3.65,11.31,9.76,15.49,7.63,5.22,19,8.53,31.81,8.51a66.19,66.19,0,0,0,21.5-3.49l8.57,8.61C291.26,201.21,260.27,198.11,241.75,185.36Z" transform="translate(-77 -53.06)"/><path class="cls-169" d="M244.71,163.47l-16.63,0c.09-16.69,20.41-30.65,48.89-33.6l3,10C260.19,141.7,245,151.59,244.71,163.47Z" transform="translate(-77 -53.06)"/><path class="cls-170" d="M198.28,194.78,209,188.56c.86-.49.86-1.29,0-1.79l-17.2-9.93a3.44,3.44,0,0,0-3.11,0L178,183a1,1,0,0,0,0,1.8l7.11,4.1-1.52.88-1-.6a3.48,3.48,0,0,0-3.17,0l-.27.15,8.23,4.76.27-.16c.88-.5.87-1.32,0-1.83l-1-.6,1.52-.87,7.1,4.1A3.46,3.46,0,0,0,198.28,194.78ZM180,184.17,190.67,178,207,187.43l-10.69,6.18Z" transform="translate(-77 -53.06)"/><path class="cls-171" d="M271.23,222l-8.83-5.1a3.44,3.44,0,0,0-3.11,0L243,226.32a1,1,0,0,0,0,1.8l8.83,5.1a3.41,3.41,0,0,0,3.11,0l16.3-9.41C272.1,223.32,272.1,222.51,271.23,222Zm-16.66,9.59-8.77-5.06,15.05-8.69,8.77,5.06Z" transform="translate(-77 -53.06)"/><path class="cls-172" d="M241.05,207.32l-18-10.39a3.46,3.46,0,0,0-3.12,0l-11.15,6.44c-.86.5-.85,1.3,0,1.8l18,10.39a3.44,3.44,0,0,0,3.11,0l11.16-6.44A1,1,0,0,0,241.05,207.32Zm-13.51,6.84-16.34-9.43,11.09-6.41,16.34,9.44Z" transform="translate(-77 -53.06)"/><polygon class="cls-173" points="126.54 137.03 134.57 132.39 131.34 130.52 123.3 135.16 120.84 133.74 119.58 139.18 129 138.45 126.54 137.03"/><polygon class="cls-173" points="159.5 152.48 151.47 157.12 154.71 158.99 162.74 154.35 165.2 155.77 166.46 150.33 157.04 151.06 159.5 152.48"/><polygon class="cls-173" points="186.91 169.29 178.88 173.93 182.12 175.79 190.15 171.16 192.61 172.57 193.87 167.14 184.46 167.87 186.91 169.29"/><polygon class="cls-174" points="313.95 123.94 320.12 120.38 313.99 116.84 307.82 120.41 313.95 123.94"/><polygon class="cls-174" points="302.36 130.63 308.53 127.07 302.4 123.53 296.23 127.09 302.36 130.63"/><polygon class="cls-174" points="290.78 137.32 296.94 133.76 290.81 130.22 284.65 133.78 290.78 137.32"/><polygon class="cls-175" points="279.19 144.01 285.36 140.45 279.23 136.91 273.06 140.47 279.19 144.01"/><polygon class="cls-175" points="267.6 150.7 273.77 147.14 267.64 143.6 261.47 147.16 267.6 150.7"/><polygon class="cls-175" points="256.02 157.39 262.19 153.83 256.06 150.29 249.89 153.85 256.02 157.39"/><polygon class="cls-174" points="244.43 164.08 250.6 160.52 244.47 156.98 238.3 160.54 244.43 164.08"/><polygon class="cls-175" points="232.84 170.77 239.01 167.21 232.88 163.67 226.72 167.23 232.84 170.77"/><polygon class="cls-174" points="324.9 130.27 331.07 126.7 324.94 123.17 318.77 126.73 324.9 130.27"/><polygon class="cls-175" points="313.31 136.96 319.48 133.39 313.35 129.85 307.18 133.42 313.31 136.96"/><polygon class="cls-176" points="301.73 143.65 307.89 140.08 301.76 136.54 295.6 140.11 301.73 143.65"/><polygon class="cls-175" points="290.14 150.33 296.31 146.77 290.18 143.23 284.01 146.79 290.14 150.33"/><polygon class="cls-176" points="278.55 157.02 284.72 153.46 278.59 149.92 272.43 153.49 278.55 157.02"/><polygon class="cls-174" points="266.97 163.71 273.14 160.15 267.01 156.61 260.84 160.17 266.97 163.71"/><polygon class="cls-175" points="255.38 170.4 261.55 166.84 255.42 163.3 249.25 166.86 255.38 170.4"/><polygon class="cls-175" points="243.79 177.09 249.96 173.53 243.83 169.99 237.67 173.55 243.79 177.09"/><polygon class="cls-175" points="335.85 136.59 342.02 133.03 335.89 129.49 329.72 133.05 335.85 136.59"/><polygon class="cls-174" points="324.26 143.28 330.43 139.72 324.3 136.18 318.13 139.74 324.26 143.28"/><polygon class="cls-174" points="312.68 149.97 318.85 146.41 312.72 142.87 306.55 146.43 312.68 149.97"/><polygon class="cls-174" points="301.09 156.66 307.26 153.09 301.13 149.56 294.96 153.12 301.09 156.66"/><polygon class="cls-175" points="289.5 163.35 295.67 159.78 289.54 156.25 283.38 159.81 289.5 163.35"/><polygon class="cls-174" points="277.92 170.03 284.09 166.47 277.96 162.94 271.79 166.5 277.92 170.03"/><polygon class="cls-175" points="266.33 176.72 272.5 173.16 266.37 169.63 260.2 173.19 266.33 176.72"/><polygon class="cls-174" points="254.75 183.41 260.91 179.85 254.78 176.31 248.62 179.88 254.75 183.41"/><polygon class="cls-174" points="346.8 142.91 352.97 139.35 346.84 135.81 340.67 139.37 346.8 142.91"/><polygon class="cls-175" points="335.21 149.6 341.38 146.04 335.25 142.5 329.08 146.06 335.21 149.6"/><polygon class="cls-175" points="323.63 156.29 329.8 152.73 323.67 149.19 317.5 152.75 323.63 156.29"/><polygon class="cls-174" points="312.04 162.98 318.21 159.42 312.08 155.88 305.91 159.44 312.04 162.98"/><polygon class="cls-174" points="300.46 169.67 306.62 166.11 300.49 162.57 294.33 166.13 300.46 169.67"/><polygon class="cls-174" points="288.87 176.36 295.04 172.8 288.91 169.26 282.74 172.82 288.87 176.36"/><polygon class="cls-176" points="277.28 183.05 283.45 179.49 277.32 175.95 271.15 179.51 277.28 183.05"/><polygon class="cls-176" points="265.7 189.74 271.86 186.18 265.74 182.64 259.57 186.2 265.7 189.74"/><polygon class="cls-175" points="357.75 149.23 363.92 145.67 357.79 142.13 351.62 145.69 357.75 149.23"/><polygon class="cls-174" points="346.17 155.92 352.33 152.36 346.2 148.82 340.04 152.38 346.17 155.92"/><polygon class="cls-176" points="334.58 162.61 340.75 159.05 334.62 155.51 328.45 159.07 334.58 162.61"/><polygon class="cls-176" points="322.99 169.3 329.16 165.74 323.03 162.2 316.86 165.76 322.99 169.3"/><polygon class="cls-175" points="311.41 175.99 317.57 172.43 311.44 168.89 305.28 172.45 311.41 175.99"/><polygon class="cls-175" points="299.82 182.68 305.99 179.12 299.86 175.58 293.69 179.14 299.82 182.68"/><polygon class="cls-175" points="288.23 189.37 294.4 185.81 288.27 182.27 282.1 185.83 288.23 189.37"/><polygon class="cls-175" points="276.65 196.06 282.81 192.5 276.69 188.96 270.52 192.52 276.65 196.06"/><polygon class="cls-174" points="368.7 155.56 374.87 151.99 368.74 148.46 362.57 152.02 368.7 155.56"/><polygon class="cls-174" points="357.12 162.25 363.28 158.68 357.15 155.15 350.99 158.71 357.12 162.25"/><polygon class="cls-175" points="345.53 168.93 351.7 165.37 345.57 161.83 339.4 165.4 345.53 168.93"/><polygon class="cls-174" points="333.94 175.62 340.11 172.06 333.98 168.52 327.81 172.09 333.94 175.62"/><polygon class="cls-175" points="322.36 182.31 328.52 178.75 322.39 175.21 316.23 178.77 322.36 182.31"/><polygon class="cls-175" points="310.77 189 316.94 185.44 310.81 181.9 304.64 185.46 310.77 189"/><polygon class="cls-174" points="299.18 195.69 305.35 192.13 299.22 188.59 293.06 192.15 299.18 195.69"/><polygon class="cls-177" points="287.6 202.38 293.77 198.82 287.64 195.28 281.47 198.84 287.6 202.38"/><polygon class="cls-143" points="118.56 114.55 282.44 209.17 283.31 208.67 119.42 114.05 118.56 114.55"/><polygon class="cls-174" points="200.81 193.84 221.89 181.03 215.76 177.49 194.69 190.3 200.81 193.84"/><polygon class="cls-178" points="211.49 200.24 228.57 189.76 222.44 186.22 205.36 196.7 211.49 200.24"/><polygon class="cls-179" points="222.69 206.64 235.5 198.83 229.37 195.29 216.56 203.1 222.69 206.64"/><polygon class="cls-180" points="233.63 212.78 242.97 206.57 236.84 203.03 227.5 209.24 233.63 212.78"/><polygon class="cls-181" points="244.3 219.71 250.44 215.91 244.31 212.37 238.17 216.17 244.3 219.71"/><polygon class="cls-182" points="254.97 225.85 258.44 223.64 252.32 220.1 248.84 222.31 254.97 225.85"/><path class="cls-173" d="M297,169.75a10.13,10.13,0,0,0,1.16-.77l4.92.69.27-.27a9.26,9.26,0,0,0,2-2.78l.14-.31-4.31-1.53a5.14,5.14,0,0,0,0-2l4.29-1.52-.14-.3a9.33,9.33,0,0,0-2-2.8l-.27-.27-4.92.67a12.41,12.41,0,0,0-2.49-1.44l1.16-2.84-.47-.16a28.77,28.77,0,0,0-4.84-1.16l-.53-.08-2.63,2.48a25.7,25.7,0,0,0-3.51,0l-2.66-2.49-.53.08a28.31,28.31,0,0,0-4.82,1.14l-.47.16,1.19,2.84a12.43,12.43,0,0,0-1.32.67,11,11,0,0,0-1.16.76l-4.92-.69-.27.27a9.3,9.3,0,0,0-2,2.79l-.14.3L272,162.7a5,5,0,0,0,0,2l-4.3,1.51.14.31a9.6,9.6,0,0,0,2,2.79l.28.27,4.91-.67a11.53,11.53,0,0,0,2.49,1.44l-1.16,2.84.47.16a28.77,28.77,0,0,0,4.84,1.16l.53.08,2.63-2.48a25.7,25.7,0,0,0,3.51,0l2.66,2.49.53-.08a29.29,29.29,0,0,0,4.82-1.14l.47-.16-1.19-2.84A14.64,14.64,0,0,0,297,169.75Zm-1.81,3.08a26.26,26.26,0,0,1-3.47.83l-2.59-2.43-.48,0a21.81,21.81,0,0,1-4,0l-.48,0-2.56,2.42a26.41,26.41,0,0,1-3.48-.84L279.2,170l-.4-.17a11.31,11.31,0,0,1-2.87-1.65l-.29-.23-4.78.65a8.68,8.68,0,0,1-1.45-2l4.19-1.48-.07-.28a4.39,4.39,0,0,1,0-2.33l.08-.28-4.21-1.5a9,9,0,0,1,1.42-2l4.8.68.28-.23a11.7,11.7,0,0,1,1.31-.89,14.08,14.08,0,0,1,1.55-.76l.39-.16L278,154.64a25.74,25.74,0,0,1,3.46-.82l2.59,2.43.48-.05a23.7,23.7,0,0,1,4,0l.48,0,2.56-2.42a26.41,26.41,0,0,1,3.48.83l-1.14,2.76.4.17a11.63,11.63,0,0,1,2.87,1.66l.29.23,4.78-.66a9,9,0,0,1,1.45,2l-4.19,1.47.08.28a4.53,4.53,0,0,1,0,2.34l-.07.28,4.2,1.49a8.53,8.53,0,0,1-1.42,2l-4.8-.67-.29.22a9.84,9.84,0,0,1-1.3.9,12.59,12.59,0,0,1-1.55.75l-.39.17ZM291,161.16a9.92,9.92,0,0,0-9,0c-2.47,1.42-2.45,3.74,0,5.18a9.92,9.92,0,0,0,9,0C293.52,164.91,293.5,162.59,291,161.16Zm-7.9,4.56c-1.9-1.1-1.91-2.88,0-4a7.62,7.62,0,0,1,6.88,0c1.9,1.1,1.91,2.88,0,4A7.62,7.62,0,0,1,283.13,165.72Z" transform="translate(-77 -53.06)"/><g class="cls-183"><path class="cls-145" d="M588.34,262.85l16.14,9.32a2.69,2.69,0,0,0,2.41,0c.66-.38.65-1,0-1.39l-16.14-9.32a2.69,2.69,0,0,0-2.41,0C587.67,261.84,587.67,262.46,588.34,262.85Zm14.49,10.27-16.14-9.32a2.66,2.66,0,0,0-2.41,0c-.66.38-.66,1,0,1.39l16.14,9.31a2.66,2.66,0,0,0,2.41,0A.73.73,0,0,0,602.83,273.12Zm-4.05,2.34-16.14-9.32a2.64,2.64,0,0,0-2.4,0,.73.73,0,0,0,0,1.39l16.14,9.32a2.66,2.66,0,0,0,2.41,0A.73.73,0,0,0,598.78,275.46Z" transform="translate(-77 -53.06)"/></g><path class="cls-139" d="M466.32,283.58l31.88-18.41-10-5.79-31.89,18.41ZM525,264.83l-10-5.8-45.58,26.31,10.05,5.8ZM453.23,276l18.19-10.51-10-5.8-18.19,10.51ZM524,270.26l-44.35,25.6L435,270.1l40.82-23.57,27.35,15.79,3.53-2-30.9-17.84-47.88,27.64L479.66,300l47.88-27.64Z" transform="translate(-77 -53.06)"/><path class="cls-126" d="M455.66,269.49l-160-92.11a15.56,15.56,0,0,1,0-26.94L423.26,76.28a15.56,15.56,0,0,1,15.6,0l159.95,92.11a15.56,15.56,0,0,1,0,26.94L471.26,269.47A15.56,15.56,0,0,1,455.66,269.49Z" transform="translate(-77 -53.06)"/><path class="cls-127" d="M456.35,268l-158.9-91.5a15.17,15.17,0,0,1,0-26.26l125.3-72.84a15.15,15.15,0,0,1,15.2,0l158.91,91.5a15.17,15.17,0,0,1,0,26.26L471.56,268A15.17,15.17,0,0,1,456.35,268Z" transform="translate(-77 -53.06)"/><path class="cls-128" d="M457.05,266.48,299.18,175.57a14.78,14.78,0,0,1,0-25.57l123-71.52a14.76,14.76,0,0,1,14.81,0l157.86,90.9a14.77,14.77,0,0,1,0,25.57l-123,71.53A14.81,14.81,0,0,1,457.05,266.48Z" transform="translate(-77 -53.06)"/><path class="cls-129" d="M457.74,265l-156.82-90.3a14.38,14.38,0,0,1,0-24.89l120.72-70.2a14.36,14.36,0,0,1,14.41,0l156.82,90.3a14.38,14.38,0,0,1,0,24.89L472.16,265A14.4,14.4,0,0,1,457.74,265Z" transform="translate(-77 -53.06)"/><path class="cls-130" d="M458.44,263.46l-155.79-89.7a14,14,0,0,1,0-24.2L421.06,80.67a14,14,0,0,1,14,0l155.79,89.69a14,14,0,0,1,0,24.21L472.46,263.44A14,14,0,0,1,458.44,263.46Z" transform="translate(-77 -53.06)"/><path class="cls-131" d="M459.13,262l-154.74-89.1a13.59,13.59,0,0,1,0-23.52L420.5,81.77a13.63,13.63,0,0,1,13.63,0l154.74,89.1a13.59,13.59,0,0,1,0,23.52L472.75,261.94A13.61,13.61,0,0,1,459.13,262Z" transform="translate(-77 -53.06)"/><path class="cls-132" d="M459.83,260.45,306.13,172a13.2,13.2,0,0,1,0-22.84L420,82.87a13.2,13.2,0,0,1,13.23,0l153.7,88.5a13.2,13.2,0,0,1,0,22.84L473.05,260.43A13.18,13.18,0,0,1,459.83,260.45Z" transform="translate(-77 -53.06)"/><path class="cls-133" d="M460.52,258.94,307.86,171.05a12.8,12.8,0,0,1,0-22.16L419.4,84a12.81,12.81,0,0,1,12.84,0l152.65,87.9a12.8,12.8,0,0,1,0,22.15L473.35,258.93A12.79,12.79,0,0,1,460.52,258.94Z" transform="translate(-77 -53.06)"/><path class="cls-134" d="M461.21,257.44,309.6,170.14a12.4,12.4,0,0,1,0-21.47l109.28-63.6a12.4,12.4,0,0,1,12.44,0l151.62,87.29a12.41,12.41,0,0,1,0,21.47L473.65,257.42A12.43,12.43,0,0,1,461.21,257.44Z" transform="translate(-77 -53.06)"/><path class="cls-135" d="M461.91,255.93,311.34,169.24a12,12,0,0,1,0-20.79l107-62.29a12,12,0,0,1,12.05,0l150.57,86.69a12,12,0,0,1,0,20.79L474,255.91A12,12,0,0,1,461.91,255.93Z" transform="translate(-77 -53.06)"/><path class="cls-136" d="M462.6,254.42,313.07,168.33a11.61,11.61,0,0,1,0-20.1l104.71-61a11.63,11.63,0,0,1,11.65,0l149.53,86.1a11.61,11.61,0,0,1,0,20.1l-104.71,61A11.61,11.61,0,0,1,462.6,254.42Z" transform="translate(-77 -53.06)"/><path class="cls-137" d="M463.3,252.92,314.81,167.43a11.22,11.22,0,0,1,0-19.42L417.2,88.36a11.24,11.24,0,0,1,11.26,0L577,173.83a11.23,11.23,0,0,1,0,19.42L474.55,252.9A11.22,11.22,0,0,1,463.3,252.92Z" transform="translate(-77 -53.06)"/><polygon class="cls-184" points="388.12 199.33 201.69 91.93 344.21 9.29 530.65 116.69 388.12 199.33"/><path class="cls-143" d="M416.53,83.83l-.32-.19-99,57.18L471.62,230l.32.18L571,173Zm3.64,41L459,147.22l-31.7,18.3-38.82-22.41Zm-33,17.56-35.06-20.25,31.69-18.3,35.07,20.25Zm73.08,4.11-38.82-22.41,31.11-18,38.82,22.41Zm32.39-17.22,38.82,22.41-31.11,18-38.82-22.41Zm-66.65,37-30.84,17.8.27.47-39.36-22.72,31.11-18Zm1.28.74,38.82,22.41-30.84,17.8.27.47L396.18,185Zm1.28-.74,31.7-18.3,38.82,22.41-31.7,18.3Zm71.8,4.85L536,191.7,504.33,210l-35.66-20.59Zm1.28-.74,31.11-18L568.41,173l-31.1,18Zm-50.37-65-31.11,18L385.1,103.08l31.11-18ZM350.84,122.86l35.07,20.25-30.84,17.8.27.47-35.6-20.56Zm85.44,85.25,31.11-18,35.66,20.59-31.11,18Z" transform="translate(-77 -53.06)"/><g class="cls-185"><path class="cls-186" d="M352.22,121.78c3.56,2.06,35-3.12,44.32,2.24,9.09,5.25-7.55,24.21,3.91,30.82S479.73,141,490,146.93s-9.09,29.43,1,35.25,28.17,1.52,33.89,4.83-4.67,9.32-1.31,11.25l-51.63,29.81L320.62,140.71Z" transform="translate(-77 -53.06)"/></g><path class="cls-187" d="M523,199.3a2.39,2.39,0,0,1-1.23-1.59c-.31-1.4.67-2.79,1.8-4.4.94-1.33,2.1-3,1.87-4,0-.17-.14-.66-1.13-1.23-2.18-1.26-7-1.28-12-1.3-7.43,0-15.85-.06-21.87-3.54-5.85-3.37-3.38-11.25-1-18.87,2.24-7.13,4.35-13.87,0-16.37-4.62-2.67-23.58.76-41.91,4.06-21.28,3.84-41.38,7.47-47.64,3.85-6.85-4-4.87-11.6-3.13-18.34,1.69-6.51,2.47-10.6-.78-12.48-5.43-3.13-19.71-2.42-30.14-1.9-8.22.41-12.59.58-14.18-.34l1.2-2.08c1.06.61,7.33.3,12.86,0,11.33-.56,25.42-1.26,31.46,2.22,5.07,2.93,3.46,9.15,1.9,15.16-1.67,6.49-3.26,12.62,2,15.66,5.5,3.18,27-.71,46-4.13,20.47-3.69,38.15-6.88,43.53-3.78,6,3.46,3.49,11.45,1.08,19.17-2.2,7-4.28,13.66-.1,16.08,5.47,3.15,13.55,3.18,20.67,3.21,5.63,0,10.49,0,13.22,1.62a4.38,4.38,0,0,1,2.28,2.79c.46,2.09-1,4.13-2.26,5.93a8,8,0,0,0-1.42,2.51Z" transform="translate(-77 -53.06)"/><path class="cls-188" d="M495.7,146.16c0,1.14-1.59,2.07-3.56,2.06s-3.59-.93-3.59-2.07,1.59-2.06,3.56-2.06S495.7,145,495.7,146.16Z" transform="translate(-77 -53.06)"/><path class="cls-126" d="M495.21,150.31,483.32,130,430.7,99.47a10.73,10.73,0,0,1,0-18.57L455,66.61a10.7,10.7,0,0,1,10.75,0l39.09,22.62,39.08,22.63a10.73,10.73,0,0,1,0,18.57L506,150.3A10.7,10.7,0,0,1,495.21,150.31Z" transform="translate(-77 -53.06)"/><path class="cls-127" d="M431.88,80.75l9.19-5.43c.22-.13,9-5.15,9.24-5l5.36-2.72c3-1.75,7.41-1.38,10.43.37l31.08,18,7.11,4.11,38.19,22.11.59.36a10.46,10.46,0,0,1-.52,17.76l-9.92,5.26c-.22.12-9.74,5-10,4.85l-17.06,7.72c-3,1.75-7.38,1.4-10.4-.35l-12.12-19.25-2.41-1.4L431.9,98.85A10.46,10.46,0,0,1,431.88,80.75Z" transform="translate(-77 -53.06)"/><path class="cls-128" d="M433.07,80.6l9-5.32c.43-.25,8.65-4.77,9.08-4.52l5.23-2.21c2.72-1.58,7.4-.82,10.12.76l30.35,17.57,6.94,4,37.3,21.59.57.35a10.19,10.19,0,0,1-.46,17.32l-9.62,5.16c-.44.26-9.31,4.62-9.74,4.37l-16.57,6.25c-2.72,1.58-7.32.86-10-.71l-12.35-18.16-2.35-1.36L433.1,98.23A10.19,10.19,0,0,1,433.07,80.6Z" transform="translate(-77 -53.06)"/><path class="cls-129" d="M434.27,80.45,443,75.24c.65-.38,8.28-4.39,8.94-4l5.1-1.7c2.42-1.4,7.38-.26,9.8,1.14l29.62,17.15,6.77,3.92,36.4,21.08.57.34a9.93,9.93,0,0,1-.41,16.89l-9.33,5.06c-.65.38-8.86,4.26-9.52,3.88l-16.06,4.78c-2.42,1.4-7.28.32-9.7-1.08l-12.57-17.07-2.29-1.32-46-26.69A9.91,9.91,0,0,1,434.27,80.45Z" transform="translate(-77 -53.06)"/><path class="cls-130" d="M435.47,80.29,444,75.2c.87-.5,7.92-4,8.79-3.51l5-1.19c2.12-1.23,7.37.29,9.48,1.52l28.89,16.72,6.61,3.83,35.5,20.55.55.34a9.65,9.65,0,0,1-.35,16.45l-9,5c-.87.51-8.43,3.9-9.3,3.4l-15.57,3.31c-2.11,1.22-7.22-.22-9.34-1.44l-12.81-16-2.21-1.29L435.49,97A9.64,9.64,0,0,1,435.47,80.29Z" transform="translate(-77 -53.06)"/><path class="cls-131" d="M436.66,80.14l8.3-5c1.09-.64,7.55-3.65,8.64-3l4.86-.68c1.81-1.06,7.35.85,9.17,1.9l28.15,16.31,6.44,3.72,34.61,20,.54.33a9.38,9.38,0,0,1-.3,16l-8.73,4.87c-1.09.63-8,3.54-9.08,2.91l-15.08,1.83c-1.81,1.06-7.17-.75-9-1.8l-13-14.89L480,121.46l-43.32-25.1A9.37,9.37,0,0,1,436.66,80.14Z" transform="translate(-77 -53.06)"/><path class="cls-132" d="M437.86,80l8.07-4.86c1.31-.76,7.19-3.27,8.5-2.52l4.73-.17c1.51-.88,7.33,1.41,8.85,2.29l27.43,15.88,6.26,3.63,33.72,19.52.53.32a9.11,9.11,0,0,1-.25,15.57l-8.44,4.77c-1.3.76-7.55,3.19-8.85,2.43l-14.58.36c-1.51.88-7.12-1.29-8.64-2.16l-13.26-13.8L479.84,120l-42-24.31A9.1,9.1,0,0,1,437.86,80Z" transform="translate(-77 -53.06)"/><path class="cls-133" d="M439.06,79.84l7.85-4.75c1.52-.89,6.82-2.9,8.34-2l4.61.34c1.21-.7,7.32,2,8.53,2.67l26.7,15.46,6.09,3.53,32.82,19,.52.31a8.84,8.84,0,0,1-.19,15.13l-8.14,4.68c-1.52.89-7.11,2.83-8.64,2L503.47,135c-1.21.7-7.07-1.83-8.28-2.52L481.7,119.8l-2-1.17L439.08,95.11A8.82,8.82,0,0,1,439.06,79.84Z" transform="translate(-77 -53.06)"/><path class="cls-134" d="M440.25,79.68l7.63-4.63c1.74-1,6.45-2.52,8.2-1.51l4.48.84c.9-.52,7.3,2.53,8.21,3.06l26,15,5.93,3.44,31.92,18.48.51.3a8.58,8.58,0,0,1-.14,14.7L525.12,134c-1.75,1-6.67,2.47-8.42,1.47l-13.58-2.59c-.91.53-7-2.36-7.93-2.89l-13.73-11.62-1.95-1.13L440.28,94.48A8.55,8.55,0,0,1,440.25,79.68Z" transform="translate(-77 -53.06)"/><path class="cls-135" d="M441.45,79.53l7.4-4.52c2-1.14,6.09-2.15,8-1l4.35,1.35c.61-.35,7.3,3.09,7.9,3.44l25.24,14.62,5.76,3.33,31,18,.49.29a8.3,8.3,0,0,1-.08,14.26L524,133.75c-2,1.14-6.23,2.11-8.19,1l-13.09-4.06c-.6.35-7-2.9-7.57-3.25l-14-10.53-1.89-1.1L441.47,93.86A8.28,8.28,0,0,1,441.45,79.53Z" transform="translate(-77 -53.06)"/><path class="cls-136" d="M442.65,79.38,449.82,75c2.18-1.26,5.72-1.77,7.91-.51L462,76.33c.3-.18,7.28,3.64,7.58,3.82L494,94.34l5.59,3.24L529.77,115l.48.28a8,8,0,0,1,0,13.83L523,133.52c-2.18,1.27-5.79,1.76-8,.5l-12.6-5.53c-.3.17-6.91-3.44-7.22-3.62L481,115.44l-1.83-1.06-36.5-21.14A8,8,0,0,1,442.65,79.38Z" transform="translate(-77 -53.06)"/><path class="cls-137" d="M514.14,133.31,479,113,443.87,92.61a7.73,7.73,0,0,1,0-13.38l7-4.3a7.77,7.77,0,0,1,7.76,0l35.14,20.35,35.14,20.35a7.74,7.74,0,0,1,0,13.39l-7,4.29A7.74,7.74,0,0,1,514.14,133.31Z" transform="translate(-77 -53.06)"/><path class="cls-189" d="M497.34,142.7l-6-23.2L427.61,82.61C420,78.22,421,70.54,429.74,65.47l8.31-4.8c8.79-5.07,22.08-5.62,29.68-1.23l73.13,42.33c7.61,4.39,6.66,12.06-2.13,17.14Z" transform="translate(-77 -53.06)"/><path class="cls-173" d="M529.61,106.64l-13.43-7.75-3.13,1.81,13.42,7.75Zm-12.69,1-16-9.25-3.13,1.81,16,9.25ZM500.54,89.86,483.08,79.78l-3.14,1.81,17.47,10.08ZM513.6,97.4l-10.47-6L500,93.16l10.46,6Zm-15.28-.47-8.41-4.85-3.13,1.81,8.41,4.85ZM476.83,84.36l-3.13,1.81,10.49,6.22,3.14-1.81ZM464,92l17.47,10.08,3.13-1.81L467.13,90.23Zm20.06,11.58,3.88,2.24,3.13-1.81-3.88-2.24Z" transform="translate(-77 -53.06)"/><path class="cls-173" d="M452,81.55l14-8.11-4.42-2.55L447.59,79Zm25.84-8.26-4.42-2.55L453.36,82.33l4.42,2.55Zm-31.61,4.94,8-4.63L449.84,71l-8,4.63Zm31.17-2.55L457.89,87,438.23,75.61l18-10.38,12.05,7,1.55-.9L456.2,63.43,435.11,75.61,457.9,88.76,479,76.59Z" transform="translate(-77 -53.06)"/><polygon class="cls-190" points="388.12 197.99 203.63 90.81 201.69 91.93 388.12 199.33 527.91 117.83 525.97 117.61 388.12 197.99"/></g></g></svg>