<svg xmlns="http://www.w3.org/2000/svg" viewBox="0 0 457.65 440.7"><defs><style>.cls-1,.cls-4{fill:#f5f5f5;}.cls-2,.cls-3{fill:#e0e0e0;}.cls-3,.cls-4,.cls-5{fill-rule:evenodd;}.cls-5,.cls-6{fill:#ebebeb;}.cls-7{fill:#fafafa;}.cls-8{fill:#fff;}.cls-9{fill:#e8505b;}.cls-10{fill:#263238;}.cls-11{fill:#455a64;}.cls-12{opacity:0.3;}.cls-13{opacity:0.2;}.cls-14{fill:#ffbe9d;}.cls-15{fill:#eb996e;}</style></defs><title>ux2</title><g id="Background_Complete" data-name="Background Complete"><path class="cls-1" d="M292.29,459.71c-1.23-1.06-4-4.39-1.85-8.27.77-1.42,2.41-2.13,3.9-2.75a16,16,0,0,0,4.29-2.22c2.32-2,3-5.26,4.5-7.9,1.77-3,5.07-5.29,8.56-5.13,4,.18,7.33,3.45,8.84,7.17s1.57,7.85,1.6,11.87c0,2.22-.08,4.73-1.72,6.23s-3.76,1.4-5.8,1.34l-21.84-.67" transform="translate(-24.92 -26.51)"/><path class="cls-2" d="M334.06,399.65H276.63L287,461.34a6.87,6.87,0,0,0,4.91,5.49l.2.06c.17,0,.33.1.51.13a6.45,6.45,0,0,0,1.17.13v.06l.28,0h25.59a7.17,7.17,0,0,0,1.41-.14,6.92,6.92,0,0,0,5.81-6l5-42.51.22-1.69h0L334,400ZM323.23,439h-5.9l.6-17.9h6.83Zm2.1-17.9H331l-2.1,17.9H323.8Zm-16.84,37.75-.36-15.55h8.49l-.52,15.55Zm-9.18-15.55h8.25l.36,15.55h-7.4Zm.64,15.55H293c-.66-4.2-1.52-9.66-2.44-15.55h8.14ZM299,439l-1.39-17.9h9.46l.41,17.9Zm9,0-.41-17.9h9.74l-.6,17.9Zm-.51-22.2-.38-16.58h10.91l-.55,16.58Zm-.57,0h-9.7L296,400.22h10.6Zm-10.27,0H286.42c-.36-2.29-.7-4.45-1-6.4-1.07-6.71-1.47-9.23-1.69-10.18h11.68Zm.34,4.3,1.39,17.9h-8.49c-.28-1.81-.57-3.65-.86-5.49-.67-4.23-1.33-8.45-2-12.41ZM289.35,439H283.8l-3-17.9h5.73C287.4,426.63,288.37,432.79,289.35,439Zm.67,4.3c.85,5.38,1.68,10.68,2.44,15.55h-5.33l-2.61-15.55Zm26.65,15.55.52-15.55h5.67l-1.33,15.55Zm1.4-42.05.55-16.58h7.92l-1.42,16.58Zm-34.9-16.58c.22,1.2,1.27,7.73,2.68,16.58h-5.77l-2.78-16.58Zm43.37,58.63H322.1l1.33-15.55h4.94Zm4.93-42.05h-5.78l1.42-16.58h6.31Z" transform="translate(-24.92 -26.51)"/><path class="cls-3" d="M217.88,126a33.56,33.56,0,0,1-.38,8.91l6.54,5-5.76,12.41-8.08-1.74a33.69,33.69,0,0,1-6.56,6l1.05,8.19-12.84,4.7-4.49-6.94a33.14,33.14,0,0,1-8.91-.38l-5,6.55L161,163l1.74-8.09a33.36,33.36,0,0,1-6-6.56l-8.2,1-4.7-12.84,6.94-4.49a33.56,33.56,0,0,1,.38-8.91l-6.55-5,5.77-12.41,8.08,1.74a34,34,0,0,1,6.56-6l-1-8.2,12.84-4.7,4.49,6.94a33.56,33.56,0,0,1,8.91.38l5.05-6.54L207.63,95l-1.74,8.08a33.64,33.64,0,0,1,6,6.56l8.2-1,4.7,12.84L217.88,126Zm-19.58-1.41a14.67,14.67,0,1,0-8.74,18.83A14.67,14.67,0,0,0,198.3,124.54Z" transform="translate(-24.92 -26.51)"/><path class="cls-4" d="M212.9,51.27a22.27,22.27,0,0,1-.25,5.89L217,60.5l-3.8,8.2-5.35-1.15a21.94,21.94,0,0,1-4.33,4l.69,5.42-8.49,3.1-3-4.58a22.27,22.27,0,0,1-5.89-.25l-3.34,4.32-8.2-3.81,1.15-5.34a22,22,0,0,1-4-4.34l-5.42.7-3.11-8.49,4.59-3a22.27,22.27,0,0,1,.25-5.89l-4.32-3.34,3.81-8.2L173.6,39a22,22,0,0,1,4.34-4l-.7-5.42,8.49-3.11,3,4.59a22.27,22.27,0,0,1,5.89.25L197.92,27l8.2,3.81L205,36.18a21.94,21.94,0,0,1,4,4.33l5.42-.69,3.11,8.49-4.59,3ZM200,50.34a9.7,9.7,0,1,0-5.78,12.44A9.69,9.69,0,0,0,200,50.34Z" transform="translate(-24.92 -26.51)"/><path class="cls-4" d="M271.35,149.83a17.56,17.56,0,0,1-.2,4.64l3.41,2.63-3,6.47-4.21-.91a18,18,0,0,1-3.42,3.15l.55,4.27-6.7,2.45-2.33-3.62a17.61,17.61,0,0,1-4.65-.2l-2.63,3.41-6.46-3,.9-4.21a17.64,17.64,0,0,1-3.14-3.42l-4.28.55-2.44-6.7,3.61-2.33a17.61,17.61,0,0,1,.2-4.65l-3.41-2.63,3-6.46,4.21.9a17.64,17.64,0,0,1,3.42-3.14l-.54-4.28,6.69-2.44,2.34,3.61a17.56,17.56,0,0,1,4.64.2l2.63-3.41,6.47,3-.91,4.21a18,18,0,0,1,3.15,3.42l4.27-.54,2.45,6.69-3.62,2.34Zm-10.2-.74a7.65,7.65,0,1,0-4.56,9.81A7.65,7.65,0,0,0,261.15,149.09Z" transform="translate(-24.92 -26.51)"/><path class="cls-5" d="M265,95.91a20.12,20.12,0,0,1-.23,5.32l3.91,3-3.44,7.41-4.83-1a19.84,19.84,0,0,1-3.92,3.61l.63,4.89-7.67,2.81-2.67-4.15a20.09,20.09,0,0,1-5.32-.22l-3,3.9L231,118l1-4.82a20.07,20.07,0,0,1-3.6-3.92l-4.9.63-2.8-7.67,4.14-2.68a20.11,20.11,0,0,1,.23-5.32l-3.91-3,3.44-7.4,4.83,1a20.07,20.07,0,0,1,3.91-3.61l-.62-4.89,7.67-2.81,2.67,4.15a19.68,19.68,0,0,1,5.32.22l3-3.91,7.41,3.44-1,4.83a20.07,20.07,0,0,1,3.6,3.92l4.9-.63,2.8,7.67L265,95.91Zm-11.69-.84a8.76,8.76,0,1,0-5.22,11.23A8.76,8.76,0,0,0,253.32,95.07Z" transform="translate(-24.92 -26.51)"/><path class="cls-5" d="M83.46,225.06a20,20,0,0,1-.23,5.31l3.91,3L83.7,240.8l-4.83-1a20,20,0,0,1-3.91,3.6l.63,4.9-7.67,2.8-2.68-4.14a20.09,20.09,0,0,1-5.32-.23l-3,3.91-7.41-3.44,1-4.82a20.07,20.07,0,0,1-3.6-3.92l-4.9.63-2.8-7.67,4.14-2.68a20.09,20.09,0,0,1,.23-5.32l-3.91-3L43.13,213,48,214a19.79,19.79,0,0,1,3.92-3.6l-.63-4.9,7.67-2.8,2.67,4.14a20.09,20.09,0,0,1,5.32.23l3-3.91,7.41,3.44-1,4.83a20.07,20.07,0,0,1,3.6,3.92l4.9-.63,2.8,7.67-4.14,2.68Zm-11.69-.84a8.76,8.76,0,1,0-5.22,11.23A8.75,8.75,0,0,0,71.77,224.22Z" transform="translate(-24.92 -26.51)"/><polygon class="cls-6" points="393.49 58.36 401.19 82.72 395.61 82.72 393.15 74.32 393.49 58.36"/><rect class="cls-6" x="294.07" y="82.69" width="114.97" height="6.87"/><rect class="cls-6" x="310.09" y="88.06" width="5.56" height="10.55"/><rect class="cls-6" x="381.87" y="88.06" width="5.56" height="10.55"/><path class="cls-6" d="M322.89,77.35s-5.16,3.93-.22,9.12a.47.47,0,0,0,.33.14l45.08-.26s3.85-4.32.66-9.3Z" transform="translate(-24.92 -26.51)"/><path class="cls-2" d="M358.12,81.45s-5.62.09-12.54.09S333,81.5,333,81.45s5.62-.09,12.54-.09S358.12,81.4,358.12,81.45Z" transform="translate(-24.92 -26.51)"/><path class="cls-2" d="M351.11,83.08s-2.64.09-5.9.09-5.89,0-5.89-.09S342,83,345.21,83,351.11,83,351.11,83.08Z" transform="translate(-24.92 -26.51)"/><path class="cls-2" d="M362.73,86.2s.1-.51.24-1.35a18.44,18.44,0,0,0-.07-6.57c-.15-.83-.29-1.34-.26-1.35a1.52,1.52,0,0,1,.13.35,8.35,8.35,0,0,1,.26,1,16.5,16.5,0,0,1,.38,3.31,15.61,15.61,0,0,1-.32,3.31,8.78,8.78,0,0,1-.24,1A1.63,1.63,0,0,1,362.73,86.2Z" transform="translate(-24.92 -26.51)"/><path class="cls-2" d="M366.09,77a1.5,1.5,0,0,1,.2.33,3.69,3.69,0,0,1,.2.4c.07.16.16.34.23.55a9.48,9.48,0,0,1,.43,1.5,11,11,0,0,1,.2,1.89,11.09,11.09,0,0,1-.17,1.9,10.18,10.18,0,0,1-.4,1.51c-.07.21-.16.39-.22.55s-.14.3-.2.41a1.31,1.31,0,0,1-.19.33s.22-.5.49-1.33a12.32,12.32,0,0,0,.36-1.5,10.63,10.63,0,0,0,0-3.73,11.76,11.76,0,0,0-.39-1.49C366.32,77.5,366.06,77,366.09,77Z" transform="translate(-24.92 -26.51)"/><path class="cls-2" d="M330,86.26a1.54,1.54,0,0,1-.21-.3,3.75,3.75,0,0,1-.21-.37,5.2,5.2,0,0,1-.24-.52,8,8,0,0,1-.44-1.42,8.73,8.73,0,0,1-.17-1.82A9.15,9.15,0,0,1,329,80a7.22,7.22,0,0,1,.48-1.41,4.87,4.87,0,0,1,.25-.51c.08-.15.16-.28.22-.37a1.3,1.3,0,0,1,.22-.3s-.26.46-.57,1.23a9.34,9.34,0,0,0-.44,1.4,9.57,9.57,0,0,0-.2,1.77,9,9,0,0,0,.16,1.78,8.07,8.07,0,0,0,.39,1.41C329.76,85.8,330,86.25,330,86.26Z" transform="translate(-24.92 -26.51)"/><path class="cls-2" d="M325.13,87.36a1.59,1.59,0,0,1-.23-.34,3.79,3.79,0,0,1-.23-.42,6.35,6.35,0,0,1-.28-.58,10.3,10.3,0,0,1-.51-1.59,11.47,11.47,0,0,1-.26-2,10.86,10.86,0,0,1,.17-2,9.67,9.67,0,0,1,.44-1.61c.08-.23.17-.42.25-.6a2.83,2.83,0,0,1,.22-.43,2.05,2.05,0,0,1,.21-.35s-.25.53-.55,1.42a10,10,0,0,0-.41,1.6,12.6,12.6,0,0,0-.14,2,10.5,10.5,0,0,0,.7,3.58C324.86,86.85,325.17,87.35,325.13,87.36Z" transform="translate(-24.92 -26.51)"/><path class="cls-6" d="M366.43,100.08v8.62h-16.7v-8.62Z" transform="translate(-24.92 -26.51)"/><path class="cls-2" d="M312.51,104.47a1.77,1.77,0,0,1,0,.23,5,5,0,0,0,5,4.63h49.72v-.63H355.4a4.31,4.31,0,0,1-4.31-4.31h0a4.31,4.31,0,0,1,4.31-4.31h11.81v-.92l-49.73.17A5,5,0,0,0,312.51,104.47Z" transform="translate(-24.92 -26.51)"/><path class="cls-2" d="M366.43,104.51s-3.44.09-7.67.09-7.66,0-7.66-.09,3.43-.1,7.66-.1S366.43,104.46,366.43,104.51Z" transform="translate(-24.92 -26.51)"/><path class="cls-2" d="M366.19,106.45s-3.25.09-7.26.09-7.25,0-7.25-.09,3.25-.09,7.25-.09S366.19,106.4,366.19,106.45Z" transform="translate(-24.92 -26.51)"/><path class="cls-2" d="M366.43,108.23s-2.92.09-6.52.09-6.53,0-6.53-.09,2.92-.09,6.53-.09S366.43,108.18,366.43,108.23Z" transform="translate(-24.92 -26.51)"/><path class="cls-2" d="M366.43,102.76s-3.36.09-7.51.09-7.51,0-7.51-.09,3.36-.09,7.51-.09S366.43,102.71,366.43,102.76Z" transform="translate(-24.92 -26.51)"/><path class="cls-2" d="M366.19,101s-3,.09-6.69.09-6.68,0-6.68-.09,3-.09,6.68-.09S366.19,101,366.19,101Z" transform="translate(-24.92 -26.51)"/><path class="cls-1" d="M318.54,99.47a11.48,11.48,0,0,0-1.06,1.26,6.4,6.4,0,0,0,.09,7.39,11.35,11.35,0,0,0,1.08,1.23,2.24,2.24,0,0,1-.35-.26,5.77,5.77,0,0,1-.83-.89,6.29,6.29,0,0,1-.09-7.54,5.23,5.23,0,0,1,.81-.91A2.26,2.26,0,0,1,318.54,99.47Z" transform="translate(-24.92 -26.51)"/><path class="cls-1" d="M316.86,99.29a10.26,10.26,0,0,0-1.06,1.26,6.4,6.4,0,0,0,.09,7.39,12.75,12.75,0,0,0,1.08,1.23,1.83,1.83,0,0,1-.36-.27,5.79,5.79,0,0,1-.83-.89,6.27,6.27,0,0,1-.08-7.54,5.7,5.7,0,0,1,.8-.91A1.54,1.54,0,0,1,316.86,99.29Z" transform="translate(-24.92 -26.51)"/><path class="cls-1" d="M350.64,99.47a10.26,10.26,0,0,0-1.06,1.26,6.4,6.4,0,0,0,.09,7.39,11.35,11.35,0,0,0,1.08,1.23,2,2,0,0,1-.36-.26,7,7,0,0,1-.83-.89,6.55,6.55,0,0,1-1.3-3.76,6.45,6.45,0,0,1,1.22-3.78,5.7,5.7,0,0,1,.8-.91A2.59,2.59,0,0,1,350.64,99.47Z" transform="translate(-24.92 -26.51)"/><path class="cls-1" d="M349,99.29a10.26,10.26,0,0,0-1.06,1.26,6.4,6.4,0,0,0,.09,7.39,12.75,12.75,0,0,0,1.08,1.23,1.83,1.83,0,0,1-.36-.27,5.79,5.79,0,0,1-.83-.89,6.45,6.45,0,0,1-1.3-3.75,6.53,6.53,0,0,1,1.21-3.79,6.2,6.2,0,0,1,.81-.91A1.54,1.54,0,0,1,349,99.29Z" transform="translate(-24.92 -26.51)"/><path class="cls-1" d="M324.2,105.68c0-1.17,0-2.34-.05-3.5a2.78,2.78,0,0,0-.12-.91.88.88,0,0,0-.67-.56,1.33,1.33,0,0,0-1.43.68,3.33,3.33,0,0,0-.35,1.72,25.69,25.69,0,0,0,.14,2.77,3.26,3.26,0,0,0,.32,1.27,1.06,1.06,0,0,0,2-.17A3.55,3.55,0,0,0,324.2,105.68Z" transform="translate(-24.92 -26.51)"/><path class="cls-1" d="M343.5,104.67s-3.59.1-8,.1-8,0-8-.1,3.59-.09,8-.09S343.5,104.62,343.5,104.67Z" transform="translate(-24.92 -26.51)"/><polygon class="cls-1" points="295.95 72.62 295.86 64.44 300.31 64.44 300.46 72.62 295.95 72.62"/><path class="cls-2" d="M325,92.41a23.85,23.85,0,0,1-4.14,0,21.47,21.47,0,0,1,4.14,0Z" transform="translate(-24.92 -26.51)"/><path class="cls-2" d="M325,93.67a23.85,23.85,0,0,1-4.14,0,23.85,23.85,0,0,1,4.14,0Z" transform="translate(-24.92 -26.51)"/><path class="cls-2" d="M325,94.93a23.85,23.85,0,0,1-4.14,0,23.85,23.85,0,0,1,4.14,0Z" transform="translate(-24.92 -26.51)"/><path class="cls-2" d="M325,96.19a23.85,23.85,0,0,1-4.14,0,23.85,23.85,0,0,1,4.14,0Z" transform="translate(-24.92 -26.51)"/><path class="cls-2" d="M325,97.45a21.47,21.47,0,0,1-4.14,0,23.85,23.85,0,0,1,4.14,0Z" transform="translate(-24.92 -26.51)"/><path class="cls-6" d="M320.54,90.73h49.33a23.23,23.23,0,0,1,0,8.84H320.75V99h3a1.42,1.42,0,0,0,1.42-1.42V92.66a1.42,1.42,0,0,0-1.42-1.41h-3.21Z" transform="translate(-24.92 -26.51)"/><path class="cls-7" d="M332.2,95.16H333l.09,0a.18.18,0,0,1,.09.16.09.09,0,0,1,0,0,1.6,1.6,0,0,1-.05.21,2.33,2.33,0,0,1-.52.93,1,1,0,0,1-.7.36h-.1a.83.83,0,0,1-.56-.41,1.86,1.86,0,0,1-.24-1,2.8,2.8,0,0,1,.09-.7,2.42,2.42,0,0,1,.49-1,1,1,0,0,1,.74-.39.71.71,0,0,1,.32.07,1,1,0,0,1,.48.6.24.24,0,0,1,0,.08.16.16,0,0,1,0,.09.16.16,0,0,1-.15.09h-.06a.2.2,0,0,1-.11-.11v0a.69.69,0,0,0-.1-.19.47.47,0,0,0-.39-.24.5.5,0,0,0-.27.1,1.39,1.39,0,0,0-.45.65,2.4,2.4,0,0,0-.2.93,1.76,1.76,0,0,0,.14.73.49.49,0,0,0,.43.32.56.56,0,0,0,.4-.24,2,2,0,0,0,.42-.77h-.59a.2.2,0,0,1-.19-.2s0,0,0-.06A.2.2,0,0,1,332.2,95.16Z" transform="translate(-24.92 -26.51)"/><path class="cls-7" d="M335,93.55a.14.14,0,0,1,0,.06c0,.12.23,1.14.58,3.06a.06.06,0,0,1,0,0,.29.29,0,0,1,0,.09.18.18,0,0,1-.15.09h0a.15.15,0,0,1-.13-.12l-.2-1h-1l-.49,1a.05.05,0,0,1,0,0,.17.17,0,0,1-.15.08l-.1,0a.19.19,0,0,1-.08-.15s0,0,0-.06.09-.18.16-.33c.7-1.55,1.13-2.46,1.27-2.74a.21.21,0,0,1,.17-.13A.2.2,0,0,1,335,93.55Zm-.22.69-.55,1.15H335Z" transform="translate(-24.92 -26.51)"/><path class="cls-7" d="M337.75,96.89h-1.48l-.1,0a.31.31,0,0,1-.08-.19h0c0-.06.13-1.08.41-3.05a.13.13,0,0,1,0-.06.16.16,0,0,1,.16-.11l.08,0a.16.16,0,0,1,.09.16c0,.13,0,.41-.1.83l-.27,2.06h1.27a.15.15,0,0,1,.09,0,.16.16,0,0,1,.12.16s0,0,0,.06A.21.21,0,0,1,337.75,96.89Z" transform="translate(-24.92 -26.51)"/><path class="cls-7" d="M339.79,93.55a.14.14,0,0,0,0,.06c0,.12.23,1.14.58,3.06,0,0,0,0,0,0a.16.16,0,0,1,0,.09.15.15,0,0,1-.14.09h0a.16.16,0,0,1-.14-.12l-.2-1h-1l-.49,1s0,0,0,0a.19.19,0,0,1-.15.08l-.1,0a.19.19,0,0,1-.08-.15.13.13,0,0,1,0-.06l.15-.33c.71-1.55,1.13-2.46,1.27-2.74a.22.22,0,0,1,.17-.13A.22.22,0,0,1,339.79,93.55Zm-.23.69L339,95.39h.77Z" transform="translate(-24.92 -26.51)"/><path class="cls-7" d="M342.15,95.31l.27.74c.16.43.23.65.23.67a.16.16,0,0,1,0,.09.14.14,0,0,1-.14.08.16.16,0,0,1-.15-.12l0-.07c-.08-.19-.21-.53-.4-1l-.84,1.15a.19.19,0,0,1-.16.09.15.15,0,0,1-.09,0,.16.16,0,0,1-.08-.15v0l.09-.14c.28-.36.59-.8.93-1.3,0-.1-.07-.19-.1-.28-.31-.85-.47-1.29-.47-1.32a.29.29,0,0,1,0-.09.15.15,0,0,1,.14-.09.2.2,0,0,1,.17.1l.5,1.34,1-1.35a.19.19,0,0,1,.16-.08.13.13,0,0,1,.08,0,.16.16,0,0,1,.08.15.28.28,0,0,1,0,.09Z" transform="translate(-24.92 -26.51)"/><path class="cls-7" d="M345.83,93.48h.09a.18.18,0,0,1,.09.16c-.24,1.92-.38,3-.4,3.11a2,2,0,0,1-.32.82,1.17,1.17,0,0,1-1,.48,1.08,1.08,0,0,1-.47-.13,1,1,0,0,1-.53-.46.19.19,0,0,1,0-.08.16.16,0,0,1,0-.09.16.16,0,0,1,.15-.09.17.17,0,0,1,.13.07,1,1,0,0,0,.77.44.76.76,0,0,0,.59-.3,1.7,1.7,0,0,0,.32-.94.82.82,0,0,1-.75.41h-.1a.78.78,0,0,1-.56-.4,1.82,1.82,0,0,1-.25-1c0-.18,0-.37,0-.56s.1-.73.21-1.28a.07.07,0,0,1,0-.05.17.17,0,0,1,.16-.12.15.15,0,0,1,.09,0,.15.15,0,0,1,.09.14,5.93,5.93,0,0,1-.09.68c-.07.53-.11.87-.11,1a2,2,0,0,0,.13.8c.1.24.25.36.44.36h.06a.82.82,0,0,0,.44-.36,2.11,2.11,0,0,0,.37-.82l.23-1.69a.24.24,0,0,1,0-.08A.16.16,0,0,1,345.83,93.48Z" transform="translate(-24.92 -26.51)"/><path class="cls-1" d="M368,99.69s-.09-2-.09-4.54,0-4.53.09-4.53.09,2,.09,4.53S368.07,99.69,368,99.69Z" transform="translate(-24.92 -26.51)"/><path class="cls-2" d="M327.65,99.69s-.09-2-.09-4.54,0-4.53.09-4.53.09,2,.09,4.53S327.7,99.69,327.65,99.69Z" transform="translate(-24.92 -26.51)"/><path class="cls-1" d="M368.88,99.69c-.05,0-.09-2-.09-4.54s0-4.53.09-4.53.09,2,.09,4.53S368.93,99.69,368.88,99.69Z" transform="translate(-24.92 -26.51)"/><path class="cls-2" d="M326.84,99.69s-.09-2-.09-4.54,0-4.53.09-4.53.09,2,.09,4.53S326.89,99.69,326.84,99.69Z" transform="translate(-24.92 -26.51)"/><path class="cls-2" d="M356.06,92.11h0l5.21,4.2.05,0-.06,0-.69.18-4.41,1.15h0l-4-1.69L351,95.52l-.3-.13-.08,0h0l.07,0,.31.12,1.13.47,4,1.67h0l4.4-1.16.7-.18,0,0L356,92.13h0" transform="translate(-24.92 -26.51)"/><polygon class="cls-2" points="335.87 69.14 336.16 69.41 336.54 69.32 336.37 69.68 336.57 70.01 336.18 69.96 335.92 70.25 335.85 69.87 335.49 69.71 335.83 69.53 335.87 69.14"/><polygon class="cls-2" points="330.87 70.8 331.06 70.96 331.31 70.89 331.21 71.12 331.36 71.33 331.1 71.32 330.95 71.52 330.88 71.27 330.65 71.18 330.86 71.05 330.87 70.8"/><polygon class="cls-2" points="325.35 68.53 325.66 68.55 325.85 68.3 325.93 68.61 326.22 68.71 325.95 68.88 325.94 69.19 325.7 68.99 325.41 69.08 325.52 68.79 325.35 68.53"/><polygon class="cls-2" points="338.21 65.67 338.52 65.69 338.71 65.44 338.79 65.74 339.08 65.85 338.82 66.02 338.81 66.33 338.57 66.13 338.27 66.21 338.38 65.92 338.21 65.67"/><polygon class="cls-2" points="330.88 65.47 331.08 65.48 331.2 65.32 331.25 65.51 331.44 65.58 331.27 65.69 331.27 65.89 331.11 65.76 330.92 65.81 331 65.63 330.88 65.47"/><path class="cls-2" d="M363.56,92.4s-1.68,0-3.76-.13-3.77-.18-3.77-.2,1.69,0,3.77.13S363.56,92.38,363.56,92.4Z" transform="translate(-24.92 -26.51)"/><path class="cls-2" d="M365.46,90.66h-50a4.24,4.24,0,0,1,0-4.17h50A4.86,4.86,0,0,1,365.46,90.66Z" transform="translate(-24.92 -26.51)"/><rect class="cls-6" x="300.87" y="61.17" width="27.11" height="1.52"/><path class="cls-2" d="M317.34,90.68a1.62,1.62,0,0,1-.39-.5,3.8,3.8,0,0,1-.46-1.48,3.88,3.88,0,0,1,.19-1.54,1.64,1.64,0,0,1,.3-.56,3.81,3.81,0,0,1-.17.6,4.11,4.11,0,0,0-.14,1.48,4.72,4.72,0,0,0,.39,1.44C317.23,90.46,317.37,90.66,317.34,90.68Z" transform="translate(-24.92 -26.51)"/><path class="cls-2" d="M318.43,90.68a1.41,1.41,0,0,1-.4-.5,3.8,3.8,0,0,1-.46-1.48,3.69,3.69,0,0,1,.2-1.54,1.31,1.31,0,0,1,.3-.56s-.08.23-.18.6a4.37,4.37,0,0,0-.13,1.48,4.21,4.21,0,0,0,.39,1.44A5.9,5.9,0,0,1,318.43,90.68Z" transform="translate(-24.92 -26.51)"/><path class="cls-1" d="M363.43,90.58a8,8,0,0,0,.36-2,9.09,9.09,0,0,0-.33-2,3.68,3.68,0,0,1,.51,2A3.51,3.51,0,0,1,363.43,90.58Z" transform="translate(-24.92 -26.51)"/><path class="cls-1" d="M362.5,90.57c-.05,0,.16-.89.15-2s-.21-2-.15-2a4.9,4.9,0,0,1,.33,2A4.77,4.77,0,0,1,362.5,90.57Z" transform="translate(-24.92 -26.51)"/><polygon class="cls-2" points="359.15 38.34 393.49 38.34 393.49 83.15 359.38 83.15 359.15 38.34"/><rect class="cls-8" x="381.57" y="65.07" width="34.14" height="44.35" transform="translate(772.37 147.98) rotate(180)"/><path class="cls-2" d="M415.88,64.9v44.69H381.4V64.9Zm-.34,44.35v-44h-33.8v44Z" transform="translate(-24.92 -26.51)"/><rect class="cls-8" x="360.22" y="43.37" width="26.14" height="34.74"/><path class="cls-2" d="M385.08,69.88a1.15,1.15,0,0,1,0,.17v.48c0,.44,0,1.07,0,1.9,0,1.65,0,4.07,0,7.12,0,6.11,0,14.79,0,25.07l-.08-.08h26.14l-.09.09c0-12.94,0-24.93,0-34.74l.07.07-19,0-5.28,0h0l5.26,0,19,0h.07v.08c0,9.81,0,21.8,0,34.74v.09H385v-.08c0-10.3,0-19,0-25.12,0-3,0-5.46,0-7.11,0-.81,0-1.44,0-1.87v-.64Z" transform="translate(-24.92 -26.51)"/><path class="cls-2" d="M381.49,109.42a5.5,5.5,0,0,1,.47-.75c.3-.45.73-1.06,1.22-1.73s1-1.25,1.31-1.67a3.92,3.92,0,0,1,.59-.65,4,4,0,0,1-.5.73l-1.26,1.7-1.26,1.7A3.67,3.67,0,0,1,381.49,109.42Z" transform="translate(-24.92 -26.51)"/><path class="cls-2" d="M381.57,65.07a25.68,25.68,0,0,1,1.83,2.35,24.32,24.32,0,0,1,1.68,2.46,26.77,26.77,0,0,1-1.82-2.35A25.58,25.58,0,0,1,381.57,65.07Z" transform="translate(-24.92 -26.51)"/><line class="cls-8" x1="390.79" y1="38.56" x2="386.3" y2="43.54"/><path class="cls-2" d="M411.22,70.05a32.47,32.47,0,0,1,2.18-2.55c1.24-1.37,2.28-2.46,2.31-2.43a28.69,28.69,0,0,1-2.18,2.55A30.57,30.57,0,0,1,411.22,70.05Z" transform="translate(-24.92 -26.51)"/><path class="cls-2" d="M415.71,109.42a28.82,28.82,0,0,1-2.21-2.32,29.94,29.94,0,0,1-2.08-2.43,26.88,26.88,0,0,1,2.21,2.32A27.67,27.67,0,0,1,415.71,109.42Z" transform="translate(-24.92 -26.51)"/><path class="cls-2" d="M386.33,104.62s2.82-8.71,4.48-9.64a16.06,16.06,0,0,1,7.34-2c3.87,0,5.72.26,8,1.82,2.62,1.8,4.39,9.72,4.39,9.72" transform="translate(-24.92 -26.51)"/><path class="cls-2" d="M394.13,78.68c-2.4.1-3,3.33-2.83,5.17a4.34,4.34,0,0,1-.09,2.58c-.32.54-.93.86-1.19,1.42a3.09,3.09,0,0,0,.22,2.2,2,2,0,0,1-.25,2.12,21,21,0,0,0,4.15.78A7,7,0,0,0,398.2,92" transform="translate(-24.92 -26.51)"/><path class="cls-2" d="M392.41,85.12a4.93,4.93,0,0,1,2-6.65,5.93,5.93,0,0,1,2.79-.61,10.74,10.74,0,0,1,2.83.25,5.11,5.11,0,0,1,2.45,1.37,6.33,6.33,0,0,1,1.32,4.74,13.26,13.26,0,0,1-1.66,5.66,1.44,1.44,0,0,1-.49.57.51.51,0,0,1-.68-.12" transform="translate(-24.92 -26.51)"/><path class="cls-1" d="M397.77,97.59c1.63.11,3.05-1.29,3.23-3.81L401.87,81l-.06.89a1,1,0,0,0-.93-1l-5.06-.52a3.07,3.07,0,0,0-3.39,2.88,31.39,31.39,0,0,0,.05,5.78,3.64,3.64,0,0,0,2.71,3.28L395,94.39a3,3,0,0,0,2.75,3.2Z" transform="translate(-24.92 -26.51)"/><path class="cls-2" d="M393.4,84.86a.37.37,0,0,0,.36.37.36.36,0,0,0,.39-.34.38.38,0,0,0-.36-.37A.36.36,0,0,0,393.4,84.86Z" transform="translate(-24.92 -26.51)"/><path class="cls-2" d="M393,84.45s.33-.17.73-.17.7.2.74.15,0-.11-.15-.2a1.09,1.09,0,0,0-.6-.18.93.93,0,0,0-.58.19C393,84.34,392.93,84.42,393,84.45Z" transform="translate(-24.92 -26.51)"/><path class="cls-2" d="M397.27,84.86a.37.37,0,0,0,.36.37.36.36,0,0,0,.39-.34.38.38,0,0,0-.37-.37A.36.36,0,0,0,397.27,84.86Z" transform="translate(-24.92 -26.51)"/><path class="cls-2" d="M396.91,84.51s.33-.16.73-.16.7.2.74.15,0-.11-.15-.21a1.09,1.09,0,0,0-.6-.18,1.07,1.07,0,0,0-.58.19C396.93,84.4,396.88,84.49,396.91,84.51Z" transform="translate(-24.92 -26.51)"/><path class="cls-2" d="M395.45,87.5a2.43,2.43,0,0,0-.65-.12c-.1,0-.2,0-.22-.1a.55.55,0,0,1,.07-.3c.1-.25.2-.51.3-.79a13.88,13.88,0,0,0,.68-2,13.56,13.56,0,0,0-.84,2l-.29.78a.56.56,0,0,0-.05.41.26.26,0,0,0,.17.15.52.52,0,0,0,.17,0A2.85,2.85,0,0,0,395.45,87.5Z" transform="translate(-24.92 -26.51)"/><path class="cls-6" d="M395.19,92.27a7.43,7.43,0,0,0,3.91-1.06,3.92,3.92,0,0,1-4,1.76Z" transform="translate(-24.92 -26.51)"/><path class="cls-2" d="M395.63,88.47a.72.72,0,0,1,.65-.27.69.69,0,0,1,.46.24.43.43,0,0,1,0,.48.49.49,0,0,1-.53.14,1.49,1.49,0,0,1-.51-.31.34.34,0,0,1-.12-.12.14.14,0,0,1,0-.15" transform="translate(-24.92 -26.51)"/><path class="cls-2" d="M396.64,87.78c-.06,0-.06.43-.44.74s-.84.26-.84.33.1.08.3.09a1.11,1.11,0,0,0,.7-.25.93.93,0,0,0,.34-.63C396.72,87.88,396.67,87.77,396.64,87.78Z" transform="translate(-24.92 -26.51)"/><path class="cls-2" d="M396.72,83.8c0,.11.45.06.92.12s.85.18.92.08,0-.15-.2-.25a1.43,1.43,0,0,0-.68-.24,1.52,1.52,0,0,0-.71.09C396.79,83.67,396.71,83.75,396.72,83.8Z" transform="translate(-24.92 -26.51)"/><path class="cls-2" d="M393.09,83.28c.07.09.35,0,.68,0s.62.06.69,0,0-.13-.14-.22a.93.93,0,0,0-.56-.15.89.89,0,0,0-.54.19C393.1,83.14,393.06,83.23,393.09,83.28Z" transform="translate(-24.92 -26.51)"/><path class="cls-2" d="M394.71,78.29c2.82-1.59,5.86-.48,8.15,1.82a5.75,5.75,0,0,0,1.61,1.39c.71.3,1.66.25,2.08.9s-.17,1.82.19,2.65,1.38,1,1.77,1.72a2.85,2.85,0,0,1,0,1.91,1.91,1.91,0,0,0,.28,1.85l-6.09,2.31a1.55,1.55,0,0,1-.85.09c-.87-.17-.93-1-.85-1.63a2.74,2.74,0,0,0,0-1.48c-.24-.53-.87-.82-1.09-1.36-.4-1,.69-2,.56-3a1.93,1.93,0,0,0-1.24-1.41c-.6-.26-1.26-.34-1.88-.54a5.66,5.66,0,0,1-3.23-3.24,1.58,1.58,0,0,1,.66-2Z" transform="translate(-24.92 -26.51)"/><path class="cls-2" d="M397,377.11a32,32,0,0,0-13.68-4.7c-2.23-.23-4.67-.17-6.47,1.19a1.3,1.3,0,0,0-.66,1.18,1.46,1.46,0,0,0,.63.81A19.55,19.55,0,0,0,397,377.11" transform="translate(-24.92 -26.51)"/><path class="cls-2" d="M396.65,376.73a68,68,0,0,1-8.83-7.77,22.39,22.39,0,0,1-5.53-10.24,4.12,4.12,0,0,1,.43-3.43c7,5.5,12.57,12.61,13.93,21.44" transform="translate(-24.92 -26.51)"/><path class="cls-2" d="M396.93,377.06a31.79,31.79,0,0,1,.17-11.59,15.66,15.66,0,0,1,6.17-9.57c1.22,2.84.7,6.12-.16,9.09A44.17,44.17,0,0,1,397,377.88" transform="translate(-24.92 -26.51)"/><path class="cls-2" d="M403.83,389.43c-4.19.51-7.83,2.71-11,5.55a20.72,20.72,0,0,0-6.27,10.76c4.1-.25,7.59-3.15,10.12-6.4s4.28-6.81,7.06-9.85" transform="translate(-24.92 -26.51)"/><path class="cls-2" d="M405.33,391.4a27,27,0,0,1,3.13-25.58c2.38,8.49,1.51,18.08-3.13,25.58" transform="translate(-24.92 -26.51)"/><path class="cls-2" d="M414.45,402.26A19.55,19.55,0,0,0,395.75,413c-.23.46-.44,1.05-.12,1.46a1.38,1.38,0,0,0,1.24.37c3.68-.24,6.95-2.46,9.64-5s5-5.45,8-7.63" transform="translate(-24.92 -26.51)"/><path class="cls-2" d="M414.16,401.67a34.87,34.87,0,0,1-.35-19.45c.69-2.51,1.84-5.14,4.15-6.32a.82.82,0,0,1,.64-.11.83.83,0,0,1,.4.46,11.87,11.87,0,0,1,1,5.59,35.11,35.11,0,0,1-.88,5.65c-.72,3.45-1.11,7.16-3,10.14a20.78,20.78,0,0,0-1.2,2.23c-.36.75-.36,1-.69,1.62" transform="translate(-24.92 -26.51)"/><path class="cls-2" d="M438.3,405.27c-1.79-6.81.11-15,4.39-20.63.32-.41.74-.85,1.25-.8.79.07,1,1.12,1,1.92a37.32,37.32,0,0,1-6.6,19.51" transform="translate(-24.92 -26.51)"/><path class="cls-2" d="M440.47,406.75a30,30,0,0,0,24.62-5,19.89,19.89,0,0,0-13.33-1.64c-4.45,1-8.52,3-11.29,6.64" transform="translate(-24.92 -26.51)"/><path class="cls-2" d="M442.31,402.23c4.63-7.55,13.5-12.48,22.34-12.92-1,3.59-4,6.39-7.31,8.08a40.69,40.69,0,0,1-10.72,3.13c-1.43.28-3.39.58-4.31,1.71" transform="translate(-24.92 -26.51)"/><path class="cls-2" d="M438.76,380.25a65,65,0,0,0,2.85-13.09,21.77,21.77,0,0,0-2.6-12.94c-4.33,8.37-4.76,18.14-.38,26.48" transform="translate(-24.92 -26.51)"/><path class="cls-2" d="M453.31,372.89c5.06-9.19,15.37-16.53,25.81-17.56-4,10-15,17.78-25.81,17.56" transform="translate(-24.92 -26.51)"/><path class="cls-2" d="M450.13,374.69c7.54,1.15,14,6,21,8.89a9.48,9.48,0,0,0,4.75.91,3.72,3.72,0,0,0,2.33-6.58,10.14,10.14,0,0,0-3.45-2.09c-7.68-3.2-15.91-3.28-24-1.34" transform="translate(-24.92 -26.51)"/><path class="cls-2" d="M445.77,380c1.7.49,2.29,1.37,3.64,2.52a39.28,39.28,0,0,0,15.93,8.19c.61.15,1.41.21,1.71-.34s-.07-1.06-.41-1.49a22,22,0,0,0-9.62-6.53c-3.68-1.37-6.86-3-11.25-2.67" transform="translate(-24.92 -26.51)"/><path class="cls-2" d="M440.84,348A30.21,30.21,0,0,0,464,355.91a1.59,1.59,0,0,0,1.05-.38c.59-.64-.11-1.61-.79-2.14-6.8-5.3-15-7.5-23.38-5.35" transform="translate(-24.92 -26.51)"/><path class="cls-2" d="M446.68,345.9a32.25,32.25,0,0,1,28.85-4.76,22.9,22.9,0,0,1-13.75,6,43.49,43.49,0,0,1-15.1-1.28" transform="translate(-24.92 -26.51)"/><path class="cls-2" d="M444.36,331.23c-.67-6.79-.23-12.14-.7-19,0-.54-.16-1.2-.67-1.39-.71-.28-1.3.59-1.53,1.32a21.72,21.72,0,0,0,2.89,18.88" transform="translate(-24.92 -26.51)"/><path class="cls-2" d="M443.87,332a39.92,39.92,0,0,0,11.24-10.93c2.22-3,4.09-6.67,3.59-10.4a10.77,10.77,0,0,0-8.11,4,22.53,22.53,0,0,0-4.13,8.31c-.9,3-1.53,6.05-2.59,9" transform="translate(-24.92 -26.51)"/><path class="cls-2" d="M454.91,328.91a90.5,90.5,0,0,0,27.66-16.31c-3.3-1.33-7.09-.53-10.39.8a32.81,32.81,0,0,0-17.41,15.43" transform="translate(-24.92 -26.51)"/><path class="cls-2" d="M447,335.69c5.1.55,10.29.92,15.35.07S472,333,476.67,331a1.7,1.7,0,0,0,1-.74,1.11,1.11,0,0,0-.35-1.23,2.92,2.92,0,0,0-1.22-.57c-5.06-1.42-10.51-.75-15.49.92a71.76,71.76,0,0,0-13.6,6.31" transform="translate(-24.92 -26.51)"/><path class="cls-2" d="M417.83,348.27c-3.49-7-3.26-15.23-.25-22.48,2.12,3.23,2.38,7.34,2,11.18s-1.56,7.79-1.63,11.65" transform="translate(-24.92 -26.51)"/><path class="cls-2" d="M403.91,341.25a31.39,31.39,0,0,0-23.3,9.93,21.78,21.78,0,0,0,12.76-2.37,64.79,64.79,0,0,0,10.94-7.31" transform="translate(-24.92 -26.51)"/><path class="cls-2" d="M394.56,338.13c-4.26-.35-8.35-.88-12.44.38a14.92,14.92,0,0,0-9.48,8,22.49,22.49,0,0,0,11.66-2.21,67.5,67.5,0,0,0,10.26-6.21" transform="translate(-24.92 -26.51)"/><path class="cls-2" d="M408.41,338.27c-3.83-2.51-7.76-5.06-12.21-6.1s-9.62-.27-12.73,3.09c3.61,2.11,8,2.36,12.16,2.36s9.31-.05,13.26,1.34" transform="translate(-24.92 -26.51)"/><path class="cls-2" d="M408.43,338.47c-6.54-6.42-9-18-6.39-26.75a40.76,40.76,0,0,1,6.39,26.75" transform="translate(-24.92 -26.51)"/><path class="cls-2" d="M426.42,320.27c1.24-2.87,2.1-5.88,3.21-8.8a25.1,25.1,0,0,1,4.58-8.11,12,12,0,0,1,8.1-4.2,32.58,32.58,0,0,1-15.73,21.15" transform="translate(-24.92 -26.51)"/><path class="cls-2" d="M423.17,324.06c-2-2.81-4.4-6.63-7.17-8.72s-6.38-3.37-9.76-2.57a22.71,22.71,0,0,0,16.93,11.29" transform="translate(-24.92 -26.51)"/><path class="cls-2" d="M423.82,320.5a48.41,48.41,0,0,1-3.23-10.45,16.3,16.3,0,0,1,1.64-10.63c3.59,6.79,4.75,14.08,1.77,21.16" transform="translate(-24.92 -26.51)"/><path class="cls-2" d="M426.46,299.42c2-6.73,8.19-11.69,14.85-14a5.41,5.41,0,0,1,2.6-.39,2.26,2.26,0,0,1,1.92,1.6c.24,1.15-.7,2.17-1.59,2.93a50.48,50.48,0,0,1-17.78,9.82" transform="translate(-24.92 -26.51)"/><path class="cls-2" d="M426.53,293.92c.26-4.34.53-8.75,1.94-12.86s4.13-8,8.09-9.76c.67,4.38-1.26,8.74-3.59,12.51s-5.15,7.33-6.55,11.54" transform="translate(-24.92 -26.51)"/><path class="cls-2" d="M426.42,296.9c-1.68-4.9-1.85-11.13-4.79-15.4-2.05-3-5.34-5-7.11-8.19a12.51,12.51,0,0,0,.41,9.29,26.84,26.84,0,0,0,5.44,7.78c2.17,2.32,4,4.07,6.05,6.52" transform="translate(-24.92 -26.51)"/><path class="cls-2" d="M426.46,441.35c-.13,0-.25-32.72-.26-73.08s.09-73.08.22-73.08.25,32.72.26,73.08S426.59,441.35,426.46,441.35Z" transform="translate(-24.92 -26.51)"/><path class="cls-2" d="M455.05,343.33a6,6,0,0,1-1.23.47l-3.39,1.14c-2.85,1-6.77,2.38-11,4.12s-8.19,3.28-10.45,5.24a7.73,7.73,0,0,0-2.1,2.78c-.33.77-.38,1.24-.43,1.23a1.1,1.1,0,0,1,0-.34,4.39,4.39,0,0,1,.24-1,7.26,7.26,0,0,1,2.05-3,18.25,18.25,0,0,1,4.53-2.82c1.82-.84,3.83-1.73,6-2.6,4.27-1.75,8.22-3.12,11.11-4,1.44-.45,2.62-.78,3.44-1A7.77,7.77,0,0,1,455.05,343.33Z" transform="translate(-24.92 -26.51)"/><path class="cls-2" d="M464.42,320.31s-.11.14-.34.37l-1.05,1-3.92,3.56-13.05,11.61c-5.09,4.54-9.49,8.87-12.54,12.13-1.53,1.63-2.73,3-3.55,3.92L429,354a2.07,2.07,0,0,1-.35.36s.08-.15.28-.42.48-.65.88-1.14c.78-1,1.94-2.36,3.44-4a166.22,166.22,0,0,1,12.48-12.25c5.11-4.52,9.76-8.58,13.14-11.51,1.65-1.43,3-2.59,4-3.45l1.1-.92A2.2,2.2,0,0,1,464.42,320.31Z" transform="translate(-24.92 -26.51)"/><path class="cls-2" d="M440.56,341.45c-.13-.06.93-2.51,2-5.62s1.58-5.73,1.71-5.7A18.65,18.65,0,0,1,443,336a38.18,38.18,0,0,1-1.58,3.93A5.88,5.88,0,0,1,440.56,341.45Z" transform="translate(-24.92 -26.51)"/><path class="cls-2" d="M426.49,361.26a5.65,5.65,0,0,1-.79-.91l-2-2.58c-1.69-2.18-4-5.2-6.64-8.49s-5-6.26-6.76-8.4l-2.06-2.54a6.75,6.75,0,0,1-.71-1,5.29,5.29,0,0,1,.85.85c.52.57,1.27,1.4,2.17,2.45,1.81,2.08,4.26,5,6.88,8.31s4.92,6.35,6.54,8.59c.81,1.12,1.45,2,1.89,2.67A7.25,7.25,0,0,1,426.49,361.26Z" transform="translate(-24.92 -26.51)"/><path class="cls-2" d="M420.22,353.21a11.52,11.52,0,0,1-2.63-4.92,14,14,0,0,1-.6-5l.21,0c-.09.38-.16.58-.2.57s0-.21,0-.6h.2a22.78,22.78,0,0,0,.84,4.83A35.83,35.83,0,0,0,420.22,353.21Z" transform="translate(-24.92 -26.51)"/><path class="cls-2" d="M412.12,343a8,8,0,0,0-1.83-1.07,12.23,12.23,0,0,0-5.09-.4,32.45,32.45,0,0,0-5.13.82,13.44,13.44,0,0,1-2.11.51,7.62,7.62,0,0,1,2-.83,23.72,23.72,0,0,1,5.18-1,11.12,11.12,0,0,1,5.25.56A3.24,3.24,0,0,1,412.12,343Z" transform="translate(-24.92 -26.51)"/><path class="cls-2" d="M410.2,340.56c0,.07-1.06-.43-2.81-1a28.82,28.82,0,0,0-7-1.45,29.16,29.16,0,0,0-7.14.37c-1.81.32-2.91.66-2.94.58a2.77,2.77,0,0,1,.75-.31,16.7,16.7,0,0,1,2.12-.6,25,25,0,0,1,14.34,1.09,18.28,18.28,0,0,1,2,.91C410,340.38,410.22,340.53,410.2,340.56Z" transform="translate(-24.92 -26.51)"/><path class="cls-2" d="M426.42,330.13a61.09,61.09,0,0,1-2.05-7.12,60.17,60.17,0,0,1-1.59-7.24,56.75,56.75,0,0,1,2.05,7.12A55.84,55.84,0,0,1,426.42,330.13Z" transform="translate(-24.92 -26.51)"/><path class="cls-2" d="M426.55,330.13a33.6,33.6,0,0,0-2.27-4.27,18.69,18.69,0,0,0-3.34-3.44,3,3,0,0,1,1.29.66,10.46,10.46,0,0,1,2.44,2.51A9.35,9.35,0,0,1,426.55,330.13Z" transform="translate(-24.92 -26.51)"/><path class="cls-2" d="M426.46,423.9c-.06,0-.15-.78-.52-2.17a30.55,30.55,0,0,0-2.19-5.67,78.32,78.32,0,0,0-11.6-16.34c-2.59-3-5.1-5.75-7.23-8.42a59.79,59.79,0,0,1-5.18-7.47,36.14,36.14,0,0,1-2.61-5.53c-.24-.69-.42-1.22-.51-1.59a2.9,2.9,0,0,1-.14-.56s.28.75.82,2.08a40.7,40.7,0,0,0,2.73,5.43,61.35,61.35,0,0,0,5.23,7.36c2.14,2.65,4.65,5.42,7.25,8.39,5.24,5.88,9.34,11.81,11.54,16.51a28,28,0,0,1,2.07,5.76c.15.71.25,1.26.29,1.64A3.15,3.15,0,0,1,426.46,423.9Z" transform="translate(-24.92 -26.51)"/><path class="cls-2" d="M452.29,394.72a13.82,13.82,0,0,1-1.35.76,29.81,29.81,0,0,0-3.51,2.32,40.88,40.88,0,0,0-4.62,4.21c-1.61,1.71-3.28,3.7-5,5.82-3.41,4.27-6.59,8.05-8.5,11.07-1,1.49-1.67,2.76-2.13,3.64a11.7,11.7,0,0,1-.74,1.36s0-.13.12-.38.24-.61.46-1.06a34,34,0,0,1,2-3.74,120.75,120.75,0,0,1,8.41-11.18c1.7-2.13,3.39-4.12,5-5.83a36.66,36.66,0,0,1,4.73-4.18,24.28,24.28,0,0,1,3.62-2.21c.45-.23.82-.37,1.06-.47S452.29,394.7,452.29,394.72Z" transform="translate(-24.92 -26.51)"/><path class="cls-2" d="M452.8,404.19a19.22,19.22,0,0,1-2.86.41,38.27,38.27,0,0,0-6.79,1.34,20.48,20.48,0,0,0-6.08,3.19c-1.4,1.08-2.06,2-2.13,1.93a2.34,2.34,0,0,1,.43-.66,10.7,10.7,0,0,1,1.49-1.53,18.32,18.32,0,0,1,6.14-3.38,30.76,30.76,0,0,1,6.9-1.22A15.72,15.72,0,0,1,452.8,404.19Z" transform="translate(-24.92 -26.51)"/><path class="cls-2" d="M435.78,410c-.15-.09,1.14-2.06,2.14-4.71s1.16-5,1.33-5a4.46,4.46,0,0,1-.05,1.53,16.64,16.64,0,0,1-.83,3.62,17.87,17.87,0,0,1-1.66,3.32A4.73,4.73,0,0,1,435.78,410Z" transform="translate(-24.92 -26.51)"/><path class="cls-2" d="M460.66,369.3a1.81,1.81,0,0,1-.46.25l-1.34.61c-.59.25-1.31.57-2.11,1S455,372,454,372.59c-.49.29-1,.58-1.56.89s-1.07.68-1.64,1c-1.16.7-2.31,1.56-3.54,2.43A60.43,60.43,0,0,0,433.66,391c-.84,1.26-1.66,2.44-2.32,3.62-.34.58-.69,1.13-1,1.68s-.57,1.08-.83,1.59c-.56,1-1,2-1.35,2.78s-.69,1.55-.92,2.15l-.57,1.36a3,3,0,0,1-.22.47,1.81,1.81,0,0,1,.13-.5l.49-1.4a23.1,23.1,0,0,1,.85-2.18c.37-.84.75-1.81,1.29-2.83l.81-1.61c.29-.56.63-1.12,1-1.71.65-1.19,1.47-2.39,2.3-3.67a63.08,63.08,0,0,1,6.25-7.67A64.63,64.63,0,0,1,447,376.6c1.25-.87,2.42-1.72,3.59-2.41.57-.36,1.12-.72,1.67-1l1.58-.87c1-.58,2-1,2.78-1.38a23.37,23.37,0,0,1,2.16-.93l1.38-.53A2.74,2.74,0,0,1,460.66,369.3Z" transform="translate(-24.92 -26.51)"/><path class="cls-2" d="M440.21,383a3.34,3.34,0,0,1,1.13-1.67,7.09,7.09,0,0,1,4.53-1.74,12.44,12.44,0,0,1,4.77.93,6.88,6.88,0,0,1,1.8.88,12.35,12.35,0,0,1-1.91-.56,14.35,14.35,0,0,0-4.65-.78,7.35,7.35,0,0,0-4.32,1.52A15.65,15.65,0,0,0,440.21,383Z" transform="translate(-24.92 -26.51)"/><path class="cls-2" d="M437.16,386.16a17.34,17.34,0,0,0,1.28-4.19,16.93,16.93,0,0,0-.29-4.37c.06,0,.31.43.54,1.22a8.68,8.68,0,0,1-.74,6.27C437.55,385.82,437.2,386.19,437.16,386.16Z" transform="translate(-24.92 -26.51)"/><path class="cls-2" d="M403.86,428.59c.7,12.51,4.47,25.22,10.27,38.08h25.2c5.53-12.73,9-25.43,9.66-38.08Z" transform="translate(-24.92 -26.51)"/><path class="cls-7" d="M444.9,448.83c0,.13-8.29.23-18.53.23s-18.53-.1-18.53-.23,8.29-.24,18.53-.24S444.9,448.7,444.9,448.83Z" transform="translate(-24.92 -26.51)"/><path class="cls-7" d="M444.34,453.36c0,.13-7.78.23-17.37.23s-17.38-.1-17.38-.23,7.78-.24,17.38-.24S444.34,453.23,444.34,453.36Z" transform="translate(-24.92 -26.51)"/><path class="cls-7" d="M414.53,436.8a70.32,70.32,0,0,1,0,11.61,73.37,73.37,0,0,1,0-11.61Z" transform="translate(-24.92 -26.51)"/><path class="cls-7" d="M428,436.8a78.77,78.77,0,0,1,0,12,75.5,75.5,0,0,1,0-12Z" transform="translate(-24.92 -26.51)"/><path class="cls-7" d="M440.71,436.7a78.41,78.41,0,0,1,0,12.26,81.8,81.8,0,0,1,0-12.26Z" transform="translate(-24.92 -26.51)"/><path class="cls-7" d="M448.19,436.8c0,.13-9.73.24-21.74.24s-21.74-.11-21.74-.24,9.73-.23,21.74-.23S448.19,436.67,448.19,436.8Z" transform="translate(-24.92 -26.51)"/></g><g id="Plant"><path class="cls-9" d="M75.12,389.74c4.09-2.11,8.91-2.38,13.45-1.63,2.44.4,5,1.13,6.65,3s2,5.06.07,6.64a6.4,6.4,0,0,1-4.19,1.06c-3.56,0-7.5-.67-10.34,1.47-1.63,1.22-2.7,3.25-4.64,3.85a4.57,4.57,0,0,1-5-2.24,7.8,7.8,0,0,1-.57-5.78A8.82,8.82,0,0,1,75.12,389.74Z" transform="translate(-24.92 -26.51)"/><path class="cls-9" d="M65.75,371.65c2.5,3.57,7.36,2.39,9.62.21s3.2-5.35,4.07-8.36c2-6.89,4-14.11,2.51-21.13a11.8,11.8,0,0,0-2.7-5.74,6.11,6.11,0,0,0-5.81-1.93c-2.45.64-4,3-5.08,5.33a50.37,50.37,0,0,0-5,21.61c0,3.48.39,7.13,2.36,10" transform="translate(-24.92 -26.51)"/><path class="cls-9" d="M58.88,376.77c2.71-3.22,3.23-7.92,2-12a23.08,23.08,0,0,0-7.08-10.28A38.17,38.17,0,0,0,41.13,347a13.71,13.71,0,0,0-5.71-1,6,6,0,0,0-4.79,2.9c-1.34,2.55-.06,5.64,1.33,8.16a97,97,0,0,0,8.33,12.69c2.5,3.22,5.36,6.4,9.17,7.85s7.76,1.29,9.78-1.35" transform="translate(-24.92 -26.51)"/><path class="cls-10" d="M65.58,425.55a8,8,0,0,0,.23-1.63c.11-1.18.26-2.66.43-4.43a64.61,64.61,0,0,1,1-6.5,50.45,50.45,0,0,1,2.37-7.67,28.15,28.15,0,0,1,3.91-6.94,14.7,14.7,0,0,1,5-4.12,13.8,13.8,0,0,1,4.17-1.3,7.14,7.14,0,0,0,1.61-.23,7.42,7.42,0,0,0-1.64,0,12.48,12.48,0,0,0-4.35,1.13A14.61,14.61,0,0,0,73,398,28,28,0,0,0,69,405.07a47,47,0,0,0-2.34,7.8,55.76,55.76,0,0,0-.87,6.58c-.14,1.88-.19,3.4-.21,4.46A7,7,0,0,0,65.58,425.55Z" transform="translate(-24.92 -26.51)"/><path class="cls-10" d="M65.88,422.14a2.8,2.8,0,0,0,.05-.76c0-.56,0-1.28,0-2.15,0-1.87,0-4.58.1-7.92.16-6.68.74-13.87,1.85-24,1-9.53,2.47-20.63,4-27.84.32-1.64.64-3.12.94-4.41s.54-2.41.77-3.32.38-1.54.51-2.09a3.13,3.13,0,0,0,.13-.75,3.71,3.71,0,0,0-.26.71c-.17.54-.37,1.23-.63,2.07s-.56,2-.88,3.29-.7,2.76-1,4.4a248,248,0,0,0-4.16,25.83c-1.11,10.16-1.61,19.41-1.66,26.11,0,3.35,0,6.06.12,7.94.06.87.1,1.58.13,2.15A3.79,3.79,0,0,0,65.88,422.14Z" transform="translate(-24.92 -26.51)"/><path class="cls-10" d="M65.93,404.29a13.34,13.34,0,0,0,0-2.25,60.86,60.86,0,0,0-.69-6.09,79.44,79.44,0,0,0-2-8.89,72.77,72.77,0,0,0-3.71-10.51,56.12,56.12,0,0,0-10.91-17,28.17,28.17,0,0,0-2.57-2.38c-.39-.33-.74-.67-1.1-.93l-1-.68a14.3,14.3,0,0,0-1.9-1.22,65.94,65.94,0,0,1,6.21,5.54,58.79,58.79,0,0,1,10.64,16.93,83.67,83.67,0,0,1,3.74,10.41c1,3.27,1.62,6.27,2.11,8.8s.73,4.6.89,6A14.15,14.15,0,0,0,65.93,404.29Z" transform="translate(-24.92 -26.51)"/><polygon class="cls-10" points="23.77 409.26 25.55 433.75 57.02 433.75 58.81 409.26 23.77 409.26"/><rect class="cls-10" x="20.73" y="399.6" width="41.84" height="9.65"/><polygon class="cls-11" points="20.73 432.81 20.73 435.49 22.69 435.49 61.87 435.49 61.87 432.81 20.73 432.81"/><polygon class="cls-11" points="24.62 440.2 22.69 435.49 60.37 435.49 58.13 440.2 24.62 440.2"/><path class="cls-2" d="M83.14,443.77s0,.09-.15.23-.27.37-.47.62L80.69,447l-.08.1-.08-.11L76,440.73h.26L71.85,447l-.14.2-.15-.19-5.26-6.25h.3l-.29.37L61.61,447l-.15.2-.15-.21c-1.6-2.25-3.09-4.36-4.43-6.27h.25L51.67,447l-.1.11L51.5,447c-.72-1.21-1.3-2.17-1.71-2.87l-.44-.77a.89.89,0,0,1-.13-.27,1.6,1.6,0,0,1,.18.24c.13.19.29.44.48.74l1.8,2.82-.17,0,5.37-6.3.14-.15.12.17,4.48,6.24h-.3L66,440.88l.29-.36.15-.19.15.19,5.24,6.26-.29,0L76,440.55l.13-.18.13.18,4.41,6.3h-.16l1.9-2.29c.21-.23.38-.43.51-.59Z" transform="translate(-24.92 -26.51)"/><path class="cls-11" d="M84.16,435.61c0,.1-7.88.19-17.6.19S49,435.71,49,435.61s7.88-.2,17.61-.2S84.16,435.5,84.16,435.61Z" transform="translate(-24.92 -26.51)"/><path class="cls-10" d="M85.75,462.26c0,.11-8.57.2-19.13.2s-19.14-.09-19.14-.2,8.57-.19,19.14-.19S85.75,462.16,85.75,462.26Z" transform="translate(-24.92 -26.51)"/></g><g id="Screens"><path class="cls-8" d="M166.2,62.07l-17.73.15a4.41,4.41,0,0,0-4.27,4.53l0,3.22A4.4,4.4,0,0,1,140,74.5l-34.56.29a4.4,4.4,0,0,1-4.34-4.47l0-3.21a4.41,4.41,0,0,0-4.34-4.47l-6.24,0L75,62.82A14,14,0,0,0,61.11,76.89L63,300.63a13.94,13.94,0,0,0,14.07,13.82l91.24-.75a14,14,0,0,0,13.84-14.07L180.26,75.9A14,14,0,0,0,166.2,62.07Z" transform="translate(-24.92 -26.51)"/><path class="cls-10" d="M166.2,62.07h.47a11.22,11.22,0,0,1,1.42.1,13.08,13.08,0,0,1,5.25,1.76,13.41,13.41,0,0,1,3.2,2.55,13.87,13.87,0,0,1,2.7,4.14,14.55,14.55,0,0,1,1.09,5.65c0,2.06,0,4.26.07,6.58.17,18.59.42,45.47.74,78.7s.65,72.79,1.05,116.72q.06,8.24.14,16.68c0,1.4,0,2.81,0,4.23a14.7,14.7,0,0,1-.5,4.26,14.31,14.31,0,0,1-1.74,3.94,15.13,15.13,0,0,1-2.88,3.25,14.1,14.1,0,0,1-8,3.2c-2.92.11-5.83.07-8.76.12l-17.77.15-36.46.3-18.64.16-9.42.07a14.7,14.7,0,0,1-9.11-2.43,14.23,14.23,0,0,1-5.6-7.58,15.44,15.44,0,0,1-.62-4.72c0-1.57,0-3.14,0-4.7q-.07-9.39-.16-18.65-.16-18.53-.31-36.47c-.2-23.91-.4-47-.59-68.94s-.35-42.85-.52-62.38Q61.1,94.12,61,80.49l0-3.38c0-.56,0-1.13.07-1.69s.13-1.12.27-1.67a14.16,14.16,0,0,1,2.88-5.93,14.1,14.1,0,0,1,11.33-5.14l12.16-.1,5.85,0,2.87,0a4.47,4.47,0,0,1,2.75.74,4.56,4.56,0,0,1,1.72,2.23,7.4,7.4,0,0,1,.31,2.75c0,.45,0,.91,0,1.36a11.63,11.63,0,0,0,.06,1.33,4.42,4.42,0,0,0,1.06,2.32,4.14,4.14,0,0,0,2.14,1.31,4.85,4.85,0,0,0,1.26.11H107l5,0,18.39-.13,8.11-.06c.64,0,1.3,0,1.9,0a4.1,4.1,0,0,0,1.71-.62,4.45,4.45,0,0,0,1.93-2.83,7.92,7.92,0,0,0,.09-1.69c0-.56,0-1.12,0-1.67A8.89,8.89,0,0,1,144.2,66a4.46,4.46,0,0,1,.51-1.49,4.39,4.39,0,0,1,2.21-2,6.82,6.82,0,0,1,2.77-.32l9.05-.06,5.56,0h1.9l-1.9,0-5.56.06-9.05.09a7,7,0,0,0-2.72.32,4.28,4.28,0,0,0-2.14,1.94,4.58,4.58,0,0,0-.49,1.46,8.44,8.44,0,0,0-.06,1.6c0,.55,0,1.1,0,1.67a8.44,8.44,0,0,1-.09,1.73,4.57,4.57,0,0,1-2,2.93,4.19,4.19,0,0,1-1.77.64c-.64.07-1.27,0-1.91,0l-8.11.07-18.4.17-5,0H105.7a4.89,4.89,0,0,1-1.31-.12,4.32,4.32,0,0,1-2.27-1.37A4.72,4.72,0,0,1,101,71a10.39,10.39,0,0,1-.06-1.36c0-.45,0-.9,0-1.36a7.23,7.23,0,0,0-.3-2.67A4.33,4.33,0,0,0,99,63.47a4.25,4.25,0,0,0-2.61-.7l-2.87,0-5.85.05L75.51,63a14.34,14.34,0,0,0-6.07,1.2,14.18,14.18,0,0,0-5,3.84,13.93,13.93,0,0,0-2.82,5.82c-.14.53-.17,1.08-.26,1.63s-.06,1.1-.06,1.66l0,3.38q.12,13.61.25,28.27c.18,19.54.36,40.42.56,62.39s.39,45,.6,68.93q.16,17.94.32,36.47.07,9.27.16,18.66c0,1.56,0,3.13,0,4.7a15.2,15.2,0,0,0,.61,4.6,13.88,13.88,0,0,0,5.44,7.38,14.37,14.37,0,0,0,8.88,2.36l9.42-.08,18.65-.15,36.46-.3,17.76-.14c2.93-.05,5.87,0,8.75-.12a13.7,13.7,0,0,0,7.81-3.11,14.53,14.53,0,0,0,2.8-3.16,13.61,13.61,0,0,0,1.7-3.84,14.58,14.58,0,0,0,.49-4.16c0-1.41,0-2.82,0-4.23q-.06-8.43-.14-16.67c-.36-43.94-.69-83.5-1-116.73s-.47-60.11-.62-78.7c0-2.32,0-4.52-.05-6.58a14.38,14.38,0,0,0-1.06-5.61,14,14,0,0,0-2.66-4.11A13.3,13.3,0,0,0,173.3,64a13,13,0,0,0-5.22-1.79,10,10,0,0,0-1.41-.12Z" transform="translate(-24.92 -26.51)"/><path class="cls-10" d="M169.09,84.64c0,.06-2.3.15-5.14.19s-5.15,0-5.16,0,2.31-.14,5.15-.19S169.09,84.58,169.09,84.64Z" transform="translate(-24.92 -26.51)"/><path class="cls-10" d="M169.14,87.27c0,.06-2.31.15-5.15.2s-5.15,0-5.15,0,2.3-.15,5.15-.2S169.14,87.21,169.14,87.27Z" transform="translate(-24.92 -26.51)"/><path class="cls-10" d="M169.18,89.91c0,.06-2.3.15-5.14.19s-5.15,0-5.16,0,2.31-.14,5.15-.19S169.18,89.85,169.18,89.91Z" transform="translate(-24.92 -26.51)"/><path class="cls-10" d="M75.5,93.74h.21l.6,0,2.19-.07-.06.06c0-.49,0-1,0-1.59,0-.3,0-.58,0-.92a.86.86,0,0,1,.73-.69c.36,0,.67,0,1.05,0a.84.84,0,0,1,.73.84c0,.75,0,1.52,0,2.33l-.11-.1,2.78,0-.11.1c0-1.11,0-2.27-.06-3.45,0-.3,0-.59,0-.88a.91.91,0,0,0-.4-.65l-1.22-1.19-1.18-1.14c-.19-.19-.39-.37-.57-.56s-.36-.38-.58-.42a.74.74,0,0,0-.64.13c-.16.14-.34.34-.51.51-.34.35-.67.68-1,1-.63.66-1.27,1.26-1.74,1.82a1.93,1.93,0,0,0-.13,1v1c0,.6,0,1.12,0,1.57v1c0,.23,0,.36,0,.36a1.29,1.29,0,0,1,0-.33q0-.41,0-1c0-.46,0-1,0-1.59,0-.31,0-.65,0-1,0-.17,0-.36,0-.54a1,1,0,0,1,.15-.58c.5-.64,1.11-1.2,1.74-1.87l1-1c.18-.18.32-.36.53-.54a.94.94,0,0,1,.81-.16,1.49,1.49,0,0,1,.67.47l.57.55L82,87.28l1.22,1.18a2,2,0,0,1,.31.33.8.8,0,0,1,.15.47c0,.29,0,.59,0,.88,0,1.19,0,2.34.06,3.46v.11h-.11l-2.77,0h-.1v-.1c0-.8,0-1.58,0-2.32a.66.66,0,0,0-.56-.67c-.32,0-.7,0-1,0a.67.67,0,0,0-.59.55c0,.28,0,.6,0,.88,0,.58,0,1.11,0,1.6v.06H75.69C75.56,93.75,75.49,93.75,75.5,93.74Z" transform="translate(-24.92 -26.51)"/><rect class="cls-1" x="71.56" y="107.28" width="97.27" height="17.69" rx="7.46" transform="translate(-25.94 -25.45) rotate(-0.51)"/><path class="cls-10" d="M161.44,124.61l.56-.06a8.34,8.34,0,0,0,1.6-.32,7.66,7.66,0,0,0,2.33-1.25,7.39,7.39,0,0,0,2.2-2.84,7,7,0,0,0,.56-2.06,18.71,18.71,0,0,0,.05-2.39,16.38,16.38,0,0,0-.14-2.59,7.11,7.11,0,0,0-1-2.58,7.38,7.38,0,0,0-4.94-3.37,20.83,20.83,0,0,0-3.38-.1l-3.59,0L79,107.82a7.28,7.28,0,0,0-7.2,6.74c0,.88,0,1.81,0,2.71a8.86,8.86,0,0,0,.3,2.63,7.32,7.32,0,0,0,3,4.09,6.87,6.87,0,0,0,2.37,1,10.85,10.85,0,0,0,2.56.17l5.15,0,10-.09,34.51-.26,23.26-.15,6.33,0h1.64c.37,0,.56,0,.56,0l-.56,0-1.64,0-6.33.09-23.26.26-34.5.35-10,.09-5.15,0a11.29,11.29,0,0,1-2.64-.18,7.38,7.38,0,0,1-2.48-1A7.69,7.69,0,0,1,71.7,120a9,9,0,0,1-.32-2.73c0-.91,0-1.8,0-2.74a7.64,7.64,0,0,1,7.55-7.07l76.76-.63,3.59,0a20.57,20.57,0,0,1,3.43.11,7.62,7.62,0,0,1,5.07,3.49,7.78,7.78,0,0,1,1,2.66,15.7,15.7,0,0,1,.12,2.62,19.06,19.06,0,0,1-.06,2.41,7,7,0,0,1-.6,2.1,7.32,7.32,0,0,1-2.25,2.86,7.76,7.76,0,0,1-2.37,1.24,8.15,8.15,0,0,1-1.63.29Z" transform="translate(-24.92 -26.51)"/><path class="cls-10" d="M162.86,115.32s0-.28-.17-.76a3.25,3.25,0,0,0-1.19-1.67,3,3,0,1,0,0,4.89,3.18,3.18,0,0,0,1.16-1.69c.13-.48.13-.77.16-.77s0,.07,0,.21a2.28,2.28,0,0,1,0,.59A3.22,3.22,0,0,1,161.7,118a3.31,3.31,0,0,1-3.16.55,3.36,3.36,0,0,1-.06-6.33,3.33,3.33,0,0,1,3.17.48,3.15,3.15,0,0,1,1.17,1.84,2.61,2.61,0,0,1,.07.6C162.88,115.25,162.88,115.32,162.86,115.32Z" transform="translate(-24.92 -26.51)"/><path class="cls-10" d="M164.68,120.83a6.2,6.2,0,0,1-1.59-1.41,6,6,0,0,1-1.31-1.67,6.43,6.43,0,0,1,1.58,1.42A6.64,6.64,0,0,1,164.68,120.83Z" transform="translate(-24.92 -26.51)"/><path class="cls-2" d="M84.67,114.67H82.94v-.45l4,0v.46H85.2l0,4.49h-.53Z" transform="translate(-24.92 -26.51)"/><path class="cls-2" d="M90.52,117.4l-3.1,0a1.38,1.38,0,0,0,1.47,1.28,1.48,1.48,0,0,0,1.13-.5l.29.32a2,2,0,0,1-3.39-1.25,1.79,1.79,0,0,1,1.8-1.9,1.76,1.76,0,0,1,1.81,1.86C90.53,117.29,90.52,117.34,90.52,117.4Zm-3.1-.35,2.63,0a1.32,1.32,0,0,0-2.63,0Z" transform="translate(-24.92 -26.51)"/><path class="cls-2" d="M93.83,119.07l-1.2-1.54-1.17,1.56H90.9l1.45-1.92-1.41-1.79h.56l1.13,1.44,1.1-1.46h.55l-1.38,1.81,1.5,1.9Z" transform="translate(-24.92 -26.51)"/><path class="cls-2" d="M97.18,118.82a1.2,1.2,0,0,1-.78.26A1,1,0,0,1,95.31,118l0-2.24h-.67v-.43h.66v-.81h.51v.81h1.13v.43H95.79l0,2.21c0,.44.23.68.64.67a.8.8,0,0,0,.55-.19Z" transform="translate(-24.92 -26.51)"/><rect class="cls-9" x="75.96" y="139.97" width="21.29" height="21.29" transform="translate(-26.24 -25.74) rotate(-0.51)"/><path class="cls-9" d="M138.13,141.66c0,.1-7.11.24-15.89.32s-15.9.06-15.9,0,7.11-.24,15.89-.32S138.13,141.56,138.13,141.66Z" transform="translate(-24.92 -26.51)"/><path class="cls-10" d="M163.55,148c0,.1-12.8.3-28.58.44s-28.58.17-28.58.07,12.79-.3,28.58-.44S163.55,147.86,163.55,148Z" transform="translate(-24.92 -26.51)"/><path class="cls-10" d="M162.92,152.63c0,.1-12.65.29-28.24.43s-28.25.17-28.25.07,12.64-.29,28.24-.43S162.92,152.53,162.92,152.63Z" transform="translate(-24.92 -26.51)"/><path class="cls-10" d="M139.82,157.28c0,.1-7.46.25-16.67.33s-16.68.06-16.68,0,7.47-.24,16.68-.32S139.82,157.18,139.82,157.28Z" transform="translate(-24.92 -26.51)"/><rect class="cls-9" x="76.27" y="175.3" width="21.29" height="21.29" transform="matrix(1, -0.01, 0.01, 1, -26.55, -25.74)"/><path class="cls-9" d="M138.45,177.13c0,.1-7.12.25-15.9.32s-15.9.06-15.9,0,7.11-.24,15.9-.32S138.45,177,138.45,177.13Z" transform="translate(-24.92 -26.51)"/><path class="cls-10" d="M163.86,183.43c0,.1-12.79.3-28.57.44s-28.58.17-28.58.07,12.79-.3,28.57-.43S163.86,183.33,163.86,183.43Z" transform="translate(-24.92 -26.51)"/><path class="cls-10" d="M163.23,188.1c0,.1-12.64.29-28.24.43s-28.24.17-28.24.07,12.64-.29,28.24-.43S163.23,188,163.23,188.1Z" transform="translate(-24.92 -26.51)"/><path class="cls-10" d="M140.13,192.75c0,.1-7.46.25-16.67.33s-16.67.07-16.67,0,7.46-.25,16.67-.33S140.13,192.65,140.13,192.75Z" transform="translate(-24.92 -26.51)"/><rect class="cls-11" x="76.59" y="210.77" width="21.29" height="21.29" transform="translate(-26.87 -25.73) rotate(-0.51)"/><path class="cls-9" d="M138.76,212.6c0,.1-7.12.25-15.9.32s-15.9.06-15.9,0,7.12-.24,15.9-.32S138.76,212.5,138.76,212.6Z" transform="translate(-24.92 -26.51)"/><path class="cls-10" d="M164.17,218.91c0,.1-12.79.29-28.57.43s-28.58.17-28.58.07,12.79-.29,28.58-.43S164.17,218.81,164.17,218.91Z" transform="translate(-24.92 -26.51)"/><path class="cls-10" d="M163.54,223.57c0,.1-12.64.29-28.24.43s-28.24.17-28.24.07,12.64-.29,28.24-.43S163.54,223.47,163.54,223.57Z" transform="translate(-24.92 -26.51)"/><path class="cls-10" d="M140.45,228.22c0,.1-7.47.25-16.67.33s-16.68.07-16.68,0,7.46-.25,16.67-.33S140.45,228.12,140.45,228.22Z" transform="translate(-24.92 -26.51)"/><rect class="cls-9" x="76.9" y="246.24" width="21.29" height="21.29" transform="translate(-27.18 -25.73) rotate(-0.51)"/><path class="cls-11" d="M139.07,248.07c0,.1-7.11.25-15.89.32s-15.91.06-15.91,0,7.12-.24,15.9-.32S139.07,248,139.07,248.07Z" transform="translate(-24.92 -26.51)"/><path class="cls-10" d="M164.49,254.38c0,.1-12.8.29-28.58.43s-28.58.17-28.58.07,12.79-.29,28.58-.43S164.49,254.28,164.49,254.38Z" transform="translate(-24.92 -26.51)"/><path class="cls-10" d="M163.85,259c0,.1-12.64.3-28.23.43s-28.25.17-28.25.07,12.64-.29,28.24-.43S163.85,258.94,163.85,259Z" transform="translate(-24.92 -26.51)"/><path class="cls-10" d="M140.76,263.69c0,.1-7.46.25-16.67.33s-16.68.07-16.68,0,7.46-.25,16.67-.33S140.76,263.59,140.76,263.69Z" transform="translate(-24.92 -26.51)"/><rect class="cls-2" x="77.21" y="281.71" width="21.29" height="21.29" transform="matrix(1, -0.01, 0.01, 1, -27.49, -25.73)"/><path class="cls-2" d="M139.39,283.54c0,.1-7.12.25-15.9.33s-15.9.05-15.9-.05,7.11-.24,15.89-.32S139.38,283.44,139.39,283.54Z" transform="translate(-24.92 -26.51)"/><path class="cls-6" d="M164.8,289.85c0,.1-12.8.29-28.58.43s-28.58.17-28.58.07,12.8-.29,28.58-.43S164.8,289.75,164.8,289.85Z" transform="translate(-24.92 -26.51)"/><path class="cls-6" d="M164.17,294.51c0,.1-12.65.3-28.24.43s-28.24.17-28.25.07,12.65-.29,28.25-.43S164.17,294.41,164.17,294.51Z" transform="translate(-24.92 -26.51)"/><path class="cls-6" d="M141.07,299.16c0,.1-7.46.25-16.67.33s-16.68.07-16.68,0,7.47-.25,16.68-.33S141.07,299.06,141.07,299.16Z" transform="translate(-24.92 -26.51)"/><g class="cls-12"><rect x="76.9" y="246.24" width="21.29" height="21.29" transform="translate(-27.18 -25.73) rotate(-0.51)"/></g><path class="cls-8" d="M415.37,305.35l-11.84-.08a2.94,2.94,0,0,0-2.89,3l0,2.14a2.93,2.93,0,0,1-2.89,3l-23.06-.16a2.94,2.94,0,0,1-2.86-3l0-2.14a3,3,0,0,0-2.86-3l-4.16,0-10.35-.08a9.3,9.3,0,0,0-9.38,9.23l-.86,96a9.29,9.29,0,0,0,9.24,9.35l60.91.42a9.29,9.29,0,0,0,9.38-9.22l.86-96A9.3,9.3,0,0,0,415.37,305.35Z" transform="translate(-24.92 -26.51)"/><path class="cls-10" d="M415.37,305.35l1,0a9.57,9.57,0,0,1,2.79.76,9.39,9.39,0,0,1,5.5,9c-.08,9.71-.2,23.74-.34,41.08-.07,8.67-.15,18.17-.24,28.37q-.06,7.65-.14,15.81c0,2.71,0,5.47-.07,8.26a17.2,17.2,0,0,1-.31,4.22,9.33,9.33,0,0,1-2,3.8,9.65,9.65,0,0,1-3.5,2.55,10.1,10.1,0,0,1-4.32.73l-8.91-.06-18.37-.12-19-.13-9.74-.07c-1.63,0-3.26,0-4.92-.07a9.37,9.37,0,0,1-4.66-1.65,9.47,9.47,0,0,1-3.16-3.8,10.07,10.07,0,0,1-.86-4.83q0-4.9.09-9.74.09-9.67.17-19c.12-12.48.23-24.52.33-36q.07-8.6.16-16.76c0-2.71.05-5.39.07-8,0-1.32,0-2.63,0-3.93a15.53,15.53,0,0,1,.3-3.85,9.38,9.38,0,0,1,4.48-5.86,9.24,9.24,0,0,1,3.47-1.15c1.22-.13,2.41-.05,3.6-.06l6.95.05,3.37,0h1.66a3,3,0,0,1,1.6.4,3.13,3.13,0,0,1,1.49,2.76c0,.53,0,1.06,0,1.58a3.8,3.8,0,0,0,.16,1.51,2.85,2.85,0,0,0,2.14,1.88c1,.1,2,0,3,.07l11,.08,9.6.08a2.9,2.9,0,0,0,2.78-2.61c0-.66,0-1.33,0-2a3.82,3.82,0,0,1,.32-1.84,3,3,0,0,1,2.82-1.66l3,0,4.72,0,3.9.05h-3.9l-4.72,0-3,0a2.86,2.86,0,0,0-2.74,1.63,3.61,3.61,0,0,0-.31,1.8c0,.65,0,1.3,0,2a3,3,0,0,1-2.86,2.7l-9.61-.06-11-.07c-1,0-2,0-3-.07a3,3,0,0,1-2.25-2,4,4,0,0,1-.17-1.56c0-.52,0-1.05,0-1.58a3,3,0,0,0-1.43-2.63,2.77,2.77,0,0,0-1.53-.38h-1.65l-3.37,0-6.95-.05a35.69,35.69,0,0,0-3.58.06,9.22,9.22,0,0,0-7.8,6.89,15.62,15.62,0,0,0-.3,3.82c0,1.29,0,2.6,0,3.92,0,2.63-.05,5.31-.07,8q-.07,8.14-.15,16.75c-.1,11.47-.2,23.51-.31,36q-.09,9.36-.17,19,0,4.83-.09,9.74a10.05,10.05,0,0,0,.83,4.75,9.36,9.36,0,0,0,3.1,3.71,9.16,9.16,0,0,0,4.56,1.61c1.63.08,3.28,0,4.91.07l9.73.07,19,.13,18.37.14,8.91.06a10.13,10.13,0,0,0,4.24-.71,9.53,9.53,0,0,0,3.43-2.51,9.15,9.15,0,0,0,1.93-3.72,17.1,17.1,0,0,0,.3-4.17c0-2.79.06-5.55.08-8.26q.08-8.16.15-15.81c.09-10.2.18-19.7.26-28.37.17-17.34.31-31.37.41-41.09a9.37,9.37,0,0,0-1.82-6,9.22,9.22,0,0,0-3.62-2.94,9.86,9.86,0,0,0-2.78-.78Z" transform="translate(-24.92 -26.51)"/><rect class="cls-9" x="352.25" y="332.72" width="64.36" height="44.69" transform="translate(-24.07 -27.43) rotate(0.14)"/><circle class="cls-8" cx="384.43" cy="354.98" r="9.34" transform="translate(-87.16 55.92) rotate(-11.33)"/><polygon class="cls-9" points="357.22 328.46 357.23 324.25 360.87 326.37 364.5 328.48 360.86 330.58 357.21 332.67 357.22 328.46"/><path class="cls-10" d="M359.15,384v-.72a.09.09,0,0,1,.13-.08l.62.36.62.37a.08.08,0,0,1,0,.14l-.62.36-.63.36a.08.08,0,0,1-.12-.07Z" transform="translate(-24.92 -26.51)"/><path class="cls-10" d="M365,383.49h-.54a.08.08,0,0,0-.08.09v1a.09.09,0,0,0,.09.08H365l.83.84v-2.8Z" transform="translate(-24.92 -26.51)"/><path class="cls-10" d="M361,384.9h0a.14.14,0,0,1-.14-.14v-1.44a.15.15,0,0,1,.15-.15h0a.15.15,0,0,1,.14.15v1.44A.15.15,0,0,1,361,384.9Z" transform="translate(-24.92 -26.51)"/><path class="cls-10" d="M366.17,383.18v1.75a1,1,0,0,0,.61-.88A.93.93,0,0,0,366.17,383.18Z" transform="translate(-24.92 -26.51)"/><path class="cls-10" d="M366.17,382.51v.37a1.21,1.21,0,0,1,.88,1.17,1.24,1.24,0,0,1-.89,1.18v.36a1.57,1.57,0,0,0,0-3.08Z" transform="translate(-24.92 -26.51)"/><path class="cls-10" d="M370.68,383.49v1.69h-.24V383.7h-.38v-.21Z" transform="translate(-24.92 -26.51)"/><path class="cls-10" d="M371,384.05a.16.16,0,0,1,.17-.16.16.16,0,0,1,.16.16.16.16,0,0,1-.16.17A.17.17,0,0,1,371,384.05Zm0,1a.16.16,0,0,1,.17-.16.16.16,0,0,1,.16.16.17.17,0,0,1-.16.17A.17.17,0,0,1,371,385Z" transform="translate(-24.92 -26.51)"/><path class="cls-10" d="M371.6,384.34c0-.56.29-.87.69-.87s.69.32.69.87-.3.87-.69.87S371.6,384.89,371.6,384.34Zm1.14,0c0-.43-.18-.65-.45-.65s-.45.21-.45.65.18.65.45.65S372.74,384.77,372.74,384.34Z" transform="translate(-24.92 -26.51)"/><path class="cls-10" d="M373.73,383.49v1.7h-.24V383.7h-.38v-.21Z" transform="translate(-24.92 -26.51)"/><path class="cls-10" d="M375.37,383.15h.21l-.8,2.28h-.22Z" transform="translate(-24.92 -26.51)"/><path class="cls-10" d="M377.59,384.72c0,.31-.26.5-.68.5s-.67-.2-.67-.5a.42.42,0,0,1,.3-.41.39.39,0,0,1-.23-.37c0-.28.24-.46.61-.46s.61.18.61.46a.38.38,0,0,1-.24.37A.41.41,0,0,1,377.59,384.72Zm-.24,0c0-.19-.17-.3-.43-.3s-.43.11-.43.3.16.31.42.31S377.35,384.9,377.35,384.71Zm-.8-.76c0,.17.13.27.37.27s.37-.1.37-.27-.14-.27-.37-.27S376.55,383.78,376.55,384Z" transform="translate(-24.92 -26.51)"/><path class="cls-10" d="M377.81,384.07a.17.17,0,0,1,.16-.17.17.17,0,0,1,0,.34A.17.17,0,0,1,377.81,384.07Zm0,1a.16.16,0,1,1,.32,0,.16.16,0,1,1-.32,0Z" transform="translate(-24.92 -26.51)"/><path class="cls-10" d="M378.36,384.35c0-.55.3-.86.7-.86s.69.31.69.87-.3.86-.7.86S378.36,384.91,378.36,384.35Zm1.14,0c0-.44-.18-.66-.44-.66s-.45.22-.45.65.18.66.44.66S379.5,384.79,379.5,384.36Z" transform="translate(-24.92 -26.51)"/><path class="cls-10" d="M380,384.36c0-.56.3-.87.69-.87s.69.32.69.87-.3.87-.69.87S380,384.91,380,384.36Zm1.14,0c0-.43-.18-.65-.45-.65s-.45.21-.45.65.18.65.45.65S381.12,384.79,381.12,384.36Z" transform="translate(-24.92 -26.51)"/><path class="cls-10" d="M353,384.9h0a.3.3,0,0,1-.28-.29v-1.49a.29.29,0,0,1,.29-.29h0a.28.28,0,0,1,.28.29v1.49A.29.29,0,0,1,353,384.9Z" transform="translate(-24.92 -26.51)"/><path class="cls-10" d="M354.26,384.9h0a.28.28,0,0,1-.28-.29v-1.49a.29.29,0,0,1,.29-.29h0a.29.29,0,0,1,.28.29v1.49A.29.29,0,0,1,354.26,384.9Z" transform="translate(-24.92 -26.51)"/><path class="cls-2" d="M416.24,381.46l-63.44-.15a.61.61,0,0,1-.61-.61h0a.61.61,0,0,1,.61-.61l63.45.15a.61.61,0,0,1,.61.61h0A.61.61,0,0,1,416.24,381.46Z" transform="translate(-24.92 -26.51)"/><path class="cls-9" d="M376.12,381.36l-23.32-.05a.61.61,0,0,1-.61-.61h0a.61.61,0,0,1,.61-.61l23.32.05a.53.53,0,0,1,.53.53v.17A.52.52,0,0,1,376.12,381.36Z" transform="translate(-24.92 -26.51)"/><path class="cls-9" d="M377.27,380.76a1.18,1.18,0,0,1-1.17,1.16,1.17,1.17,0,1,1,1.17-1.16Z" transform="translate(-24.92 -26.51)"/><path class="cls-10" d="M416.35,392.7c0,.15-14.18.23-31.66.19S353,392.7,353,392.55s14.18-.22,31.67-.18S416.35,392.56,416.35,392.7Z" transform="translate(-24.92 -26.51)"/><path class="cls-10" d="M416.34,399c0,.15-14.18.23-31.67.19S353,399,353,398.81s14.17-.22,31.66-.18S416.34,398.82,416.34,399Z" transform="translate(-24.92 -26.51)"/><path class="cls-10" d="M416.32,405.22c0,.15-14.18.23-31.66.19s-31.67-.19-31.67-.34,14.18-.22,31.67-.18S416.32,405.08,416.32,405.22Z" transform="translate(-24.92 -26.51)"/><path class="cls-8" d="M415.77,132.56l-11.84-.06a2.94,2.94,0,0,0-2.88,3v2.14a2.94,2.94,0,0,1-2.89,3l-23.06-.11a2.93,2.93,0,0,1-2.86-3v-2.14a3,3,0,0,0-2.86-3l-4.17,0-10.35,0a9.29,9.29,0,0,0-9.36,9.24l-.63,148.94a9.3,9.3,0,0,0,9.27,9.32l60.91.28a9.29,9.29,0,0,0,9.35-9.24L425,141.88A9.3,9.3,0,0,0,415.77,132.56Z" transform="translate(-24.92 -26.51)"/><path class="cls-10" d="M415.77,132.56h.32a6.75,6.75,0,0,1,.94.08,8.82,8.82,0,0,1,3.48,1.21,9.42,9.42,0,0,1,3.88,4.5,9.7,9.7,0,0,1,.68,3.77c0,1.37,0,2.84,0,4.38-.05,12.39-.11,30.3-.19,52.44s-.19,48.49-.31,77.76c0,3.66,0,7.36-.05,11.11-.05,1.86.17,3.79-.4,5.64a10.27,10.27,0,0,1-1.23,2.59,10.12,10.12,0,0,1-2,2.1,9.3,9.3,0,0,1-5.39,2c-1.94,0-3.88,0-5.83,0l-11.84-.06L373.55,300l-12.42-.05-6.28,0a9.82,9.82,0,0,1-6-1.68,9.45,9.45,0,0,1-3.67-5.08,10.07,10.07,0,0,1-.38-3.13c0-1.05,0-2.09,0-3.14q0-6.25.06-12.42,0-12.35.1-24.3c.07-15.93.14-31.29.2-45.93s.13-28.55.19-41.56q0-9.77.08-18.84a19.16,19.16,0,0,1,.29-4.48,9.36,9.36,0,0,1,2-3.89,9.61,9.61,0,0,1,3.48-2.52,10.19,10.19,0,0,1,4.14-.71l8.1,0,3.89,0h1.91a3,3,0,0,1,1.81.55,3.08,3.08,0,0,1,1.09,1.52,5.68,5.68,0,0,1,.16,1.83,15.17,15.17,0,0,0,0,1.79,2.91,2.91,0,0,0,.73,1.55,2.73,2.73,0,0,0,1.45.85,9.59,9.59,0,0,0,1.7.08h3.35l12.26.07,5.4,0c.43,0,.86,0,1.27,0a2.68,2.68,0,0,0,1.14-.4,3,3,0,0,0,1.3-1.88A17,17,0,0,0,401,136a3.65,3.65,0,0,1,.42-2.07,2.88,2.88,0,0,1,1.5-1.28,4.66,4.66,0,0,1,1.84-.18l6,0,5,.05h-5l-6,0a4.71,4.71,0,0,0-1.82.18,2.84,2.84,0,0,0-1.46,1.26,3.56,3.56,0,0,0-.41,2,15.74,15.74,0,0,1-.07,2.26,3,3,0,0,1-1.34,1.94,2.84,2.84,0,0,1-1.17.42c-.43,0-.85,0-1.28,0l-5.4,0-12.26,0h-3.35a10.12,10.12,0,0,1-1.73-.08,2.86,2.86,0,0,1-1.51-.89,3,3,0,0,1-.77-1.61c-.07-.61,0-1.2,0-1.81a5.62,5.62,0,0,0-.15-1.79,3,3,0,0,0-1-1.45c-1-.79-2.38-.46-3.64-.54h-3.89l-8.11,0a10,10,0,0,0-4.07.71,9.41,9.41,0,0,0-3.42,2.48,9,9,0,0,0-2,3.83,18.68,18.68,0,0,0-.29,4.44q0,9.08-.07,18.84c-.05,13-.11,26.92-.17,41.56s-.12,30-.19,45.93q0,11.94-.1,24.3,0,6.17-.05,12.42c0,1.05,0,2.09,0,3.14a9.62,9.62,0,0,0,.37,3.07,9.26,9.26,0,0,0,3.59,5,9.6,9.6,0,0,0,5.91,1.64l6.28,0,12.42.06,24.29.11,11.84.06c1.95,0,3.9,0,5.82,0a9.18,9.18,0,0,0,5.28-1.94,9.92,9.92,0,0,0,1.93-2.06,9.65,9.65,0,0,0,1.21-2.53c.56-1.81.34-3.72.4-5.59,0-3.75,0-7.45.05-11.11.13-29.27.25-55.62.35-77.76s.19-40,.25-52.44c-.06-3.07.36-5.91-.64-8.13a9.36,9.36,0,0,0-3.84-4.48,8.83,8.83,0,0,0-3.47-1.23,9.29,9.29,0,0,0-.93-.09Z" transform="translate(-24.92 -26.51)"/><path class="cls-10" d="M414.62,154.14c0,.14-12.86.26-28.73.26s-28.73-.12-28.73-.26,12.86-.26,28.73-.26S414.62,154,414.62,154.14Z" transform="translate(-24.92 -26.51)"/><rect class="cls-9" x="334.91" y="223.52" width="52.22" height="36.26"/><path class="cls-8" d="M307.2,169H289.47a4.41,4.41,0,0,0-4.31,4.5v3.22a4.4,4.4,0,0,1-4.3,4.49l-34.56,0a4.4,4.4,0,0,1-4.3-4.5v-3.22a4.41,4.41,0,0,0-4.31-4.5H215.94A14,14,0,0,0,202,182.88l-.05,223.74a14,14,0,0,0,13.94,13.95l91.26.06a14,14,0,0,0,13.95-13.95l.05-223.75A14,14,0,0,0,307.2,169Z" transform="translate(-24.92 -26.51)"/><path class="cls-10" d="M307.2,169l.47,0a9.91,9.91,0,0,1,1.42.11,13.05,13.05,0,0,1,5.23,1.8,13.56,13.56,0,0,1,3.18,2.58,13.76,13.76,0,0,1,2.66,4.17,14.42,14.42,0,0,1,1,5.66q0,3.09,0,6.58c0,18.58,0,45.47.05,78.7s0,72.8,0,116.73v20.9a15,15,0,0,1-.54,4.26,13.94,13.94,0,0,1-1.78,3.93,15.09,15.09,0,0,1-2.9,3.23,14.08,14.08,0,0,1-8.06,3.12c-2.92.09-5.83,0-8.77,0H245l-18.65,0h-9.42a14.7,14.7,0,0,1-9.08-2.51,14.23,14.23,0,0,1-5.53-7.64,15.4,15.4,0,0,1-.58-4.72V382.55q0-18.53,0-36.47c0-23.91,0-47,0-68.94s0-42.85,0-62.39q0-14.66,0-28.27c0-1.13,0-2.26,0-3.38,0-.57,0-1.13.07-1.7s.15-1.12.29-1.66a14.3,14.3,0,0,1,2.93-5.91,14.16,14.16,0,0,1,11.38-5h20.87a4.54,4.54,0,0,1,2.75.77,4.67,4.67,0,0,1,1.71,2.24,7.67,7.67,0,0,1,.28,2.76v1.36a9.75,9.75,0,0,0,0,1.33,4.43,4.43,0,0,0,1,2.33,4.17,4.17,0,0,0,2.13,1.32,4.46,4.46,0,0,0,1.26.13h6.32l18.4,0,8.11,0c.64,0,1.29,0,1.9,0a4.08,4.08,0,0,0,1.7-.6,4.39,4.39,0,0,0,2-2.81,8,8,0,0,0,.11-1.69V174.3a9.88,9.88,0,0,1,.07-1.63,4.73,4.73,0,0,1,.53-1.49,4.4,4.4,0,0,1,2.23-2,7,7,0,0,1,2.77-.3l9.05,0,5.56,0,1.9,0s-.65,0-1.9,0l-5.56,0h-9.05a6.9,6.9,0,0,0-2.73.3,4.24,4.24,0,0,0-2.15,1.91,4.61,4.61,0,0,0-.51,1.46,10.48,10.48,0,0,0-.07,1.6V176a8.33,8.33,0,0,1-.11,1.72,4.56,4.56,0,0,1-2,2.92,4.41,4.41,0,0,1-1.78.63c-.64.06-1.27,0-1.91,0H246.59a4.9,4.9,0,0,1-1.31-.13,4.39,4.39,0,0,1-2.26-1.39,4.73,4.73,0,0,1-1.1-2.46,10.4,10.4,0,0,1,0-1.36v-1.36a7.44,7.44,0,0,0-.28-2.67,4.34,4.34,0,0,0-1.61-2.12,4.2,4.2,0,0,0-2.61-.72H216.51a13.81,13.81,0,0,0-11.15,5,14,14,0,0,0-2.87,5.79c-.14.53-.18,1.08-.28,1.62s-.07,1.11-.07,1.67v31.65c0,19.54,0,40.42,0,62.39v68.94q0,17.93,0,36.47V405.9a14.88,14.88,0,0,0,.57,4.61,13.94,13.94,0,0,0,5.37,7.43,14.42,14.42,0,0,0,8.86,2.44H245l36.46,0h17.76c2.93,0,5.87.05,8.75,0a13.73,13.73,0,0,0,7.84-3,14.59,14.59,0,0,0,2.83-3.14,13.57,13.57,0,0,0,1.73-3.82,14.57,14.57,0,0,0,.53-4.16v-20.9c0-43.93,0-83.5.07-116.73s.06-60.12.08-78.7q0-3.5,0-6.58a14.43,14.43,0,0,0-1-5.62,14,14,0,0,0-2.62-4.14,13.45,13.45,0,0,0-3.15-2.58,13.16,13.16,0,0,0-5.2-1.83,9,9,0,0,0-1.41-.13Z" transform="translate(-24.92 -26.51)"/><path class="cls-10" d="M310,193.07c0,.06-2.3.13-5.15.15s-5.15,0-5.15-.07,2.31-.12,5.15-.15S310,193,310,193.07Z" transform="translate(-24.92 -26.51)"/><path class="cls-10" d="M310.06,195.7c0,.06-2.31.13-5.15.16s-5.15,0-5.15-.07,2.3-.13,5.14-.15S310.05,195.64,310.06,195.7Z" transform="translate(-24.92 -26.51)"/><path class="cls-10" d="M310.08,198.34c0,.06-2.31.13-5.15.15s-5.15,0-5.15-.07,2.3-.12,5.15-.15S310.08,198.28,310.08,198.34Z" transform="translate(-24.92 -26.51)"/><path class="cls-10" d="M212,200l.22,0,.59,0,2.2-.05L215,200c0-.48,0-1,0-1.59,0-.3,0-.58,0-.92a.85.85,0,0,1,.74-.68c.35,0,.66,0,1,0a.86.86,0,0,1,.72.85l0,2.32-.11-.1,2.78,0-.11.1c0-1.11,0-2.27,0-3.45v-.88a.86.86,0,0,0-.39-.66l-1.21-1.2-1.17-1.15-.57-.56a1.27,1.27,0,0,0-.57-.43.76.76,0,0,0-.64.12l-.51.51-1,1c-.62.65-1.28,1.24-1.75,1.8a2,2,0,0,0-.14,1v1c0,.6,0,1.13,0,1.58s0,.73,0,1a2.81,2.81,0,0,1,0,.36s0-.11,0-.33l0-1c0-.45,0-1,0-1.58,0-.32,0-.65,0-1,0-.18,0-.36,0-.55a1.13,1.13,0,0,1,.16-.58c.51-.62,1.12-1.18,1.75-1.85l1-1c.18-.18.33-.35.54-.53a.94.94,0,0,1,.8-.16,1.51,1.51,0,0,1,.67.47l.57.56,1.17,1.15,1.22,1.2a3.39,3.39,0,0,1,.31.33.86.86,0,0,1,.14.47c0,.29,0,.59,0,.88,0,1.19,0,2.34,0,3.46v.11h-.11l-2.77,0h-.11V200c0-.81,0-1.59,0-2.33a.66.66,0,0,0-.56-.67c-.32,0-.69,0-1,0a.69.69,0,0,0-.59.54c0,.28,0,.61,0,.89v1.66h-.07l-2.23,0H212Z" transform="translate(-24.92 -26.51)"/><rect class="cls-9" x="192.82" y="316.3" width="21.29" height="21.29"/><path class="cls-9" d="M280,345.11c0,.1-7.12.18-15.9.18s-15.9-.08-15.9-.18,7.11-.19,15.9-.19S280,345,280,345.11Z" transform="translate(-24.92 -26.51)"/><path class="cls-10" d="M305.34,351.63c0,.1-12.79.18-28.57.18s-28.58-.08-28.58-.18,12.79-.18,28.58-.18S305.34,351.53,305.34,351.63Z" transform="translate(-24.92 -26.51)"/><path class="cls-10" d="M304.67,356.29c0,.1-12.64.18-28.24.18s-28.24-.08-28.24-.18,12.64-.18,28.24-.18S304.67,356.19,304.67,356.29Z" transform="translate(-24.92 -26.51)"/><path class="cls-10" d="M281.54,360.74c0,.1-7.47.18-16.68.18s-16.67-.08-16.67-.18,7.46-.18,16.67-.18S281.54,360.64,281.54,360.74Z" transform="translate(-24.92 -26.51)"/><g class="cls-12"><rect x="192.82" y="316.3" width="21.29" height="21.29"/></g><rect class="cls-9" x="192.82" y="350.96" width="21.29" height="21.29"/><path class="cls-9" d="M280,379.76c0,.1-7.12.18-15.9.18s-15.9-.08-15.9-.18,7.11-.18,15.9-.18S280,379.66,280,379.76Z" transform="translate(-24.92 -26.51)"/><path class="cls-10" d="M305.34,386.28c0,.1-12.79.19-28.57.19s-28.58-.09-28.58-.19,12.79-.18,28.58-.18S305.34,386.18,305.34,386.28Z" transform="translate(-24.92 -26.51)"/><path class="cls-10" d="M304.67,391c0,.1-12.64.18-28.24.18s-28.24-.08-28.24-.18,12.64-.19,28.24-.19S304.67,390.85,304.67,391Z" transform="translate(-24.92 -26.51)"/><path class="cls-10" d="M281.54,395.39c0,.1-7.47.18-16.68.18s-16.67-.08-16.67-.18,7.46-.18,16.67-.18S281.54,395.29,281.54,395.39Z" transform="translate(-24.92 -26.51)"/><g class="cls-12"><rect x="192.82" y="350.96" width="21.29" height="21.29"/></g><rect class="cls-9" x="237.71" y="222.25" width="49.29" height="65.58" transform="translate(-19.06 489.47) rotate(-89.68)"/><polygon class="cls-9" points="203.67 252.99 226.74 222.48 240.82 241.73 250.51 231.54 269.25 253.36 203.67 252.99"/><path class="cls-9" d="M271.89,245.35a5.16,5.16,0,1,1-5.13-5.19A5.16,5.16,0,0,1,271.89,245.35Z" transform="translate(-24.92 -26.51)"/><g class="cls-13"><polygon points="203.67 252.99 226.74 222.48 240.82 241.73 250.51 231.54 269.25 253.36 203.67 252.99"/></g><g class="cls-13"><path d="M271.89,245.35a5.16,5.16,0,1,1-5.13-5.19A5.16,5.16,0,0,1,271.89,245.35Z" transform="translate(-24.92 -26.51)"/></g><path class="cls-10" d="M304.05,289.24c0,.14-19.05.26-42.54.26s-42.54-.12-42.54-.26S238,289,261.51,289,304.05,289.1,304.05,289.24Z" transform="translate(-24.92 -26.51)"/><path class="cls-10" d="M304.05,294.78c0,.14-19.05.26-42.54.26s-42.54-.12-42.54-.26,19.05-.26,42.54-.26S304.05,294.63,304.05,294.78Z" transform="translate(-24.92 -26.51)"/><path class="cls-9" d="M275.38,321.32H247.64a7.27,7.27,0,0,1-7.27-7.27h0a7.27,7.27,0,0,1,7.27-7.27h27.74a7.26,7.26,0,0,1,7.27,7.27h0A7.26,7.26,0,0,1,275.38,321.32Z" transform="translate(-24.92 -26.51)"/><path class="cls-2" d="M319.94,328.55c0,.14-26.22.26-58.56.26s-58.57-.12-58.57-.26,26.22-.26,58.57-.26S319.94,328.4,319.94,328.55Z" transform="translate(-24.92 -26.51)"/><path class="cls-9" d="M285.65,218.21c0,.15-10.81.26-24.14.26s-24.13-.11-24.13-.26,10.8-.26,24.13-.26S285.65,218.07,285.65,218.21Z" transform="translate(-24.92 -26.51)"/><path class="cls-9" d="M290.48,314.05a1.58,1.58,0,1,1-1.58-1.58A1.58,1.58,0,0,1,290.48,314.05Z" transform="translate(-24.92 -26.51)"/><path class="cls-9" d="M354.47,209.81a1.59,1.59,0,0,1-.38,0l-1.14,0-4.39,0L332.2,210l.18-.17c0,15.32,0,37.68,0,62.53,0,15.24-.09,29.55-.12,41.71v.23H332l-31.23-.1-8.76-.06-2.31,0-.59,0-.2,0,.2,0,.59,0,2.31,0,8.76-.06,31.23-.1-.22.23c0-12.17,0-26.47.05-41.71.08-24.85.15-47.21.2-62.53v-.18h.17l16.36.08,4.39,0,1.14,0Z" transform="translate(-24.92 -26.51)"/><circle class="cls-8" cx="361.02" cy="241.58" r="7.58"/><polygon class="cls-9" points="359.16 241.58 359.16 238.16 362.11 239.87 365.07 241.58 362.11 243.29 359.16 244.99 359.16 241.58"/><rect class="cls-11" x="365.6" y="156.35" width="38.91" height="51.77" transform="translate(175.76 539.77) rotate(-89.68)"/><polygon class="cls-10" points="333.48 175.04 351.69 150.95 362.81 166.15 370.45 158.1 385.25 175.33 333.48 175.04"/><path class="cls-10" d="M392.59,174.59a4.08,4.08,0,1,1-4.06-4.1A4.09,4.09,0,0,1,392.59,174.59Z" transform="translate(-24.92 -26.51)"/><rect class="cls-11" x="340.19" y="182.76" width="40.08" height="2.68"/><path class="cls-10" d="M413.88,219.65c0,.15-12.87.27-28.73.27s-28.74-.12-28.74-.27,12.86-.26,28.74-.26S413.88,219.51,413.88,219.65Z" transform="translate(-24.92 -26.51)"/><path class="cls-10" d="M413.88,227c0,.15-12.87.27-28.73.27s-28.74-.12-28.74-.27,12.86-.26,28.74-.26S413.88,226.85,413.88,227Z" transform="translate(-24.92 -26.51)"/><path class="cls-10" d="M413.88,234.33c0,.15-12.87.26-28.73.26s-28.74-.11-28.74-.26,12.86-.26,28.74-.26S413.88,234.19,413.88,234.33Z" transform="translate(-24.92 -26.51)"/><path class="cls-10" d="M413.88,241.67c0,.15-12.87.26-28.73.26s-28.74-.11-28.74-.26,12.86-.26,28.74-.26S413.88,241.53,413.88,241.67Z" transform="translate(-24.92 -26.51)"/><path class="cls-9" d="M356.05,209.81a1.58,1.58,0,1,1-1.58-1.58A1.58,1.58,0,0,1,356.05,209.81Z" transform="translate(-24.92 -26.51)"/><path class="cls-9" d="M387.47,291.22a1.54,1.54,0,1,1-1.53-1.35A1.45,1.45,0,0,1,387.47,291.22Z" transform="translate(-24.92 -26.51)"/><path class="cls-9" d="M387.47,326.88a1.54,1.54,0,1,1-1.53-1.36A1.46,1.46,0,0,1,387.47,326.88Z" transform="translate(-24.92 -26.51)"/><path class="cls-9" d="M385.94,326.88c-.14,0-.26-8-.26-17.83s.12-17.83.26-17.83.26,8,.26,17.83S386.08,326.88,385.94,326.88Z" transform="translate(-24.92 -26.51)"/><path class="cls-9" d="M261.37,205.69s0-.1,0-.27,0-.47,0-.8c0-.73,0-1.76,0-3.08,0-2.72-.05-6.62-.08-11.5,0-9.83,0-23.57-.09-39.38l.25.26H243.93l-51.26-.07-15.53-.08-4.22-.05-1.1,0a1.7,1.7,0,0,1-.37,0l.37,0,1.1,0,4.22-.05,15.53-.08,51.26-.08h17.7v.25c0,15.81-.07,29.55-.09,39.38,0,4.88-.06,8.78-.08,11.5,0,1.32,0,2.35,0,3.08,0,.33,0,.59,0,.8A1,1,0,0,1,261.37,205.69Z" transform="translate(-24.92 -26.51)"/><path class="cls-9" d="M263,205.69a1.59,1.59,0,1,1-1.59-1.58A1.59,1.59,0,0,1,263,205.69Z" transform="translate(-24.92 -26.51)"/><path class="cls-9" d="M173,150.66a1.58,1.58,0,1,1-1.58-1.58A1.59,1.59,0,0,1,173,150.66Z" transform="translate(-24.92 -26.51)"/></g><g id="Character"><path class="cls-14" d="M142.07,153.28l5,6.49s2.42,3.73.54,4.53c-1.66.7-2.74-1.39-2.74-1.39s-1.06-4.76-3.12-3.6c-.29.17.21,3.55.49,5.26a2.46,2.46,0,0,0,.94,1.58l5.48,4.2a7.14,7.14,0,0,0,3.5,1.42l1.95.23,1.61,3.2,8.86-3.61-7-9.12-3.79-5.8a2.28,2.28,0,0,0-2.08-.49l-.87.22-.66-.65a1.48,1.48,0,0,0-1.48-.39l-.54.15L146.62,154c-.49-.49-3.87-3.64-4.5-3.36A1.76,1.76,0,0,0,142.07,153.28Z" transform="translate(-24.92 -26.51)"/><path class="cls-15" d="M152.12,159.44a7,7,0,0,0-.51-.73,3.3,3.3,0,0,0-1.85-1,9.25,9.25,0,0,1-1.47-1.63,3.06,3.06,0,0,1-.45-.78,7.6,7.6,0,0,1,.54.72,13.19,13.19,0,0,0,1.46,1.55c.18.06.38.1.58.17a3,3,0,0,1,1.28.92,2.68,2.68,0,0,1,.34.56A.77.77,0,0,1,152.12,159.44Z" transform="translate(-24.92 -26.51)"/><path class="cls-15" d="M153.14,158.13a1.14,1.14,0,0,0-.3-.35,1.11,1.11,0,0,0-1-.18h-.05l0,0-.11-.11a9.13,9.13,0,0,1-1.18-1.38,10.61,10.61,0,0,1,1.29,1.27l.11.11-.08,0a1.16,1.16,0,0,1,1.16.26C153.14,157.91,153.17,158.13,153.14,158.13Z" transform="translate(-24.92 -26.51)"/><polygon class="cls-9" points="118.09 409.58 114.95 438.26 130.39 440.26 133.59 411.53 118.09 409.58"/><path class="cls-10" d="M147.61,464.68c.13,0,.85-6.26,1.6-14s1.25-14.05,1.12-14.06-.84,6.26-1.59,14S147.48,464.67,147.61,464.68Z" transform="translate(-24.92 -26.51)"/><polygon class="cls-10" points="115.17 436.28 130.62 438.24 130.39 440.26 114.95 438.26 115.17 436.28"/><path class="cls-10" d="M156.33,457.59s-.08-.25-.33-.67a11.49,11.49,0,0,0-1.22-1.62,10.73,10.73,0,0,0-2.33-1.94,8.29,8.29,0,0,0-9.83.78,7.2,7.2,0,0,0-1.31,1.56c-.25.41-.35.66-.32.68a15.84,15.84,0,0,1,1.85-2,8.27,8.27,0,0,1,6-1.77,9.56,9.56,0,0,1,5.65,2.91C155.72,456.73,156.26,457.64,156.33,457.59Z" transform="translate(-24.92 -26.51)"/><g class="cls-12"><polygon points="132.68 419.71 132.33 422.87 116.86 420.79 117.12 418.42 132.68 419.71"/></g><polygon class="cls-9" points="95.86 411.48 97.08 440.31 112.65 439.96 111.48 411.07 95.86 411.48"/><path class="cls-10" d="M129.64,465.56c.13,0-.11-6.32-.54-14.1s-.88-14.08-1-14.07.11,6.32.54,14.1S129.51,465.56,129.64,465.56Z" transform="translate(-24.92 -26.51)"/><polygon class="cls-10" points="97 438.32 112.56 437.92 112.65 439.96 97.08 440.31 97 438.32"/><path class="cls-10" d="M137.19,457.24a2,2,0,0,0-.43-.61,9.82,9.82,0,0,0-1.45-1.42,10.63,10.63,0,0,0-2.59-1.57,8.28,8.28,0,0,0-9.6,2.25,6.94,6.94,0,0,0-1.06,1.74,2,2,0,0,0-.22.72,16.66,16.66,0,0,1,1.53-2.25,8.29,8.29,0,0,1,5.71-2.66,9.55,9.55,0,0,1,6,2C136.46,456.47,137.13,457.29,137.19,457.24Z" transform="translate(-24.92 -26.51)"/><g class="cls-12"><polygon points="111.81 419.29 111.94 422.47 96.34 422.75 96.23 420.36 111.81 419.29"/></g><path class="cls-10" d="M138.21,374.6l-.61-78.9H106.94s-2.42,19.58-1.27,27.48S115,374.71,115,374.71s2.65,57.94,4,72.82l19.14-1.72Z" transform="translate(-24.92 -26.51)"/><path class="cls-10" d="M157,279.06a38.81,38.81,0,0,1,11.67,21.87c2.13,13.74-4.31,68.69-4.31,68.69l-5.43,76.19H140l.61-73.36-3.27-54.63-2.13-17.28Z" transform="translate(-24.92 -26.51)"/><path class="cls-11" d="M140.18,368.51a1.39,1.39,0,0,1-.08-.47c0-.37-.08-.82-.13-1.36-.09-1.27-.21-3-.36-5-.28-4.24-.62-10.1-.92-16.57s-.5-12.34-.57-16.59c0-2.13,0-3.85,0-5l0-1.36a1.78,1.78,0,0,1,.05-.48,1.5,1.5,0,0,1,.06.48c0,.37,0,.82.06,1.36,0,1.27.11,3,.18,5,.19,4.32.44,10.14.72,16.57s.57,12.26.77,16.58c.08,2.06.15,3.76.2,5,0,.54,0,1,0,1.36A1.35,1.35,0,0,1,140.18,368.51Z" transform="translate(-24.92 -26.51)"/><path class="cls-11" d="M163.32,373a22.64,22.64,0,0,1-2.77-.18,40.79,40.79,0,0,0-13.2,1.24,21.31,21.31,0,0,1-2.69.68,11.57,11.57,0,0,1,2.59-1,32.25,32.25,0,0,1,13.34-1.24A10.78,10.78,0,0,1,163.32,373Z" transform="translate(-24.92 -26.51)"/><path class="cls-11" d="M133,373.7c0,.09-.92-.19-2.39-.41a18.57,18.57,0,0,0-5.76,0,18.75,18.75,0,0,0-5.46,1.84c-1.32.69-2.07,1.25-2.12,1.18a7,7,0,0,1,1.94-1.5,16.08,16.08,0,0,1,5.55-2,15.91,15.91,0,0,1,5.92.1A7.3,7.3,0,0,1,133,373.7Z" transform="translate(-24.92 -26.51)"/><path class="cls-11" d="M133.19,374.7a19.59,19.59,0,0,1-5.63,2.09,19.68,19.68,0,0,1-6,.8c0-.15,2.65-.5,5.84-1.3S133.14,374.55,133.19,374.7Z" transform="translate(-24.92 -26.51)"/><path class="cls-11" d="M139.18,320.88a4.05,4.05,0,0,1-.7.79c-.23.25-.54.53-.9.85s-.78.7-1.27,1.07a24.35,24.35,0,0,1-3.6,2.42,16.57,16.57,0,0,1-5.05,1.87h0l-.92.22a24,24,0,0,1-10.28-.05,20.36,20.36,0,0,1-3-.9,4.2,4.2,0,0,1-1-.49c0-.09,1.54.54,4.1,1a25.63,25.63,0,0,0,10.1-.1l.9-.22h0a17,17,0,0,0,4.89-1.78,27.12,27.12,0,0,0,3.61-2.28C138.05,321.86,139.12,320.81,139.18,320.88Z" transform="translate(-24.92 -26.51)"/><path class="cls-11" d="M145.64,301.42s.08.32.2.87.27,1.4.46,2.37c.38,2.09.92,5,1.56,8.41l-.14-.17L156,316l-.29.08,4.15-5.38,1-1.3-.05.19c-.46-4.07-.9-7.9-1.28-11.26l.35.17a21.56,21.56,0,0,1-5.68,1.83c-1.73.35-3.26.57-4.52.73s-2.26.26-2.94.31a5.59,5.59,0,0,1-1.05,0,6.64,6.64,0,0,1,1-.17l2.92-.43c1.25-.2,2.77-.46,4.48-.84a22.33,22.33,0,0,0,5.53-1.85l.3-.17,0,.34c.4,3.35.85,7.18,1.34,11.25v.11l-.07.08-1,1.3-4.16,5.37-.11.15-.18-.07c-3-1.16-5.76-2.23-8.2-3.19l-.12,0,0-.12c-.55-3.52-1-6.45-1.35-8.58-.15-1-.26-1.74-.35-2.34A4.18,4.18,0,0,1,145.64,301.42Z" transform="translate(-24.92 -26.51)"/><path class="cls-11" d="M128.79,304.16a5.16,5.16,0,0,1,0,.8c0,.61,0,1.39-.09,2.36-.1,2.16-.24,5.12-.41,8.68v.12l-.11.06-7.81,4.07-.17.09-.13-.14-4.72-4.89-1.14-1.17-.07-.08V314c0-4.11.07-8,.09-11.34v-.34l.32.13a21.8,21.8,0,0,0,5.69,1.24c1.75.19,3.28.28,4.55.34l2.94.11a7.12,7.12,0,0,1,1,.06,5.5,5.5,0,0,1-1,.08c-.68,0-1.68,0-2.95,0s-2.82-.08-4.58-.24a21.43,21.43,0,0,1-5.84-1.19l.32-.21c0,3.38,0,7.24,0,11.34l-.07-.18,1.13,1.17,4.72,4.9-.3-.05,7.84-4-.12.18c.26-3.5.48-6.41.63-8.53.08-1,.15-1.79.2-2.41A6.65,6.65,0,0,1,128.79,304.16Z" transform="translate(-24.92 -26.51)"/><path class="cls-11" d="M137.7,317.61a8.39,8.39,0,0,1-.59-2.21,41.35,41.35,0,0,1-.69-5.48,42.72,42.72,0,0,1,0-5.52,8.54,8.54,0,0,1,.33-2.27c.16,0-.11,3.49.15,7.76S137.85,317.57,137.7,317.61Z" transform="translate(-24.92 -26.51)"/><path class="cls-11" d="M163.32,322.35a3,3,0,0,1-.76.37,18.45,18.45,0,0,1-2.17.73,28.09,28.09,0,0,1-7.5,1,28.51,28.51,0,0,1-7.5-1,20.16,20.16,0,0,1-2.17-.74,2.59,2.59,0,0,1-.76-.37c0-.09,1.15.31,3,.75a32.54,32.54,0,0,0,14.82,0C162.16,322.66,163.29,322.26,163.32,322.35Z" transform="translate(-24.92 -26.51)"/><path class="cls-9" d="M115.57,197.41s-13.8,7.54-17.84,9.31l5.51,26.37,8.68,31.63-5.82,33.36s20.46,3.62,30.49,2.32c13.73-1.78,31.23-6.83,31.23-6.83L154.19,252.9l3.49-28.08-5.85-23.67-14.26-1.69Z" transform="translate(-24.92 -26.51)"/><g class="cls-12"><path d="M109.09,223.78c.93,1.85,3.06,2.74,5.06,3.29s4.14,1,5.71,2.31c2.78,2.42,2.7,7,5.27,9.61a6.38,6.38,0,0,0,6.53,1.58c1.42-.49,2.67-1.48,4.16-1.62,1-.1,2.06.23,3.1.15,2.91-.2,4.62-3.29,5.78-6s2.44-5.71,2.14-8.72c-.44-4.51-4.19-8.15-4.77-12.64-.21-1.67,0-3.36-.15-5s-.92-3.44-2.44-4.14" transform="translate(-24.92 -26.51)"/></g><path class="cls-9" d="M164.07,194.2,153.4,172.83l8.57-5.5s10.73,11.06,12.76,13.21c0,0,12.34,11.38,9.12,16.87a36.18,36.18,0,0,1-7.08,8.28Z" transform="translate(-24.92 -26.51)"/><path class="cls-9" d="M97.73,206.72c-.19.56-28.72,40-30.25,44.21q-.12.34-.24.72a16.35,16.35,0,0,0,3.58,15.68l23.53,26.24,10.28-11.89L88.27,252.85,103.9,235.6Z" transform="translate(-24.92 -26.51)"/><path class="cls-14" d="M115.61,283.44c-1,.06-2.69,1.38-3.46,2a1.3,1.3,0,0,1-.9.29h0a1.3,1.3,0,0,1-1.16-.93l-1-3.43a3.19,3.19,0,0,0-2.48,1.56l-1.13,1.94-2-1.88-9.15,10.45s3.6,3.89,5.89,3.95,13-8.77,13-8.77l2.85-2.5S118.41,283.27,115.61,283.44Z" transform="translate(-24.92 -26.51)"/><path class="cls-9" d="M145.26,200.37l8.1.36,11.53-8.82,16.32,9s-7.35,7.86-14.27,15.91c-5.59,6.51-9.57,10.58-9.57,10.58Z" transform="translate(-24.92 -26.51)"/><path class="cls-10" d="M152.86,269.85a11,11,0,0,1-1.16,1.23c-.76.77-1.92,1.84-3.39,3.12a87.46,87.46,0,0,1-26,15.52c-1.82.68-3.31,1.19-4.35,1.5a9.83,9.83,0,0,1-1.64.43,11.77,11.77,0,0,1,1.57-.62c1-.37,2.49-.93,4.28-1.66a99.91,99.91,0,0,0,13.54-6.73,101,101,0,0,0,12.35-8.72c1.49-1.24,2.68-2.26,3.48-3A9.38,9.38,0,0,1,152.86,269.85Z" transform="translate(-24.92 -26.51)"/><path class="cls-10" d="M124.53,265.19c.12.07-2.76,4.74-6.42,10.41s-6.74,10.2-6.86,10.13,2.75-4.74,6.42-10.42S124.41,265.11,124.53,265.19Z" transform="translate(-24.92 -26.51)"/><path class="cls-10" d="M156.39,225.18c-.07,0,0-1.16-.13-3s-.22-4.44-.48-7.28-.6-5.4-.95-7.23-.72-2.92-.64-2.95a8.84,8.84,0,0,1,1,2.87,53.92,53.92,0,0,1,1.11,7.26c.26,2.86.35,5.45.33,7.33A12.2,12.2,0,0,1,156.39,225.18Z" transform="translate(-24.92 -26.51)"/><path class="cls-10" d="M176,192.73a14.47,14.47,0,0,1-1.88-.77,13.54,13.54,0,0,0-4.69-1,8.62,8.62,0,0,0-4.6,1.07c-1.05.63-1.57,1.24-1.64,1.18a4,4,0,0,1,1.44-1.49,8.07,8.07,0,0,1,4.81-1.28,11.83,11.83,0,0,1,4.83,1.21A5.43,5.43,0,0,1,176,192.73Z" transform="translate(-24.92 -26.51)"/><path class="cls-10" d="M170.83,188.17c0,.2-2.27-.06-4.48,1.37s-2.95,3.63-3.12,3.53a3.2,3.2,0,0,1,.48-1.37,7.2,7.2,0,0,1,2.35-2.59,6.79,6.79,0,0,1,3.33-1.08A3,3,0,0,1,170.83,188.17Z" transform="translate(-24.92 -26.51)"/><g class="cls-12"><path d="M125.43,260.39c-.16-.93-.76-1.94-1.71-2s-1.75,1.11-2.17,2.11l-10,23.67-.35,1.54c4-6.37,8-12.49,12-18.86C124.51,264.9,125.8,262.69,125.43,260.39Z" transform="translate(-24.92 -26.51)"/></g><g class="cls-12"><path d="M163.23,192.77c1.24-1.81,2.3-3.87,4.45-4.32a8.66,8.66,0,0,1,6.32,1.13c.41.25.85.68.7,1.14a1,1,0,0,1-.84.59c-1.89.47-3.85-.08-5.78-.33a5.12,5.12,0,0,0-4.7,2" transform="translate(-24.92 -26.51)"/></g><path class="cls-10" d="M102.22,231.39a14.68,14.68,0,0,1-1.18-2.74,62.56,62.56,0,0,1-3.35-14,14.71,14.71,0,0,1-.18-3,19.57,19.57,0,0,1,.55,2.93c.3,1.81.76,4.31,1.41,7s1.37,5.15,1.92,6.91A18.58,18.58,0,0,1,102.22,231.39Z" transform="translate(-24.92 -26.51)"/><path class="cls-14" d="M117.17,205.39l20.25.3-1.9-18.3s1.5.75,1.79-6.75,1-20.22,1-20.22h0A26.07,26.07,0,0,0,112,163l-1.13.83Z" transform="translate(-24.92 -26.51)"/><path class="cls-14" d="M113,173.11c-.13-.06-5.11-1.67-5.09,3.46s5.17,4.05,5.18,3.9S113,173.11,113,173.11Z" transform="translate(-24.92 -26.51)"/><path class="cls-14" d="M137.1,172.69c.12-.05,4.73-1.16,4.42,4s-5.38,3.75-5.38,3.61S137.1,172.69,137.1,172.69Z" transform="translate(-24.92 -26.51)"/><path class="cls-10" d="M125.07,151.44s-7-.26-9.49,1c-4.15,2.12-7.37,8-7.43,15.34s3.25,17.21,8.61,22.11,9.6,5.79,9.6,5.79,11.35-6.19,12.62-15.25,2.13-17.78-1.41-22.17S127.64,151.55,125.07,151.44Z" transform="translate(-24.92 -26.51)"/><path class="cls-10" d="M109.09,172.51c-.41-4.64-.8-9.44.66-13.86s5.26-8.43,9.92-8.61a31.77,31.77,0,0,0,4.47,0,19.2,19.2,0,0,0,3.62-1.33,9.39,9.39,0,0,1,6.47-.4,5.63,5.63,0,0,1,3.9,4.85,8.33,8.33,0,0,0,.11,2.69A9.13,9.13,0,0,0,140,158a5.75,5.75,0,0,1,1,4.16,17.4,17.4,0,0,1-1.18,4.23L136,176.63" transform="translate(-24.92 -26.51)"/><path class="cls-10" d="M120.79,175.11a9.22,9.22,0,0,1,13.23,7.3c.33,3,.33,3.52,2.29,5.86,1.21,1.45,2.38,1.36,3.8,2.59a5.68,5.68,0,0,1,1.29,6.67c3.67-.18,7.11-.42,8.36,3-5.48-1.13-11,4-16.45,2.85a11.88,11.88,0,0,1-4.94-1.81c-1.62-1.22-2.5-3.16-3.32-5l-4.41-10c-1-2.25-2-4.59-2-7.05s1.45-5.07,3.83-5.69" transform="translate(-24.92 -26.51)"/><path class="cls-9" d="M118.58,178.46a7.73,7.73,0,0,1,2.66-8.54,7.86,7.86,0,0,1,9,.35,7.46,7.46,0,0,1,3.07,6.36,4.87,4.87,0,0,1-4.51,4.5" transform="translate(-24.92 -26.51)"/><path class="cls-10" d="M130.6,173.49a8.17,8.17,0,0,0-10.66.53c-2.61,2.62-2.88,8-2.08,11.63.85,3.89,3.23,7.66,2.44,11.56-.48,2.38-2.11,4.79-1.17,7,.77,1.81,2.91,2.6,4.07,4.18,1.71,2.33.86,5.6-.28,8.25s-2.56,5.51-1.76,8.29c.62,2.15,2.43,3.7,3.88,5.41s2.61,4.11,1.64,6.13a5.71,5.71,0,0,0,9-5.75,6.84,6.84,0,0,1,1.92,4.39,9.21,9.21,0,0,0,7-14.13c-1.24-1.94-3.24-3.51-3.66-5.77-.5-2.7,1.45-5.34,1.2-8.07-.23-2.45-2.16-4.38-4.14-5.84s-4.19-2.78-5.47-4.88c-2.07-3.4-1.11-7.73-.31-11.63s1.19-8.5-1.61-11.33" transform="translate(-24.92 -26.51)"/><path class="cls-10" d="M118.78,175.87c-2.77,1.87-3,5.84-2.57,9.16s.92,7.05-1.12,9.7c-1.38,1.78-3.79,2.81-4.49,5-.86,2.61,1.28,5.23,1.53,8a10.08,10.08,0,0,1-1.61,5.64,22.58,22.58,0,0,0-2.52,5.36,5.43,5.43,0,0,0,1.41,5.47,7.07,7.07,0,0,0,3.48,1.25,43,43,0,0,0,13.35-.05c1.32-5.43,2.64-10.92,2.64-16.5,0-11.1-5.25-21.67-5.39-32.76" transform="translate(-24.92 -26.51)"/><path class="cls-11" d="M126.55,232.77a3.43,3.43,0,0,1-.45-.5l-1.24-1.49a65.26,65.26,0,0,1-4.35-5.65,16.73,16.73,0,0,1-2.15-4.47,8.9,8.9,0,0,1,.11-5.67,38.23,38.23,0,0,1,2.83-5.6c1-1.86,2-3.95,1.75-6.18s-1.69-4.05-2.35-6.17a6.16,6.16,0,0,1-.3-1.65,5,5,0,0,1,.26-1.64,8.36,8.36,0,0,1,1.74-2.59,15.53,15.53,0,0,0,1.78-2.23,5.3,5.3,0,0,0,.72-2.5,14,14,0,0,0-.88-4.74,16.08,16.08,0,0,1-.85-4,6.23,6.23,0,0,1,.62-3,4.15,4.15,0,0,1,1.26-1.5,2.34,2.34,0,0,1,.61-.31,4.44,4.44,0,0,0-1.68,1.9,5.93,5.93,0,0,0-.52,2.92,16.66,16.66,0,0,0,.91,3.9,14.19,14.19,0,0,1,1,4.86,5.71,5.71,0,0,1-.75,2.72,14.91,14.91,0,0,1-1.82,2.31,8.13,8.13,0,0,0-1.63,2.45,4.46,4.46,0,0,0-.23,1.46,6.5,6.5,0,0,0,.28,1.5c.62,2,2.15,3.85,2.39,6.28a7.87,7.87,0,0,1-.43,3.45,20.48,20.48,0,0,1-1.4,3,37.67,37.67,0,0,0-2.81,5.5,8.46,8.46,0,0,0-.15,5.41,16.55,16.55,0,0,0,2,4.38c1.61,2.52,3.19,4.38,4.2,5.72.51.67.91,1.19,1.16,1.55A3.28,3.28,0,0,1,126.55,232.77Z" transform="translate(-24.92 -26.51)"/><path class="cls-11" d="M115.65,194.2a16.09,16.09,0,0,0,1.07-3.75,25.2,25.2,0,0,0,.17-4.23c0-1.6-.16-3.38-.06-5.26a12.3,12.3,0,0,1,1.29-5.14,7.81,7.81,0,0,1,3-3.1A5.49,5.49,0,0,1,124,172a3.66,3.66,0,0,1,.79.13.86.86,0,0,1,.26.1,10.43,10.43,0,0,1-1,0,5.51,5.51,0,0,0-2.66.82,7.79,7.79,0,0,0-2.8,3,12.4,12.4,0,0,0-1.19,5c-.1,1.84,0,3.6,0,5.22a23.2,23.2,0,0,1-.28,4.3,10.64,10.64,0,0,1-.87,2.78A3.09,3.09,0,0,1,115.65,194.2Z" transform="translate(-24.92 -26.51)"/><path class="cls-11" d="M145.08,230a4.12,4.12,0,0,1,.07-.64,11.39,11.39,0,0,0,0-1.83,23,23,0,0,0-1.58-6.52c-.57-1.27-1.47-2.6-2.14-4.16a9.85,9.85,0,0,1-.78-2.55,8.91,8.91,0,0,1,0-2.82c.14-1,.36-1.9.48-2.86a9.14,9.14,0,0,0-.06-2.95,9.82,9.82,0,0,0-2.89-5.38c-1.52-1.48-3.65-2.16-5.22-3.64a9.65,9.65,0,0,1-2.71-5.35,19.89,19.89,0,0,1-.18-5.41c.13-1.69.33-3.25.43-4.67a19.13,19.13,0,0,0-.05-3.82,5.27,5.27,0,0,0-1.06-2.61,3.59,3.59,0,0,0-2-1.24,1.73,1.73,0,0,1,.64.09,3.37,3.37,0,0,1,1.56,1,5.25,5.25,0,0,1,1.2,2.69,19.48,19.48,0,0,1,.13,3.89c-.08,1.44-.26,3-.37,4.68a19.83,19.83,0,0,0,.22,5.29,9.24,9.24,0,0,0,2.59,5.07c1.45,1.38,3.58,2.05,5.23,3.63a10.31,10.31,0,0,1,3,5.67,10.1,10.1,0,0,1,.06,3.1c-.14,1-.36,1.95-.5,2.87a8.42,8.42,0,0,0-.07,2.69,10.42,10.42,0,0,0,.72,2.44c.64,1.54,1.51,2.84,2.09,4.19a21.58,21.58,0,0,1,1.44,6.65,8.86,8.86,0,0,1-.08,1.85c0,.21-.09.37-.11.47S145.09,230,145.08,230Z" transform="translate(-24.92 -26.51)"/><path class="cls-11" d="M141.11,201.77a10.79,10.79,0,0,0,.43-1.24,6.8,6.8,0,0,0-.2-3.51,7,7,0,0,0-3.45-3.78,7,7,0,0,1-2.72-1.78,14.42,14.42,0,0,1-1.71-3.05,16.76,16.76,0,0,1-.82-6.61,14.69,14.69,0,0,0-.63-5.26,6.39,6.39,0,0,0-2-2.88,12.82,12.82,0,0,0-1.11-.7s.12,0,.34.08a4,4,0,0,1,.89.46,6.18,6.18,0,0,1,2.24,2.91,14.47,14.47,0,0,1,.77,5.39,16.93,16.93,0,0,0,.82,6.41,14.59,14.59,0,0,0,1.62,2.92,4.78,4.78,0,0,0,1.17,1c.44.27.91.45,1.38.69a7.26,7.26,0,0,1,3.58,4.09,6.63,6.63,0,0,1,.05,3.68,3.71,3.71,0,0,1-.41.92C141.2,201.69,141.12,201.78,141.11,201.77Z" transform="translate(-24.92 -26.51)"/><path class="cls-11" d="M117.17,174.7a6.71,6.71,0,0,1-2-1.24,13.85,13.85,0,0,1-5.14-10.1,6.27,6.27,0,0,1,.21-2.39c.09,0,0,.92.15,2.36a15.34,15.34,0,0,0,5,9.85C116.44,174.15,117.22,174.62,117.17,174.7Z" transform="translate(-24.92 -26.51)"/><path class="cls-11" d="M116.24,176.06a10.08,10.08,0,0,1-3.52-1.82,10.24,10.24,0,0,1-2.94-2.66,27.85,27.85,0,0,1,3.23,2.23A29.34,29.34,0,0,1,116.24,176.06Z" transform="translate(-24.92 -26.51)"/><path class="cls-11" d="M138.14,162.93a14.94,14.94,0,0,1-5.84,10.6,39,39,0,0,0,3.59-4.93A37.48,37.48,0,0,0,138.14,162.93Z" transform="translate(-24.92 -26.51)"/><path class="cls-11" d="M139.77,166.91a19.86,19.86,0,0,1-4.23,9.1c-.13-.09,1.07-2,2.23-4.5S139.62,166.87,139.77,166.91Z" transform="translate(-24.92 -26.51)"/><path class="cls-11" d="M137.41,154a17.66,17.66,0,0,1-1-1.9,6.27,6.27,0,0,0-1.35-1.77,3.53,3.53,0,0,0-2.43-.92,6.65,6.65,0,0,0-4.36,2.15,12.37,12.37,0,0,1-1.55,1.47,6.84,6.84,0,0,1,1.29-1.73,8.67,8.67,0,0,1,1.8-1.54,5.46,5.46,0,0,1,2.82-.87,3.9,3.9,0,0,1,2.75,1.08,6.16,6.16,0,0,1,1.36,2A5.91,5.91,0,0,1,137.41,154Z" transform="translate(-24.92 -26.51)"/><path class="cls-11" d="M135.4,232.1a3.17,3.17,0,0,1-.48-.41c-.3-.29-.73-.71-1.26-1.29a16.74,16.74,0,0,1-1.75-2.27,8,8,0,0,1-1.25-3.59,6.21,6.21,0,0,1,.29-2.23,11.64,11.64,0,0,1,1-2.17c.81-1.42,1.81-2.91,1.86-4.71a10,10,0,0,0-1.57-5.35c-1-1.7-2.35-3.29-3.54-5.07a14,14,0,0,1-2.38-5.8,23,23,0,0,1-.1-5.84c.37-3.69,1.1-6.93,1.21-9.71a18.16,18.16,0,0,0-.63-6.49c-.47-1.47-.94-2.21-.89-2.24a2.52,2.52,0,0,1,.34.53,9.71,9.71,0,0,1,.74,1.65,17.46,17.46,0,0,1,.81,6.57c-.07,2.81-.76,6.09-1.1,9.74a22.79,22.79,0,0,0,.12,5.7,13.66,13.66,0,0,0,2.31,5.6c1.17,1.75,2.53,3.34,3.56,5.11a10.42,10.42,0,0,1,1.6,5.62c-.07,2-1.16,3.52-2,4.9a11.89,11.89,0,0,0-1,2.09,5.64,5.64,0,0,0-.3,2.08,7.74,7.74,0,0,0,1.13,3.46,17.86,17.86,0,0,0,1.65,2.29c.5.6.91,1,1.19,1.34A3.09,3.09,0,0,1,135.4,232.1Z" transform="translate(-24.92 -26.51)"/></g><g id="Floor"><path class="cls-10" d="M475.08,466.77c0,.15-100.78.26-225.07.26s-225.09-.11-225.09-.26,100.76-.26,225.09-.26S475.08,466.63,475.08,466.77Z" transform="translate(-24.92 -26.51)"/></g></svg>