<svg id="Layer_1" data-name="Layer 1" xmlns="http://www.w3.org/2000/svg" viewBox="0 0 181 150.41"><defs><style>.cls-1{fill:none;stroke:#5d6d81;stroke-linecap:round;stroke-width:3px;}.cls-2{fill:#5baadc;}.cls-3{fill:#6e8097;}.cls-4{fill:#f08481;}</style></defs><title>Video-Editing</title><path class="cls-1" d="M180.66,22.3H19.34A8.35,8.35,0,0,0,11,30.64V150.23a8.36,8.36,0,0,0,8.34,8.35H75v5.56H55.5a2.78,2.78,0,0,0,0,5.56h89a2.78,2.78,0,0,0,0-5.56H125v-5.56h55.63a8.36,8.36,0,0,0,8.34-8.35V30.64A8.35,8.35,0,0,0,180.66,22.3ZM119.47,164.14H80.53v-5.56h38.94Zm64-13.91a2.8,2.8,0,0,1-2.78,2.79H19.34a2.8,2.8,0,0,1-2.78-2.79v-2.78H183.44Zm0-8.34H16.56V30.64a2.79,2.79,0,0,1,2.78-2.78H180.66a2.79,2.79,0,0,1,2.78,2.78Z" transform="translate(-9.5 -20.8)"/><path class="cls-2" d="M38.81,71h5.57a5.57,5.57,0,0,0,5.56-5.56V57.06a5.57,5.57,0,0,0-5.56-5.56H38.81a5.56,5.56,0,0,0-5.56,5.56v8.35A5.56,5.56,0,0,0,38.81,71Zm0-13.91h5.57v8.35H38.81Zm0,38.94h5.57a5.57,5.57,0,0,0,5.56-5.56V82.09a5.57,5.57,0,0,0-5.56-5.56H38.81a5.56,5.56,0,0,0-5.56,5.56v8.35A5.56,5.56,0,0,0,38.81,96Zm0-13.91h5.57v8.35H38.81Zm0,38.94h5.57a5.57,5.57,0,0,0,5.56-5.56v-8.34a5.58,5.58,0,0,0-5.56-5.57H38.81a5.57,5.57,0,0,0-5.56,5.57v8.34A5.56,5.56,0,0,0,38.81,121Zm0-13.9h5.57v8.34H38.81Z" transform="translate(-9.5 -20.8)"/><path class="cls-3" d="M113.91,126.59V101l-5.57-1.41v27H61.06V89.05H83.57A41.88,41.88,0,0,1,78,83.48H61.06V45.94h47.28V71l5.57,1.44V45.94h2.82l-.39-5.56H30.12a8.17,8.17,0,0,0-8,8.34v75.09a8.19,8.19,0,0,0,8,8.35h89a19.11,19.11,0,0,1-2.08-5.57Zm-58.41,0H30.12a2.62,2.62,0,0,1-2.43-2.78V48.72a2.62,2.62,0,0,1,2.43-2.78H55.5Z" transform="translate(-9.5 -20.8)"/><path class="cls-4" d="M167.47,86.24a14.15,14.15,0,0,0-12.09,2.61L145.17,86.2a12.32,12.32,0,0,0-3.5-3.69l-1.44-22a36.31,36.31,0,0,0-14.17-26.55,2.78,2.78,0,0,0-4.46,2.41l3.18,44.56L81.21,69.58a2.79,2.79,0,0,0-3.18,4,36.63,36.63,0,0,0,23.67,18.7l21.64,5.49a12.54,12.54,0,0,0,2.94,4.12l.74,10.36a14,14,0,0,0-4.82,11.34,13.64,13.64,0,0,0,13.66,12.85,13.79,13.79,0,0,0,2.48-.23,14.06,14.06,0,0,0,11.31-12.28,13.67,13.67,0,0,0-6.11-12.82l-.55-8.36,8.23,2.09a13.73,13.73,0,0,0,11.54,8.31q.6.06,1.2.06a14.13,14.13,0,0,0,13-8.83,13.54,13.54,0,0,0-.59-11.12A13.8,13.8,0,0,0,167.47,86.24Zm-45.19,5.48-19.21-4.87A31.37,31.37,0,0,1,86.85,76.79l37.06,9.63A12.25,12.25,0,0,0,122.28,91.72Zm19.17.31a6.77,6.77,0,0,1-5.9,7.54h-.12q-.35,0-.69,0a7,7,0,0,1-6.89-6.2,6.78,6.78,0,0,1,5.9-7.54h.12q.34,0,.69,0a7,7,0,0,1,6.89,6.2Zm-6.77-31.19L136,80.35a13.16,13.16,0,0,0-1.4-.09h0a12,12,0,0,0-4.19.75l-2.71-37.88a30.93,30.93,0,0,1,7,17.71Zm9.43,62.52a8.4,8.4,0,0,1-6.76,7.34,8.08,8.08,0,0,1-9.46-6.43,7.49,7.49,0,0,1-.13-1.06,8.37,8.37,0,0,1,3.69-7.4,2.76,2.76,0,0,0,1.22-2.5l-.6-8.43a12,12,0,0,0,5.49,0l.53,8.09a2.77,2.77,0,0,0,1.54,2.31,8.09,8.09,0,0,1,4.48,8.12Zm27.68-21a8.45,8.45,0,0,1-8.53,5.23,8.19,8.19,0,0,1-7.25-5.86,2.79,2.79,0,0,0-2-1.94l-8-2a12.45,12.45,0,0,0,1-5.32l8.37,2.17a2.75,2.75,0,0,0,2.66-.72,8.53,8.53,0,0,1,8-2.24,8.14,8.14,0,0,1,5.32,4.15,7.86,7.86,0,0,1,.34,6.55Z" transform="translate(-9.5 -20.8)"/></svg>