<svg id="Layer_1" data-name="Layer 1" xmlns="http://www.w3.org/2000/svg" viewBox="0 0 176.05 146.73"><defs><style>.cls-1{fill:#6e8097;}.cls-2{fill:#f08481;}</style></defs><title>video-player</title><path class="cls-1" d="M177.63,26.43l-31.49,31.5V46.29a22,22,0,0,0-22-22h-88a22,22,0,0,0-22,22V105a22,22,0,0,0,22,22H68.25l-16.7,33.4a7.33,7.33,0,0,0,13.12,6.56l15.45-30.89,15.45,30.89a7.33,7.33,0,1,0,13.12-6.56L92,127h32.14a22,22,0,0,0,22-22V93.35l31.49,31.49a7.34,7.34,0,0,0,12.52-5.19v-88A7.34,7.34,0,0,0,177.63,26.43ZM131.47,105a7.33,7.33,0,0,1-7.34,7.33h-88A7.33,7.33,0,0,1,28.77,105V46.29A7.33,7.33,0,0,1,36.11,39h88a7.33,7.33,0,0,1,7.34,7.33Zm44-3-26.3-26.3,26.3-26.31Z" transform="translate(-14.1 -24.27)"/><path class="cls-2" d="M58.11,46.29a22,22,0,1,0,22,22A22,22,0,0,0,58.11,46.29Zm0,29.35a7.34,7.34,0,1,1,7.34-7.34A7.34,7.34,0,0,1,58.11,75.64Z" transform="translate(-14.1 -24.27)"/></svg>