<svg xmlns="http://www.w3.org/2000/svg" xmlns:xlink="http://www.w3.org/1999/xlink" viewBox="0 0 2317.73 1422.69"><defs><style>.cls-1{fill:none;}.cls-2{isolation:isolate;}.cls-3{fill:#2b5dad;}.cls-4{fill:#1b45a1;}.cls-5{fill:url(#Безымянный_градиент_22);}.cls-6{fill:url(#Безымянный_градиент_22-2);}.cls-7{fill:#65ace4;}.cls-8{fill:url(#Безымянный_градиент_94);}.cls-9{fill:url(#Безымянный_градиент_94-2);}.cls-10,.cls-31{fill:#fff;}.cls-11{fill:url(#Безымянный_градиент_94-3);}.cls-12{fill:url(#Безымянный_градиент_94-4);}.cls-13{fill:#3b77d9;}.cls-14{fill:#1f57b5;}.cls-15{fill:#153f9c;}.cls-16{fill:#9dd2f2;}.cls-17{fill:#2a66c6;}.cls-18,.cls-26{fill:#79c3f0;}.cls-19,.cls-25{fill:#99a8c2;mix-blend-mode:multiply;}.cls-19,.cls-26{opacity:0.3;}.cls-20{fill:#316ccc;}.cls-21{clip-path:url(#clip-path);}.cls-22{mix-blend-mode:overlay;}.cls-23{fill:url(#Безымянный_градиент_8);}.cls-24{fill:url(#Безымянный_градиент_8-2);}.cls-25{opacity:0.5;}.cls-27{fill:#3973cf;}.cls-28{fill:#fb8627;}.cls-29{fill:#3aa1e0;}.cls-30{opacity:0.8;}.cls-31{opacity:0.7;}.cls-32{fill:#ffc34e;}.cls-33{fill:#0e3a82;}.cls-34{fill:#0f2d5c;}.cls-35{fill:url(#Безымянный_градиент_37);}.cls-36{fill:url(#Безымянный_градиент_37-2);}.cls-37{fill:#f09959;}.cls-38{fill:#e38540;}.cls-39{fill:url(#Безымянный_градиент_12);}.cls-40{fill:url(#Безымянный_градиент_37-3);}.cls-41{fill:url(#Безымянный_градиент_37-4);}.cls-42{fill:url(#Безымянный_градиент_37-5);}</style><linearGradient id="Безымянный_градиент_22" x1="1509.27" y1="1646.56" x2="1488.59" y2="1019.28" gradientUnits="userSpaceOnUse"><stop offset="0" stop-color="#2a66c6"/><stop offset="1" stop-color="#79c3f0"/></linearGradient><linearGradient id="Безымянный_градиент_22-2" x1="1695.68" y1="1902.58" x2="1047.24" y2="1501.8" xlink:href="#Безымянный_градиент_22"/><linearGradient id="Безымянный_градиент_94" x1="1379.96" y1="986.11" x2="1930.77" y2="655.11" gradientUnits="userSpaceOnUse"><stop offset="0" stop-color="#6bbeff"/><stop offset="1" stop-color="#0c3aa1"/></linearGradient><linearGradient id="Безымянный_градиент_94-2" x1="3127.46" y1="1421.33" x2="2643.87" y2="1964.39" xlink:href="#Безымянный_градиент_94"/><linearGradient id="Безымянный_градиент_94-3" x1="3021.48" y1="911.59" x2="2995.62" y2="1402.95" gradientTransform="translate(-196.8 591.11) rotate(-8.49)" xlink:href="#Безымянный_градиент_94"/><linearGradient id="Безымянный_градиент_94-4" x1="3021.11" y1="911.57" x2="2995.25" y2="1402.93" gradientTransform="translate(-196.8 591.11) rotate(-8.49)" xlink:href="#Безымянный_градиент_94"/><clipPath id="clip-path" transform="translate(-1061.35 -546.35)"><path class="cls-1" d="M2217,903.75c66.47,0,153.79-25,180.77-33.25,4.08-1.25,8.29,1.54,8.29,5.48v184.88c0,142.86-186.17,258.66-186.17,258.66s-186.16-115.8-186.16-258.66V884.56c0-3.79,3.9-6.55,7.89-5.59C2067.29,885.11,2150.55,903.75,2217,903.75Z"/></clipPath><linearGradient id="Безымянный_градиент_8" x1="2986.75" y1="782.37" x2="2560.35" y2="1463.26" gradientTransform="matrix(-1, 0, 0, 1, 4846.17, 0)" gradientUnits="userSpaceOnUse"><stop offset="0" stop-color="#fff"/><stop offset="1"/></linearGradient><linearGradient id="Безымянный_градиент_8-2" x1="2909.86" y1="734.22" x2="2483.46" y2="1415.11" xlink:href="#Безымянный_градиент_8"/><linearGradient id="Безымянный_градиент_37" x1="1572.09" y1="1563.23" x2="1399.07" y2="1875.27" gradientUnits="userSpaceOnUse"><stop offset="0" stop-color="#ffc34e"/><stop offset="1" stop-color="#fb8627"/></linearGradient><linearGradient id="Безымянный_градиент_37-2" x1="1600.41" y1="1575.63" x2="1410.49" y2="1918.13" xlink:href="#Безымянный_градиент_37"/><linearGradient id="Безымянный_градиент_12" x1="1592.44" y1="1669.19" x2="1418.42" y2="1883.78" gradientUnits="userSpaceOnUse"><stop offset="0" stop-color="#8fd4ff"/><stop offset="1" stop-color="#1355bf"/></linearGradient><linearGradient id="Безымянный_градиент_37-3" x1="2668.59" y1="1114.18" x2="3020.81" y2="1524.46" xlink:href="#Безымянный_градиент_37"/><linearGradient id="Безымянный_градиент_37-4" x1="2792.92" y1="1083.1" x2="2833.89" y2="1130.82" xlink:href="#Безымянный_градиент_37"/><linearGradient id="Безымянный_градиент_37-5" x1="2591.36" y1="1339.39" x2="2966.24" y2="1137.33" xlink:href="#Безымянный_градиент_37"/></defs><title>web-development</title><g class="cls-2"><g id="Слой_1" data-name="Слой 1"><path class="cls-3" d="M1245.92,1557.92s-268.78-339.24-155.46-323.07,206.32,171.91,206.32,171.91-107.51-416.88-72.73-436.2,26.84-56.85-8.77-153.76,99.35-34,116.19,33.93,69.51,247.19,130.6,292.79,92.07,78.46,92.07,78.46l382.65-336.85S2055.87,753,2125.94,732s-50.85,120.4-41,130.77S2322,578.79,2385.37,636.87s-134.77,221.8-134.77,221.8L2773,885.13s231.44-2.94,263.7-58,84.1-55.08,115-55.08,123.18,26,49.49,68.41-77.13,50-63.37,108.09-57.56,168-139.44,206.26-192.37,175-192.37,175l4,130.79s383-264.38,431.12-206-204.38,225.91-204.38,225.91,2.29,80.45-18.86,138.92-109.92,60.81-164,88.95,235.43-12.36,270-94.74,282.35-163.11,247.94-72.24-64.83,139.9-64.83,139.9,92,10.67,68.1,68.8-245,94.91-322,96.07-1418.94-8.85-1418.94-8.85Z" transform="translate(-1061.35 -546.35)"/><polygon class="cls-4" points="659.98 1083.77 687.13 1270 1725.92 1296.89 1751.57 1078.48 659.98 1083.77"/><path class="cls-5" d="M1798.42,1829.83s-48.84-496.12-313.51-648-278.2-171.31-278.2-171.31-15,352.19,162.08,568.67,365.23,260,365.23,260Z" transform="translate(-1061.35 -546.35)"/><path class="cls-6" d="M1696.15,1845.46s-73.43-271.26-292.3-319.32-342.5,14-342.5,14,115.87,326.43,285.75,345.37C1538.53,1906.83,1696.15,1845.46,1696.15,1845.46Z" transform="translate(-1061.35 -546.35)"/><path class="cls-7" d="M1709.65,1847.4a3.88,3.88,0,0,1-2.69-1.07c-.7-.66-71.34-66.84-179.93-133.29C1427,1651.8,1273.27,1577.8,1109.33,1573a3.91,3.91,0,1,1,.23-7.82c73.22,2.15,150.49,18,229.66,47.08,63.26,23.24,127.88,54.94,192,94.23,109.24,66.87,180.36,133.52,181.06,134.18a3.91,3.91,0,0,1-2.68,6.76Z" transform="translate(-1061.35 -546.35)"/><path class="cls-7" d="M1736,1820.26a3.92,3.92,0,0,1-3.69-2.6c-.5-1.43-51.56-144.45-140.19-317.69-50-97.82-124.6-166.76-196.7-233.44-55.66-51.47-108.24-100.09-142.59-157a3.91,3.91,0,0,1,6.7-4c33.78,55.93,86,104.18,141.2,155.26,72.61,67.14,147.69,136.57,198.36,235.63,88.88,173.73,140.09,317.2,140.6,318.63a3.92,3.92,0,0,1-2.38,5A4,4,0,0,1,1736,1820.26Z" transform="translate(-1061.35 -546.35)"/><path class="cls-7" d="M1190.42,1702.74a3.92,3.92,0,0,1-2-7.29,414.35,414.35,0,0,1,150.52-52.7c39.75-5.63,65.42-3.2,66.5-3.09a3.91,3.91,0,0,1-.77,7.79c-.26,0-26-2.45-64.91,3.09a406.56,406.56,0,0,0-147.38,51.65A3.85,3.85,0,0,1,1190.42,1702.74Z" transform="translate(-1061.35 -546.35)"/><path class="cls-7" d="M1294.42,1806.94a3.92,3.92,0,0,1-2.73-6.72c.86-.84,21.63-20.91,60.26-43.39a443.43,443.43,0,0,1,167.84-56.36,3.91,3.91,0,0,1,.94,7.77,435.47,435.47,0,0,0-164.84,55.35c-37.8,22-58.53,42-58.74,42.23A3.88,3.88,0,0,1,1294.42,1806.94Z" transform="translate(-1061.35 -546.35)"/><path class="cls-7" d="M1434.24,1352.22c-5.59,0-11.59-.12-18-.4-37-1.64-93.63-9.37-153.46-36.92a3.92,3.92,0,0,1,3.28-7.11c58.67,27,114.24,34.6,150.53,36.21,39.25,1.73,64.82-3,65.07-3a3.91,3.91,0,1,1,1.44,7.69C1482.25,1348.87,1463.94,1352.22,1434.24,1352.22Z" transform="translate(-1061.35 -546.35)"/><path class="cls-7" d="M1496.28,1491.11c-36.49,0-87.24-4.3-151.3-19.85a3.91,3.91,0,1,1,1.85-7.6c81.73,19.84,141.37,21.13,177,18.73,38.57-2.61,58.09-10,58.28-10.07a3.91,3.91,0,0,1,2.83,7.3c-.82.32-20.48,7.81-60.06,10.54C1516.61,1490.73,1507.07,1491.11,1496.28,1491.11Z" transform="translate(-1061.35 -546.35)"/><path class="cls-4" d="M3121.63,1866c-22.34-8.85-48.74-18.41-76.48-28.69-132.28-49-531.36-103.87-849.63-82.37-87.69,5.92-337.94,37-459.54,38.45-134,1.61-66.17,60.94-394.66,73.41s-178,45.69-43.58,78.28c88.59,21.47,341.74,14.64,599.44,7.48-7.69,1-6.8,1,4.53-.12,40.89-1.14,81.87-2.28,122.3-3.31,150.44,1.79,368.86,16.25,530.5,17.59,215,1.77,637.56,13,674.78-36.67C3248.08,1905,3197,1882.36,3121.63,1866Z" transform="translate(-1061.35 -546.35)"/><path class="cls-8" d="M1754.77,925.78a234.26,234.26,0,0,0,1.47-26.1c0-4.65-.15-9.27-.42-13.86l-43.13-14a189.45,189.45,0,0,0-15.27-51.67L1726,785a233.25,233.25,0,0,0-22.66-32.92l-43.13,14.07a191.72,191.72,0,0,0-42.7-32.82L1620,688a230.65,230.65,0,0,0-37.65-13.34l-26.64,36.75a191.8,191.8,0,0,0-53.84-1.41L1477.2,671.9a230.69,230.69,0,0,0-38.31,11.32l.06,45.38a191.4,191.4,0,0,0-44.38,30.53l-42.31-16.33a233.08,233.08,0,0,0-24.37,31.68l26.7,36.66a190,190,0,0,0-18,50.79l-43.8,11.65a234.41,234.41,0,0,0-1.46,26.1c0,4.66.15,9.28.42,13.87l43.12,14a189.8,189.8,0,0,0,15.27,51.67l-28.59,35.19a232.71,232.71,0,0,0,22.65,32.93l43.13-14.07A191.72,191.72,0,0,0,1430,1066l-2.45,45.31a230.35,230.35,0,0,0,37.65,13.35l26.63-36.76a191.87,191.87,0,0,0,53.85,1.41l24.65,38.12a231.08,231.08,0,0,0,38.31-11.32l-.05-45.39a191.2,191.2,0,0,0,44.37-30.52l42.32,16.33a233.1,233.1,0,0,0,24.36-31.69L1693,988.23a189.38,189.38,0,0,0,18-50.79Zm-231,65.08A91.18,91.18,0,1,1,1615,899.68,91.17,91.17,0,0,1,1523.78,990.86Z" transform="translate(-1061.35 -546.35)"/><path class="cls-9" d="M3203.41,1761a289.08,289.08,0,0,0,16-27.89c2.57-5.12,4.94-10.29,7.17-15.48l-39.75-39.09a232.82,232.82,0,0,0,11.65-65.22l50.82-23a287,287,0,0,0-6.79-48.68l-55.18-8.26a235.64,235.64,0,0,0-28.89-59.6l27.64-48.48a283.61,283.61,0,0,0-34.06-35.4l-49.52,25.76a236,236,0,0,0-33.63-20.51,238.48,238.48,0,0,0-24.8-10.68l-6.14-55.49a284.38,284.38,0,0,0-48.36-8.63l-24.92,49.94a235.08,235.08,0,0,0-65.6,9.14l-37.55-41.25a288,288,0,0,0-44.23,21.43l9.18,55a233.53,233.53,0,0,0-47.75,45.95l-54.58-11.29a289.08,289.08,0,0,0-16,27.89q-3.84,7.68-7.16,15.48l39.74,39.08a233.31,233.31,0,0,0-11.65,65.23l-50.81,23a287,287,0,0,0,6.78,48.68l55.18,8.26a236,236,0,0,0,28.89,59.6L2741.45,1785a283.61,283.61,0,0,0,34.06,35.4l49.52-25.76a235.43,235.43,0,0,0,58.44,31.19l6.13,55.49a284.38,284.38,0,0,0,48.36,8.63l24.92-49.94a235.08,235.08,0,0,0,65.6-9.14L3066,1872.1a287.68,287.68,0,0,0,44.24-21.43l-9.19-55a232.71,232.71,0,0,0,47.75-45.94Zm-289.84-55.58A112.12,112.12,0,1,1,3064,1655.34,112.12,112.12,0,0,1,2913.57,1705.42Z" transform="translate(-1061.35 -546.35)"/><path class="cls-10" d="M3045.15,1788.82a4.61,4.61,0,0,1-1.85-8.83,189.26,189.26,0,0,0,111.41-148.1,4.62,4.62,0,0,1,9.15,1.22A198.49,198.49,0,0,1,3047,1788.43,4.49,4.49,0,0,1,3045.15,1788.82Z" transform="translate(-1061.35 -546.35)"/><path class="cls-10" d="M3149.08,1544.91a4.62,4.62,0,0,1-4.33-3,187.77,187.77,0,0,0-40.23-65,4.61,4.61,0,0,1,6.69-6.35,197,197,0,0,1,42.2,68.13,4.6,4.6,0,0,1-2.74,5.91A4.46,4.46,0,0,1,3149.08,1544.91Z" transform="translate(-1061.35 -546.35)"/><path class="cls-10" d="M3054,1438.49a4.66,4.66,0,0,1-2.07-.49,189.77,189.77,0,0,0-44-15.64,4.61,4.61,0,1,1,2-9,198.91,198.91,0,0,1,46.2,16.39,4.61,4.61,0,0,1-2.06,8.74Z" transform="translate(-1061.35 -546.35)"/><path class="cls-11" d="M2887.54,1395.13a180.58,180.58,0,0,0,19.57,5.14q5.29,1.08,10.58,1.82l17.24-30.56a146.55,146.55,0,0,0,41.55-3.6l22.28,27.12a181,181,0,0,0,28.47-12.1l-4-34.89a148.54,148.54,0,0,0,31.49-27.32l34,8.85a178.36,178.36,0,0,0,15.94-26.5l-23.77-25.87a148.65,148.65,0,0,0,9.38-40.63l32.71-12.82a178.77,178.77,0,0,0-2.67-30.8l-34.43-7a148.33,148.33,0,0,0-16.31-38.37l18.92-29.57a181,181,0,0,0-20.28-23.38l-31.92,14.6a146.49,146.49,0,0,0-35.75-21.49l-2.08-35a183.57,183.57,0,0,0-19.57-5.15q-5.3-1.06-10.58-1.81L2951,1076.37a146.55,146.55,0,0,0-41.55,3.6l-22.28-27.12a179.64,179.64,0,0,0-28.47,12.1l4,34.89a148.21,148.21,0,0,0-31.48,27.32l-34-8.85a178.36,178.36,0,0,0-15.94,26.5l23.77,25.87a148.65,148.65,0,0,0-9.38,40.63L2763,1224.13a178.86,178.86,0,0,0,2.68,30.8l34.43,7a148.25,148.25,0,0,0,16.31,38.38l-18.92,29.57a180.88,180.88,0,0,0,20.27,23.38l31.93-14.6a146.8,146.8,0,0,0,35.75,21.49Zm-13.71-185.25a70.57,70.57,0,1,1,55.08,83.23A70.57,70.57,0,0,1,2873.83,1209.88Z" transform="translate(-1061.35 -546.35)"/><path class="cls-12" d="M2983.9,1210.75a42.41,42.41,0,1,1-48.21-35.69A42.42,42.42,0,0,1,2983.9,1210.75Z" transform="translate(-1061.35 -546.35)"/><path class="cls-13" d="M2443.53,1817.91V1624.82H1996.26v193.09H1850.84a48.87,48.87,0,0,0-48.88,48.88v11.88a15.89,15.89,0,0,0,15.89,15.89h804.09a15.89,15.89,0,0,0,15.89-15.89v-11.88a48.87,48.87,0,0,0-48.88-48.88Z" transform="translate(-1061.35 -546.35)"/><polygon class="cls-14" points="934.91 1210.83 1382.17 1176.35 1382.17 1095.02 934.91 1099.76 934.91 1210.83"/><polygon class="cls-14" points="1382.17 1239.9 934.91 1271.56 1382.17 1271.56 1382.17 1239.9"/><rect class="cls-15" x="459.62" y="270.46" width="1397.84" height="852.14" rx="25.96"/><path class="cls-16" d="M522.27,305.2H1794.82a23.37,23.37,0,0,1,23.37,23.37V1013a23.36,23.36,0,0,1-23.36,23.36H522.27A23.37,23.37,0,0,1,498.9,1013V328.56A23.37,23.37,0,0,1,522.27,305.2Z"/><rect class="cls-17" x="1099.89" y="1072.52" width="117.3" height="22.5" rx="10.6"/><rect class="cls-18" x="1217.19" y="1285.29" width="327.35" height="23.2" rx="11.21"/><path class="cls-19" d="M2232.11,920.43c69.94,0,161.83-26.31,190.22-35,4.3-1.31,8.73,1.62,8.73,5.77v194.55c0,150.33-195.91,272.19-195.91,272.19s-195.9-121.86-195.9-272.19V900.24c0-4,4.1-6.9,8.31-5.89C2074.57,900.82,2162.19,920.43,2232.11,920.43Z" transform="translate(-1061.35 -546.35)"/><path class="cls-4" d="M2217,903.75c66.47,0,153.79-25,180.77-33.25,4.08-1.25,8.29,1.54,8.29,5.48v184.88c0,142.86-186.17,258.66-186.17,258.66s-186.16-115.8-186.16-258.66V884.56c0-3.79,3.9-6.55,7.89-5.59C2067.29,885.11,2150.55,903.75,2217,903.75Z" transform="translate(-1061.35 -546.35)"/><path class="cls-20" d="M2219.89,934.16c49.87,0,111.86-16.36,143-29.26,9.29-3.85,19.81,2.38,19.81,11.73V1065c0,124.93-162.81,226.21-162.81,226.21s-162.8-101.28-162.8-226.21V923.08c0-9,9.76-15.19,18.94-12.06C2106.87,921.55,2169.56,934.16,2219.89,934.16Z" transform="translate(-1061.35 -546.35)"/><path class="cls-18" d="M2221.61,974.4v277.31s-129.48-82.5-129.48-180.54V958.79c0-6.55,7.15-11.07,13.83-8.75C2130.14,958.44,2181.37,974.4,2221.61,974.4Z" transform="translate(-1061.35 -546.35)"/><path class="cls-18" d="M2221.61,974.4v277.31s134.11-82.5,134.11-180.54V958.53c0-6.48-7-11-13.66-8.81C2317,958,2262.36,974.4,2221.61,974.4Z" transform="translate(-1061.35 -546.35)"/><path class="cls-17" d="M2170.72,1041.15c2,1.45,3.94,3,5.83,4.5s3.77,3.06,5.56,4.75,3.6,3.35,5.35,5.08c.87.87,1.78,1.72,2.62,2.6l2.5,2.67c1.68,1.77,3.31,3.59,4.93,5.41s3.12,3.74,4.69,5.62,3,3.82,4.51,5.76c.75,1,1.48,1.94,2.2,2.93s1.46,2,2.14,3c1.4,2,2.76,4,4.13,6s2.63,4.11,3.92,6.19,2.52,4.19,3.73,6.32l1.8,3.2c.58,1.08,1.13,2.17,1.7,3.26s1.13,2.17,1.67,3.28l1.56,3.34c1,2.22,2,4.49,2.94,6.78s1.8,4.61,2.62,7c.42,1.19.81,2.37,1.2,3.6.19.62.39,1.19.57,1.84l.6,2-25.67-1.55c.53-1,1-1.75,1.47-2.6l1.46-2.48c1-1.64,2-3.27,3-4.89l6.05-9.63,12.14-19.1q6.12-9.49,12.64-18.73c4.33-6.17,8.88-12.18,13.51-18.13s9.48-11.75,14.48-17.4,10.19-11.15,15.57-16.45,11.05-10.32,16.93-15c2.93-2.37,6-4.62,9.08-6.76s6.27-4.18,9.53-6a1.39,1.39,0,0,1,1.6,2.26c-2.81,2.4-5.5,4.88-8.11,7.44s-5.12,5.22-7.58,7.92-4.83,5.47-7.13,8.3-4.54,5.71-6.75,8.6c-4.4,5.81-8.58,11.79-12.58,17.88-2,3.06-4,6.11-5.9,9.2s-3.82,6.21-5.68,9.35c-3.75,6.25-7.31,12.62-10.85,19s-6.91,12.84-10.24,19.32c-1.65,3.24-3.29,6.5-4.87,9.78s-3.08,6.6-4.52,10-2.85,6.7-4.21,10.06l-2,5-1.92,4.9-11.77,30.11L2211.21,1145,2206,1133c-.47-1-.91-2-1.35-3.09s-.93-2.06-1.36-3.1l-2.67-6.25-10.67-25.28c-.88-2.13-1.85-4.22-2.72-6.37l-1.34-3.21-1.38-3.2c-.9-2.14-1.84-4.27-2.71-6.45s-1.87-4.28-2.74-6.47-1.78-4.39-2.7-6.54-1.79-4.36-2.67-6.58-1.82-4.48-2.68-6.76-1.74-4.57-2.5-6.93a1.46,1.46,0,0,1,.94-1.84A1.49,1.49,0,0,1,2170.72,1041.15Z" transform="translate(-1061.35 -546.35)"/><g class="cls-21"><g class="cls-22"><path class="cls-23" d="M2085,1059.05c17.18,56,26.91,144.46,31.47,196.75-48-44.76-95.68-97.56-98.08-125.15-3-34.51-8.89-134-7.87-203.2C2030.34,951,2066.85,999.93,2085,1059.05Z" transform="translate(-1061.35 -546.35)"/><path class="cls-24" d="M2174.85,1171c-14.09-65.33-54.56-228.39-162.95-279,1.59-21.53,4.56-35.44,9.53-35.74,19.85-1.2,43.32,10.23,43.32,10.23,105.89-.6,157.63,160,162.44,187.72s-.6,272.07-10.83,278.63c-2.23,1.43-12.69-4.79-27.73-15.95C2188.25,1287.52,2186.07,1223,2174.85,1171Z" transform="translate(-1061.35 -546.35)"/></g></g><path class="cls-25" d="M2918.81,971.34H2578.32a9.8,9.8,0,0,0-9.77,9.77v49.7a9.8,9.8,0,0,0,9.77,9.77h340.49Z" transform="translate(-1061.35 -546.35)"/><rect class="cls-20" x="1484.39" y="402.19" width="483.06" height="69.24" rx="10.6"/><rect class="cls-10" x="1497.01" y="414.67" width="457.81" height="44.28" rx="8.25"/><path class="cls-20" d="M2610.36,996.87a3.68,3.68,0,0,1-3.67-3.67v-22a3.67,3.67,0,0,1,7.34,0v22A3.68,3.68,0,0,1,2610.36,996.87Z" transform="translate(-1061.35 -546.35)"/><path class="cls-20" d="M2622.62,990.26a3.68,3.68,0,0,1-5.08,1l-18.39-12.09a3.67,3.67,0,1,1,4-6.13l18.39,12.09A3.68,3.68,0,0,1,2622.62,990.26Z" transform="translate(-1061.35 -546.35)"/><path class="cls-20" d="M2598.29,990.55a3.69,3.69,0,0,1,.93-5.11l18.1-12.52a3.67,3.67,0,0,1,4.18,6l-18.1,12.53A3.68,3.68,0,0,1,2598.29,990.55Z" transform="translate(-1061.35 -546.35)"/><path class="cls-20" d="M2661.92,996.87a3.68,3.68,0,0,1-3.67-3.67v-22a3.67,3.67,0,0,1,7.34,0v22A3.69,3.69,0,0,1,2661.92,996.87Z" transform="translate(-1061.35 -546.35)"/><path class="cls-20" d="M2674.18,990.26a3.68,3.68,0,0,1-5.08,1l-18.39-12.09a3.67,3.67,0,1,1,4-6.13l18.39,12.09A3.68,3.68,0,0,1,2674.18,990.26Z" transform="translate(-1061.35 -546.35)"/><path class="cls-20" d="M2649.85,990.55a3.68,3.68,0,0,1,.93-5.11l18.1-12.52a3.67,3.67,0,1,1,4.17,6L2655,991.48A3.68,3.68,0,0,1,2649.85,990.55Z" transform="translate(-1061.35 -546.35)"/><path class="cls-20" d="M2713.48,996.87a3.68,3.68,0,0,1-3.67-3.67v-22a3.67,3.67,0,1,1,7.33,0v22A3.68,3.68,0,0,1,2713.48,996.87Z" transform="translate(-1061.35 -546.35)"/><path class="cls-20" d="M2725.74,990.26a3.68,3.68,0,0,1-5.08,1l-18.39-12.09a3.67,3.67,0,1,1,4-6.13l18.39,12.09A3.68,3.68,0,0,1,2725.74,990.26Z" transform="translate(-1061.35 -546.35)"/><path class="cls-20" d="M2701.41,990.55a3.68,3.68,0,0,1,.93-5.11l18.1-12.52a3.67,3.67,0,1,1,4.17,6l-18.09,12.53A3.68,3.68,0,0,1,2701.41,990.55Z" transform="translate(-1061.35 -546.35)"/><path class="cls-20" d="M2765,996.87a3.68,3.68,0,0,1-3.67-3.67v-22a3.67,3.67,0,1,1,7.33,0v22A3.68,3.68,0,0,1,2765,996.87Z" transform="translate(-1061.35 -546.35)"/><path class="cls-20" d="M2777.29,990.26a3.68,3.68,0,0,1-5.08,1l-18.39-12.09a3.67,3.67,0,1,1,4-6.13l18.4,12.09A3.68,3.68,0,0,1,2777.29,990.26Z" transform="translate(-1061.35 -546.35)"/><path class="cls-20" d="M2753,990.55a3.68,3.68,0,0,1,.93-5.11l18.1-12.52a3.67,3.67,0,1,1,4.17,6l-18.1,12.53A3.67,3.67,0,0,1,2753,990.55Z" transform="translate(-1061.35 -546.35)"/><path class="cls-20" d="M2816.59,996.87a3.69,3.69,0,0,1-3.67-3.67v-22a3.67,3.67,0,0,1,7.34,0v22A3.68,3.68,0,0,1,2816.59,996.87Z" transform="translate(-1061.35 -546.35)"/><path class="cls-20" d="M2828.85,990.26a3.68,3.68,0,0,1-5.08,1l-18.39-12.09a3.67,3.67,0,1,1,4-6.13l18.39,12.09A3.67,3.67,0,0,1,2828.85,990.26Z" transform="translate(-1061.35 -546.35)"/><path class="cls-20" d="M2804.53,990.55a3.68,3.68,0,0,1,.93-5.11l18.09-12.52a3.67,3.67,0,1,1,4.18,6l-18.1,12.53A3.67,3.67,0,0,1,2804.53,990.55Z" transform="translate(-1061.35 -546.35)"/><path class="cls-20" d="M2888.15,994.42h-30.82a2.45,2.45,0,0,1-2.45-2.45h0a2.45,2.45,0,0,1,2.45-2.44h30.82a2.45,2.45,0,0,1,2.45,2.44h0A2.45,2.45,0,0,1,2888.15,994.42Z" transform="translate(-1061.35 -546.35)"/><path class="cls-20" d="M2940.77,994.42h-30.83a2.45,2.45,0,0,1-2.44-2.45h0a2.44,2.44,0,0,1,2.44-2.44h30.83a2.45,2.45,0,0,1,2.44,2.44h0A2.45,2.45,0,0,1,2940.77,994.42Z" transform="translate(-1061.35 -546.35)"/><path class="cls-20" d="M2990.92,994.42H2960.1a2.45,2.45,0,0,1-2.45-2.45h0a2.45,2.45,0,0,1,2.45-2.44h30.82a2.45,2.45,0,0,1,2.45,2.44h0A2.45,2.45,0,0,1,2990.92,994.42Z" transform="translate(-1061.35 -546.35)"/><path class="cls-10" d="M1871.85,1209.93l-111.95,112a9.82,9.82,0,0,1-13.85,0l-112-112a9.82,9.82,0,0,1,0-13.85l112-111.95a9.82,9.82,0,0,1,13.85,0l111.95,111.95A9.82,9.82,0,0,1,1871.85,1209.93Z" transform="translate(-1061.35 -546.35)"/><path class="cls-18" d="M1863.6,1209.45l-104.19,104.18a9.12,9.12,0,0,1-12.88,0l-104.18-104.18a9.13,9.13,0,0,1,0-12.89l104.18-104.18a9.14,9.14,0,0,1,12.88,0l104.19,104.18A9.15,9.15,0,0,1,1863.6,1209.45Z" transform="translate(-1061.35 -546.35)"/><rect class="cls-10" x="570.37" y="646.44" width="242.49" height="151.56" rx="9.86"/><path class="cls-26" d="M1874.22,1201.22c0-4.65.38-4.61-4.25-7.56a12.82,12.82,0,0,0-4.85-.91c-240.52,0-225.85-.43-229.15.91-4.48,2.86-4.24,2.74-4.24,7.56,1,2.07-6.77-3.35,114.32,74a14.07,14.07,0,0,0,13.85,0C1881,1197.87,1873.16,1203.29,1874.22,1201.22Z" transform="translate(-1061.35 -546.35)"/><path class="cls-27" d="M1853.39,1082.28c0,18.86-22.56,34.15-50.39,34.15s-50.39-15.29-50.39-34.15,22.56-34.16,50.39-34.16S1853.39,1063.41,1853.39,1082.28Z" transform="translate(-1061.35 -546.35)"/><rect class="cls-27" x="711.84" y="548.11" width="59.61" height="39.4" rx="9.86"/><path class="cls-4" d="M1798,1077c0,8.37-5.54,23.52-12.38,23.52s-12.33-6.86-14.65-14.9c-3.28-11.37,3.79-16,10.36-17.94C1789.11,1065.41,1798,1068.62,1798,1077Z" transform="translate(-1061.35 -546.35)"/><path class="cls-4" d="M1806.46,1077c0,8.37,5.54,23.52,12.38,23.52s12.33-6.86,14.65-14.9c3.28-11.37-3.79-16-10.36-17.94C1815.3,1065.41,1806.46,1068.62,1806.46,1077Z" transform="translate(-1061.35 -546.35)"/><path class="cls-4" d="M1803,1096.48c5.56,0,7.33,18.44,4.8,19.2s-7.83,1.51-9.85,0S1799,1096.48,1803,1096.48Z" transform="translate(-1061.35 -546.35)"/><path class="cls-27" d="M1756,980.66c0,19.85-23.73,35.93-53,35.93s-53-16.08-53-35.93,23.73-35.92,53-35.92S1756,960.82,1756,980.66Z" transform="translate(-1061.35 -546.35)"/><rect class="cls-27" x="610.33" y="447.13" width="62.7" height="41.45" rx="10.37"/><path class="cls-4" d="M1697.72,975.11c0,8.8-5.83,24.74-13,24.74s-13-7.21-15.41-15.67c-3.46-12,4-16.86,10.89-18.86C1688.42,962.92,1697.72,966.31,1697.72,975.11Z" transform="translate(-1061.35 -546.35)"/><path class="cls-4" d="M1706.68,975.11c0,8.8,5.83,24.74,13,24.74s13-7.21,15.41-15.67c3.45-12-4-16.86-10.9-18.86C1716,962.92,1706.68,966.31,1706.68,975.11Z" transform="translate(-1061.35 -546.35)"/><path class="cls-4" d="M1703,995.6c5.84,0,7.7,19.4,5,20.19s-8.23,1.6-10.36,0S1698.79,995.6,1703,995.6Z" transform="translate(-1061.35 -546.35)"/><path class="cls-27" d="M1920.2,963.73c0,10.57-12.64,19.14-28.23,19.14s-28.23-8.57-28.23-19.14,12.64-19.13,28.23-19.13S1920.2,953.17,1920.2,963.73Z" transform="translate(-1061.35 -546.35)"/><rect class="cls-27" x="813.92" y="424.21" width="33.39" height="22.07" rx="5.52"/><path class="cls-4" d="M1889.14,960.78c0,4.68-3.1,13.18-6.93,13.18s-6.91-3.85-8.21-8.35c-1.84-6.37,2.12-9,5.8-10.05C1884.19,954.29,1889.14,956.09,1889.14,960.78Z" transform="translate(-1061.35 -546.35)"/><path class="cls-4" d="M1893.91,960.78c0,4.68,3.11,13.18,6.94,13.18s6.9-3.85,8.2-8.35c1.84-6.37-2.12-9-5.8-10.05C1898.86,954.29,1893.91,956.09,1893.91,960.78Z" transform="translate(-1061.35 -546.35)"/><path class="cls-4" d="M1892,971.69c3.11,0,4.11,10.33,2.69,10.75s-4.39.85-5.52,0S1889.71,971.69,1892,971.69Z" transform="translate(-1061.35 -546.35)"/><ellipse class="cls-27" cx="644.87" cy="611.72" rx="28.23" ry="19.13"/><rect class="cls-27" x="628.18" y="618.55" width="33.39" height="22.07" rx="5.52"/><path class="cls-4" d="M1703.4,1155.11c0,4.69-3.11,13.18-6.94,13.18s-6.9-3.84-8.2-8.35c-1.84-6.37,2.12-9,5.8-10C1698.44,1148.62,1703.4,1150.42,1703.4,1155.11Z" transform="translate(-1061.35 -546.35)"/><path class="cls-4" d="M1708.17,1155.11c0,4.69,3.1,13.18,6.93,13.18s6.91-3.84,8.21-8.35c1.84-6.37-2.13-9-5.8-10C1713.12,1148.62,1708.17,1150.42,1708.17,1155.11Z" transform="translate(-1061.35 -546.35)"/><path class="cls-4" d="M1706.23,1166c3.11,0,4.1,10.33,2.69,10.75s-4.39.85-5.52,0S1704,1166,1706.23,1166Z" transform="translate(-1061.35 -546.35)"/><ellipse class="cls-27" cx="730.23" cy="288.43" rx="66" ry="44.74"/><rect class="cls-27" x="691.19" y="304.38" width="78.07" height="51.61" rx="12.91"/><path class="cls-4" d="M1785,827.85c0,11-7.25,30.82-16.21,30.82s-16.14-9-19.18-19.52c-4.31-14.89,5-21,13.56-23.49C1773.38,812.68,1785,816.89,1785,827.85Z" transform="translate(-1061.35 -546.35)"/><path class="cls-4" d="M1796.12,827.85c0,11,7.25,30.82,16.21,30.82s16.14-9,19.18-19.52c4.3-14.89-5-21-13.56-23.49C1807.69,812.68,1796.12,816.89,1796.12,827.85Z" transform="translate(-1061.35 -546.35)"/><path class="cls-4" d="M1791.58,853.37c7.28,0,9.59,24.15,6.28,25.14s-10.25,2-12.9,0S1786.29,853.37,1791.58,853.37Z" transform="translate(-1061.35 -546.35)"/><path class="cls-27" d="M1854.32,1310.62h-81.77a2.46,2.46,0,0,1,0-4.92h81.77a2.46,2.46,0,1,1,0,4.92Z" transform="translate(-1061.35 -546.35)"/><path class="cls-27" d="M1854.32,1321.23h-81.77a2.47,2.47,0,0,1,0-4.93h81.77a2.47,2.47,0,1,1,0,4.93Z" transform="translate(-1061.35 -546.35)"/><path class="cls-28" d="M1792,890.37a75.68,75.68,0,1,1,75.67-75.68A75.77,75.77,0,0,1,1792,890.37Zm0-140.29a64.61,64.61,0,1,0,64.61,64.61A64.68,64.68,0,0,0,1792,750.08Z" transform="translate(-1061.35 -546.35)"/><path class="cls-28" d="M1792,846a31.28,31.28,0,1,1,31.28-31.28A31.32,31.32,0,0,1,1792,846Zm0-51.49a20.21,20.21,0,1,0,20.21,20.21A20.23,20.23,0,0,0,1792,794.48Z" transform="translate(-1061.35 -546.35)"/><path class="cls-28" d="M1881.8,820.22H1701.35a5.53,5.53,0,1,1,0-11.06H1881.8a5.53,5.53,0,1,1,0,11.06Z" transform="translate(-1061.35 -546.35)"/><path class="cls-28" d="M1792,905.22a5.54,5.54,0,0,1-5.54-5.54V728.05a5.54,5.54,0,0,1,11.07,0V899.68A5.54,5.54,0,0,1,1792,905.22Z" transform="translate(-1061.35 -546.35)"/><path class="cls-28" d="M1668.76,1089.58a66.83,66.83,0,1,1,66.83-66.83A66.91,66.91,0,0,1,1668.76,1089.58Zm0-122.59a55.76,55.76,0,1,0,55.76,55.76A55.82,55.82,0,0,0,1668.76,967Z" transform="translate(-1061.35 -546.35)"/><path class="cls-28" d="M1668.76,1050.79a28,28,0,1,1,28-28A28.06,28.06,0,0,1,1668.76,1050.79Zm0-45a17,17,0,1,0,17,17A17,17,0,0,0,1668.76,1005.79Z" transform="translate(-1061.35 -546.35)"/><path class="cls-28" d="M1747.26,1028.29H1589.58a5.54,5.54,0,0,1,0-11.07h157.68a5.54,5.54,0,1,1,0,11.07Z" transform="translate(-1061.35 -546.35)"/><path class="cls-28" d="M1668.76,1102.56a5.53,5.53,0,0,1-5.53-5.54v-150a5.53,5.53,0,0,1,11.06,0v150A5.53,5.53,0,0,1,1668.76,1102.56Z" transform="translate(-1061.35 -546.35)"/><rect class="cls-29" x="1308.88" y="799.99" width="351.02" height="158.63" rx="7.22"/><rect class="cls-10" x="1318.47" y="841.66" width="331.82" height="109.51" rx="5.83"/><rect class="cls-10" x="1323.35" y="811.66" width="13.75" height="12.38" rx="3.23"/><rect class="cls-10" x="1348.35" y="811.66" width="13.75" height="12.38" rx="3.23"/><rect class="cls-10" x="1373.35" y="811.66" width="13.75" height="12.38" rx="3.23"/><path class="cls-29" d="M2698.15,1412H2522.63a5.25,5.25,0,0,1,0-10.5h175.52a5.25,5.25,0,0,1,0,10.5Z" transform="translate(-1061.35 -546.35)"/><path class="cls-29" d="M2566.13,1493H2390.62a5.25,5.25,0,0,1,0-10.5h175.51a5.25,5.25,0,1,1,0,10.5Z" transform="translate(-1061.35 -546.35)"/><rect class="cls-29" x="1517.16" y="936.17" width="21.75" height="10.5" rx="1.95"/><rect class="cls-29" x="1544.54" y="936.17" width="21.75" height="10.5" rx="1.95"/><path class="cls-29" d="M2699.84,1434.89H2409.18a3.57,3.57,0,0,1,0-7.13h290.66a3.57,3.57,0,0,1,0,7.13Z" transform="translate(-1061.35 -546.35)"/><path class="cls-29" d="M2699.84,1450.26H2409.18a3.56,3.56,0,1,1,0-7.12h290.66a3.56,3.56,0,0,1,0,7.12Z" transform="translate(-1061.35 -546.35)"/><path class="cls-20" d="M2528.16,1169.61H2502.9a19.76,19.76,0,0,1-19.74-19.74v-25.25a19.76,19.76,0,0,1,19.74-19.74h25.26a19.76,19.76,0,0,1,19.74,19.74v25.25A19.76,19.76,0,0,1,2528.16,1169.61Zm-25.26-53.67a8.68,8.68,0,0,0-8.67,8.68v25.25a8.68,8.68,0,0,0,8.67,8.68h25.26a8.68,8.68,0,0,0,8.67-8.68v-25.25a8.68,8.68,0,0,0-8.67-8.68Z" transform="translate(-1061.35 -546.35)"/><g class="cls-30"><path class="cls-20" d="M2528.16,1277.87H2502.9a20.69,20.69,0,0,1-20.66-20.66V1232a20.69,20.69,0,0,1,20.66-20.67h25.26a20.69,20.69,0,0,1,20.66,20.67v25.25A20.69,20.69,0,0,1,2528.16,1277.87Zm-25.26-53.67a7.77,7.77,0,0,0-7.75,7.76v25.25a7.76,7.76,0,0,0,7.75,7.75h25.26a7.76,7.76,0,0,0,7.75-7.75V1232a7.77,7.77,0,0,0-7.75-7.76Z" transform="translate(-1061.35 -546.35)"/></g><path class="cls-28" d="M2517.11,1155.41h-.27a5.53,5.53,0,0,1-4.12-2.16l-18.16-23.68a5.54,5.54,0,1,1,8.79-6.73l14.17,18.49,39.74-42.58a5.53,5.53,0,0,1,8.09,7.55l-44.2,47.36A5.54,5.54,0,0,1,2517.11,1155.41Z" transform="translate(-1061.35 -546.35)"/><path class="cls-28" d="M2517.11,1262.74h-.27a5.53,5.53,0,0,1-4.12-2.16l-18.16-23.68a5.54,5.54,0,1,1,8.79-6.73l14.17,18.49,39.74-42.58a5.53,5.53,0,0,1,8.09,7.55l-44.2,47.36A5.53,5.53,0,0,1,2517.11,1262.74Z" transform="translate(-1061.35 -546.35)"/><path class="cls-20" d="M2590.17,1131.36h190.75a6,6,0,1,0,0-12.09H2590.17a6,6,0,0,0,0,12.09Z" transform="translate(-1061.35 -546.35)"/><path class="cls-20" d="M2590.17,1155h141.88a6,6,0,0,0,0-12.09H2590.17a6,6,0,0,0,0,12.09Z" transform="translate(-1061.35 -546.35)"/><path class="cls-20" d="M2590.17,1238.81h190.75a6,6,0,1,0,0-12.09H2590.17a6,6,0,0,0,0,12.09Z" transform="translate(-1061.35 -546.35)"/><path class="cls-20" d="M2590.17,1262.46H2757.3a6,6,0,0,0,0-12.09H2590.17a6,6,0,0,0,0,12.09Z" transform="translate(-1061.35 -546.35)"/><rect class="cls-29" x="919.23" y="817.85" width="214.94" height="122.91" rx="3.53"/><path class="cls-10" d="M927.23,823.26h198.92a3.3,3.3,0,0,1,3.3,3.3V932a3.29,3.29,0,0,1-3.29,3.29H927.23a3.29,3.29,0,0,1-3.29-3.29V826.56A3.29,3.29,0,0,1,927.23,823.26Z"/><rect class="cls-29" x="929.62" y="830.13" width="194.15" height="98.34" rx="3.7"/><path class="cls-10" d="M2122.17,1425.65a34.12,34.12,0,1,1-34.12-34.12A34.13,34.13,0,0,1,2122.17,1425.65Z" transform="translate(-1061.35 -546.35)"/><path class="cls-29" d="M2117.43,1425.65a29.38,29.38,0,1,1-29.38-29.38A29.39,29.39,0,0,1,2117.43,1425.65Z" transform="translate(-1061.35 -546.35)"/><polygon class="cls-10" points="1041.18 877.73 1030.43 883.93 1019.7 890.13 1019.7 877.73 1019.7 865.33 1030.43 871.53 1041.18 877.73"/><path class="cls-25" d="M2141.15,1405.22H1980.58v78.35a3.53,3.53,0,0,0,3.53,3.53h160.57v-78.35A3.53,3.53,0,0,0,2141.15,1405.22Z" transform="translate(-1061.35 -546.35)"/><rect class="cls-29" x="849.65" y="865.39" width="214.94" height="122.91" rx="3.53"/><path class="cls-10" d="M857.66,870.8h198.92a3.3,3.3,0,0,1,3.3,3.3V979.59a3.29,3.29,0,0,1-3.29,3.29H857.66a3.29,3.29,0,0,1-3.29-3.29V874.1A3.3,3.3,0,0,1,857.66,870.8Z"/><path class="cls-29" d="M863.75,877.67h186.75a3.7,3.7,0,0,1,3.7,3.7v90.93a3.7,3.7,0,0,1-3.7,3.7H863.75a3.71,3.71,0,0,1-3.71-3.71V881.38A3.7,3.7,0,0,1,863.75,877.67Z"/><circle class="cls-10" cx="2018.47" cy="1473.19" r="34.12" transform="translate(-940.41 2552.85) rotate(-76.72)"/><circle class="cls-29" cx="2018.47" cy="1473.19" r="29.38" transform="translate(-940.41 2552.85) rotate(-76.72)"/><polygon class="cls-10" points="971.6 925.27 960.86 931.47 950.12 937.67 950.12 925.27 950.12 912.87 960.86 919.07 971.6 925.27"/><path class="cls-15" d="M2632.94,746.41a7.4,7.4,0,0,1-2.89-.59,17,17,0,0,1-10.4-15.7V682a7.38,7.38,0,1,1,14.75,0v48.08a2.34,2.34,0,0,0,1.43,2.12,7.38,7.38,0,0,1-2.89,14.17Z" transform="translate(-1061.35 -546.35)"/><path class="cls-31" d="M2945.88,638.11a104.45,104.45,0,0,0-10.68.34c.21-2,.35-4,.39-6,.93-46.4-45.3-85-103.25-86.12-47.51-1-88.15,23.53-101.76,58a96.06,96.06,0,0,0-32.7-6.34c-44.15-.88-80.52,27.33-81.23,63s34.49,65.34,78.63,66.23c29.84.6,223.09-.7,248.81-.18,37.54.75,68.37-18.55,68.86-43.11S2983.41,638.87,2945.88,638.11Z" transform="translate(-1061.35 -546.35)"/><path class="cls-10" d="M2829.66,564.79l2.31,0c23.86.48,46,8.23,62.26,21.82,15.11,12.61,23.25,28.77,22.92,45.49,0,1.41-.13,2.87-.29,4.35l-2.39,22.21,22.25-1.85c2.35-.19,4.73-.29,7.08-.29.56,0,1.14,0,1.71,0,14.4.29,28.16,4.21,37.76,10.77,3.43,2.35,11.39,8.63,11.24,16.25-.15,7.43-8,13.29-11.39,15.47-9.45,6.09-22.9,9.59-36.91,9.59l-1.75,0c-4.3-.09-13.17-.13-27.13-.13-22.79,0-55.44.11-90,.22-35.42.12-72.05.24-98.21.24-17.21,0-28.15-.05-33.46-.15-17.14-.35-33-5.93-44.63-15.73-10.51-8.86-16.17-20.11-15.93-31.69.49-24.8,27.75-45,60.76-45h1.66a77.35,77.35,0,0,1,26.4,5.1l17.08,6.62,6.74-17c5-12.74,15.49-24.31,29.43-32.58,15.14-9,33.3-13.74,52.5-13.74Zm0-18.44c-46.36,0-85.72,24.2-99.08,58a96.06,96.06,0,0,0-32.7-6.34l-2,0c-43.23,0-78.5,27.9-79.2,63-.72,35.69,34.49,65.34,78.63,66.23,5.84.11,17.95.16,33.83.16,51.18,0,141.62-.47,188.22-.47,12.81,0,22.3,0,26.76.13l2.12,0c36.58,0,66.26-19,66.74-43.13.5-24.56-29.54-45.08-67.07-45.84l-2.08,0c-2.92,0-5.78.13-8.6.36.21-2,.35-4,.39-6,.93-46.4-45.3-85-103.25-86.12-.89,0-1.79,0-2.68,0Z" transform="translate(-1061.35 -546.35)"/><rect class="cls-15" x="1551.54" y="181.05" width="88.49" height="67.35" rx="11.21"/><path class="cls-10" d="M2673.27,669.2c0,8.93-6.49,16.16-14.49,16.16s-14.5-7.23-14.5-16.16,6.49-16.16,14.5-16.16S2673.27,660.28,2673.27,669.2Z" transform="translate(-1061.35 -546.35)"/><path class="cls-15" d="M2679,747.17h-21.17a7.38,7.38,0,0,1,0-14.76H2679a2.32,2.32,0,0,0,2.29-2.29V679.24A2.32,2.32,0,0,0,2679,677h-19.28a7.38,7.38,0,0,1,0-14.75H2679a17.06,17.06,0,0,1,17,17v50.88A17.07,17.07,0,0,1,2679,747.17Z" transform="translate(-1061.35 -546.35)"/><path class="cls-32" d="M2666.13,753.7a9,9,0,1,0-13.63,7.7v11.41a4.64,4.64,0,1,0,9.27,0V761.4A9,9,0,0,0,2666.13,753.7Z" transform="translate(-1061.35 -546.35)"/><path class="cls-25" d="M1848.34,1561.2V1519a10.67,10.67,0,0,0-10.63-10.64H1521v63.51h316.74A10.67,10.67,0,0,0,1848.34,1561.2Z" transform="translate(-1061.35 -546.35)"/><path class="cls-25" d="M1837.71,1414H1521v63.5h316.74a10.66,10.66,0,0,0,10.63-10.63v-42.23A10.67,10.67,0,0,0,1837.71,1414Z" transform="translate(-1061.35 -546.35)"/><rect class="cls-4" x="426.48" y="849.92" width="342.78" height="63.5" rx="11.53"/><rect class="cls-10" x="442.82" y="858.87" width="310.1" height="45.6" rx="9.29"/><rect class="cls-4" x="426.48" y="944.26" width="342.78" height="63.5" rx="11.53"/><rect class="cls-10" x="442.82" y="953.21" width="310.1" height="45.6" rx="9.29"/><path class="cls-4" d="M1541.89,1428a7.34,7.34,0,1,1-7.34-7.34A7.34,7.34,0,0,1,1541.89,1428Zm26.78-7.34A7.34,7.34,0,1,0,1576,1428,7.34,7.34,0,0,0,1568.67,1420.68Zm34.12,0a7.34,7.34,0,1,0,7.34,7.34A7.34,7.34,0,0,0,1602.79,1420.68Zm34.12,0a7.34,7.34,0,1,0,7.34,7.34A7.34,7.34,0,0,0,1636.91,1420.68Zm34.12,0a7.34,7.34,0,1,0,7.34,7.34A7.34,7.34,0,0,0,1671,1420.68Zm34.12,0a7.34,7.34,0,1,0,7.35,7.34A7.34,7.34,0,0,0,1705.15,1420.68Z" transform="translate(-1061.35 -546.35)"/><path class="cls-4" d="M1541.89,1521.74a7.34,7.34,0,1,1-7.34-7.34A7.34,7.34,0,0,1,1541.89,1521.74Zm26.78-7.34a7.34,7.34,0,1,0,7.34,7.34A7.34,7.34,0,0,0,1568.67,1514.4Zm34.12,0a7.34,7.34,0,1,0,7.34,7.34A7.34,7.34,0,0,0,1602.79,1514.4Zm34.12,0a7.34,7.34,0,1,0,7.34,7.34A7.34,7.34,0,0,0,1636.91,1514.4Zm34.12,0a7.34,7.34,0,1,0,7.34,7.34A7.34,7.34,0,0,0,1671,1514.4Zm34.12,0a7.34,7.34,0,1,0,7.35,7.34A7.34,7.34,0,0,0,1705.15,1514.4Z" transform="translate(-1061.35 -546.35)"/><path class="cls-4" d="M1775,1439.62c-13.57,0-24.32-9.9-24.77-10.32a2.76,2.76,0,0,1,0-4c.45-.42,11.2-10.32,24.77-10.32s24.33,9.9,24.78,10.32a2.76,2.76,0,0,1,0,4C1799.3,1429.72,1788.55,1439.62,1775,1439.62Zm-18.46-12.34c3.58,2.6,10.59,6.81,18.46,6.81s14.88-4.2,18.47-6.81c-3.59-2.61-10.59-6.81-18.47-6.81S1760.08,1424.67,1756.51,1427.28Z" transform="translate(-1061.35 -546.35)"/><path class="cls-4" d="M1775,1438.46a11.18,11.18,0,1,1,11.18-11.18A11.19,11.19,0,0,1,1775,1438.46Zm0-16.82a5.64,5.64,0,1,0,5.65,5.64A5.65,5.65,0,0,0,1775,1421.64Z" transform="translate(-1061.35 -546.35)"/><rect class="cls-4" x="684.4" y="966.19" width="28.09" height="20.18" rx="7.71"/><path class="cls-4" d="M1797.35,1528.79h-48.26a2.77,2.77,0,1,1,0-5.54h45.5V1516a2.77,2.77,0,1,1,5.53,0v10A2.77,2.77,0,0,1,1797.35,1528.79Z" transform="translate(-1061.35 -546.35)"/><path class="cls-4" d="M1790.87,1528.35a2.77,2.77,0,0,1-2.77-2.77v-8.21a2.77,2.77,0,0,1,5.54,0v8.21A2.77,2.77,0,0,1,1790.87,1528.35Z" transform="translate(-1061.35 -546.35)"/><path class="cls-4" d="M1780.76,1528.35a2.77,2.77,0,0,1-2.77-2.77v-11.14a2.77,2.77,0,0,1,5.53,0v11.14A2.77,2.77,0,0,1,1780.76,1528.35Z" transform="translate(-1061.35 -546.35)"/><path class="cls-10" d="M1751.15,1526a2.07,2.07,0,0,1-2.06-2.06v-3.2a2.06,2.06,0,0,1,4.12,0v3.2A2.06,2.06,0,0,1,1751.15,1526Z" transform="translate(-1061.35 -546.35)"/><path class="cls-33" d="M1495.64,1880s-181.15-125.83-257.78-53.28c-61.18,57.93,47.43,126,186.37,107.69,97.79-12.88,108.88,5.83,126,5.42,127.47-9.77,299.22-47.9,215.64-107.82-113.87-81.62-190.89,4.91-230.56,26.45Z" transform="translate(-1061.35 -546.35)"/><path class="cls-34" d="M1729.85,1829c-47.61-9.82-229,57.44-229,57.44s-157.95-47.62-195.74-52.15-55.16,9.83-55.16,9.83,17.83-20.1,38.54-21.92,50.63-6.8,50.63-6.8,302.3-14.36,342.35-5.29S1729.85,1829,1729.85,1829Z" transform="translate(-1061.35 -546.35)"/><path class="cls-35" d="M1473,1584.12c-7.18,1.13-118.85,49.84-120.22,70.25s30.59,185.93,92.41,207.47,131,0,131,0,72.55-179.1,51-213.11-119-64.61-119-64.61Z" transform="translate(-1061.35 -546.35)"/><path class="cls-36" d="M1390.9,1622.67c-106.68,57.17-132.88,160.38-104.67,183.12,19.77,16,94.32,51.2,158.93,48.94s125.3,3.81,125.3,3.81,110.84-22.55,132.94-55.77-39.22-141.12-94.21-172.31S1390.9,1622.67,1390.9,1622.67Z" transform="translate(-1061.35 -546.35)"/><path class="cls-37" d="M1492.62,1648.73a26.9,26.9,0,0,1-26.83-26.83v-90.3a26.83,26.83,0,0,1,53.66,0v90.3A26.91,26.91,0,0,1,1492.62,1648.73Z" transform="translate(-1061.35 -546.35)"/><path class="cls-38" d="M1492.62,1504.77a26.9,26.9,0,0,0-26.83,26.83v73.84c15.82,13.22,31.13,6.29,53.66-11.16V1531.6A26.91,26.91,0,0,0,1492.62,1504.77Z" transform="translate(-1061.35 -546.35)"/><path class="cls-37" d="M1551.5,1535.25c-4.41,9-11.57,14-16,11.15s-4.44-12.45,0-21.45,11.57-14,16-11.15S1555.91,1526.25,1551.5,1535.25Z" transform="translate(-1061.35 -546.35)"/><path class="cls-37" d="M1447.7,1525.62c5.09,8.19,6.07,18.09,2.18,22.11s-11.18.63-16.27-7.56-6.08-18.08-2.19-22.1S1442.6,1517.43,1447.7,1525.62Z" transform="translate(-1061.35 -546.35)"/><path class="cls-37" d="M1540,1534.67c0,32.82-20.66,59.42-46.14,59.42s-46.14-26.6-46.14-59.42,20.66-59.41,46.14-59.41S1540,1501.86,1540,1534.67Z" transform="translate(-1061.35 -546.35)"/><path class="cls-28" d="M1594.43,1681.72c30.23,16.12,56.57,77.22,56.57,77.22s-68,10.58-82.12,21.16,2-4,10.08-33.25S1594.43,1681.72,1594.43,1681.72Z" transform="translate(-1061.35 -546.35)"/><path class="cls-28" d="M1384,1677.32c7.06,32.24,40.81,122.27,40.81,122.27s-31.26-35.61-64.49-37.63-45.55-2.52-45.34,5.54c0,1.6,5.54-35.77,31.24-58.94S1384,1677.32,1384,1677.32Z" transform="translate(-1061.35 -546.35)"/><path class="cls-17" d="M1586.61,1880.32H1404.07a15.06,15.06,0,0,1-14.85-12.57l-22-131.36a15.05,15.05,0,0,1,14.85-17.54h226.56a15.05,15.05,0,0,1,14.84,17.54l-22,131.36A15,15,0,0,1,1586.61,1880.32Z" transform="translate(-1061.35 -546.35)"/><path class="cls-39" d="M1586.61,1880.32H1404.07a14.91,14.91,0,0,1-14.85-12.11l-22-126.62c-1.54-8.85,5.54-16.91,14.85-16.91h226.56c9.3,0,16.38,8.06,14.84,16.91l-22,126.62A14.89,14.89,0,0,1,1586.61,1880.32Z" transform="translate(-1061.35 -546.35)"/><path class="cls-34" d="M1519.45,1932.07c-1.1-.19-117.89-29.42-144-7.88s87.29,21.9,107.69,17.18S1519.45,1932.07,1519.45,1932.07Z" transform="translate(-1061.35 -546.35)"/><path class="cls-34" d="M1545.52,1937.31s24.94-18.79,57.81-15.39,61.21,10.57,32.87,19.45-57.81,10-71.41,8.89S1545.52,1937.31,1545.52,1937.31Z" transform="translate(-1061.35 -546.35)"/><path class="cls-34" d="M1479.1,1450.92c-30,9.09-19.54,93.47,14.72,90.69s35.66-39.26,33.23-62.89S1510,1441.54,1479.1,1450.92Z" transform="translate(-1061.35 -546.35)"/><path class="cls-34" d="M1468.32,1513.46c-8.33-8-19.8,17.16-15.28,28.22s-1.81,17.48,4.31,29.38-11.26-7.56-13.7-21.81-3.82-38.91-7.29-50,.17-30.4,15.66-34.4,19.08-11.12,25-11.47,34,2.44,48,10.08,21.54,19.11,20.5,36.48-5.56,61.85-9.73,69.15-6.32,5.57-5.07,1.39,5.77-29.19,2.29-38.22-1.73-31.27-10.77-33-7,13.67-17.72,14.82S1468.32,1513.46,1468.32,1513.46Z" transform="translate(-1061.35 -546.35)"/><path class="cls-34" d="M2818,1886.5s-7.27,28.07-32,35.16-48.83,20.84-14.09,21.26c38.11.47,60-1.32,75.79-4s5.46-30.58,2.94-43.87S2818,1886.5,2818,1886.5Z" transform="translate(-1061.35 -546.35)"/><path class="cls-34" d="M3020.54,1868.28s4.87,51.6-7.54,56-26.58,15.07-8.86,15.07,39.66,4.19,45.39-15.07c7-23.48,22.82-27.44,17.18-39.4s-22.69-34.15-22.69-34.15Z" transform="translate(-1061.35 -546.35)"/><path class="cls-33" d="M2761.91,1325.06l48.93,573.33s25.42,11.75,43.75,13.53,56.22-250.74,53-298.49,33.12-199.38,24.7-248.52S2761.91,1325.06,2761.91,1325.06Z" transform="translate(-1061.35 -546.35)"/><path class="cls-34" d="M2859.83,1328.34c-3.46-.47-6.93-.88-10.42-1.25l-84.53,32.72,15.59,182.7c40.51,89,84.93,169.93,109.28,224.26,11.09-64.62,19.34-131.13,17.84-153.34-1.54-23,6.08-70.08,13.46-118.21Z" transform="translate(-1061.35 -546.35)"/><path class="cls-33" d="M2786,1418.66c47.44,210.89,233.95,467.84,233.75,467.84s34.87-6,36.64-22-19.91-174.76-67.35-220.93-50.68-265.37-50.68-265.37Z" transform="translate(-1061.35 -546.35)"/><path class="cls-28" d="M2897.9,1123.85c53.36,53.67,87.59,146,88,168.8s-61.53,63.59-61.53,63.59Z" transform="translate(-1061.35 -546.35)"/><polygon class="cls-37" points="1776.51 459.07 1797.64 564.22 1739.84 626.44 1732.16 498.93 1776.51 459.07"/><path class="cls-40" d="M2859,1077.77s27.26,9.57,57.6,86.59S2968,1431.18,2968,1431.18s-58.3,49.5-141.76,49.48c-53.19,0-80-12-80-12s-5.32-178.89,0-243.46S2832.66,1076.15,2859,1077.77Z" transform="translate(-1061.35 -546.35)"/><path class="cls-38" d="M2815.67,1093.91c17.17-20,23.54-50.57,25.9-70l-3.34-16.62-4.3,1.68-40.42,36.34,3.95,65.59A102.42,102.42,0,0,0,2815.67,1093.91Z" transform="translate(-1061.35 -546.35)"/><path class="cls-37" d="M2824.66,1028.58c-6.64,31.3-31.41,52.56-55.33,47.49s-37.94-34.55-31.3-65.85,31.4-52.56,55.32-47.49S2831.29,997.29,2824.66,1028.58Z" transform="translate(-1061.35 -546.35)"/><path class="cls-41" d="M2850.82,1054l18.11,30.59-96,71.75s7.23-33.25,9.16-45.49S2849.3,1051.45,2850.82,1054Z" transform="translate(-1061.35 -546.35)"/><path class="cls-15" d="M2737.16,941.48c-40.31,12.67-7.36,63.47,5.59,63.93s17.68-11.6,28.31-8.81,20.68-16.13,27.18-12,2.36,42.54,0,49,8.27,7.09,8.27,7.09,4.33-27.18,11-25.41,11.67,20.68,21.29,25.41l9.63,4.72s5.91-41,14.77-48.86,3.31-35-9.27-40.35-15.63-29.54-33-31.32S2789.38,935,2766.34,932,2748.44,937.93,2737.16,941.48Z" transform="translate(-1061.35 -546.35)"/><path class="cls-37" d="M2834.83,1022c-3.32,7.8-10.7,12.14-16.48,9.68s-7.78-10.78-4.47-18.58,10.7-12.14,16.48-9.68S2838.14,1014.18,2834.83,1022Z" transform="translate(-1061.35 -546.35)"/><path class="cls-28" d="M2878.61,1135s-98.9,110-134.5,144c-.49,31.67-.24,68.58.23,101.38,19.29-9.5,72.88-37.25,103.4-66.67C2885.41,1277.36,2902.23,1194.05,2878.61,1135Z" transform="translate(-1061.35 -546.35)"/><path class="cls-37" d="M2625.72,1269.86s-23.65-29.29-33.09-26.47-13,3.27-21.27,2.82-8.86,11.5,3,33,43.72,25.81,51.4,25.43S2625.72,1269.86,2625.72,1269.86Z" transform="translate(-1061.35 -546.35)"/><path class="cls-42" d="M2867.56,1110.87c38.25,10.17,25.8,107.13,4.25,147.15-15.49,28.77-67.24,58.11-98.85,66.34S2615.84,1308,2615.84,1308s-5.05-45.2,4.5-45.2,111.15,4.88,141.57-22.62S2821.38,1098.59,2867.56,1110.87Z" transform="translate(-1061.35 -546.35)"/><path class="cls-28" d="M2595.15,1263.56a5.5,5.5,0,0,1-4.4-2.18l-20.49-26.83a5.54,5.54,0,1,1,8.8-6.72l20.48,26.84a5.54,5.54,0,0,1-4.39,8.89Z" transform="translate(-1061.35 -546.35)"/></g></g></svg>