<svg id="Layer_1" data-name="Layer 1" xmlns="http://www.w3.org/2000/svg" viewBox="0 0 180.3 163.95"><defs><style>.cls-1{fill:#ff6b06;}.cls-2,.cls-3{fill:#070501;}.cls-2{stroke:#000;stroke-miterlimit:10;}.cls-4{fill:#16b209;}.cls-5{font-size:42.25px;font-family:PillGothic600mg-Light, "Pill Gothic 600mg Light";font-weight:300;}.cls-6{fill:#fff;}</style></defs><title>ne-developers</title><path class="cls-1" d="M12.59,143.82h5.82V35.11s-.37-2.67,1.47,0L86,143.82h42.93l.48-109.36,58.11-.24V25.55h-63.9L123,134v.67c-.08.26,1.4,3.39-.56-.54L56.36,25.55H12.59Z" transform="translate(-8.58 -25.55)"/><polygon class="cls-2" points="16.27 118.37 13.21 118.37 13.21 19.52 16.07 24.28 16.27 118.37"/><polygon class="cls-3" points="105.36 0 107.42 0.03 106.35 89.5 104.25 86.07 105.36 0"/><polygon class="cls-3" points="20.24 118.45 18.18 118.45 18.18 28.8 20.1 31.87 20.24 118.45"/><polygon class="cls-3" points="109.27 0 112.33 0.02 111.5 97.85 108.82 93.58 109.27 0"/><path class="cls-4" d="M104.2,75.79s40-4.26,83.12,19.88c0,0-.7-9.89-39.7-21.81C147.62,73.86,116.81,66.08,104.2,75.79Z" transform="translate(-8.58 -25.55)"/><rect class="cls-1" x="114.43" y="109.67" width="63.9" height="8.59"/><rect class="cls-3" x="156.99" y="8.81" width="3.68" height="57.27" transform="translate(187.69 -146.94) rotate(90)"/><rect class="cls-3" x="156.71" y="103.36" width="3.68" height="56.71" transform="translate(281.69 -52.39) rotate(90)"/><rect class="cls-3" x="157.72" y="12.96" width="2.22" height="57.27" transform="translate(191.84 -142.79) rotate(90)"/><rect class="cls-3" x="157.44" y="99.24" width="2.22" height="56.71" transform="translate(277.57 -56.51) rotate(90)"/><text class="cls-5" transform="translate(0 153.81) scale(0.83 1)"><tspan xml:space="preserve">devel     pers</tspan></text><path class="cls-4" d="M101.64,153.6s1.49-3.28,3.28-3.93a3.71,3.71,0,0,1,4.29,2.44,4.22,4.22,0,0,0,4.41,3s2.62-1.61,3.93-.84c0,0,3,1.08,2.5,3.82,0,0-1.49,3.81-.48,4.76A7.8,7.8,0,0,0,122,165a3.39,3.39,0,0,1,2.5,3.34s-.3,2.8-2.68,3.45c0,0-3.52.9-2.15,5.48,0,0,1.25,6.41-3,5.13a31.64,31.64,0,0,0-4.17-.78s-1.31-.65-3.81,3.76c0,0-2.2,3.69-6,0,0,0-.12-2.44-3.16-3.82,0,0-1.49.18-2.74.42,0,0-4.23,2.09-5.18-3.45,0,0,2.08-3.28,0-5.66,0,0-1.91-1.44-2.83-1.46,0,0-3.16-2.42-.27-5.9,0,0,2.71-1.11,3.34-2.18,0,0,1.19-.45.35-3.75,0,0-1.63-1.88.84-4.77a3.7,3.7,0,0,1,3.93-.18S100,155.71,101.64,153.6Z" transform="translate(-8.58 -25.55)"/><circle class="cls-6" cx="97.31" cy="142.75" r="6.96"/></svg>