<svg xmlns="http://www.w3.org/2000/svg" xmlns:xlink="http://www.w3.org/1999/xlink" viewBox="0 0 1645.13 995.52"><defs><style>.cls-1{isolation:isolate;}.cls-2{fill:#250033;}.cls-3{fill:#743064;}.cls-4{fill:#303030;}.cls-5{fill:#56585e;}.cls-6{fill:#0a2126;}.cls-7{fill:#004555;}.cls-8{fill:#1e0c00;}.cls-9{fill:#0089a9;}.cls-10{fill:#3c1047;}.cls-11,.cls-85{fill:#fd5e5a;}.cls-12{fill:#fc7575;}.cls-13{fill:#af9be2;}.cls-14{fill:#cfc3ee;}.cls-15{fill:#8475aa;}.cls-16{fill:url(#linear-gradient);}.cls-17{fill:#f8f0a1;}.cls-18{fill:#6b9fc5;}.cls-19{fill:url(#linear-gradient-2);}.cls-20{fill:#290096;}.cls-21{fill:#f1ecff;}.cls-22{fill:#d7ceee;}.cls-23{fill:#ffe5a0;}.cls-24{fill:#fffced;}.cls-25{fill:#ecb2cd;}.cls-26{fill:#002b32;}.cls-27{fill:#746c87;}.cls-28{fill:#fff;}.cls-29{fill:#2e0a29;}.cls-30{fill:#172866;}.cls-31{fill:#001542;}.cls-32{fill:#ff4747;}.cls-33{fill:#4d475b;}.cls-34{fill:#998db6;}.cls-35{fill:#703c6a;}.cls-36{fill:#47003f;}.cls-37{fill:#060032;}.cls-38{fill:#482044;}.cls-39{fill:#ff7b7b;}.cls-40{fill:#4b2847;}.cls-41{fill:#99cedc;}.cls-42{fill:#95508d;}.cls-43{fill:#cef2fa;}.cls-44{fill:#5db9f4;}.cls-45{fill:#00485c;}.cls-46{fill:#333a6a;}.cls-47{fill:#47405c;}.cls-48{fill:#5f557b;}.cls-49{fill:#c3edf4;}.cls-50{fill:#363a68;}.cls-51{fill:#260e0d;}.cls-52{fill:#2f1954;}.cls-53{fill:#0e0e0e;}.cls-54{fill:#f1a97e;}.cls-55{fill:#121841;}.cls-56{fill:#2f499f;}.cls-57{fill:#555da2;}.cls-58{fill:#777eb5;}.cls-59{fill:#1e3340;}.cls-60{fill:#eef1f9;}.cls-61{fill:#2b3278;}.cls-62{fill:#403003;}.cls-63{fill:#4c3d65;}.cls-64{fill:#554004;}.cls-65{fill:#322844;}.cls-66{fill:#000945;}.cls-67{fill:#f66d75;}.cls-68{fill:#98b0bf;}.cls-69{fill:#2d1175;}.cls-70{fill:#caebff;}.cls-71{fill:#c33ea4;}.cls-72{fill:#7f71a4;}.cls-73{fill:#b2aac8;}.cls-74{fill:#0a6980;}.cls-75{fill:#084f60;}.cls-76{fill:#d4c5f6;}.cls-77{fill:#313b3d;}.cls-78{fill:url(#linear-gradient-3);}.cls-79{fill:#339cb4;}.cls-80{fill:#666e9e;}.cls-81{fill:#371c45;}.cls-82{fill:#170053;}.cls-83{fill:#510b5e;}.cls-84{fill:#42004a;}.cls-85{opacity:0.53;mix-blend-mode:multiply;}.cls-86{fill:#322554;}.cls-87{fill:#1b2b80;}.cls-88{fill:#023135;}.cls-89{fill:#560d68;}</style><linearGradient id="linear-gradient" x1="1477.61" y1="932.54" x2="1627.25" y2="932.54" gradientUnits="userSpaceOnUse"><stop offset="0" stop-color="#f24949"/><stop offset="1" stop-color="#ffc16f"/></linearGradient><linearGradient id="linear-gradient-2" x1="403.59" y1="915.33" x2="553.23" y2="915.33" xlink:href="#linear-gradient"/><linearGradient id="linear-gradient-3" x1="741.61" y1="677.51" x2="747.22" y2="561.53" gradientUnits="userSpaceOnUse"><stop offset="0" stop-color="#6a0352"/><stop offset="1" stop-color="#b8004c"/></linearGradient></defs><title>about-team</title><g class="cls-1"><g id="Layer_1" data-name="Layer 1"><path class="cls-2" d="M1554,980.56c0,22.53-296.52,40.8-662.3,40.8s-662.31-18.27-662.31-40.8,296.52-40.81,662.31-40.81S1554,958,1554,980.56Z" transform="translate(-158.87 -49.57)"/><rect class="cls-3" x="1152.94" y="570" width="12.25" height="360.84"/><rect class="cls-4" x="749.95" y="680.69" width="25.7" height="35.43"/><rect class="cls-5" x="751.11" y="690.36" width="22.38" height="172.13"/><polygon class="cls-6" points="884.19 895.08 777.01 837.95 777.01 863.98 853.86 895.08 853.86 900.8 884.19 900.8 884.19 895.08"/><polygon class="cls-6" points="777.01 863.98 747.95 863.98 747.95 837.95 747.95 817 777.01 817 777.01 863.98"/><polygon class="cls-6" points="640.78 895.08 747.95 837.95 747.95 863.98 671.11 895.08 671.11 900.8 640.78 900.8 640.78 895.08"/><polygon class="cls-6" points="752.7 837.95 752.7 900.8 745.53 900.8 745.53 905.24 777.01 905.24 777.01 900.8 770.36 900.8 772.44 837.95 752.7 837.95"/><path class="cls-7" d="M968.24,643.55H861.72L832.46,462.38a53.52,53.52,0,0,1,52.84-62.06h59.37a53.52,53.52,0,0,1,52.84,62.06Z" transform="translate(-158.87 -49.57)"/><polygon class="cls-8" points="688.33 504.07 644.61 521.4 671.46 633.27 683.21 631.53 670.34 534.09 693.57 524.1 688.33 504.07"/><polygon class="cls-8" points="820.99 504.07 858.42 530.03 852.19 639.06 837.09 636.25 842.37 542.23 812.39 524.64 820.99 504.07"/><path class="cls-9" d="M1028.53,700.86H829.21V681.1h179.57a19.76,19.76,0,0,1,19.75,19.76Z" transform="translate(-158.87 -49.57)"/><path class="cls-10" d="M962.16,326.11s-4.23,47.27,8.78,60.28,14.85,12.65,19.36,11.4c0,0-3,8-11.28,8.53a12.77,12.77,0,0,1-1.75,0c-9.62-.59.75,7.26,5.76,9s-10,3.76-20.54,1.25c-6.49-1.54-73.89-.7-84.39-10-6.54-5.81,22.09-34.93,23.43-49.58C905,318.77,962.16,326.11,962.16,326.11Z" transform="translate(-158.87 -49.57)"/><path class="cls-11" d="M1097.78,322a128.12,128.12,0,0,0-9,28.51c-2.74,15.23,1.41,42.26,9,53.57s8.38,15.54,15.26,15.54,34.4-12.1,36.86-40.11S1099.77,322,1099.77,322Z" transform="translate(-158.87 -49.57)"/><path class="cls-12" d="M1382.1,561.59s-17.68-8.07-23.13-13.53-22.71-19.67-31.44-19.67-52.38,19.55-46.27,21.79,39.72-7.8,39.72-7.8-39.29,16.16-32.3,19.21,28.38-5.23,28.38-5.23-10.92,5.23-10.92,9.16,16-3.93,25.25-3.93,33.69,15.28,33.69,15.28Z" transform="translate(-158.87 -49.57)"/><path class="cls-13" d="M1479.62,801.57c-3.32,3.47-9.37,5.68-16.2,5.43s-12.7-2.88-15.77-6.59c3.33-3.47,9.37-5.68,16.2-5.43S1476.55,797.86,1479.62,801.57Z" transform="translate(-158.87 -49.57)"/><path class="cls-13" d="M1553.8,943.91a582.48,582.48,0,0,1-6.12-93.9c.14-15.69,1-31.35,2.24-47s3.1-31.19,5.27-46.69a863.9,863.9,0,0,1,18.51-92q5.86-22.73,13-45.11c4.74-14.91,9.81-29.7,15.66-44.25l1.84.76c-5.62,14.5-10.5,29.35-15,44.26s-8.64,30-12.34,45.11a858.54,858.54,0,0,0-17.29,91.84c-2,15.45-3.67,30.94-4.66,46.48s-1.7,31.08-1.64,46.63a576.44,576.44,0,0,0,7.21,92.83Z" transform="translate(-158.87 -49.57)"/><path class="cls-13" d="M1611.44,512.62c-8.86,5.34-15.92,16.66-17.89,30.5s1.67,26.67,8.7,34.27c8.86-5.34,15.93-16.66,17.89-30.5S1618.47,520.21,1611.44,512.62Z" transform="translate(-158.87 -49.57)"/><path class="cls-13" d="M1559.24,560.32c-1.09,8,2.34,17.85,9.81,25.82s17.06,12,25.13,11.47c1.08-8-2.35-17.84-9.82-25.81S1567.3,559.76,1559.24,560.32Z" transform="translate(-158.87 -49.57)"/><path class="cls-13" d="M1594.88,602.06c6.79,4.39,17.15,5.47,27.54,2.11s18.15-10.31,21.08-17.85c-6.78-4.39-17.15-5.47-27.54-2.1S1597.8,594.53,1594.88,602.06Z" transform="translate(-158.87 -49.57)"/><path class="cls-13" d="M1585.53,631.55c6.79,4.39,17.15,5.47,27.54,2.11s18.16-10.32,21.08-17.85c-6.78-4.39-17.15-5.47-27.54-2.11S1588.45,624,1585.53,631.55Z" transform="translate(-158.87 -49.57)"/><path class="cls-13" d="M1574.92,666.74c6.79,4.39,17.15,5.47,27.54,2.1s18.15-10.31,21.08-17.85c-6.79-4.39-17.15-5.47-27.54-2.1S1577.85,659.2,1574.92,666.74Z" transform="translate(-158.87 -49.57)"/><path class="cls-13" d="M1567.8,699.5c6.79,4.4,17.15,5.47,27.54,2.11s18.16-10.31,21.08-17.85c-6.78-4.39-17.15-5.47-27.54-2.1S1570.73,692,1567.8,699.5Z" transform="translate(-158.87 -49.57)"/><path class="cls-13" d="M1570.76,692.87c-6.78,4.39-17.15,5.47-27.54,2.11s-18.15-10.32-21.08-17.85c6.79-4.39,17.15-5.47,27.54-2.11S1567.84,685.34,1570.76,692.87Z" transform="translate(-158.87 -49.57)"/><path class="cls-13" d="M1549.71,591.5c-1.08,8,2.35,17.84,9.82,25.81s17.06,12,25.12,11.48c1.09-8-2.35-17.85-9.82-25.82S1557.77,590.94,1549.71,591.5Z" transform="translate(-158.87 -49.57)"/><path class="cls-13" d="M1538.8,626.92c-1.09,8,2.35,17.84,9.81,25.81s17.07,12,25.13,11.48c1.08-8-2.35-17.85-9.82-25.82S1546.86,626.35,1538.8,626.92Z" transform="translate(-158.87 -49.57)"/><path class="cls-13" d="M1753.87,657a327.41,327.41,0,0,0-38.69,25.65,435.2,435.2,0,0,0-35.39,30.07,438.88,438.88,0,0,0-60.55,70.4,433.61,433.61,0,0,0-44.36,81.75,451.88,451.88,0,0,0-25.68,89.56l6.57,1.1a446.07,446.07,0,0,1,24-88.72,429.21,429.21,0,0,1,42.65-81.55,434.77,434.77,0,0,1,59-70.84A435.53,435.53,0,0,1,1716.18,684a327.44,327.44,0,0,1,38.12-26.13Z" transform="translate(-158.87 -49.57)"/><path class="cls-13" d="M1804,622c-.73,10.32-7.59,21.76-19,29.8s-24.52,10.65-34.48,7.84c.72-10.32,7.59-21.75,19-29.8S1794,619.24,1804,622Z" transform="translate(-158.87 -49.57)"/><path class="cls-13" d="M1727,613.29c7.63,7,12.33,19.47,11.53,33.43s-6.9,25.82-15.28,31.88c-7.64-7-12.33-19.47-11.53-33.42S1718.62,619.35,1727,613.29Z" transform="translate(-158.87 -49.57)"/><path class="cls-13" d="M1681.56,636.11c9.22,4.69,17.07,15.48,20,29.15s.24,26.72-6.23,34.8c-9.22-4.7-17.07-15.48-20-29.15S1675.1,644.18,1681.56,636.11Z" transform="translate(-158.87 -49.57)"/><path class="cls-13" d="M1650.9,664.31c9.22,4.7,17.07,15.48,20,29.15s.23,26.73-6.24,34.81c-9.22-4.7-17.07-15.49-20-29.16S1644.43,672.39,1650.9,664.31Z" transform="translate(-158.87 -49.57)"/><path class="cls-13" d="M1615.61,693.3c10.11,2.18,20.46,10.6,26.81,23.06s7,25.78,2.87,35.24c-10.12-2.18-20.46-10.6-26.8-23.06S1611.43,702.76,1615.61,693.3Z" transform="translate(-158.87 -49.57)"/><path class="cls-13" d="M1590.75,729.6c9.24-.4,20.08,4.55,28.37,13.89s11.91,20.69,10.42,29.81c-9.23.39-20.07-4.56-28.36-13.89S1589.27,738.72,1590.75,729.6Z" transform="translate(-158.87 -49.57)"/><path class="cls-13" d="M1572.72,752.42c9.23-.4,20.07,4.55,28.36,13.89S1613,787,1611.5,796.12c-9.23.39-20.07-4.56-28.36-13.89S1571.23,761.54,1572.72,752.42Z" transform="translate(-158.87 -49.57)"/><path class="cls-13" d="M1562.42,786.07c7.92-.33,17.21,3.9,24.31,11.91s10.21,17.73,8.94,25.55c-7.92.34-17.21-3.9-24.31-11.91S1561.15,793.89,1562.42,786.07Z" transform="translate(-158.87 -49.57)"/><path class="cls-13" d="M1552.43,821.17c5.76-3.25,14.32-3.64,22.71-.4s14.48,9.27,16.56,15.54c-5.76,3.26-14.32,3.64-22.71.41S1554.51,827.45,1552.43,821.17Z" transform="translate(-158.87 -49.57)"/><path class="cls-13" d="M1548.39,850.1c3.55-3.94,9.94-6.43,17.15-6.11s13.36,3.33,16.54,7.57c-3.54,3.94-9.94,6.42-17.14,6.11S1551.58,854.33,1548.39,850.1Z" transform="translate(-158.87 -49.57)"/><path class="cls-13" d="M1785,698.9c-8.8,5.44-22.09,6.56-35.31,2s-23-13.66-26.52-23.38c8.8-5.45,22.09-6.56,35.3-2S1781.44,689.18,1785,698.9Z" transform="translate(-158.87 -49.57)"/><path class="cls-13" d="M1757.09,721.86c-8.8,5.45-22.09,6.57-35.3,2s-23-13.66-26.53-23.37c8.8-5.45,22.09-6.57,35.31-2S1753.54,712.14,1757.09,721.86Z" transform="translate(-158.87 -49.57)"/><path class="cls-13" d="M1727.34,750.18c-8.79,5.44-22.09,6.56-35.3,2s-23-13.66-26.52-23.38c8.79-5.45,22.09-6.56,35.3-2S1723.79,740.46,1727.34,750.18Z" transform="translate(-158.87 -49.57)"/><path class="cls-13" d="M1693.77,769c-7.16,4.43-18,5.34-28.72,1.62s-18.68-11.11-21.57-19c7.16-4.43,18-5.34,28.72-1.62S1690.88,761.11,1693.77,769Z" transform="translate(-158.87 -49.57)"/><path class="cls-13" d="M1668.63,787c-5.85,3.78-14.63,4.66-23.31,1.65s-15-9.11-17.31-15.7c5.85-3.78,14.63-4.65,23.31-1.65S1666.36,780.42,1668.63,787Z" transform="translate(-158.87 -49.57)"/><path class="cls-13" d="M1653.61,810.14c-5.85,3.78-14.63,4.65-23.31,1.64s-15-9.11-17.31-15.7c5.84-3.78,14.63-4.65,23.31-1.64S1651.34,803.55,1653.61,810.14Z" transform="translate(-158.87 -49.57)"/><path class="cls-13" d="M1637.14,831.07c-4.74,4-12.68,6-21.2,4.61s-15.44-5.74-18.67-11.07c4.74-4,12.69-6,21.21-4.6S1633.92,825.75,1637.14,831.07Z" transform="translate(-158.87 -49.57)"/><path class="cls-13" d="M1621.23,857.44c-5.34,1.52-12.44.15-18.71-4.14s-10.15-10.4-10.67-15.93c5.34-1.52,12.43-.15,18.71,4.14S1620.7,851.91,1621.23,857.44Z" transform="translate(-158.87 -49.57)"/><path class="cls-13" d="M1603.51,873.18c-4.23.38-9.37-1.66-13.48-5.77s-6.14-9.26-5.75-13.49c4.22-.38,9.36,1.66,13.48,5.77S1603.9,869,1603.51,873.18Z" transform="translate(-158.87 -49.57)"/><path class="cls-13" d="M1591.75,877.3a11,11,0,1,1-3.19-8.56A10.27,10.27,0,0,1,1591.75,877.3Z" transform="translate(-158.87 -49.57)"/><path class="cls-13" d="M1588,885.09a11,11,0,1,1-3.2-8.57A10.3,10.3,0,0,1,1588,885.09Z" transform="translate(-158.87 -49.57)"/><path class="cls-14" d="M1451.68,630.94A302,302,0,0,1,1478,665a401,401,0,0,1,22.12,37,406.31,406.31,0,0,1,32.19,79.89,402,402,0,0,1,14.6,85,419.24,419.24,0,0,1-4.14,86.33l-6.11-1a414.17,414.17,0,0,0,5.41-85.07,399,399,0,0,0-13.15-84.35,420.16,420.16,0,0,0-13.24-40.71q-7.77-20-17.5-39.11a402.68,402.68,0,0,0-21.45-37.13,301.46,301.46,0,0,0-25.69-34.31Z" transform="translate(-158.87 -49.57)"/><path class="cls-14" d="M1418.08,585.25c-2.44,9.28.18,21.38,7.82,31.85s18.36,16.66,27.95,17.17c2.43-9.28-.19-21.37-7.83-31.85S1427.66,585.76,1418.08,585.25Z" transform="translate(-158.87 -49.57)"/><path class="cls-14" d="M1488.31,600.52c-8.79,3.86-16.63,13.43-20.09,25.93s-1.65,24.73,3.91,32.56c8.79-3.86,16.64-13.43,20.09-25.93S1493.87,608.35,1488.31,600.52Z" transform="translate(-158.87 -49.57)"/><path class="cls-14" d="M1521.43,634.11c-9.5,1.38-19.61,8.51-26.27,19.64s-8.17,23.41-4.9,32.43c9.5-1.38,19.61-8.51,26.27-19.64S1524.7,643.13,1521.43,634.11Z" transform="translate(-158.87 -49.57)"/><path class="cls-14" d="M1540,668c-9.5,1.37-19.61,8.51-26.27,19.64s-8.17,23.4-4.9,32.42c9.5-1.37,19.61-8.51,26.27-19.63S1543.22,677.05,1540,668Z" transform="translate(-158.87 -49.57)"/><path class="cls-14" d="M1562.3,704c-9.53-1.1-21.13,3.22-30.42,12.27s-13.88,20.53-13,30.09c9.54,1.1,21.14-3.21,30.42-12.26S1563.16,713.57,1562.3,704Z" transform="translate(-158.87 -49.57)"/><path class="cls-14" d="M1573.31,743.3c-8-3.09-19-2-29,3.75s-16.63,14.62-18,23.08c8,3.09,19,2,29-3.75S1571.9,751.76,1573.31,743.3Z" transform="translate(-158.87 -49.57)"/><path class="cls-14" d="M1582.35,768.72c-8-3.09-19-2-29,3.75s-16.63,14.62-18,23.08c8,3.09,19,2,29-3.75S1580.94,777.18,1582.35,768.72Z" transform="translate(-158.87 -49.57)"/><path class="cls-14" d="M1581.36,801.36c-6.85-2.66-16.27-1.7-24.9,3.21s-14.25,12.53-15.46,19.78c6.85,2.65,16.27,1.7,24.9-3.21S1580.15,808.6,1581.36,801.36Z" transform="translate(-158.87 -49.57)"/><path class="cls-14" d="M1579.68,835.16c-4.09-4.57-11.49-7.46-19.83-7.12s-15.48,3.82-19.18,8.72c4.09,4.57,11.49,7.46,19.83,7.12S1576,840.06,1579.68,835.16Z" transform="translate(-158.87 -49.57)"/><path class="cls-14" d="M1574.6,861.78c-1.94-4.52-6.82-8.61-13.24-10.48s-12.73-1-16.79,1.71c1.93,4.52,6.82,8.61,13.23,10.48S1570.54,864.55,1574.6,861.78Z" transform="translate(-158.87 -49.57)"/><path class="cls-14" d="M1411.86,658.43c6.1,7.4,17.44,12.35,30.41,12.27s24.25-5.15,30.27-12.62c-6.11-7.41-17.45-12.36-30.42-12.28S1417.87,651,1411.86,658.43Z" transform="translate(-158.87 -49.57)"/><path class="cls-14" d="M1429.52,686.92c6.1,7.41,17.44,12.35,30.41,12.27s24.25-5.15,30.27-12.62c-6.1-7.41-17.44-12.35-30.41-12.28S1435.54,679.44,1429.52,686.92Z" transform="translate(-158.87 -49.57)"/><path class="cls-14" d="M1447.21,720.66c6.1,7.41,17.44,12.35,30.41,12.27s24.25-5.15,30.27-12.62c-6.11-7.41-17.45-12.35-30.42-12.28S1453.22,713.18,1447.21,720.66Z" transform="translate(-158.87 -49.57)"/><path class="cls-14" d="M1471.08,747.21c5,6,14.19,10,24.73,10s19.73-4.19,24.63-10.27c-5-6-14.19-10-24.74-10S1476,741.13,1471.08,747.21Z" transform="translate(-158.87 -49.57)"/><path class="cls-14" d="M1487.8,770.51c4,5.07,11.46,8.45,20,8.4s15.94-3.52,19.89-8.63c-4-5.06-11.47-8.45-20-8.4S1491.75,765.4,1487.8,770.51Z" transform="translate(-158.87 -49.57)"/><path class="cls-14" d="M1494.1,795.31c4,5.06,11.46,8.44,20,8.4s15.94-3.52,19.88-8.63c-4-5.07-11.46-8.45-20-8.4S1498.05,790.2,1494.1,795.31Z" transform="translate(-158.87 -49.57)"/><path class="cls-14" d="M1502.32,818.61c3,5,9.35,9,17.25,10.36s15.27-.43,19.69-4.15c-3-5-9.36-9-17.25-10.37S1506.74,814.89,1502.32,818.61Z" transform="translate(-158.87 -49.57)"/><path class="cls-14" d="M1508.43,846.51c4.24,2.92,10.88,3.84,17.67,1.94s12-6.11,14.12-10.8c-4.23-2.93-10.88-3.84-17.67-1.95S1510.55,841.81,1508.43,846.51Z" transform="translate(-158.87 -49.57)"/><path class="cls-14" d="M1519.3,865.62c3.61,1.59,8.73,1.34,13.56-1s8.16-6.3,9.08-10.13c-3.6-1.6-8.72-1.34-13.56,1S1520.23,861.79,1519.3,865.62Z" transform="translate(-158.87 -49.57)"/><path class="cls-14" d="M1528.4,872.74a10.22,10.22,0,0,0,13.84-6.83,10.22,10.22,0,0,0-13.84,6.83Z" transform="translate(-158.87 -49.57)"/><path class="cls-14" d="M1529.41,880.71a10.22,10.22,0,0,0,13.84-6.83,10.22,10.22,0,0,0-13.84,6.83Z" transform="translate(-158.87 -49.57)"/><path class="cls-15" d="M1657.31,599.36a325.7,325.7,0,0,0-26.57,38.06,431,431,0,0,0-21.88,41,438.94,438.94,0,0,0-30.48,87.71,433.91,433.91,0,0,0-11.26,92.33,452.3,452.3,0,0,0,9,92.74l6.52-1.39a446.46,446.46,0,0,1-10.28-91.33,429.55,429.55,0,0,1,9.74-91.51,452,452,0,0,1,12.12-44.53,457.82,457.82,0,0,1,16.79-43,434.37,434.37,0,0,1,21.15-41.11A325.16,325.16,0,0,1,1658,600Z" transform="translate(-158.87 -49.57)"/><path class="cls-15" d="M1691.1,548.41c3.11,9.86.92,23-6.76,34.7s-18.9,18.91-29.19,19.95c-3.12-9.86-.93-23,6.76-34.7S1680.8,549.46,1691.1,548.41Z" transform="translate(-158.87 -49.57)"/><path class="cls-15" d="M1616.27,568.53c9.66,3.69,18.61,13.59,23,26.86s3.07,26.55-2.5,35.27c-9.67-3.69-18.62-13.58-23-26.86S1610.7,577.25,1616.27,568.53Z" transform="translate(-158.87 -49.57)"/><path class="cls-15" d="M1582.37,606.44c10.3,1,21.56,8.14,29.31,19.77s10,24.77,7,34.66c-10.3-1-21.56-8.14-29.32-19.77S1579.32,616.32,1582.37,606.44Z" transform="translate(-158.87 -49.57)"/><path class="cls-15" d="M1564.2,643.93c10.3,1,21.56,8.14,29.32,19.77s10,24.78,7,34.66c-10.3-1-21.56-8.14-29.32-19.77S1561.15,653.81,1564.2,643.93Z" transform="translate(-158.87 -49.57)"/><path class="cls-15" d="M1542,683.85c10.21-1.68,22.92,2.35,33.4,11.61s16,21.39,15.61,31.73c-10.21,1.68-22.93-2.36-33.4-11.62S1541.6,694.19,1542,683.85Z" transform="translate(-158.87 -49.57)"/><path class="cls-15" d="M1532.22,726.73c8.45-3.75,20.34-3.13,31.48,2.52s18.67,14.87,20.64,23.9c-8.44,3.75-20.34,3.13-31.48-2.51S1534.19,735.76,1532.22,726.73Z" transform="translate(-158.87 -49.57)"/><path class="cls-15" d="M1523.82,754.58c8.45-3.75,20.35-3.13,31.48,2.51S1574,772,1575.94,781c-8.44,3.75-20.34,3.13-31.48-2.52S1525.79,763.61,1523.82,754.58Z" transform="translate(-158.87 -49.57)"/><path class="cls-15" d="M1526.6,789.67c7.23-3.22,17.43-2.69,27,2.15s16,12.75,17.69,20.49c-7.24,3.22-17.43,2.69-27-2.15S1528.28,797.41,1526.6,789.67Z" transform="translate(-158.87 -49.57)"/><path class="cls-15" d="M1530.19,826c4.16-5.15,12-8.65,21-8.72s16.87,3.31,21.11,8.39c-4.16,5.14-12,8.64-21,8.71S1534.43,831.06,1530.19,826Z" transform="translate(-158.87 -49.57)"/><path class="cls-15" d="M1537.05,854.38c1.85-5,6.89-9.63,13.7-12s13.66-1.8,18.18,1c-1.85,5-6.89,9.62-13.71,12S1541.57,857.15,1537.05,854.38Z" transform="translate(-158.87 -49.57)"/><path class="cls-15" d="M1701.63,626.88c-6.18,8.29-18.14,14.21-32.11,14.81s-26.38-4.28-33.25-12c6.18-8.3,18.14-14.22,32.1-14.82S1694.76,619.14,1701.63,626.88Z" transform="translate(-158.87 -49.57)"/><path class="cls-15" d="M1684.11,658.48c-6.19,8.3-18.14,14.22-32.11,14.81s-26.38-4.27-33.26-12c6.19-8.29,18.14-14.21,32.11-14.81S1677.24,650.74,1684.11,658.48Z" transform="translate(-158.87 -49.57)"/><path class="cls-15" d="M1666.83,695.74c-6.19,8.29-18.14,14.21-32.11,14.81s-26.38-4.27-33.25-12c6.18-8.29,18.13-14.21,32.1-14.81S1660,688,1666.83,695.74Z" transform="translate(-158.87 -49.57)"/><path class="cls-15" d="M1642.51,725.59c-5,6.74-14.75,11.56-26.11,12s-21.46-3.47-27.05-9.76c5-6.75,14.75-11.57,26.11-12S1636.93,719.29,1642.51,725.59Z" transform="translate(-158.87 -49.57)"/><path class="cls-15" d="M1625.73,751.55c-4,5.66-11.9,9.7-21.08,10.09s-17.34-2.95-21.86-8.25c4-5.66,11.9-9.7,21.07-10.09S1621.21,746.25,1625.73,751.55Z" transform="translate(-158.87 -49.57)"/><path class="cls-15" d="M1620.25,778.58c-4,5.66-11.9,9.7-21.08,10.09s-17.34-2.95-21.86-8.25c4-5.66,11.9-9.69,21.07-10.09S1615.73,773.28,1620.25,778.58Z" transform="translate(-158.87 -49.57)"/><path class="cls-15" d="M1612.62,804.1c-2.93,5.5-9.6,10.22-18,12.07s-16.47.33-21.43-3.44c2.93-5.5,9.6-10.23,18-12.07S1607.67,800.33,1612.62,804.1Z" transform="translate(-158.87 -49.57)"/><path class="cls-15" d="M1607.5,834.47c-4.41,3.37-11.52,4.7-18.93,3s-13.25-6-15.77-10.9c4.41-3.37,11.51-4.71,18.93-3S1605,829.52,1607.5,834.47Z" transform="translate(-158.87 -49.57)"/><path class="cls-15" d="M1596.79,855.61c-3.79,1.91-9.32,1.9-14.65-.42s-9.12-6.35-10.31-10.43c3.8-1.91,9.32-1.9,14.66.42S1595.6,851.54,1596.79,855.61Z" transform="translate(-158.87 -49.57)"/><path class="cls-15" d="M1587.37,863.76a11,11,0,0,1-15.26-6.63,11,11,0,0,1,15.26,6.63Z" transform="translate(-158.87 -49.57)"/><path class="cls-15" d="M1586.7,872.39a11,11,0,0,1-15.26-6.63,11,11,0,0,1,15.26,6.63Z" transform="translate(-158.87 -49.57)"/><path class="cls-13" d="M1513.59,848.56c-14.61-21.4-30-42.31-46.41-62.39l.26-.23c16.84,19.76,32.66,40.37,47.74,61.52a741.14,741.14,0,0,1,42,65.68q4.62,8.25,9,16.67l-3.39,1.92q-4.18-8.52-8.65-16.9A741.15,741.15,0,0,0,1513.59,848.56Z" transform="translate(-158.87 -49.57)"/><path class="cls-13" d="M1451.08,758.88c5.38.49,11,4.08,14.5,9.94s4.07,12.49,2,17.48c-5.39-.5-11-4.09-14.51-9.95S1449,763.86,1451.08,758.88Z" transform="translate(-158.87 -49.57)"/><path class="cls-13" d="M1491.11,771.38c2.2,4.28,2.31,10.71-.16,17.09s-6.87,11.06-11.37,12.75c-2.2-4.28-2.31-10.71.15-17.09S1486.61,773.07,1491.11,771.38Z" transform="translate(-158.87 -49.57)"/><path class="cls-13" d="M1492.46,818.47c-3.66,3.12-9.89,4.71-16.66,3.77s-12.35-4.15-15-8.14c3.66-3.12,9.89-4.71,16.67-3.77S1489.79,814.47,1492.46,818.47Z" transform="translate(-158.87 -49.57)"/><path class="cls-13" d="M1508.63,839.33c-3.66,3.13-9.89,4.71-16.67,3.78s-12.35-4.15-15-8.14c3.66-3.12,9.9-4.71,16.67-3.78S1506,835.34,1508.63,839.33Z" transform="translate(-158.87 -49.57)"/><path class="cls-13" d="M1519.61,856c-3.66,3.12-9.9,4.71-16.67,3.78s-12.35-4.15-15-8.14c3.66-3.12,9.89-4.71,16.67-3.78S1516.93,852,1519.61,856Z" transform="translate(-158.87 -49.57)"/><path class="cls-13" d="M1531.78,874.3c-3.66,3.12-9.89,4.71-16.67,3.78s-12.34-4.15-15-8.14c3.66-3.13,9.89-4.71,16.67-3.78S1529.1,870.31,1531.78,874.3Z" transform="translate(-158.87 -49.57)"/><path class="cls-13" d="M1505.18,789.28c2.2,4.28,2.31,10.71-.16,17.09s-6.87,11.06-11.37,12.75c-2.2-4.28-2.31-10.71.16-17.09S1500.68,791,1505.18,789.28Z" transform="translate(-158.87 -49.57)"/><path class="cls-13" d="M1518.63,807.71c2.2,4.27,2.31,10.7-.15,17.08s-6.88,11.07-11.38,12.76c-2.2-4.28-2.31-10.71.15-17.09S1514.13,809.39,1518.63,807.71Z" transform="translate(-158.87 -49.57)"/><path class="cls-13" d="M1531.43,826.28c2.2,4.28,2.31,10.71-.16,17.09s-6.87,11.06-11.37,12.75c-2.2-4.27-2.31-10.7.15-17.09S1526.93,828,1531.43,826.28Z" transform="translate(-158.87 -49.57)"/><path class="cls-13" d="M1543.83,844.48c2.2,4.28,2.31,10.71-.16,17.09s-6.87,11.06-11.37,12.75c-2.2-4.28-2.31-10.71.15-17.09S1539.33,846.17,1543.83,844.48Z" transform="translate(-158.87 -49.57)"/><path class="cls-16" d="M1503.94,897.59h97c16.11,8.22,26.34,20.46,26.34,34.14,0,14.61-11.65,27.58-29.68,35.77h-90.29c-18-8.19-29.67-21.16-29.67-35.77C1477.61,918.05,1487.84,905.81,1503.94,897.59Z" transform="translate(-158.87 -49.57)"/><path class="cls-17" d="M1513.06,905.25c-9.56-1.11-22.37,6.09-25.67,20.58-4.51,28.6,24.12,37,39.75,29.73-13.62-3.42-28.51-9.66-29-23.74-.75-7.37,3.62-14.46,3.7-14.68a38.29,38.29,0,0,1,4.1-5.5A41.63,41.63,0,0,1,1513.06,905.25Z" transform="translate(-158.87 -49.57)"/><rect class="cls-18" x="1499.41" y="893.39" width="107.12" height="6.73" transform="translate(2947.08 1743.93) rotate(180)"/><path class="cls-13" d="M405.57,784c-3.32,3.48-9.36,5.68-16.2,5.43s-12.7-2.88-15.77-6.58c3.33-3.48,9.37-5.68,16.21-5.43S402.51,780.28,405.57,784Z" transform="translate(-158.87 -49.57)"/><path class="cls-13" d="M479.78,926.7a582.52,582.52,0,0,1-6.11-93.91c.12-15.68,1-31.35,2.23-47s3.1-31.18,5.27-46.69a863.72,863.72,0,0,1,18.51-92q5.86-22.73,12.95-45.11c4.74-14.91,9.81-29.7,15.66-44.25l1.84.75c-5.62,14.51-10.5,29.36-15,44.26s-8.64,30-12.34,45.12a858.54,858.54,0,0,0-17.29,91.84c-2,15.45-3.67,30.94-4.66,46.47s-1.7,31.09-1.63,46.64a575.47,575.47,0,0,0,7.2,92.83Z" transform="translate(-158.87 -49.57)"/><path class="cls-13" d="M537.42,495.41c-8.86,5.34-15.92,16.65-17.88,30.5s1.67,26.67,8.69,34.27c8.86-5.34,15.93-16.66,17.89-30.5S544.45,503,537.42,495.41Z" transform="translate(-158.87 -49.57)"/><path class="cls-13" d="M485.22,543.11c-1.09,8,2.35,17.85,9.81,25.82s17.07,12,25.13,11.47c1.08-8-2.35-17.85-9.82-25.82S493.28,542.55,485.22,543.11Z" transform="translate(-158.87 -49.57)"/><path class="cls-13" d="M520.86,583c6.79,4.4,17.15,5.48,27.54,2.11s18.16-10.31,21.08-17.85c-6.78-4.39-17.15-5.47-27.54-2.1S523.78,575.51,520.86,583Z" transform="translate(-158.87 -49.57)"/><path class="cls-13" d="M511.51,614.34c6.79,4.39,17.15,5.47,27.54,2.1s18.16-10.31,21.08-17.84c-6.78-4.4-17.15-5.47-27.54-2.11S514.44,606.8,511.51,614.34Z" transform="translate(-158.87 -49.57)"/><path class="cls-13" d="M500.9,649.52c6.79,4.39,17.15,5.47,27.54,2.11s18.16-10.31,21.08-17.85c-6.78-4.39-17.15-5.47-27.54-2.1S503.83,642,500.9,649.52Z" transform="translate(-158.87 -49.57)"/><path class="cls-13" d="M493.78,682.29c6.79,4.39,17.16,5.47,27.55,2.11s18.15-10.31,21.08-17.85c-6.79-4.39-17.16-5.47-27.55-2.11S496.71,674.76,493.78,682.29Z" transform="translate(-158.87 -49.57)"/><path class="cls-13" d="M496.74,675.66c-6.78,4.39-17.15,5.47-27.54,2.11s-18.15-10.32-21.08-17.85c6.79-4.39,17.15-5.47,27.54-2.11S493.82,668.12,496.74,675.66Z" transform="translate(-158.87 -49.57)"/><path class="cls-13" d="M475.69,574.28c-1.08,8,2.35,17.85,9.82,25.82s17.06,12,25.12,11.48c1.09-8-2.35-17.85-9.82-25.82S483.75,573.72,475.69,574.28Z" transform="translate(-158.87 -49.57)"/><path class="cls-13" d="M464.78,609.7c-1.09,8,2.35,17.85,9.82,25.82s17.06,12,25.12,11.48c1.08-8-2.35-17.85-9.82-25.82S472.84,609.14,464.78,609.7Z" transform="translate(-158.87 -49.57)"/><path class="cls-13" d="M679.85,639.82a326.18,326.18,0,0,0-38.69,25.65,432.91,432.91,0,0,0-35.39,30.07,463,463,0,0,0-32.13,33.57,456.11,456.11,0,0,0-28.41,36.83,433.66,433.66,0,0,0-44.37,81.75,451.88,451.88,0,0,0-25.68,89.56l6.58,1.1a445.19,445.19,0,0,1,24-88.72,428.91,428.91,0,0,1,42.65-81.55,449.58,449.58,0,0,1,27.62-37,457.18,457.18,0,0,1,31.42-33.87,432,432,0,0,1,34.76-30.47,325.25,325.25,0,0,1,38.11-26.13Z" transform="translate(-158.87 -49.57)"/><path class="cls-13" d="M730,604.83c-.72,10.32-7.59,21.75-19,29.8s-24.52,10.64-34.48,7.84c.73-10.32,7.59-21.75,19-29.8S720,602,730,604.83Z" transform="translate(-158.87 -49.57)"/><path class="cls-13" d="M653,596.08c7.64,7,12.33,19.47,11.53,33.42s-6.89,25.83-15.28,31.89c-7.63-7-12.33-19.47-11.53-33.42S644.61,602.14,653,596.08Z" transform="translate(-158.87 -49.57)"/><path class="cls-13" d="M607.54,618.89c9.22,4.7,17.07,15.49,20,29.15s.24,26.73-6.23,34.81c-9.22-4.7-17.07-15.49-20-29.15S601.08,627,607.54,618.89Z" transform="translate(-158.87 -49.57)"/><path class="cls-13" d="M576.89,647.1c9.22,4.7,17.06,15.48,20,29.15s.23,26.73-6.24,34.8c-9.22-4.69-17.07-15.48-20-29.15S570.42,655.18,576.89,647.1Z" transform="translate(-158.87 -49.57)"/><path class="cls-13" d="M541.59,676.09c10.12,2.18,20.46,10.6,26.81,23.06s7.06,25.78,2.87,35.24c-10.11-2.18-20.46-10.6-26.8-23.06S537.41,685.55,541.59,676.09Z" transform="translate(-158.87 -49.57)"/><path class="cls-13" d="M516.74,712.38c9.23-.39,20.07,4.56,28.36,13.9S557,747,555.52,756.08c-9.23.4-20.07-4.55-28.36-13.89S515.25,721.5,516.74,712.38Z" transform="translate(-158.87 -49.57)"/><path class="cls-13" d="M498.7,735.2c9.24-.39,20.07,4.56,28.36,13.9s11.91,20.68,10.43,29.8c-9.24.4-20.08-4.55-28.36-13.89S497.22,744.32,498.7,735.2Z" transform="translate(-158.87 -49.57)"/><path class="cls-13" d="M488.4,768.86c7.92-.34,17.21,3.9,24.31,11.91s10.21,17.73,8.94,25.55c-7.92.34-17.21-3.9-24.31-11.91S487.13,776.68,488.4,768.86Z" transform="translate(-158.87 -49.57)"/><path class="cls-13" d="M478.41,804c5.76-3.26,14.32-3.64,22.71-.41s14.48,9.27,16.56,15.55c-5.76,3.25-14.32,3.64-22.71.4S480.49,810.24,478.41,804Z" transform="translate(-158.87 -49.57)"/><path class="cls-13" d="M474.37,832.89c3.54-3.95,9.95-6.43,17.15-6.12s13.36,3.34,16.55,7.58c-3.55,3.94-9.95,6.42-17.15,6.11S477.56,837.12,474.37,832.89Z" transform="translate(-158.87 -49.57)"/><path class="cls-13" d="M711,681.68c-8.8,5.45-22.09,6.57-35.31,2s-23-13.66-26.52-23.38c8.8-5.45,22.09-6.57,35.3-2S707.43,672,711,681.68Z" transform="translate(-158.87 -49.57)"/><path class="cls-13" d="M683.07,704.65c-8.79,5.45-22.09,6.56-35.3,2s-23-13.66-26.52-23.38c8.79-5.44,22.09-6.56,35.3-2S679.52,694.93,683.07,704.65Z" transform="translate(-158.87 -49.57)"/><path class="cls-13" d="M653.32,733c-8.79,5.45-22.09,6.57-35.3,2s-23-13.66-26.52-23.38c8.8-5.45,22.09-6.57,35.3-2S649.77,723.25,653.32,733Z" transform="translate(-158.87 -49.57)"/><path class="cls-13" d="M619.75,751.8c-7.15,4.43-18,5.34-28.71,1.62s-18.69-11.11-21.58-19c7.16-4.43,18-5.34,28.72-1.63S616.86,743.9,619.75,751.8Z" transform="translate(-158.87 -49.57)"/><path class="cls-13" d="M594.61,769.79c-5.85,3.78-14.63,4.65-23.31,1.65s-15-9.11-17.31-15.7c5.85-3.78,14.63-4.65,23.31-1.65S592.34,763.2,594.61,769.79Z" transform="translate(-158.87 -49.57)"/><path class="cls-13" d="M579.59,792.92c-5.85,3.78-14.63,4.65-23.31,1.65s-15-9.11-17.31-15.7c5.85-3.78,14.63-4.65,23.31-1.65S577.32,786.34,579.59,792.92Z" transform="translate(-158.87 -49.57)"/><path class="cls-13" d="M563.12,813.86c-4.74,4-12.68,6-21.2,4.6s-15.44-5.73-18.67-11.06c4.74-4,12.69-6,21.21-4.6S559.9,808.53,563.12,813.86Z" transform="translate(-158.87 -49.57)"/><path class="cls-13" d="M547.21,840.23c-5.34,1.51-12.43.14-18.72-4.14s-10.13-10.4-10.66-15.93c5.34-1.52,12.43-.15,18.71,4.14S546.68,834.7,547.21,840.23Z" transform="translate(-158.87 -49.57)"/><path class="cls-13" d="M529.49,856c-4.23.38-9.37-1.66-13.48-5.77s-6.14-9.26-5.75-13.49c4.23-.38,9.37,1.66,13.48,5.77S529.88,851.74,529.49,856Z" transform="translate(-158.87 -49.57)"/><path class="cls-13" d="M517.74,860.09A11,11,0,0,1,506,848.32a11,11,0,0,1,11.76,11.77Z" transform="translate(-158.87 -49.57)"/><path class="cls-13" d="M514,867.87a11,11,0,0,1-11.76-11.77A11,11,0,0,1,514,867.87Z" transform="translate(-158.87 -49.57)"/><path class="cls-14" d="M377.66,613.73A302,302,0,0,1,404,647.79a403.31,403.31,0,0,1,22.13,37,429.06,429.06,0,0,1,18.21,39.07,424,424,0,0,1,14,40.82,401.35,401.35,0,0,1,14.6,85A419.15,419.15,0,0,1,468.76,936l-6.11-1a414.17,414.17,0,0,0,5.41-85.07,398.32,398.32,0,0,0-13.15-84.35,419.27,419.27,0,0,0-13.24-40.71,424.71,424.71,0,0,0-17.5-39.11,400.41,400.41,0,0,0-21.45-37.13A300.57,300.57,0,0,0,377,614.32Z" transform="translate(-158.87 -49.57)"/><path class="cls-14" d="M344.06,568c-2.44,9.28.18,21.37,7.82,31.85s18.36,16.66,27.95,17.17c2.44-9.28-.18-21.38-7.83-31.85S353.64,568.55,344.06,568Z" transform="translate(-158.87 -49.57)"/><path class="cls-14" d="M414.29,583.31c-8.79,3.86-16.63,13.42-20.09,25.92s-1.64,24.74,3.91,32.56c8.79-3.85,16.64-13.42,20.09-25.92S419.85,591.13,414.29,583.31Z" transform="translate(-158.87 -49.57)"/><path class="cls-14" d="M447.41,616.9c-9.5,1.38-19.61,8.51-26.27,19.64S413,660,416.24,669c9.5-1.38,19.61-8.51,26.27-19.64S450.68,625.92,447.41,616.9Z" transform="translate(-158.87 -49.57)"/><path class="cls-14" d="M465.93,650.82c-9.5,1.37-19.61,8.51-26.27,19.63s-8.17,23.41-4.9,32.43c9.5-1.38,19.61-8.51,26.27-19.64S469.2,659.84,465.93,650.82Z" transform="translate(-158.87 -49.57)"/><path class="cls-14" d="M488.29,686.8c-9.54-1.1-21.14,3.21-30.42,12.26s-13.89,20.54-13,30.1c9.53,1.1,21.13-3.21,30.41-12.26S489.14,696.36,488.29,686.8Z" transform="translate(-158.87 -49.57)"/><path class="cls-14" d="M499.3,726.09c-8-3.1-19-2-29.06,3.75s-16.62,14.62-18,23.07c8,3.1,19,2,29.05-3.74S497.88,734.54,499.3,726.09Z" transform="translate(-158.87 -49.57)"/><path class="cls-14" d="M508.33,751.51c-8-3.1-19-2-29.05,3.75s-16.63,14.62-18,23.07c8,3.1,19,2,29.05-3.74S506.92,760,508.33,751.51Z" transform="translate(-158.87 -49.57)"/><path class="cls-14" d="M507.34,784.14c-6.85-2.65-16.27-1.7-24.9,3.22S468.19,799.89,467,807.14c6.85,2.65,16.27,1.7,24.9-3.22S506.13,791.39,507.34,784.14Z" transform="translate(-158.87 -49.57)"/><path class="cls-14" d="M505.66,818c-4.09-4.57-11.49-7.46-19.83-7.12s-15.48,3.82-19.18,8.72c4.09,4.57,11.49,7.46,19.83,7.12S502,822.84,505.66,818Z" transform="translate(-158.87 -49.57)"/><path class="cls-14" d="M500.58,844.57c-1.93-4.52-6.82-8.61-13.23-10.48s-12.74-1.06-16.8,1.71c1.94,4.52,6.82,8.61,13.24,10.48S496.52,847.34,500.58,844.57Z" transform="translate(-158.87 -49.57)"/><path class="cls-14" d="M337.84,641.21c6.1,7.41,17.44,12.36,30.41,12.28s24.25-5.15,30.27-12.63c-6.1-7.4-17.45-12.35-30.41-12.27S343.85,633.74,337.84,641.21Z" transform="translate(-158.87 -49.57)"/><path class="cls-14" d="M355.5,669.71c6.1,7.4,17.45,12.35,30.41,12.27s24.26-5.15,30.27-12.62c-6.1-7.41-17.44-12.36-30.41-12.28S361.52,662.23,355.5,669.71Z" transform="translate(-158.87 -49.57)"/><path class="cls-14" d="M373.19,703.45c6.1,7.4,17.44,12.35,30.41,12.27s24.25-5.15,30.27-12.63c-6.1-7.4-17.45-12.35-30.41-12.27S379.21,696,373.19,703.45Z" transform="translate(-158.87 -49.57)"/><path class="cls-14" d="M397.06,730c5,6,14.19,10,24.74,10s19.72-4.19,24.62-10.28c-5-6-14.19-10-24.74-10S402,723.92,397.06,730Z" transform="translate(-158.87 -49.57)"/><path class="cls-14" d="M413.78,753.3c4,5.06,11.47,8.45,20,8.4s15.93-3.52,19.88-8.63c-4-5.07-11.46-8.45-20-8.4S417.73,748.19,413.78,753.3Z" transform="translate(-158.87 -49.57)"/><path class="cls-14" d="M420.08,778.1c4,5.06,11.46,8.44,20,8.39S456,783,460,777.86c-4-5.06-11.47-8.44-20-8.39S424,773,420.08,778.1Z" transform="translate(-158.87 -49.57)"/><path class="cls-14" d="M428.3,801.39c3,5,9.36,9,17.25,10.37s15.27-.44,19.69-4.15c-3-5-9.35-9-17.25-10.37S432.72,797.68,428.3,801.39Z" transform="translate(-158.87 -49.57)"/><path class="cls-14" d="M434.41,829.3c4.24,2.92,10.88,3.84,17.68,1.94s12-6.11,14.12-10.81c-4.24-2.92-10.88-3.84-17.68-1.94S436.53,824.6,434.41,829.3Z" transform="translate(-158.87 -49.57)"/><path class="cls-14" d="M445.29,848.41c3.6,1.59,8.72,1.33,13.56-1s8.15-6.3,9.07-10.13c-3.6-1.6-8.72-1.34-13.56,1S446.21,844.58,445.29,848.41Z" transform="translate(-158.87 -49.57)"/><path class="cls-14" d="M454.38,855.53a10.22,10.22,0,0,0,13.84-6.83,10.22,10.22,0,0,0-13.84,6.83Z" transform="translate(-158.87 -49.57)"/><path class="cls-14" d="M455.39,863.5a10.22,10.22,0,0,0,13.84-6.84,10.23,10.23,0,0,0-13.84,6.84Z" transform="translate(-158.87 -49.57)"/><path class="cls-15" d="M583.29,582.15a325.7,325.7,0,0,0-26.57,38.06,433.33,433.33,0,0,0-21.88,41,438.36,438.36,0,0,0-30.48,87.71,433.83,433.83,0,0,0-11.26,92.33,452.3,452.3,0,0,0,9,92.74l6.52-1.39a446.46,446.46,0,0,1-10.28-91.33,429.58,429.58,0,0,1,9.74-91.52A435.16,435.16,0,0,1,537,662.15a435.41,435.41,0,0,1,21.15-41.1A324.34,324.34,0,0,1,584,582.76Z" transform="translate(-158.87 -49.57)"/><path class="cls-15" d="M617.08,531.19c3.11,9.87.92,23-6.76,34.71s-18.9,18.9-29.19,20c-3.11-9.86-.92-23,6.76-34.7S606.79,532.24,617.08,531.19Z" transform="translate(-158.87 -49.57)"/><path class="cls-15" d="M542.25,551.32c9.67,3.69,18.62,13.58,23,26.86s3.07,26.55-2.5,35.27c-9.67-3.69-18.62-13.59-23-26.86S536.68,560,542.25,551.32Z" transform="translate(-158.87 -49.57)"/><path class="cls-15" d="M508.35,589.23c10.3,1,21.56,8.13,29.32,19.77s10,24.77,7,34.66c-10.3-1-21.56-8.14-29.31-19.77S505.3,599.11,508.35,589.23Z" transform="translate(-158.87 -49.57)"/><path class="cls-15" d="M490.19,626.72c10.3,1,21.56,8.13,29.31,19.77s10,24.77,7,34.66c-10.3-1-21.56-8.14-29.32-19.77S487.14,636.6,490.19,626.72Z" transform="translate(-158.87 -49.57)"/><path class="cls-15" d="M468,666.64c10.21-1.69,22.92,2.35,33.4,11.61s16,21.39,15.61,31.72c-10.21,1.69-22.93-2.35-33.4-11.61S467.58,677,468,666.64Z" transform="translate(-158.87 -49.57)"/><path class="cls-15" d="M458.2,709.52c8.45-3.75,20.35-3.13,31.48,2.51s18.68,14.88,20.64,23.91c-8.44,3.75-20.34,3.13-31.48-2.52S460.17,718.55,458.2,709.52Z" transform="translate(-158.87 -49.57)"/><path class="cls-15" d="M449.81,737.37c8.44-3.75,20.34-3.13,31.47,2.51s18.68,14.87,20.64,23.9c-8.44,3.76-20.34,3.14-31.48-2.51S451.77,746.4,449.81,737.37Z" transform="translate(-158.87 -49.57)"/><path class="cls-15" d="M452.58,772.46c7.24-3.22,17.44-2.69,27,2.15s16,12.75,17.69,20.49c-7.23,3.22-17.43,2.68-27-2.15S454.26,780.2,452.58,772.46Z" transform="translate(-158.87 -49.57)"/><path class="cls-15" d="M456.17,808.77c4.16-5.14,12-8.64,21-8.71s16.87,3.31,21.12,8.38c-4.17,5.14-12,8.64-21,8.72S460.41,813.85,456.17,808.77Z" transform="translate(-158.87 -49.57)"/><path class="cls-15" d="M463,837.16c1.85-5,6.89-9.62,13.7-12s13.66-1.81,18.18,1c-1.85,5-6.89,9.63-13.7,12S467.55,839.93,463,837.16Z" transform="translate(-158.87 -49.57)"/><path class="cls-15" d="M627.61,609.66c-6.18,8.3-18.14,14.22-32.1,14.82s-26.39-4.28-33.26-12c6.19-8.3,18.14-14.22,32.11-14.82S620.74,601.93,627.61,609.66Z" transform="translate(-158.87 -49.57)"/><path class="cls-15" d="M610.09,641.27C603.9,649.56,592,655.48,578,656.08s-26.38-4.27-33.25-12c6.18-8.29,18.13-14.21,32.1-14.81S603.22,633.53,610.09,641.27Z" transform="translate(-158.87 -49.57)"/><path class="cls-15" d="M592.81,678.53c-6.18,8.29-18.14,14.21-32.1,14.81s-26.39-4.27-33.26-12c6.18-8.29,18.14-14.21,32.1-14.81S585.94,670.79,592.81,678.53Z" transform="translate(-158.87 -49.57)"/><path class="cls-15" d="M568.49,708.37c-5,6.75-14.75,11.56-26.11,12s-21.46-3.48-27-9.77c5-6.74,14.76-11.56,26.12-12S562.9,702.08,568.49,708.37Z" transform="translate(-158.87 -49.57)"/><path class="cls-15" d="M551.71,734.34c-4.05,5.66-11.9,9.69-21.08,10.09s-17.34-3-21.86-8.25c4.05-5.66,11.9-9.7,21.08-10.09S547.19,729,551.71,734.34Z" transform="translate(-158.87 -49.57)"/><path class="cls-15" d="M546.23,761.37c-4.05,5.66-11.9,9.7-21.08,10.09s-17.34-3-21.86-8.25c4-5.66,11.9-9.7,21.08-10.09S541.71,756.07,546.23,761.37Z" transform="translate(-158.87 -49.57)"/><path class="cls-15" d="M538.6,786.89c-2.93,5.49-9.6,10.22-18,12.06s-16.47.34-21.43-3.44c2.93-5.49,9.61-10.22,18-12.06S533.65,783.12,538.6,786.89Z" transform="translate(-158.87 -49.57)"/><path class="cls-15" d="M533.48,817.25c-4.41,3.37-11.51,4.71-18.93,3s-13.25-5.95-15.77-10.89c4.41-3.38,11.51-4.71,18.93-3S531,812.31,533.48,817.25Z" transform="translate(-158.87 -49.57)"/><path class="cls-15" d="M522.77,838.4c-3.79,1.91-9.32,1.9-14.65-.42s-9.11-6.36-10.31-10.43c3.8-1.91,9.33-1.9,14.66.42S521.58,834.32,522.77,838.4Z" transform="translate(-158.87 -49.57)"/><path class="cls-15" d="M513.35,846.55a11,11,0,0,1-15.26-6.63,11,11,0,0,1,15.26,6.63Z" transform="translate(-158.87 -49.57)"/><path class="cls-15" d="M512.69,855.18a11,11,0,0,1-15.27-6.63,11,11,0,0,1,15.27,6.63Z" transform="translate(-158.87 -49.57)"/><path class="cls-13" d="M439.57,831.35C425,809.94,409.58,789,393.16,769l.26-.23c16.84,19.76,32.67,40.37,47.74,61.52a741.14,741.14,0,0,1,42,65.68q4.62,8.25,9,16.67l-3.39,1.92c-2.78-5.68-5.68-11.32-8.65-16.9A738.32,738.32,0,0,0,439.57,831.35Z" transform="translate(-158.87 -49.57)"/><path class="cls-13" d="M377,741.66c5.39.5,11,4.09,14.5,10s4.07,12.49,2,17.47c-5.39-.49-11-4.08-14.5-9.94S374.9,746.65,377,741.66Z" transform="translate(-158.87 -49.57)"/><path class="cls-13" d="M417.09,754.16c2.2,4.28,2.31,10.71-.15,17.09s-6.88,11.07-11.38,12.76c-2.2-4.28-2.31-10.71.16-17.09S412.59,755.85,417.09,754.16Z" transform="translate(-158.87 -49.57)"/><path class="cls-13" d="M418.45,801.25c-3.66,3.13-9.9,4.71-16.67,3.78s-12.35-4.15-15-8.14c3.66-3.12,9.89-4.71,16.67-3.78S415.77,797.26,418.45,801.25Z" transform="translate(-158.87 -49.57)"/><path class="cls-13" d="M434.61,822.12c-3.66,3.12-9.89,4.71-16.67,3.78s-12.35-4.15-15-8.15c3.66-3.12,9.89-4.7,16.66-3.77S431.93,818.13,434.61,822.12Z" transform="translate(-158.87 -49.57)"/><path class="cls-13" d="M445.59,838.74c-3.66,3.12-9.89,4.71-16.67,3.78s-12.35-4.15-15-8.14c3.66-3.13,9.9-4.71,16.67-3.78S442.91,834.75,445.59,838.74Z" transform="translate(-158.87 -49.57)"/><path class="cls-13" d="M457.76,857.09c-3.66,3.12-9.89,4.71-16.67,3.77s-12.34-4.14-15-8.14c3.66-3.12,9.89-4.71,16.67-3.77S455.08,853.09,457.76,857.09Z" transform="translate(-158.87 -49.57)"/><path class="cls-13" d="M431.16,772.07c2.2,4.27,2.31,10.7-.15,17.09s-6.88,11.06-11.38,12.75c-2.2-4.28-2.31-10.71.16-17.09S426.66,773.75,431.16,772.07Z" transform="translate(-158.87 -49.57)"/><path class="cls-13" d="M444.61,790.49c2.2,4.28,2.31,10.71-.15,17.09s-6.88,11.07-11.38,12.76c-2.2-4.28-2.31-10.71.16-17.09S440.11,792.18,444.61,790.49Z" transform="translate(-158.87 -49.57)"/><path class="cls-13" d="M457.41,809.07c2.2,4.28,2.31,10.71-.16,17.09s-6.87,11.06-11.37,12.75c-2.2-4.28-2.31-10.71.15-17.09S452.91,810.76,457.41,809.07Z" transform="translate(-158.87 -49.57)"/><path class="cls-13" d="M469.81,827.27c2.2,4.28,2.31,10.71-.15,17.09s-6.88,11.06-11.38,12.75c-2.2-4.28-2.31-10.71.16-17.09S465.31,829,469.81,827.27Z" transform="translate(-158.87 -49.57)"/><path class="cls-19" d="M429.92,880.37h97c16.1,8.23,26.33,20.47,26.33,34.15,0,14.61-11.65,27.58-29.68,35.77H433.27c-18-8.19-29.68-21.16-29.68-35.77C403.59,900.84,413.82,888.6,429.92,880.37Z" transform="translate(-158.87 -49.57)"/><path class="cls-17" d="M439,888c-9.55-1.12-22.36,6.09-25.67,20.58-4.51,28.59,24.13,37,39.75,29.73-13.62-3.42-28.51-9.66-28.94-23.74-.76-7.37,3.61-14.47,3.69-14.69A41.85,41.85,0,0,1,439,888Z" transform="translate(-158.87 -49.57)"/><rect class="cls-18" x="425.4" y="876.18" width="107.12" height="6.73" transform="translate(799.04 1709.51) rotate(180)"/><rect class="cls-20" x="1158.88" y="53.49" width="422.1" height="414.26" transform="translate(1471.69 -1158.88) rotate(90)"/><rect class="cls-21" x="1011.89" y="7.96" width="398.34" height="406.18"/><path class="cls-22" d="M1386.58,172.82h-74.42l65.46,35.47A79.73,79.73,0,0,0,1386.58,172.82Z" transform="translate(-158.87 -49.57)"/><path class="cls-22" d="M1226.16,172.82a80.2,80.2,0,0,0,40.71,68.4l37.06-68.4Z" transform="translate(-158.87 -49.57)"/><path class="cls-22" d="M1307.82,173.76v77.83a80.22,80.22,0,0,0,68.42-40.75Z" transform="translate(-158.87 -49.57)"/><path class="cls-22" d="M1226.16,169.93h74.58l-65.58-35.53A79.85,79.85,0,0,0,1226.16,169.93Z" transform="translate(-158.87 -49.57)"/><path class="cls-23" d="M1345.85,101.52l-37.07,68.41h77.8A80.22,80.22,0,0,0,1345.85,101.52Z" transform="translate(-158.87 -49.57)"/><path class="cls-22" d="M1304.92,168.91V91.16a80.19,80.19,0,0,0-68.38,40.7Z" transform="translate(-158.87 -49.57)"/><path class="cls-24" d="M1308.78,88.85v74.47l35.49-65.49A79.86,79.86,0,0,0,1308.78,88.85Z" transform="translate(-158.87 -49.57)"/><path class="cls-22" d="M1304.92,177.05l-35.51,65.55a79.92,79.92,0,0,0,35.51,9Z" transform="translate(-158.87 -49.57)"/><rect class="cls-22" x="1077.87" y="317.8" width="17.57" height="66.48"/><rect class="cls-22" x="1109.68" y="305.79" width="17.57" height="78.49"/><rect class="cls-22" x="1141.5" y="293.77" width="17.57" height="90.51"/><rect class="cls-22" x="1173.31" y="281.75" width="17.57" height="102.53"/><rect class="cls-22" x="1205.12" y="269.74" width="17.57" height="114.54"/><rect class="cls-22" x="1236.94" y="257.72" width="17.57" height="126.56"/><rect class="cls-22" x="1268.75" y="245.7" width="17.57" height="138.58"/><rect class="cls-22" x="1300.56" y="233.69" width="17.57" height="150.59"/><rect class="cls-22" x="1332.38" y="221.67" width="17.57" height="162.61"/><rect class="cls-22" x="1364.19" y="209.65" width="17.57" height="174.63"/><path class="cls-25" d="M1545.19,191h0c-1.56.28-43.63,7.78-45.16,7.78l14.38,3.9L1471.31,219c-2.25,9.84-3.85,16.82-5.12,22.35l-30.67-2.86L1395,275,1363.18,271l-58.82,50.12-27.43-9.27-59.58,41.34,3,4.28,57.43-39.85,27.74,9.37,59.31-50.53,31.86,4.05,40.64-36.55,33,3.07c1.41-6.17,4.84-21.14,5.54-24.19l40.89-18.73-3.17,14.05Z" transform="translate(-158.87 -49.57)"/><rect class="cls-5" x="468.62" y="690.35" width="22.38" height="172.06"/><polygon class="cls-6" points="494.52 863.91 465.46 863.91 465.46 837.89 465.46 816.95 494.52 816.95 494.52 863.91"/><polygon class="cls-6" points="358.29 895 465.46 837.89 465.46 863.91 388.61 895 388.61 900.72 358.29 900.72 358.29 895"/><polygon class="cls-6" points="601.69 895 494.52 837.89 494.52 863.91 571.37 895 571.37 900.72 601.69 900.72 601.69 895"/><polygon class="cls-6" points="470.21 837.89 470.21 900.72 463.04 900.72 463.04 905.16 494.52 905.16 494.52 900.72 487.86 900.72 489.95 837.89 470.21 837.89"/><rect class="cls-4" x="465.86" y="680.69" width="28.89" height="35.42"/><polygon class="cls-8" points="405.83 504.07 370.3 523.7 399.01 653.9 412.98 651.28 396.5 530.37 415.81 522.06 405.83 504.07"/><polygon class="cls-8" points="538.5 504.07 575.92 533.46 569.7 656.9 554.6 653.73 559.88 547.28 529.9 527.36 538.5 504.07"/><path class="cls-9" d="M685.75,643.55H579.23L550,462.38a53.52,53.52,0,0,1,52.83-62.06h59.38A53.53,53.53,0,0,1,715,462.38Z" transform="translate(-158.87 -49.57)"/><path class="cls-9" d="M741.52,716.36H542.2A19.76,19.76,0,0,1,562,696.6H721.77a19.76,19.76,0,0,1,19.75,19.76Z" transform="translate(-158.87 -49.57)"/><path class="cls-26" d="M695,421.53l10-6.75s-26.11-42.94-23.42-79.94c1.42-19.53-30.61-48.32-39.12-43.87-.51-.2-28.43.62-30.91,64.4l-5.94,74.73,30.17,26.72s19-32.6,43.19-18.27S694,446.74,694,446.74,695,428.41,695,421.53Z" transform="translate(-158.87 -49.57)"/><path class="cls-27" d="M586.08,423.24s-.26,71.12,6.94,86.19,4,104.92,4,104.92l83.09,2.47S690.75,533,690.75,510.08,699.11,423,699.11,423,642.59,408.49,586.08,423.24Z" transform="translate(-158.87 -49.57)"/><path class="cls-12" d="M667.11,372.58c1.25,1.25-3.86,35.4,1.14,45.41,0,0-13.29,73.62-22.25,74.69-7.78.93-12-61.63-13.51-68.77-2.09-9.6,2.48-57.59,2.48-57.59Z" transform="translate(-158.87 -49.57)"/><path class="cls-11" d="M666.59,387.54c-11.89,10.75-23.76,5.68-32.77-7.8.2-6.8,1.14-13,1.15-13.42l32.14,6.26C667.62,373.09,667.07,379.48,666.59,387.54Z" transform="translate(-158.87 -49.57)"/><path class="cls-12" d="M662.38,293.59s14.63,2.78,16.37,15.33,4.19,23,1.75,37.64-11.16,34.15-25.44,37.28-29.28-20.56-29.28-33.45-5.22-34.5,4.53-47.74S662.38,293.59,662.38,293.59Z" transform="translate(-158.87 -49.57)"/><path class="cls-28" d="M645.85,361.08c7.7,3.36,19.11,3.44,19.11,3.44a20.89,20.89,0,0,1-2.2,3.25,58.28,58.28,0,0,1-15.24-2.7A24.26,24.26,0,0,1,645.85,361.08Z" transform="translate(-158.87 -49.57)"/><path class="cls-29" d="M647.52,365.07a58.28,58.28,0,0,0,15.24,2.7C657.31,374.27,651.53,372.7,647.52,365.07Z" transform="translate(-158.87 -49.57)"/><path class="cls-11" d="M662.38,293.59s14.63,2.78,16.37,15.33c1.58,11.37,3.73,21,2.31,33.63a40.37,40.37,0,0,0-10.29-4.76c-12.93-4.26-26.1-24-27.91-38.8C642.61,286.46,662.38,293.59,662.38,293.59Z" transform="translate(-158.87 -49.57)"/><path class="cls-30" d="M662.51,352.65a115.48,115.48,0,0,1-.61-12,122.29,122.29,0,0,1,1.4,12.54c-2.13.59-4.69,1.78-7.9.57A13.41,13.41,0,0,0,662.51,352.65Z" transform="translate(-158.87 -49.57)"/><path class="cls-30" d="M654.59,340.22A8,8,0,0,0,649.2,335c-4.78-1.25-7.7,5.63-11,5.57,2.35,1.2,6.12-2.82,8.7-3.85a4.78,4.78,0,0,1,4,.48A12.47,12.47,0,0,1,654.59,340.22Z" transform="translate(-158.87 -49.57)"/><path class="cls-30" d="M645.93,338.15a2.35,2.35,0,1,0,2.33-2.63A2.5,2.5,0,0,0,645.93,338.15Z" transform="translate(-158.87 -49.57)"/><path class="cls-30" d="M665.22,341.72a8,8,0,0,1,5.61-5c4.84-1,7.44,6,10.72,6.06-2.41,1.1-6-3.09-8.53-4.23a4.7,4.7,0,0,0-4,.3A12.24,12.24,0,0,0,665.22,341.72Z" transform="translate(-158.87 -49.57)"/><path class="cls-30" d="M674,340a2.35,2.35,0,1,1-2.21-2.74A2.49,2.49,0,0,1,674,340Z" transform="translate(-158.87 -49.57)"/><path class="cls-30" d="M656.28,329.07c.53-.34-3.65-4.53-8.65-5s-10.41,5-10.41,5,7.37-4.4,10.48-3S653.4,330.94,656.28,329.07Z" transform="translate(-158.87 -49.57)"/><path class="cls-11" d="M649.53,349.64c-.64,1.91-4.14,2.47-7.83,1.24s-6.15-3.78-5.51-5.7,4.14-2.46,7.83-1.23S650.17,347.73,649.53,349.64Z" transform="translate(-158.87 -49.57)"/><path class="cls-11" d="M679.24,348.68c.28,1.83-2.11,3.7-5.33,4.19s-6.07-.58-6.35-2.4,2.11-3.7,5.34-4.19S679,346.86,679.24,348.68Z" transform="translate(-158.87 -49.57)"/><path class="cls-31" d="M607.43,609.45l-15.65,7.37S574,636.46,570.1,671.17s43.22,51.73,43.22,51.73l93-6.55s34.38-94.21-22.7-105.53C628.81,600,607.43,609.45,607.43,609.45Z" transform="translate(-158.87 -49.57)"/><path class="cls-32" d="M659.82,661.35s.49,16.45,1.4,16.81c7.8,3.08,42-.78,45.76,18.77,4.19,21.82-65.09,180.82-60.5,204.4S657.26,945.24,661,949s3.83,7,.56,10.25-17.21-.51-21.14-4.44-8.63-34.31-15.67-41.35S615,902,623.15,885.3s29.46-146,32.08-159.45-1.61-19.37-1.61-19.37L621.18,685.9Z" transform="translate(-158.87 -49.57)"/><path class="cls-12" d="M686,646.94s-12.11-8.18-36.34,0-40.6,28.49-43.22,38-13.43,193.83-27.83,224-15.28,31.86-21.61,38.2-3.45,21.95,0,25.4,30.12-3.58,33.18-14.05,9.6-34.93,12.22-42.35,21.08-77.6,38.7-110.83,23.37-106.58,23.37-112.69,30.91-8.41,30.91-8.41S701.94,650.57,686,646.94Z" transform="translate(-158.87 -49.57)"/><path class="cls-33" d="M699.11,423s11.28,6.57,12.87,14.86c6.42,33.44,12,118.21,9.39,139.68-3.27,26.79-13.75,26.79-13.75,26.79l-125.08-15,5.24-33.4s85.13,5.24,93.65,5.24,9.13-64.64,9.13-64.64Z" transform="translate(-158.87 -49.57)"/><path class="cls-34" d="M586.08,423.24S556.35,423,549.8,461s-2.62,143.35,11.14,143.35,89.75-44.09,100.21-44.09h0a7.13,7.13,0,0,1-5.44-5.69l-3.61-20.23S593,535,582.54,545.44c0,0,11.14-41.25,11.14-56.32S604.41,423.24,586.08,423.24Z" transform="translate(-158.87 -49.57)"/><path class="cls-12" d="M687.27,546.47s-33.17-11.07-34-5.91c-2.37,13.83,5.35,20.13,5.35,20.13s22.46,3.39,26.07-.22S687.27,546.47,687.27,546.47Z" transform="translate(-158.87 -49.57)"/><path class="cls-11" d="M969.51,548.76l-1.7,53.43s25.32,4.81,32.3,2.13c3.88-1.49,4.61-28.11,3.39-58.89C990.24,544.32,982,544.27,969.51,548.76Z" transform="translate(-158.87 -49.57)"/><path class="cls-35" d="M1003.5,545.43c-1-24.69-3.24-52.06-6.15-71.3-6.55-43.22-32.74-65.64-32.74-65.64l-.73,133,.58,8.89A92.44,92.44,0,0,1,1003.5,545.43Z" transform="translate(-158.87 -49.57)"/><path class="cls-36" d="M870.36,411.1c0,17.46,3,104.6,8.24,132.44s-36.52,76.26-36.52,99.76,30.56,57.56,30.56,57.56H974.79s31.44-57.2,20.09-84-27.07-6.77-19.21-45.19,8.62-91.05,4.25-127.73-24.2-47.82-58.25-47.82S870.36,393.64,870.36,411.1Z" transform="translate(-158.87 -49.57)"/><path class="cls-37" d="M963.88,627.08s-48.13-14.74-71.16,8.29-20.08,65.49-20.08,65.49H974.79S1008,654.14,963.88,627.08Z" transform="translate(-158.87 -49.57)"/><path class="cls-11" d="M942.66,657.81c-7.2-17.47-15-20.82-21.63-20.82a42.2,42.2,0,0,0-38.85,27.22c-8.57,21.91-41.74,155.59-47.54,180.32-4.13,17.61-12.26,29.8-20.87,39.81-18.14,27.34-12.9,44.91-.57,57.94,0,1.66,13.21,5,27.94-35.9,3.29-9.15,4.81-14.77,8.73-34.6S949.84,675.28,942.66,657.81Z" transform="translate(-158.87 -49.57)"/><path class="cls-38" d="M839.47,910.85c-4.81,3-16.46,10.06-21.09,10.06s-10.7-13.27-13.4-19.58c-6.68,18.53-1.38,32.38,8.22,42.52C815,946,825.43,947.18,839.47,910.85Z" transform="translate(-158.87 -49.57)"/><path class="cls-39" d="M991.31,668.1c.38-19.11-11.39-23.12-20.71-24.8-11.73-2.11-27.11,11.36-39.77,31.2S889.09,830.09,883.3,854.82c-4.13,17.61-12.27,29.8-20.87,39.81-18.14,27.34-12.9,45.19-.57,58.22,0,1.66,13.2,4.75,27.94-36.18,3.29-9.15,4.8-14.76,8.73-34.6S990.93,687,991.31,668.1Z" transform="translate(-158.87 -49.57)"/><path class="cls-40" d="M885.78,926.91c-5.76,1.94-11.79,3.27-16.53,2.48-9.35-1.55-11-17.09-11.1-27.7-12.88,23.62-7.53,40.58,3.71,52.45C864,955.3,872.75,957.27,885.78,926.91Z" transform="translate(-158.87 -49.57)"/><path class="cls-41" d="M934.19,551.56l23.12,42.73a.69.69,0,0,1-1.2.68l-24.49-42a1.47,1.47,0,1,1,2.54-1.49Z" transform="translate(-158.87 -49.57)"/><path class="cls-12" d="M946,565.49c-5-5-12.65,1.78-19.63,4s-72.47,1.75-81.64-.43c-3.39-.81-1.82-11.27,1.62-25.38a78.22,78.22,0,0,0-33.05-3.27c-3.58,34.39-4.75,64.86,0,68,10.47,6.93,97.64-21.45,106.44-21.45s4.44,4.09,17.54,4.09a45.79,45.79,0,0,0,16.21-2.63,3.61,3.61,0,0,0,2.08-4.68C953.6,578.69,949.6,569.12,946,565.49Z" transform="translate(-158.87 -49.57)"/><path class="cls-11" d="M845.11,548.8c.37-1.65.77-3.38,1.21-5.16a78.22,78.22,0,0,0-33.05-3.27c-.45,4.31-.86,8.56-1.23,12.7C818.54,551.83,834.59,549,845.11,548.8Z" transform="translate(-158.87 -49.57)"/><path class="cls-42" d="M846.32,543.64c10.86-23.8,28.56-63.51,29.94-79.46,2.18-25.32-3.32-63.86-3.32-63.86s-29.8,18.49-39.4,39.88c-5.26,11.71-21.52,61.87-25.85,103.44C818.52,542.4,835.67,540.12,846.32,543.64Z" transform="translate(-158.87 -49.57)"/><path class="cls-43" d="M912.75,600.83H975.6S932.47,586.88,912.75,600.83Z" transform="translate(-158.87 -49.57)"/><path class="cls-44" d="M1035.87,600.83H975.6s23.22-4.86,38.89-4.86S1035.87,600.83,1035.87,600.83Z" transform="translate(-158.87 -49.57)"/><path class="cls-44" d="M1025.18,581.4s-29.31-.84-49.58,19.43c0,0,9.59-6.89,25.35-11s26.44-3.87,26.44-3.87Z" transform="translate(-158.87 -49.57)"/><polygon class="cls-45" points="749.77 551.25 816.73 551.25 753.39 549.77 749.77 551.25"/><path class="cls-11" d="M1028.1,530.87c-4.68-30.47-.86-66.12-.86-66.12s8.14-7.1,19-4.19,16.69,4.71,15.62,1.6-15.22-8-15.22-8,13.65-.16,20.62,3.42,8.58-3.33-10.83-6.78-13.07-5.3-9.8-6.42,22.61,3.92,27.74.27c4.75-3.39-26.24-6.79-35.36-5.72,39.7-11.27,27.3-16.15-10.28-3.25-10.78,3.7-20.47,19.81-20.7,20.2-1,1.27-11.6,50.47-12.19,88C1006.14,539.24,1018.64,536.82,1028.1,530.87Z" transform="translate(-158.87 -49.57)"/><path class="cls-46" d="M1001.76,469c-2.92,2.91-36.52,128.58-17.34,133.61s42.55-19,42.55-19l4.58-103.7Z" transform="translate(-158.87 -49.57)"/><path class="cls-12" d="M1268.05,462.89c3.94-8.92,20.42-11.24,25.72-12.93s10.16-12.28,13.68-13.41,2.46,10.7-2.88,13.77,1.5,7.73,5.65,7.77,19.21-1.1,22.66-8.9,9.87-12.45,10.74-9.73-8,14.58-8,14.58,14.29-13.05,15.32-9.82-12,12.59-12,12.59,8.79-4.05,11.33-2.54-20.88,16-25.51,17.47-22.92.5-32-.43c-3.79-.39-5.7,18.25-12.16,42.62-3.31-5.94-19.39-11.09-24.05-16C1264.37,481.31,1266.49,466.42,1268.05,462.89Z" transform="translate(-158.87 -49.57)"/><path class="cls-46" d="M1257,480.77l-29.59,124.36s27.76,4,39.41,0S1293,518.59,1293,482.58Z" transform="translate(-158.87 -49.57)"/><polygon class="cls-47" points="1327.35 660.59 1265.68 672.53 1226.5 656.96 1265.68 616.36 1327.35 660.59"/><path class="cls-48" d="M1515.7,433.69s-10,6-22.06,35.32-12,89.92-23.79,95.47c-10.32,4.86-92.89,14.94-113.31,17.38a9.61,9.61,0,0,0-7,4.44l-10.66,17,55.45,1.81s63,31.41,79.11,20.69,62.86-99.37,68.93-125.56S1515.7,433.69,1515.7,433.69Z" transform="translate(-158.87 -49.57)"/><path class="cls-49" d="M1394.33,555.92c-2.62,0-28.82-6.11-28.82-6.11l-6.11,27.06,27.07,11.35Z" transform="translate(-158.87 -49.57)"/><path class="cls-48" d="M1341.94,920.87s-9.21,28-35,34.89c-9.7,2.61-54,24.48-45.71,24.48,3.16,0,95,.32,95,.32s6.86-12.1,4.24-23,10-36.67,10-36.67Z" transform="translate(-158.87 -49.57)"/><path class="cls-50" d="M321.86,278s7.73,46.2,32,77.3c18.11,23.26,56,49.17,56,49.17L388.36,428l-59.17-48.84Z" transform="translate(-158.87 -49.57)"/><polygon class="cls-51" points="130.59 185.17 83.13 185.17 84.66 341.25 147.67 345.5 130.59 185.17"/><path class="cls-51" d="M342.65,982.58c26.73,0,26.08,11,26.08,11H290.48s3.9-33.78,4.49-41.77h18.37C315.37,961.57,322.11,982.58,342.65,982.58Z" transform="translate(-158.87 -49.57)"/><path class="cls-51" d="M211.85,986.61c24.34,0,29.32-29.51,30-34.81h17.58v2.57c0,3.67,4.57,43.22,4.57,43.22H185.77S185.12,986.61,211.85,986.61Z" transform="translate(-158.87 -49.57)"/><path class="cls-52" d="M218.83,774.16l-25-211.26,7.06-62.51H338.41l1,55.09,14.43,214.65S318,948.85,318.56,951.8h-26c0-.65,7.34-196,7.34-196l-29.67-174L258.66,764.48S263.94,929.1,264,951.8H239.58C239.65,951.28,218.83,774.16,218.83,774.16Z" transform="translate(-158.87 -49.57)"/><path class="cls-53" d="M200,508.6l.93-8.21H338.41l.12,7.19-28.86,9.82a120.78,120.78,0,0,1-72.39,1.84Z" transform="translate(-158.87 -49.57)"/><path class="cls-54" d="M191.37,276.26c14.95-16.8,49.56-43.61,87.7-37.14l39.86,17.7,11.72,86L341.14,506.7,199,508.33,185.5,348.83S176.42,293.05,191.37,276.26Z" transform="translate(-158.87 -49.57)"/><path class="cls-12" d="M283.92,200.52s.41,33.61,3.62,50.73c1.24,6.62-1.79,13.4-7.41,15.84a27.77,27.77,0,0,1-16.52,1.55c-17.89-3.41-18.49-23.51-18.49-23.51l6-61.29Z" transform="translate(-158.87 -49.57)"/><path class="cls-11" d="M251.15,183.84l32.77,16.68s.15,12.4,1,26c-8.55.42-19.29-4.42-30.7-19.05-1.69-2.17-3.27-4.33-4.75-6.46Z" transform="translate(-158.87 -49.57)"/><path class="cls-12" d="M281.8,114.35a58.85,58.85,0,0,1,16.07,25.54c4.85,16,9.09,27.59,9.09,27.59l-5.15,3.4s4.1,22.35.91,30c-4.85,11.58-25.32,20.94-48.51-5.11S229.05,146.7,233,135.46,272.7,108.55,281.8,114.35Z" transform="translate(-158.87 -49.57)"/><path class="cls-55" d="M246.94,139.27a27.84,27.84,0,0,1,25.16-5.45c14.85,4.09,19.85-2.21,17-5.45,0,0,13,.34,17.89-11.58s3.64-48-19.4-41.21-18.39,23.16-18.39,23.16S261.79,90.9,254.82,95s-6.07,9.88-6.07,9.88-6.36,13.28-15.15,15-7.88,21.45-7.88,21.45-5.16,4.09-1.52,18.4,25.06,36.49,25.06,43.3c0,0,5.25-8.9,1-22.87S246,158,250.57,158,246.94,139.27,246.94,139.27Z" transform="translate(-158.87 -49.57)"/><path class="cls-12" d="M253.49,167.24s-1.48-11.75-4.77-11.75-6.37,1.28-5.57,7.92,4.2,14.05,8.52,11A5.26,5.26,0,0,0,253.49,167.24Z" transform="translate(-158.87 -49.57)"/><path class="cls-55" d="M214.51,140.18a4.28,4.28,0,0,1,2-2.51c3.08-1.48,7.2,1.7,9.92,3.9l.46-.62a21.38,21.38,0,0,0-6.49-5.6c-4-1.89-7.55,0-9.06,3.64Z" transform="translate(-158.87 -49.57)"/><path class="cls-55" d="M214.26,155.38a14.57,14.57,0,0,1,.11-5.46c2-8.84,11.55-8.07,12-8.33V141c-.27.11-13.86-2.85-15.81,11.42a17.13,17.13,0,0,0-.15,3.79Z" transform="translate(-158.87 -49.57)"/><path class="cls-56" d="M284.44,149.82c0,2.89,1.13,5.24,2.53,5.24s2.54-2.35,2.54-5.24-1.13-5.24-2.54-5.24S284.44,146.93,284.44,149.82Z" transform="translate(-158.87 -49.57)"/><path class="cls-56" d="M278.73,144.65a10.31,10.31,0,0,1,11.77-1.77l.95-3.77a11.2,11.2,0,0,0-13.08,2.06Z" transform="translate(-158.87 -49.57)"/><path class="cls-57" d="M294.2,240.68l10.59,318h65.93L351.29,414.27l-12.76-87.83s-6.18-59.06-19.6-69.62A158.58,158.58,0,0,0,294.2,240.68Z" transform="translate(-158.87 -49.57)"/><path class="cls-11" d="M251.31,162.5s-1.92-4-3.64-3.41-2.11,8.56.94,11.93S254.25,168.87,251.31,162.5Z" transform="translate(-158.87 -49.57)"/><path class="cls-57" d="M241.28,239l6.94,319.77H177.61S175,305.27,182.77,278.78,241.28,239,241.28,239Z" transform="translate(-158.87 -49.57)"/><polygon class="cls-58" points="160.96 202.93 130.59 185.17 140.4 343.27 157.05 253.59 151.17 249.55 160.96 202.93"/><polygon class="cls-58" points="85.71 341.78 83.13 185.17 56.07 197.47 70.81 249.44 67.07 252.36 85.71 341.78"/><polygon class="cls-59" points="209.86 388.28 307.74 313.43 204.08 303.81 125.69 388.28 209.86 388.28"/><path class="cls-12" d="M314.21,406.08s-10.63,2.43-14.56,6.73c-5,5.48-16.93,14.4-21.94,14.4s-26.31,2.13-26.31,2.13l-3.58,24s79.52-18.61,83.27-22.7-18.65,3-18.65,1.22,27-3.88,25.58-8.48-24.89,6.19-27,3.91,28.36-6.08,28.36-10.95-30.31,7-30.31,7-.55-2.47,7.65-6.43,16.15-7.13,14.34-9.12-22.79,10.61-25.56,7.59Z" transform="translate(-158.87 -49.57)"/><path class="cls-58" d="M202.22,272.59s11.56,21.59,9.25,52.7-6.24,78.8.23,94.35,53.87,0,53.87,0v36.81S196.84,485,176.93,475.63s-18-89.69-18-129.09S189.53,244.32,202.22,272.59Z" transform="translate(-158.87 -49.57)"/><path class="cls-60" d="M202.22,272.59c5.71,12.51,9.46,31,8.26,50.28-2.14,28.95-8.89,91.79,3.46,101.35,11.91,7.48,38.81,0,51.63-4.58-12.57,3.41-48.18,11.8-52.8-.57-3.94-9.89-3.31-33.79-2.94-44.42,1.43-45.93,6.95-62.14-2.55-90.17A73.74,73.74,0,0,0,202.22,272.59Z" transform="translate(-158.87 -49.57)"/><path class="cls-61" d="M297.3,189.31l-.91,5.78c-11.48-1.3-17.17-11.25-17.17-11.25C286,190.8,297.3,189.31,297.3,189.31Z" transform="translate(-158.87 -49.57)"/><path class="cls-12" d="M397.55,405.11s1.38,1.73,3.57,7c2.13,5.11-3.79,10.38-4.95,11.48a55.86,55.86,0,0,1-8.64,6.42,20.27,20.27,0,0,1-6.45,2.7c-3.5.78-11.34-11.94-10.26-13.16.73-.82,1.61-1.46,2.42-1.2s9.56,7.21,9.56,7.21-7.85-10-7-13,2.58-2.61,3.26-1.85,10.67,10.16,10.67,10.16-6.73-12-6.15-13.91,3.3-3.31,6.39,1.51a57.6,57.6,0,0,0,6.27,7.11s-3.78-9-2.91-11.94S397.55,405.11,397.55,405.11Z" transform="translate(-158.87 -49.57)"/><path class="cls-62" d="M1145.48,957s.25,1.21.86,3.09c1.84,5.63,7,17.24,18.8,20.11,15.73,3.83,28.16-.32,31,2.53s3.9,11.63,3.9,11.63l-94.64,4.42,5.58-38.66Z" transform="translate(-158.87 -49.57)"/><polygon class="cls-62" points="909.66 674.72 945.99 919.84 994.56 912.1 986.66 673.02 909.66 674.72"/><path class="cls-63" d="M1100,948.44s-12,10.24-12,21l-41.56,30.64h-14.72s30.63-38.34,36.81-47.92a40.84,40.84,0,0,0,6.42-19Z" transform="translate(-158.87 -49.57)"/><path class="cls-64" d="M1231.37,718.75c-13.49-40.59-50.55-21.82-50.55-21.82-23.14,4.37-57.6,84.25-62.4,109.17-3.47,18-37.63,99.75-56.37,143.88,13-7.07,30.2-3,37.73,9.3C1139.48,893.59,1235.8,732.09,1231.37,718.75Z" transform="translate(-158.87 -49.57)"/><path class="cls-65" d="M1072.74,954.81s11.36,3.29,15,10.83-15,22.12-15,28.76,4.91,12.28,0,14.74-45.22,2.86-43-5.21,18-17.15,24.5-27.23S1066.44,952.13,1072.74,954.81Z" transform="translate(-158.87 -49.57)"/><path class="cls-62" d="M1186.3,710.17s60.9-17.57,41.14,24c-3.82,8-179.3,20.12-179.3,5.42s11.13-29.4,11.13-29.4Z" transform="translate(-158.87 -49.57)"/><path class="cls-66" d="M1052.06,447.06a175.76,175.76,0,0,1,45.72-10.54c13.73-1.18,27.45,3.27,42.91,3.27,43.65,0,85.78,11.57,90.39,32.77S1178.19,700.9,1191.29,714s-115.65,21.34-131.8,5.19S1004.92,465.39,1052.06,447.06Z" transform="translate(-158.87 -49.57)"/><path class="cls-67" d="M1110.85,397l-13.07,44.05s34.18,13.5,57.09,0l-7.2-48.85Z" transform="translate(-158.87 -49.57)"/><path class="cls-66" d="M1052.06,447.06s-36.7,49.27-44.54,72.84-29.32,63.58-27.49,74,14.6,20.69,36,15.55,19.83-25.79,19.83-25.79Z" transform="translate(-158.87 -49.57)"/><path class="cls-66" d="M1229.92,469s46,127,36.93,136.12-39.41,0-39.41,0l-33.28-64.93Z" transform="translate(-158.87 -49.57)"/><path class="cls-12" d="M1507.42,288.87s-17.14,22.52-19.72,37.81c-2.65,15.72-5.86,40.86-5.86,40.86h7s5.81,14,5.81,23.26,14.73,3.49,23.25,3.49,27.52-7.37,34.88-34.11S1573.69,285.77,1507.42,288.87Z" transform="translate(-158.87 -49.57)"/><polygon class="cls-68" points="1368.66 366.5 1358.25 374.24 1354.55 388.43 1369.43 381.61 1368.66 366.5"/><path class="cls-12" d="M1545,359.79l26,59.68s-49.8,16.47-47.28,13.95-3.22-46.5-3.22-46.5Z" transform="translate(-158.87 -49.57)"/><path class="cls-69" d="M1484.17,272.6c-.79,1.33-14.25,28.69,8.95,39.15s29-4.6,35.18,4.7-5.38,24.35-.34,32.88l7.73,1.48s1.57-4.58,4.67-4.58,4,23.48,9,23.48,14.68-20,19.33-29.29,14.34-40.69-3.49-48.83-25.57-1.94-25.57-9.69-7.75.39-7.75.39-4.27-5.82-1.56-12.4-19-8.92-24,4.26S1492.69,258.26,1484.17,272.6Z" transform="translate(-158.87 -49.57)"/><rect class="cls-5" x="1400.73" y="756.52" width="22.38" height="165.69"/><polygon class="cls-6" points="1426.63 923.65 1397.57 923.65 1397.57 898.6 1397.57 878.43 1426.63 878.43 1426.63 923.65"/><polygon class="cls-6" points="1290.4 953.59 1397.57 898.6 1397.57 923.65 1320.73 953.59 1320.73 959.09 1290.4 959.09 1290.4 953.59"/><polygon class="cls-6" points="1533.81 953.59 1426.63 898.6 1426.63 923.65 1503.48 953.59 1503.48 959.09 1533.81 959.09 1533.81 953.59"/><polygon class="cls-6" points="1402.32 898.6 1402.32 959.09 1395.15 959.09 1395.15 963.37 1426.63 963.37 1426.63 959.09 1419.97 959.09 1422.06 898.6 1402.32 898.6"/><rect class="cls-4" x="1397.57" y="721.46" width="28.7" height="57.92"/><path class="cls-47" d="M1263.24,815.55l-27.88,27.94c-7,7-45.95,10.58-38.2,18.33s27.77,17.77,36.91,17.77,44.07-7.83,44.07-7.83,4-35,8.73-39.74Z" transform="translate(-158.87 -49.57)"/><path class="cls-48" d="M1386.44,635.65c-29.69,0-133.62,170.29-133.62,170.29l10.42,9.61,27.92,20.76c4.74-4.75,113.46-139.38,113.46-139.38s42.19,17.22,74.5,17.22,71-66.77,71-66.77C1546.36,643.62,1416.12,635.65,1386.44,635.65Z" transform="translate(-158.87 -49.57)"/><path class="cls-49" d="M1601.53,634.13c0-.61.11-1.23.16-1.81,2.18-25.32,9.07-226.14-26.35-226.14,0,0-40.8,7.35-66.8,40.38-4.38,5.57-5.15,10.58-7.09,18.17-12.93,50.64-21.5,144.54-20.31,180.15C1521.07,660.7,1565.78,659.67,1601.53,634.13Z" transform="translate(-158.87 -49.57)"/><path class="cls-70" d="M1561.78,389c-3.5,0-39.19,34.4-39.19,34.4l-3.08,19.79,55.83-26.08Z" transform="translate(-158.87 -49.57)"/><polygon class="cls-71" points="1363.36 376.11 1354.63 379.74 1345.51 398.62 1350.7 396.99 1361.28 389.11 1363.36 376.11"/><path class="cls-3" d="M1509.58,446.56s-21.13,107.2-26.07,201.49l-13.66,12.21A342.65,342.65,0,0,0,1471.6,624c0-21.39,22.13-160.43,32.78-175.82Z" transform="translate(-158.87 -49.57)"/><path class="cls-72" d="M1575.34,406.18a115.83,115.83,0,0,0-24.57,8.22c-3.9,15.8-25.77,52.31-35.52,91.27C1508,534.79,1491,572.74,1488.19,597c-2.42,20.83-6.35,38.7-7.71,50.93-3.3,29.51-16.74,79.65-16.74,79.65l127-17.36s8.73-52.53,10.91-77.85S1610.76,406.18,1575.34,406.18Z" transform="translate(-158.87 -49.57)"/><path class="cls-34" d="M1559,683.72l-24.73-2.81a17.41,17.41,0,0,1-15.33-19.26l5.43-47.83,59.32,6.74-5.43,47.83A17.41,17.41,0,0,1,1559,683.72Z" transform="translate(-158.87 -49.57)"/><path class="cls-73" d="M1557.44,400.88l-33.89,28.83-34,164.6s39-68.29,38-75.34-7-13.29-7-13.29S1557.44,413,1557.44,400.88Z" transform="translate(-158.87 -49.57)"/><polygon class="cls-73" points="1410.03 343.27 1398.56 351.31 1394.31 368.17 1421.31 357.97 1410.03 343.27"/><path class="cls-4" d="M1382.76,683.66h54a0,0,0,0,1,0,0v35a4.67,4.67,0,0,1-4.67,4.67h-44.66a4.67,4.67,0,0,1-4.67-4.67v-35A0,0,0,0,1,1382.76,683.66Z"/><path class="cls-8" d="M1613.92,609.18s-124.61-.85-128.55,7.84,1.94,110.51,1.94,110.51l14.84-2.66s-6.14-86.36,3.06-95.55,110,4.74,111.32,3.43S1613.92,609.18,1613.92,609.18Z" transform="translate(-158.87 -49.57)"/><path class="cls-73" d="M1483.76,614.39c-6.63,7,1.3,82.58,2.44,92.09.94-42.76-.37-78.56,1.75-88,6.9-4.24,58.89-6,101.06-9.29C1574.7,608.32,1493.64,605.37,1483.76,614.39Zm4.23,3.94a.11.11,0,0,0,0-.05S1488,618.28,1488,618.33Z" transform="translate(-158.87 -49.57)"/><path class="cls-74" d="M1671.54,734H1449.77a23.86,23.86,0,0,1,23.86-23.86h197.91Z" transform="translate(-158.87 -49.57)"/><path class="cls-74" d="M1650.59,454.64s-52.39,25.13-52.39,108.61,30.56,146.92,30.56,146.92h42.78s-55-117.64-29.69-167.81S1710,464.24,1650.59,454.64Z" transform="translate(-158.87 -49.57)"/><path class="cls-75" d="M1641.85,542.36c24.18-47.91,64.27-75.54,16.18-86.31,35.58,12-1.2,39.16-23.92,84.18C1608.79,590.4,1663.79,708,1663.79,708v23.87H1449.86c-.06.7-.09,1.41-.09,2.12h221.77V710.17S1616.53,592.53,1641.85,542.36Z" transform="translate(-158.87 -49.57)"/><path class="cls-34" d="M1563.45,422.23c-15.82,3.74-34.71,15.35-45.14,46.78s-20.91,75.21-34.88,81.61-104.82-.81-104.82-.81l-2.31,40.81s99.16,29.11,125.73,26.2,73.25-97.31,87.44-131.44C1616.8,419.63,1580.06,418.29,1563.45,422.23Z" transform="translate(-158.87 -49.57)"/><path class="cls-76" d="M1563.45,422.23c-44.65,13.65-42.81,60.26-62.46,108.2-3.14,7.3-9.15,20-16.68,22.86-1.68,0-11.21,8.55-105.7-3.48,31.65.7,96.4,2.94,104.8-2.46,12.64-8.68,23.63-54.92,33.51-81.24,3.93-10.45,9.53-20.51,17.5-28.48A54.74,54.74,0,0,1,1563.45,422.23Z" transform="translate(-158.87 -49.57)"/><path class="cls-72" d="M1422.5,743.92c-12,57.71-49.41,192.64-49.41,192.64l-45.55-13.2s28.48-216.2,51.51-239.23S1434.48,686.2,1422.5,743.92Z" transform="translate(-158.87 -49.57)"/><path class="cls-77" d="M1357.22,586s12.59-1.92,19.08,4.58a40.75,40.75,0,0,1,9.08,14.08l-46.5-1.38S1346.12,585.56,1357.22,586Z" transform="translate(-158.87 -49.57)"/><path class="cls-49" d="M1338.88,603.32s7.24-17.76,18.34-17.28c0,0,12.59-1.92,19.08,4.58a38.72,38.72,0,0,1,3.08,3.49,45.25,45.25,0,0,0-4.17-6c-6.5-7.85-14.72-5.92-19.08-5.54-11.07,1-18.34,20.85-18.34,20.85Z" transform="translate(-158.87 -49.57)"/><path class="cls-12" d="M1356.66,586s-6.32-.6-8.61,1.64-3.75,3.87-4.47,4.58-.11,9.82,10.4,12.12,8.61-2.68,11.63-1.42,6.43,3.22,7.94,1.74,3.52,2.13,5.7,0-3.82-15.56-7.27-18.92-5.92-2.14-8.72-2.14S1356.66,586,1356.66,586Z" transform="translate(-158.87 -49.57)"/><rect class="cls-3" x="1219.29" y="576" width="12.25" height="360.84"/><rect class="cls-3" x="254.83" y="573.83" width="12.25" height="360.84"/><rect class="cls-3" x="368.91" y="564.77" width="12.25" height="360.84"/><rect class="cls-78" x="219.93" y="551.25" width="1054.38" height="25"/><path class="cls-9" d="M1171.6,747.13H1033.21L995.18,540c-6.83-37.21,25.82-71,68.65-71H1141c42.83,0,46.08,50,43.91,90.07l-5.79,82Z" transform="translate(-158.87 -49.57)"/><path class="cls-79" d="M1009.52,557.73c-6.83-37.22,25.82-71,68.65-71h77.15c9,0,16.24,2.21,22.06,6.06-6.44-14.19-17.61-23.81-36.4-23.81h-77.15c-42.83,0-75.48,33.75-68.65,71l38,207.16h11.08Z" transform="translate(-158.87 -49.57)"/><rect class="cls-80" x="952.1" y="731.63" width="22.38" height="216.97"/><polygon class="cls-81" points="978.01 950.24 948.95 950.24 948.95 921.68 948.95 898.7 978.01 898.7 978.01 950.24"/><polygon class="cls-81" points="841.77 984.37 948.95 921.68 948.95 950.24 872.1 984.37 872.1 990.64 841.77 990.64 841.77 984.37"/><polygon class="cls-81" points="1085.18 984.37 978.01 921.68 978.01 950.24 1054.86 984.37 1054.86 990.64 1085.18 990.64 1085.18 984.37"/><polygon class="cls-81" points="953.7 921.68 953.7 990.64 946.52 990.64 946.52 995.52 978.01 995.52 978.01 990.64 971.35 990.64 973.44 921.68 953.7 921.68"/><rect class="cls-4" x="948.85" y="712.43" width="28.88" height="22.02"/><path class="cls-7" d="M1247.2,762H997.49a28,28,0,0,1,28-28h193.78a28,28,0,0,1,28,28Z" transform="translate(-158.87 -49.57)"/><path class="cls-46" d="M1096.08,426.46s40.17,16,58.79,1.22l5.6,12.92s-6.39,11.17-32.19,13.14-38.45-16.32-38.45-16.32Z" transform="translate(-158.87 -49.57)"/><path class="cls-67" d="M1101.49,363.91s-9.22-7-9.22-1.84-1,23.42,7.6,18.34S1101.49,363.91,1101.49,363.91Z" transform="translate(-158.87 -49.57)"/><path class="cls-82" d="M1112.06,312.91s-17.42-5.71-22.23,12,8,35.95,8,44.78,4.75,19,13.07,27.3,27.75,17,27.75,17,21.63-13.36,29-28.1,3-24.58,5.89-46.7-12.17-29.5-18.62-29.5S1126.33,285.68,1112.06,312.91Z" transform="translate(-158.87 -49.57)"/><polygon class="cls-8" points="1093.95 610.68 1020.43 588.58 1019.08 607.68 1068.57 618.77 1056.51 685.34 1070.56 686.4 1093.95 610.68"/><path class="cls-40" d="M947.4,402.25c0-5.38-4.22-7.06-9.47-8.24-17.89-4-40.94-4.71-39.27,1.51,2.18,8.11,19.37,19.26,31.05,19.26s17.19-9.56,17.19-9.56Z" transform="translate(-158.87 -49.57)"/><path class="cls-12" d="M934.16,377l3.76,43.1s-15.69,7.77-35.2-1.32l7.8-70.68Z" transform="translate(-158.87 -49.57)"/><path class="cls-11" d="M934.16,377l1.62,18.53a12.23,12.23,0,0,1-5.41-1.54c-15-8.08-17.21-30.32-17.47-43Z" transform="translate(-158.87 -49.57)"/><path class="cls-12" d="M961.2,302.75a25.65,25.65,0,0,1,8.43,15.16c1.54,9.77-5,20.71-5,28.93S949.38,394.23,930.37,385s-17.48-39.06-17.48-45.74,9.26-29.81,20.56-35.2S961.2,302.75,961.2,302.75Z" transform="translate(-158.87 -49.57)"/><path class="cls-83" d="M952.09,341.25a18.54,18.54,0,0,0-3.55-8c-2.81-3.36-10.61-3.85-10.61-3.85s7.36,1.79,9.16,4.11a16.81,16.81,0,0,1,2.54,5.67Z" transform="translate(-158.87 -49.57)"/><path class="cls-83" d="M956.32,344.47s3-2.8,6.2-3.28,6,3.72,6,3.72-3.39-3-5.53-2.54a12.19,12.19,0,0,0-4.41,2.31Z" transform="translate(-158.87 -49.57)"/><path class="cls-28" d="M933.38,367.05c5.76,2.43,8.38,4.89,16,4.53A14.85,14.85,0,0,1,933.38,367.05Z" transform="translate(-158.87 -49.57)"/><path class="cls-83" d="M944.44,343.89c-.54,1.86-2.05,3.06-3.36,2.68s-1.94-2.21-1.39-4.07,2-3.06,3.36-2.67S945,342,944.44,343.89Z" transform="translate(-158.87 -49.57)"/><path class="cls-84" d="M933.27,341.8c11.54-6.3,13,1.36,15.73,2.72-2.42-.59-4.34-4-7.14-4.1C939.57,340.29,935.78,341.26,933.27,341.8Z" transform="translate(-158.87 -49.57)"/><path class="cls-83" d="M962.18,352.35c-.6,1.43-1.88,2.23-2.86,1.78s-1.28-2-.68-3.39,1.88-2.23,2.86-1.78S962.78,350.93,962.18,352.35Z" transform="translate(-158.87 -49.57)"/><path class="cls-84" d="M954.45,351.73c8.33-7.93,10.79-.6,13.28.33-2.06-.22-4.2-3.27-6.51-3C959.33,349.3,956.4,350.82,954.45,351.73Z" transform="translate(-158.87 -49.57)"/><path class="cls-11" d="M937.77,350.58c-.74,2.55-4.09,3.82-7.48,2.83s-5.52-3.86-4.77-6.42,4.1-3.82,7.48-2.83S938.52,348,937.77,350.58Z" transform="translate(-158.87 -49.57)"/><path class="cls-83" d="M955.75,348.08a128.17,128.17,0,0,0-5.29,15,9.48,9.48,0,0,1-5.45-1.64c2.18,2.5,5.86,2.42,6,2.48A134.46,134.46,0,0,0,955.75,348.08Z" transform="translate(-158.87 -49.57)"/><path class="cls-85" d="M961.2,302.75a25.65,25.65,0,0,1,8.43,15.16c1.54,9.77,3.11,27.43-5,28.93-4.69.87-20.94-26-16.35-45.58A60.65,60.65,0,0,1,961.2,302.75Z" transform="translate(-158.87 -49.57)"/><path class="cls-42" d="M898.66,395.52l-4.75,21.1c5.44,8.53,33.34,52.35,40.71,64.15,4.57,7.31,9.82-42.11,12.78-78.52C927,408.68,915.61,411.92,898.66,395.52Z" transform="translate(-158.87 -49.57)"/><path class="cls-12" d="M1533.72,337.74s-.38,15.3,3.31,15.3,11.76-8.67,10.4-17.88S1535.39,327.05,1533.72,337.74Z" transform="translate(-158.87 -49.57)"/><path class="cls-11" d="M1536.29,336.08s-1.84,6.08.92,8.85,8.09-3.87,5.16-8.85S1536.87,332.57,1536.29,336.08Z" transform="translate(-158.87 -49.57)"/><path class="cls-69" d="M1496.09,331.83l-.59,3.7s6.48-.78,10,2.78,4,3.95,4,3.95S1507.7,333.9,1496.09,331.83Z" transform="translate(-158.87 -49.57)"/><path class="cls-69" d="M1503.07,343.23a2.89,2.89,0,1,1-2.85-3.38A3.15,3.15,0,0,1,1503.07,343.23Z" transform="translate(-158.87 -49.57)"/><path class="cls-69" d="M1494,384.45a63.15,63.15,0,0,0-1.23,9.44c0,3.45,8.6,7.25,16.34,5s18.5-7.32,21.14-9.95,4.75-38.31,4.75-38.31l-7-1.34s-3.47,23.25-6.35,26.13S1494,384.45,1494,384.45Z" transform="translate(-158.87 -49.57)"/><path class="cls-69" d="M1497.58,377.37a12.2,12.2,0,0,0,6.22-1.55,6,6,0,0,0,2-2.13,6.56,6.56,0,0,0,.78-2.75v-.12a1.13,1.13,0,0,1,1.25-1,1.11,1.11,0,0,1,1,1.25l0,.16a8.53,8.53,0,0,1-1.61,3.38,7.38,7.38,0,0,1-2.91,2.16A12.61,12.61,0,0,1,1497.58,377.37Z" transform="translate(-158.87 -49.57)"/><path class="cls-69" d="M1474,300.5c-.17,1.27,1.14,3.5,1.9,4.53,4.07,5.29,12,6,17.27,6.72-.7,0-7.76,1.41-13.69-.29-6.41-1.68-10.23-5.9-11.33-10.17Z" transform="translate(-158.87 -49.57)"/><path class="cls-86" d="M568,960.73c-3.23,0-5.54-12-6.56-18.55a46,46,0,0,1-4.39,4.9c-6.33,6.33-3.45,21.95,0,25.4s30.12-3.58,33.18-14.05l1.5-5.25C584.8,955.77,571.22,960.73,568,960.73Z" transform="translate(-158.87 -49.57)"/><path class="cls-86" d="M624.33,881.64s-9.68,16.06-9.68,23.61,4.84,50.09,4.84,50.09l6.47.24s-4.75-29.1-.64-30.17S636,964.11,636,964.11l33.42,2.27a24,24,0,0,0-9.67-18.92c-10.23-7.87-10.72-5.26-15.64-22.05S624.33,881.64,624.33,881.64Z" transform="translate(-158.87 -49.57)"/><path class="cls-32" d="M617.13,692.1s-.78,11.25,2.56,14.59,19.49,1.22,19.49-7.29S622.11,687.12,617.13,692.1Z" transform="translate(-158.87 -49.57)"/><path class="cls-32" d="M952.56,667.3c-13.09,5.06,3,19.66,13.27,17.94S968.78,661,952.56,667.3Z" transform="translate(-158.87 -49.57)"/><path class="cls-32" d="M914.76,661.65s-5.7-5.53-17.49-3.94,8.4,21.64,17.72,19.42S914.76,661.65,914.76,661.65Z" transform="translate(-158.87 -49.57)"/><path class="cls-32" d="M823.92,590.51c4.8-.5,10.31-.39,10.31,2.71,0,5.51-17.32,9.63-17.32,5.18C817,598.12,817.11,591.22,823.92,590.51Z" transform="translate(-158.87 -49.57)"/><path class="cls-12" d="M600.49,538.73s-1.75-16.54-3.78-18.76-19.81-24.3-22-21.88S587.86,518,587.86,518s-18.18-17.08-19.17-13.19S585.41,525,585.41,525s-18.62-14.17-18.62-11.13c0,0,17.44,18.26,18,18.92S587,542.6,587,542.6Z" transform="translate(-158.87 -49.57)"/><path class="cls-12" d="M586.73,500.28s8.63,4.07,8.63,7.3,2.59,18.5,2.59,18.5l-7.38-3.16L592,509.25S583.74,500.28,586.73,500.28Z" transform="translate(-158.87 -49.57)"/><path class="cls-87" d="M649.44,283c-10.67,1.22-27.57-1.39-35.44,16-4.65,9.88-14.17,28.95-14.17,62.82,0,50.47-48.69,72.81-48.69,72.81l21.34,10.31,12.74-10.31-8.69,18.54,35,3.49L613,432.47,620.24,460l16.35-3.31s-6.44-82.59-7.15-113.78l.18.2s-.15-4-.16-9.18v0c.08-1.52.09-3.08,0-4.65a95.06,95.06,0,0,1,1-13.67c1.57-8.54,4.7-12.89,12.37-16.55S678,305.75,678,305.75C677,289.86,660.11,281.74,649.44,283Z" transform="translate(-158.87 -49.57)"/><path class="cls-56" d="M663.73,285.84c13.41,3,17.46,23.6,28.44,34.58s8.19,26.83,3,37.29-13.6,3.66-13.6,3.66,4.37,2.44,7.16-6.28-2.1-15.5-16.91-20.38S642.86,299,642.86,299C642.49,293,650.31,282.87,663.73,285.84Z" transform="translate(-158.87 -49.57)"/><path class="cls-88" d="M681.53,361.37c5.08,3,12.26-9.49,7-17.63-3.8-6.29-12.15-8.94-18.81-11.7C659.17,326,649,309.22,642.86,299c4.47,12.21,13.92,29.15,25.33,35.9l2.74,1.19c2.83,1.14,11.41,3.45,15.55,9,3.34,4.39,1.75,11.2-.47,14.42A4,4,0,0,1,681.53,361.37Z" transform="translate(-158.87 -49.57)"/><path class="cls-12" d="M632.41,344.64s-3.73-16.18-9.94-12.27.46,21.82,6.25,21.82S632.41,344.64,632.41,344.64Z" transform="translate(-158.87 -49.57)"/><path class="cls-11" d="M626.38,335.77s9.17,14.71,2.88,13.09S620.49,333,626.38,335.77Z" transform="translate(-158.87 -49.57)"/><path class="cls-89" d="M962.48,303.72c15.23,3.84,21.22,18.73,13.61,30.2-1.29,1.94-3,3.76-5.35,3.94v-3.29c.85.14,2.48-1.64,3-2.32C981.35,322.56,976.66,308.46,962.48,303.72Z" transform="translate(-158.87 -49.57)"/><path class="cls-83" d="M951.29,293.33s10.69,0,18.57,7.92,5.52,39,0,43.59,14,9,2.33,9S940.81,294.43,951.29,293.33Z" transform="translate(-158.87 -49.57)"/><path class="cls-83" d="M964.9,307.65c.16-.53-6-17.19-21.17-19.67-18.13-3-39.57,10.53-46.13,28.84S885.14,356,867.22,361.21s-21.2,31.61-15.61,48.18,22.74,12.34,22.74,12.34-10.5-9.16-7.71-12c0,0,8,15.52,17.06,12.43s12.72-8.11,12.72-8.11-15.62-2.4-5.34-11.07c7.15-6,10.8-11.56,19.27-21.77,8.11-9.77,3.87-35.94,10.92-54.72a8,8,0,0,0,4.47,1.66c9.59,1,5.22-6,14.35-16.46C955.75,302.92,963.85,307.68,964.9,307.65Z" transform="translate(-158.87 -49.57)"/><path class="cls-89" d="M901.93,328.4c2.47,7.08,4.21,16.36,3.9,23.59-1.17,23.11-25.7,11.05-32.51,11.53-4.19.17-7.76,4-6.23,9.24,1.23,4.3,4,5.59,5.46,7.32a4.39,4.39,0,0,1-1.5,7c-5.06,2.53-11.29-3.2-13.33,3.64a14.23,14.23,0,0,0,3.72,14.17,14.6,14.6,0,0,1-5.28-14.58c1.24-5.64,5.14-5.37,10.53-5,3.33.22,4.54-1.38,4.27-2.41-.21-2-4.84-2.78-6.85-9.27a10.06,10.06,0,0,1,4.53-12.12c11.24-6.49,36.31,16.89,35.24-17.49A91.48,91.48,0,0,0,901.93,328.4Z" transform="translate(-158.87 -49.57)"/><path class="cls-12" d="M922.89,333.25s.37-8.89-4.26-8.14-7.88,6.82-5.64,12.75S923.51,341.15,922.89,333.25Z" transform="translate(-158.87 -49.57)"/><path class="cls-11" d="M921.07,334.63s.63-5.45-1.41-5.95-4.17,3.76-3.73,6.58S920.76,337.89,921.07,334.63Z" transform="translate(-158.87 -49.57)"/></g></g></svg>