<svg xmlns="http://www.w3.org/2000/svg" xmlns:xlink="http://www.w3.org/1999/xlink" viewBox="0 0 481.5 364.72"><defs><style>.cls-1{mask:url(#mask);}.cls-120,.cls-122,.cls-137,.cls-177,.cls-2{mix-blend-mode:multiply;}.cls-2{fill:url(#linear-gradient);}.cls-3{isolation:isolate;}.cls-171,.cls-4{opacity:0.2;}.cls-5{opacity:0;}.cls-6{opacity:0.09;}.cls-7{opacity:0.18;}.cls-8{opacity:0.27;}.cls-9{opacity:0.36;}.cls-10{opacity:0.45;}.cls-11{opacity:0.55;}.cls-12{opacity:0.64;}.cls-13{opacity:0.73;}.cls-14{opacity:0.82;}.cls-15{opacity:0.91;}.cls-16{fill:url(#linear-gradient-2);}.cls-17{fill:url(#linear-gradient-3);}.cls-18{fill:url(#linear-gradient-4);}.cls-19{fill:url(#linear-gradient-5);}.cls-20{fill:url(#linear-gradient-6);}.cls-21{fill:url(#linear-gradient-7);}.cls-22{fill:url(#linear-gradient-8);}.cls-23{fill:url(#linear-gradient-9);}.cls-24{fill:url(#linear-gradient-10);}.cls-25{fill:url(#linear-gradient-11);}.cls-26{fill:url(#linear-gradient-12);}.cls-27{fill:url(#linear-gradient-13);}.cls-28{fill:url(#linear-gradient-14);}.cls-29{fill:url(#linear-gradient-15);}.cls-30{fill:url(#linear-gradient-16);}.cls-31{fill:url(#linear-gradient-17);}.cls-32{fill:url(#linear-gradient-18);}.cls-33{fill:url(#linear-gradient-19);}.cls-34{fill:url(#linear-gradient-20);}.cls-35{fill:url(#linear-gradient-21);}.cls-36{fill:url(#linear-gradient-22);}.cls-37{fill:url(#linear-gradient-23);}.cls-38{fill:url(#linear-gradient-24);}.cls-39{fill:url(#linear-gradient-25);}.cls-40{fill:url(#linear-gradient-26);}.cls-41{fill:url(#linear-gradient-27);}.cls-42{fill:url(#linear-gradient-28);}.cls-43{fill:url(#linear-gradient-29);}.cls-44{fill:url(#linear-gradient-30);}.cls-45{fill:url(#linear-gradient-31);}.cls-46{fill:url(#linear-gradient-32);}.cls-47{fill:url(#linear-gradient-33);}.cls-48{fill:url(#linear-gradient-34);}.cls-49{fill:url(#linear-gradient-35);}.cls-50{fill:url(#linear-gradient-36);}.cls-51{fill:url(#linear-gradient-37);}.cls-52{fill:url(#linear-gradient-38);}.cls-53{fill:url(#linear-gradient-39);}.cls-54{fill:url(#linear-gradient-40);}.cls-55{fill:url(#linear-gradient-41);}.cls-56{fill:url(#linear-gradient-42);}.cls-57{fill:url(#linear-gradient-43);}.cls-58{fill:url(#linear-gradient-44);}.cls-59{fill:#cba6e3;}.cls-60{fill:#cca7e3;}.cls-61{fill:#cca8e4;}.cls-62{fill:#cda9e4;}.cls-63{fill:#cdaae4;}.cls-64{fill:#ceabe4;}.cls-65{fill:#ceace5;}.cls-66{fill:#cfade5;}.cls-67{fill:#cfaee5;}.cls-68{fill:#d0afe6;}.cls-69{fill:#d1b0e6;}.cls-70{fill:#d1b1e6;}.cls-71{fill:#d2b2e6;}.cls-72{fill:#d2b3e7;}.cls-73{fill:#d3b4e7;}.cls-74{fill:#d3b5e7;}.cls-75{fill:#d4b6e7;}.cls-76{fill:#d5b7e8;}.cls-77{fill:#d5b8e8;}.cls-78{fill:#d6b9e8;}.cls-79{fill:#d6bae9;}.cls-80{fill:#d7bbe9;}.cls-81{fill:#d7bce9;}.cls-82{fill:#d8bde9;}.cls-83{fill:#d8beea;}.cls-84{fill:#d9bfea;}.cls-85{fill:#dac0ea;}.cls-86{fill:#dac1eb;}.cls-87{fill:#dbc2eb;}.cls-88{fill:#dcc3eb;}.cls-89{fill:#dcc4ec;}.cls-90{fill:#ddc5ec;}.cls-91{fill:#dec6ec;}.cls-92{fill:#dec7ed;}.cls-93{fill:#dfc8ed;}.cls-94{fill:#dfc9ed;}.cls-95{fill:#e0caed;}.cls-96{fill:#e0cbee;}.cls-97{fill:#e1ccee;}.cls-98{fill:#e1cdee;}.cls-99{fill:#e2ceef;}.cls-100{fill:#e3cfef;}.cls-101{fill:#e3d0ef;}.cls-102{fill:#e4d1ef;}.cls-103{fill:#e4d2f0;}.cls-104{fill:#e5d3f0;}.cls-105{fill:#e5d4f0;}.cls-106{fill:#e6d5f0;}.cls-107{fill:#e7d6f1;}.cls-108{fill:#e7d7f1;}.cls-109{fill:#e8d8f1;}.cls-110{fill:#e8d9f2;}.cls-111{fill:#e9daf2;}.cls-112{fill:#e9dbf2;}.cls-113{fill:#eadcf2;}.cls-114{fill:#eaddf3;}.cls-115,.cls-167{fill:#ebdef3;}.cls-116{fill:url(#linear-gradient-45);}.cls-117{fill:url(#linear-gradient-46);}.cls-118{fill:url(#linear-gradient-47);}.cls-119{fill:url(#linear-gradient-48);}.cls-120{fill:url(#linear-gradient-49);}.cls-121,.cls-137{fill:#d1b4e3;}.cls-122,.cls-139,.cls-156{fill:#e5d4ef;}.cls-123{opacity:0.02;}.cls-124{opacity:0.05;}.cls-125{opacity:0.07;}.cls-126{opacity:0.1;}.cls-127{opacity:0.12;}.cls-128{opacity:0.15;}.cls-129{opacity:0.17;}.cls-130{opacity:0.2;}.cls-131{opacity:0.22;}.cls-132{opacity:0.25;}.cls-133{opacity:0.27;}.cls-134,.cls-176{opacity:0.3;}.cls-135{fill:url(#linear-gradient-50);}.cls-136{fill:#231f20;}.cls-136,.cls-184{mix-blend-mode:color-dodge;}.cls-138,.cls-169{opacity:0.5;}.cls-140,.cls-157,.cls-159,.cls-167,.cls-170{opacity:0.8;}.cls-141,.cls-174{opacity:0.6;}.cls-142{fill:url(#linear-gradient-51);}.cls-143{fill:url(#linear-gradient-52);}.cls-144{fill:url(#linear-gradient-53);}.cls-145{fill:url(#linear-gradient-54);}.cls-146{fill:url(#linear-gradient-55);}.cls-147{fill:url(#linear-gradient-56);}.cls-148{fill:url(#linear-gradient-57);}.cls-149{fill:url(#linear-gradient-58);}.cls-150{fill:url(#linear-gradient-59);}.cls-151{fill:url(#linear-gradient-60);}.cls-152{fill:url(#linear-gradient-61);}.cls-153{fill:url(#linear-gradient-62);}.cls-154{fill:url(#linear-gradient-63);}.cls-155{fill:url(#linear-gradient-64);}.cls-156{opacity:0.7;}.cls-157{fill:url(#linear-gradient-65);}.cls-158{fill:url(#linear-gradient-66);}.cls-159{fill:url(#linear-gradient-67);}.cls-160{fill:url(#linear-gradient-68);}.cls-161{fill:url(#linear-gradient-69);}.cls-162{fill:url(#linear-gradient-70);}.cls-163{fill:url(#linear-gradient-71);}.cls-164{fill:url(#linear-gradient-72);}.cls-165{fill:url(#linear-gradient-73);}.cls-166{fill:url(#linear-gradient-74);}.cls-168,.cls-169,.cls-170,.cls-171,.cls-172,.cls-173,.cls-174,.cls-175,.cls-176{fill:#45108a;}.cls-172{opacity:0.85;}.cls-173{opacity:0.75;}.cls-175{opacity:0.4;}.cls-178{fill:url(#linear-gradient-75);}.cls-179{mask:url(#mask-2);}.cls-180{fill:url(#linear-gradient-76);}.cls-181{fill:url(#linear-gradient-77);}.cls-182{fill:#ede2f3;}.cls-183{fill:url(#linear-gradient-78);}.cls-184{fill:#414042;}.cls-185{filter:url(#luminosity-noclip-2);}.cls-186{filter:url(#luminosity-noclip);}</style><filter id="luminosity-noclip" x="299.56" y="-8392" width="167.59" height="32766" filterUnits="userSpaceOnUse" color-interpolation-filters="sRGB"><feFlood flood-color="#fff" result="bg"/><feBlend in="SourceGraphic" in2="bg"/></filter><mask id="mask" x="299.56" y="-8392" width="167.59" height="32766" maskUnits="userSpaceOnUse"><g class="cls-186"/></mask><linearGradient id="linear-gradient" x1="371.9" y1="126.16" x2="418.78" y2="42.17" gradientUnits="userSpaceOnUse"><stop offset="0"/><stop offset="1" stop-color="#fff"/></linearGradient><linearGradient id="linear-gradient-2" x1="380.44" y1="264.67" x2="380.44" y2="311.89" gradientUnits="userSpaceOnUse"><stop offset="0.04" stop-color="#6b24d6"/><stop offset="0.32" stop-color="#7a1cd0"/><stop offset="0.86" stop-color="#a306c1"/><stop offset="0.98" stop-color="#ad00bd"/></linearGradient><linearGradient id="linear-gradient-3" x1="378.77" y1="258.73" x2="375.02" y2="316.37" xlink:href="#linear-gradient-2"/><linearGradient id="linear-gradient-4" x1="377.93" y1="252.15" x2="369.01" y2="320.38" xlink:href="#linear-gradient-2"/><linearGradient id="linear-gradient-5" x1="378.03" y1="245.07" x2="362.47" y2="323.85" xlink:href="#linear-gradient-2"/><linearGradient id="linear-gradient-6" x1="379.15" y1="237.65" x2="355.46" y2="326.68" xlink:href="#linear-gradient-2"/><linearGradient id="linear-gradient-7" x1="381.35" y1="230.05" x2="348.06" y2="328.79" xlink:href="#linear-gradient-2"/><linearGradient id="linear-gradient-8" x1="384.63" y1="222.48" x2="340.36" y2="330.11" xlink:href="#linear-gradient-2"/><linearGradient id="linear-gradient-9" x1="389" y1="215.12" x2="332.47" y2="330.6" xlink:href="#linear-gradient-2"/><linearGradient id="linear-gradient-10" x1="394.71" y1="207.62" x2="324.53" y2="330.12" xlink:href="#linear-gradient-2"/><linearGradient id="linear-gradient-11" x1="402.38" y1="199.38" x2="313.43" y2="333.58" xlink:href="#linear-gradient-2"/><linearGradient id="linear-gradient-12" x1="411.54" y1="191.55" x2="301.55" y2="336.14" xlink:href="#linear-gradient-2"/><linearGradient id="linear-gradient-13" x1="422.22" y1="184.3" x2="289.21" y2="337.39" xlink:href="#linear-gradient-2"/><linearGradient id="linear-gradient-14" x1="434.34" y1="177.91" x2="276.59" y2="337.25" xlink:href="#linear-gradient-2"/><linearGradient id="linear-gradient-15" x1="447.75" y1="172.64" x2="263.87" y2="335.66" xlink:href="#linear-gradient-2"/><linearGradient id="linear-gradient-16" x1="462.25" y1="168.73" x2="251.26" y2="332.59" xlink:href="#linear-gradient-2"/><linearGradient id="linear-gradient-17" x1="477.62" y1="166.38" x2="238.95" y2="328.02" xlink:href="#linear-gradient-2"/><linearGradient id="linear-gradient-18" x1="493.57" y1="165.72" x2="227.11" y2="321.94" xlink:href="#linear-gradient-2"/><linearGradient id="linear-gradient-19" x1="509.8" y1="166.83" x2="215.94" y2="314.34" xlink:href="#linear-gradient-2"/><linearGradient id="linear-gradient-20" x1="526.07" y1="169.88" x2="205.7" y2="305.4" xlink:href="#linear-gradient-2"/><linearGradient id="linear-gradient-21" x1="542.07" y1="174.9" x2="196.57" y2="295.24" xlink:href="#linear-gradient-2"/><linearGradient id="linear-gradient-22" x1="557.49" y1="181.89" x2="188.73" y2="284" xlink:href="#linear-gradient-2"/><linearGradient id="linear-gradient-23" x1="571.98" y1="190.79" x2="182.32" y2="271.84" xlink:href="#linear-gradient-2"/><linearGradient id="linear-gradient-24" x1="570.37" y1="193.73" x2="180.6" y2="269.68" xlink:href="#linear-gradient-2"/><linearGradient id="linear-gradient-25" x1="570.21" y1="193.37" x2="180.62" y2="269.29" gradientUnits="userSpaceOnUse"><stop offset="0.04" stop-color="#702ad7"/><stop offset="0.33" stop-color="#7f22d1"/><stop offset="0.9" stop-color="#a80cc1"/><stop offset="0.98" stop-color="#ae08bf"/></linearGradient><linearGradient id="linear-gradient-26" x1="570.08" y1="193" x2="180.63" y2="268.89" gradientUnits="userSpaceOnUse"><stop offset="0.04" stop-color="#7430d7"/><stop offset="0.34" stop-color="#8328d1"/><stop offset="0.93" stop-color="#ac12c3"/><stop offset="0.98" stop-color="#b010c1"/></linearGradient><linearGradient id="linear-gradient-27" x1="569.98" y1="192.63" x2="180.64" y2="268.5" gradientUnits="userSpaceOnUse"><stop offset="0.04" stop-color="#7937d8"/><stop offset="0.36" stop-color="#882ed2"/><stop offset="0.98" stop-color="#b118c2"/><stop offset="0.98" stop-color="#b118c2"/></linearGradient><linearGradient id="linear-gradient-28" x1="569.87" y1="192.25" x2="180.64" y2="268.1" gradientUnits="userSpaceOnUse"><stop offset="0.04" stop-color="#7d3dd8"/><stop offset="0.37" stop-color="#8c35d2"/><stop offset="0.98" stop-color="#b320c4"/></linearGradient><linearGradient id="linear-gradient-29" x1="569.77" y1="191.88" x2="180.65" y2="267.71" gradientUnits="userSpaceOnUse"><stop offset="0.04" stop-color="#8243d9"/><stop offset="0.39" stop-color="#913bd3"/><stop offset="0.98" stop-color="#b428c6"/></linearGradient><linearGradient id="linear-gradient-30" x1="569.67" y1="191.51" x2="180.65" y2="267.32" gradientUnits="userSpaceOnUse"><stop offset="0.04" stop-color="#8649da"/><stop offset="0.4" stop-color="#9541d4"/><stop offset="0.98" stop-color="#b62fc8"/></linearGradient><linearGradient id="linear-gradient-31" x1="569.57" y1="191.13" x2="180.65" y2="266.92" gradientUnits="userSpaceOnUse"><stop offset="0.04" stop-color="#8b4fda"/><stop offset="0.43" stop-color="#9a47d4"/><stop offset="0.98" stop-color="#b737ca"/></linearGradient><linearGradient id="linear-gradient-32" x1="569.48" y1="190.76" x2="180.65" y2="266.53" gradientUnits="userSpaceOnUse"><stop offset="0.04" stop-color="#9056db"/><stop offset="0.46" stop-color="#9f4dd5"/><stop offset="0.98" stop-color="#b83fcb"/></linearGradient><linearGradient id="linear-gradient-33" x1="569.39" y1="190.38" x2="180.65" y2="266.14" gradientUnits="userSpaceOnUse"><stop offset="0.04" stop-color="#945cdc"/><stop offset="0.48" stop-color="#a353d6"/><stop offset="0.98" stop-color="#ba47cd"/></linearGradient><linearGradient id="linear-gradient-34" x1="569.3" y1="190.01" x2="180.66" y2="265.75" gradientUnits="userSpaceOnUse"><stop offset="0.04" stop-color="#9962dc"/><stop offset="0.52" stop-color="#a859d6"/><stop offset="0.98" stop-color="#bb4fcf"/></linearGradient><linearGradient id="linear-gradient-35" x1="569.22" y1="189.63" x2="180.65" y2="265.35" gradientUnits="userSpaceOnUse"><stop offset="0.04" stop-color="#9d68dd"/><stop offset="0.55" stop-color="#ac60d7"/><stop offset="0.98" stop-color="#bd57d1"/></linearGradient><linearGradient id="linear-gradient-36" x1="569.14" y1="189.25" x2="180.65" y2="264.96" gradientUnits="userSpaceOnUse"><stop offset="0.04" stop-color="#a26edd"/><stop offset="0.61" stop-color="#b166d8"/><stop offset="0.98" stop-color="#be5fd3"/></linearGradient><linearGradient id="linear-gradient-37" x1="569.08" y1="188.87" x2="180.65" y2="264.57" gradientUnits="userSpaceOnUse"><stop offset="0.04" stop-color="#a674de"/><stop offset="0.65" stop-color="#b56cd9"/><stop offset="0.98" stop-color="#c067d5"/></linearGradient><linearGradient id="linear-gradient-38" x1="569.02" y1="188.49" x2="180.65" y2="264.18" gradientUnits="userSpaceOnUse"><stop offset="0.04" stop-color="#ab7bdf"/><stop offset="0.74" stop-color="#ba73d9"/><stop offset="0.98" stop-color="#c16fd6"/></linearGradient><linearGradient id="linear-gradient-39" x1="568.97" y1="188.11" x2="180.65" y2="263.78" gradientUnits="userSpaceOnUse"><stop offset="0.04" stop-color="#b081df"/><stop offset="0.87" stop-color="#bf78d9"/><stop offset="0.98" stop-color="#c277d8"/></linearGradient><linearGradient id="linear-gradient-40" x1="568.93" y1="187.72" x2="180.65" y2="263.39" gradientUnits="userSpaceOnUse"><stop offset="0.04" stop-color="#b487e0"/><stop offset="0.95" stop-color="#c37eda"/><stop offset="0.98" stop-color="#c47eda"/></linearGradient><linearGradient id="linear-gradient-41" x1="568.89" y1="187.34" x2="180.65" y2="263" gradientUnits="userSpaceOnUse"><stop offset="0.04" stop-color="#b98de1"/><stop offset="0.98" stop-color="#c586dc"/></linearGradient><linearGradient id="linear-gradient-42" x1="568.87" y1="186.95" x2="180.64" y2="262.61" gradientUnits="userSpaceOnUse"><stop offset="0.04" stop-color="#bd93e1"/><stop offset="0.98" stop-color="#c78ede"/></linearGradient><linearGradient id="linear-gradient-43" x1="568.85" y1="186.56" x2="180.64" y2="262.21" gradientUnits="userSpaceOnUse"><stop offset="0.04" stop-color="#c29ae2"/><stop offset="0.98" stop-color="#c896df"/></linearGradient><linearGradient id="linear-gradient-44" x1="568.83" y1="186.17" x2="180.64" y2="261.82" gradientUnits="userSpaceOnUse"><stop offset="0.04" stop-color="#c6a0e2"/><stop offset="0.98" stop-color="#ca9ee1"/></linearGradient><linearGradient id="linear-gradient-45" x1="524.73" y1="230.33" x2="519.85" y2="219.59" xlink:href="#linear-gradient-2"/><linearGradient id="linear-gradient-46" x1="9434.49" y1="-809.72" x2="9426.17" y2="-794.2" gradientTransform="matrix(-0.87, 0.5, -0.5, 1.44, 8285.32, -3254.05)" xlink:href="#linear-gradient-39"/><linearGradient id="linear-gradient-47" x1="505.77" y1="246.46" x2="498.77" y2="229.21" xlink:href="#linear-gradient-2"/><linearGradient id="linear-gradient-48" x1="9452.81" y1="-799.89" x2="9444.49" y2="-784.37" gradientTransform="matrix(-0.87, 0.5, -0.5, 1.44, 8285.32, -3254.05)" xlink:href="#linear-gradient-39"/><linearGradient id="linear-gradient-49" x1="441.62" y1="124.65" x2="259.15" y2="410.74" gradientUnits="userSpaceOnUse"><stop offset="0" stop-color="#fff"/><stop offset="1" stop-color="#e5d4ef"/></linearGradient><linearGradient id="linear-gradient-50" x1="17.93" y1="-33.47" x2="262.55" y2="428.99" xlink:href="#linear-gradient-2"/><linearGradient id="linear-gradient-51" x1="139.56" y1="234.74" x2="173.34" y2="234.74" gradientUnits="userSpaceOnUse"><stop offset="0" stop-color="#2d085d"/><stop offset="1" stop-color="#410f82"/></linearGradient><linearGradient id="linear-gradient-52" x1="125.41" y1="222.53" x2="173.18" y2="222.53" xlink:href="#linear-gradient-51"/><linearGradient id="linear-gradient-53" x1="111.26" y1="216.88" x2="150.29" y2="216.88" xlink:href="#linear-gradient-51"/><linearGradient id="linear-gradient-54" x1="97.1" y1="210.23" x2="130.89" y2="210.23" xlink:href="#linear-gradient-51"/><linearGradient id="linear-gradient-55" x1="82.95" y1="204.07" x2="109.75" y2="204.07" xlink:href="#linear-gradient-51"/><linearGradient id="linear-gradient-56" x1="68.8" y1="192.74" x2="106.55" y2="192.74" xlink:href="#linear-gradient-51"/><linearGradient id="linear-gradient-57" x1="54.65" y1="186.25" x2="86.57" y2="186.25" xlink:href="#linear-gradient-51"/><linearGradient id="linear-gradient-58" x1="139.56" y1="236.69" x2="166.59" y2="236.69" xlink:href="#linear-gradient-51"/><linearGradient id="linear-gradient-59" x1="125.41" y1="225.49" x2="162.92" y2="225.49" xlink:href="#linear-gradient-51"/><linearGradient id="linear-gradient-60" x1="111.26" y1="218.33" x2="145.27" y2="218.33" xlink:href="#linear-gradient-51"/><linearGradient id="linear-gradient-61" x1="97.1" y1="212.18" x2="124.13" y2="212.18" xlink:href="#linear-gradient-51"/><linearGradient id="linear-gradient-62" x1="82.95" y1="206.02" x2="102.99" y2="206.02" xlink:href="#linear-gradient-51"/><linearGradient id="linear-gradient-63" x1="68.8" y1="194.69" x2="99.79" y2="194.69" xlink:href="#linear-gradient-51"/><linearGradient id="linear-gradient-64" x1="54.65" y1="189.21" x2="76.31" y2="189.21" xlink:href="#linear-gradient-51"/><linearGradient id="linear-gradient-65" x1="835.42" y1="1510.98" x2="831.95" y2="1585.45" gradientTransform="matrix(0.87, 0.5, -1, 0.58, 977.35, -1126.3)" xlink:href="#linear-gradient-51"/><linearGradient id="linear-gradient-66" x1="196.97" y1="131.29" x2="208.26" y2="167.74" xlink:href="#linear-gradient-2"/><linearGradient id="linear-gradient-67" x1="125.69" y1="194.36" x2="150.2" y2="194.36" xlink:href="#linear-gradient-51"/><linearGradient id="linear-gradient-68" x1="74.57" y1="-107.04" x2="319.19" y2="355.42" gradientUnits="userSpaceOnUse"><stop offset="0.04" stop-color="#9f19ab"/><stop offset="0.24" stop-color="#ae25b1"/><stop offset="0.65" stop-color="#d744bf"/><stop offset="1" stop-color="#ff63ce"/></linearGradient><linearGradient id="linear-gradient-69" x1="5247.74" y1="40.71" x2="5346.92" y2="135.05" gradientTransform="matrix(-1, 0, 0, 1, 5594.95, 0)" xlink:href="#linear-gradient-2"/><linearGradient id="linear-gradient-70" x1="5321.24" y1="48.12" x2="5336.24" y2="122.14" gradientTransform="matrix(-1, 0, 0, 1, 5594.95, 0)" xlink:href="#linear-gradient-2"/><linearGradient id="linear-gradient-71" x1="5344.19" y1="76.38" x2="5375.64" y2="167.82" gradientTransform="matrix(-1, 0, 0, 1, 5594.95, 0)" xlink:href="#linear-gradient-2"/><linearGradient id="linear-gradient-72" x1="194.61" y1="114.88" x2="205.24" y2="158.5" xlink:href="#linear-gradient-2"/><linearGradient id="linear-gradient-73" x1="236.72" y1="119.77" x2="249.09" y2="156.66" xlink:href="#linear-gradient-2"/><linearGradient id="linear-gradient-74" x1="207.88" y1="103" x2="231.22" y2="161.73" xlink:href="#linear-gradient-2"/><linearGradient id="linear-gradient-75" x1="181.99" y1="-136.99" x2="426.62" y2="325.47" xlink:href="#linear-gradient-51"/><filter id="luminosity-noclip-2" x="299.56" y="68.85" width="167.59" height="86.69" filterUnits="userSpaceOnUse" color-interpolation-filters="sRGB"><feFlood flood-color="#fff" result="bg"/><feBlend in="SourceGraphic" in2="bg"/></filter><mask id="mask-2" x="198.19" y="52.9" width="167.59" height="86.69" maskUnits="userSpaceOnUse"><g class="cls-185"><g transform="translate(-101.37 -15.96)"><g class="cls-1"><path class="cls-2" d="M325.26,69.08c2.89,1.67,28.5-2.54,36.05,1.82,7.4,4.27-6.14,19.69,3.18,25.07s64.5-11.26,72.85-6.43-7.4,23.94.8,28.67,22.91,1.24,27.57,3.93-3.8,7.58-1.07,9.16l-42,24.24L299.56,84.48Z"/></g></g></g></mask><linearGradient id="linear-gradient-76" x1="371.9" y1="126.16" x2="418.78" y2="42.17" gradientUnits="userSpaceOnUse"><stop offset="0" stop-color="#5513ab"/><stop offset="1" stop-color="#be3bff"/></linearGradient><linearGradient id="linear-gradient-77" x1="324.77" y1="100.01" x2="468.12" y2="100.01" xlink:href="#linear-gradient-68"/><linearGradient id="linear-gradient-78" x1="385.65" y1="-24.29" x2="507.58" y2="155.46" xlink:href="#linear-gradient-68"/></defs><title>all-services</title><g class="cls-3"><g id="Layer_1" data-name="Layer 1"><g class="cls-4"><path class="cls-5" d="M317.27,380.67a34.33,34.33,0,0,0,17.13-4.12L573,239.18c6.25-3.61,9.83-9.31,9.83-15.65,0-7-4.31-13.43-11.83-17.77L468.1,146.32A42.17,42.17,0,0,0,447.3,141a34.33,34.33,0,0,0-17.13,4.12L191.53,282.53c-6.25,3.61-9.83,9.31-9.83,15.65,0,6.95,4.31,13.43,11.83,17.77l102.94,59.44A42.17,42.17,0,0,0,317.27,380.67Z" transform="translate(-101.37 -15.96)"/><path class="cls-6" d="M430.36,145.58,191.72,282.94c-6,3.46-9.4,8.91-9.37,14.93,0,6.59,4.16,12.76,11.37,16.92L292,371.55c.16.09,5,2.84,5.15,2.9a41,41,0,0,0,20.93,4.69A36.84,36.84,0,0,0,335,374.63L572.33,238c6-3.46,9.4-8.91,9.37-14.93,0-6.59-4.16-12.76-11.38-16.92L468,147.09a42.88,42.88,0,0,0-7.58-3.37,43.89,43.89,0,0,0-13-2.13A33.59,33.59,0,0,0,430.36,145.58Z" transform="translate(-101.37 -15.96)"/><path class="cls-7" d="M430.55,146,191.91,283.35c-5.76,3.32-9,8.5-8.91,14.22.06,6.22,4,12.07,10.92,16.06l98.77,57c.31.18,4.83,2.74,5.2,2.85A39.74,39.74,0,0,0,319,377.6c5.34,0,12.82-2.68,16.65-4.89l236-135.85c5.76-3.32,9-8.5,8.91-14.22,0-6.22-4-12.07-10.91-16.06L467.9,147.86a49.23,49.23,0,0,0-7.5-3.43,44,44,0,0,0-12.89-2.29A33,33,0,0,0,430.55,146Z" transform="translate(-101.37 -15.96)"/><path class="cls-8" d="M430.75,146.4,192.1,283.76c-5.51,3.18-8.54,8.1-8.45,13.5.08,5.86,3.85,11.4,10.46,15.21l99.23,57.3c.47.27,4.7,2.63,5.25,2.8a38.68,38.68,0,0,0,21.2,3.5c4.75,0,13-3.31,16.41-5.28L570.9,235.7c5.5-3.18,8.54-8.1,8.45-13.5-.09-5.86-3.85-11.4-10.46-15.21L467.8,148.62a58.67,58.67,0,0,0-7.42-3.48,43.76,43.76,0,0,0-12.77-2.44C441.25,142.51,435.29,143.77,430.75,146.4Z" transform="translate(-101.37 -15.96)"/><path class="cls-9" d="M430.94,146.81,192.29,284.17c-5.26,3-8.11,7.69-8,12.78.12,5.49,3.7,10.72,10,14.36L294,368.87c.64.37,4.58,2.53,5.31,2.76a37.46,37.46,0,0,0,21.33,2.9c4.16,0,13.19-3.94,16.17-5.66L570.18,234.54c5.26-3,8.11-7.69,8-12.78-.12-5.49-3.7-10.72-10-14.36l-100.47-58a67.13,67.13,0,0,0-7.34-3.53,43.61,43.61,0,0,0-12.64-2.61C441.4,143,435.44,144.21,430.94,146.81Z" transform="translate(-101.37 -15.96)"/><path class="cls-10" d="M431.13,147.22,192.48,284.58c-5,2.9-7.68,7.29-7.54,12.06.15,5.13,3.55,10.05,9.55,13.51L294.65,368a57.2,57.2,0,0,0,5.36,2.71,36.19,36.19,0,0,0,21.47,2.3c3.56,0,13.37-4.56,15.92-6L569.46,233.38c5-2.9,7.69-7.29,7.54-12.06-.14-5.13-3.54-10-9.54-13.51l-99.87-57.66c-1.28-.73-5.78-3.05-7.25-3.58a43.13,43.13,0,0,0-12.52-2.76C441.56,143.49,435.59,144.65,431.13,147.22Z" transform="translate(-101.37 -15.96)"/><path class="cls-11" d="M431.32,147.63,192.67,285c-4.77,2.75-7.25,6.87-7.08,11.33.18,4.77,3.39,9.37,9.09,12.66L295.3,367.08a47.83,47.83,0,0,0,5.42,2.67c6.83,2.83,15.1,3.49,21.6,1.71,3,0,13.55-5.2,15.68-6.42L568.75,232.22c4.77-2.76,7.25-6.88,7.08-11.34-.18-4.77-3.39-9.37-9.09-12.66l-99.25-57.3c-1.06-.61-5.95-3.18-7.17-3.64a43.31,43.31,0,0,0-12.4-2.92C441.72,144,435.74,145.08,431.32,147.63Z" transform="translate(-101.37 -15.96)"/><path class="cls-12" d="M431.51,148,192.87,285.41c-4.53,2.61-6.83,6.47-6.63,10.61.21,4.41,3.24,8.69,8.63,11.81L296,366.19a39.92,39.92,0,0,0,5.47,2.62c7,2.74,15.4,3.19,21.73,1.11,2.37,0,13.74-5.82,15.44-6.8L568,231.06c4.53-2.62,6.83-6.48,6.63-10.62-.21-4.4-3.24-8.69-8.64-11.81l-98.63-56.94c-.85-.5-6.12-3.32-7.09-3.7A42.75,42.75,0,0,0,448,144.92C441.88,144.47,435.88,145.52,431.51,148Z" transform="translate(-101.37 -15.96)"/><path class="cls-13" d="M431.7,148.45,193.06,285.82c-4.28,2.47-6.4,6.06-6.17,9.89.24,4,3.08,8,8.17,11L296.61,365.3a37.64,37.64,0,0,0,5.52,2.58c7.15,2.63,15.71,2.88,21.87.5,1.78,0,13.92-6.44,15.2-7.18L567.32,229.89c4.28-2.47,6.39-6.06,6.16-9.89-.23-4-3.08-8-8.17-11l-98-56.59c-.64-.37-6.29-3.45-7-3.74a42.71,42.71,0,0,0-12.15-3.24C442,145,436,146,431.7,148.45Z" transform="translate(-101.37 -15.96)"/><path class="cls-14" d="M431.89,148.87,193.25,286.23c-4,2.33-6,5.66-5.71,9.17.27,3.68,2.93,7.34,7.72,10.11l102,58.89a33.16,33.16,0,0,0,5.57,2.54c7.3,2.54,16,2.58,22-.09,1.19,0,14.11-7.08,15-7.57L566.6,228.73c4-2.33,6-5.66,5.71-9.17-.27-3.68-2.93-7.34-7.72-10.1l-97.4-56.24c-.43-.25-6.45-3.6-6.93-3.8a42.27,42.27,0,0,0-12-3.4C442.19,145.46,436.18,146.39,431.89,148.87Z" transform="translate(-101.37 -15.96)"/><path class="cls-15" d="M432.09,149.28,193.44,286.64c-3.79,2.19-5.54,5.25-5.25,8.45s2.77,6.67,7.26,9.26l102.47,59.16a30.43,30.43,0,0,0,5.63,2.49c7.45,2.44,16.3,2.28,22.13-.69.59,0,14.29-7.7,14.72-7.95L565.88,227.57c3.79-2.19,5.55-5.25,5.26-8.45s-2.78-6.67-7.26-9.25L467.09,154c-.21-.13-6.61-3.75-6.85-3.86a42.13,42.13,0,0,0-11.9-3.55C442.35,146,436.33,146.83,432.09,149.28Z" transform="translate(-101.37 -15.96)"/><path d="M326.52,363.78,565.17,226.41c7.16-4.13,6.26-11.36-2-16.13L460.22,150.85c-8.27-4.78-20.78-5.3-27.94-1.16L193.63,287.05c-7.16,4.14-6.26,11.36,2,16.14l102.94,59.43C306.85,367.39,319.36,367.91,326.52,363.78Z" transform="translate(-101.37 -15.96)"/></g><path class="cls-16" d="M292.71,340.53,196.47,285c-4.85-2.8-7.26-6.53-7.33-10.46,0-.34,0-3.33,0-3.68.4-4.54,3.89-2,10.33-5.76l226.3-130.65c12.54-7.24,31.5-8,42.35-1.75l96.24,55.56c4.85,2.8,7.26-2.13,7.33,1.79,0,.34,0,4.78,0,5.13-.39,4.54-3.89,9.25-10.34,13L335.06,338.78C322.53,346,303.57,346.8,292.71,340.53Z" transform="translate(-101.37 -15.96)"/><path class="cls-17" d="M425.81,134c12.54-7.24,31.5-8,42.35-1.76l96.24,55.57c4.76,2.74,7-1.84,7.28,2,0,.4.05,4.71,0,5.12-.38,4.55-3.88,9.26-10.34,13L335.06,338.6c-12.53,7.24-31.49,8-42.35,1.76l-96.24-55.57c-4.86-2.81-7.29-6.56-7.32-10.49,0-.39,0-3.29.08-3.69.54-4.47,3.92-2.26,10.28-5.93Z" transform="translate(-101.37 -15.96)"/><path class="cls-18" d="M425.81,133.64c12.54-7.24,31.5-8,42.35-1.76l96.24,55.56c4.68,2.7,6.82-1.53,7.23,2.21,0,.47.1,4.64.07,5.12-.37,4.55-3.87,9.27-10.34,13L335.06,338.43c-12.53,7.23-31.49,8-42.35,1.75l-96.24-55.56c-4.88-2.82-7.32-6.59-7.32-10.54,0-.43.06-3.25.12-3.69.66-4.4,4-2.47,10.24-6.1Z" transform="translate(-101.37 -15.96)"/><path class="cls-19" d="M425.81,133.24c12.54-7.23,31.5-8,42.35-1.75l96.24,55.56c4.59,2.65,6.66-1.24,7.18,2.42.08.53.16,4.57.12,5.11-.35,4.56-3.87,9.28-10.34,13L335.06,338.25c-12.53,7.24-31.49,8-42.35,1.76l-96.24-55.57c-4.9-2.83-7.34-6.61-7.32-10.57,0-.48.08-3.21.17-3.69.75-4.35,4-2.7,10.19-6.28Z" transform="translate(-101.37 -15.96)"/><path class="cls-20" d="M425.81,132.85c12.54-7.24,31.5-8,42.35-1.76l96.24,55.57c4.51,2.6,6.52-.94,7.13,2.63.1.59.21,4.49.17,5.1-.34,4.56-3.86,9.29-10.34,13L335.06,338.07c-12.53,7.24-31.49,8-42.35,1.76l-96.24-55.56c-4.91-2.84-7.36-6.64-7.32-10.62,0-.51.11-3.17.21-3.69.83-4.28,4-2.92,10.15-6.46Z" transform="translate(-101.37 -15.96)"/><path class="cls-21" d="M425.81,132.46c12.54-7.24,31.5-8,42.35-1.76l96.24,55.57c4.42,2.55,6.4-.65,7.08,2.83a48.22,48.22,0,0,1,.22,5.1c-.34,4.57-3.85,9.3-10.34,13.05L335.06,337.9c-12.53,7.24-31.49,8-42.35,1.75l-96.24-55.56c-4.93-2.85-7.38-6.66-7.32-10.65,0-.56.13-3.13.25-3.7.9-4.22,4.07-3.14,10.11-6.63Z" transform="translate(-101.37 -15.96)"/><path class="cls-22" d="M425.81,132.07c12.54-7.24,31.5-8,42.35-1.76l96.24,55.56c4.33,2.5,6.29-.35,7,3a41.23,41.23,0,0,1,.27,5.09c-.33,4.57-3.85,9.31-10.34,13.06L335.06,337.72c-12.53,7.24-31.49,8-42.35,1.76l-96.24-55.56c-4.94-2.86-7.4-6.69-7.32-10.7a35.92,35.92,0,0,1,.3-3.7c1-4.16,4.1-3.36,10.06-6.8Z" transform="translate(-101.37 -15.96)"/><path class="cls-23" d="M425.81,131.67c12.54-7.23,31.5-8,42.35-1.75l96.24,55.56c4.25,2.45,6.19-.06,7,3.26a35.91,35.91,0,0,1,.32,5.08c-.32,4.58-3.84,9.32-10.34,13.07L335.06,337.55c-12.53,7.24-31.49,8-42.35,1.75l-96.24-55.56c-5-2.87-7.42-6.71-7.32-10.73a33.43,33.43,0,0,1,.34-3.71c1-4.09,4.14-3.58,10-7Z" transform="translate(-101.37 -15.96)"/><path class="cls-24" d="M425.81,131.28c12.54-7.24,31.5-8,42.35-1.76l96.24,55.57c4.16,2.4,6.1.23,6.93,3.46a30.94,30.94,0,0,1,.37,5.08c-.32,4.58-3.84,9.33-10.34,13.09L335.06,337.37c-12.53,7.24-31.49,8-42.35,1.76l-96.24-55.57c-5-2.87-7.43-6.73-7.32-10.77a27.81,27.81,0,0,1,.39-3.71c1.06-4,4.17-3.8,10-7.15Z" transform="translate(-101.37 -15.96)"/><path class="cls-25" d="M425.81,130.89c12.54-7.24,31.5-8,42.35-1.76l96.24,55.56c4.08,2.36,6,.53,6.88,3.68a27,27,0,0,1,.42,5.07c-.31,4.59-3.83,9.35-10.34,13.1L335.06,337.2c-12.53,7.23-31.49,8-42.35,1.75l-96.24-55.56c-5-2.89-7.45-6.76-7.32-10.81a26.51,26.51,0,0,1,.43-3.72c1.11-4,4.21-4,9.93-7.32Z" transform="translate(-101.37 -15.96)"/><path class="cls-26" d="M425.81,130.49c12.54-7.23,31.5-8,42.35-1.75L564.4,184.3c4,2.3,5.93.81,6.83,3.89a24.64,24.64,0,0,1,.47,5.06c-.3,4.59-3.82,9.36-10.34,13.12L335.06,337c-12.53,7.24-31.49,8-42.35,1.76l-96.24-55.57c-5-2.89-7.46-6.78-7.32-10.84a24.11,24.11,0,0,1,.48-3.73c1.14-3.92,4.24-4.23,9.88-7.49Z" transform="translate(-101.37 -15.96)"/><path class="cls-27" d="M425.81,130.1c12.54-7.24,31.5-8,42.35-1.75l96.24,55.56c3.9,2.25,5.85,1.09,6.78,4.09a22.2,22.2,0,0,1,.53,5.06c-.31,4.6-3.83,9.37-10.35,13.13L335.06,336.85c-12.53,7.23-31.49,8-42.35,1.75L196.47,283c-5-2.91-7.47-6.81-7.31-10.89a22,22,0,0,1,.51-3.73c1.18-3.86,4.28-4.45,9.84-7.66Z" transform="translate(-101.37 -15.96)"/><path class="cls-28" d="M425.81,129.71c12.54-7.24,31.5-8,42.35-1.76l96.24,55.57c3.82,2.2,5.77,1.38,6.73,4.3a20.13,20.13,0,0,1,.58,5.05c-.3,4.6-3.82,9.38-10.35,13.15L335.06,336.67c-12.53,7.24-31.49,8-42.35,1.76l-96.24-55.57c-5-2.91-7.49-6.84-7.31-10.92a18.6,18.6,0,0,1,.56-3.73c1.21-3.81,4.31-4.68,9.79-7.85Z" transform="translate(-101.37 -15.96)"/><path class="cls-29" d="M425.81,129.32c12.54-7.24,31.5-8,42.35-1.76l96.24,55.56c3.73,2.16,5.7,1.67,6.68,4.52a18.75,18.75,0,0,1,.63,5.05c-.3,4.6-3.81,9.38-10.35,13.15L335.06,336.49c-12.53,7.24-31.49,8-42.35,1.76l-96.24-55.56c-5.06-2.93-7.5-6.87-7.31-11a18,18,0,0,1,.6-3.73c1.25-3.76,4.35-4.9,9.75-8Z" transform="translate(-101.37 -15.96)"/><path class="cls-30" d="M425.81,128.92c12.54-7.23,31.5-8,42.35-1.75l96.24,55.56c3.65,2.1,5.62,2,6.63,4.72a16.72,16.72,0,0,1,.68,5.05c-.29,4.6-3.81,9.39-10.35,13.16L335.06,336.32c-12.53,7.24-31.49,8-42.35,1.75l-96.24-55.56c-5.07-2.93-7.51-6.89-7.31-11a16.4,16.4,0,0,1,.65-3.74c1.28-3.71,4.38-5.12,9.7-8.19Z" transform="translate(-101.37 -15.96)"/><path class="cls-31" d="M425.81,128.53c12.54-7.24,31.5-8,42.35-1.75l96.24,55.56c3.56,2,5.55,2.23,6.58,4.93a15.5,15.5,0,0,1,.73,5c-.29,4.61-3.8,9.4-10.35,13.18L335.06,336.14c-12.53,7.24-31.49,8-42.35,1.76l-96.24-55.56c-5.09-2.95-7.52-6.92-7.31-11a16.06,16.06,0,0,1,.69-3.74c1.31-3.65,4.42-5.34,9.66-8.37Z" transform="translate(-101.37 -15.96)"/><path class="cls-32" d="M425.81,128.14c12.54-7.24,31.5-8,42.35-1.76L564.4,182c3.47,2,5.48,2.5,6.53,5.14a14,14,0,0,1,.78,5c-.28,4.61-3.79,9.41-10.35,13.19L335.06,336c-12.53,7.23-31.49,8-42.35,1.75l-96.24-55.56c-5.11-3-7.53-6.94-7.31-11.08a15.17,15.17,0,0,1,.73-3.75c1.35-3.6,4.46-5.56,9.62-8.54Z" transform="translate(-101.37 -15.96)"/><path class="cls-33" d="M425.81,127.75c12.54-7.24,31.5-8,42.35-1.76l96.24,55.56c3.39,2,5.41,2.79,6.47,5.35a13,13,0,0,1,.84,5c-.28,4.62-3.79,9.42-10.35,13.21L335.06,335.79c-12.53,7.24-31.49,8-42.35,1.76L196.47,282c-5.12-3-7.54-7-7.31-11.12a14,14,0,0,1,.78-3.75c1.37-3.55,4.49-5.77,9.57-8.71Z" transform="translate(-101.37 -15.96)"/><path class="cls-34" d="M425.81,127.35c12.54-7.23,31.5-8,42.35-1.75l96.24,55.56c3.3,1.91,5.34,3.06,6.42,5.56a12.12,12.12,0,0,1,.89,5c-.28,4.62-3.78,9.43-10.35,13.22L335.06,335.62c-12.53,7.23-31.49,8-42.35,1.75l-96.24-55.56c-5.14-3-7.55-7-7.31-11.16a13.44,13.44,0,0,1,.82-3.76c1.4-3.5,4.53-6,9.53-8.88Z" transform="translate(-101.37 -15.96)"/><path class="cls-35" d="M425.81,127c12.54-7.24,31.5-8,42.35-1.76l96.24,55.57c3.22,1.85,5.27,3.33,6.37,5.77a11.07,11.07,0,0,1,.94,5c-.27,4.63-3.77,9.44-10.35,13.24L335.06,335.44c-12.53,7.24-31.49,8-42.35,1.76l-96.24-55.57c-5.16-3-7.56-7-7.31-11.2a12.64,12.64,0,0,1,.87-3.76c1.42-3.45,4.56-6.21,9.48-9.06Z" transform="translate(-101.37 -15.96)"/><path class="cls-36" d="M425.81,126.57c12.54-7.24,31.5-8,42.35-1.76l96.24,55.57c3.13,1.8,5.2,3.6,6.32,6a10.46,10.46,0,0,1,1,5c-.27,4.63-3.77,9.45-10.35,13.25L335.06,335.26c-12.53,7.24-31.49,8-42.35,1.76l-96.24-55.56c-5.17-3-7.57-7-7.31-11.24a12.13,12.13,0,0,1,.91-3.77c1.45-3.41,4.6-6.43,9.44-9.23Z" transform="translate(-101.37 -15.96)"/><path class="cls-37" d="M292.71,336.84l-96.24-55.56c-10.85-6.27-9.49-17.21,3-24.45l226.3-130.66c12.54-7.23,31.5-8,42.35-1.75L564.4,180c10.86,6.27,9.5,17.22-3,24.46L335.06,335.09C322.53,342.33,303.57,343.11,292.71,336.84Z" transform="translate(-101.37 -15.96)"/><path class="cls-38" d="M292.71,337l-96.24-55.56c-4.85-2.8-7.26-6.54-7.33-10.46,0-.34,0-7.89,0-8.24.4-4.54,3.89-2,10.33-5.75l226.3-130.66c12.54-7.23,31.5-8,42.35-1.75l96.24,55.56c4.85,2.8,7.26-2.13,7.33,1.79,0,.34,0,9.34,0,9.68-.39,4.55-3.89,9.26-10.34,13L335.06,335.2C322.53,342.43,303.57,343.22,292.71,337Z" transform="translate(-101.37 -15.96)"/><path class="cls-39" d="M425.81,125.89c12.54-7.24,31.5-8,42.35-1.76L564.4,179.7c4.74,2.73,6.85-1.85,7.25,2,.05.45.08,9.15,0,9.61-.53,4.51-3.91,9.19-10.32,12.89L335.06,334.8c-12.53,7.24-31.49,8-42.35,1.76L196.47,281c-4.83-2.79-7.19-6.51-7.32-10.41,0-.44,0-7.74.12-8.19.71-4.42,3.92-2.2,10.24-5.86Z" transform="translate(-101.37 -15.96)"/><path class="cls-40" d="M425.81,125.5c12.54-7.24,31.5-8,42.35-1.76l96.24,55.57c4.64,2.67,6.57-1.57,7.18,2.11.09.57.16,9,.08,9.54-.61,4.47-3.93,9.12-10.3,12.8L335.06,334.41c-12.53,7.24-31.49,8-42.35,1.76L196.47,280.6c-4.81-2.77-7.15-6.47-7.32-10.35,0-.54.08-7.59.2-8.15.91-4.31,4-2.36,10.16-6Z" transform="translate(-101.37 -15.96)"/><path class="cls-41" d="M425.81,125.1c12.54-7.23,31.5-8,42.35-1.75l96.24,55.56c4.53,2.62,6.37-1.28,7.1,2.28.14.68.25,8.77.15,9.47-.68,4.43-4,9.05-10.29,12.71L335.06,334c-12.53,7.24-31.49,8-42.35,1.75l-96.24-55.56c-4.79-2.76-7.11-6.44-7.31-10.3,0-.64.11-7.44.27-8.1,1-4.21,4-2.53,10.08-6.05Z" transform="translate(-101.37 -15.96)"/><path class="cls-42" d="M425.81,124.71c12.54-7.24,31.5-8,42.35-1.75l96.24,55.56c4.42,2.55,6.2-1,7,2.44a92,92,0,0,1,.21,9.4c-.72,4.4-4,9-10.27,12.61L335.06,333.63c-12.53,7.23-31.49,8-42.35,1.75l-96.24-55.56c-4.77-2.75-7.08-6.41-7.31-10.26,0-.73.15-7.28.36-8.05,1.13-4.1,4-2.69,10-6.14Z" transform="translate(-101.37 -15.96)"/><path class="cls-43" d="M425.81,124.32c12.54-7.24,31.5-8,42.35-1.76l96.24,55.57c4.32,2.49,6.06-.74,7,2.6a70.79,70.79,0,0,1,.26,9.33c-.75,4.37-4,8.92-10.25,12.52L335.06,333.23c-12.53,7.24-31.49,8-42.35,1.76l-96.24-55.56c-4.74-2.74-7.06-6.39-7.31-10.21a69.68,69.68,0,0,1,.44-8c1.21-4,4.05-2.86,9.91-6.25Z" transform="translate(-101.37 -15.96)"/><path class="cls-44" d="M425.81,123.93c12.54-7.24,31.5-8,42.35-1.76l96.24,55.56c4.21,2.43,5.94-.47,6.87,2.77a58.28,58.28,0,0,1,.33,9.25c-.79,4.34-4,8.86-10.24,12.44L335.06,332.84c-12.53,7.24-31.49,8-42.35,1.76L196.47,279c-4.72-2.73-7-6.35-7.3-10.15a54.8,54.8,0,0,1,.52-7.95c1.26-3.92,4.08-3,9.82-6.35Z" transform="translate(-101.37 -15.96)"/><path class="cls-45" d="M425.81,123.53c12.54-7.23,31.5-8,42.35-1.75l96.24,55.56c4.1,2.37,5.82-.21,6.79,2.93a48.57,48.57,0,0,1,.39,9.18c-.82,4.31-4.07,8.79-10.22,12.34L335.06,332.45c-12.53,7.24-31.49,8-42.35,1.75l-96.24-55.56c-4.7-2.72-7-6.32-7.3-10.11a47.19,47.19,0,0,1,.6-7.9c1.31-3.83,4.11-3.19,9.74-6.44Z" transform="translate(-101.37 -15.96)"/><path class="cls-46" d="M425.81,123.14c12.54-7.24,31.5-8,42.35-1.75L564.4,177c4,2.3,5.72.05,6.72,3.09a40.84,40.84,0,0,1,.44,9.11c-.84,4.28-4.09,8.72-10.2,12.25L335.06,332.06c-12.53,7.23-31.49,8-42.35,1.75l-96.24-55.56c-4.68-2.71-7-6.29-7.3-10.06a41.24,41.24,0,0,1,.68-7.85c1.35-3.75,4.15-3.36,9.66-6.54Z" transform="translate(-101.37 -15.96)"/><path class="cls-47" d="M425.81,122.75c12.54-7.24,31.5-8,42.35-1.76l96.24,55.57c3.89,2.24,5.61.31,6.64,3.25a35.59,35.59,0,0,1,.51,9c-.87,4.25-4.12,8.66-10.19,12.16L335.06,331.66c-12.53,7.24-31.49,8-42.35,1.76l-96.24-55.57c-4.66-2.69-7-6.25-7.29-10a34.87,34.87,0,0,1,.76-7.81c1.38-3.66,4.17-3.52,9.57-6.64Z" transform="translate(-101.37 -15.96)"/><path class="cls-48" d="M425.81,122.36c12.54-7.24,31.5-8,42.35-1.76l96.24,55.56c3.78,2.19,5.52.58,6.57,3.42a31.42,31.42,0,0,1,.56,9c-.88,4.22-4.14,8.59-10.17,12.07L335.06,331.27c-12.53,7.24-31.49,8-42.35,1.76l-96.24-55.57c-4.64-2.68-7-6.22-7.29-9.95a31,31,0,0,1,.84-7.76c1.42-3.58,4.21-3.69,9.49-6.74Z" transform="translate(-101.37 -15.96)"/><path class="cls-49" d="M425.81,122c12.54-7.23,31.5-8,42.35-1.75l96.24,55.56c3.68,2.12,5.42.83,6.49,3.58a27.45,27.45,0,0,1,.63,8.89c-.91,4.2-4.18,8.53-10.16,12L335.06,330.88c-12.53,7.23-31.49,8-42.35,1.75l-96.24-55.56c-4.62-2.67-6.95-6.2-7.29-9.91a27.48,27.48,0,0,1,.93-7.71c1.44-3.5,4.23-3.85,9.4-6.83Z" transform="translate(-101.37 -15.96)"/><path class="cls-50" d="M425.81,121.57c12.54-7.24,31.5-8,42.35-1.75l96.24,55.56c3.57,2.06,5.33,1.08,6.41,3.74a24.11,24.11,0,0,1,.69,8.82c-.93,4.17-4.2,8.46-10.14,11.89L335.06,330.48c-12.53,7.24-31.49,8-42.35,1.76l-96.24-55.56c-4.6-2.66-6.93-6.17-7.28-9.86a24.33,24.33,0,0,1,1-7.66c1.47-3.42,4.27-4,9.32-6.94Z" transform="translate(-101.37 -15.96)"/><path class="cls-51" d="M425.81,121.18c12.54-7.24,31.5-8,42.35-1.76L564.4,175c3.46,2,5.24,1.33,6.34,3.9a21.62,21.62,0,0,1,.74,8.75c-.94,4.14-4.22,8.39-10.12,11.8L335.06,330.09c-12.53,7.24-31.49,8-42.35,1.76l-96.24-55.57c-4.58-2.64-6.92-6.13-7.28-9.8a22.35,22.35,0,0,1,1.08-7.62c1.5-3.34,4.31-4.18,9.24-7Z" transform="translate(-101.37 -15.96)"/><path class="cls-52" d="M425.81,120.79c12.54-7.24,31.5-8,42.35-1.76l96.24,55.56c3.36,1.94,5.14,1.59,6.26,4.07a19.26,19.26,0,0,1,.81,8.68c-1,4.11-4.26,8.33-10.11,11.71L335.06,329.7c-12.53,7.24-31.49,8-42.35,1.75l-96.24-55.56c-4.56-2.63-6.9-6.1-7.28-9.75a20.18,20.18,0,0,1,1.17-7.57c1.52-3.27,4.33-4.35,9.15-7.13Z" transform="translate(-101.37 -15.96)"/><path class="cls-53" d="M425.81,120.39c12.54-7.23,31.5-8,42.35-1.75L564.4,174.2c3.25,1.87,5.05,1.83,6.18,4.23a17.34,17.34,0,0,1,.87,8.61c-1,4.08-4.28,8.26-10.09,11.61L335.06,329.31c-12.53,7.23-31.49,8-42.35,1.75L196.47,275.5c-4.54-2.62-6.89-6.07-7.27-9.71a18.27,18.27,0,0,1,1.24-7.52c1.55-3.19,4.37-4.51,9.07-7.22Z" transform="translate(-101.37 -15.96)"/><path class="cls-54" d="M425.81,120c12.54-7.24,31.5-8,42.35-1.76l96.24,55.57c3.14,1.81,5,2.08,6.11,4.39a15.7,15.7,0,0,1,.92,8.53c-1,4.06-4.3,8.2-10.07,11.53L335.06,328.91c-12.53,7.24-31.49,8-42.35,1.76l-96.24-55.56c-4.52-2.61-6.87-6-7.27-9.66a16.78,16.78,0,0,1,1.33-7.47c1.57-3.13,4.39-4.68,9-7.33Z" transform="translate(-101.37 -15.96)"/><path class="cls-55" d="M425.81,119.61c12.54-7.24,31.5-8,42.35-1.76l96.24,55.57c3,1.75,4.88,2.32,6,4.55a14.27,14.27,0,0,1,1,8.46c-1,4-4.33,8.13-10.06,11.44L335.06,328.52c-12.53,7.24-31.49,8-42.35,1.76l-96.24-55.57c-4.5-2.59-6.86-6-7.27-9.6a15.42,15.42,0,0,1,1.41-7.43c1.59-3.05,4.43-4.84,8.9-7.42Z" transform="translate(-101.37 -15.96)"/><path class="cls-56" d="M425.81,119.21c12.54-7.23,31.5-8,42.35-1.75L564.4,173c2.93,1.69,4.79,2.57,6,4.72a12.92,12.92,0,0,1,1,8.39c-1,4-4.36,8.07-10,11.34L335.06,328.13c-12.53,7.24-31.49,8-42.35,1.75l-96.24-55.56c-4.48-2.58-6.85-6-7.26-9.56a14.08,14.08,0,0,1,1.48-7.37c1.62-3,4.46-5,8.82-7.52Z" transform="translate(-101.37 -15.96)"/><path class="cls-57" d="M425.81,118.82c12.54-7.24,31.5-8,42.35-1.75l96.24,55.56c2.82,1.63,4.69,2.81,5.88,4.88a11.84,11.84,0,0,1,1.1,8.32c-1,4-4.38,8-10,11.25L335.06,327.74c-12.53,7.23-31.49,8-42.35,1.75l-96.24-55.56c-4.46-2.58-6.83-5.94-7.26-9.51a13,13,0,0,1,1.57-7.33c1.64-2.92,4.49-5.16,8.73-7.61Z" transform="translate(-101.37 -15.96)"/><path class="cls-58" d="M425.81,118.43c12.54-7.24,31.5-8,42.35-1.76l96.24,55.57c2.72,1.56,4.6,3,5.8,5a10.88,10.88,0,0,1,1.17,8.25c-1.06,3.95-4.41,7.93-10,11.16L335.06,327.34c-12.53,7.24-31.49,8-42.35,1.76l-96.24-55.56c-4.43-2.57-6.82-5.91-7.25-9.46a12.07,12.07,0,0,1,1.64-7.28c1.67-2.86,4.53-5.33,8.65-7.72Z" transform="translate(-101.37 -15.96)"/><path class="cls-59" d="M292.71,328.71l-96.24-55.57c-10.85-6.26-9.49-17.21,3-24.45L425.81,118c12.54-7.24,31.5-8,42.35-1.76l96.24,55.56c10.86,6.27,9.5,17.22-3,24.46L335.06,327C322.53,334.19,303.57,335,292.71,328.71Z" transform="translate(-101.37 -15.96)"/><path class="cls-59" d="M292.71,328.71l-96.24-55.57c-10.85-6.26-9.49-17.21,3-24.45L425.81,118c12.54-7.24,31.5-8,42.35-1.76l96.24,55.56c10.86,6.27,9.5,17.22-3,24.46L335.06,327C322.53,334.19,303.57,335,292.71,328.71Z" transform="translate(-101.37 -15.96)"/><path class="cls-60" d="M199.59,248.7,425.83,118.08c12.51-7.22,31.43-8,42.26-1.75l96.2,55.54c10.83,6.25,9.47,17.17-3,24.39L335,326.88c-12.5,7.22-31.42,8-42.25,1.75l-96.2-55.54C185.73,266.84,187.09,255.92,199.59,248.7Z" transform="translate(-101.37 -15.96)"/><path class="cls-61" d="M199.68,248.71,425.86,118.12c12.47-7.2,31.34-8,42.15-1.75l96.16,55.53c10.81,6.23,9.45,17.13-3,24.33L335,326.82c-12.48,7.2-31.35,8-42.15,1.74L196.65,273C185.85,266.8,187.2,255.91,199.68,248.71Z" transform="translate(-101.37 -15.96)"/><path class="cls-62" d="M199.76,248.71,425.88,118.16c12.44-7.18,31.27-8,42.05-1.74l96.13,55.5c10.77,6.22,9.42,17.09-3,24.28L334.92,326.75c-12.45,7.18-31.27,8-42.05,1.74L196.74,273C186,266.77,187.31,255.9,199.76,248.71Z" transform="translate(-101.37 -15.96)"/><path class="cls-63" d="M199.84,248.72,425.9,118.21c12.42-7.17,31.2-7.95,42-1.74L563.94,172c10.75,6.2,9.4,17.05-3,24.21L334.87,326.68c-12.42,7.17-31.2,7.95-41.95,1.74l-96.09-55.48C186.08,266.73,187.43,255.89,199.84,248.72Z" transform="translate(-101.37 -15.96)"/><path class="cls-64" d="M199.92,248.73l226-130.48c12.39-7.15,31.12-7.93,41.85-1.74L563.82,172c10.73,6.19,9.38,17-3,24.16l-226,130.48c-12.38,7.15-31.12,7.93-41.84,1.74l-96.06-55.46C186.19,266.7,187.54,255.88,199.92,248.73Z" transform="translate(-101.37 -15.96)"/><path class="cls-65" d="M200,248.74,426,118.29c12.35-7.13,31-7.91,41.74-1.73l96,55.44c10.7,6.17,9.36,17-3,24.1L334.77,326.54c-12.35,7.14-31,7.91-41.74,1.73l-96-55.43C186.31,266.66,187.65,255.87,200,248.74Z" transform="translate(-101.37 -15.96)"/><path class="cls-66" d="M200.09,248.75,426,118.33c12.32-7.11,31-7.89,41.64-1.72l96,55.41c10.68,6.17,9.34,16.93-3,24L334.72,326.48c-12.32,7.11-31,7.88-41.64,1.72l-96-55.41C186.42,266.62,187.76,255.86,200.09,248.75Z" transform="translate(-101.37 -15.96)"/><path class="cls-67" d="M200.17,248.75,426,118.37c12.3-7.09,30.89-7.86,41.54-1.72l96,55.4c10.64,6.15,9.31,16.88-3,24L334.67,326.41c-12.29,7.1-30.89,7.87-41.53,1.72l-95.95-55.4C186.54,266.59,187.88,255.85,200.17,248.75Z" transform="translate(-101.37 -15.96)"/><path class="cls-68" d="M200.25,248.76,426,118.42c12.26-7.08,30.81-7.85,41.43-1.72l95.91,55.37c10.62,6.14,9.29,16.85-3,23.93L334.62,326.34c-12.26,7.08-30.81,7.85-41.43,1.72l-95.91-55.38C186.66,266.55,188,255.84,200.25,248.76Z" transform="translate(-101.37 -15.96)"/><path class="cls-69" d="M200.33,248.77,426,118.46c12.23-7.06,30.73-7.83,41.33-1.71l95.88,55.35c10.59,6.12,9.26,16.8-3,23.86L334.57,326.27c-12.23,7.07-30.73,7.83-41.33,1.72l-95.88-55.36C186.77,266.52,188.1,255.83,200.33,248.77Z" transform="translate(-101.37 -15.96)"/><path class="cls-70" d="M200.41,248.78,426.06,118.5c12.2-7,30.66-7.81,41.23-1.71l95.84,55.34c10.57,6.1,9.24,16.75-3,23.8L334.53,326.21c-12.21,7-30.67,7.81-41.23,1.71l-95.85-55.34C186.89,266.48,188.21,255.82,200.41,248.78Z" transform="translate(-101.37 -15.96)"/><path class="cls-71" d="M200.5,248.79,426.08,118.54c12.18-7,30.59-7.79,41.13-1.7L563,172.15c10.54,6.09,9.22,16.72-3,23.75L334.48,326.14c-12.18,7-30.59,7.79-41.13,1.7l-95.81-55.31C187,266.44,188.32,255.81,200.5,248.79Z" transform="translate(-101.37 -15.96)"/><path class="cls-72" d="M200.58,248.79l225.53-130.2c12.14-7,30.5-7.78,41-1.71l95.77,55.3c10.52,6.07,9.2,16.67-2.95,23.68L334.43,326.07c-12.14,7-30.51,7.77-41,1.7l-95.77-55.29C187.12,266.41,188.44,255.8,200.58,248.79Z" transform="translate(-101.37 -15.96)"/><path class="cls-73" d="M200.66,248.8,426.13,118.63c12.11-7,30.43-7.76,40.92-1.7l95.73,55.27c10.49,6.06,9.18,16.64-2.93,23.63L334.38,326c-12.11,7-30.44,7.76-40.92,1.7l-95.74-55.27C187.23,266.37,188.55,255.79,200.66,248.8Z" transform="translate(-101.37 -15.96)"/><path class="cls-74" d="M200.74,248.81,426.15,118.67c12.08-7,30.36-7.73,40.82-1.69l95.7,55.25c10.46,6,9.15,16.59-2.93,23.57L334.33,325.94c-12.08,7-30.36,7.73-40.82,1.69l-95.7-55.25C187.35,266.34,188.66,255.78,200.74,248.81Z" transform="translate(-101.37 -15.96)"/><path class="cls-75" d="M200.82,248.82,426.17,118.71c12.05-7,30.28-7.71,40.72-1.69l95.66,55.23c10.44,6,9.13,16.55-2.92,23.51L334.28,325.87c-12,7-30.28,7.71-40.72,1.69L197.9,272.33C187.46,266.3,188.77,255.77,200.82,248.82Z" transform="translate(-101.37 -15.96)"/><path class="cls-76" d="M200.91,248.82,426.2,118.75c12-6.94,30.2-7.69,40.61-1.68l95.63,55.21c10.41,6,9.1,16.51-2.92,23.45L334.23,325.8c-12,6.94-30.2,7.69-40.61,1.68L198,272.27C187.58,266.26,188.88,255.77,200.91,248.82Z" transform="translate(-101.37 -15.96)"/><path class="cls-77" d="M201,248.83l225.23-130c12-6.93,30.13-7.68,40.51-1.68l95.59,55.19c10.39,6,9.08,16.46-2.91,23.39l-225.23,130c-12,6.93-30.13,7.68-40.51,1.68l-95.59-55.19C187.69,266.23,189,255.76,201,248.83Z" transform="translate(-101.37 -15.96)"/><path class="cls-78" d="M201.07,248.84l225.17-130c12-6.91,30.05-7.66,40.41-1.68l95.56,55.17c10.35,6,9.06,16.43-2.91,23.33l-225.17,130c-12,6.9-30.05,7.65-40.41,1.67l-95.55-55.17C187.81,266.19,189.11,255.75,201.07,248.84Z" transform="translate(-101.37 -15.96)"/><path class="cls-79" d="M201.15,248.85l225.11-130c11.93-6.89,30-7.64,40.31-1.67l95.52,55.15c10.33,6,9,16.38-2.89,23.27l-225.12,130c-11.93,6.89-30,7.63-40.3,1.67l-95.52-55.15C187.93,266.16,189.22,255.74,201.15,248.85Z" transform="translate(-101.37 -15.96)"/><path class="cls-80" d="M201.23,248.86,426.29,118.92c11.9-6.87,29.9-7.61,40.2-1.66L562,172.38c10.31,6,9,16.35-2.88,23.22L334,325.53c-11.9,6.87-29.91,7.62-40.21,1.67l-95.48-55.13C188,266.12,189.33,255.73,201.23,248.86Z" transform="translate(-101.37 -15.96)"/><path class="cls-81" d="M201.32,248.86l225-129.9c11.87-6.85,29.82-7.59,40.1-1.66l95.45,55.11c10.28,5.93,9,16.3-2.88,23.15L334,325.46c-11.87,6.86-29.83,7.6-40.11,1.66L198.44,272C188.16,266.08,189.45,255.72,201.32,248.86Z" transform="translate(-101.37 -15.96)"/><path class="cls-82" d="M201.4,248.87,426.33,119c11.84-6.84,29.75-7.58,40-1.66l95.41,55.08c10.26,5.92,9,16.26-2.87,23.1L333.94,325.39c-11.84,6.84-29.75,7.58-40,1.66L198.53,272C188.27,266.05,189.56,255.71,201.4,248.87Z" transform="translate(-101.37 -15.96)"/><path class="cls-83" d="M201.48,248.88,426.35,119.05c11.81-6.82,29.68-7.56,39.9-1.65l95.38,55.06c10.23,5.9,8.94,16.22-2.87,23L333.89,325.33c-11.81,6.82-29.67,7.56-39.9,1.65l-95.38-55.06C188.39,266,189.67,255.7,201.48,248.88Z" transform="translate(-101.37 -15.96)"/><path class="cls-84" d="M201.56,248.89l224.82-129.8c11.78-6.8,29.59-7.54,39.8-1.65l95.33,55c10.2,5.89,8.92,16.18-2.86,23L333.84,325.26c-11.78,6.8-29.6,7.54-39.8,1.65l-95.34-55C188.5,266,189.78,255.69,201.56,248.89Z" transform="translate(-101.37 -15.96)"/><path class="cls-85" d="M201.64,248.9,426.4,119.13c11.75-6.78,29.52-7.52,39.7-1.64l95.3,55c10.17,5.87,8.9,16.14-2.85,22.92L333.79,325.19c-11.75,6.78-29.52,7.52-39.7,1.65l-95.3-55C188.62,265.94,189.89,255.68,201.64,248.9Z" transform="translate(-101.37 -15.96)"/><path class="cls-86" d="M201.73,248.9,426.42,119.18c11.72-6.77,29.45-7.5,39.6-1.65l95.26,55c10.15,5.86,8.88,16.09-2.84,22.86L333.74,325.12c-11.72,6.77-29.44,7.5-39.59,1.65l-95.27-55C188.73,265.9,190,255.67,201.73,248.9Z" transform="translate(-101.37 -15.96)"/><path class="cls-87" d="M201.81,248.91,426.44,119.22c11.69-6.75,29.37-7.48,39.5-1.64l95.23,55c10.12,5.85,8.85,16.05-2.84,22.8L333.69,325.06c-11.69,6.74-29.37,7.48-39.49,1.63l-95.23-55C188.85,265.87,190.12,255.66,201.81,248.91Z" transform="translate(-101.37 -15.96)"/><path class="cls-87" d="M201.89,248.92,426.47,119.26c11.66-6.73,29.29-7.46,39.39-1.63l95.19,55c10.1,5.83,8.83,16-2.83,22.74L333.64,325c-11.65,6.73-29.29,7.46-39.39,1.63l-95.19-55C189,265.83,190.23,255.65,201.89,248.92Z" transform="translate(-101.37 -15.96)"/><path class="cls-88" d="M202,248.93,426.49,119.3c11.63-6.71,29.22-7.44,39.29-1.63l95.15,54.94c10.07,5.82,8.81,16-2.82,22.69L333.59,324.92c-11.62,6.71-29.21,7.44-39.28,1.63l-95.16-54.94C189.08,265.8,190.34,255.64,202,248.93Z" transform="translate(-101.37 -15.96)"/><path class="cls-89" d="M202.05,248.94l224.46-129.6c11.6-6.69,29.14-7.42,39.19-1.62l95.12,54.92c10,5.8,8.78,15.93-2.81,22.62L333.55,324.85c-11.6,6.7-29.15,7.43-39.19,1.63l-95.12-54.92C189.2,265.76,190.46,255.63,202.05,248.94Z" transform="translate(-101.37 -15.96)"/><path class="cls-90" d="M202.13,248.94l224.4-129.55c11.57-6.68,29.07-7.41,39.09-1.62l95.08,54.89c10,5.79,8.76,15.89-2.8,22.57L333.5,324.79c-11.57,6.67-29.07,7.4-39.09,1.62l-95.08-54.9C189.31,265.72,190.57,255.62,202.13,248.94Z" transform="translate(-101.37 -15.96)"/><path class="cls-91" d="M202.22,249,426.56,119.43c11.53-6.66,29-7.39,39-1.62l95.05,54.88c10,5.77,8.74,15.84-2.8,22.51L333.45,324.72c-11.54,6.66-29,7.38-39,1.61l-95.05-54.87C189.43,265.69,190.68,255.61,202.22,249Z" transform="translate(-101.37 -15.96)"/><path class="cls-92" d="M202.3,249,426.58,119.47c11.51-6.64,28.91-7.36,38.88-1.61l95,54.85c10,5.76,8.72,15.81-2.79,22.45L333.4,324.65c-11.51,6.64-28.91,7.37-38.88,1.61l-95-54.85C189.54,265.65,190.79,255.6,202.3,249Z" transform="translate(-101.37 -15.96)"/><path class="cls-93" d="M202.38,249,426.6,119.51c11.48-6.62,28.84-7.34,38.78-1.6l95,54.83c9.94,5.74,8.69,15.76-2.79,22.39L333.35,324.58c-11.48,6.63-28.84,7.35-38.78,1.61l-95-54.83C189.66,265.62,190.9,255.59,202.38,249Z" transform="translate(-101.37 -15.96)"/><path class="cls-94" d="M202.46,249,426.63,119.56c11.44-6.61,28.76-7.33,38.67-1.61l94.94,54.82c9.91,5.72,8.67,15.72-2.78,22.32L333.3,324.52c-11.45,6.6-28.76,7.32-38.67,1.6L199.69,271.3C189.77,265.58,191,255.58,202.46,249Z" transform="translate(-101.37 -15.96)"/><path class="cls-95" d="M202.54,249,426.65,119.6c11.41-6.59,28.68-7.31,38.57-1.6l94.9,54.79c9.89,5.71,8.65,15.68-2.76,22.27L333.25,324.45c-11.41,6.59-28.68,7.3-38.57,1.6l-94.9-54.8C189.89,265.55,191.13,255.57,202.54,249Z" transform="translate(-101.37 -15.96)"/><path class="cls-96" d="M202.63,249l224-129.35c11.39-6.57,28.61-7.29,38.47-1.59L560,172.82c9.86,5.69,8.62,15.63-2.76,22.21l-224,129.35c-11.38,6.57-28.61,7.29-38.47,1.59L199.86,271.2C190,265.51,191.24,255.57,202.63,249Z" transform="translate(-101.37 -15.96)"/><path class="cls-97" d="M202.71,249l224-129.32c11.36-6.55,28.54-7.27,38.37-1.59l94.83,54.75c9.84,5.68,8.6,15.6-2.75,22.15l-224,129.32c-11.35,6.56-28.53,7.27-38.36,1.59L200,271.15C190.12,265.47,191.35,255.56,202.71,249Z" transform="translate(-101.37 -15.96)"/><path class="cls-98" d="M202.79,249,426.72,119.72c11.32-6.53,28.45-7.24,38.26-1.58l94.8,54.73c9.81,5.66,8.58,15.55-2.75,22.09L333.11,324.24c-11.33,6.54-28.46,7.25-38.27,1.59L200,271.1C190.23,265.44,191.46,255.55,202.79,249Z" transform="translate(-101.37 -15.96)"/><path class="cls-99" d="M202.87,249,426.74,119.77c11.29-6.53,28.38-7.23,38.16-1.59l94.76,54.71c9.78,5.65,8.56,15.52-2.74,22L333.06,324.18c-11.3,6.52-28.39,7.23-38.17,1.58l-94.76-54.71C190.35,265.4,191.58,255.54,202.87,249Z" transform="translate(-101.37 -15.96)"/><path class="cls-100" d="M203,249,426.76,119.81c11.27-6.51,28.31-7.21,38.06-1.58l94.73,54.69c9.75,5.63,8.53,15.47-2.74,22L333,324.11c-11.27,6.5-28.31,7.21-38.06,1.58L200.22,271C190.47,265.37,191.69,255.53,203,249Z" transform="translate(-101.37 -15.96)"/><path class="cls-101" d="M203,249,426.78,119.85c11.24-6.49,28.23-7.19,38-1.57L559.43,173c9.73,5.61,8.51,15.42-2.72,21.91L333,324c-11.24,6.49-28.23,7.19-38,1.58L200.31,271C190.58,265.33,191.8,255.52,203,249Z" transform="translate(-101.37 -15.96)"/><path class="cls-102" d="M203.12,249,426.81,119.89c11.2-6.47,28.15-7.17,37.85-1.57L559.32,173c9.7,5.6,8.48,15.39-2.72,21.86L332.91,324c-11.21,6.47-28.15,7.18-37.86,1.57L200.4,270.9C190.7,265.29,191.91,255.51,203.12,249Z" transform="translate(-101.37 -15.96)"/><path class="cls-103" d="M203.2,249.05,426.83,119.93c11.17-6.45,28.08-7.15,37.75-1.56L559.2,173c9.68,5.58,8.46,15.34-2.71,21.79L332.86,323.91c-11.17,6.45-28.08,7.15-37.75,1.56l-94.62-54.63C190.81,265.26,192,255.5,203.2,249.05Z" transform="translate(-101.37 -15.96)"/><path class="cls-104" d="M203.28,249.05,426.85,120c11.15-6.44,28-7.14,37.65-1.56L559.08,173c9.66,5.57,8.44,15.31-2.7,21.74L332.81,323.84c-11.14,6.43-28,7.13-37.65,1.56l-94.58-54.61C190.93,265.22,192.14,255.49,203.28,249.05Z" transform="translate(-101.37 -15.96)"/><path class="cls-105" d="M203.36,249.06,426.87,120c11.12-6.42,27.93-7.11,37.55-1.56L559,173.05c9.62,5.55,8.42,15.26-2.7,21.68l-223.51,129c-11.11,6.42-27.92,7.11-37.55,1.56l-94.54-54.59C191,265.19,192.25,255.48,203.36,249.06Z" transform="translate(-101.37 -15.96)"/><path class="cls-106" d="M203.45,249.07l223.45-129c11.08-6.4,27.85-7.09,37.44-1.55l94.51,54.56c9.6,5.55,8.4,15.23-2.69,21.62l-223.45,129c-11.08,6.4-27.85,7.1-37.44,1.56l-94.51-54.57C191.16,265.15,192.36,255.47,203.45,249.07Z" transform="translate(-101.37 -15.96)"/><path class="cls-107" d="M203.53,249.08l223.39-129c11.05-6.38,27.77-7.07,37.35-1.54l94.47,54.54c9.57,5.53,8.37,15.18-2.68,21.56l-223.4,129c-11.05,6.38-27.77,7.07-37.34,1.54l-94.47-54.54C191.27,265.11,192.47,255.46,203.53,249.08Z" transform="translate(-101.37 -15.96)"/><path class="cls-108" d="M203.61,249.09,426.94,120.15c11-6.37,27.7-7.06,37.25-1.55l94.43,54.52c9.55,5.52,8.35,15.14-2.67,21.51L332.62,323.57c-11,6.36-27.7,7.05-37.25,1.54l-94.43-54.52C191.39,265.08,192.59,255.45,203.61,249.09Z" transform="translate(-101.37 -15.96)"/><path class="cls-109" d="M203.69,249.09,427,120.19c11-6.35,27.63-7,37.15-1.54l94.4,54.5c9.52,5.5,8.32,15.1-2.67,21.44L332.57,323.5c-11,6.35-27.63,7-37.15,1.54L201,270.54C191.5,265,192.7,255.44,203.69,249.09Z" transform="translate(-101.37 -15.96)"/><path class="cls-110" d="M203.77,249.1,427,120.23c11-6.33,27.54-7,37-1.54l94.36,54.49c9.49,5.48,8.3,15-2.66,21.38L332.52,323.43c-11,6.33-27.55,7-37,1.54l-94.37-54.48C191.62,265,192.81,255.43,203.77,249.1Z" transform="translate(-101.37 -15.96)"/><path class="cls-111" d="M203.86,249.11,427,120.27c10.93-6.31,27.47-7,36.94-1.53l94.32,54.46c9.47,5.47,8.29,15-2.65,21.33L332.47,323.37c-10.93,6.31-27.47,7-36.94,1.53L201.2,270.44C191.74,265,192.92,255.42,203.86,249.11Z" transform="translate(-101.37 -15.96)"/><path class="cls-112" d="M203.94,249.12,427,120.31c10.9-6.29,27.4-7,36.84-1.52l94.29,54.44c9.44,5.45,8.26,15-2.65,21.26L332.42,323.3c-10.9,6.29-27.39,7-36.84,1.52l-94.29-54.43C191.85,264.93,193,255.41,203.94,249.12Z" transform="translate(-101.37 -15.96)"/><path class="cls-113" d="M204,249.13l223-128.77c10.88-6.28,27.32-7,36.74-1.53L558,173.25c9.42,5.44,8.24,14.93-2.63,21.21l-223,128.77c-10.87,6.28-27.32,7-36.73,1.52l-94.26-54.42C192,264.9,193.15,255.4,204,249.13Z" transform="translate(-101.37 -15.96)"/><path class="cls-114" d="M204.1,249.13l223-128.73c10.84-6.26,27.24-6.94,36.63-1.52l94.22,54.4c9.39,5.42,8.21,14.89-2.63,21.15l-223,128.73c-10.84,6.26-27.24,6.94-36.63,1.52l-94.22-54.4C192.08,264.86,193.26,255.39,204.1,249.13Z" transform="translate(-101.37 -15.96)"/><path class="cls-115" d="M204.18,249.14,427.1,120.44c10.81-6.24,27.17-6.92,36.53-1.51l94.18,54.37c9.37,5.41,8.19,14.85-2.62,21.09L332.27,323.09c-10.81,6.25-27.16,6.92-36.53,1.52l-94.18-54.38C192.2,264.83,193.37,255.38,204.18,249.14Z" transform="translate(-101.37 -15.96)"/><path class="cls-116" d="M516.31,231.14l11.45-6.61a6.17,6.17,0,0,0,2.58-4.94h0c0-1.9-1.15-2.78-2.58-2l-11.45,6.6a6.21,6.21,0,0,0-2.59,4.95h0C513.72,231.09,514.88,232,516.31,231.14Z" transform="translate(-101.37 -15.96)"/><path class="cls-117" d="M515.28,230.78a1.46,1.46,0,0,0,.69-.22L527.42,224a5.54,5.54,0,0,0,2.25-4.36c0-.73-.23-1.59-.89-1.59a1.49,1.49,0,0,0-.69.22l-11.44,6.61a5.54,5.54,0,0,0-2.25,4.36C514.4,229.92,514.63,230.78,515.28,230.78Z" transform="translate(-101.37 -15.96)"/><path class="cls-118" d="M495.88,242.94l11.44-6.61a6.19,6.19,0,0,0,2.59-4.94h0c0-1.91-1.16-2.78-2.59-2L495.88,236a6.19,6.19,0,0,0-2.59,4.94h0C493.29,242.89,494.45,243.76,495.88,242.94Z" transform="translate(-101.37 -15.96)"/><path class="cls-119" d="M494.85,242.57a1.38,1.38,0,0,0,.69-.22l11.45-6.6a5.56,5.56,0,0,0,2.25-4.36c0-.74-.24-1.59-.89-1.59a1.38,1.38,0,0,0-.69.22l-11.45,6.6A5.58,5.58,0,0,0,494,241C494,241.72,494.2,242.57,494.85,242.57Z" transform="translate(-101.37 -15.96)"/><path class="cls-120" d="M312,325h0a28.36,28.36,0,0,1-13.95-3.35l-91.52-52.83c-3.85-2.23-6-5.22-6-8.44s2.1-6.14,5.9-8.34L434.4,120.46a28,28,0,0,1,13.8-3.31,28.36,28.36,0,0,1,13.95,3.35l91.52,52.84c3.86,2.23,6,5.22,6,8.43s-2.09,6.15-5.9,8.34L325.82,321.71A28,28,0,0,1,312,325ZM448.2,118.45a26.75,26.75,0,0,0-13.15,3.13L207.12,253.18c-3.38,1.95-5.25,4.51-5.25,7.21s1.9,5.32,5.34,7.31l91.51,52.83a27,27,0,0,0,13.3,3.18h0a26.68,26.68,0,0,0,13.14-3.13L553.1,189c3.39-2,5.25-4.52,5.25-7.22s-1.89-5.32-5.33-7.3L461.5,121.63A27,27,0,0,0,448.2,118.45Z" transform="translate(-101.37 -15.96)"/><path class="cls-121" d="M512.29,158.69l-22.7-13.1c-.9-.52-.78-1.42.25-2h0a3.87,3.87,0,0,1,3.48-.14L516,156.54c.9.51.79,1.41-.25,2h0A3.87,3.87,0,0,1,512.29,158.69Z" transform="translate(-101.37 -15.96)"/><path class="cls-122" d="M403,214l-11-6.33-2.56,1.48,11,6.33ZM398,218l-13.08-7.55-2.56,1.47,13.08,7.56Zm16.08,2.46-9-5.19-2.56,1.48,9,5.19Zm5.62,3.24-3.5-2-2.56,1.48,3.5,2ZM368.24,194l-8-4.62-2.56,1.48,8,4.62Zm-1.68,5.85-12.24-7.06-2.56,1.48L364,201.29Zm33.56,19.38-2.56,1.48,3.43,2,2.56-1.48Zm-15.5-15.77-14.27-8.24-2.56,1.48,14.27,8.24Zm5.29,3.05-3.18-1.83-2.56,1.48,3.18,1.83Zm-7.1,2.73-6.87-4-2.56,1.48,6.87,4ZM368.67,201l-2.56,1.48,5.16,3,2.56-1.48Zm34.43,22.84,9.38,5.42,2.56-1.48-9.38-5.42Zm30.27,7.7-11.56-6.68-2.56,1.48L430.81,233Zm7.46,4.31-5.35-3.09-2.56,1.47,5.35,3.09ZM381,233.3l-9-5.19-2.56,1.48,9,5.18Zm2.82-2.24,9.38,5.41,2.56-1.47-9.38-5.42Zm14.1,1.32,4.1,2.36,2.56-1.48-4.1-2.36Zm-11.15,7.2,9,5.19,2.56-1.48-9-5.19Zm8.55-1.89,4,2.32,2.56-1.48-4-2.31ZM343,207.49l5.15,3,2.56-1.47-5.15-3Zm13.83,11.85-3.17-1.83L351.06,219l3.17,1.83Zm2.87-5.17-6.87-4-2.56,1.47,6.87,4Zm15.19,8.77-13.08-7.55-2.56,1.48,13.08,7.55Zm2.58,15.14-9.38-5.42-2.56,1.48,9.38,5.42ZM352,205.91l14.27,8.24,2.56-1.48-14.27-8.24ZM386.78,226l9,5.19,2.56-1.48-9-5.19Zm-9.16,22,2.56-1.47-3.5-2-2.56,1.47Zm18.44.87-16.51-9.53L377,240.78l16.51,9.53Zm-8.83-25.56-11-6.33-2.56,1.48,11,6.33Zm-32.65,1.61-11.1-6.4L340.92,220l11.1,6.4Zm29.65,3.48-7.27-4.2-2.56,1.48,7.27,4.2Zm-42.86-11.1-6.87-4-2.56,1.48,6.87,4Zm-6.7-7.73,14.27,8.23,2.56-1.47-14.27-8.24Zm10.43,16.71L330.84,218l-2.56,1.48,14.26,8.23Zm24.77.65-11-6.33L356.34,222l11,6.33Zm4.69,16.36-9-5.19L363,239.54l9,5.18Zm-16.52.23,3.43,2L364,244l-3.43-2Zm5.55,3.2L373,252.1l2.56-1.48-9.38-5.41ZM349.94,232l11,6.33,2.56-1.48-11-6.33Zm-16.08-2.47,6.87,4,2.56-1.48-6.87-4Zm32.08,1.92-9.25-5.34-2.56,1.48,9.25,5.34Zm-21.28-2.51,3.17,1.84,2.56-1.48-3.17-1.83ZM419.73,242l-2.56,1.48,5.35,3.09,2.56-1.48Zm-11.8,9.79,2.78,1.6,2.56-1.47-2.78-1.61Zm-12.12-.17,9,5.18,2.56-1.47-9-5.19Zm-2.4,5.43,5.35,3.09,2.56-1.48L396,255.6Zm-13.68-7.89,11.56,6.67,2.56-1.48-11.56-6.67Zm-36.88-14.48,13.07,7.55,2.56-1.48-13.07-7.55Zm9.64-31.5-8.15-4.7L341.78,200l8.15,4.7ZM404.09,236l11,6.33,2.56-1.48-11-6.33Zm-35.67-20.59,3.17,1.83,2.56-1.48L371,213.89Zm50.55,33-15.39-8.89L401,241l15.39,8.89Zm-10.15,1-8.44-4.87L397.82,246l8.44,4.87Zm-21.65-12.5-4.09-2.36L380.52,236l4.09,2.37Zm-43.76-32.09-5-2.87-2.56,1.48,5,2.87ZM312.25,217l12.23,7.07,2.56-1.48-12.23-7.07Zm16.47-.26-8-4.63-2.56,1.48,8,4.63Zm3.66-4.71-5.76-3.33-2.56,1.48,5.76,3.33Zm2.74-5.24-2.59-1.5L330,206.81l2.59,1.5Zm-8.52,18.5,5.15,3,2.56-1.48-5.15-3Z" transform="translate(-101.37 -15.96)"/><path class="cls-123" d="M245.34,292.76,115.22,217.83a12.67,12.67,0,0,1,0-21.92L219,135.59a12.65,12.65,0,0,1,12.69,0l130.12,74.92a12.67,12.67,0,0,1,0,21.92L258,292.74A12.67,12.67,0,0,1,245.34,292.76Z" transform="translate(-101.37 -15.96)"/><path class="cls-124" d="M245.9,291.53,116.63,217.09a12.34,12.34,0,0,1,0-21.36l101.92-59.25a12.34,12.34,0,0,1,12.37,0L360.17,210.9a12.34,12.34,0,0,1,0,21.36L258.27,291.51A12.34,12.34,0,0,1,245.9,291.53Z" transform="translate(-101.37 -15.96)"/><path class="cls-125" d="M246.47,290.3,118.05,216.36a12,12,0,0,1,0-20.81l100.06-58.18a12,12,0,0,1,12,0L358.55,211.3a12,12,0,0,1,0,20.81L258.51,290.29A12,12,0,0,1,246.47,290.3Z" transform="translate(-101.37 -15.96)"/><path class="cls-126" d="M247,289.08,119.46,215.62a11.7,11.7,0,0,1,0-20.25l98.21-57.11a11.69,11.69,0,0,1,11.72,0l127.58,73.46A11.7,11.7,0,0,1,357,232l-98.2,57.1A11.71,11.71,0,0,1,247,289.08Z" transform="translate(-101.37 -15.96)"/><path class="cls-127" d="M247.6,287.85l-126.73-73a11.38,11.38,0,0,1,0-19.69l96.35-56a11.36,11.36,0,0,1,11.4,0l126.73,73a11.38,11.38,0,0,1,0,19.69l-96.35,56A11.36,11.36,0,0,1,247.6,287.85Z" transform="translate(-101.37 -15.96)"/><path class="cls-128" d="M248.16,286.63,122.28,214.15a11.06,11.06,0,0,1,0-19.14l94.48-55a11.05,11.05,0,0,1,11.08,0L353.7,212.52a11.05,11.05,0,0,1,0,19.13l-94.48,55A11.07,11.07,0,0,1,248.16,286.63Z" transform="translate(-101.37 -15.96)"/><path class="cls-129" d="M248.73,285.4l-125-72a10.74,10.74,0,0,1,0-18.58l92.62-53.89a10.75,10.75,0,0,1,10.76,0l125,72a10.74,10.74,0,0,1,0,18.58l-92.62,53.89A10.72,10.72,0,0,1,248.73,285.4Z" transform="translate(-101.37 -15.96)"/><path class="cls-130" d="M249.29,284.18l-124.18-71.5a10.42,10.42,0,0,1,0-18l90.77-52.81a10.42,10.42,0,0,1,10.44,0l124.18,71.5a10.42,10.42,0,0,1,0,18l-90.77,52.81A10.42,10.42,0,0,1,249.29,284.18Z" transform="translate(-101.37 -15.96)"/><path class="cls-131" d="M249.86,283l-123.34-71a10.09,10.09,0,0,1,0-17.47l88.9-51.74a10.09,10.09,0,0,1,10.12,0l123.33,71a10.1,10.1,0,0,1,0,17.47L260,282.94A10.09,10.09,0,0,1,249.86,283Z" transform="translate(-101.37 -15.96)"/><path class="cls-132" d="M250.42,281.73,127.93,211.2a9.77,9.77,0,0,1,0-16.91l87-50.67a9.78,9.78,0,0,1,9.8,0l122.49,70.52a9.77,9.77,0,0,1,0,16.91l-87,50.67A9.78,9.78,0,0,1,250.42,281.73Z" transform="translate(-101.37 -15.96)"/><path class="cls-133" d="M251,280.5l-121.64-70a9.45,9.45,0,0,1,0-16.36l85.18-49.59a9.47,9.47,0,0,1,9.48,0l121.64,70a9.45,9.45,0,0,1,0,16.35l-85.19,49.6A9.43,9.43,0,0,1,251,280.5Z" transform="translate(-101.37 -15.96)"/><path class="cls-134" d="M251.55,279.28,130.76,209.73a9.13,9.13,0,0,1,0-15.8l83.32-48.52a9.14,9.14,0,0,1,9.16,0L344,214.94a9.13,9.13,0,0,1,0,15.8l-83.32,48.52A9.14,9.14,0,0,1,251.55,279.28Z" transform="translate(-101.37 -15.96)"/><polygon class="cls-135" points="151.66 262.9 0 175.53 115.95 108.3 267.61 195.66 151.66 262.9"/><polygon class="cls-136" points="151.66 261.8 1.58 174.62 0 175.53 151.66 262.89 265.38 196.6 263.8 196.42 151.66 261.8"/><polygon class="cls-137" points="228.01 207.1 122.11 145.96 122.67 145.63 228.57 206.78 228.01 207.1"/><polygon class="cls-137" points="206.33 219.61 100.43 158.47 100.99 158.15 206.89 219.29 206.33 219.61"/><polygon class="cls-137" points="238.85 200.84 132.95 139.7 133.51 139.37 239.41 200.52 238.85 200.84"/><polygon class="cls-137" points="217.17 213.36 111.27 152.21 111.83 151.89 217.73 213.03 217.17 213.36"/><g class="cls-138"><polygon class="cls-139" points="115.95 166.84 108.74 162.68 135.31 147.34 142.53 151.5 115.95 166.84"/><polygon class="cls-139" points="130.11 175.01 122.89 170.85 163.45 147.43 170.66 151.6 130.11 175.01"/><polygon class="cls-139" points="144.26 183.18 137.05 179.02 168.86 160.65 176.08 164.81 144.26 183.18"/><polygon class="cls-139" points="158.41 191.35 151.2 187.19 177.77 171.85 184.98 176.01 158.41 191.35"/><polygon class="cls-139" points="172.56 199.52 165.35 195.36 184.93 184.06 192.14 188.22 172.56 199.52"/><polygon class="cls-139" points="186.71 207.69 179.5 203.53 206.07 188.19 213.29 192.35 186.71 207.69"/><polygon class="cls-139" points="200.87 215.87 193.65 211.7 230.71 190.3 237.93 194.47 200.87 215.87"/></g><g class="cls-140"><polygon class="cls-139" points="115.95 166.84 108.74 162.68 128.56 151.24 135.77 155.4 115.95 166.84"/><polygon class="cls-139" points="130.11 175.01 122.89 170.85 153.2 153.35 160.41 157.52 130.11 175.01"/><polygon class="cls-139" points="144.26 183.18 137.05 179.02 163.85 163.54 171.06 167.71 144.26 183.18"/><polygon class="cls-139" points="158.41 191.35 151.2 187.19 171.01 175.75 178.22 179.91 158.41 191.35"/><polygon class="cls-139" points="172.56 199.52 165.35 195.36 178.17 187.96 185.38 192.12 172.56 199.52"/><polygon class="cls-139" points="186.71 207.69 179.5 203.53 199.31 192.09 206.53 196.25 186.71 207.69"/><polygon class="cls-139" points="200.87 215.87 193.65 211.7 220.46 196.22 227.67 200.39 200.87 215.87"/></g><polygon class="cls-137" points="69.83 175.63 175.74 236.77 176.3 236.45 70.39 175.31 69.83 175.63"/><polygon class="cls-137" points="48.16 188.15 154.06 249.29 154.62 248.97 48.72 187.82 48.16 188.15"/><polygon class="cls-137" points="80.67 169.37 186.57 230.51 187.13 230.19 81.23 169.05 80.67 169.37"/><polygon class="cls-137" points="58.99 181.89 164.9 243.03 165.46 242.71 59.55 181.56 58.99 181.89"/><g class="cls-141"><polygon class="cls-142" points="139.56 240.32 146.77 244.49 173.34 229.15 166.13 224.98 139.56 240.32"/><polygon class="cls-143" points="125.41 232.16 132.62 236.32 173.18 212.9 165.97 208.74 125.41 232.16"/><polygon class="cls-144" points="111.26 223.99 118.47 228.15 150.29 209.78 143.07 205.62 111.26 223.99"/><polygon class="cls-145" points="97.1 215.81 104.32 219.98 130.89 204.64 123.68 200.47 97.1 215.81"/><polygon class="cls-146" points="82.95 207.64 90.17 211.81 109.75 200.5 102.53 196.34 82.95 207.64"/><polygon class="cls-147" points="68.8 199.47 76.01 203.64 106.55 186.01 99.34 181.84 68.8 199.47"/><polygon class="cls-148" points="54.65 191.3 61.86 195.47 86.57 181.2 79.36 177.04 54.65 191.3"/></g><g class="cls-140"><polygon class="cls-149" points="139.56 240.32 146.77 244.49 166.59 233.05 159.37 228.89 139.56 240.32"/><polygon class="cls-150" points="125.41 232.16 132.62 236.32 162.92 218.82 155.71 214.66 125.41 232.16"/><polygon class="cls-151" points="111.26 223.99 118.47 228.15 145.28 212.67 138.06 208.51 111.26 223.99"/><polygon class="cls-152" points="97.1 215.81 104.32 219.98 124.13 208.54 116.92 204.38 97.1 215.81"/><polygon class="cls-153" points="82.95 207.64 90.17 211.81 102.99 204.41 95.77 200.24 82.95 207.64"/><polygon class="cls-154" points="68.8 199.47 76.01 203.64 99.79 189.91 92.58 185.75 68.8 199.47"/><polygon class="cls-155" points="54.65 191.3 61.86 195.47 76.31 187.12 69.1 182.96 54.65 191.3"/></g><path class="cls-156" d="M215.6,159.32c-6.23,3.59-16.35,3.57-22.62,0s-6.3-9.47-.07-13.06,16.35-3.58,22.62,0S221.83,155.72,215.6,159.32Z" transform="translate(-101.37 -15.96)"/><path class="cls-157" d="M163.73,190.35c-6.23,3.6-16.35,3.58-22.62,0s-6.3-9.46-.07-13.06,16.35-3.58,22.62,0S170,186.76,163.73,190.35Z" transform="translate(-101.37 -15.96)"/><path class="cls-158" d="M206.31,155.28a2,2,0,0,1-.71-1.34c0-.29.4-.51.89-.51a8.58,8.58,0,0,0,1.9-.21,1.79,1.79,0,0,0,1.23,0c.32-.19.43-.44.27-.6,1.28-.82,1.88-1.79.06-2.84a4.82,4.82,0,0,0-4.93,0,1.46,1.46,0,0,0-1,.15.43.43,0,0,0,0,.71,1.9,1.9,0,0,0-.36,1.1c0,.29-.39.52-.88.51a7.45,7.45,0,0,1-2.33-.4,3.89,3.89,0,0,0-3,.2l-1.42.82a.31.31,0,0,0,0,.58l7.6,4.38a1.1,1.1,0,0,0,1,0L206,157C206.77,156.55,206.89,155.83,206.31,155.28Z" transform="translate(-101.37 -15.96)"/><path class="cls-156" d="M159.15,179.67a14.77,14.77,0,0,0-13.32,0c-3.66,2.11-3.64,5.56,0,7.69a14.74,14.74,0,0,0,13.32,0C162.85,185.25,162.83,181.8,159.15,179.67Zm-1.28,6.93a11.85,11.85,0,0,1-10.68,0c-3-1.71-3-4.47,0-6.17a11.85,11.85,0,0,1,10.68,0C160.79,182.14,160.8,184.9,157.87,186.6Zm-.44-5.93a1.43,1.43,0,0,0-1.32,0l-5,2.89,4.68,2.7a1.46,1.46,0,0,0,1.32,0c.37-.21.36-.55,0-.76l-3.36-1.94,3.67-2.12C157.8,181.22,157.8,180.88,157.43,180.67Z" transform="translate(-101.37 -15.96)"/><path class="cls-159" d="M150.2,200l-13-7.52-2.55,1.48,13,7.52Zm-15.12-8.73-6.85-3.95-2.54,1.47,6.84,3.95Z" transform="translate(-101.37 -15.96)"/><polygon class="cls-156" points="74.79 142.22 89 150.42 91.55 148.94 77.34 140.74 74.79 142.22"/><polygon class="cls-156" points="91.1 151.63 94.26 153.46 96.81 151.98 93.65 150.16 91.1 151.63"/><path class="cls-123" d="M302,219.19,171.86,144.26a12.67,12.67,0,0,1,0-21.92L275.62,62a12.65,12.65,0,0,1,12.69,0l130.12,74.92a12.67,12.67,0,0,1,0,21.92L314.67,219.17A12.67,12.67,0,0,1,302,219.19Z" transform="translate(-101.37 -15.96)"/><path class="cls-124" d="M302.55,218,173.28,143.52a12.34,12.34,0,0,1,0-21.36L275.17,62.91a12.34,12.34,0,0,1,12.37,0l129.27,74.44a12.34,12.34,0,0,1,0,21.36L314.91,217.94A12.33,12.33,0,0,1,302.55,218Z" transform="translate(-101.37 -15.96)"/><path class="cls-125" d="M303.11,216.73,174.69,142.79a12,12,0,0,1,0-20.81L274.73,63.8a12,12,0,0,1,12,0L415.2,137.73a12,12,0,0,1,0,20.81L315.16,216.72A12,12,0,0,1,303.11,216.73Z" transform="translate(-101.37 -15.96)"/><path class="cls-126" d="M303.68,215.51,176.1,142.05a11.7,11.7,0,0,1,0-20.25l98.21-57.11a11.69,11.69,0,0,1,11.72,0l127.58,73.46a11.7,11.7,0,0,1,0,20.25l-98.21,57.1A11.69,11.69,0,0,1,303.68,215.51Z" transform="translate(-101.37 -15.96)"/><path class="cls-127" d="M304.24,214.28l-126.73-73a11.38,11.38,0,0,1,0-19.69l96.34-56a11.38,11.38,0,0,1,11.41,0l126.72,73a11.37,11.37,0,0,1,0,19.69l-96.35,56A11.36,11.36,0,0,1,304.24,214.28Z" transform="translate(-101.37 -15.96)"/><path class="cls-128" d="M304.81,213.06,178.93,140.58a11.06,11.06,0,0,1,0-19.14l94.48-55a11.07,11.07,0,0,1,11.09,0L410.35,139a11.05,11.05,0,0,1,0,19.13l-94.48,55A11.05,11.05,0,0,1,304.81,213.06Z" transform="translate(-101.37 -15.96)"/><path class="cls-129" d="M305.37,211.83l-125-72a10.74,10.74,0,0,1,0-18.58l92.63-53.89a10.75,10.75,0,0,1,10.76,0l125,72a10.74,10.74,0,0,1,0,18.58l-92.62,53.89A10.72,10.72,0,0,1,305.37,211.83Z" transform="translate(-101.37 -15.96)"/><path class="cls-130" d="M305.94,210.61l-124.19-71.5a10.42,10.42,0,0,1,0-18l90.76-52.81a10.42,10.42,0,0,1,10.44,0l124.18,71.5a10.42,10.42,0,0,1,0,18l-90.76,52.81A10.42,10.42,0,0,1,305.94,210.61Z" transform="translate(-101.37 -15.96)"/><path class="cls-131" d="M306.5,209.38l-123.34-71a10.1,10.1,0,0,1,0-17.47L272,69.16a10.09,10.09,0,0,1,10.12,0l123.34,71a10.1,10.1,0,0,1,0,17.47l-88.9,51.74A10.09,10.09,0,0,1,306.5,209.38Z" transform="translate(-101.37 -15.96)"/><path class="cls-132" d="M307.07,208.16,184.58,137.63a9.77,9.77,0,0,1,0-16.91l87-50.67a9.78,9.78,0,0,1,9.8,0l122.49,70.52a9.77,9.77,0,0,1,0,16.91l-87,50.67A9.76,9.76,0,0,1,307.07,208.16Z" transform="translate(-101.37 -15.96)"/><path class="cls-133" d="M307.63,206.93,186,136.9a9.45,9.45,0,0,1,0-16.36L271.14,71a9.47,9.47,0,0,1,9.48,0l121.64,70a9.45,9.45,0,0,1,0,16.35l-85.18,49.6A9.45,9.45,0,0,1,307.63,206.93Z" transform="translate(-101.37 -15.96)"/><path class="cls-134" d="M308.2,205.71,187.4,136.16a9.13,9.13,0,0,1,0-15.8L270.7,71.84a9.12,9.12,0,0,1,9.15,0l120.8,69.54a9.13,9.13,0,0,1,0,15.8l-83.32,48.52A9.12,9.12,0,0,1,308.2,205.71Z" transform="translate(-101.37 -15.96)"/><polygon class="cls-160" points="208.31 189.33 56.64 101.96 172.59 34.73 324.25 122.09 208.31 189.33"/><polygon class="cls-136" points="208.31 188.23 58.22 101.05 56.64 101.96 208.31 189.32 322.02 123.03 320.44 122.85 208.31 188.23"/><path class="cls-161" d="M286.33,120.46a40,40,0,0,0,9.25-3.8c7.89-4.55,11.11-10.79,9.66-16.7-2.53-9.33-16.53-16.46-33.41-16.43-1.82,0-3.61.09-5.35.25l-2.43-8.1a77.63,77.63,0,0,1,24.72,1.21,64.36,64.36,0,0,1,11.1,3.32h0l.33.14c.57.24,1.14.48,1.69.73l1.31.6.09,0a34.31,34.31,0,0,1,12.48,9.43c11.12,13.84.64,30.33-23.39,36.84Z" transform="translate(-101.37 -15.96)"/><path class="cls-162" d="M235.4,120.8c-7.54-5.19-11.16-11-11.13-17.78l13.53,0c0,.07,0,.13,0,.19,0,4.8,3,9.2,7.94,12.6,6.21,4.25,15.5,6.94,25.88,6.92a53.93,53.93,0,0,0,17.49-2.83l7,7C275.67,133.69,250.46,131.17,235.4,120.8Z" transform="translate(-101.37 -15.96)"/><path class="cls-163" d="M237.8,103l-13.53,0c.08-13.58,16.6-24.94,39.78-27.34l2.43,8.1C250.4,85.29,238,93.33,237.8,103Z" transform="translate(-101.37 -15.96)"/><path class="cls-164" d="M200,128.46l8.75-5.05c.7-.41.69-1.06,0-1.47l-14-8.07a2.79,2.79,0,0,0-2.53,0l-8.75,5a.78.78,0,0,0,0,1.47l5.78,3.33-1.23.72-.84-.49a2.86,2.86,0,0,0-2.58,0l-.22.12,6.7,3.87.22-.13c.71-.41.71-1.07,0-1.48l-.84-.49,1.24-.71,5.78,3.33A2.79,2.79,0,0,0,200,128.46Zm-14.89-8.63,8.7-5,13.29,7.68-8.7,5Z" transform="translate(-101.37 -15.96)"/><path class="cls-165" d="M259.38,150.62l-7.19-4.15a2.79,2.79,0,0,0-2.53,0l-13.26,7.66a.77.77,0,0,0,0,1.46l7.18,4.15a2.81,2.81,0,0,0,2.54,0l13.26-7.66A.77.77,0,0,0,259.38,150.62Zm-13.56,7.79-7.13-4.11,12.24-7.07,7.13,4.12Z" transform="translate(-101.37 -15.96)"/><path class="cls-166" d="M234.82,138.67l-14.64-8.46a2.79,2.79,0,0,0-2.53,0l-9.08,5.24c-.69.4-.69,1.05,0,1.46l14.64,8.45a2.81,2.81,0,0,0,2.54,0l9.07-5.24A.77.77,0,0,0,234.82,138.67Zm-11,5.56-13.29-7.68,9-5.2L232.86,139Z" transform="translate(-101.37 -15.96)"/><polygon class="cls-167" points="102.94 108.69 109.47 104.92 106.84 103.4 100.31 107.17 98.3 106.02 97.28 110.44 104.94 109.85 102.94 108.69"/><polygon class="cls-167" points="129.75 121.26 123.22 125.04 125.85 126.56 132.38 122.78 134.39 123.94 135.41 119.52 127.75 120.11 129.75 121.26"/><polygon class="cls-167" points="152.05 134.94 145.52 138.71 148.15 140.23 154.68 136.46 156.69 137.61 157.71 133.19 150.05 133.78 152.05 134.94"/><polygon class="cls-168" points="255.39 98.05 260.41 95.15 255.42 92.27 250.41 95.17 255.39 98.05"/><polygon class="cls-168" points="245.97 103.49 250.99 100.59 246 97.72 240.98 100.61 245.97 103.49"/><polygon class="cls-168" points="236.54 108.93 241.56 106.04 236.57 103.16 231.56 106.05 236.54 108.93"/><polygon class="cls-169" points="227.12 114.38 232.13 111.48 227.15 108.6 222.13 111.5 227.12 114.38"/><polygon class="cls-169" points="217.69 119.82 222.71 116.92 217.72 114.04 212.71 116.94 217.69 119.82"/><polygon class="cls-169" points="208.27 125.26 213.28 122.36 208.3 119.48 203.28 122.38 208.27 125.26"/><polygon class="cls-168" points="198.84 130.7 203.86 127.8 198.87 124.92 193.85 127.82 198.84 130.7"/><polygon class="cls-169" points="189.42 136.14 194.43 133.25 189.45 130.37 184.43 133.26 189.42 136.14"/><polygon class="cls-168" points="264.3 103.19 269.32 100.3 264.33 97.42 259.31 100.31 264.3 103.19"/><polygon class="cls-169" points="254.88 108.63 259.89 105.74 254.91 102.86 249.89 105.76 254.88 108.63"/><polygon class="cls-170" points="245.45 114.08 250.47 111.18 245.48 108.3 240.46 111.2 245.45 114.08"/><polygon class="cls-169" points="236.03 119.52 241.04 116.62 236.06 113.74 231.04 116.64 236.03 119.52"/><polygon class="cls-170" points="226.6 124.96 231.62 122.06 226.63 119.18 221.61 122.08 226.6 124.96"/><polygon class="cls-168" points="217.17 130.4 222.19 127.5 217.21 124.63 212.19 127.52 217.17 130.4"/><polygon class="cls-169" points="207.75 135.84 212.77 132.95 207.78 130.07 202.76 132.96 207.75 135.84"/><polygon class="cls-169" points="198.32 141.28 203.34 138.39 198.35 135.51 193.34 138.41 198.32 141.28"/><polygon class="cls-169" points="273.21 108.34 278.23 105.44 273.24 102.56 268.22 105.46 273.21 108.34"/><polygon class="cls-168" points="263.78 113.78 268.8 110.88 263.81 108 258.8 110.9 263.78 113.78"/><polygon class="cls-168" points="254.36 119.22 259.38 116.32 254.39 113.44 249.37 116.34 254.36 119.22"/><polygon class="cls-168" points="244.93 124.66 249.95 121.76 244.97 118.89 239.95 121.78 244.93 124.66"/><polygon class="cls-169" points="235.51 130.1 240.53 127.21 235.54 124.33 230.52 127.22 235.51 130.1"/><polygon class="cls-168" points="226.08 135.54 231.1 132.65 226.11 129.77 221.1 132.67 226.08 135.54"/><polygon class="cls-169" points="216.66 140.99 221.68 138.09 216.69 135.21 211.67 138.11 216.66 140.99"/><polygon class="cls-168" points="207.23 146.43 212.25 143.53 207.26 140.65 202.25 143.55 207.23 146.43"/><polygon class="cls-168" points="282.12 113.48 287.13 110.58 282.15 107.7 277.13 110.6 282.12 113.48"/><polygon class="cls-169" points="272.69 118.92 277.71 116.02 272.72 113.14 267.71 116.04 272.69 118.92"/><polygon class="cls-169" points="263.27 124.36 268.28 121.47 263.3 118.59 258.28 121.48 263.27 124.36"/><polygon class="cls-168" points="253.84 129.8 258.86 126.91 253.87 124.03 248.85 126.93 253.84 129.8"/><polygon class="cls-168" points="244.42 135.25 249.43 132.35 244.45 129.47 239.43 132.37 244.42 135.25"/><polygon class="cls-168" points="234.99 140.69 240.01 137.79 235.02 134.91 230 137.81 234.99 140.69"/><polygon class="cls-170" points="225.57 146.13 230.58 143.23 225.6 140.35 220.58 143.25 225.57 146.13"/><polygon class="cls-170" points="216.14 151.57 221.16 148.67 216.17 145.8 211.15 148.69 216.14 151.57"/><polygon class="cls-169" points="291.03 118.62 296.04 115.73 291.06 112.85 286.04 115.74 291.03 118.62"/><polygon class="cls-168" points="281.6 124.06 286.62 121.17 281.63 118.29 276.61 121.19 281.6 124.06"/><polygon class="cls-170" points="272.18 129.51 277.19 126.61 272.21 123.73 267.19 126.63 272.18 129.51"/><polygon class="cls-170" points="262.75 134.95 267.77 132.05 262.78 129.17 257.76 132.07 262.75 134.95"/><polygon class="cls-169" points="253.32 140.39 258.34 137.49 253.36 134.61 248.34 137.51 253.32 140.39"/><polygon class="cls-169" points="243.9 145.83 248.92 142.93 243.93 140.06 238.91 142.95 243.9 145.83"/><polygon class="cls-169" points="234.47 151.27 239.49 148.38 234.5 145.5 229.49 148.39 234.47 151.27"/><polygon class="cls-169" points="225.05 156.71 230.07 153.82 225.08 150.94 220.06 153.84 225.05 156.71"/><polygon class="cls-168" points="299.93 123.77 304.95 120.87 299.96 117.99 294.95 120.89 299.93 123.77"/><polygon class="cls-168" points="290.51 129.21 295.53 126.31 290.54 123.43 285.52 126.33 290.51 129.21"/><polygon class="cls-169" points="281.08 134.65 286.1 131.75 281.12 128.87 276.1 131.77 281.08 134.65"/><polygon class="cls-168" points="271.66 140.09 276.68 137.19 271.69 134.31 266.67 137.21 271.66 140.09"/><polygon class="cls-169" points="262.23 145.53 267.25 142.64 262.26 139.76 257.25 142.65 262.23 145.53"/><polygon class="cls-169" points="252.81 150.97 257.82 148.08 252.84 145.2 247.82 148.09 252.81 150.97"/><polygon class="cls-168" points="243.38 156.42 248.4 153.52 243.41 150.64 238.4 153.54 243.38 156.42"/><polygon class="cls-171" points="233.96 161.86 238.97 158.96 233.99 156.08 228.97 158.98 233.96 161.86"/><polygon class="cls-137" points="96.44 90.41 229.76 167.38 230.47 166.98 97.15 90 96.44 90.41"/><polygon class="cls-168" points="163.36 154.91 180.5 144.49 175.52 141.61 158.37 152.03 163.36 154.91"/><polygon class="cls-172" points="172.04 160.11 185.94 151.59 180.95 148.71 167.05 157.24 172.04 160.11"/><polygon class="cls-173" points="181.16 165.32 191.58 158.97 186.59 156.09 176.17 162.44 181.16 165.32"/><polygon class="cls-174" points="190.05 170.31 197.65 165.26 192.67 162.39 185.07 167.44 190.05 170.31"/><polygon class="cls-175" points="198.73 175.96 203.73 172.86 198.74 169.98 193.75 173.08 198.73 175.96"/><polygon class="cls-176" points="207.41 180.95 210.24 179.15 205.25 176.28 202.43 178.07 207.41 180.95"/><path class="cls-167" d="M280.32,108.1a8.44,8.44,0,0,0,.94-.62l4,.56.22-.22a7.52,7.52,0,0,0,1.61-2.27l.11-.25-3.5-1.24a4.17,4.17,0,0,0,0-1.65l3.49-1.24-.11-.25a7.82,7.82,0,0,0-1.64-2.27l-.22-.22-4,.55a9.67,9.67,0,0,0-2-1.18l.95-2.3-.39-.13a22.58,22.58,0,0,0-3.93-1l-.43-.06-2.14,2a21,21,0,0,0-2.86,0l-2.16-2-.43.07a22.46,22.46,0,0,0-3.92.93l-.39.13,1,2.31a11.79,11.79,0,0,0-1.07.54,9,9,0,0,0-.94.62l-4-.56-.22.22a7.7,7.7,0,0,0-1.61,2.27l-.11.25,3.51,1.24a4,4,0,0,0,0,1.65l-3.5,1.24.11.25a7.82,7.82,0,0,0,1.64,2.27l.23.22,4-.55a9.93,9.93,0,0,0,2,1.18l-.94,2.3.38.13a22.69,22.69,0,0,0,3.94,1l.43.06,2.13-2a22.74,22.74,0,0,0,2.86,0l2.16,2,.43-.07a22.36,22.36,0,0,0,3.93-.93l.38-.13-1-2.31A12.05,12.05,0,0,0,280.32,108.1Zm-1.48,2.51a21.93,21.93,0,0,1-2.82.67l-2.1-2-.39,0a19,19,0,0,1-3.29,0l-.4,0-2.08,2a20.88,20.88,0,0,1-2.83-.68l.93-2.24-.32-.14a8.93,8.93,0,0,1-2.34-1.35l-.23-.18-3.9.53a7.34,7.34,0,0,1-1.17-1.63l3.4-1.2-.06-.23a3.71,3.71,0,0,1,0-1.9l.06-.23-3.42-1.21A7.29,7.29,0,0,1,259,99.17l3.9.55.23-.19a9,9,0,0,1,1.06-.72,9.93,9.93,0,0,1,1.26-.61l.32-.14-.94-2.25a21.77,21.77,0,0,1,2.81-.67l2.11,2,.39,0a19,19,0,0,1,3.29,0l.39,0,2.08-2a22.08,22.08,0,0,1,2.83.67l-.92,2.25.32.14a9,9,0,0,1,2.33,1.35l.24.18,3.89-.53a7,7,0,0,1,1.17,1.63l-3.4,1.2.06.23a3.6,3.6,0,0,1,0,1.9l-.06.23,3.42,1.21a7,7,0,0,1-1.16,1.63l-3.9-.55-.23.18a7.2,7.2,0,0,1-1.06.73,9.33,9.33,0,0,1-1.26.61l-.32.14Zm-3.36-9.5a8.07,8.07,0,0,0-7.29,0c-2,1.16-2,3,0,4.21a8.07,8.07,0,0,0,7.29,0C277.51,104.16,277.5,102.28,275.48,101.11Zm-6.42,3.71c-1.55-.89-1.56-2.34,0-3.23a6.18,6.18,0,0,1,5.6,0c1.55.89,1.55,2.34,0,3.23A6.21,6.21,0,0,1,269.06,104.82Z" transform="translate(-101.37 -15.96)"/><g class="cls-177"><path class="cls-139" d="M517.34,183.84l13.13,7.58a2.18,2.18,0,0,0,2,0c.54-.31.53-.82,0-1.13l-13.13-7.58a2.15,2.15,0,0,0-2,0C516.79,183,516.8,183.52,517.34,183.84Zm11.79,8.35L516,184.61a2.18,2.18,0,0,0-2,0c-.54.31-.54.81,0,1.13l13.13,7.58a2.16,2.16,0,0,0,2,0A.6.6,0,0,0,529.13,192.19Zm-3.29,1.9-13.13-7.58a2.18,2.18,0,0,0-2,0c-.54.31-.54.81,0,1.13l13.13,7.58a2.18,2.18,0,0,0,2,0A.6.6,0,0,0,525.84,194.09Z" transform="translate(-101.37 -15.96)"/></g><path class="cls-122" d="M418.08,200.7l25.94-15L435.84,181l-25.93,15Zm47.72-15.26-8.17-4.71-37.08,21.4,8.17,4.72Zm-58.37,9.12,14.8-8.55-8.17-4.72-14.8,8.55Zm57.56-4.7-36.08,20.83-36.3-21,33.21-19.17,22.24,12.84,2.87-1.66L425.8,167.23l-38.95,22.49L428.93,214l38.95-22.49Z" transform="translate(-101.37 -15.96)"/><path class="cls-123" d="M409.41,189.24,279.29,114.31a12.67,12.67,0,0,1,0-21.92L383.05,32.07a12.65,12.65,0,0,1,12.69,0L525.85,107a12.66,12.66,0,0,1,0,21.91L422.1,189.22A12.67,12.67,0,0,1,409.41,189.24Z" transform="translate(-101.37 -15.96)"/><path class="cls-124" d="M410,188,280.7,113.57a12.34,12.34,0,0,1,0-21.36L382.6,33a12.34,12.34,0,0,1,12.37,0l129.27,74.44a12.34,12.34,0,0,1,0,21.36L422.34,188A12.34,12.34,0,0,1,410,188Z" transform="translate(-101.37 -15.96)"/><path class="cls-125" d="M410.54,186.79,282.11,112.84a12,12,0,0,1,0-20.81L382.15,33.85a12,12,0,0,1,12.05,0l128.42,73.94a12,12,0,0,1,0,20.81L422.58,186.77A12,12,0,0,1,410.54,186.79Z" transform="translate(-101.37 -15.96)"/><path class="cls-126" d="M411.1,185.56,283.53,112.1a11.7,11.7,0,0,1,0-20.25l98.2-57.1a11.68,11.68,0,0,1,11.73,0L521,108.19a11.7,11.7,0,0,1,0,20.25l-98.2,57.1A11.68,11.68,0,0,1,411.1,185.56Z" transform="translate(-101.37 -15.96)"/><path class="cls-127" d="M411.67,184.33l-126.73-73a11.39,11.39,0,0,1,0-19.7l96.35-56a11.38,11.38,0,0,1,11.4,0l126.73,73a11.37,11.37,0,0,1,0,19.69l-96.34,56A11.36,11.36,0,0,1,411.67,184.33Z" transform="translate(-101.37 -15.96)"/><path class="cls-128" d="M412.23,183.11,286.35,110.63a11.06,11.06,0,0,1,0-19.14l94.48-55a11.05,11.05,0,0,1,11.08,0L517.77,109a11.05,11.05,0,0,1,0,19.13l-94.49,55A11.05,11.05,0,0,1,412.23,183.11Z" transform="translate(-101.37 -15.96)"/><path class="cls-129" d="M412.8,181.88l-125-72a10.74,10.74,0,0,1,0-18.58l92.62-53.88a10.72,10.72,0,0,1,10.76,0l125,72a10.74,10.74,0,0,1,0,18.58l-92.62,53.89A10.72,10.72,0,0,1,412.8,181.88Z" transform="translate(-101.37 -15.96)"/><path class="cls-130" d="M413.36,180.66l-124.18-71.5a10.42,10.42,0,0,1,0-18l90.76-52.81a10.42,10.42,0,0,1,10.44,0l124.19,71.51a10.41,10.41,0,0,1,0,18L423.8,180.64A10.42,10.42,0,0,1,413.36,180.66Z" transform="translate(-101.37 -15.96)"/><path class="cls-131" d="M413.93,179.43l-123.34-71a10.1,10.1,0,0,1,0-17.47l88.91-51.74a10.07,10.07,0,0,1,10.11,0l123.34,71a10.1,10.1,0,0,1,0,17.47L424,179.42A10.07,10.07,0,0,1,413.93,179.43Z" transform="translate(-101.37 -15.96)"/><path class="cls-132" d="M414.49,178.21,292,107.68a9.77,9.77,0,0,1,0-16.91l87-50.66a9.76,9.76,0,0,1,9.79,0L511.3,110.61a9.77,9.77,0,0,1,0,16.91l-87,50.67A9.78,9.78,0,0,1,414.49,178.21Z" transform="translate(-101.37 -15.96)"/><path class="cls-133" d="M415.06,177,293.41,107a9.45,9.45,0,0,1,0-16.36L378.57,41a9.47,9.47,0,0,1,9.48,0l121.64,70a9.45,9.45,0,0,1,0,16.35L424.53,177A9.43,9.43,0,0,1,415.06,177Z" transform="translate(-101.37 -15.96)"/><path class="cls-134" d="M415.62,175.76,294.83,106.21a9.13,9.13,0,0,1,0-15.8l83.32-48.52a9.14,9.14,0,0,1,9.16,0l120.79,69.54a9.13,9.13,0,0,1,0,15.8l-83.33,48.52A9.12,9.12,0,0,1,415.62,175.76Z" transform="translate(-101.37 -15.96)"/><polygon class="cls-178" points="315.73 159.38 164.07 72.01 280.01 4.78 431.68 92.15 315.73 159.38"/><path class="cls-137" d="M377.58,38.2l-.26-.15L296.75,84.57l125.64,72.54.26.15,80.56-46.52Zm3,33.34,31.57,18.23-25.78,14.89L354.75,86.43ZM353.71,85.83,325.18,69.36,351,54.47l28.52,16.47Zm59.45,3.34L381.58,70.94l25.31-14.61,31.57,18.23Zm26.34-14,31.58,18.23L445.78,108,414.2,89.77Zm-54.21,30.1L360.2,119.74l.22.38-32-18.48L353.71,87Zm1,.6,31.58,18.23-25.09,14.49.22.38-32-18.49Zm1-.6,25.79-14.89,31.57,18.23L419,123.49Zm58.41,3.95,29,16.74L449,140.84l-29-16.75Zm1-.61L472.12,94l29,16.75-25.31,14.61Zm-41-52.87-25.3,14.61L352,53.87l25.31-14.61ZM324.14,70l28.53,16.47-25.09,14.48.22.38-29-16.72Zm69.5,69.35L419,124.7l29,16.74-25.31,14.61Z" transform="translate(-101.37 -15.96)"/><g class="cls-179"><path class="cls-180" d="M325.26,69.08c2.89,1.67,28.5-2.54,36.05,1.82,7.4,4.27-6.14,19.69,3.18,25.07s64.5-11.26,72.85-6.43-7.4,23.94.8,28.67,22.91,1.24,27.57,3.93-3.8,7.58-1.07,9.16l-42,24.24L299.56,84.48Z" transform="translate(-101.37 -15.96)"/></g><path class="cls-181" d="M464.15,132.14a2,2,0,0,1-1-1.29c-.25-1.15.55-2.28,1.47-3.58.76-1.09,1.71-2.43,1.52-3.29,0-.13-.12-.53-.92-1-1.78-1-5.66-1-9.78-1.06-6,0-12.89-.05-17.79-2.88-4.75-2.74-2.75-9.15-.81-15.35,1.82-5.8,3.54-11.28,0-13.32-3.75-2.17-19.17.62-34.09,3.31-17.31,3.12-33.66,6.07-38.76,3.13-5.57-3.22-4-9.44-2.54-14.92,1.37-5.3,2-8.62-.63-10.15-4.42-2.55-16-2-24.52-1.55-6.69.34-10.24.48-11.54-.27l1-1.69c.86.49,6,.24,10.46,0,9.21-.46,20.68-1,25.59,1.81,4.13,2.38,2.82,7.44,1.55,12.33C362,87.67,360.69,92.65,365,95.13c4.48,2.58,22-.58,37.44-3.36,16.65-3,31-5.6,35.41-3.08,4.88,2.82,2.84,9.31.88,15.6-1.79,5.71-3.48,11.11-.08,13.07,4.44,2.57,11,2.6,16.82,2.62,4.57,0,8.52,0,10.75,1.32a3.5,3.5,0,0,1,1.85,2.27c.37,1.69-.8,3.35-1.83,4.82a6.5,6.5,0,0,0-1.16,2Z" transform="translate(-101.37 -15.96)"/><path class="cls-182" d="M442,88.91c0,.93-1.29,1.68-2.9,1.68s-2.91-.76-2.92-1.69,1.29-1.67,2.9-1.67S442,88,442,88.91Z" transform="translate(-101.37 -15.96)"/><path class="cls-123" d="M441.58,92.29l-9.67-16.55L389.1,50.93a8.72,8.72,0,0,1,0-15.1L408.84,24.2a8.72,8.72,0,0,1,8.75,0l31.8,18.4L481.18,61a8.73,8.73,0,0,1,0,15.11L450.33,92.28A8.74,8.74,0,0,1,441.58,92.29Z" transform="translate(-101.37 -15.96)"/><path class="cls-124" d="M390.06,35.7l7.48-4.42c.18-.1,7.34-4.18,7.51-4.08L409.41,25a9,9,0,0,1,8.49.3l25.28,14.64L449,43.27l31.06,18,.48.29A8.51,8.51,0,0,1,480.09,76L472,80.28c-.18.1-7.93,4-8.1,3.94L450,90.5a8.92,8.92,0,0,1-8.46-.28l-9.86-15.66-1.94-1.12-39.7-23A8.52,8.52,0,0,1,390.06,35.7Z" transform="translate(-101.37 -15.96)"/><path class="cls-125" d="M391,35.58l7.3-4.33c.36-.2,7-3.88,7.39-3.67l4.26-1.8c2.21-1.29,6-.67,8.23.61l24.69,14.3L448.54,44l30.34,17.57.47.29A8.29,8.29,0,0,1,479,75.9l-7.82,4.2c-.36.2-7.57,3.75-7.93,3.55l-13.47,5.08c-2.21,1.28-6,.7-8.17-.58L431.53,73.38l-1.89-1.1L391.05,49.92A8.29,8.29,0,0,1,391,35.58Z" transform="translate(-101.37 -15.96)"/><path class="cls-126" d="M392,35.45l7.11-4.23c.54-.31,6.74-3.58,7.27-3.27l4.16-1.38c2-1.14,6-.21,8,.92l24.1,14,5.5,3.19,29.62,17.15c.12.07.34.2.45.28a8.06,8.06,0,0,1-.33,13.73l-7.59,4.12c-.53.31-7.21,3.47-7.74,3.16L449.46,87c-2,1.14-5.92.26-7.89-.88L431.34,72.2l-1.84-1.07L392,49.41A8.07,8.07,0,0,1,392,35.45Z" transform="translate(-101.37 -15.96)"/><path class="cls-127" d="M393,35.33l6.93-4.14c.71-.41,6.44-3.27,7.15-2.86l4.06-1c1.72-1,6,.24,7.71,1.24l23.5,13.6,5.37,3.11L476.59,62l.45.27a7.86,7.86,0,0,1-.29,13.38l-7.35,4c-.71.41-6.85,3.17-7.56,2.76l-12.67,2.69c-1.72,1-5.87-.17-7.6-1.17L431.15,71l-1.78-1L393,48.9A7.84,7.84,0,0,1,393,35.33Z" transform="translate(-101.37 -15.96)"/><path class="cls-128" d="M394,35.21l6.75-4.05c.89-.52,6.15-3,7-2.46l3.94-.55c1.48-.86,6,.7,7.46,1.55L442.05,43l5.23,3,28.16,16.3.44.27a7.64,7.64,0,0,1-.25,13l-7.1,4c-.89.51-6.5,2.88-7.39,2.37l-12.26,1.49c-1.47.85-5.83-.61-7.31-1.47L431,69.83l-1.74-1L394,48.4A7.62,7.62,0,0,1,394,35.21Z" transform="translate(-101.37 -15.96)"/><path class="cls-129" d="M394.93,35.08l6.57-3.95c1.06-.62,5.84-2.67,6.91-2.05l3.84-.14c1.23-.71,6,1.15,7.2,1.86l22.31,12.92,5.1,3,27.43,15.88.43.26a7.41,7.41,0,0,1-.2,12.67l-6.86,3.88c-1.07.62-6.15,2.6-7.21,2l-11.86.29c-1.23.72-5.79-1-7-1.76L430.78,68.65l-1.69-1L395,47.89A7.4,7.4,0,0,1,394.93,35.08Z" transform="translate(-101.37 -15.96)"/><path class="cls-130" d="M395.9,35l6.39-3.86c1.24-.73,5.54-2.36,6.79-1.64l3.74.27c1-.57,6,1.61,6.94,2.17l21.72,12.58,5,2.87,26.7,15.46.42.25a7.2,7.2,0,0,1-.16,12.32l-6.62,3.8c-1.24.72-5.78,2.3-7,1.58l-11.46-.9c-1,.57-5.75-1.49-6.73-2.06l-11-10.34L429,66.52l-33-19.14A7.17,7.17,0,0,1,395.9,35Z" transform="translate(-101.37 -15.96)"/><path class="cls-131" d="M396.87,34.83l6.21-3.77c1.41-.82,5.25-2,6.67-1.23l3.64.69c.74-.43,5.94,2.06,6.68,2.49L441.2,45.24,446,48l26,15,.41.24a7,7,0,0,1-.11,12L465.91,79c-1.42.82-5.43,2-6.85,1.19L448,78.08c-.74.43-5.71-1.92-6.45-2.35L430.4,66.28l-1.59-.92L396.89,46.87A7,7,0,0,1,396.87,34.83Z" transform="translate(-101.37 -15.96)"/><path class="cls-132" d="M397.85,34.71l6-3.68c1.59-.92,4.95-1.74,6.55-.82l3.54,1.1c.49-.28,5.93,2.51,6.42,2.8L440.91,46l4.69,2.71,25.24,14.62.4.24a6.75,6.75,0,0,1-.07,11.6L465,78.81c-1.6.93-5.07,1.72-6.67.8l-10.65-3.3c-.49.28-5.67-2.36-6.16-2.65L430.21,65.1l-1.54-.89-30.8-17.84A6.73,6.73,0,0,1,397.85,34.71Z" transform="translate(-101.37 -15.96)"/><path class="cls-133" d="M398.82,34.59,404.66,31c1.77-1,4.65-1.44,6.43-.42l3.44,1.52c.24-.14,5.92,3,6.16,3.11l19.94,11.55,4.55,2.63,24.51,14.2s.38.22.4.23a6.54,6.54,0,0,1,0,11.24l-5.9,3.57c-1.77,1-4.71,1.43-6.48.4l-10.25-4.49c-.24.14-5.63-2.8-5.87-3L430,63.92l-1.48-.86-29.7-17.2A6.51,6.51,0,0,1,398.82,34.59Z" transform="translate(-101.37 -15.96)"/><path class="cls-134" d="M457,78.46,428.4,61.9,399.81,45.35a6.3,6.3,0,0,1,0-10.89L405.45,31a6.3,6.3,0,0,1,6.31,0l28.58,16.55,28.59,16.56a6.3,6.3,0,0,1,0,10.89l-5.65,3.49A6.3,6.3,0,0,1,457,78.46Z" transform="translate(-101.37 -15.96)"/><path class="cls-183" d="M443.32,86.09l-4.9-18.86-51.83-30c-6.19-3.57-5.42-9.81,1.73-13.94l6.76-3.9c7.15-4.13,18-4.58,24.15-1L478.72,52.8c6.19,3.57,5.41,9.81-1.74,13.94Z" transform="translate(-101.37 -15.96)"/><path class="cls-167" d="M469.56,56.76l-10.92-6.3-2.55,1.47L467,58.23Zm-10.32.84-13-7.52-2.55,1.47,13,7.52ZM445.92,43.11l-14.21-8.2-2.55,1.47,14.21,8.2Zm10.62,6.13L448,44.33l-2.55,1.47L454,50.72Zm-12.43-.38-6.84-4-2.55,1.48,6.84,4ZM426.63,38.64l-2.55,1.47,8.54,5.06,2.55-1.47Zm-10.44,6.25,14.2,8.2,2.55-1.47-14.2-8.21ZM432.5,54.3l3.16,1.83,2.55-1.48-3.16-1.82Z" transform="translate(-101.37 -15.96)"/><path class="cls-167" d="M406.45,36.36l11.42-6.6-3.6-2.08-11.42,6.6Zm21-6.73-3.6-2.07L407.54,37l3.59,2.07Zm-25.72,4,6.52-3.77-3.59-2.07-6.52,3.76Zm25.36-2.07-15.89,9.17-16-9.23,14.62-8.44,9.8,5.65,1.27-.73-11.07-6.39-17.16,9.91,18.54,10.7,17.15-9.91Z" transform="translate(-101.37 -15.96)"/><polygon class="cls-184" points="315.73 158.28 165.65 71.1 164.07 72.01 315.73 159.38 429.45 93.08 427.87 92.9 315.73 158.28"/></g></g></svg>