<svg id="Layer_1" data-name="Layer 1" xmlns="http://www.w3.org/2000/svg" xmlns:xlink="http://www.w3.org/1999/xlink" viewBox="0 0 1274.51 987.39"><defs><style>.cls-1,.cls-4{fill:#d2ecfc;}.cls-1{opacity:0.31;}.cls-2{fill:#ffef69;}.cls-3{fill:#fff;}.cls-5{fill:url(#linear-gradient);}.cls-6{fill:url(#linear-gradient-2);}.cls-7{fill:url(#linear-gradient-3);}.cls-8{fill:url(#linear-gradient-4);}.cls-9{fill:url(#linear-gradient-5);}.cls-10{fill:url(#linear-gradient-6);}.cls-11{fill:url(#linear-gradient-7);}.cls-12{fill:url(#linear-gradient-8);}.cls-13{fill:url(#linear-gradient-9);}.cls-14{fill:url(#linear-gradient-10);}.cls-15{fill:url(#linear-gradient-11);}.cls-16{fill:url(#linear-gradient-12);}.cls-17{fill:url(#linear-gradient-13);}.cls-18{fill:url(#linear-gradient-14);}.cls-19{fill:url(#linear-gradient-15);}.cls-20{fill:url(#linear-gradient-16);}.cls-21{fill:url(#linear-gradient-17);}.cls-22{fill:#c5e6ee;}.cls-23{fill:#9ed8f7;}.cls-24{fill:url(#linear-gradient-18);}.cls-25{fill:url(#linear-gradient-19);}.cls-26{fill:url(#linear-gradient-20);}.cls-27{fill:url(#linear-gradient-21);}.cls-28{fill:url(#linear-gradient-22);}.cls-29{fill:url(#linear-gradient-23);}.cls-30{fill:url(#linear-gradient-24);}.cls-31{fill:url(#linear-gradient-25);}.cls-32{fill:url(#linear-gradient-26);}.cls-33{fill:#5cc4f1;}.cls-34{fill:#80cef4;}.cls-35{fill:#1a80af;}.cls-36{fill:#d6d6d6;}.cls-37{fill:#009fe3;}.cls-38{fill:#00b7ed;}.cls-39{fill:url(#linear-gradient-27);}.cls-40{fill:#db8b68;}.cls-41{fill:#5b3227;}.cls-42{fill:#c7675b;}.cls-43{fill:url(#linear-gradient-28);}.cls-44{fill:url(#linear-gradient-29);}.cls-45{fill:url(#linear-gradient-30);}.cls-46{fill:url(#linear-gradient-31);}.cls-47{fill:url(#linear-gradient-32);}.cls-48{fill:url(#linear-gradient-33);}.cls-49{fill:#51a631;}.cls-49,.cls-83{opacity:0.6;}.cls-50{fill:#a35e1a;}.cls-51{fill:url(#linear-gradient-34);}.cls-52{fill:#f0b605;}.cls-53{fill:url(#linear-gradient-35);}.cls-54{fill:url(#linear-gradient-36);}.cls-55{fill:url(#linear-gradient-37);}.cls-56{fill:url(#linear-gradient-38);}.cls-57{fill:#c66e00;}.cls-58{fill:url(#linear-gradient-39);}.cls-59{fill:url(#linear-gradient-40);}.cls-60{fill:url(#linear-gradient-41);}.cls-61{fill:url(#linear-gradient-42);}.cls-62{fill:url(#linear-gradient-43);}.cls-63{fill:url(#linear-gradient-44);}.cls-64{fill:url(#linear-gradient-45);}.cls-65{fill:url(#linear-gradient-46);}.cls-66{fill:url(#linear-gradient-47);}.cls-67{fill:url(#linear-gradient-48);}.cls-68{fill:url(#linear-gradient-49);}.cls-69{fill:url(#linear-gradient-50);}.cls-70{fill:url(#linear-gradient-51);}.cls-71{fill:url(#linear-gradient-52);}.cls-72{fill:url(#linear-gradient-53);}.cls-73{fill:url(#linear-gradient-54);}.cls-74{fill:#528620;}.cls-75{fill:url(#linear-gradient-55);}.cls-76{fill:url(#linear-gradient-56);}.cls-77{fill:url(#linear-gradient-57);}.cls-78{fill:url(#linear-gradient-58);}.cls-79{fill:url(#linear-gradient-59);}.cls-80{fill:url(#linear-gradient-60);}.cls-81{fill:url(#linear-gradient-61);}.cls-82{fill:url(#linear-gradient-62);}.cls-83{fill:#81b424;}.cls-84{fill:url(#linear-gradient-63);}.cls-85{fill:url(#linear-gradient-64);}</style><linearGradient id="linear-gradient" x1="259.02" y1="583.46" x2="342.41" y2="583.46" gradientUnits="userSpaceOnUse"><stop offset="0" stop-color="#a3cce3"/><stop offset="1" stop-color="#a3cce3"/></linearGradient><linearGradient id="linear-gradient-2" x1="671.72" y1="720.44" x2="753.92" y2="720.44" gradientTransform="translate(1425.64 1440.88) rotate(-180)" xlink:href="#linear-gradient"/><linearGradient id="linear-gradient-3" x1="753.92" y1="667.43" x2="831.36" y2="667.43" gradientTransform="translate(1585.28 1334.86) rotate(-180)" xlink:href="#linear-gradient"/><linearGradient id="linear-gradient-4" x1="776.69" y1="594.15" x2="808.59" y2="594.15" gradientTransform="translate(1585.28 1188.3) rotate(-180)" xlink:href="#linear-gradient"/><linearGradient id="linear-gradient-5" x1="789.57" y1="518.51" x2="795.71" y2="518.51" gradientTransform="translate(1585.28 1037.03) rotate(-180)" xlink:href="#linear-gradient"/><linearGradient id="linear-gradient-6" x1="823.02" y1="710.91" x2="863.52" y2="710.91" gradientTransform="translate(1686.54 1421.82) rotate(-180)" xlink:href="#linear-gradient"/><linearGradient id="linear-gradient-7" x1="853.99" y1="693.04" x2="899.26" y2="693.04" gradientTransform="translate(1753.25 1386.08) rotate(-180)" xlink:href="#linear-gradient"/><linearGradient id="linear-gradient-8" x1="546.12" y1="548.53" x2="639.04" y2="548.53" xlink:href="#linear-gradient"/><linearGradient id="linear-gradient-9" x1="976.69" y1="671.6" x2="1075.57" y2="671.6" gradientTransform="translate(2052.27 1343.2) rotate(-180)" xlink:href="#linear-gradient"/><linearGradient id="linear-gradient-10" x1="1066.04" y1="739.5" x2="1111.31" y2="739.5" gradientTransform="translate(2177.35 1479.01) rotate(-180)" xlink:href="#linear-gradient"/><linearGradient id="linear-gradient-11" x1="1104.16" y1="694.83" x2="1161.35" y2="694.83" gradientTransform="translate(2265.51 1389.66) rotate(-180)" xlink:href="#linear-gradient"/><linearGradient id="linear-gradient-12" x1="814.17" y1="602.73" x2="935.68" y2="602.73" xlink:href="#linear-gradient"/><linearGradient id="linear-gradient-13" x1="1269.75" y1="718.65" x2="1396.03" y2="718.65" gradientTransform="translate(2665.79 1437.31) rotate(-180)" xlink:href="#linear-gradient"/><linearGradient id="linear-gradient-14" x1="1384.12" y1="647.18" x2="1465.13" y2="647.18" gradientTransform="translate(2849.25 1294.35) rotate(-180)" xlink:href="#linear-gradient"/><linearGradient id="linear-gradient-15" x1="1456.79" y1="702.57" x2="1524.69" y2="702.57" gradientTransform="translate(2981.48 1405.14) rotate(-180)" xlink:href="#linear-gradient"/><linearGradient id="linear-gradient-16" x1="510.73" y1="704.79" x2="618.64" y2="704.79" gradientTransform="translate(1129.36 1409.58) rotate(-180)" xlink:href="#linear-gradient"/><linearGradient id="linear-gradient-17" x1="439.7" y1="721.86" x2="518.92" y2="721.86" gradientTransform="translate(958.62 1443.73) rotate(-180)" xlink:href="#linear-gradient"/><linearGradient id="linear-gradient-18" x1="957.07" y1="810.76" x2="1024.48" y2="994.16" gradientUnits="userSpaceOnUse"><stop offset="0" stop-color="#a1d9f7"/><stop offset="1" stop-color="#d2ecfc"/></linearGradient><linearGradient id="linear-gradient-19" x1="1041.14" y1="779.86" x2="1108.55" y2="963.26" xlink:href="#linear-gradient-18"/><linearGradient id="linear-gradient-20" x1="746.74" y1="888.06" x2="814.15" y2="1071.46" xlink:href="#linear-gradient-18"/><linearGradient id="linear-gradient-21" x1="1002.54" y1="794.05" x2="1069.94" y2="977.45" xlink:href="#linear-gradient-18"/><linearGradient id="linear-gradient-22" x1="980.08" y1="802.3" x2="1047.48" y2="985.7" xlink:href="#linear-gradient-18"/><linearGradient id="linear-gradient-23" x1="792.42" y1="871.27" x2="859.82" y2="1054.67" xlink:href="#linear-gradient-18"/><linearGradient id="linear-gradient-24" x1="611.01" y1="937.95" x2="678.41" y2="1121.34" xlink:href="#linear-gradient-18"/><linearGradient id="linear-gradient-25" x1="1013.1" y1="578.01" x2="1088.73" y2="783.8" xlink:href="#linear-gradient-18"/><linearGradient id="linear-gradient-26" x1="1116.71" y1="752.09" x2="1184.11" y2="935.49" xlink:href="#linear-gradient-18"/><linearGradient id="linear-gradient-27" x1="716.04" y1="668.35" x2="798.41" y2="613.44" gradientUnits="userSpaceOnUse"><stop offset="0" stop-color="#f49d79"/><stop offset="1" stop-color="#f8b883"/></linearGradient><linearGradient id="linear-gradient-28" x1="730.63" y1="619.9" x2="730.63" y2="607.27" gradientUnits="userSpaceOnUse"><stop offset="0" stop-color="#3aa7cf"/><stop offset="1" stop-color="#93d5f6"/></linearGradient><linearGradient id="linear-gradient-29" x1="755.1" y1="619.9" x2="755.1" y2="607.27" xlink:href="#linear-gradient-28"/><linearGradient id="linear-gradient-30" x1="779.57" y1="619.9" x2="779.57" y2="607.27" xlink:href="#linear-gradient-28"/><linearGradient id="linear-gradient-31" x1="730.63" y1="665.47" x2="730.63" y2="652.84" xlink:href="#linear-gradient-28"/><linearGradient id="linear-gradient-32" x1="755.1" y1="665.47" x2="755.1" y2="652.84" xlink:href="#linear-gradient-28"/><linearGradient id="linear-gradient-33" x1="1041.82" y1="705.36" x2="1075.36" y2="673.17" gradientUnits="userSpaceOnUse"><stop offset="0" stop-color="#70b62c"/><stop offset="1" stop-color="#b4cc0e"/></linearGradient><linearGradient id="linear-gradient-34" x1="556.33" y1="691.91" x2="590.97" y2="643.24" gradientUnits="userSpaceOnUse"><stop offset="0" stop-color="#fcbe00"/><stop offset="1" stop-color="#ffdd5a"/></linearGradient><linearGradient id="linear-gradient-35" x1="566.74" y1="648.82" x2="566.74" y2="637.43" xlink:href="#linear-gradient-28"/><linearGradient id="linear-gradient-36" x1="592.84" y1="648.82" x2="592.84" y2="637.43" xlink:href="#linear-gradient-28"/><linearGradient id="linear-gradient-37" x1="566.74" y1="687.4" x2="566.74" y2="674.63" xlink:href="#linear-gradient-28"/><linearGradient id="linear-gradient-38" x1="592.84" y1="687.4" x2="592.84" y2="674.63" xlink:href="#linear-gradient-28"/><linearGradient id="linear-gradient-39" x1="615.72" y1="680.69" x2="664.44" y2="612.25" xlink:href="#linear-gradient-34"/><linearGradient id="linear-gradient-40" x1="630.36" y1="620.1" x2="630.36" y2="604.09" xlink:href="#linear-gradient-28"/><linearGradient id="linear-gradient-41" x1="667.06" y1="620.1" x2="667.06" y2="604.09" xlink:href="#linear-gradient-28"/><linearGradient id="linear-gradient-42" x1="630.36" y1="674.35" x2="630.36" y2="656.4" xlink:href="#linear-gradient-28"/><linearGradient id="linear-gradient-43" x1="667.06" y1="674.35" x2="667.06" y2="656.4" xlink:href="#linear-gradient-28"/><linearGradient id="linear-gradient-44" x1="1049.53" y1="674.67" x2="1098.24" y2="606.23" xlink:href="#linear-gradient-34"/><linearGradient id="linear-gradient-45" x1="1064.17" y1="614.08" x2="1064.17" y2="598.06" xlink:href="#linear-gradient-28"/><linearGradient id="linear-gradient-46" x1="1100.87" y1="614.08" x2="1100.87" y2="598.06" xlink:href="#linear-gradient-28"/><linearGradient id="linear-gradient-47" x1="1064.17" y1="668.32" x2="1064.17" y2="650.37" xlink:href="#linear-gradient-28"/><linearGradient id="linear-gradient-48" x1="1100.87" y1="668.32" x2="1100.87" y2="650.37" xlink:href="#linear-gradient-28"/><linearGradient id="linear-gradient-49" x1="190.64" y1="668.11" x2="239.35" y2="599.67" xlink:href="#linear-gradient-34"/><linearGradient id="linear-gradient-50" x1="205.28" y1="607.52" x2="205.28" y2="591.5" xlink:href="#linear-gradient-28"/><linearGradient id="linear-gradient-51" x1="241.98" y1="607.52" x2="241.98" y2="591.5" xlink:href="#linear-gradient-28"/><linearGradient id="linear-gradient-52" x1="205.28" y1="661.77" x2="205.28" y2="643.82" xlink:href="#linear-gradient-28"/><linearGradient id="linear-gradient-53" x1="241.98" y1="661.77" x2="241.98" y2="643.82" xlink:href="#linear-gradient-28"/><linearGradient id="linear-gradient-54" x1="373.35" y1="787.74" x2="1569.66" y2="787.74" xlink:href="#linear-gradient-33"/><linearGradient id="linear-gradient-55" x1="845.95" y1="761.42" x2="1217.66" y2="761.42" xlink:href="#linear-gradient-33"/><linearGradient id="linear-gradient-56" x1="509.96" y1="617.33" x2="621.65" y2="510.13" xlink:href="#linear-gradient-33"/><linearGradient id="linear-gradient-57" x1="1445.18" y1="617.33" x2="1556.87" y2="510.13" xlink:href="#linear-gradient-33"/><linearGradient id="linear-gradient-58" x1="796.44" y1="701.56" x2="845.36" y2="654.61" xlink:href="#linear-gradient-33"/><linearGradient id="linear-gradient-59" x1="750.31" y1="651.16" x2="826.98" y2="577.56" xlink:href="#linear-gradient-33"/><linearGradient id="linear-gradient-60" x1="421.51" y1="663.32" x2="513.03" y2="575.47" xlink:href="#linear-gradient-33"/><linearGradient id="linear-gradient-61" x1="1199.32" y1="663.32" x2="1290.84" y2="575.47" xlink:href="#linear-gradient-33"/><linearGradient id="linear-gradient-62" x1="476.33" y1="729.48" x2="532.55" y2="675.52" gradientUnits="userSpaceOnUse"><stop offset="0" stop-color="#b4cc0e"/><stop offset="1" stop-color="#e2de00"/></linearGradient><linearGradient id="linear-gradient-63" x1="1270.39" y1="729.48" x2="1326.61" y2="675.52" xlink:href="#linear-gradient-62"/><linearGradient id="linear-gradient-64" x1="774.05" y1="748.42" x2="808.67" y2="715.19" xlink:href="#linear-gradient-62"/></defs><title>contact-image-header</title><circle class="cls-1" cx="993.76" cy="460.4" r="409.79" transform="translate(-380.48 786.93) rotate(-45)"/><path class="cls-2" d="M888.92,200.78a29.21,29.21,0,1,1-29.21-29.2A29.21,29.21,0,0,1,888.92,200.78Z" transform="translate(-345.99 -50.61)"/><circle class="cls-3" cx="655.67" cy="149.29" r="15.33"/><path class="cls-3" d="M1061.78,182.22a29.48,29.48,0,1,1-29.47-29.48A29.47,29.47,0,0,1,1061.78,182.22Z" transform="translate(-345.99 -50.61)"/><path class="cls-3" d="M1030,210.51a14.15,14.15,0,1,1-14.15-14.15A14.15,14.15,0,0,1,1030,210.51Z" transform="translate(-345.99 -50.61)"/><circle class="cls-3" cx="716.97" cy="150.47" r="29.47"/><circle class="cls-3" cx="745.27" cy="152.82" r="16.51"/><path class="cls-3" d="M1054.71,208.15a22.4,22.4,0,1,1-22.4-22.4A22.4,22.4,0,0,1,1054.71,208.15Z" transform="translate(-345.99 -50.61)"/><path class="cls-3" d="M782.78,291.61a6.1,6.1,0,1,1-6.1-6.1A6.1,6.1,0,0,1,782.78,291.61Z" transform="translate(-345.99 -50.61)"/><path class="cls-3" d="M800.61,284.57a11.73,11.73,0,1,1-11.73-11.73A11.73,11.73,0,0,1,800.61,284.57Z" transform="translate(-345.99 -50.61)"/><path class="cls-3" d="M787.94,295.83a5.63,5.63,0,1,1-5.63-5.63A5.63,5.63,0,0,1,787.94,295.83Z" transform="translate(-345.99 -50.61)"/><path class="cls-3" d="M812.81,292.08a11.73,11.73,0,1,1-11.73-11.73A11.73,11.73,0,0,1,812.81,292.08Z" transform="translate(-345.99 -50.61)"/><path class="cls-3" d="M818.92,293a6.58,6.58,0,1,1-6.58-6.57A6.58,6.58,0,0,1,818.92,293Z" transform="translate(-345.99 -50.61)"/><path class="cls-3" d="M797.8,294.89a8.92,8.92,0,1,1-8.92-8.91A8.92,8.92,0,0,1,797.8,294.89Z" transform="translate(-345.99 -50.61)"/><path class="cls-3" d="M1272.43,262.61a12.35,12.35,0,1,0,12.35-12.35A12.35,12.35,0,0,0,1272.43,262.61Z" transform="translate(-345.99 -50.61)"/><path class="cls-3" d="M1236.33,248.36a23.75,23.75,0,1,0,23.75-23.75A23.75,23.75,0,0,0,1236.33,248.36Z" transform="translate(-345.99 -50.61)"/><path class="cls-3" d="M1262,271.17a11.4,11.4,0,1,0,11.4-11.41A11.4,11.4,0,0,0,1262,271.17Z" transform="translate(-345.99 -50.61)"/><path class="cls-3" d="M1211.63,263.56a23.75,23.75,0,1,0,23.75-23.75A23.75,23.75,0,0,0,1211.63,263.56Z" transform="translate(-345.99 -50.61)"/><path class="cls-3" d="M1199.28,265.46a13.3,13.3,0,1,0,13.3-13.3A13.3,13.3,0,0,0,1199.28,265.46Z" transform="translate(-345.99 -50.61)"/><path class="cls-3" d="M1242,269.27a18.05,18.05,0,1,0,18-18.06A18.05,18.05,0,0,0,1242,269.27Z" transform="translate(-345.99 -50.61)"/><polygon class="cls-4" points="930 713.18 1013.39 713.18 1013.39 363.44 930 326.01 930 713.18"/><rect class="cls-4" x="864.48" y="498.75" width="82.2" height="214.43"/><rect class="cls-4" x="787.04" y="392.72" width="77.43" height="320.46"/><rect class="cls-4" x="809.81" y="306.63" width="31.89" height="320.46"/><rect class="cls-4" x="822.69" y="196.29" width="6.14" height="320.46"/><rect class="cls-4" x="754.88" y="479.69" width="40.5" height="233.5"/><rect class="cls-4" x="719.14" y="443.95" width="45.27" height="269.23"/><polygon class="cls-4" points="633.37 713.18 726.29 713.18 726.29 256.15 633.37 305.76 633.37 713.18"/><rect class="cls-4" x="542.83" y="401.06" width="98.88" height="312.12"/><rect class="cls-4" x="507.09" y="536.87" width="45.27" height="176.31"/><rect class="cls-4" x="457.05" y="447.52" width="57.18" height="265.66"/><polygon class="cls-4" points="336.73 713.18 458.24 713.18 458.24 403.44 397.6 364.56 336.73 403.44 336.73 713.18"/><rect class="cls-4" x="222.37" y="495.17" width="126.28" height="218.01"/><rect class="cls-4" x="153.27" y="352.22" width="81.01" height="360.96"/><rect class="cls-4" x="93.71" y="463.01" width="67.9" height="250.17"/><rect class="cls-4" x="999.76" y="467.44" width="107.91" height="245.74"/><rect class="cls-4" x="1099.48" y="501.59" width="79.23" height="211.59"/><polygon class="cls-5" points="342.41 729.53 259.02 729.53 259.02 474.83 342.41 437.39 342.41 729.53"/><rect class="cls-6" x="671.72" y="660.74" width="82.2" height="119.4" transform="translate(1079.65 1390.27) rotate(180)"/><rect class="cls-7" x="753.92" y="554.72" width="77.43" height="225.43" transform="translate(1239.29 1284.24) rotate(180)"/><rect class="cls-8" x="776.69" y="468.62" width="31.89" height="251.05" transform="translate(1239.29 1137.69) rotate(180)"/><rect class="cls-9" x="789.57" y="358.28" width="6.14" height="320.46" transform="translate(1239.29 986.41) rotate(180)"/><rect class="cls-10" x="823.02" y="641.68" width="40.5" height="138.46" transform="translate(1340.55 1371.21) rotate(180)"/><rect class="cls-11" x="853.99" y="605.94" width="45.27" height="174.2" transform="translate(1407.26 1335.47) rotate(180)"/><polygon class="cls-12" points="639.04 729.53 546.12 729.53 546.12 367.54 639.04 417.14 639.04 729.53"/><rect class="cls-13" x="976.69" y="563.05" width="98.88" height="217.09" transform="translate(1706.28 1292.58) rotate(180)"/><rect class="cls-14" x="1066.04" y="698.86" width="45.27" height="81.28" transform="translate(1831.36 1428.39) rotate(180)"/><rect class="cls-15" x="1104.16" y="609.52" width="57.18" height="170.63" transform="translate(1919.52 1339.04) rotate(180)"/><polygon class="cls-16" points="935.68 729.53 814.16 729.53 814.16 514.82 874.8 475.94 935.68 514.82 935.68 729.53"/><rect class="cls-17" x="1269.75" y="657.17" width="126.28" height="122.97" transform="translate(2319.8 1386.7) rotate(180)"/><rect class="cls-18" x="1384.12" y="514.21" width="81.01" height="265.93" transform="translate(2503.26 1243.74) rotate(180)"/><rect class="cls-19" x="1456.79" y="625" width="67.9" height="155.14" transform="translate(2635.49 1354.53) rotate(180)"/><rect class="cls-20" x="510.73" y="629.44" width="107.91" height="150.71" transform="translate(783.37 1358.96) rotate(180)"/><rect class="cls-21" x="439.7" y="663.58" width="79.23" height="116.56" transform="translate(612.63 1393.11) rotate(180)"/><rect class="cls-22" x="565.36" y="426.86" width="13.55" height="36.48"/><rect class="cls-22" x="599.23" y="426.86" width="13.55" height="36.48"/><rect class="cls-22" x="565.36" y="496.18" width="13.55" height="36.48"/><rect class="cls-22" x="599.23" y="496.18" width="13.55" height="36.48"/><rect class="cls-22" x="565.36" y="565.49" width="13.55" height="36.48"/><rect class="cls-22" x="599.23" y="565.49" width="13.55" height="36.48"/><rect class="cls-22" x="565.36" y="634.81" width="13.55" height="36.48"/><rect class="cls-22" x="599.23" y="634.81" width="13.55" height="36.48"/><rect class="cls-22" x="656.04" y="538.91" width="13.55" height="36.48"/><rect class="cls-22" x="689.92" y="538.91" width="13.55" height="36.48"/><rect class="cls-22" x="656.04" y="608.23" width="13.55" height="36.48"/><rect class="cls-22" x="689.92" y="608.23" width="13.55" height="36.48"/><rect class="cls-22" x="771.75" y="573.31" width="13.55" height="36.48"/><rect class="cls-22" x="805.62" y="573.31" width="13.55" height="36.48"/><rect class="cls-22" x="771.75" y="642.63" width="13.55" height="36.48"/><rect class="cls-22" x="805.62" y="642.63" width="13.55" height="36.48"/><rect class="cls-22" x="856.18" y="533.7" width="13.55" height="36.48"/><rect class="cls-22" x="890.05" y="533.7" width="13.55" height="36.48"/><rect class="cls-22" x="856.18" y="603.02" width="13.55" height="36.48"/><rect class="cls-22" x="890.05" y="603.02" width="13.55" height="36.48"/><rect class="cls-22" x="1058.4" y="489.92" width="13.55" height="36.48"/><rect class="cls-22" x="1092.27" y="489.92" width="13.55" height="36.48"/><rect class="cls-22" x="1058.4" y="559.24" width="13.55" height="36.48"/><rect class="cls-22" x="1092.27" y="559.24" width="13.55" height="36.48"/><rect class="cls-22" x="425.68" y="520.15" width="13.55" height="36.48"/><rect class="cls-22" x="459.56" y="520.15" width="13.55" height="36.48"/><rect class="cls-22" x="425.68" y="589.47" width="13.55" height="36.48"/><rect class="cls-22" x="459.56" y="589.47" width="13.55" height="36.48"/><rect class="cls-22" x="278.71" y="488.88" width="13.55" height="36.48"/><rect class="cls-22" x="312.58" y="488.88" width="13.55" height="36.48"/><rect class="cls-22" x="278.71" y="558.2" width="13.55" height="36.48"/><rect class="cls-22" x="312.58" y="558.2" width="13.55" height="36.48"/><path class="cls-4" d="M694.53,338.66H507.28a20.58,20.58,0,0,1-20.58-20.59h0a20.58,20.58,0,0,1,20.58-20.59H694.53a20.59,20.59,0,0,1,20.59,20.59h0A20.59,20.59,0,0,1,694.53,338.66Z" transform="translate(-345.99 -50.61)"/><rect class="cls-4" x="202.17" y="198.07" width="145.15" height="41.17" rx="6.67"/><path class="cls-4" d="M1424.4,186H1237.15a20.57,20.57,0,0,1-20.58-20.58h0a20.58,20.58,0,0,1,20.58-20.59H1424.4A20.58,20.58,0,0,1,1445,165.44h0A20.57,20.57,0,0,1,1424.4,186Z" transform="translate(-345.99 -50.61)"/><path class="cls-4" d="M1294.35,140h-104a20.59,20.59,0,0,1-20.59-20.59h0a20.58,20.58,0,0,1,20.59-20.58h104a20.58,20.58,0,0,1,20.59,20.58h0A20.59,20.59,0,0,1,1294.35,140Z" transform="translate(-345.99 -50.61)"/><path class="cls-23" d="M1246.5,824.07h-82a9,9,0,0,0,0,18h82a9,9,0,0,0,0-18Z" transform="translate(-345.99 -50.61)"/><path class="cls-23" d="M1140.53,824.07h-14.09a9,9,0,0,0,0,18h14.09a9,9,0,0,0,0-18Z" transform="translate(-345.99 -50.61)"/><path class="cls-24" d="M1492.69,831.74H421.75a20.59,20.59,0,0,1-20.59-20.59h0a20.58,20.58,0,0,1,20.59-20.58H1492.69a20.58,20.58,0,0,1,20.59,20.58h0A20.59,20.59,0,0,1,1492.69,831.74Z" transform="translate(-345.99 -50.61)"/><path class="cls-25" d="M1599.91,863.84H529a20.59,20.59,0,0,1-20.59-20.59h0A20.59,20.59,0,0,1,529,822.66H1599.91a20.59,20.59,0,0,1,20.59,20.59h0A20.59,20.59,0,0,1,1599.91,863.84Z" transform="translate(-345.99 -50.61)"/><path class="cls-26" d="M1118.37,897H366.58A20.59,20.59,0,0,1,346,876.45h0a20.59,20.59,0,0,1,20.59-20.59h751.79A20.59,20.59,0,0,1,1139,876.45h0A20.59,20.59,0,0,1,1118.37,897Z" transform="translate(-345.99 -50.61)"/><path class="cls-27" d="M1343.26,927.68H744.9a20.59,20.59,0,0,1-20.59-20.59h0a20.58,20.58,0,0,1,20.59-20.58h598.36a20.58,20.58,0,0,1,20.59,20.58h0A20.59,20.59,0,0,1,1343.26,927.68Z" transform="translate(-345.99 -50.61)"/><path class="cls-28" d="M1125.25,963.14H938a20.58,20.58,0,0,1-20.58-20.59h0A20.58,20.58,0,0,1,938,922h187.25a20.59,20.59,0,0,1,20.59,20.59h0A20.59,20.59,0,0,1,1125.25,963.14Z" transform="translate(-345.99 -50.61)"/><path class="cls-29" d="M931.7,1016.09H744.46a20.59,20.59,0,0,1-20.59-20.59h0a20.59,20.59,0,0,1,20.59-20.59H931.7a20.59,20.59,0,0,1,20.59,20.59h0A20.59,20.59,0,0,1,931.7,1016.09Z" transform="translate(-345.99 -50.61)"/><path class="cls-30" d="M666.06,1016.09h-67.8a20.59,20.59,0,0,1-20.59-20.59h0a20.59,20.59,0,0,1,20.59-20.59h67.8a20.59,20.59,0,0,1,20.59,20.59h0A20.59,20.59,0,0,1,666.06,1016.09Z" transform="translate(-345.99 -50.61)"/><rect class="cls-31" x="1060.93" y="835.82" width="108.98" height="41.17" rx="6.67"/><path class="cls-32" d="M1307.84,1038H1120.6a20.59,20.59,0,0,1-20.59-20.59h0a20.58,20.58,0,0,1,20.59-20.58h187.24a20.58,20.58,0,0,1,20.59,20.58h0A20.59,20.59,0,0,1,1307.84,1038Z" transform="translate(-345.99 -50.61)"/><path class="cls-33" d="M1492.63,790.57H421.69a20.57,20.57,0,0,0-20.36,17.72H1513A20.58,20.58,0,0,0,1492.63,790.57Z" transform="translate(-345.99 -50.61)"/><path class="cls-34" d="M641,857.5H559a9,9,0,0,0,0,18h82a9,9,0,0,0,0-18Z" transform="translate(-345.99 -50.61)"/><path class="cls-34" d="M688.91,843H634.14a9,9,0,1,0,0,18h54.77a9,9,0,0,0,0-18Z" transform="translate(-345.99 -50.61)"/><path class="cls-34" d="M851.52,865h-82a9,9,0,0,0,0,18h82a9,9,0,0,0,0-18Z" transform="translate(-345.99 -50.61)"/><path class="cls-34" d="M1108.17,895.13h-66.84a9,9,0,0,0,0,18h66.84a9,9,0,0,0,0-18Z" transform="translate(-345.99 -50.61)"/><path class="cls-34" d="M1059,880.65H977a9,9,0,1,0,0,18h82a9,9,0,0,0,0-18Z" transform="translate(-345.99 -50.61)"/><path class="cls-34" d="M904,865H876.47a9,9,0,0,0,0,18H904a9,9,0,0,0,0-18Z" transform="translate(-345.99 -50.61)"/><path class="cls-34" d="M1181.23,838.92h82a9,9,0,0,1,0,18h-82a9,9,0,1,1,0-18Z" transform="translate(-345.99 -50.61)"/><path class="cls-34" d="M1128.73,838.92h27.54a9,9,0,0,1,0,18h-27.54a9,9,0,1,1,0-18Z" transform="translate(-345.99 -50.61)"/><path class="cls-34" d="M815.5,827.1h27.55a9,9,0,1,1,0,18H815.5a9,9,0,0,1,0-18Z" transform="translate(-345.99 -50.61)"/><rect class="cls-35" x="563.93" y="607.18" width="1.3" height="5.87"/><rect class="cls-35" x="582.56" y="607.18" width="1.3" height="5.87"/><rect class="cls-3" x="554.58" y="575.75" width="39.93" height="31.64" rx="0.4"/><rect class="cls-36" x="555.94" y="577.81" width="37.21" height="27.51"/><rect class="cls-37" x="556.58" y="578.45" width="5.98" height="13.05"/><rect class="cls-38" x="562.56" y="578.45" width="5.98" height="13.05"/><rect class="cls-37" x="568.54" y="578.45" width="5.98" height="13.05"/><rect class="cls-38" x="574.52" y="578.45" width="5.98" height="13.05"/><rect class="cls-38" x="556.58" y="591.5" width="5.98" height="13.05"/><rect class="cls-37" x="562.56" y="591.5" width="5.98" height="13.05"/><rect class="cls-38" x="568.54" y="591.5" width="5.98" height="13.05"/><rect class="cls-37" x="574.52" y="591.5" width="5.98" height="13.05"/><rect class="cls-37" x="580.5" y="578.45" width="5.98" height="13.05"/><rect class="cls-38" x="586.48" y="578.45" width="5.98" height="13.05"/><rect class="cls-38" x="580.5" y="591.5" width="5.98" height="13.05"/><rect class="cls-37" x="586.48" y="591.5" width="5.98" height="13.05"/><rect class="cls-35" x="616.88" y="563.66" width="1.07" height="4.83"/><rect class="cls-35" x="632.22" y="563.66" width="1.07" height="4.83"/><rect class="cls-3" x="609.19" y="537.79" width="32.87" height="26.05" rx="0.4"/><rect class="cls-36" x="610.31" y="539.49" width="30.63" height="22.65"/><rect class="cls-37" x="610.84" y="540.02" width="4.92" height="10.74"/><rect class="cls-38" x="615.76" y="540.02" width="4.92" height="10.74"/><rect class="cls-37" x="620.68" y="540.02" width="4.92" height="10.74"/><rect class="cls-38" x="625.61" y="540.02" width="4.92" height="10.74"/><rect class="cls-38" x="610.84" y="550.76" width="4.92" height="10.74"/><rect class="cls-37" x="615.76" y="550.76" width="4.92" height="10.74"/><rect class="cls-38" x="620.68" y="550.76" width="4.92" height="10.74"/><rect class="cls-37" x="625.61" y="550.76" width="4.92" height="10.74"/><rect class="cls-37" x="630.53" y="540.02" width="4.92" height="10.74"/><rect class="cls-38" x="635.45" y="540.02" width="4.92" height="10.74"/><rect class="cls-38" x="630.53" y="550.76" width="4.92" height="10.74"/><rect class="cls-37" x="635.45" y="550.76" width="4.92" height="10.74"/><rect class="cls-35" x="231.88" y="552.34" width="1.07" height="4.83"/><rect class="cls-35" x="247.21" y="552.34" width="1.07" height="4.83"/><rect class="cls-3" x="224.18" y="526.46" width="32.87" height="26.05" rx="0.4"/><rect class="cls-36" x="225.31" y="528.16" width="30.63" height="22.65"/><rect class="cls-37" x="225.83" y="528.69" width="4.92" height="10.74"/><rect class="cls-38" x="230.75" y="528.69" width="4.92" height="10.74"/><rect class="cls-37" x="235.68" y="528.69" width="4.92" height="10.74"/><rect class="cls-38" x="240.6" y="528.69" width="4.92" height="10.74"/><rect class="cls-38" x="225.83" y="539.43" width="4.92" height="10.74"/><rect class="cls-37" x="230.75" y="539.43" width="4.92" height="10.74"/><rect class="cls-38" x="235.68" y="539.43" width="4.92" height="10.74"/><rect class="cls-37" x="240.6" y="539.43" width="4.92" height="10.74"/><rect class="cls-37" x="245.52" y="528.69" width="4.92" height="10.74"/><rect class="cls-38" x="250.44" y="528.69" width="4.92" height="10.74"/><rect class="cls-38" x="245.52" y="539.43" width="4.92" height="10.74"/><rect class="cls-37" x="250.44" y="539.43" width="4.92" height="10.74"/><rect class="cls-35" x="657.91" y="563.66" width="1.07" height="4.83"/><rect class="cls-35" x="673.25" y="563.66" width="1.07" height="4.83"/><rect class="cls-3" x="650.21" y="537.79" width="32.87" height="26.05" rx="0.4"/><rect class="cls-36" x="651.34" y="539.49" width="30.63" height="22.65"/><rect class="cls-37" x="651.86" y="540.02" width="4.92" height="10.74"/><rect class="cls-38" x="656.79" y="540.02" width="4.92" height="10.74"/><rect class="cls-37" x="661.71" y="540.02" width="4.92" height="10.74"/><rect class="cls-38" x="666.63" y="540.02" width="4.92" height="10.74"/><rect class="cls-38" x="651.86" y="550.76" width="4.92" height="10.74"/><rect class="cls-37" x="656.79" y="550.76" width="4.92" height="10.74"/><rect class="cls-38" x="661.71" y="550.76" width="4.92" height="10.74"/><rect class="cls-37" x="666.63" y="550.76" width="4.92" height="10.74"/><rect class="cls-37" x="671.55" y="540.02" width="4.92" height="10.74"/><rect class="cls-38" x="676.48" y="540.02" width="4.92" height="10.74"/><rect class="cls-38" x="671.55" y="550.76" width="4.92" height="10.74"/><rect class="cls-37" x="676.48" y="550.76" width="4.92" height="10.74"/><polygon class="cls-39" points="711.33 597.5 755.9 557.92 800.47 597.5 800.47 695.92 711.33 695.92 711.33 597.5"/><polygon class="cls-40" points="755.9 557.92 711.33 597.5 711.33 604.73 755.9 565.15 800.47 604.73 800.47 597.5 755.9 557.92"/><polygon class="cls-41" points="755.9 557.92 705.27 602.73 705.27 598.09 755.9 553.29 755.9 557.92"/><polygon class="cls-41" points="755.9 557.92 806.53 602.89 806.53 598.26 755.9 553.29 755.9 557.92"/><rect class="cls-42" x="721.45" y="599.57" width="18.36" height="21.19"/><rect class="cls-42" x="745.89" y="599.57" width="18.36" height="21.19"/><rect class="cls-42" x="721.45" y="644.93" width="18.36" height="21.19"/><rect class="cls-42" x="745.89" y="644.93" width="18.36" height="21.19"/><rect class="cls-42" x="775.33" y="650.82" width="18.36" height="45.05"/><rect class="cls-42" x="770.33" y="599.57" width="18.36" height="21.19"/><rect class="cls-43" x="722.65" y="601" width="15.95" height="18.93"/><rect class="cls-41" x="721.42" y="618.12" width="18.42" height="3.01"/><rect class="cls-44" x="747.12" y="601" width="15.95" height="18.93"/><rect class="cls-45" x="771.59" y="601" width="15.95" height="18.93"/><rect class="cls-41" x="776.49" y="651.86" width="15.95" height="44.14"/><rect class="cls-41" x="745.86" y="618.12" width="18.42" height="3.01"/><rect class="cls-46" x="722.65" y="646.57" width="15.95" height="18.93"/><rect class="cls-41" x="721.42" y="663.69" width="18.42" height="3.01"/><rect class="cls-47" x="747.12" y="646.57" width="15.95" height="18.93"/><rect class="cls-41" x="745.86" y="663.69" width="18.42" height="3.01"/><rect class="cls-41" x="770.31" y="618.12" width="18.42" height="3.01"/><path class="cls-48" d="M1041.54,666c-17,17-19.21,36.21-17.32,45.64,2,10,13.66,17,25.65,16.32,10.64-.59,22.65-6,21.65-23.32s-10-32.64-16-38.64C1049.83,660.33,1046.87,660.7,1041.54,666Z" transform="translate(-345.99 -50.61)"/><path class="cls-49" d="M1037,671c-12.91,15.67-14.51,32.15-12.81,40.67,2,10,13.66,17,25.65,16.32,9.8-.54,20.75-5.18,21.65-19.43C1049.48,731,1025.33,706.12,1037,671Z" transform="translate(-345.99 -50.61)"/><polygon class="cls-50" points="701.99 648.93 700.26 697.05 703.09 697.05 701.99 648.93"/><polygon class="cls-50" points="692.71 662.46 701.52 674.88 701.83 672.05 692.71 662.46"/><polygon class="cls-50" points="701.83 665.49 701.83 667.65 710.79 660.57 701.83 665.49"/><rect class="cls-51" x="549.5" y="611.7" width="59.91" height="95.42"/><rect class="cls-52" x="549.5" y="611.7" width="59.91" height="6.01"/><rect class="cls-52" x="549.5" y="656.98" width="59.91" height="6.01"/><rect class="cls-52" x="559.49" y="623.86" width="14.51" height="26.48"/><rect class="cls-52" x="585.58" y="623.86" width="14.51" height="26.48"/><rect class="cls-52" x="559.49" y="664.52" width="14.51" height="26.48"/><rect class="cls-52" x="585.58" y="664.52" width="14.51" height="26.48"/><rect class="cls-53" x="560.28" y="624.63" width="12.93" height="24.94"/><rect class="cls-54" x="586.38" y="624.63" width="12.93" height="24.94"/><rect class="cls-55" x="560.28" y="665.34" width="12.93" height="24.94"/><rect class="cls-56" x="586.38" y="665.34" width="12.93" height="24.94"/><rect class="cls-57" x="547.78" y="611.7" width="63.36" height="3.11"/><rect class="cls-57" x="547.78" y="655.28" width="63.36" height="3.11"/><rect class="cls-58" x="606.13" y="567.91" width="84.24" height="134.17"/><rect class="cls-52" x="606.13" y="567.91" width="84.24" height="8.45"/><rect class="cls-52" x="606.13" y="631.57" width="84.24" height="8.45"/><rect class="cls-52" x="620.16" y="585.01" width="20.4" height="37.23"/><rect class="cls-52" x="656.85" y="585.01" width="20.4" height="37.23"/><rect class="cls-52" x="620.16" y="642.18" width="20.4" height="37.23"/><rect class="cls-52" x="656.85" y="642.18" width="20.4" height="37.23"/><rect class="cls-59" x="621.28" y="586.09" width="18.18" height="35.07"/><rect class="cls-60" x="657.97" y="586.09" width="18.18" height="35.07"/><rect class="cls-61" x="621.28" y="643.33" width="18.18" height="35.07"/><rect class="cls-62" x="657.97" y="643.33" width="18.18" height="35.07"/><rect class="cls-57" x="603.7" y="567.91" width="89.09" height="4.38"/><rect class="cls-57" x="603.7" y="629.19" width="89.09" height="4.38"/><rect class="cls-63" x="1039.93" y="561.89" width="84.25" height="134.17"/><rect class="cls-52" x="1039.93" y="561.89" width="84.25" height="8.45"/><rect class="cls-52" x="1039.93" y="625.55" width="84.25" height="8.45"/><rect class="cls-52" x="1053.97" y="578.99" width="20.4" height="37.23"/><rect class="cls-52" x="1090.66" y="578.99" width="20.4" height="37.23"/><rect class="cls-52" x="1053.97" y="636.16" width="20.4" height="37.23"/><rect class="cls-52" x="1090.66" y="636.16" width="20.4" height="37.23"/><rect class="cls-64" x="1055.08" y="580.07" width="18.18" height="35.07"/><rect class="cls-65" x="1091.78" y="580.07" width="18.18" height="35.07"/><rect class="cls-66" x="1055.08" y="637.3" width="18.18" height="35.07"/><rect class="cls-67" x="1091.78" y="637.3" width="18.18" height="35.07"/><rect class="cls-57" x="1037.51" y="561.89" width="89.09" height="4.38"/><rect class="cls-57" x="1037.51" y="623.16" width="89.09" height="4.38"/><rect class="cls-68" x="181.04" y="555.33" width="84.25" height="134.17"/><rect class="cls-52" x="181.04" y="555.33" width="84.25" height="8.45"/><rect class="cls-52" x="181.04" y="618.99" width="84.25" height="8.45"/><rect class="cls-52" x="195.08" y="572.43" width="20.4" height="37.23"/><rect class="cls-52" x="231.77" y="572.43" width="20.4" height="37.23"/><rect class="cls-52" x="195.08" y="629.6" width="20.4" height="37.23"/><rect class="cls-52" x="231.77" y="629.6" width="20.4" height="37.23"/><rect class="cls-69" x="196.19" y="573.51" width="18.18" height="35.07"/><rect class="cls-70" x="232.89" y="573.51" width="18.18" height="35.07"/><rect class="cls-71" x="196.19" y="630.75" width="18.18" height="35.07"/><rect class="cls-72" x="232.89" y="630.75" width="18.18" height="35.07"/><rect class="cls-57" x="178.62" y="555.33" width="89.09" height="4.38"/><rect class="cls-57" x="178.62" y="616.61" width="89.09" height="4.38"/><path class="cls-73" d="M1560.62,796.78H382.39a9,9,0,0,1-9-9h0a9,9,0,0,1,9-9H1560.62a9,9,0,0,1,9,9h0A9,9,0,0,1,1560.62,796.78Z" transform="translate(-345.99 -50.61)"/><path class="cls-74" d="M970,778.79H384.51c43.83-22.85,142.73-54.73,292.76-54.73S931.68,752.62,970,778.79Z" transform="translate(-345.99 -50.61)"/><path class="cls-74" d="M1554.71,778.79H969.19c43.83-22.85,142.73-54.73,292.76-54.73S1516.36,752.62,1554.71,778.79Z" transform="translate(-345.99 -50.61)"/><path class="cls-75" d="M1217.66,778.79H846c27.82-14.51,90.61-34.74,185.86-34.74S1193.32,762.17,1217.66,778.79Z" transform="translate(-345.99 -50.61)"/><path class="cls-3" d="M668.08,571a8.51,8.51,0,1,1-8.5-8.51A8.5,8.5,0,0,1,668.08,571Z" transform="translate(-345.99 -50.61)"/><path class="cls-3" d="M665.35,537.08a61.5,61.5,0,0,1-5.77,25.23,58,58,0,0,1,0-50.46A61.56,61.56,0,0,1,665.35,537.08Z" transform="translate(-345.99 -50.61)"/><path class="cls-3" d="M641.81,600.64a61.6,61.6,0,0,1-21,15.13,58,58,0,0,1,33.34-37.87A61.49,61.49,0,0,1,641.81,600.64Z" transform="translate(-345.99 -50.61)"/><path class="cls-3" d="M691.13,585.18a61.6,61.6,0,0,1-22.64-12.54,58,58,0,0,1,48.47,14A61.55,61.55,0,0,1,691.13,585.18Z" transform="translate(-345.99 -50.61)"/><path class="cls-3" d="M655.54,727.68s-.38,1,5.64,1,5.9-1,5.9-1l-6.92-151.91Z" transform="translate(-345.99 -50.61)"/><path class="cls-3" d="M1344.43,530.48a10.69,10.69,0,1,1-10.69-10.7A10.7,10.7,0,0,1,1344.43,530.48Z" transform="translate(-345.99 -50.61)"/><path class="cls-3" d="M1341,487.83a77.39,77.39,0,0,1-7.25,31.72,73,73,0,0,1,0-63.43A77.37,77.37,0,0,1,1341,487.83Z" transform="translate(-345.99 -50.61)"/><path class="cls-3" d="M1311.4,567.73a77.4,77.4,0,0,1-26.4,19,73,73,0,0,1,41.92-47.61A77.35,77.35,0,0,1,1311.4,567.73Z" transform="translate(-345.99 -50.61)"/><path class="cls-3" d="M1373.39,548.3a77.45,77.45,0,0,1-28.45-15.78,73,73,0,0,1,60.93,17.62A77.42,77.42,0,0,1,1373.39,548.3Z" transform="translate(-345.99 -50.61)"/><path class="cls-3" d="M1328.66,727.42s-.48,1.26,7.09,1.26,7.42-1.26,7.42-1.26l-8.71-191Z" transform="translate(-345.99 -50.61)"/><path class="cls-3" d="M703.42,637a4.93,4.93,0,1,1-4.93-4.93A4.93,4.93,0,0,1,703.42,637Z" transform="translate(-345.99 -50.61)"/><path class="cls-3" d="M701.83,617.35a35.62,35.62,0,0,1-3.34,14.6,33.69,33.69,0,0,1,0-29.21A35.64,35.64,0,0,1,701.83,617.35Z" transform="translate(-345.99 -50.61)"/><path class="cls-3" d="M688.21,654.14a35.58,35.58,0,0,1-12.16,8.76A33.6,33.6,0,0,1,695.35,641,35.54,35.54,0,0,1,688.21,654.14Z" transform="translate(-345.99 -50.61)"/><path class="cls-3" d="M716.76,645.19a35.7,35.7,0,0,1-13.11-7.26A33.62,33.62,0,0,1,731.71,646,35.61,35.61,0,0,1,716.76,645.19Z" transform="translate(-345.99 -50.61)"/><path class="cls-3" d="M696.15,727.69s-.22.58,3.27.58,3.42-.58,3.42-.58l-4-88Z" transform="translate(-345.99 -50.61)"/><path class="cls-3" d="M1376.92,631a5.76,5.76,0,1,1-5.76-5.76A5.76,5.76,0,0,1,1376.92,631Z" transform="translate(-345.99 -50.61)"/><path class="cls-3" d="M1375.07,608.06a41.57,41.57,0,0,1-3.91,17.07,39.33,39.33,0,0,1,0-34.15A41.64,41.64,0,0,1,1375.07,608.06Z" transform="translate(-345.99 -50.61)"/><path class="cls-3" d="M1359.14,651.08a41.63,41.63,0,0,1-14.22,10.23,39.36,39.36,0,0,1,22.57-25.63A41.66,41.66,0,0,1,1359.14,651.08Z" transform="translate(-345.99 -50.61)"/><path class="cls-3" d="M1392.52,640.61a41.69,41.69,0,0,1-15.32-8.49,39.25,39.25,0,0,1,32.8,9.49A41.68,41.68,0,0,1,1392.52,640.61Z" transform="translate(-345.99 -50.61)"/><path class="cls-3" d="M1368.43,737.06s-.26.68,3.82.68,4-.68,4-.68l-4.69-102.82Z" transform="translate(-345.99 -50.61)"/><path class="cls-76" d="M520.85,478.86c-25.39,67.7-28.61,143.86-25.8,181.31,3,39.71,20.34,67.5,38.21,64.85,15.86-2.35,33.75-23.82,32.26-92.64s-14.89-129.7-23.82-153.52C533.2,456.21,528.79,457.69,520.85,478.86Z" transform="translate(-345.99 -50.61)"/><path class="cls-49" d="M514.13,498.59c-19.23,62.27-21.62,127.73-19.08,161.58,3,39.71,20.34,67.5,38.21,64.85,14.6-2.16,30.92-20.57,32.25-77.21C532.68,736.91,496.7,638.13,514.13,498.59Z" transform="translate(-345.99 -50.61)"/><polygon class="cls-50" points="184.89 596.85 180.17 728.16 187.9 728.16 184.89 596.85"/><polygon class="cls-50" points="171.3 648.63 183.61 667.65 184.47 659.93 171.3 648.63"/><polygon class="cls-50" points="184.47 642.03 184.47 647.91 198.42 630.06 184.47 642.03"/><path class="cls-77" d="M1456.08,478.86c-25.39,67.7-28.62,143.86-25.81,181.31,3,39.71,20.35,67.5,38.21,64.85,15.86-2.35,33.75-23.82,32.26-92.64s-14.89-129.7-23.82-153.52C1468.42,456.21,1464,457.69,1456.08,478.86Z" transform="translate(-345.99 -50.61)"/><path class="cls-49" d="M1449.35,498.59c-19.22,62.27-21.62,127.73-19.08,161.58,3,39.71,20.35,67.5,38.21,64.85,14.6-2.16,30.92-20.57,32.25-77.21C1467.91,736.91,1431.93,638.13,1449.35,498.59Z" transform="translate(-345.99 -50.61)"/><polygon class="cls-50" points="1120.12 596.85 1115.4 728.16 1123.12 728.16 1120.12 596.85"/><polygon class="cls-50" points="1106.52 648.63 1118.83 667.65 1119.69 659.93 1106.52 648.63"/><polygon class="cls-50" points="1119.69 642.03 1119.69 647.91 1133.64 630.06 1119.69 642.03"/><path class="cls-78" d="M801.21,640.92c-11.12,29.65-12.53,63-11.3,79.41,1.3,17.39,8.91,29.56,16.74,28.4,6.94-1,14.78-10.43,14.12-40.57s-6.52-56.81-10.43-67.24C806.62,631,804.69,631.64,801.21,640.92Z" transform="translate(-345.99 -50.61)"/><path class="cls-49" d="M798.27,649.56c-8.42,27.27-9.47,55.94-8.36,70.77,1.3,17.39,8.91,29.56,16.74,28.4,6.39-.94,13.54-9,14.12-33.82C806.39,753.94,790.63,710.68,798.27,649.56Z" transform="translate(-345.99 -50.61)"/><polygon class="cls-50" points="459.62 664.15 457.55 721.66 460.93 721.66 459.62 664.15"/><polygon class="cls-50" points="453.66 686.83 459.05 695.16 459.43 691.78 453.66 686.83"/><polygon class="cls-50" points="459.43 683.94 459.43 686.51 465.54 678.7 459.43 683.94"/><path class="cls-79" d="M757.78,556.1c-17.42,46.48-19.64,98.76-17.71,124.47,2,27.26,14,46.34,26.23,44.52,10.89-1.61,23.17-16.36,22.15-63.6s-10.22-89-16.36-105.39C766.26,540.55,763.24,541.56,757.78,556.1Z" transform="translate(-345.99 -50.61)"/><path class="cls-49" d="M753.17,569.64c-13.2,42.75-14.84,87.69-13.1,110.93,2,27.26,14,46.34,26.23,44.52,10-1.49,21.23-14.13,22.14-53C765.91,733.25,741.21,665.44,753.17,569.64Z" transform="translate(-345.99 -50.61)"/><polygon class="cls-50" points="418.68 621.23 415.44 711.37 420.74 711.37 418.68 621.23"/><polygon class="cls-50" points="409.35 656.78 417.8 669.84 418.39 664.53 409.35 656.78"/><polygon class="cls-50" points="418.39 652.24 418.39 656.28 427.96 644.03 418.39 652.24"/><path class="cls-80" d="M420.76,556c-46.5,46.5-52.41,98.81-47.27,124.53,5.46,27.28,37.27,46.36,70,44.55,29-1.62,61.81-16.37,59.09-63.64S475.3,572.36,458.94,556C443.38,540.44,435.31,541.45,420.76,556Z" transform="translate(-345.99 -50.61)"/><path class="cls-49" d="M408.45,569.55c-35.22,42.77-39.61,87.73-35,111,5.45,27.28,37.27,46.36,70,44.55,26.74-1.49,56.63-14.14,59.06-53C442.43,733.24,376.53,665.39,408.45,569.55Z" transform="translate(-345.99 -50.61)"/><polygon class="cls-50" points="92.33 596.85 87.61 728.16 95.34 728.16 92.33 596.85"/><polygon class="cls-50" points="67.02 633.75 91.05 667.65 91.9 659.93 67.02 633.75"/><polygon class="cls-50" points="91.9 642.03 91.9 647.91 116.36 628.6 91.9 642.03"/><path class="cls-81" d="M1198.57,556c-46.5,46.5-52.41,98.81-47.27,124.53,5.46,27.28,37.27,46.36,70,44.55,29-1.62,61.81-16.37,59.08-63.64s-27.27-89.08-43.63-105.44C1221.19,540.44,1213.12,541.45,1198.57,556Z" transform="translate(-345.99 -50.61)"/><path class="cls-49" d="M1186.26,569.55c-35.22,42.77-39.61,87.73-35,111,5.45,27.28,37.27,46.36,70,44.55,26.74-1.49,56.62-14.14,59.06-53C1220.24,733.24,1154.34,665.39,1186.26,569.55Z" transform="translate(-345.99 -50.61)"/><polygon class="cls-50" points="870.14 596.85 865.42 728.16 873.15 728.16 870.14 596.85"/><polygon class="cls-50" points="844.83 633.75 868.86 667.65 869.71 659.93 844.83 633.75"/><polygon class="cls-50" points="869.71 642.03 869.71 647.91 894.17 628.6 869.71 642.03"/><path class="cls-82" d="M475.87,663.56c-28.56,28.56-32.19,60.69-29,76.49,3.35,16.75,22.89,28.48,43,27.36,17.84-1,38-10,36.29-39.08s-16.75-54.72-26.8-64.77C489.76,654,484.8,654.62,475.87,663.56Z" transform="translate(-345.99 -50.61)"/><path class="cls-83" d="M468.31,671.88c-21.63,26.27-24.33,53.89-21.47,68.17,3.35,16.75,22.89,28.48,43,27.36,16.43-.91,34.78-8.68,36.28-32.57C489.18,772.42,448.7,730.75,468.31,671.88Z" transform="translate(-345.99 -50.61)"/><polygon class="cls-50" points="140.67 669.13 137.77 728.16 142.51 728.16 140.67 669.13"/><polygon class="cls-50" points="125.12 691.79 139.88 712.61 140.4 707.87 125.12 691.79"/><polygon class="cls-50" points="140.4 696.87 140.4 700.49 155.43 688.63 140.4 696.87"/><path class="cls-84" d="M1269.93,663.56c-28.56,28.56-32.19,60.69-29,76.49,3.35,16.75,22.89,28.48,43,27.36,17.84-1,38-10,36.29-39.08s-16.75-54.72-26.8-64.77C1283.82,654,1278.87,654.62,1269.93,663.56Z" transform="translate(-345.99 -50.61)"/><path class="cls-83" d="M1262.37,671.88c-21.63,26.27-24.33,53.89-21.47,68.17,3.35,16.75,22.89,28.48,43,27.36,16.43-.91,34.78-8.68,36.28-32.57C1283.24,772.42,1242.76,730.75,1262.37,671.88Z" transform="translate(-345.99 -50.61)"/><polygon class="cls-50" points="934.73 669.13 931.83 728.16 936.57 728.16 934.73 669.13"/><polygon class="cls-50" points="919.18 691.79 933.94 712.61 934.47 707.87 919.18 691.79"/><polygon class="cls-50" points="934.47 696.87 934.47 700.49 949.49 688.63 934.47 696.87"/><path class="cls-85" d="M773.77,707.82c-17.59,17.59-19.83,37.38-17.88,47.11,2.06,10.31,14.09,17.53,26.47,16.85,11-.62,23.38-6.19,22.35-24.07s-10.31-33.7-16.5-39.89C782.32,701.94,779.27,702.32,773.77,707.82Z" transform="translate(-345.99 -50.61)"/><path class="cls-83" d="M769.11,713c-13.32,16.18-15,33.18-13.22,42,2.06,10.31,14.09,17.53,26.47,16.85,10.12-.57,21.42-5.35,22.34-20.06C782,774.86,757,749.2,769.11,713Z" transform="translate(-345.99 -50.61)"/><polygon class="cls-50" points="434.42 691.81 432.63 728.16 435.56 728.16 434.42 691.81"/><polygon class="cls-50" points="424.84 705.76 433.93 718.59 434.26 715.66 424.84 705.76"/><polygon class="cls-50" points="434.26 708.89 434.26 711.12 443.51 703.82 434.26 708.89"/></svg>