<?xml version="1.0"?>
<svg xmlns="http://www.w3.org/2000/svg" viewBox="0 0 64 64" width="512" height="512"><g id="Flat"><path d="M7,19H57a2,2,0,0,1,2,2V57a0,0,0,0,1,0,0H5a0,0,0,0,1,0,0V21A2,2,0,0,1,7,19Z" style="fill:#a7d6dd"/><rect x="9" y="23" width="46" height="30" style="fill:#e6e6e6"/><path d="M3,57H61v2a2,2,0,0,1-2,2H5a2,2,0,0,1-2-2Z" style="fill:#6cbbc7"/><polygon points="32 38 26 45 29 45 29 49 35 49 35 45 38 45 32 38" style="fill:#ff6536"/><circle cx="32" cy="18" r="15" style="fill:#fdb62f"/><path d="M46.626,21.291c.008-.036.02-.07.028-.106.1-.442.166-.894.223-1.35.009-.079.027-.155.035-.234A14.853,14.853,0,0,0,47,18a15.075,15.075,0,0,0-.1-1.683c-.019-.166-.051-.328-.075-.493-.057-.389-.122-.776-.209-1.154-.039-.174-.087-.345-.132-.516-.1-.373-.21-.741-.337-1.1-.051-.148-.1-.295-.161-.44q-.232-.6-.515-1.179c-.045-.09-.086-.182-.131-.272a15.132,15.132,0,0,0-4.256-5.078h0L40.01,6.85a4.094,4.094,0,0,0-1.175,5.362l.614,1.074a4.092,4.092,0,0,1-.66,4.925,4.094,4.094,0,0,0,.864,6.448l.445.254a4.093,4.093,0,0,0,3.861.107l1.7-.851h0A15.067,15.067,0,0,0,46.626,21.291Z" style="fill:#02998a"/><path d="M32.284,25.9A7.214,7.214,0,0,1,28,19.312a7.211,7.211,0,0,0-1.344-4.193l-.471-.66a7.2,7.2,0,0,0-7.8-2.733h0a15.36,15.36,0,0,0-.583,1.457l-.007.02a14.778,14.778,0,0,0-.4,1.428c-.011.047-.026.092-.036.139-.1.441-.169.894-.228,1.35-.011.087-.03.171-.039.259A14.7,14.7,0,0,0,17,18,15,15,0,0,0,32,33c.483,0,.959-.028,1.431-.072.321-.032.637-.083.952-.135.13-.021.261-.035.389-.059q.612-.119,1.207-.285l.067-.017q.633-.178,1.243-.41A8.785,8.785,0,0,0,32.284,25.9Z" style="fill:#02998a"/></g></svg>
