<svg xmlns="http://www.w3.org/2000/svg" xmlns:xlink="http://www.w3.org/1999/xlink" viewBox="0 0 995.35 682.77"><defs><style>.cls-1{isolation:isolate;}.cls-2{opacity:0.2;}.cls-3{opacity:0;}.cls-4{opacity:0.09;}.cls-5{opacity:0.18;}.cls-6{opacity:0.27;}.cls-7{opacity:0.36;}.cls-8{opacity:0.45;}.cls-9{opacity:0.55;}.cls-10{opacity:0.64;}.cls-11{opacity:0.73;}.cls-12{opacity:0.82;}.cls-13{opacity:0.91;}.cls-14{fill:url(#linear-gradient);}.cls-15{fill:url(#linear-gradient-2);}.cls-16{fill:url(#linear-gradient-3);}.cls-17{fill:url(#linear-gradient-4);}.cls-18{fill:url(#linear-gradient-5);}.cls-19{fill:url(#linear-gradient-6);}.cls-20{fill:url(#linear-gradient-7);}.cls-21{fill:url(#linear-gradient-8);}.cls-22{fill:url(#linear-gradient-9);}.cls-23{fill:url(#linear-gradient-10);}.cls-24{fill:url(#linear-gradient-11);}.cls-25{fill:url(#linear-gradient-12);}.cls-26{fill:url(#linear-gradient-13);}.cls-27{fill:url(#linear-gradient-14);}.cls-28{fill:url(#linear-gradient-15);}.cls-29{fill:url(#linear-gradient-16);}.cls-30{fill:url(#linear-gradient-17);}.cls-31{fill:url(#linear-gradient-18);}.cls-32{fill:url(#linear-gradient-19);}.cls-33{fill:url(#linear-gradient-20);}.cls-34{fill:url(#linear-gradient-21);}.cls-35{fill:url(#linear-gradient-22);}.cls-36{fill:url(#linear-gradient-23);}.cls-37{fill:url(#linear-gradient-24);}.cls-38{fill:url(#linear-gradient-25);}.cls-39{fill:url(#linear-gradient-26);}.cls-40{fill:url(#linear-gradient-27);}.cls-41{fill:url(#linear-gradient-28);}.cls-42{fill:url(#linear-gradient-29);}.cls-43{fill:url(#linear-gradient-30);}.cls-44{fill:url(#linear-gradient-31);}.cls-45{fill:url(#linear-gradient-32);}.cls-46{fill:url(#linear-gradient-33);}.cls-47{fill:url(#linear-gradient-34);}.cls-48{fill:url(#linear-gradient-35);}.cls-49{fill:url(#linear-gradient-36);}.cls-50{fill:url(#linear-gradient-37);}.cls-51{fill:url(#linear-gradient-38);}.cls-52{fill:url(#linear-gradient-39);}.cls-53{fill:url(#linear-gradient-40);}.cls-54{fill:url(#linear-gradient-41);}.cls-55{fill:url(#linear-gradient-42);}.cls-56{fill:url(#linear-gradient-43);}.cls-57{fill:#cba6e3;}.cls-58{fill:#cca7e3;}.cls-59{fill:#cca8e4;}.cls-60{fill:#cda9e4;}.cls-61{fill:#cdaae4;}.cls-62{fill:#ceabe4;}.cls-63{fill:#ceace5;}.cls-64{fill:#cfade5;}.cls-65{fill:#cfaee5;}.cls-66{fill:#d0afe6;}.cls-67{fill:#d1b0e6;}.cls-68{fill:#d1b1e6;}.cls-69{fill:#d2b2e6;}.cls-70{fill:#d2b3e7;}.cls-71{fill:#d3b4e7;}.cls-72{fill:#d3b5e7;}.cls-73{fill:#d4b6e7;}.cls-74{fill:#d5b7e8;}.cls-75{fill:#d5b8e8;}.cls-76{fill:#d6b9e8;}.cls-77{fill:#d6bae9;}.cls-78{fill:#d7bbe9;}.cls-79{fill:#d7bce9;}.cls-80{fill:#d8bde9;}.cls-81{fill:#d8beea;}.cls-82{fill:#d9bfea;}.cls-83{fill:#dac0ea;}.cls-84{fill:#dac1eb;}.cls-85{fill:#dbc2eb;}.cls-86{fill:#dcc3eb;}.cls-87{fill:#dcc4ec;}.cls-88{fill:#ddc5ec;}.cls-89{fill:#dec6ec;}.cls-90{fill:#dec7ed;}.cls-91{fill:#dfc8ed;}.cls-92{fill:#dfc9ed;}.cls-93{fill:#e0caed;}.cls-94{fill:#e0cbee;}.cls-95{fill:#e1ccee;}.cls-96{fill:#e1cdee;}.cls-97{fill:#e2ceef;}.cls-98{fill:#e3cfef;}.cls-99{fill:#e3d0ef;}.cls-100{fill:#e4d1ef;}.cls-101{fill:#e4d2f0;}.cls-102{fill:#e5d3f0;}.cls-103{fill:#e5d4f0;}.cls-104{fill:#e6d5f0;}.cls-105{fill:#e7d6f1;}.cls-106{fill:#e7d7f1;}.cls-107{fill:#e8d8f1;}.cls-108{fill:#e8d9f2;}.cls-109{fill:#e9daf2;}.cls-110{fill:#e9dbf2;}.cls-111{fill:#eadcf2;}.cls-112{fill:#eaddf3;}.cls-113,.cls-142,.cls-143,.cls-156{fill:#ebdef3;}.cls-114{fill:url(#linear-gradient-44);}.cls-115{fill:url(#linear-gradient-45);}.cls-116{fill:url(#linear-gradient-46);}.cls-117{fill:url(#linear-gradient-47);}.cls-118,.cls-120,.cls-121,.cls-151,.cls-155{mix-blend-mode:multiply;}.cls-118{fill:url(#linear-gradient-48);}.cls-119,.cls-155{fill:#d1b4e3;}.cls-120,.cls-122{fill:#e5d4ef;}.cls-123{opacity:0.1;}.cls-124{fill:url(#linear-gradient-49);}.cls-125,.cls-143{opacity:0.7;}.cls-126{opacity:0.02;}.cls-127{opacity:0.05;}.cls-128{opacity:0.07;}.cls-129{opacity:0.1;}.cls-130{opacity:0.12;}.cls-131{opacity:0.15;}.cls-132{opacity:0.17;}.cls-133{opacity:0.2;}.cls-134{opacity:0.22;}.cls-135{opacity:0.25;}.cls-136{opacity:0.27;}.cls-137{opacity:0.3;}.cls-138{fill:url(#linear-gradient-50);}.cls-139{fill:url(#linear-gradient-51);}.cls-140{fill:url(#linear-gradient-52);}.cls-141{fill:#231f20;mix-blend-mode:color-dodge;}.cls-142{opacity:0.5;}.cls-144{fill:url(#linear-gradient-53);}.cls-145{fill:url(#linear-gradient-54);}.cls-146{fill:url(#linear-gradient-55);}.cls-147{fill:url(#linear-gradient-56);}.cls-148{fill:url(#linear-gradient-57);}.cls-149{fill:url(#linear-gradient-58);}.cls-150{fill:url(#linear-gradient-59);}.cls-151{fill:#d0b3e0;}.cls-152{fill:url(#linear-gradient-60);}.cls-153{fill:url(#linear-gradient-61);}.cls-154{fill:url(#linear-gradient-62);}.cls-156{opacity:0.8;}.cls-157{fill:#c4b0d1;}.cls-158{fill:url(#linear-gradient-63);}.cls-159{fill:url(#New_Gradient_Swatch_copy_9);}.cls-160{fill:url(#New_Gradient_Swatch_copy_9-2);}.cls-161{fill:url(#New_Gradient_Swatch_copy_9-3);}.cls-162{fill:url(#New_Gradient_Swatch_copy_9-4);}.cls-163{fill:url(#New_Gradient_Swatch_copy_9-5);}.cls-164{fill:url(#New_Gradient_Swatch_copy_9-6);}.cls-165{fill:url(#New_Gradient_Swatch_copy_9-7);}.cls-166{fill:url(#New_Gradient_Swatch_copy_9-8);}.cls-167{fill:url(#New_Gradient_Swatch_copy_9-9);}.cls-168{opacity:0.15;}</style><linearGradient id="linear-gradient" x1="587.23" y1="932.79" x2="587.23" y2="1040.35" gradientUnits="userSpaceOnUse"><stop offset="0.04" stop-color="#6b24d6"/><stop offset="0.32" stop-color="#7a1cd0"/><stop offset="0.86" stop-color="#a306c1"/><stop offset="0.98" stop-color="#ad00bd"/></linearGradient><linearGradient id="linear-gradient-2" x1="583.43" y1="919.27" x2="574.88" y2="1050.54" xlink:href="#linear-gradient"/><linearGradient id="linear-gradient-3" x1="581.52" y1="904.28" x2="561.19" y2="1059.68" xlink:href="#linear-gradient"/><linearGradient id="linear-gradient-4" x1="581.75" y1="888.15" x2="546.29" y2="1067.57" xlink:href="#linear-gradient"/><linearGradient id="linear-gradient-5" x1="584.3" y1="871.23" x2="530.33" y2="1074.02" xlink:href="#linear-gradient"/><linearGradient id="linear-gradient-6" x1="589.3" y1="853.94" x2="513.48" y2="1078.83" xlink:href="#linear-gradient"/><linearGradient id="linear-gradient-7" x1="596.77" y1="836.69" x2="495.95" y2="1081.84" xlink:href="#linear-gradient"/><linearGradient id="linear-gradient-8" x1="606.72" y1="819.93" x2="477.97" y2="1082.94" xlink:href="#linear-gradient"/><linearGradient id="linear-gradient-9" x1="619.74" y1="802.86" x2="459.9" y2="1081.85" xlink:href="#linear-gradient"/><linearGradient id="linear-gradient-10" x1="637.19" y1="784.09" x2="434.61" y2="1089.74" xlink:href="#linear-gradient"/><linearGradient id="linear-gradient-11" x1="658.06" y1="766.25" x2="407.54" y2="1095.56" xlink:href="#linear-gradient"/><linearGradient id="linear-gradient-12" x1="682.4" y1="749.74" x2="379.43" y2="1098.41" xlink:href="#linear-gradient"/><linearGradient id="linear-gradient-13" x1="710" y1="735.17" x2="350.69" y2="1098.09" xlink:href="#linear-gradient"/><linearGradient id="linear-gradient-14" x1="740.53" y1="723.17" x2="321.74" y2="1094.47" xlink:href="#linear-gradient"/><linearGradient id="linear-gradient-15" x1="773.56" y1="714.27" x2="293.02" y2="1087.48" xlink:href="#linear-gradient"/><linearGradient id="linear-gradient-16" x1="808.57" y1="708.92" x2="264.97" y2="1077.08" xlink:href="#linear-gradient"/><linearGradient id="linear-gradient-17" x1="844.9" y1="707.43" x2="238.01" y2="1063.23" xlink:href="#linear-gradient"/><linearGradient id="linear-gradient-18" x1="881.86" y1="709.95" x2="212.57" y2="1045.92" xlink:href="#linear-gradient"/><linearGradient id="linear-gradient-19" x1="918.92" y1="716.89" x2="189.23" y2="1025.56" xlink:href="#linear-gradient"/><linearGradient id="linear-gradient-20" x1="955.37" y1="728.33" x2="168.44" y2="1002.42" xlink:href="#linear-gradient"/><linearGradient id="linear-gradient-21" x1="990.47" y1="744.25" x2="150.58" y2="976.81" xlink:href="#linear-gradient"/><linearGradient id="linear-gradient-22" x1="1023.48" y1="764.51" x2="135.99" y2="949.13" xlink:href="#linear-gradient"/><linearGradient id="linear-gradient-23" x1="1019.82" y1="771.2" x2="132.07" y2="944.2" xlink:href="#linear-gradient"/><linearGradient id="linear-gradient-24" x1="1019.44" y1="770.38" x2="132.12" y2="943.3" gradientUnits="userSpaceOnUse"><stop offset="0.04" stop-color="#702ad7"/><stop offset="0.33" stop-color="#7f22d1"/><stop offset="0.9" stop-color="#a80cc1"/><stop offset="0.98" stop-color="#ae08bf"/></linearGradient><linearGradient id="linear-gradient-25" x1="1019.16" y1="769.54" x2="132.14" y2="942.4" gradientUnits="userSpaceOnUse"><stop offset="0.04" stop-color="#7430d7"/><stop offset="0.34" stop-color="#8328d1"/><stop offset="0.93" stop-color="#ac12c3"/><stop offset="0.98" stop-color="#b010c1"/></linearGradient><linearGradient id="linear-gradient-26" x1="1018.92" y1="768.7" x2="132.16" y2="941.5" gradientUnits="userSpaceOnUse"><stop offset="0.04" stop-color="#7937d8"/><stop offset="0.36" stop-color="#882ed2"/><stop offset="0.98" stop-color="#b118c2"/><stop offset="0.98" stop-color="#b118c2"/></linearGradient><linearGradient id="linear-gradient-27" x1="1018.68" y1="767.85" x2="132.17" y2="940.61" gradientUnits="userSpaceOnUse"><stop offset="0.04" stop-color="#7d3dd8"/><stop offset="0.37" stop-color="#8c35d2"/><stop offset="0.98" stop-color="#b320c4"/></linearGradient><linearGradient id="linear-gradient-28" x1="1018.45" y1="767" x2="132.18" y2="939.71" gradientUnits="userSpaceOnUse"><stop offset="0.04" stop-color="#8243d9"/><stop offset="0.39" stop-color="#913bd3"/><stop offset="0.98" stop-color="#b428c6"/></linearGradient><linearGradient id="linear-gradient-29" x1="1018.22" y1="766.15" x2="132.19" y2="938.82" gradientUnits="userSpaceOnUse"><stop offset="0.04" stop-color="#8649da"/><stop offset="0.4" stop-color="#9541d4"/><stop offset="0.98" stop-color="#b62fc8"/></linearGradient><linearGradient id="linear-gradient-30" x1="1018" y1="765.3" x2="132.19" y2="937.92" gradientUnits="userSpaceOnUse"><stop offset="0.04" stop-color="#8b4fda"/><stop offset="0.43" stop-color="#9a47d4"/><stop offset="0.98" stop-color="#b737ca"/></linearGradient><linearGradient id="linear-gradient-31" x1="1017.78" y1="764.45" x2="132.19" y2="937.03" gradientUnits="userSpaceOnUse"><stop offset="0.04" stop-color="#9056db"/><stop offset="0.46" stop-color="#9f4dd5"/><stop offset="0.98" stop-color="#b83fcb"/></linearGradient><linearGradient id="linear-gradient-32" x1="1017.57" y1="763.59" x2="132.2" y2="936.13" gradientUnits="userSpaceOnUse"><stop offset="0.04" stop-color="#945cdc"/><stop offset="0.48" stop-color="#a353d6"/><stop offset="0.98" stop-color="#ba47cd"/></linearGradient><linearGradient id="linear-gradient-33" x1="1017.38" y1="762.74" x2="132.2" y2="935.24" gradientUnits="userSpaceOnUse"><stop offset="0.04" stop-color="#9962dc"/><stop offset="0.52" stop-color="#a859d6"/><stop offset="0.98" stop-color="#bb4fcf"/></linearGradient><linearGradient id="linear-gradient-34" x1="1017.19" y1="761.88" x2="132.2" y2="934.34" gradientUnits="userSpaceOnUse"><stop offset="0.04" stop-color="#9d68dd"/><stop offset="0.55" stop-color="#ac60d7"/><stop offset="0.98" stop-color="#bd57d1"/></linearGradient><linearGradient id="linear-gradient-35" x1="1017.02" y1="761.02" x2="132.2" y2="933.45" gradientUnits="userSpaceOnUse"><stop offset="0.04" stop-color="#a26edd"/><stop offset="0.61" stop-color="#b166d8"/><stop offset="0.98" stop-color="#be5fd3"/></linearGradient><linearGradient id="linear-gradient-36" x1="1016.87" y1="760.15" x2="132.19" y2="932.55" gradientUnits="userSpaceOnUse"><stop offset="0.04" stop-color="#a674de"/><stop offset="0.65" stop-color="#b56cd9"/><stop offset="0.98" stop-color="#c067d5"/></linearGradient><linearGradient id="linear-gradient-37" x1="1016.74" y1="759.28" x2="132.19" y2="931.66" gradientUnits="userSpaceOnUse"><stop offset="0.04" stop-color="#ab7bdf"/><stop offset="0.74" stop-color="#ba73d9"/><stop offset="0.98" stop-color="#c16fd6"/></linearGradient><linearGradient id="linear-gradient-38" x1="1016.63" y1="758.41" x2="132.19" y2="930.77" gradientUnits="userSpaceOnUse"><stop offset="0.04" stop-color="#b081df"/><stop offset="0.87" stop-color="#bf78d9"/><stop offset="0.98" stop-color="#c277d8"/></linearGradient><linearGradient id="linear-gradient-39" x1="1016.53" y1="757.53" x2="132.18" y2="929.87" gradientUnits="userSpaceOnUse"><stop offset="0.04" stop-color="#b487e0"/><stop offset="0.95" stop-color="#c37eda"/><stop offset="0.98" stop-color="#c47eda"/></linearGradient><linearGradient id="linear-gradient-40" x1="1016.45" y1="756.66" x2="132.18" y2="928.98" gradientUnits="userSpaceOnUse"><stop offset="0.04" stop-color="#b98de1"/><stop offset="0.98" stop-color="#c586dc"/></linearGradient><linearGradient id="linear-gradient-41" x1="1016.39" y1="755.77" x2="132.17" y2="928.09" gradientUnits="userSpaceOnUse"><stop offset="0.04" stop-color="#bd93e1"/><stop offset="0.98" stop-color="#c78ede"/></linearGradient><linearGradient id="linear-gradient-42" x1="1016.34" y1="754.89" x2="132.16" y2="927.19" gradientUnits="userSpaceOnUse"><stop offset="0.04" stop-color="#c29ae2"/><stop offset="0.98" stop-color="#c896df"/></linearGradient><linearGradient id="linear-gradient-43" x1="1016.31" y1="754" x2="132.15" y2="926.3" gradientUnits="userSpaceOnUse"><stop offset="0.04" stop-color="#c6a0e2"/><stop offset="0.98" stop-color="#ca9ee1"/></linearGradient><linearGradient id="linear-gradient-44" x1="915.88" y1="854.57" x2="904.76" y2="830.1" xlink:href="#linear-gradient"/><linearGradient id="linear-gradient-45" x1="9418.84" y1="-8.85" x2="9399.88" y2="26.5" gradientTransform="matrix(-0.87, 0.5, -0.5, 1.44, 9057.18, -3696.03)" xlink:href="#linear-gradient-38"/><linearGradient id="linear-gradient-46" x1="872.68" y1="891.32" x2="856.74" y2="852.02" xlink:href="#linear-gradient"/><linearGradient id="linear-gradient-47" x1="9460.57" y1="13.53" x2="9441.62" y2="48.88" gradientTransform="matrix(-0.87, 0.5, -0.5, 1.44, 9057.18, -3696.03)" xlink:href="#linear-gradient-38"/><linearGradient id="linear-gradient-48" x1="726.57" y1="613.87" x2="310.98" y2="1265.48" gradientUnits="userSpaceOnUse"><stop offset="0" stop-color="#fff"/><stop offset="1" stop-color="#e5d4ef"/></linearGradient><linearGradient id="linear-gradient-49" x1="643.75" y1="741.78" x2="841.4" y2="741.78" xlink:href="#linear-gradient"/><linearGradient id="linear-gradient-50" x1="674.5" y1="684.76" x2="635.86" y2="886.68" xlink:href="#linear-gradient"/><linearGradient id="linear-gradient-51" x1="525.48" y1="923.84" x2="563.54" y2="1015.78" xlink:href="#linear-gradient"/><linearGradient id="linear-gradient-52" x1="-4274.6" y1="3211.51" x2="-3833.49" y2="3211.51" gradientTransform="matrix(0.87, 0.5, -1, 0.58, 6947.01, 546.46)" gradientUnits="userSpaceOnUse"><stop offset="0" stop-color="#2d085d"/><stop offset="1" stop-color="#410f82"/></linearGradient><linearGradient id="linear-gradient-53" x1="170.44" y1="238.95" x2="327.38" y2="510.1" xlink:href="#linear-gradient"/><linearGradient id="linear-gradient-54" x1="256.39" y1="189.21" x2="413.32" y2="460.36" xlink:href="#linear-gradient"/><linearGradient id="linear-gradient-55" x1="185.02" y1="230.51" x2="341.95" y2="501.66" xlink:href="#linear-gradient"/><linearGradient id="linear-gradient-56" x1="241.81" y1="197.64" x2="398.74" y2="468.8" xlink:href="#linear-gradient"/><linearGradient id="linear-gradient-57" x1="394.88" y1="331.71" x2="399" y2="338.82" xlink:href="#linear-gradient"/><linearGradient id="linear-gradient-58" x1="283.5" y1="400.08" x2="284.09" y2="401.11" xlink:href="#linear-gradient"/><linearGradient id="linear-gradient-59" x1="362.36" y1="864.28" x2="400.42" y2="956.22" xlink:href="#linear-gradient"/><linearGradient id="linear-gradient-60" x1="240.92" y1="-136.71" x2="623.99" y2="587.49" xlink:href="#linear-gradient"/><linearGradient id="linear-gradient-61" x1="539.01" y1="23.37" x2="535.09" y2="340.9" gradientTransform="matrix(1, 0, 0, 1, 0, 0)" xlink:href="#linear-gradient-52"/><linearGradient id="linear-gradient-62" x1="431.25" y1="669.59" x2="419.62" y2="918.87" gradientTransform="matrix(1, 0, 0, 1, 0, 0)" xlink:href="#linear-gradient-52"/><linearGradient id="linear-gradient-63" x1="-4307.03" y1="2842.12" x2="-3866.26" y2="2842.12" xlink:href="#linear-gradient-52"/><linearGradient id="New_Gradient_Swatch_copy_9" x1="537.64" y1="94.22" x2="669.82" y2="94.22" gradientUnits="userSpaceOnUse"><stop offset="0.04" stop-color="#9f19ab"/><stop offset="0.24" stop-color="#ae25b1"/><stop offset="0.65" stop-color="#d744bf"/><stop offset="1" stop-color="#ff63ce"/></linearGradient><linearGradient id="New_Gradient_Swatch_copy_9-2" x1="521.06" y1="60.64" x2="634.5" y2="63.6" xlink:href="#New_Gradient_Swatch_copy_9"/><linearGradient id="New_Gradient_Swatch_copy_9-3" x1="498.35" y1="39.69" x2="708.86" y2="39.69" xlink:href="#New_Gradient_Swatch_copy_9"/><linearGradient id="New_Gradient_Swatch_copy_9-4" x1="120.54" y1="290.57" x2="302.93" y2="476.67" xlink:href="#New_Gradient_Swatch_copy_9"/><linearGradient id="New_Gradient_Swatch_copy_9-5" x1="103.62" y1="307.15" x2="286.02" y2="493.25" xlink:href="#New_Gradient_Swatch_copy_9"/><linearGradient id="New_Gradient_Swatch_copy_9-6" x1="125.75" y1="285.46" x2="308.14" y2="471.57" xlink:href="#New_Gradient_Swatch_copy_9"/><linearGradient id="New_Gradient_Swatch_copy_9-7" x1="114.47" y1="296.52" x2="296.86" y2="482.62" xlink:href="#New_Gradient_Swatch_copy_9"/><linearGradient id="New_Gradient_Swatch_copy_9-8" x1="110.39" y1="300.52" x2="292.78" y2="486.62" xlink:href="#New_Gradient_Swatch_copy_9"/><linearGradient id="New_Gradient_Swatch_copy_9-9" x1="130.03" y1="281.27" x2="312.42" y2="467.37" xlink:href="#New_Gradient_Swatch_copy_9"/></defs><title>hero-image</title><g class="cls-1"><g id="Layer_1" data-name="Layer 1"><g class="cls-2"><path class="cls-3" d="M443.36,1197c14.86,0,28.35-3.25,39-9.4l543.54-312.87c14.23-8.21,22.38-21.21,22.38-35.65,0-15.84-9.82-30.59-26.95-40.48L786.89,663.24c-13.46-7.77-30.28-12-47.38-12-14.86,0-28.35,3.26-39,9.41L157,973.46c-14.23,8.22-22.39,21.21-22.39,35.66,0,15.83,9.83,30.58,27,40.47L396,1185C409.43,1192.72,426.26,1197,443.36,1197Z" transform="translate(-52.94 -514.23)"/><path class="cls-4" d="M700.94,661.54,157.39,974.4c-13.66,7.89-21.4,20.29-21.34,34,.07,15,9.48,29,25.91,38.53L385.83,1176.2c.36.21,11.35,6.49,11.77,6.62,13.8,7.54,31,11.36,47.67,10.68,13.51,0,28.78-4.68,38.47-10.28l540.54-311.13c13.67-7.89,21.41-20.29,21.34-34-.07-15-9.48-29.05-25.91-38.53L786.66,665a96.72,96.72,0,0,0-17.31-7.7,100.75,100.75,0,0,0-29.6-4.83C725,652.31,711.49,655.44,700.94,661.54Z" transform="translate(-52.94 -514.23)"/><path class="cls-5" d="M701.37,662.47,157.83,975.34c-13.11,7.56-20.43,19.36-20.3,32.38.14,14.17,9.13,27.5,24.87,36.59l224.93,129.86c.72.42,11,6.25,11.88,6.51a90.78,90.78,0,0,0,48,9.32c12.16,0,29.2-6.11,37.92-11.15l537.54-309.41c13.11-7.56,20.43-19.36,20.3-32.38-.14-14.17-9.13-27.5-24.87-36.59L786.44,666.73a112.15,112.15,0,0,0-17.13-7.82A100.53,100.53,0,0,0,740,653.72C725.37,653.43,711.83,656.43,701.37,662.47Z" transform="translate(-52.94 -514.23)"/><path class="cls-6" d="M701.81,663.41,158.26,976.27c-12.55,7.25-19.45,18.44-19.25,30.75.21,13.34,8.78,26,23.82,34.64l226,130.48c1.08.62,10.75,6,12,6.4a87.94,87.94,0,0,0,48.27,8c10.81,0,29.63-7.54,37.38-12L1021,866.8c12.55-7.25,19.46-18.44,19.25-30.75-.2-13.34-8.78-25.95-23.82-34.64L786.21,668.48a130.76,130.76,0,0,0-16.94-7.94,99.92,99.92,0,0,0-29-5.56C725.73,654.55,712.17,657.43,701.81,663.41Z" transform="translate(-52.94 -514.23)"/><path class="cls-7" d="M702.24,664.35,158.7,977.21c-12,6.92-18.48,17.52-18.21,29.11.27,12.51,8.43,24.41,22.78,32.7l227,131.08c1.45.84,10.45,5.79,12.13,6.31,14.86,6.88,33,9.3,48.58,6.59,9.46,0,30.05-9,36.83-12.89l531.54-305.95c12-6.93,18.48-17.53,18.21-29.11-.28-12.52-8.43-24.42-22.79-32.7L786,670.23a155,155,0,0,0-16.75-8.07,99.65,99.65,0,0,0-28.76-5.92C726.09,655.67,712.5,658.42,702.24,664.35Z" transform="translate(-52.94 -514.23)"/><path class="cls-8" d="M702.68,665.28,159.14,978.14c-11.44,6.61-17.51,16.6-17.17,27.48.34,11.68,8.08,22.87,21.74,30.75l228.1,131.7c1.8,1,10.15,5.55,12.25,6.2,15.21,6.66,33.69,8.62,48.87,5.24,8.11,0,30.48-10.42,36.29-13.77l528.53-304.23c11.44-6.6,17.52-16.6,17.18-27.47-.35-11.69-8.09-22.87-21.75-30.76L785.76,672c-2.93-1.69-13.23-7-16.57-8.19-8.84-3.22-18.53-5.78-28.48-6.28C726.45,656.79,712.84,659.42,702.68,665.28Z" transform="translate(-52.94 -514.23)"/><path class="cls-9" d="M703.12,666.22,159.57,979.08c-10.87,6.28-16.53,15.68-16.13,25.84.42,10.85,7.74,21.32,20.7,28.81L393.3,1166c2.17,1.25,9.86,5.32,12.37,6.09,15.57,6.44,34.38,7.93,49.18,3.88,6.75,0,30.89-11.85,35.74-14.64l525.53-302.5c10.88-6.28,16.54-15.68,16.13-25.84-.41-10.85-7.73-21.33-20.7-28.81l-226-130.49c-2.43-1.41-13.6-7.27-16.38-8.32-8.74-3.28-18.32-6-28.2-6.64C726.81,657.91,713.18,660.41,703.12,666.22Z" transform="translate(-52.94 -514.23)"/><path class="cls-10" d="M703.55,667.16,160,980c-10.32,6-15.56,14.75-15.09,24.2.49,10,7.39,19.78,19.66,26.87L394.8,1164c2.52,1.46,9.55,5.09,12.49,6,15.91,6.22,35.06,7.25,49.47,2.52,5.41,0,31.32-13.28,35.2-15.52l522.53-300.77c10.32-6,15.56-14.75,15.09-24.2-.48-10-7.38-19.78-19.66-26.86L785.31,675.47c-1.95-1.12-14-7.57-16.2-8.43-8.64-3.34-18.1-6.3-27.92-7C727.17,659,713.51,661.4,703.55,667.16Z" transform="translate(-52.94 -514.23)"/><path class="cls-11" d="M704,668.09,160.44,981c-9.76,5.64-14.58,13.84-14,22.57.55,9.19,7,18.24,18.61,24.92L396.29,1162a84.14,84.14,0,0,0,12.62,5.89c16.26,6,35.74,6.56,49.77,1.15,4.05,0,31.74-14.71,34.65-16.39l519.53-299c9.76-5.64,14.59-13.83,14-22.57-.55-9.19-7-18.23-18.61-24.92L785.08,677.22c-1.46-.84-14.36-7.89-16-8.56-8.53-3.4-17.88-6.55-27.63-7.36C727.53,660.14,713.85,662.4,704,668.09Z" transform="translate(-52.94 -514.23)"/><path class="cls-12" d="M704.42,669,160.88,981.89c-9.2,5.31-13.61,12.91-13,20.93.62,8.36,6.68,16.69,17.57,23l232.34,134.14a75.07,75.07,0,0,0,12.73,5.78c16.62,5.77,36.43,5.87,50.07-.21,2.71,0,32.17-16.14,34.11-17.26l516.53-297.31c9.2-5.32,13.61-12.91,13-20.93-.62-8.37-6.68-16.7-17.57-23L784.86,679c-1-.56-14.74-8.23-15.84-8.68-8.43-3.47-17.67-6.82-27.35-7.73C727.89,661.26,714.19,663.39,704.42,669Z" transform="translate(-52.94 -514.23)"/><path class="cls-13" d="M704.86,670,161.32,982.83c-8.65,5-12.64,12-12,19.29.69,7.53,6.33,15.15,16.53,21l233.39,134.76a68.69,68.69,0,0,0,12.86,5.67c17,5.56,37.11,5.19,50.37-1.57,1.35,0,32.59-17.57,33.56-18.13L1009.6,848.29c8.64-5,12.64-12,12-19.29-.69-7.53-6.34-15.15-16.53-21L784.63,680.72c-.49-.28-15.1-8.57-15.65-8.81-8.33-3.53-17.45-7.08-27.07-8.09C728.25,662.38,714.52,664.39,704.86,670Z" transform="translate(-52.94 -514.23)"/><path d="M464.42,1158.51,1008,845.65c16.31-9.42,14.27-25.87-4.57-36.75L768.94,673.54c-18.83-10.88-47.33-12.06-63.64-2.64L161.75,983.76c-16.31,9.42-14.27,25.87,4.57,36.75l234.46,135.36C419.61,1166.75,448.11,1167.93,464.42,1158.51Z" transform="translate(-52.94 -514.23)"/></g><path class="cls-14" d="M387.42,1105.57,168.22,979c-11-6.38-16.54-14.88-16.69-23.81,0-.79,0-7.6.09-8.39.91-10.34,8.86-4.64,23.53-13.11L690.57,636.13c28.55-16.48,71.74-18.27,96.46-4l219.2,126.55c11,6.38,16.53-4.84,16.69,4.08,0,.78,0,10.89-.08,11.68C1022,784.79,1014,795.51,999.3,804L483.88,1101.58C455.33,1118.06,412.14,1119.85,387.42,1105.57Z" transform="translate(-52.94 -514.23)"/><path class="cls-15" d="M690.57,635.24c28.55-16.49,71.74-18.28,96.46-4l219.2,126.55c10.84,6.26,16-4.18,16.57,4.55.07.92.11,10.74,0,11.67-.88,10.36-8.83,21.1-23.54,29.59L483.88,1101.18c-28.55,16.48-71.74,18.27-96.46,4L168.22,978.62c-11.08-6.4-16.61-14.94-16.68-23.9,0-.89.07-7.51.18-8.4,1.24-10.19,8.94-5.14,23.43-13.51Z" transform="translate(-52.94 -514.23)"/><path class="cls-16" d="M690.57,634.34c28.55-16.48,71.74-18.27,96.46-4l219.2,126.55c10.65,6.15,15.51-3.49,16.46,5,.12,1.06.24,10.57.15,11.65C1022,784,1014,794.7,999.3,803.2L483.88,1100.77c-28.55,16.49-71.74,18.28-96.46,4L168.22,978.22c-11.12-6.42-16.68-15-16.68-24,0-1,.14-7.41.28-8.4,1.5-10,9-5.64,23.33-13.9Z" transform="translate(-52.94 -514.23)"/><path class="cls-17" d="M690.57,633.45c28.55-16.49,71.74-18.28,96.46-4L1006.23,756c10.45,6,15.15-2.82,16.34,5.51.18,1.21.37,10.41.27,11.64-.81,10.39-8.8,21.14-23.54,29.65L483.88,1100.37c-28.55,16.49-71.74,18.28-96.46,4L168.22,977.82c-11.16-6.44-16.73-15.06-16.68-24.09,0-1.08.2-7.32.39-8.42,1.71-9.88,9.1-6.13,23.22-14.28Z" transform="translate(-52.94 -514.23)"/><path class="cls-18" d="M690.57,632.55c28.55-16.48,71.74-18.27,96.46-4l219.2,126.56c10.25,5.92,14.84-2.15,16.23,6,.23,1.35.49,10.25.39,11.63-.8,10.4-8.8,21.16-23.55,29.68L483.88,1100c-28.55,16.49-71.74,18.28-96.46,4L168.22,977.42C157,971,151.44,962.3,151.54,953.24c0-1.18.26-7.23.49-8.43,1.9-9.74,9.18-6.63,23.12-14.68Z" transform="translate(-52.94 -514.23)"/><path class="cls-19" d="M690.57,631.66c28.55-16.49,71.74-18.28,96.46-4l219.2,126.55c10.06,5.81,14.56-1.47,16.11,6.46a109.82,109.82,0,0,1,.51,11.62c-.78,10.41-8.79,21.18-23.55,29.71L483.88,1099.57c-28.55,16.49-71.74,18.28-96.46,4L168.22,977c-11.23-6.49-16.83-15.18-16.67-24.27,0-1.28.3-7.14.58-8.44,2.06-9.59,9.27-7.13,23-15.07Z" transform="translate(-52.94 -514.23)"/><path class="cls-20" d="M690.57,630.76c28.55-16.48,71.74-18.27,96.46-4l219.2,126.56c9.86,5.69,14.32-.81,16,6.93a93.94,93.94,0,0,1,.62,11.62c-.76,10.41-8.77,21.2-23.55,29.73L483.88,1099.17c-28.55,16.49-71.74,18.28-96.46,4L168.22,976.62c-11.27-6.51-16.87-15.24-16.67-24.37a80.66,80.66,0,0,1,.69-8.44c2.19-9.45,9.34-7.63,22.91-15.47Z" transform="translate(-52.94 -514.23)"/><path class="cls-21" d="M690.57,629.87c28.55-16.48,71.74-18.27,96.46-4l219.2,126.55c9.67,5.58,14.09-.13,15.88,7.42a80.32,80.32,0,0,1,.74,11.6c-.75,10.42-8.76,21.22-23.55,29.76L483.88,1098.77c-28.55,16.49-71.74,18.28-96.46,4L168.22,976.22c-11.31-6.53-16.91-15.3-16.67-24.46a71.94,71.94,0,0,1,.79-8.46c2.32-9.31,9.42-8.12,22.81-15.85Z" transform="translate(-52.94 -514.23)"/><path class="cls-22" d="M690.57,629c28.55-16.48,71.74-18.27,96.46-4l219.2,126.55c9.47,5.47,13.88.52,15.77,7.89a70.33,70.33,0,0,1,.85,11.59c-.74,10.43-8.75,21.24-23.55,29.79L483.88,1098.37c-28.55,16.49-71.74,18.28-96.46,4L168.22,975.82c-11.35-6.55-16.94-15.36-16.67-24.55a66.34,66.34,0,0,1,.89-8.47c2.43-9.17,9.51-8.62,22.71-16.25Z" transform="translate(-52.94 -514.23)"/><path class="cls-23" d="M690.57,628.08c28.55-16.48,71.74-18.27,96.46-4l219.2,126.55c9.28,5.36,13.68,1.19,15.66,8.37a63.45,63.45,0,0,1,1,11.58c-.73,10.44-8.74,21.26-23.56,29.82L483.88,1098c-28.55,16.49-71.74,18.28-96.46,4L168.22,975.42c-11.39-6.57-17-15.42-16.66-24.64a57.43,57.43,0,0,1,1-8.48c2.52-9,9.58-9.12,22.6-16.64Z" transform="translate(-52.94 -514.23)"/><path class="cls-24" d="M690.57,627.19c28.55-16.49,71.74-18.28,96.46-4l219.2,126.55c9.08,5.24,13.49,1.84,15.54,8.84a56.41,56.41,0,0,1,1.09,11.57c-.72,10.45-8.73,21.29-23.56,29.85L483.88,1097.57c-28.55,16.49-71.74,18.28-96.46,4L168.22,975c-11.42-6.6-17-15.48-16.66-24.73a52.91,52.91,0,0,1,1.09-8.49c2.62-8.91,9.66-9.62,22.5-17Z" transform="translate(-52.94 -514.23)"/><path class="cls-25" d="M690.57,626.29c28.55-16.48,71.74-18.27,96.46-4l219.2,126.55c8.88,5.13,13.31,2.5,15.43,9.33a50.67,50.67,0,0,1,1.2,11.56c-.71,10.45-8.72,21.3-23.56,29.87L483.88,1097.17c-28.55,16.49-71.74,18.28-96.46,4L168.22,974.62c-11.46-6.62-17-15.53-16.66-24.83a49.38,49.38,0,0,1,1.19-8.5c2.71-8.78,9.75-10.11,22.4-17.42Z" transform="translate(-52.94 -514.23)"/><path class="cls-26" d="M690.57,625.4c28.55-16.49,71.74-18.28,96.46-4L1006.23,748c8.69,5,13.14,3.14,15.31,9.8a45.62,45.62,0,0,1,1.32,11.55c-.7,10.46-8.7,21.32-23.56,29.9L483.88,1096.77c-28.55,16.49-71.74,18.28-96.46,4L168.22,974.22c-11.5-6.64-17.07-15.59-16.66-24.92a45.21,45.21,0,0,1,1.3-8.51c2.78-8.66,9.82-10.61,22.29-17.81Z" transform="translate(-52.94 -514.23)"/><path class="cls-27" d="M690.57,624.5c28.55-16.48,71.74-18.27,96.46-4l219.2,126.56c8.49,4.9,13,3.79,15.2,10.27a41.5,41.5,0,0,1,1.43,11.54c-.69,10.47-8.69,21.34-23.56,29.93L483.88,1096.37c-28.55,16.49-71.74,18.28-96.46,4L168.22,973.82c-11.54-6.66-17.1-15.65-16.65-25a41.13,41.13,0,0,1,1.39-8.52c2.86-8.54,9.9-11.11,22.19-18.21Z" transform="translate(-52.94 -514.23)"/><path class="cls-28" d="M690.57,623.61c28.55-16.49,71.74-18.28,96.46-4l219.2,126.55c8.3,4.79,12.8,4.43,15.08,10.75a38.1,38.1,0,0,1,1.56,11.53c-.69,10.48-8.69,21.36-23.57,30L483.88,1096c-28.55,16.49-71.74,18.28-96.46,4L168.22,973.42c-11.58-6.68-17.12-15.71-16.65-25.1a38.87,38.87,0,0,1,1.49-8.53c2.94-8.42,10-11.61,22.09-18.6Z" transform="translate(-52.94 -514.23)"/><path class="cls-29" d="M690.57,622.71c28.55-16.48,71.74-18.27,96.46-4l219.2,126.55c8.1,4.67,12.63,5.07,15,11.22a35,35,0,0,1,1.67,11.52c-.68,10.49-8.67,21.39-23.57,30L483.88,1095.57c-28.55,16.49-71.74,18.28-96.46,4L168.22,973c-11.61-6.71-17.15-15.77-16.65-25.2a36.64,36.64,0,0,1,1.59-8.54c3-8.29,10.07-12.11,22-19Z" transform="translate(-52.94 -514.23)"/><path class="cls-30" d="M690.57,621.82c28.55-16.48,71.74-18.27,96.46-4l219.2,126.55c7.9,4.57,12.47,5.71,14.85,11.71a32,32,0,0,1,1.79,11.5c-.67,10.5-8.66,21.41-23.57,30L483.88,1095.17c-28.55,16.49-71.74,18.28-96.46,4L168.22,972.62c-11.65-6.73-17.18-15.83-16.65-25.29a34,34,0,0,1,1.7-8.55c3.07-8.18,10.14-12.61,21.88-19.38Z" transform="translate(-52.94 -514.23)"/><path class="cls-31" d="M690.57,620.93c28.55-16.49,71.74-18.28,96.46-4l219.2,126.55c7.71,4.45,12.31,6.34,14.74,12.18a30,30,0,0,1,1.9,11.5c-.68,10.5-8.65,21.42-23.57,30L483.88,1094.77c-28.55,16.49-71.74,18.28-96.46,4L168.22,972.22c-11.69-6.75-17.2-15.89-16.65-25.38a32.17,32.17,0,0,1,1.8-8.56c3.14-8.07,10.22-13.11,21.78-19.78Z" transform="translate(-52.94 -514.23)"/><path class="cls-32" d="M690.57,620c28.55-16.48,71.74-18.27,96.46-4l219.2,126.55c7.51,4.34,12.15,7,14.62,12.66a27.73,27.73,0,0,1,2,11.49c-.66,10.51-8.63,21.44-23.57,30.06L483.88,1094.37c-28.55,16.49-71.74,18.28-96.46,4L168.22,971.82c-11.73-6.77-17.23-16-16.64-25.47a29.91,29.91,0,0,1,1.89-8.57c3.2-8,10.31-13.61,21.68-20.17Z" transform="translate(-52.94 -514.23)"/><path class="cls-33" d="M690.57,619.14c28.55-16.49,71.74-18.28,96.46-4l219.2,126.55c7.32,4.23,12,7.59,14.51,13.13a25.92,25.92,0,0,1,2.14,11.48c-.66,10.52-8.63,21.47-23.58,30.09L483.88,1094c-28.55,16.49-71.74,18.28-96.46,4L168.22,971.42c-11.77-6.79-17.25-16-16.64-25.57a28.33,28.33,0,0,1,2-8.58c3.26-7.84,10.38-14.1,21.57-20.55Z" transform="translate(-52.94 -514.23)"/><path class="cls-34" d="M690.57,618.24c28.55-16.48,71.74-18.27,96.46-4l219.2,126.56c7.12,4.11,11.83,8.21,14.39,13.61a24,24,0,0,1,2.26,11.46c-.64,10.53-8.62,21.49-23.58,30.12L483.88,1093.57c-28.55,16.49-71.74,18.28-96.46,4L168.22,971C156.42,964.2,151,955,151.58,945.36a27.13,27.13,0,0,1,2.1-8.59c3.32-7.74,10.46-14.6,21.47-20.95Z" transform="translate(-52.94 -514.23)"/><path class="cls-35" d="M387.42,1097.17,168.22,970.62c-24.72-14.28-21.62-39.21,6.93-55.69L690.57,617.35c28.55-16.49,71.74-18.28,96.46-4l219.2,126.55c24.72,14.28,21.62,39.21-6.93,55.69L483.88,1093.17C455.33,1109.66,412.14,1111.45,387.42,1097.17Z" transform="translate(-52.94 -514.23)"/><path class="cls-36" d="M387.42,1097.42,168.22,970.87c-11-6.38-16.54-14.89-16.69-23.82,0-.78,0-18,.09-18.76.91-10.34,8.86-4.65,23.53-13.12L690.57,617.59c28.55-16.48,71.74-18.27,96.46-4l219.2,126.56c11,6.37,16.53-4.85,16.69,4.08,0,.77,0,21.27-.08,22-.89,10.36-8.84,21.08-23.54,29.56L483.88,1093.42C455.33,1109.9,412.14,1111.69,387.42,1097.42Z" transform="translate(-52.94 -514.23)"/><path class="cls-37" d="M690.57,616.7c28.55-16.48,71.74-18.27,96.46-4l219.2,126.55c10.79,6.24,15.58-4.21,16.51,4.45.11,1,.18,20.84.06,21.9-1.21,10.26-8.9,20.92-23.5,29.35L483.88,1092.52c-28.55,16.49-71.74,18.28-96.46,4L168.22,970c-11-6.35-16.38-14.81-16.68-23.7,0-1,.11-17.63.27-18.66,1.63-10.07,8.93-5,23.34-13.33Z" transform="translate(-52.94 -514.23)"/><path class="cls-38" d="M690.57,615.8c28.55-16.48,71.74-18.27,96.46-4l219.2,126.55c10.55,6.09,14.95-3.57,16.34,4.81.21,1.29.37,20.41.19,21.74-1.4,10.18-9,20.77-23.46,29.14L483.88,1091.63c-28.55,16.48-71.74,18.27-96.46,4L168.22,969.08c-10.95-6.33-16.28-14.75-16.67-23.59-.05-1.23.19-17.29.45-18.55,2.07-9.82,9-5.39,23.15-13.56Z" transform="translate(-52.94 -514.23)"/><path class="cls-39" d="M690.57,614.91c28.55-16.48,71.74-18.27,96.46-4l219.2,126.55c10.31,5.95,14.48-2.93,16.16,5.19.32,1.56.58,20,.33,21.58-1.54,10.09-9,20.61-23.42,28.93L483.88,1090.74c-28.55,16.48-71.74,18.27-96.46,4L168.22,968.18c-10.9-6.29-16.2-14.67-16.66-23.47-.08-1.45.26-16.94.64-18.45,2.36-9.57,9.07-5.76,23-13.77Z" transform="translate(-52.94 -514.23)"/><path class="cls-40" d="M690.57,614c28.55-16.49,71.74-18.28,96.46-4l219.2,126.55c10.06,5.81,14.1-2.31,16,5.55.44,1.83.78,19.54.48,21.42-1.65,10-9.09,20.47-23.39,28.72L483.88,1089.84c-28.55,16.49-71.74,18.28-96.46,4L168.22,967.29c-10.86-6.27-16.13-14.61-16.65-23.36-.1-1.67.34-16.59.82-18.34,2.58-9.34,9.15-6.14,22.76-14Z" transform="translate(-52.94 -514.23)"/><path class="cls-41" d="M690.57,613.12c28.55-16.48,71.74-18.27,96.46-4l219.2,126.56c9.82,5.66,13.78-1.7,15.81,5.92.56,2.09,1,19.1.61,21.25-1.74,9.95-9.15,20.32-23.35,28.52L483.88,1089c-28.55,16.48-71.74,18.27-96.46,4L168.22,966.39c-10.81-6.24-16.07-14.53-16.65-23.24-.12-1.9.41-16.24,1-18.23,2.75-9.13,9.22-6.51,22.57-14.22Z" transform="translate(-52.94 -514.23)"/><path class="cls-42" d="M690.57,612.23c28.55-16.49,71.74-18.28,96.46-4l219.2,126.55c9.57,5.53,13.5-1.08,15.63,6.29.69,2.36,1.19,18.68.75,21.1-1.81,9.88-9.21,20.16-23.31,28.3L483.88,1088.05c-28.55,16.49-71.74,18.28-96.46,4L168.22,965.5c-10.76-6.22-16-14.47-16.64-23.13-.15-2.12.47-15.89,1.2-18.13,2.88-8.91,9.29-6.88,22.37-14.43Z" transform="translate(-52.94 -514.23)"/><path class="cls-43" d="M690.57,611.33c28.55-16.48,71.74-18.27,96.46-4l219.2,126.56c9.33,5.38,13.24-.49,15.46,6.65.82,2.63,1.4,18.25.88,20.94-1.87,9.81-9.26,20-23.27,28.1L483.88,1087.16c-28.55,16.48-71.74,18.27-96.46,4L168.22,964.61c-10.71-6.19-16-14.4-16.63-23-.18-2.34.53-15.55,1.38-18,3-8.71,9.36-7.26,22.18-14.66Z" transform="translate(-52.94 -514.23)"/><path class="cls-44" d="M690.57,610.44c28.55-16.48,71.74-18.28,96.46-4L1006.23,733c9.09,5.25,13,.12,15.28,7,1,2.89,1.61,17.81,1,20.78-1.92,9.74-9.32,19.86-23.23,27.89L483.88,1086.26c-28.55,16.49-71.74,18.28-96.46,4L168.22,963.71c-10.67-6.16-15.94-14.32-16.62-22.9-.21-2.56.58-15.2,1.56-17.92,3.08-8.51,9.44-7.63,22-14.87Z" transform="translate(-52.94 -514.23)"/><path class="cls-45" d="M690.57,609.54c28.55-16.48,71.74-18.27,96.46-4l219.2,126.55c8.84,5.1,12.76.7,15.11,7.39,1.1,3.15,1.82,17.38,1.16,20.62-2,9.68-9.39,19.71-23.2,27.68L483.88,1085.37c-28.55,16.48-71.74,18.27-96.46,4L168.22,962.82c-10.62-6.14-15.9-14.26-16.61-22.79-.24-2.78.62-14.86,1.74-17.81,3.17-8.32,9.51-8,21.8-15.1Z" transform="translate(-52.94 -514.23)"/><path class="cls-46" d="M690.57,608.65c28.55-16.48,71.74-18.27,96.46-4l219.2,126.55c8.6,5,12.54,1.3,14.93,7.77,1.26,3.4,2,16.95,1.3,20.46-2,9.61-9.45,19.55-23.16,27.47L483.88,1084.48c-28.55,16.48-71.74,18.27-96.46,4L168.22,961.92c-10.57-6.1-15.86-14.18-16.61-22.67-.26-3,.67-14.53,1.94-17.7,3.23-8.14,9.58-8.38,21.6-15.32Z" transform="translate(-52.94 -514.23)"/><path class="cls-47" d="M690.57,607.76c28.55-16.49,71.74-18.28,96.46-4l219.2,126.55c8.35,4.82,12.32,1.87,14.76,8.13,1.42,3.66,2.25,16.52,1.43,20.3-2.08,9.55-9.51,19.41-23.12,27.26L483.88,1083.58c-28.55,16.48-71.74,18.28-96.46,4L168.22,961c-10.53-6.08-15.82-14.11-16.6-22.56-.29-3.23.7-14.19,2.12-17.6,3.3-8,9.65-8.75,21.41-15.54Z" transform="translate(-52.94 -514.23)"/><path class="cls-48" d="M690.57,606.86c28.55-16.48,71.74-18.27,96.46-4l219.2,126.55c8.11,4.69,12.1,2.46,14.58,8.5,1.6,3.91,2.48,16.1,1.57,20.15-2.12,9.48-9.57,19.25-23.08,27.05L483.88,1082.69c-28.55,16.48-71.74,18.27-96.46,4L168.22,960.13c-10.48-6-15.79-14-16.59-22.45-.33-3.44.73-13.85,2.3-17.48,3.37-7.78,9.72-9.12,21.22-15.76Z" transform="translate(-52.94 -514.23)"/><path class="cls-49" d="M690.57,606c28.55-16.49,71.74-18.28,96.46-4l219.2,126.55c7.87,4.54,11.89,3,14.4,8.87,1.79,4.15,2.71,15.66,1.71,20-2.16,9.42-9.63,19.1-23,26.84L483.88,1081.79c-28.55,16.49-71.74,18.28-96.46,4L168.22,959.24c-10.43-6-15.75-14-16.58-22.34-.36-3.66.75-13.52,2.48-17.38,3.43-7.6,9.8-9.49,21-16Z" transform="translate(-52.94 -514.23)"/><path class="cls-50" d="M690.57,605.07c28.55-16.48,71.74-18.27,96.46-4l219.2,126.56c7.62,4.4,11.69,3.59,14.23,9.23,2,4.39,2.93,15.24,1.85,19.83-2.21,9.35-9.69,18.94-23,26.63L483.88,1080.9c-28.55,16.48-71.74,18.27-96.46,4L168.22,958.34c-10.39-6-15.72-13.89-16.57-22.22-.4-3.88.76-13.2,2.67-17.27,3.48-7.43,9.86-9.87,20.83-16.2Z" transform="translate(-52.94 -514.23)"/><path class="cls-51" d="M690.57,604.18c28.55-16.49,71.74-18.28,96.46-4l219.2,126.55c7.38,4.26,11.48,4.16,14,9.61,2.19,4.62,3.16,14.81,2,19.66-2.25,9.3-9.75,18.8-23,26.43L483.88,1080c-28.55,16.49-71.74,18.28-96.46,4L168.22,957.45c-10.34-6-15.69-13.82-16.57-22.11-.43-4.1.78-12.88,2.86-17.16,3.53-7.27,9.94-10.25,20.64-16.42Z" transform="translate(-52.94 -514.23)"/><path class="cls-52" d="M690.57,603.28c28.55-16.48,71.74-18.27,96.46-4l219.2,126.55c7.13,4.12,11.28,4.72,13.88,10,2.4,4.85,3.39,14.39,2.12,19.51-2.28,9.23-9.81,18.64-22.93,26.21L483.88,1079.11c-28.55,16.48-71.74,18.27-96.46,4L168.22,956.56c-10.29-5.95-15.66-13.75-16.56-22-.47-4.32.77-12.56,3-17.06,3.59-7.1,10-10.61,20.45-16.64Z" transform="translate(-52.94 -514.23)"/><path class="cls-53" d="M690.57,602.39c28.55-16.48,71.74-18.27,96.46-4l219.2,126.55c6.89,4,11.07,5.28,13.7,10.34s3.63,14,2.26,19.35c-2.32,9.18-9.87,18.49-22.89,26L483.88,1078.22c-28.55,16.48-71.74,18.27-96.46,4L168.22,955.66C158,949.75,152.59,942,151.67,933.78a34.76,34.76,0,0,1,3.23-16.95c3.63-7,10.08-11,20.25-16.86Z" transform="translate(-52.94 -514.23)"/><path class="cls-54" d="M690.57,601.49c28.55-16.48,71.74-18.27,96.46-4l219.2,126.55c6.65,3.84,10.86,5.82,13.53,10.71a29.44,29.44,0,0,1,2.39,19.19c-2.35,9.11-9.93,18.33-22.85,25.79L483.88,1077.32c-28.55,16.48-71.74,18.27-96.46,4L168.22,954.77c-10.2-5.89-15.6-13.6-16.54-21.77a32.11,32.11,0,0,1,3.41-16.84c3.69-6.8,10.15-11.37,20.06-17.09Z" transform="translate(-52.94 -514.23)"/><path class="cls-55" d="M690.57,600.6c28.55-16.48,71.74-18.27,96.46-4l219.2,126.55c6.4,3.7,10.66,6.37,13.35,11.08a27,27,0,0,1,2.54,19c-2.4,9.06-10,18.19-22.82,25.59L483.88,1076.43c-28.55,16.48-71.74,18.27-96.46,4L168.22,953.87c-10.15-5.86-15.57-13.52-16.53-21.65a29.59,29.59,0,0,1,3.59-16.74c3.74-6.64,10.23-11.73,19.87-17.3Z" transform="translate(-52.94 -514.23)"/><path class="cls-56" d="M690.57,599.71c28.55-16.49,71.74-18.28,96.46-4l219.2,126.55c6.16,3.56,10.45,6.91,13.17,11.45a24.72,24.72,0,0,1,2.68,18.87c-2.43,9-10.06,18-22.78,25.37L483.88,1075.53c-28.55,16.49-71.74,18.28-96.46,4L168.22,953c-10.1-5.84-15.54-13.45-16.53-21.54a27.57,27.57,0,0,1,3.78-16.63c3.8-6.5,10.3-12.11,19.68-17.52Z" transform="translate(-52.94 -514.23)"/><path class="cls-57" d="M387.42,1078.64,168.22,952.08c-24.72-14.27-21.62-39.21,6.93-55.69L690.57,598.81c28.55-16.48,71.74-18.27,96.46-4l219.2,126.56c24.72,14.27,21.62,39.21-6.93,55.69L483.88,1074.64C455.33,1091.12,412.14,1092.91,387.42,1078.64Z" transform="translate(-52.94 -514.23)"/><path class="cls-57" d="M387.42,1078.64,168.22,952.08c-24.72-14.27-21.62-39.21,6.93-55.69L690.57,598.81c28.55-16.48,71.74-18.27,96.46-4l219.2,126.56c24.72,14.27,21.62,39.21-6.93,55.69L483.88,1074.64C455.33,1091.12,412.14,1092.91,387.42,1078.64Z" transform="translate(-52.94 -514.23)"/><path class="cls-58" d="M175.33,896.41l515.29-297.5c28.48-16.45,71.57-18.23,96.23-4L1006,721.42c24.66,14.24,21.57,39.12-6.91,55.56l-515.29,297.5c-28.48,16.45-71.57,18.23-96.23,4L168.43,952C143.76,937.73,146.85,912.85,175.33,896.41Z" transform="translate(-52.94 -514.23)"/><path class="cls-59" d="M175.52,896.43,690.67,599c28.42-16.4,71.4-18.18,96-4l219,126.46c24.61,14.21,21.52,39-6.89,55.43L483.66,1074.33c-28.41,16.4-71.39,18.19-96,4l-219-126.46C144,937.65,147.11,912.83,175.52,896.43Z" transform="translate(-52.94 -514.23)"/><path class="cls-60" d="M175.71,896.44l515-297.34c28.35-16.36,71.22-18.14,95.77-4l219,126.41c24.54,14.17,21.47,38.93-6.88,55.29l-515,297.35c-28.35,16.36-71.22,18.14-95.77,4L168.83,951.74C144.29,937.56,147.36,912.81,175.71,896.44Z" transform="translate(-52.94 -514.23)"/><path class="cls-61" d="M175.89,896.46,690.78,599.2c28.27-16.33,71-18.1,95.53-4L1005.17,721.6c24.49,14.14,21.42,38.83-6.85,55.15L483.43,1074c-28.27,16.33-71,18.1-95.53,4L169,951.62C144.55,937.48,147.62,912.79,175.89,896.46Z" transform="translate(-52.94 -514.23)"/><path class="cls-62" d="M176.08,896.48,690.83,599.29c28.2-16.28,70.87-18,95.3-3.95l218.78,126.32c24.43,14.1,21.37,38.73-6.84,55L483.32,1073.87c-28.2,16.28-70.87,18.05-95.3,4L169.24,951.5C144.81,937.4,147.88,912.77,176.08,896.48Z" transform="translate(-52.94 -514.23)"/><path class="cls-63" d="M176.27,896.5,690.88,599.39c28.14-16.25,70.7-18,95.07-3.94l218.7,126.27c24.37,14.06,21.31,38.64-6.83,54.88L483.21,1073.71c-28.14,16.25-70.7,18-95.07,3.94L169.44,951.39C145.08,937.32,148.13,912.74,176.27,896.5Z" transform="translate(-52.94 -514.23)"/><path class="cls-64" d="M176.45,896.52l514.48-297c28.07-16.2,70.53-18,94.84-3.93l218.61,126.22c24.31,14,21.26,38.55-6.8,54.76l-514.48,297c-28.07,16.2-70.53,18-94.83,3.93L169.65,951.27C145.34,937.24,148.39,912.72,176.45,896.52Z" transform="translate(-52.94 -514.23)"/><path class="cls-65" d="M176.64,896.54,691,599.58c28-16.16,70.36-17.92,94.6-3.92l218.54,126.17c24.25,14,21.21,38.46-6.79,54.62L483,1073.41c-28,16.16-70.36,17.92-94.6,3.92L169.85,951.15C145.6,937.15,148.64,912.7,176.64,896.54Z" transform="translate(-52.94 -514.23)"/><path class="cls-66" d="M176.83,896.55,691,599.68c27.93-16.13,70.18-17.88,94.37-3.92l218.46,126.13c24.19,14,21.15,38.36-6.78,54.48l-514.2,296.88c-27.93,16.13-70.18,17.88-94.37,3.91L170.05,951C145.86,937.07,148.9,912.68,176.83,896.55Z" transform="translate(-52.94 -514.23)"/><path class="cls-67" d="M177,896.57l514.07-296.8c27.87-16.08,70-17.83,94.14-3.9L1003.59,722c24.13,13.93,21.11,38.26-6.75,54.35L482.77,1073.1c-27.87,16.08-70,17.83-94.14,3.9L170.26,950.92C146.13,937,149.15,912.66,177,896.57Z" transform="translate(-52.94 -514.23)"/><path class="cls-68" d="M177.2,896.59,691.14,599.87c27.79-16,69.83-17.79,93.9-3.89l218.29,126c24.07,13.89,21.05,38.17-6.74,54.21L482.65,1072.94c-27.79,16-69.83,17.79-93.9,3.9l-218.29-126C146.39,936.91,149.41,912.64,177.2,896.59Z" transform="translate(-52.94 -514.23)"/><path class="cls-69" d="M177.39,896.61,691.19,600c27.72-16,69.66-17.74,93.67-3.88l218.21,126c24,13.86,21,38.07-6.73,54.08l-513.8,296.64c-27.72,16-69.66,17.74-93.67,3.88l-218.21-126C146.65,936.83,149.66,912.61,177.39,896.61Z" transform="translate(-52.94 -514.23)"/><path class="cls-70" d="M177.57,896.63,691.24,600.06c27.65-16,69.49-17.7,93.44-3.87L1002.8,722.12c24,13.83,21,38-6.7,54L482.43,1072.63c-27.65,16-69.49,17.71-93.44,3.88L170.87,950.57C146.92,936.74,149.92,912.59,177.57,896.63Z" transform="translate(-52.94 -514.23)"/><path class="cls-71" d="M177.76,896.64,691.29,600.16c27.59-15.93,69.32-17.66,93.21-3.87l218,125.89c23.89,13.79,20.9,37.89-6.69,53.81L482.32,1072.48c-27.59,15.93-69.32,17.66-93.21,3.86l-218-125.88C147.18,936.66,150.17,912.57,177.76,896.64Z" transform="translate(-52.94 -514.23)"/><path class="cls-72" d="M178,896.66,691.34,600.25c27.52-15.88,69.14-17.61,93-3.85l218,125.84c23.83,13.76,20.84,37.79-6.68,53.68L482.21,1072.33c-27.52,15.88-69.14,17.61-93,3.85l-218-125.84C147.44,936.58,150.43,912.55,178,896.66Z" transform="translate(-52.94 -514.23)"/><path class="cls-73" d="M178.13,896.68,691.39,600.35c27.45-15.85,69-17.57,92.74-3.85L1002,722.3c23.78,13.72,20.79,37.69-6.65,53.54L482.1,1072.17c-27.45,15.85-69,17.57-92.74,3.85L171.48,950.22C147.7,936.5,150.69,912.53,178.13,896.68Z" transform="translate(-52.94 -514.23)"/><path class="cls-74" d="M178.32,896.7,691.45,600.45c27.37-15.81,68.79-17.53,92.5-3.84l217.8,125.75c23.71,13.69,20.74,37.6-6.64,53.41L482,1072c-27.38,15.81-68.8,17.52-92.51,3.83L171.68,950.11C148,936.42,150.94,912.51,178.32,896.7Z" transform="translate(-52.94 -514.23)"/><path class="cls-75" d="M178.51,896.72l513-296.18c27.31-15.77,68.62-17.48,92.27-3.82l217.72,125.69c23.65,13.66,20.68,37.51-6.63,53.28l-513,296.17c-27.31,15.77-68.62,17.48-92.27,3.83L171.88,950C148.23,936.34,151.2,912.48,178.51,896.72Z" transform="translate(-52.94 -514.23)"/><path class="cls-76" d="M178.69,896.73,691.55,600.64c27.24-15.73,68.45-17.44,92-3.82l217.63,125.65c23.6,13.62,20.64,37.42-6.6,53.14l-512.86,296.1c-27.24,15.73-68.45,17.44-92,3.82L172.09,949.87C148.49,936.25,151.45,912.46,178.69,896.73Z" transform="translate(-52.94 -514.23)"/><path class="cls-77" d="M178.88,896.75l512.72-296c27.17-15.68,68.28-17.39,91.81-3.8L1001,722.53c23.53,13.59,20.58,37.32-6.59,53l-512.72,296c-27.17,15.68-68.28,17.39-91.81,3.8L172.29,949.76C148.76,936.17,151.71,912.44,178.88,896.75Z" transform="translate(-52.94 -514.23)"/><path class="cls-78" d="M179.07,896.77,691.65,600.83c27.1-15.65,68.11-17.35,91.58-3.8L1000.7,722.59c23.47,13.55,20.53,37.22-6.58,52.87L481.54,1071.4c-27.1,15.65-68.11,17.35-91.58,3.8L172.49,949.64C149,936.09,152,912.42,179.07,896.77Z" transform="translate(-52.94 -514.23)"/><path class="cls-79" d="M179.25,896.79,691.7,600.93c27-15.61,67.93-17.31,91.35-3.79l217.38,125.51c23.42,13.52,20.48,37.13-6.55,52.74L481.43,1071.25c-27,15.61-67.93,17.3-91.35,3.78L172.7,949.53C149.28,936,152.22,912.4,179.25,896.79Z" transform="translate(-52.94 -514.23)"/><path class="cls-80" d="M179.44,896.81,691.75,601c27-15.57,67.76-17.26,91.12-3.77l217.3,125.46c23.35,13.48,20.43,37-6.54,52.6L481.32,1071.09c-27,15.57-67.76,17.26-91.12,3.78L172.9,949.41C149.55,935.93,152.47,912.38,179.44,896.81Z" transform="translate(-52.94 -514.23)"/><path class="cls-81" d="M179.63,896.82l512.18-295.7c26.89-15.53,67.58-17.22,90.87-3.77L999.91,722.76c23.29,13.45,20.37,36.94-6.53,52.47L481.2,1070.94c-26.89,15.53-67.58,17.22-90.87,3.77L173.1,949.29C149.81,935.84,152.73,912.35,179.63,896.82Z" transform="translate(-52.94 -514.23)"/><path class="cls-82" d="M179.81,896.84,691.86,601.21c26.83-15.49,67.41-17.17,90.64-3.75L999.64,722.82c23.24,13.42,20.32,36.85-6.5,52.34l-512,295.63c-26.83,15.49-67.41,17.17-90.64,3.75L173.31,949.18C150.07,935.76,153,912.33,179.81,896.84Z" transform="translate(-52.94 -514.23)"/><path class="cls-83" d="M180,896.86,691.91,601.31c26.76-15.45,67.24-17.13,90.41-3.75L999.38,722.88c23.18,13.38,20.27,36.75-6.49,52.2L481,1070.63c-26.76,15.45-67.24,17.13-90.41,3.75L173.51,949.06C150.33,935.68,153.24,912.31,180,896.86Z" transform="translate(-52.94 -514.23)"/><path class="cls-84" d="M180.19,896.88,692,601.41c26.69-15.41,67.07-17.09,90.18-3.74l217,125.27c23.11,13.35,20.21,36.66-6.48,52.07L480.87,1070.48c-26.69,15.41-67.07,17.08-90.18,3.74l-217-125.28C150.6,935.6,153.5,912.29,180.19,896.88Z" transform="translate(-52.94 -514.23)"/><path class="cls-85" d="M180.37,896.9,692,601.5c26.62-15.37,66.89-17,90-3.73L998.85,723c23.06,13.31,20.17,36.56-6.45,51.93L480.76,1070.32c-26.62,15.37-66.89,17-89.95,3.73L173.92,948.83C150.86,935.52,153.75,912.27,180.37,896.9Z" transform="translate(-52.94 -514.23)"/><path class="cls-85" d="M180.56,896.91,692.06,601.6c26.56-15.33,66.72-17,89.72-3.72L998.59,723.06c23,13.27,20.11,36.46-6.44,51.79l-511.5,295.32c-26.56,15.33-66.72,17-89.72,3.72L174.12,948.71C151.12,935.43,154,912.24,180.56,896.91Z" transform="translate(-52.94 -514.23)"/><path class="cls-86" d="M180.75,896.93,692.11,601.69c26.49-15.29,66.55-17,89.49-3.7L998.33,723.11c22.93,13.25,20.06,36.38-6.43,51.67L480.54,1070c-26.49,15.29-66.55,17-89.49,3.7L174.32,948.6C151.39,935.35,154.26,912.22,180.75,896.93Z" transform="translate(-52.94 -514.23)"/><path class="cls-87" d="M180.93,897,692.17,601.79c26.41-15.25,66.37-16.91,89.25-3.7L998.06,723.17c22.88,13.21,20,36.28-6.4,51.53L480.42,1069.86c-26.41,15.25-66.37,16.91-89.25,3.7L174.53,948.48C151.65,935.27,154.52,912.2,180.93,897Z" transform="translate(-52.94 -514.23)"/><path class="cls-88" d="M181.12,897l511.1-295.08c26.34-15.21,66.2-16.87,89-3.69l216.57,125c22.82,13.17,20,36.18-6.39,51.4l-511.1,295.08c-26.34,15.21-66.2,16.86-89,3.69l-216.57-125C151.91,935.19,154.77,912.18,181.12,897Z" transform="translate(-52.94 -514.23)"/><path class="cls-89" d="M181.31,897l511-295c26.28-15.17,66-16.82,88.78-3.68l216.49,125c22.75,13.14,19.9,36.09-6.38,51.26l-511,295c-26.28,15.17-66,16.82-88.78,3.68l-216.49-125C152.18,935.11,155,912.16,181.31,897Z" transform="translate(-52.94 -514.23)"/><path class="cls-90" d="M181.49,897,692.32,602.08c26.21-15.13,65.85-16.78,88.55-3.67l216.4,124.94c22.7,13.1,19.85,36-6.35,51.12L480.09,1069.4c-26.21,15.13-65.85,16.77-88.55,3.67L175.14,948.13C152.44,935,155.28,912.14,181.49,897Z" transform="translate(-52.94 -514.23)"/><path class="cls-91" d="M181.68,897,692.37,602.17c26.14-15.09,65.68-16.73,88.32-3.66L997,723.41c22.64,13.07,19.8,35.9-6.34,51L480,1069.25c-26.14,15.09-65.68,16.73-88.32,3.66L175.34,948C152.7,934.94,155.54,912.11,181.68,897Z" transform="translate(-52.94 -514.23)"/><path class="cls-92" d="M181.87,897,692.42,602.27c26.07-15,65.51-16.69,88.09-3.65L996.75,723.46c22.58,13,19.74,35.81-6.33,50.86L479.87,1069.09c-26.07,15.05-65.51,16.69-88.09,3.65L175.54,947.9C153,934.86,155.8,912.09,181.87,897Z" transform="translate(-52.94 -514.23)"/><path class="cls-93" d="M182.05,897.06,692.47,602.37c26-15,65.34-16.65,87.86-3.64L996.48,723.52c22.52,13,19.7,35.71-6.3,50.73L479.75,1068.94c-26,15-65.33,16.64-87.85,3.64L175.75,947.78C153.23,934.78,156.05,912.07,182.05,897.06Z" transform="translate(-52.94 -514.23)"/><path class="cls-94" d="M182.24,897.08,692.53,602.46c25.93-15,65.16-16.6,87.62-3.63L996.22,723.58c22.46,13,19.64,35.62-6.29,50.59L479.64,1068.78c-25.93,15-65.16,16.6-87.62,3.64L176,947.66C153.49,934.7,156.31,912.05,182.24,897.08Z" transform="translate(-52.94 -514.23)"/><path class="cls-95" d="M182.43,897.1,692.58,602.56c25.86-14.93,65-16.56,87.39-3.62l216,124.7c22.4,12.93,19.59,35.52-6.28,50.45L479.53,1068.63c-25.86,14.93-65,16.55-87.39,3.62l-216-124.7C153.75,934.62,156.56,912,182.43,897.1Z" transform="translate(-52.94 -514.23)"/><path class="cls-96" d="M182.61,897.11l510-294.46c25.79-14.89,64.81-16.51,87.15-3.61L995.69,723.7c22.34,12.9,19.54,35.42-6.25,50.32l-510,294.46c-25.79,14.89-64.82,16.51-87.15,3.61L176.36,947.43C154,934.53,156.82,912,182.61,897.11Z" transform="translate(-52.94 -514.23)"/><path class="cls-97" d="M182.8,897.13,692.68,602.75c25.73-14.85,64.64-16.47,86.92-3.6L995.43,723.76c22.28,12.86,19.49,35.33-6.24,50.18L479.31,1068.32c-25.73,14.85-64.64,16.47-86.92,3.6L176.56,947.32C154.28,934.45,157.07,912,182.8,897.13Z" transform="translate(-52.94 -514.23)"/><path class="cls-98" d="M183,897.15l509.74-294.3c25.66-14.82,64.47-16.43,86.69-3.6L995.17,723.81c22.22,12.83,19.43,35.24-6.23,50.05L479.2,1068.17c-25.66,14.81-64.47,16.42-86.69,3.59L176.76,947.2C154.54,934.37,157.33,912,183,897.15Z" transform="translate(-52.94 -514.23)"/><path class="cls-99" d="M183.17,897.17,692.78,602.94c25.59-14.77,64.3-16.37,86.46-3.58L994.9,723.87c22.16,12.8,19.39,35.15-6.2,49.92L479.09,1068c-25.59,14.78-64.3,16.38-86.46,3.59L177,947.08C154.8,934.29,157.58,911.94,183.17,897.17Z" transform="translate(-52.94 -514.23)"/><path class="cls-100" d="M183.36,897.19,692.83,603c25.52-14.73,64.13-16.33,86.23-3.57L994.64,723.93c22.1,12.76,19.33,35.05-6.19,49.78L479,1067.86c-25.52,14.73-64.12,16.33-86.22,3.57L177.17,947C155.07,934.21,157.84,911.92,183.36,897.19Z" transform="translate(-52.94 -514.23)"/><path class="cls-101" d="M183.55,897.2,692.89,603.14c25.45-14.7,64-16.29,86-3.57L994.38,724c22,12.72,19.27,35-6.18,49.65L478.86,1067.7c-25.45,14.7-63.95,16.29-86,3.57L177.37,946.85C155.33,934.13,158.1,911.9,183.55,897.2Z" transform="translate(-52.94 -514.23)"/><path class="cls-102" d="M183.73,897.22l509.21-294c25.38-14.65,63.78-16.24,85.76-3.55L994.11,724.05c22,12.69,19.23,34.86-6.15,49.51l-509.21,294c-25.38,14.65-63.78,16.25-85.76,3.56L177.58,946.73C155.59,934,158.35,911.88,183.73,897.22Z" transform="translate(-52.94 -514.23)"/><path class="cls-103" d="M183.92,897.24,693,603.33c25.31-14.62,63.6-16.2,85.53-3.55L993.85,724.11c21.92,12.65,19.17,34.76-6.14,49.37L478.64,1067.4c-25.31,14.61-63.6,16.2-85.53,3.54L177.78,946.62C155.86,934,158.61,911.85,183.92,897.24Z" transform="translate(-52.94 -514.23)"/><path class="cls-104" d="M184.11,897.26,693,603.42c25.24-14.57,63.43-16.15,85.29-3.53L993.59,724.16c21.86,12.63,19.12,34.67-6.13,49.25L478.53,1067.24c-25.25,14.58-63.43,16.16-85.29,3.54L178,946.5C156.12,933.88,158.86,911.83,184.11,897.26Z" transform="translate(-52.94 -514.23)"/><path class="cls-105" d="M184.29,897.28l508.8-293.76c25.18-14.54,63.26-16.11,85.06-3.53L993.32,724.22c21.81,12.59,19.07,34.58-6.1,49.11l-508.8,293.76c-25.18,14.53-63.26,16.11-85.06,3.52L178.19,946.39C156.38,933.8,159.12,911.81,184.29,897.28Z" transform="translate(-52.94 -514.23)"/><path class="cls-106" d="M184.48,897.29,693.14,603.62c25.11-14.5,63.09-16.07,84.83-3.52L993.06,724.28c21.74,12.55,19,34.48-6.09,49L478.3,1066.93c-25.1,14.5-63.08,16.07-84.82,3.52L178.39,946.27C156.65,933.72,159.37,911.79,184.48,897.29Z" transform="translate(-52.94 -514.23)"/><path class="cls-107" d="M184.67,897.31,693.2,603.71c25-14.45,62.91-16,84.59-3.5l215,124.13c21.68,12.52,19,34.38-6.08,48.84l-508.53,293.6c-25,14.46-62.91,16-84.59,3.51l-215-124.14C156.91,933.63,159.63,911.77,184.67,897.31Z" transform="translate(-52.94 -514.23)"/><path class="cls-108" d="M184.85,897.33l508.4-293.52c25-14.42,62.74-16,84.36-3.5L992.53,724.4c21.63,12.48,18.92,34.29-6,48.7l-508.4,293.53c-25,14.41-62.74,16-84.36,3.49L178.8,946C157.17,933.55,159.88,911.75,184.85,897.33Z" transform="translate(-52.94 -514.23)"/><path class="cls-109" d="M185,897.35,693.3,603.9c24.9-14.37,62.56-15.93,84.13-3.48l214.84,124c21.56,12.45,18.86,34.19-6,48.57L478,1066.47c-24.9,14.38-62.57,15.94-84.13,3.49L179,945.92C157.43,933.47,160.14,911.72,185,897.35Z" transform="translate(-52.94 -514.23)"/><path class="cls-110" d="M185.23,897.37,693.35,604c24.83-14.34,62.39-15.89,83.9-3.48L992,724.51c21.5,12.42,18.8,34.11-6,48.44L477.86,1066.32c-24.83,14.33-62.39,15.89-83.9,3.48L179.2,945.8C157.7,933.39,160.39,911.7,185.23,897.37Z" transform="translate(-52.94 -514.23)"/><path class="cls-111" d="M185.41,897.38l508-293.28c24.76-14.3,62.22-15.85,83.67-3.47L991.74,724.57c21.45,12.38,18.76,34-6,48.31l-508,293.28c-24.76,14.3-62.22,15.85-83.67,3.47L179.4,945.69C158,933.31,160.65,911.68,185.41,897.38Z" transform="translate(-52.94 -514.23)"/><path class="cls-112" d="M185.6,897.4,693.45,604.19c24.7-14.25,62-15.8,83.43-3.46l214.6,123.9c21.38,12.35,18.7,33.91-6,48.17L477.64,1066c-24.7,14.26-62.05,15.8-83.44,3.46L179.61,945.57C158.22,933.22,160.91,911.66,185.6,897.4Z" transform="translate(-52.94 -514.23)"/><path class="cls-113" d="M185.78,897.42,693.5,604.29c24.63-14.22,61.88-15.76,83.2-3.45L991.22,724.69c21.32,12.31,18.65,33.82-6,48L477.52,1065.86c-24.62,14.21-61.87,15.76-83.19,3.44L179.81,945.45C158.49,933.14,161.16,911.64,185.78,897.42Z" transform="translate(-52.94 -514.23)"/><path class="cls-114" d="M896.69,856.42l26.07-15c3.26-1.88,5.89-6.92,5.89-11.26h0c0-4.34-2.63-6.33-5.89-4.45l-26.07,15.05c-3.25,1.88-5.89,6.92-5.89,11.26h0C890.8,856.3,893.44,858.3,896.69,856.42Z" transform="translate(-52.94 -514.23)"/><path class="cls-115" d="M894.35,855.59a3.21,3.21,0,0,0,1.57-.5L922,840c2.78-1.6,5.13-6.15,5.13-9.93,0-1.67-.53-3.62-2-3.62a3.25,3.25,0,0,0-1.57.5l-26.07,15c-2.78,1.6-5.12,6.15-5.12,9.93C892.34,853.64,892.87,855.59,894.35,855.59Z" transform="translate(-52.94 -514.23)"/><path class="cls-116" d="M850.15,883.29l26.07-15c3.26-1.88,5.89-6.92,5.89-11.26h0c0-4.34-2.63-6.33-5.89-4.45l-26.07,15.05c-3.25,1.88-5.89,6.92-5.89,11.26h0C844.26,883.17,846.9,885.17,850.15,883.29Z" transform="translate(-52.94 -514.23)"/><path class="cls-117" d="M847.81,882.46a3.32,3.32,0,0,0,1.57-.5l26.08-15.05c2.77-1.61,5.12-6.15,5.12-9.93,0-1.67-.53-3.62-2-3.62a3.25,3.25,0,0,0-1.57.5l-26.07,15c-2.77,1.6-5.12,6.15-5.12,9.93C845.8,880.51,846.33,882.46,847.81,882.46Z" transform="translate(-52.94 -514.23)"/><path class="cls-118" d="M431.41,1070.23h0c-12,0-23.26-2.71-31.79-7.64L191.18,942.25c-8.78-5.07-13.62-11.89-13.62-19.2s4.77-14,13.43-19L710.14,604.32c8.4-4.85,19.56-7.53,31.42-7.53s23.26,2.72,31.79,7.64L981.78,724.77c8.79,5.07,13.63,11.89,13.63,19.21s-4.77,14-13.43,19L462.83,1062.7C454.43,1067.56,443.27,1070.23,431.41,1070.23ZM741.56,599.76c-11.35,0-22,2.53-29.94,7.13L192.47,906.61c-7.7,4.45-11.94,10.29-11.94,16.44s4.31,12.11,12.14,16.63L401.11,1060c8.08,4.66,18.84,7.23,30.3,7.23h0c11.35,0,22-2.53,29.94-7.12L980.49,760.41c7.71-4.45,12-10.28,12-16.43s-4.31-12.12-12.14-16.64L771.86,607C763.78,602.33,753,599.76,741.56,599.76Z" transform="translate(-52.94 -514.23)"/><path class="cls-119" d="M887.53,691.41l-51.7-29.85c-2-1.18-1.78-3.23.57-4.59h0c2.35-1.35,5.9-1.5,7.93-.33L896,686.5c2,1.17,1.78,3.22-.57,4.58h0C893.12,692.44,889.57,692.58,887.53,691.41Z" transform="translate(-52.94 -514.23)"/><path class="cls-120" d="M604.59,832.1,571,812.72l-7.83,4.53,33.57,19.38Zm-15.25,12.08-40-23.12-7.84,4.53,40,23.12Zm49.23,7.54-27.5-15.88-7.84,4.52,27.5,15.88Zm17.19,9.92L645,855.45,637.2,860l10.72,6.19ZM498.22,770.69,473.7,756.53l-7.83,4.53,24.52,14.16Zm-5.14,17.92L455.62,767l-7.84,4.52,37.46,21.63Zm102.73,59.31L588,852.44l10.52,6.07,7.84-4.52Zm-47.43-48.27-43.69-25.22L496.86,779l43.68,25.22ZM564.55,809l-9.7-5.61L547,807.91l9.71,5.6Zm-21.72,8.34-21-12.15L514,809.71l21,12.14Zm-43.28-25-7.84,4.53,15.78,9.1,7.83-4.52ZM605,862.25l28.72,16.58,7.83-4.53L612.8,857.72Zm92.66,23.56-35.39-20.43-7.84,4.52,35.39,20.44ZM720.47,899l-16.38-9.45-7.84,4.52,16.38,9.46Zm-198-29.52L502,857.67,496.14,861l20.47,11.81Zm6.42-5.09L559.21,882l5.83-3.37L534.69,861Zm55.58,16.71,25.67,15,5.83-3.36-25.66-15ZM559,897.5l36.79,21.41,5.83-3.37-36.79-21.4Zm5-12.76,40,23.34,5.84-3.37-40-23.34Zm-128.14-74,11.73,6.77,5.84-3.36-11.74-6.78Zm31.49,27-7.22-4.17-5.83,3.37,7.22,4.17Zm6.54-11.76-15.65-9-5.83,3.37,15.65,9Zm34.6,20-29.79-17.2-5.83,3.36,29.79,17.2Zm29.36,48.18-44.84-26-5.83,3.36,44.84,26Zm-81.31-87,32.49,18.76,5.84-3.37-32.5-18.76Zm79.13,45.69,43.94,25.52,5.83-3.37-43.94-25.52Zm2.6,63.8,5.83-3.37-31.44-18.31-5.84,3.37Zm58.34,11.57-53.94-31.3-5.83,3.36,53.94,31.31Zm-59.92-81.52-25-14.42-5.84,3.37,25,14.42Zm-74.37,3.68-25.27-14.6-5.84,3.37,25.28,14.59Zm67.53,7.91-16.55-9.55-5.83,3.36L524,861.61ZM432.25,833l-15.65-9-5.83,3.37,15.65,9ZM417,815.35l32.49,18.76,5.84-3.37L422.84,812Zm23.75,38-32.5-18.76L402.43,838l32.5,18.76Zm56.4,1.49-25-14.42-5.83,3.37,25,14.42Zm10.7,37.25L487.4,880.33l-5.83,3.37L502,895.51Zm-37.64.54L478,897.2l5.83-3.37-7.82-4.51Zm12.64,7.3,21.36,12.33,5.83-3.36-21.36-12.34ZM451.78,866.5l25,14.42,5.84-3.37-25-14.42Zm-36.63-5.61,15.65,9,5.83-3.36-15.64-9Zm73.07,4.38-21.06-12.16-5.84,3.36,21.07,12.16Zm-48.48-5.72,7.23,4.17,5.83-3.37-7.23-4.17Zm210.8,53.13-5.83,3.37,24.72,14,5.83-3.37ZM623.66,935l18.86,10.65,5.83-3.37L629.5,931.61Zm-27.59-.4,33,18.82,5.83-3.37-33-18.82ZM590.58,947l24.72,14,5.83-3.37-24.72-14Zm-47.47-27.57,42.66,24.79,5.83-3.36L548.94,916ZM435.62,872.7l29.79,17.2,5.83-3.36-29.79-17.2ZM457.57,801l-32.15-18.6-5.83,3.36,32.15,18.61Zm157.35,97.89,25,14.42,5.84-3.37-25-14.41Zm-121-70.2,7.22,4.17,5.83-3.37-7.22-4.17ZM661.35,934.23,613.76,907l-5.83,3.37,47.59,27.24Zm-35.65-4.81-19.22-11.1-5.83,3.37,19.22,11.09Zm-65.65-38.06-32.8-19.1-5.83,3.37,32.8,19.09ZM436.9,804.56,412,790.13l-5.84,3.36,24.94,14.44Zm-84.59,20,41.48,24,5.83-3.37-41.48-24Zm51.14,7.29L371.6,813.43l-5.83,3.37,31.85,18.43Zm8.34-10.72-26.74-15.48L379.22,809,406,824.51ZM418,809.2l-19.51-11.3-5.83,3.36,19.51,11.31Zm-19.41,42.14,11.73,6.77,5.83-3.36L404.44,848Z" transform="translate(-52.94 -514.23)"/><g class="cls-121"><path class="cls-122" d="M899,748.68l29.9,17.26a4.9,4.9,0,0,0,4.46,0c1.23-.71,1.22-1.86,0-2.57l-29.91-17.27a4.94,4.94,0,0,0-4.46,0C897.79,746.81,897.8,748,899,748.68Zm26.85,19L896,750.44a4.94,4.94,0,0,0-4.46,0c-1.23.71-1.22,1.86,0,2.58l29.9,17.26a4.94,4.94,0,0,0,4.46,0C927.13,769.57,927.12,768.42,925.89,767.71Zm-7.5,4.33-29.91-17.27a4.94,4.94,0,0,0-4.46,0c-1.22.71-1.22,1.86,0,2.58l29.9,17.26a4.94,4.94,0,0,0,4.46,0C919.63,773.9,919.62,772.75,918.39,772Z" transform="translate(-52.94 -514.23)"/></g><polygon class="cls-119" points="645.28 259.27 689.41 375.14 845.96 284.75 645.28 259.27"/><polygon class="cls-119" points="684.65 374.53 640.51 258.67 439.83 233.18 684.65 374.53"/><polygon class="cls-119" points="644.23 256.52 844.92 282 600.09 140.65 644.23 256.52"/><polygon class="cls-119" points="438.78 230.43 639.47 255.92 595.33 140.05 438.78 230.43"/><polygon class="cls-120" points="689.91 140.74 674.44 149.67 658.88 140.68 647.21 147.42 674.52 163.19 701.65 147.52 689.91 140.74"/><polygon class="cls-120" points="674.42 146.23 686.92 139.01 674.35 131.75 661.85 138.97 674.42 146.23"/><polygon class="cls-120" points="674.33 128.35 704.59 145.82 717.73 138.24 674.25 113.13 631.03 138.08 644.26 145.72 674.33 128.35"/><g class="cls-121"><polygon class="cls-122" points="278.38 390.92 161.89 390.71 278.74 458.18 278.38 390.92"/><polygon class="cls-122" points="282.34 321.17 282.71 388.42 399.2 388.63 282.34 321.17"/><polygon class="cls-122" points="278.37 388.41 278 321.16 161.88 388.2 278.37 388.41"/><polygon class="cls-122" points="399.21 391.14 282.72 390.93 283.09 458.19 399.21 391.14"/><polygon class="cls-122" points="401.38 389.89 401.38 389.89 401.38 389.89 401.38 389.89"/><polygon class="cls-122" points="280.92 459.44 280.92 459.44 280.92 459.44 280.92 459.44"/></g><g class="cls-121"><polygon class="cls-122" points="408.46 466.44 291.97 466.23 408.82 533.69 408.46 466.44"/><polygon class="cls-122" points="412.42 396.68 412.79 463.94 529.28 464.15 412.42 396.68"/><polygon class="cls-122" points="408.44 463.93 408.08 396.68 291.96 463.72 408.44 463.93"/><polygon class="cls-122" points="529.29 466.66 412.8 466.45 413.17 533.7 529.29 466.66"/><polygon class="cls-122" points="531.46 465.41 531.46 465.41 531.46 465.41 531.46 465.41"/><polygon class="cls-122" points="411 534.95 411 534.95 411 534.95 411 534.95"/></g><g class="cls-123"><path d="M760.12,759.47l7.84-4.53-33.57-19.38-7.84,4.53ZM712.66,743.9l-7.84,4.53,40,23.11L752.7,767Zm81.43,35.18,7.84-4.52-27.5-15.88-7.84,4.52Zm14.31-.79-7.84,4.53,33,18.92,7.84-4.53Zm-49.23-7.54-7.83,4.53,10.51,6.07,7.84-4.52Zm-49.79-49.69L651.59,688l-7.84,4.53,57.79,33.09Zm10.7,15.29,7.84-4.53-12.07-7L708,729.32ZM685.16,728l-7.84,4.53,21,12.14,7.84-4.52Zm-29.3-16.74L648,715.81l22.83,13,7.84-4.52Zm112.46,73.81L797,801.67l7.84-4.53-28.72-16.58Z" transform="translate(-52.94 -514.23)"/></g><path class="cls-124" d="M760.12,756.39l7.84-4.52-33.57-19.39L726.55,737Zm-47.46-15.57-7.84,4.53,40,23.12,7.84-4.53ZM794.09,776l7.84-4.53-27.5-15.88-7.84,4.53Zm14.31-.79-7.84,4.52,33,18.92,7.84-4.53Zm-49.23-7.54-7.83,4.52,10.51,6.07,7.84-4.52ZM709.38,718,651.59,684.9l-7.84,4.52,57.79,33.09Zm10.7,15.28,7.84-4.52-12.07-7L708,726.25ZM685.16,725l-7.84,4.52,21,12.14,7.84-4.52Zm-29.3-16.75L648,712.73l22.83,13,7.84-4.53ZM768.32,782,797,798.59l7.84-4.52-28.72-16.58Z" transform="translate(-52.94 -514.23)"/><g class="cls-125"><path class="cls-126" d="M702,859c-8,0-15.28-1.71-20.9-5l-49.59-28.63-49.59-28.63c-6.8-3.92-10.69-10-10.69-16.61,0-7.49,4.92-14.63,13.5-19.58a53.48,53.48,0,0,1,26-6.57c8,0,15.27,1.71,20.89,4.95l49.59,28.64,49.59,28.63c6.79,3.92,10.69,10,10.69,16.61,0,7.49-4.92,14.63-13.5,19.58A53.47,53.47,0,0,1,702,859Z" transform="translate(-52.94 -514.23)"/><path class="cls-127" d="M586.58,761.14h0a52,52,0,0,1,25.35-6.38,42.71,42.71,0,0,1,17.93,3.63c.77.36,1.67.83,2.39,1.25l48.29,27.88,4.11,2.37,44.18,25.51a23.79,23.79,0,0,1,8.69,8.42,16.74,16.74,0,0,1,2.13,7.44c.24,7.22-4.42,14.23-12.87,19.1h0a52,52,0,0,1-25.34,6.38,42.71,42.71,0,0,1-17.93-3.63c-.78-.36-1.68-.84-2.4-1.25L632.82,824l-4.11-2.37L584.53,796.1a23.86,23.86,0,0,1-8.69-8.42,16.86,16.86,0,0,1-2.12-7.44C573.47,773,578.14,766,586.58,761.14Z" transform="translate(-52.94 -514.23)"/><path class="cls-128" d="M588.44,761.72h0a50.55,50.55,0,0,1,24.67-6.18,41.36,41.36,0,0,1,17.42,3.58c.7.33,1.68.85,2.33,1.22l47,27.13,4,2.31,43,24.82c3.27,1.89,7,5.26,8.59,8a16.71,16.71,0,0,1,2.34,7.08c.49,6.95-3.92,13.83-12.23,18.62h0a50.43,50.43,0,0,1-24.66,6.19,41.37,41.37,0,0,1-17.43-3.58c-.7-.33-1.68-.85-2.33-1.23l-47-27.13-4-2.3-43-24.82c-3.27-1.89-7-5.26-8.59-8a16.49,16.49,0,0,1-2.34-7.08C575.72,773.39,580.13,766.52,588.44,761.72Z" transform="translate(-52.94 -514.23)"/><path class="cls-129" d="M590.29,762.31h0a49,49,0,0,1,24-6,39.92,39.92,0,0,1,16.93,3.53c.62.29,1.68.86,2.26,1.2l45.69,26.38,3.89,2.24,41.79,24.13c2.91,1.68,7,5.21,8.5,7.64a16.59,16.59,0,0,1,2.55,6.72c.74,6.69-3.41,13.43-11.59,18.14h0a48.92,48.92,0,0,1-24,6,40.15,40.15,0,0,1-16.94-3.53c-.61-.3-1.68-.87-2.26-1.2l-45.69-26.38-3.88-2.25-41.8-24.13c-2.91-1.68-7-5.2-8.5-7.63a16.64,16.64,0,0,1-2.55-6.72C578,773.77,582.12,767,590.29,762.31Z" transform="translate(-52.94 -514.23)"/><path class="cls-130" d="M592.15,762.9h0a47.41,47.41,0,0,1,23.31-5.8,38.66,38.66,0,0,1,16.43,3.48c.54.26,1.68.88,2.18,1.17l44.4,25.63,3.78,2.18L722.85,813c2.54,1.47,7.08,5.15,8.41,7.24a16.88,16.88,0,0,1,2.76,6.37c1,6.42-2.92,13-11,17.67h0a47.5,47.5,0,0,1-23.3,5.8,38.85,38.85,0,0,1-16.44-3.49c-.54-.26-1.68-.88-2.19-1.17l-44.39-25.63L633,817.61l-40.6-23.44c-2.54-1.47-7.08-5.15-8.41-7.24a16.9,16.9,0,0,1-2.76-6.36C580.2,774.14,584.11,767.54,592.15,762.9Z" transform="translate(-52.94 -514.23)"/><path class="cls-131" d="M594,763.48h0a45.91,45.91,0,0,1,22.63-5.6,37.33,37.33,0,0,1,15.93,3.43c.47.22,1.69.89,2.12,1.14l43.1,24.88,3.66,2.12,39.41,22.76c2.18,1.26,7.13,5.07,8.32,6.84a17.21,17.21,0,0,1,3,6c1.25,6.16-2.41,12.63-10.32,17.19h0a45.88,45.88,0,0,1-22.63,5.6,37.36,37.36,0,0,1-15.93-3.43c-.46-.22-1.69-.89-2.12-1.14L638.05,818.4l-3.67-2.12L595,793.53c-2.18-1.26-7.13-5.08-8.32-6.85a17.26,17.26,0,0,1-3-6C582.44,774.51,586.1,768.05,594,763.48Z" transform="translate(-52.94 -514.23)"/><path class="cls-132" d="M595.86,764.07h0a44.36,44.36,0,0,1,21.95-5.41A36.18,36.18,0,0,1,633.24,762c.39.19,1.69.91,2,1.12l41.79,24.13,3.56,2.05,38.22,22.07c1.82,1.05,7.19,5,8.22,6.45,1.37,1.92,2.67,3.63,3.19,5.65,1.5,5.89-1.92,12.23-9.69,16.71h0a44.36,44.36,0,0,1-22,5.41,36.18,36.18,0,0,1-15.43-3.38c-.39-.19-1.69-.91-2.05-1.12L639.35,817l-3.55-2-38.22-22.07c-1.82-1-7.2-5-8.22-6.45-1.37-1.92-2.67-3.63-3.19-5.64C584.67,774.89,588.09,768.56,595.86,764.07Z" transform="translate(-52.94 -514.23)"/><path class="cls-133" d="M597.71,764.66h0A42.88,42.88,0,0,1,619,759.44a34.92,34.92,0,0,1,14.93,3.33c.3.15,1.69.92,2,1.09l40.5,23.38,3.45,2,37,21.38c1.45.84,7.27,4.92,8.12,6.06,1.4,1.85,2.81,3.39,3.4,5.28,1.77,5.64-1.42,11.83-9,16.24h0a42.82,42.82,0,0,1-21.27,5.22,34.85,34.85,0,0,1-14.93-3.33c-.31-.16-1.7-.93-2-1.09l-40.5-23.38-3.45-2-37-21.37c-1.46-.84-7.28-4.92-8.13-6.06-1.39-1.85-2.8-3.39-3.4-5.29C586.9,775.26,590.08,769.06,597.71,764.66Z" transform="translate(-52.94 -514.23)"/><path class="cls-134" d="M599.57,765.24h0a41.4,41.4,0,0,1,20.59-5,33.56,33.56,0,0,1,14.43,3.28l1.91,1.06,39.2,22.64,3.34,1.92,35.83,20.69c1.09.63,7.55,4.72,8,5.66a12.17,12.17,0,0,1,3.6,4.93c2,5.37-.91,11.43-8.41,15.76h0a41.3,41.3,0,0,1-20.59,5,33.5,33.5,0,0,1-14.44-3.29c-.23-.11-1.69-.93-1.91-1.06L642,814.21l-3.34-1.93L602.8,791.59c-1.09-.62-7.55-4.71-8-5.66a12.16,12.16,0,0,1-3.61-4.93C589.12,775.64,592.07,769.57,599.57,765.24Z" transform="translate(-52.94 -514.23)"/><path class="cls-135" d="M601.42,765.83h0A39.92,39.92,0,0,1,621.34,761a32.31,32.31,0,0,1,13.93,3.23l1.84,1L675,787.15l3.23,1.86,34.64,20c.72.42,7.61,4.64,7.94,5.27a11.84,11.84,0,0,1,3.82,4.57c2.3,5.1-.42,11-7.78,15.28h0A39.78,39.78,0,0,1,697,839,32.36,32.36,0,0,1,683,835.73l-1.84-1-37.9-21.88L640,811,605.4,791c-.72-.42-7.61-4.64-7.94-5.27a12,12,0,0,1-3.82-4.57C591.34,776,594.06,770.08,601.42,765.83Z" transform="translate(-52.94 -514.23)"/><path class="cls-136" d="M603.28,766.42h0a38.13,38.13,0,0,1,19.23-4.64A30.79,30.79,0,0,1,636,765l1.76,1,36.6,21.13,3.13,1.81,33.44,19.31c.37.21,7.69,4.55,7.85,4.87a11.86,11.86,0,0,1,4,4.21c2.59,4.82.09,10.63-7.14,14.81h0a38.25,38.25,0,0,1-19.23,4.63A30.89,30.89,0,0,1,683,833.56l-1.77-1-36.6-21.13-3.12-1.8L608,790.31c-.36-.21-7.68-4.56-7.84-4.87a12,12,0,0,1-4-4.22C593.55,776.4,596.05,770.59,603.28,766.42Z" transform="translate(-52.94 -514.23)"/><path class="cls-137" d="M682.89,831.38l-40-23.1-40-23.09c-8.07-4.66-7.06-12.81,2.26-18.19h0c9.32-5.38,23.42-6,31.5-1.3l40,23.1,40,23.09c8.07,4.67,7.06,12.81-2.26,18.19h0C705.06,835.46,691,836,682.89,831.38Z" transform="translate(-52.94 -514.23)"/></g><path class="cls-138" d="M685,820.19l-99.17-57.26c-10-5.77-8.76-15.86,2.8-22.54h0c11.55-6.67,29-7.39,39-1.61L726.88,796c10,5.77,8.75,15.86-2.8,22.54h0C712.53,825.25,695.05,826,685,820.19Z" transform="translate(-52.94 -514.23)"/><polygon class="cls-113" points="630.51 277.96 627.9 269.24 623.73 271.65 596.92 256.17 592.77 258.56 619.58 274.04 615.41 276.45 630.51 277.96"/><path class="cls-113" d="M712.14,806.88l-.16-.09,3.9-2.25c2.49-1.44,2.48-3.78,0-5.23l-3.14-1.81a10,10,0,0,0-9.06,0l-3.89,2.25-.16-.09a4.63,4.63,0,0,0-4.21,0l-9.66,5.57a1.29,1.29,0,0,0,0,2.44l12.54,7.24a4.68,4.68,0,0,0,4.22,0l9.65-5.58A1.28,1.28,0,0,0,712.14,806.88Zm-13.56,1.49-2.28,1.32-1.57-.91,2.28-1.31c-.33-.53-.14-1.15.6-1.57a4.06,4.06,0,0,1,3.67,0c1,.59,1,1.54,0,2.12A4.08,4.08,0,0,1,698.58,808.37Zm10.77-3.11-7-4,3.11-1.8a5.7,5.7,0,0,1,5.15,0l1.79,1c1.42.82,1.43,2.16,0,3Z" transform="translate(-52.94 -514.23)"/><path class="cls-139" d="M564.1,975.68a16.92,16.92,0,0,0-10.9-1.57c1.15-2.14.25-4.58-2.71-6.29a16.93,16.93,0,0,0-15.31,0c-7.71,4.45-2.75,18.31-2.75,18.31s24,2.87,31.72-1.58C568.36,982.08,568.34,978.12,564.1,975.68Z" transform="translate(-52.94 -514.23)"/><path class="cls-126" d="M284.24,1102.39,80.15,983.85a20.06,20.06,0,0,1-.61-34.39l257-163.63a20.07,20.07,0,0,1,20.69-.36L574.54,911.84a20.08,20.08,0,0,1,0,34.74L304.36,1102.36A20.09,20.09,0,0,1,284.24,1102.39Z" transform="translate(-52.94 -514.23)"/><path class="cls-127" d="M285.52,1099.38l-199.71-116a20.17,20.17,0,0,1-.56-34.6L336.39,789.94a20.16,20.16,0,0,1,20.74-.34L568.86,912.73a20.17,20.17,0,0,1,0,34.91L305.74,1099.35A20.18,20.18,0,0,1,285.52,1099.38Z" transform="translate(-52.94 -514.23)"/><path class="cls-128" d="M286.8,1096.36,91.48,982.89A20.27,20.27,0,0,1,91,948.08L336.25,794a20.29,20.29,0,0,1,20.8-.31L563.19,913.62a20.28,20.28,0,0,1,0,35.09L307.12,1096.34A20.25,20.25,0,0,1,286.8,1096.36Z" transform="translate(-52.94 -514.23)"/><path class="cls-129" d="M288.08,1093.35,97.14,982.42a20.39,20.39,0,0,1-.46-35L336.11,798.14a20.36,20.36,0,0,1,20.85-.27L557.51,914.5a20.39,20.39,0,0,1,0,35.28l-249,143.55A20.4,20.4,0,0,1,288.08,1093.35Z" transform="translate(-52.94 -514.23)"/><path class="cls-130" d="M289.36,1090.34,102.81,981.94a20.49,20.49,0,0,1-.42-35.24L336,802.24a20.47,20.47,0,0,1,20.9-.24l195,113.39a20.49,20.49,0,0,1,0,35.45l-242,139.47A20.47,20.47,0,0,1,289.36,1090.34Z" transform="translate(-52.94 -514.23)"/><path class="cls-131" d="M290.63,1087.33,108.47,981.46a20.59,20.59,0,0,1-.36-35.45L335.83,806.34a20.56,20.56,0,0,1,20.95-.21L546.16,916.28a20.59,20.59,0,0,1,.05,35.63L311.27,1087.3A20.58,20.58,0,0,1,290.63,1087.33Z" transform="translate(-52.94 -514.23)"/><path class="cls-132" d="M291.91,1084.32,114.13,981a20.7,20.7,0,0,1-.31-35.66L335.69,810.44a20.72,20.72,0,0,1,21-.18L540.49,917.17a20.69,20.69,0,0,1,0,35.81L312.66,1084.29A20.69,20.69,0,0,1,291.91,1084.32Z" transform="translate(-52.94 -514.23)"/><path class="cls-133" d="M293.19,1081.31,119.8,980.5a20.8,20.8,0,0,1-.26-35.87l216-130.08a20.78,20.78,0,0,1,21.06-.16l178.2,103.66a20.8,20.8,0,0,1,.05,36L314,1081.28A20.78,20.78,0,0,1,293.19,1081.31Z" transform="translate(-52.94 -514.23)"/><path class="cls-134" d="M294.47,1078.3,125.46,980a20.9,20.9,0,0,1-.21-36.08L335.41,818.65a20.88,20.88,0,0,1,21.11-.13L529.14,918.94a20.91,20.91,0,0,1,.05,36.17L315.43,1078.27A20.91,20.91,0,0,1,294.47,1078.3Z" transform="translate(-52.94 -514.23)"/><path class="cls-135" d="M295.75,1075.29,131.13,979.54a21,21,0,0,1-.16-36.29l204.3-120.5a21,21,0,0,1,21.16-.09l167,97.17a21,21,0,0,1,0,36.35l-206.7,119.08A21,21,0,0,1,295.75,1075.29Z" transform="translate(-52.94 -514.23)"/><path class="cls-136" d="M297,1072.28,136.79,979.06a21.11,21.11,0,0,1-.11-36.5L335.13,826.85a21.1,21.1,0,0,1,21.22-.06l161.43,93.92a21.12,21.12,0,0,1,.06,36.54l-199.65,115A21.11,21.11,0,0,1,297,1072.28Z" transform="translate(-52.94 -514.23)"/><path class="cls-137" d="M298.31,1069.27,142.46,978.59a21.22,21.22,0,0,1-.06-36.72L335,831a21.22,21.22,0,0,1,21.27,0L512.11,921.6a21.21,21.21,0,0,1,.06,36.71L319.58,1069.23A21.2,21.2,0,0,1,298.31,1069.27Z" transform="translate(-52.94 -514.23)"/><polygon class="cls-140" points="247.53 552.77 0 408.93 286.74 243.75 534.26 387.59 247.53 552.77"/><polygon class="cls-141" points="247.53 549.77 4.33 406.43 0 408.93 247.53 552.77 534.09 387.65 529.77 387.15 247.53 549.77"/><path class="cls-142" d="M260,968l-20.37-11.76-5.81,3.35,20.38,11.76Zm6.4-5.08,21.27,12.28,5.81-3.35-21.28-12.28Zm32,3,9.29,5.36,5.81-3.35-9.29-5.36Zm-25.3,16.34L293.44,994l5.8-3.35-20.37-11.76ZM292.45,978l9.1,5.26,5.81-3.35-9.1-5.26ZM173.8,909.49l11.69,6.75,5.81-3.36-11.69-6.74Zm31.36,26.87L198,932.21l-5.8,3.35,7.19,4.15Zm6.51-11.71-15.58-9L190.28,919l15.58,9Zm34.46,19.89-29.67-17.12-5.8,3.35,29.66,17.12ZM252,978.87l-21.28-12.28-5.8,3.35,21.27,12.28Zm-57.6-73,32.36,18.68,5.81-3.35L200.2,902.55Zm78.8,45.49,20.38,11.76,5.8-3.35L279,948.05Zm-20.78,49.89,5.8-3.36-7.94-4.58-5.8,3.35Zm41.82,2-37.45-21.62L251,985l37.46,21.62Zm-20-58-24.87-14.36-5.81,3.36,24.87,14.35Zm-74.06,3.66L175,934.41l-5.81,3.35,25.17,14.53Zm67.25,7.88-16.48-9.51-5.81,3.35,16.48,9.51Zm-97.21-25.18-15.58-9-5.8,3.35,15.58,9ZM155,914.11l32.36,18.68,5.81-3.35-32.36-18.68ZM178.67,952l-32.36-18.69-5.81,3.36,32.36,18.68Zm56.15,1.48L210,939.13l-5.81,3.35L229,956.84Zm10.66,37.09-20.37-11.76-5.81,3.35,20.37,11.76Zm-55.84-25.53,24.87,14.35,5.8-3.35-24.87-14.36Zm36.28-1.23-21-12.11-5.81,3.35,21,12.11Zm-48.27-5.69,7.19,4.15,5.81-3.35-7.19-4.16Zm170.26,29.71-5.8,3.35,25.94,14.89,5.8-3.35ZM321.15,1010l20.1,11.53,5.8-3.36L327,1006.68Zm-27.48-.39,34.18,19.65,5.81-3.35-34.18-19.65ZM195.41,899.79l-30.12-17.2-5.81,3.35,30.12,17.2Zm117,74.27,24.87,14.36,5.81-3.35-24.87-14.36Zm-80.89-46.7,7.19,4.15,5.8-3.35L237.35,924ZM360,1010.21l-48.71-28.05-5.8,3.36,48.71,28Zm-36.83-5.71-19.13-11-5.81,3.35,19.14,11.05Zm-49.1-28.35-9.28-5.36L259,974.14l9.29,5.36Zm-99.25-72.78-22.93-13-5.8,3.35L169,906.72Zm-33.31,27.19-29.81-17-5.81,3.35,29.82,17Zm8.31-10.68L125.1,905.79l-5.81,3.36L144,923.23ZM156,908l-17.54-9.93-5.8,3.35,17.53,9.94Z" transform="translate(-52.94 -514.23)"/><polygon class="cls-143" points="490.05 391.22 465.18 376.86 459.37 380.21 484.24 394.57 490.05 391.22"/><polygon class="cls-143" points="423.11 352.4 404.94 341.91 399.14 345.26 417.3 355.75 423.11 352.4"/><polygon class="cls-143" points="419.3 365.67 391.55 349.64 385.74 353 413.49 369.02 419.3 365.67"/><polygon class="cls-143" points="460.26 373.85 427.9 355.16 422.1 358.52 454.46 377.2 460.26 373.85"/><polygon class="cls-143" points="456.15 386.94 440.57 377.95 434.76 381.3 450.35 390.3 456.15 386.94"/><polygon class="cls-143" points="424.09 368.44 418.29 371.79 429.97 378.53 435.78 375.18 424.09 368.44"/><g class="cls-125"><polygon class="cls-143" points="365.78 383.07 377.46 389.82 383.27 386.47 371.58 379.72 365.78 383.07"/><polygon class="cls-143" points="397.14 409.94 389.95 405.79 384.14 409.14 391.33 413.3 397.14 409.94"/><polygon class="cls-143" points="403.64 398.23 388.06 389.24 382.26 392.59 397.84 401.58 403.64 398.23"/><polygon class="cls-143" points="386.37 379.49 418.73 398.17 424.53 394.82 392.18 376.14 386.37 379.49"/><polygon class="cls-143" points="346.99 387.69 379.35 406.38 385.15 403.02 352.79 384.34 346.99 387.69"/><polygon class="cls-143" points="387.38 373.37 368.92 362.71 363.11 366.06 381.57 376.72 387.38 373.37"/><polygon class="cls-143" points="423.52 400.94 430.71 405.09 436.52 401.74 429.33 397.59 423.52 400.94"/><polygon class="cls-143" points="366.79 376.95 355.52 370.44 349.71 373.8 360.99 380.31 366.79 376.95"/><polygon class="cls-143" points="348 381.57 342.12 378.18 336.31 381.53 342.19 384.93 348 381.57"/></g><polygon class="cls-144" points="281.4 336.24 171.98 336.04 281.75 399.41 281.4 336.24"/><polygon class="cls-145" points="285.13 270.71 285.47 333.89 394.89 334.09 285.13 270.71"/><polygon class="cls-146" points="281.39 333.88 281.05 270.71 171.97 333.69 281.39 333.88"/><polygon class="cls-147" points="394.91 336.44 285.49 336.25 285.83 399.42 394.91 336.44"/><polygon class="cls-148" points="396.94 335.27 396.94 335.27 396.94 335.27 396.94 335.27"/><polygon class="cls-149" points="283.79 400.6 283.79 400.6 283.79 400.6 283.79 400.6"/><path class="cls-150" d="M401,916.11a17,17,0,0,0-10.9-1.56c1.15-2.15.25-4.59-2.7-6.29-4.25-2.45-11.11-2.47-15.32,0-7.71,4.45-2.75,18.31-2.75,18.31s24,2.86,31.72-1.58C405.25,922.52,405.23,918.56,401,916.11Z" transform="translate(-52.94 -514.23)"/><polygon class="cls-151" points="306.75 337.35 283.47 350.78 260.05 337.26 242.49 347.4 283.58 371.13 324.42 347.55 306.75 337.35"/><polygon class="cls-151" points="283.44 345.61 302.25 334.75 283.33 323.82 264.52 334.68 283.44 345.61"/><polygon class="cls-151" points="283.3 318.71 328.84 345 348.62 333.58 283.18 295.79 218.13 333.34 238.04 344.84 283.3 318.71"/><path class="cls-126" d="M446.33,894.14,261.19,787.26a28.85,28.85,0,0,1-.06-49.92L490.57,604.48a28.86,28.86,0,0,1,28.91,0L704.61,711.34a28.83,28.83,0,0,1,.07,49.91L475.24,894.11A28.83,28.83,0,0,1,446.33,894.14Z" transform="translate(-52.94 -514.23)"/><path class="cls-127" d="M447.62,891.35,264.41,785.58a28.11,28.11,0,0,1-.06-48.65l225.2-130.41a28.11,28.11,0,0,1,28.17,0L700.93,712.26a28.11,28.11,0,0,1,.06,48.65L475.79,891.32A28.11,28.11,0,0,1,447.62,891.35Z" transform="translate(-52.94 -514.23)"/><path class="cls-128" d="M448.91,888.56,267.63,783.9a27.37,27.37,0,0,1-.06-47.38l221-128a27.38,27.38,0,0,1,27.44,0L697.25,713.18a27.37,27.37,0,0,1,.06,47.38l-221,128A27.38,27.38,0,0,1,448.91,888.56Z" transform="translate(-52.94 -514.23)"/><path class="cls-129" d="M450.19,885.77,270.85,782.23a26.65,26.65,0,0,1-.07-46.12L487.51,610.59a26.64,26.64,0,0,1,26.71,0L693.57,714.1a26.65,26.65,0,0,1,.06,46.12L476.9,885.74A26.67,26.67,0,0,1,450.19,885.77Z" transform="translate(-52.94 -514.23)"/><path class="cls-130" d="M451.48,883,274.06,780.55A25.92,25.92,0,0,1,274,735.7L486.49,612.62a25.94,25.94,0,0,1,26,0L689.89,715a25.92,25.92,0,0,1,.06,44.85L477.46,883A25.94,25.94,0,0,1,451.48,883Z" transform="translate(-52.94 -514.23)"/><path class="cls-131" d="M452.77,880.19,277.28,778.87a25.18,25.18,0,0,1-.06-43.58L485.47,614.66a25.18,25.18,0,0,1,25.25,0L686.2,715.94a25.18,25.18,0,0,1,.06,43.58L478,880.16A25.19,25.19,0,0,1,452.77,880.19Z" transform="translate(-52.94 -514.23)"/><path class="cls-132" d="M454.05,877.4,280.5,777.2a24.45,24.45,0,0,1-.06-42.32l204-118.19a24.45,24.45,0,0,1,24.51,0l173.56,100.2a24.45,24.45,0,0,1,.06,42.32l-204,118.19A24.45,24.45,0,0,1,454.05,877.4Z" transform="translate(-52.94 -514.23)"/><path class="cls-133" d="M455.34,874.61,283.71,775.52a23.72,23.72,0,0,1-.06-41L483.43,618.73a23.72,23.72,0,0,1,23.78,0l171.63,99.09a23.72,23.72,0,0,1,.06,41.05L479.12,874.57A23.7,23.7,0,0,1,455.34,874.61Z" transform="translate(-52.94 -514.23)"/><path class="cls-134" d="M456.63,871.82l-169.7-98a23,23,0,0,1-.06-39.78l195.54-113.3a23,23,0,0,1,23,0l169.7,98a23,23,0,0,1,.06,39.79L479.67,871.78A23,23,0,0,1,456.63,871.82Z" transform="translate(-52.94 -514.23)"/><path class="cls-135" d="M457.91,869,290.15,772.17a22.26,22.26,0,0,1-.06-38.52l191.3-110.86a22.28,22.28,0,0,1,22.32,0l167.77,96.86a22.26,22.26,0,0,1,0,38.52L480.23,869A22.28,22.28,0,0,1,457.91,869Z" transform="translate(-52.94 -514.23)"/><path class="cls-136" d="M459.2,866.24,293.36,770.49a21.53,21.53,0,0,1-.05-37.25L480.37,624.83a21.53,21.53,0,0,1,21.59,0L667.8,720.54a21.53,21.53,0,0,1,.05,37.25L480.78,866.2A21.53,21.53,0,0,1,459.2,866.24Z" transform="translate(-52.94 -514.23)"/><path class="cls-137" d="M460.49,863.45,296.58,768.81a20.79,20.79,0,0,1-.06-36l182.83-106a20.82,20.82,0,0,1,20.85,0l163.91,94.63a20.8,20.8,0,0,1,.06,36l-182.83,106A20.8,20.8,0,0,1,460.49,863.45Z" transform="translate(-52.94 -514.23)"/><polygon class="cls-152" points="410.93 348.24 176.71 213.02 433.84 64.44 668.06 199.67 410.93 348.24"/><polygon class="cls-153" points="630.67 221.13 396.45 85.9 444.49 58.29 678.71 193.52 630.67 221.13"/><polygon class="cls-113" points="536.14 238.56 363.55 138.91 399.59 118.69 572.19 218.34 536.14 238.56"/><polygon class="cls-113" points="485.18 268.48 312.58 168.83 348.63 148.61 521.22 248.26 485.18 268.48"/><path class="cls-154" d="M452.19,826.39l-89.43-51.63c-8.68-5-7.59-13.77,2.43-19.55h0c10-5.79,25.19-6.42,33.87-1.41l89.43,51.64c8.68,5,7.59,13.76-2.43,19.55h0C476,830.78,460.87,831.4,452.19,826.39Z" transform="translate(-52.94 -514.23)"/><polygon class="cls-155" points="479.86 298.77 260.63 172.2 262.64 171.35 481.86 297.92 479.86 298.77"/><path class="cls-142" d="M683.15,706.72l12,0c1.05,0,1.89-.48,1.89-1.08s-.85-1.09-1.9-1.09l-12,0,0-6.94c0-.6-.85-1.09-1.89-1.09s-1.88.48-1.88,1.08l0,6.94-12,0c-1,0-1.89.48-1.88,1.08a.93.93,0,0,0,.55.77,2.74,2.74,0,0,0,1.34.32l12,0,0,6.93a.93.93,0,0,0,.55.77,2.74,2.74,0,0,0,1.34.32c1,0,1.89-.48,1.88-1.08Z" transform="translate(-52.94 -514.23)"/><polygon class="cls-141" points="410.93 345.75 180.3 210.94 176.71 213.02 410.93 348.24 678.2 193.55 674.6 193.13 410.93 345.75"/><polygon class="cls-156" points="395.28 287.43 392.67 278.71 388.5 281.12 361.69 265.64 357.54 268.04 384.35 283.51 380.18 285.92 395.28 287.43"/><polygon class="cls-156" points="418.87 298.61 412.3 302.4 405.69 298.59 400.74 301.45 412.33 308.14 423.86 301.49 418.87 298.61"/><polygon class="cls-156" points="412.29 300.94 417.6 297.88 412.26 294.79 406.95 297.86 412.29 300.94"/><polygon class="cls-156" points="412.25 293.35 425.1 300.77 430.69 297.55 412.22 286.88 393.87 297.48 399.48 300.72 412.25 293.35"/><path class="cls-157" d="M456.63,660.43a4.47,4.47,0,0,1-1.57-3c0-.64.88-1.14,2-1.14a19.7,19.7,0,0,0,4.28-.47,4,4,0,0,0,2.76,0c.73-.42,1-1,.62-1.35,2.87-1.83,4.22-4,.11-6.39s-7.89-1.59-11.06.07a3.23,3.23,0,0,0-2.33.35,1,1,0,0,0-.09,1.6,4.3,4.3,0,0,0-.81,2.47c0,.63-.88,1.16-2,1.15a16.69,16.69,0,0,1-5.23-.91,8.75,8.75,0,0,0-6.79.45L433.33,655a.69.69,0,0,0,0,1.3l17.08,9.86a2.48,2.48,0,0,0,2.25,0l3.19-1.84C457.69,663.29,458,661.66,456.63,660.43Z" transform="translate(-52.94 -514.23)"/><path class="cls-157" d="M412.72,686.27l-.15-.09,3.89-2.25c2.49-1.44,2.48-3.78,0-5.23l-3.13-1.81a10,10,0,0,0-9.06,0l-3.9,2.25-.15-.09a4.68,4.68,0,0,0-4.22,0l-9.66,5.58c-1.16.67-1.15,1.76,0,2.43l12.53,7.24a4.65,4.65,0,0,0,4.22,0l9.66-5.58C413.9,688,413.89,686.94,412.72,686.27Zm-13.56,1.5-2.28,1.31-1.56-.9,2.27-1.32c-.33-.53-.13-1.14.6-1.56a4.06,4.06,0,0,1,3.67,0,1.12,1.12,0,0,1,0,2.12A4.07,4.07,0,0,1,399.16,687.77Zm10.77-3.11-6.95-4,3.11-1.8a5.75,5.75,0,0,1,5.16,0l1.78,1c1.43.83,1.43,2.16,0,3Z" transform="translate(-52.94 -514.23)"/><path class="cls-126" d="M724.51,801.17,494.23,666.45a16.77,16.77,0,0,1-.51-28.75l63.54-49.56a16.77,16.77,0,0,1,17.3-.3L815.89,729.1a16.78,16.78,0,0,1,0,29l-74.6,43A16.78,16.78,0,0,1,724.51,801.17Z" transform="translate(-52.94 -514.23)"/><path class="cls-127" d="M725.58,798.65,499,666.05a16.86,16.86,0,0,1-.47-28.93l58.64-45.55a16.86,16.86,0,0,1,17.34-.28L811.15,729.85a16.87,16.87,0,0,1,0,29.19l-68.7,39.59A16.87,16.87,0,0,1,725.58,798.65Z" transform="translate(-52.94 -514.23)"/><path class="cls-128" d="M726.65,796.13,503.7,665.65a17,17,0,0,1-.42-29.11L557,595a16.93,16.93,0,0,1,17.39-.25l232,135.84a17,17,0,0,1,0,29.34l-62.79,36.18A16.94,16.94,0,0,1,726.65,796.13Z" transform="translate(-52.94 -514.23)"/><path class="cls-129" d="M727.71,793.62,508.44,665.25a17,17,0,0,1-.39-29.28l48.85-37.54a17,17,0,0,1,17.44-.23L801.66,731.33a17,17,0,0,1,0,29.49L744.8,793.59A17.06,17.06,0,0,1,727.71,793.62Z" transform="translate(-52.94 -514.23)"/><path class="cls-130" d="M728.78,791.1,513.17,664.85a17.13,17.13,0,0,1-.34-29.46l44-33.53a17.12,17.12,0,0,1,17.47-.21L796.91,732.07a17.13,17.13,0,0,1,0,29.64l-51,29.37A17.13,17.13,0,0,1,728.78,791.1Z" transform="translate(-52.94 -514.23)"/><path class="cls-131" d="M729.85,788.58,517.91,664.45a17.21,17.21,0,0,1-.3-29.63l39.06-29.53a17.21,17.21,0,0,1,17.52-.18l218,127.7a17.22,17.22,0,0,1,0,29.79l-45.09,26A17.2,17.2,0,0,1,729.85,788.58Z" transform="translate(-52.94 -514.23)"/><path class="cls-132" d="M730.92,786.07l-208.27-122a17.3,17.3,0,0,1-.26-29.81l34.16-25.52a17.3,17.3,0,0,1,17.57-.16l213.3,125a17.31,17.31,0,0,1,0,30L748.27,786A17.32,17.32,0,0,1,730.92,786.07Z" transform="translate(-52.94 -514.23)"/><path class="cls-133" d="M732,783.55,527.38,663.65a17.39,17.39,0,0,1-.22-30l29.28-21.52A17.36,17.36,0,0,1,574,612L782.68,734.3a17.39,17.39,0,0,1,0,30.09l-33.3,19.13A17.4,17.4,0,0,1,732,783.55Z" transform="translate(-52.94 -514.23)"/><path class="cls-134" d="M733.06,781,532.12,663.25a17.47,17.47,0,0,1-.18-30.16l24.38-17.52a17.47,17.47,0,0,1,17.65-.1L777.93,735a17.47,17.47,0,0,1,0,30.24L750.58,781A17.49,17.49,0,0,1,733.06,781Z" transform="translate(-52.94 -514.23)"/><path class="cls-135" d="M734.13,778.51,536.85,662.85a17.56,17.56,0,0,1-.13-30.34L556.2,619a17.56,17.56,0,0,1,17.7-.07L773.19,735.78a17.56,17.56,0,0,1,0,30.39l-21.49,12.32A17.57,17.57,0,0,1,734.13,778.51Z" transform="translate(-52.94 -514.23)"/><path class="cls-136" d="M735.2,776,541.59,662.45a17.65,17.65,0,0,1-.09-30.52l14.58-9.5a17.66,17.66,0,0,1,17.74,0L768.44,736.52a17.65,17.65,0,0,1,0,30.54L752.9,776A17.66,17.66,0,0,1,735.2,776Z" transform="translate(-52.94 -514.23)"/><path class="cls-137" d="M736.27,773.48,546.32,662.05a17.73,17.73,0,0,1,0-30.69l9.69-5.5a17.76,17.76,0,0,1,17.78,0l190,111.43a17.74,17.74,0,0,1,0,30.7l-9.69,5.49A17.71,17.71,0,0,1,736.27,773.48Z" transform="translate(-52.94 -514.23)"/><polygon class="cls-158" points="689.42 265.1 441.9 121.25 527.09 72.22 774.61 216.07 689.42 265.1"/><polygon class="cls-141" points="689.42 262.1 446.22 118.75 441.9 121.25 689.42 265.1 774.44 216.13 770.12 215.63 689.42 262.1"/><polygon class="cls-113" points="693.91 235.85 493.49 119.89 529.54 99.67 729.96 215.63 693.91 235.85"/><path class="cls-157" d="M750.68,742.19l0-6.73c0-.7-.84-1.29-2-1.47v-2c5.94-.46,10.5-3.39,10.48-6.95,0-3.89-5.5-7.05-12.23-7.06s-12.18,3.13-12.16,7c0,3.56,4.61,6.5,10.55,7v2c-1.12.18-1.95.76-1.95,1.47l0,6.73c0,.84,1.19,1.53,2.65,1.53h2C749.51,743.72,750.69,743,750.68,742.19ZM747,729.69c-4.44,0-8.05-2.09-8.06-4.66s3.57-4.63,8-4.62,8.05,2.09,8.06,4.65S751.41,729.7,747,729.69Z" transform="translate(-52.94 -514.23)"/><path class="cls-126" d="M644.57,702.86l-92.23-51a10,10,0,0,1-.05-17.27l103.83-60.54a10,10,0,0,1,10,0l92.23,51a10,10,0,0,1,0,17.28L654.57,702.83A10,10,0,0,1,644.57,702.86Z" transform="translate(-52.94 -514.23)"/><path class="cls-127" d="M644.92,700.81,555.2,651.26a10,10,0,0,1-.06-17.36l100-58.3a10.05,10.05,0,0,1,10,0l89.71,49.55a10,10,0,0,1,.06,17.36L655,700.77A10,10,0,0,1,644.92,700.81Z" transform="translate(-52.94 -514.23)"/><path class="cls-128" d="M645.26,698.75l-87.2-48.11A10.07,10.07,0,0,1,558,633.2l96.07-56.05a10.07,10.07,0,0,1,10.1,0l87.21,48.11a10.07,10.07,0,0,1,.06,17.44l-96.08,56.05A10.07,10.07,0,0,1,645.26,698.75Z" transform="translate(-52.94 -514.23)"/><path class="cls-129" d="M645.61,696.7,560.92,650a10.13,10.13,0,0,1-.07-17.53l92.2-53.8a10.14,10.14,0,0,1,10.15,0l84.69,46.67a10.14,10.14,0,0,1,.07,17.54l-92.2,53.79A10.12,10.12,0,0,1,645.61,696.7Z" transform="translate(-52.94 -514.23)"/><path class="cls-130" d="M646,694.65l-82.19-45.24a10.18,10.18,0,0,1-.06-17.62L652,580.25a10.18,10.18,0,0,1,10.21,0l82.18,45.23a10.18,10.18,0,0,1,.06,17.62l-88.31,51.55A10.19,10.19,0,0,1,646,694.65Z" transform="translate(-52.94 -514.23)"/><path class="cls-131" d="M646.3,692.59,566.63,648.8a10.24,10.24,0,0,1-.07-17.71L651,581.79a10.23,10.23,0,0,1,10.25,0l79.67,43.8a10.22,10.22,0,0,1,.07,17.7l-84.43,49.3A10.23,10.23,0,0,1,646.3,692.59Z" transform="translate(-52.94 -514.23)"/><path class="cls-132" d="M646.65,690.54l-77.16-42.36a10.28,10.28,0,0,1-.07-17.79l80.55-47a10.29,10.29,0,0,1,10.31,0l77.16,42.35a10.29,10.29,0,0,1,.07,17.8L657,690.5A10.29,10.29,0,0,1,646.65,690.54Z" transform="translate(-52.94 -514.23)"/><path class="cls-133" d="M647,688.48l-74.65-40.91a10.33,10.33,0,0,1-.07-17.88L649,584.89a10.31,10.31,0,0,1,10.36,0L734,625.76a10.34,10.34,0,0,1,.07,17.88l-76.67,44.8A10.31,10.31,0,0,1,647,688.48Z" transform="translate(-52.94 -514.23)"/><path class="cls-134" d="M647.34,686.43,575.2,647a10.38,10.38,0,0,1-.07-18l72.79-42.56a10.38,10.38,0,0,1,10.41,0l72.14,39.48a10.38,10.38,0,0,1,.07,18l-72.78,42.56A10.4,10.4,0,0,1,647.34,686.43Z" transform="translate(-52.94 -514.23)"/><path class="cls-135" d="M647.69,684.37l-69.63-38a10.44,10.44,0,0,1-.07-18.06L646.9,588a10.43,10.43,0,0,1,10.46,0L727,626a10.44,10.44,0,0,1,.07,18.06l-68.91,40.3A10.4,10.4,0,0,1,647.69,684.37Z" transform="translate(-52.94 -514.23)"/><path class="cls-136" d="M648,682.32l-67.12-36.6a10.48,10.48,0,0,1-.08-18.14l65-38.05a10.47,10.47,0,0,1,10.51,0l67.12,36.6a10.48,10.48,0,0,1,.08,18.14l-65,38.06A10.5,10.5,0,0,1,648,682.32Z" transform="translate(-52.94 -514.23)"/><path class="cls-137" d="M648.38,680.27l-64.6-35.16a10.54,10.54,0,0,1-.08-18.23l61.14-35.81a10.56,10.56,0,0,1,10.57,0L720,626.19a10.53,10.53,0,0,1,.08,18.22L659,680.22A10.54,10.54,0,0,1,648.38,680.27Z" transform="translate(-52.94 -514.23)"/><polygon class="cls-159" points="603.76 88.72 565.98 66.9 537.64 83.26 603.94 121.54 669.82 83.5 641.31 67.04 603.76 88.72"/><polygon class="cls-160" points="603.52 45.22 573.18 62.74 603.71 80.37 634.06 62.85 603.52 45.22"/><polygon class="cls-161" points="603.28 0 498.35 60.58 530.47 79.12 603.48 36.97 676.95 79.39 708.87 60.96 603.28 0"/><polygon class="cls-141" points="603.94 118.57 540.21 81.78 537.64 83.26 603.94 121.54 669.82 83.5 667.26 82.02 603.94 118.57"/><polygon class="cls-141" points="676.95 76.42 603.48 34 530.47 76.16 500.92 59.1 498.35 60.58 530.47 79.12 603.48 36.97 676.95 79.39 708.87 60.96 706.3 59.48 676.95 76.42"/><polygon class="cls-141" points="603.71 80.37 634.06 62.85 631.49 61.37 603.71 77.41 575.75 61.26 573.18 62.74 603.71 80.37"/><polygon class="cls-162" points="229.13 390.16 199.47 373.04 193.67 376.39 223.33 393.52 229.13 390.16"/><polygon class="cls-163" points="157.83 348.99 118.42 326.43 112.62 329.78 152.02 352.35 157.83 348.99"/><polygon class="cls-164" points="233.93 392.93 228.12 396.28 235.91 400.78 241.72 397.43 233.93 392.93"/><polygon class="cls-165" points="194.68 370.27 179.1 361.28 173.29 364.63 188.87 373.62 194.68 370.27"/><polygon class="cls-166" points="162.62 351.76 156.81 355.11 168.5 361.86 174.31 358.51 162.62 351.76"/><polygon class="cls-167" points="240.71 403.55 261.98 415.83 267.79 412.48 246.51 400.2 240.71 403.55"/><g class="cls-168"><polygon points="247.67 418.59 218.01 401.46 212.2 404.81 241.86 421.94 247.67 418.59"/><polygon points="176.36 377.42 136.96 354.85 131.15 358.21 170.56 380.77 176.36 377.42"/><polygon points="252.47 421.35 246.66 424.71 254.45 429.2 260.25 425.85 252.47 421.35"/><polygon points="213.21 398.69 197.63 389.7 191.83 393.05 207.41 402.05 213.21 398.69"/><polygon points="181.16 380.18 175.35 383.54 187.03 390.28 192.84 386.93 181.16 380.18"/><polygon points="259.24 431.97 280.51 444.25 286.32 440.9 265.05 428.62 259.24 431.97"/></g></g></g></svg>