<?xml version="1.0"?>
<svg xmlns="http://www.w3.org/2000/svg" viewBox="0 0 32 32">
    <path style="text-indent:0;text-align:start;line-height:normal;text-transform:none;block-progression:tb;-inkscape-font-specification:Sans" d="M 11 5 C 7.6983746 5 5 7.6983746 5 11 L 5 21 C 5 24.301625 7.6983746 27 11 27 L 21 27 C 24.301625 27 27 24.301625 27 21 L 27 11 C 27 7.6983746 24.301625 5 21 5 L 11 5 z M 11 7 L 21 7 C 23.220375 7 25 8.7796254 25 11 L 25 21 C 25 23.220375 23.220375 25 21 25 L 11 25 C 8.7796254 25 7 23.220375 7 21 L 7 11 C 7 8.7796254 8.7796254 7 11 7 z M 10.4375 12.84375 C 10.1185 12.84375 9.875 13.075 9.875 13.375 C 9.875 13.671 10.1185 13.90725 10.4375 13.90625 C 10.7565 13.90625 11 13.67 11 13.375 C 11 13.076 10.7575 12.84375 10.4375 12.84375 z M 20.84375 13 C 19.59475 13 18.78125 13.6685 18.78125 14.6875 C 18.78125 15.5275 19.24625 16.03925 20.28125 16.28125 L 21 16.46875 C 21.757 16.64675 22.09375 16.90775 22.09375 17.34375 C 22.09375 17.85075 21.589 18.21875 20.875 18.21875 C 20.11 18.21875 19.575 17.8555 19.5 17.3125 L 18.625 17.3125 C 18.689 18.3355 19.51225 19 20.78125 19 C 22.13725 19 23 18.31375 23 17.21875 C 23 16.35775 22.51675 15.897 21.34375 15.625 L 20.71875 15.46875 C 19.97275 15.29375 19.65625 15.033 19.65625 14.625 C 19.65625 14.109 20.14175 13.78125 20.84375 13.78125 C 21.51075 13.78125 21.94825 14.12925 22.03125 14.65625 L 22.90625 14.65625 C 22.85425 13.69225 22.00575 13 20.84375 13 z M 14.96875 13.03125 C 13.31475 13.03125 12.28125 14.18325 12.28125 16.03125 C 12.28125 17.87525 13.29475 19.03125 14.96875 19.03125 C 16.63875 19.03125 17.65625 17.87125 17.65625 16.03125 C 17.65625 14.18725 16.63075 13.03125 14.96875 13.03125 z M 14.96875 13.875 C 16.06375 13.875 16.75 14.70325 16.75 16.03125 C 16.75 17.35125 16.06375 18.21875 14.96875 18.21875 C 13.86175 18.21875 13.21875 17.35225 13.21875 16.03125 C 13.21875 14.70325 13.88175 13.875 14.96875 13.875 z M 9.9375 15 L 9.9375 19 L 10.9375 19 L 10.9375 15 L 9.9375 15 z" overflow="visible" font-family="Sans"/>
</svg>
