<?xml version="1.0" encoding="utf-8"?>
<!-- Svg Vector Icons : http://www.onlinewebfonts.com/icon -->
<!DOCTYPE svg PUBLIC "-//W3C//DTD SVG 1.1//EN" "http://www.w3.org/Graphics/SVG/1.1/DTD/svg11.dtd">
<svg version="1.1" xmlns="http://www.w3.org/2000/svg" xmlns:xlink="http://www.w3.org/1999/xlink" x="0px" y="0px" viewBox="0 0 1000 1000" enable-background="new 0 0 1000 1000" xml:space="preserve">
<metadata> Svg Vector Icons : http://www.onlinewebfonts.com/icon </metadata>
<g><g transform="translate(0.000000,511.000000) scale(0.100000,-0.100000)"><path d="M1534.6,4958.9c-46.9-27.7-104.4-83.1-127.8-123.6c-42.6-70.3-42.6-108.6-42.6-4727.4v-4655l53.3-78.8c27.7-42.6,87.3-95.9,130-119.3c78.8-44.7,89.5-44.7,3449.2-44.7c3359.7,0,3370.3,0,3449.2,44.7c42.6,23.5,102.3,76.7,130,119.3l53.3,78.8l6.4,3513.1c2.1,2479.8-2.1,3538.7-19.2,3600.4c-19.2,78.8-164,232.2-1165.4,1235.7c-628.5,630.6-1169.6,1161.1-1201.6,1178.1c-49,25.6-400.5,29.8-2343.5,29.8h-2286L1534.6,4958.9z M5912.6,3934.1v-351.5l-57.5,14.9c-34.1,10.7-140.6,17-240.7,17c-176.8,0-200.3-8.5-1033.3-294c-468.7-161.9-890.5-317.4-939.5-345.1c-117.2-68.2-236.5-204.5-304.6-349.4c-46.9-102.3-55.4-147-55.4-311c0-319.6,2.1-319.6,762.7-1097.2c389.9-398.4,673.2-700.9,690.3-745.7c49-112.9,27.7-298.3-44.7-392c-72.4-98-138.5-140.6-247.1-164c-242.9-55.4-487.9,144.9-490,396.3c0,125.7,38.3,183.2,144.9,219.4c142.7,46.9,193.9,181.1,110.8,287.6c-61.8,78.8-142.7,89.5-289.7,34.1C3763,796,3714,753.4,3650.1,614.9c-38.3-89.5-49-149.1-49-302.5c0-174.7,6.4-206.7,70.3-334.5c149.1-302.5,487.9-481.5,798.9-423.9c142.7,25.5,1712.9,562.4,1842.8,628.5c136.4,70.3,266.3,210.9,338.8,364.3c51.1,110.8,59.6,153.4,59.6,319.6c0,298.3-40.5,366.4-475.1,803.2c-330.2,332.3-362.2,357.9-434.6,357.9c-59.6,0-89.5-14.9-134.2-68.2c-95.9-112.9-72.4-155.5,298.3-528.3c198.1-200.3,340.9-362.2,362.2-409c78.8-189.6-4.3-426.1-183.2-517.7c-49-27.7-982.1-351.5-1005.6-351.5c-6.4,0-14.9,83.1-19.2,187.5c-10.6,315.3-27.7,336.6-775.5,1090.8c-664.7,669-711.6,728.6-711.6,888.4c2.1,255.7,264.2,455.9,509.2,389.9c106.5-27.7,232.2-134.2,270.6-228c42.6-98,36.2-257.8-12.8-366.4c-72.4-155.5-6.4-279.1,144.9-279.1c34.1,0,368.6,102.3,741.4,230.1l679.6,228l975.7-6.4l973.6-6.4V653.3V-976.5H4996.6H2077.9v2631.1v2631.1h1917.4h1917.4V3934.1z M7553.1,2662.3c0-10.7-287.6-17-639.1-17h-639.1v654v656.2l639.1-639.1C7265.5,2964.8,7553.1,2670.8,7553.1,2662.3z M5821,3218.3l91.6-44.7v-251.4c0-219.4-4.3-253.5-36.2-266.3c-129.9-49-1026.9-351.5-1048.2-351.5c-12.8,0-23.4,36.2-23.4,85.2c0,125.7-76.7,304.6-181.1,421.8l-93.7,104.4l494.3,170.4C5571.8,3275.8,5667.6,3292.9,5821,3218.3z M4653.5-1839.3c108.7-55.4,110.8-87.3,104.4-960.8c-6.4-779.8-8.5-809.6-53.3-892.7c-170.4-317.4-562.4-398.4-816-168.3c-230.1,208.8-230.1,562.4,0,562.4c95.9,0,166.2-68.2,185.4-176.8c6.4-42.6,29.8-93.8,51.1-112.9c57.5-51.1,161.9-46.9,217.3,10.7c46.9,44.7,46.9,55.4,46.9,720.1v675.4l-74.6,14.9c-176.8,36.2-202.4,272.7-34.1,338.8C4355.3-1798.9,4587.5-1805.3,4653.5-1839.3z M5793.3-1837.2c204.5-61.8,347.3-234.3,368.6-447.4c10.7-104.4,6.4-121.4-42.6-170.4c-108.7-108.6-313.2-40.5-313.2,104.4c0,80.9-32,127.8-104.4,157.6c-125.7,53.3-253.5-76.7-198.1-200.3c12.8-25.6,121.4-127.8,242.9-225.8c451.7-366.4,507-438.9,524.1-692.4c12.8-193.9-32-332.4-147-464.5c-296.1-334.5-843.7-268.4-1041.8,130c-59.6,121.4-80.9,306.8-42.6,379.2c53.3,100.1,208.8,117.2,285.5,34.1c19.2-21.3,42.6-83.1,53.3-138.5c36.2-200.3,179-298.3,351.5-242.9c155.5,49,238.6,268.4,151.2,394.1c-19.2,25.6-157.6,149.1-308.9,272.7c-151.3,123.6-302.5,257.8-336.6,300.4c-221.6,268.5-85.2,700.9,255.6,807.5C5610.1-1801,5671.9-1801,5793.3-1837.2z"/></g></g>
</svg>