<svg xmlns="http://www.w3.org/2000/svg" viewBox="0 0 458.94 419.47"><defs><style>.cls-1{opacity:0.41;}.cls-2,.cls-5,.cls-6{fill:#dfe0fc;}.cls-3{opacity:0.31;}.cls-4{fill:#ecf0f5;}.cls-4,.cls-5{opacity:0.47;}.cls-6{opacity:0.81;}.cls-7{opacity:0.73;}.cls-17,.cls-22,.cls-8{fill:#fff;}.cls-9{opacity:0.69;}.cls-10{opacity:0.55;}.cls-11{opacity:0.38;}.cls-12{fill:none;}.cls-13{fill:#5565b5;}.cls-14,.cls-24{fill:#434996;}.cls-15,.cls-16,.cls-25,.cls-26{fill:#7098ee;}.cls-16,.cls-18{opacity:0.36;}.cls-17{opacity:0.43;}.cls-19{opacity:0.26;}.cls-20{opacity:0.57;}.cls-21,.cls-23{fill:#e3a6b1;}.cls-22,.cls-23{opacity:0.39;}.cls-24{opacity:0.22;}.cls-25{opacity:0.32;}.cls-26{opacity:0.42;}</style></defs><title>mobile-services</title><g id="Floor"><g class="cls-1"><path class="cls-2" d="M490.87,293.4a129.48,129.48,0,0,0-.6-22.1c-3.9-34.45-21.57-66.94-47.59-89.86-9.28-8.18-19.84-15.5-25.88-26.3-10.17-18.17-9.4-39.07-22-57A106.72,106.72,0,0,0,343,59C281,37.49,194.33,72.43,202.14,147c0,.27.06.65.09,1.15a27.15,27.15,0,0,1-26.61,28.89c-57.13,1.36-106.31,45.41-116.84,101.21C52,314.17,63.1,353.51,89.35,378.89c19.59,18.95,45.88,29.36,72.18,36.52,52.74,14.34,108.24,17.35,162.62,11.86,50.9-5.13,104.59-19.76,137.51-58.93C479.22,347.45,489.28,320.66,490.87,293.4Z" transform="translate(-32.19 -19.23)"/></g><g class="cls-3"><circle class="cls-2" cx="229.18" cy="40.31" r="13.29" transform="translate(-30.34 70.78) rotate(-22.31)"/></g><g class="cls-3"><circle class="cls-2" cx="449.52" cy="176.62" r="6.86"/></g><g class="cls-3"><circle class="cls-2" cx="166.68" cy="70.07" r="9.19" transform="translate(-28.57 128.97) rotate(-48.4)"/></g><g class="cls-3"><circle class="cls-2" cx="28.5" cy="384.17" r="20.93"/></g><path class="cls-4" d="M488.52,89.93a23.65,23.65,0,0,0-10.24-31.84c-11.62-6-33.95-5.53-39.92,6.09s11.92,21.59,19.21,32.43C467.74,111.73,482.55,101.55,488.52,89.93Z" transform="translate(-32.19 -19.23)"/><path class="cls-5" d="M434.72,435.81a18.12,18.12,0,0,0,25-5.4c5.43-8.41,6.78-25.46-1.62-30.89S440.78,407,432,411.71C419.68,418.32,426.31,430.38,434.72,435.81Z" transform="translate(-32.19 -19.23)"/><path class="cls-5" d="M91.55,25.34a22.84,22.84,0,0,0-32.29,1.19c-8.59,9.25-14,30.13-4.77,38.72s23.2-5.44,35.18-9.38C106.39,50.36,100.8,33.93,91.55,25.34Z" transform="translate(-32.19 -19.23)"/><path class="cls-5" d="M465.81,346.88c8.16-17.53,11.41-37,7.2-57.52-4.65-22.67-18.77-40.1-13.87-64.29,3-14.74,3.73-28.39,5.24-43,3.11-29.94-16.33-56.32-40.45-70.56C404.35,100,381.39,95.62,358.87,95.93c-20.27.28-40.5,4-60.14,9.06-18.93,4.85-37.44,11.24-57.27,9.22-16.5-1.68-31.36-8.81-46.73-14.13C158,87.38,113.61,85.59,80.06,104.92a96.8,96.8,0,0,0-45.3,105.39c3.71,16.36,9.46,32.4,9.29,49.37C43.88,277,35,292.46,38.48,310.27c2.49,12.6,10.05,23.66,18.78,33.07,24,25.9,57.61,41.54,92.15,49,46,9.91,92.86.44,138.44,10.31,29.89,6.47,59.49,18.95,90.61,14.07,19.44-3,37.54-12.55,52.48-25.35C445.59,378.79,458,363.72,465.81,346.88Z" transform="translate(-32.19 -19.23)"/><path class="cls-6" d="M423.86,319.29c1.27-14.29-3.55-29,.48-43.17,4.82-16.95,18.78-29.64,24.48-46.28,8.41-24.58,8-52.13-2.21-76.08-4.92-11.55-12.12-22.28-21.94-29.7-15.14-11.44-35-14-53.63-12.5-27.76,2.16-57.06,14.18-85,10.91C270.66,120.66,266,104,258,93a92.33,92.33,0,0,0-34.8-28.72c-25-12-54.9-13.11-80.4-2.25-27.23,11.6-51,39.92-49.4,71.94.72,14.82,6.65,29.53,3.91,44.09C93.87,196.32,80.1,213,70.13,227.85a114.71,114.71,0,0,0-19,56c0,.23,0,.46,0,.69a76.31,76.31,0,0,0,52.55,76.76l69.87,23c70.88,23.31,141.71,22.54,206.88-11.67,14.11-7.41,37.07-29.47,41.8-44.68A41.58,41.58,0,0,0,423.86,319.29Z" transform="translate(-32.19 -19.23)"/><g class="cls-7"><path class="cls-8" d="M139.92,195.75a5.31,5.31,0,0,1-1.47-.2l-8.4-2.3a5.56,5.56,0,0,1-3.9-6.82L129,176.17a46.86,46.86,0,0,1-13.52-10.49L106.2,171a5.56,5.56,0,0,1-7.58-2.08l-4.32-7.56a5.57,5.57,0,0,1,2.08-7.59l9.23-5.26a47,47,0,0,1-2.14-17l-10.26-2.8a5.57,5.57,0,0,1-3.89-6.83l2.3-8.4a5.56,5.56,0,0,1,6.82-3.9l10.26,2.81a46.86,46.86,0,0,1,10.49-13.52l-5.27-9.24A5.56,5.56,0,0,1,116,82l7.56-4.32a5.57,5.57,0,0,1,7.59,2.08L136.41,89a47,47,0,0,1,17-2.14l2.8-10.26A5.56,5.56,0,0,1,163,72.71l8.4,2.3a5.56,5.56,0,0,1,3.9,6.82l-2.81,10.26A46.86,46.86,0,0,1,186,102.58l9.24-5.27a5.56,5.56,0,0,1,7.58,2.08l4.32,7.56a5.55,5.55,0,0,1,.53,4.22,5.48,5.48,0,0,1-2.61,3.36l-9.23,5.27a47,47,0,0,1,2.14,17l10.26,2.8a5.57,5.57,0,0,1,3.36,2.61,5.51,5.51,0,0,1,.53,4.22l-2.3,8.4a5.56,5.56,0,0,1-6.82,3.9l-10.26-2.81a46.86,46.86,0,0,1-10.49,13.52l5.27,9.24a5.56,5.56,0,0,1-2.08,7.58l-7.56,4.32a5.55,5.55,0,0,1-4.22.53,5.48,5.48,0,0,1-3.36-2.61l-5.27-9.23a47,47,0,0,1-17,2.14l-2.8,10.26a5.56,5.56,0,0,1-5.36,4.09ZM116.1,161.84l.81.95A43.63,43.63,0,0,0,131.39,174l1.12.55-3.46,12.65a2.53,2.53,0,0,0,.24,1.94,2.56,2.56,0,0,0,1.55,1.2l8.4,2.3a2.53,2.53,0,0,0,1.94-.25,2.48,2.48,0,0,0,1.2-1.54l3.46-12.65,1.25.1A43.86,43.86,0,0,0,165.27,176l1.17-.41,6.5,11.39a2.56,2.56,0,0,0,1.55,1.2,2.53,2.53,0,0,0,1.94-.25l7.56-4.31a2.52,2.52,0,0,0,1.2-1.55,2.48,2.48,0,0,0-.24-1.94l-6.5-11.39,1-.81a43.89,43.89,0,0,0,11.23-14.48l.54-1.12,12.65,3.46A2.56,2.56,0,0,0,207,154l2.3-8.4a2.53,2.53,0,0,0-.25-1.94,2.48,2.48,0,0,0-1.54-1.2L194.83,139l.1-1.25a43.86,43.86,0,0,0-2.29-18.18l-.41-1.17,11.39-6.5a2.56,2.56,0,0,0,1.2-1.55,2.53,2.53,0,0,0-.25-1.94l-4.31-7.56a2.58,2.58,0,0,0-1.55-1.21,2.53,2.53,0,0,0-1.94.25l-11.39,6.5-.81-1a43.89,43.89,0,0,0-14.48-11.23L169,93.69,172.43,81a2.53,2.53,0,0,0-.24-1.94,2.56,2.56,0,0,0-1.55-1.2l-8.4-2.3a2.56,2.56,0,0,0-3.14,1.79L155.64,90l-1.25-.1a43.86,43.86,0,0,0-18.18,2.29l-1.17.41-6.5-11.39a2.56,2.56,0,0,0-1.55-1.2,2.53,2.53,0,0,0-1.94.25l-7.56,4.31a2.57,2.57,0,0,0-1,3.49L123,99.49l-1,.81a43.89,43.89,0,0,0-11.23,14.48l-.54,1.12-12.65-3.46a2.53,2.53,0,0,0-1.94.24,2.56,2.56,0,0,0-1.2,1.55l-2.3,8.4a2.53,2.53,0,0,0,.25,1.94,2.48,2.48,0,0,0,1.54,1.2l12.65,3.46-.1,1.25a43.86,43.86,0,0,0,2.29,18.18l.41,1.17-11.39,6.5a2.56,2.56,0,0,0-1.2,1.55,2.53,2.53,0,0,0,.25,1.94l4.31,7.56a2.57,2.57,0,0,0,3.49,1Zm34.68-2.64a25.24,25.24,0,0,1-6.65-.9h0a24.85,24.85,0,1,1,6.65.9Zm-.08-47.13a22.12,22.12,0,1,0,5.86.79A22,22,0,0,0,150.7,112.07Z" transform="translate(-32.19 -19.23)"/></g><g class="cls-9"><path class="cls-8" d="M383.1,168.69l-56.58,1a2.73,2.73,0,0,1-3-2.31l-.68-37.56a2.73,2.73,0,0,1,2.92-2.42l56.58-1a2.72,2.72,0,0,1,3,2.3l.68,37.57A2.72,2.72,0,0,1,383.1,168.69Zm-57.33-40.55c-1.25,0-2.25.78-2.24,1.69l.69,37.57c0,.91,1,1.64,2.29,1.61l56.57-1c1.25,0,2.25-.79,2.24-1.7l-.68-37.57c0-.91-1.05-1.63-2.3-1.61Z" transform="translate(-32.19 -19.23)"/><rect class="cls-8" x="323.28" y="134.58" width="61.44" height="0.7" transform="translate(-34.58 -12.78) rotate(-1.04)"/><path class="cls-8" d="M327.71,133.24a1.32,1.32,0,1,1,1.3-1.34A1.32,1.32,0,0,1,327.71,133.24Zm0-1.94a.63.63,0,0,0-.61.63.62.62,0,0,0,.63.61.62.62,0,1,0,0-1.24Z" transform="translate(-32.19 -19.23)"/><path class="cls-8" d="M331.35,133.18a1.33,1.33,0,1,1,1.3-1.35A1.33,1.33,0,0,1,331.35,133.18Zm0-2a.63.63,0,0,0-.61.64.62.62,0,0,0,1.24,0A.63.63,0,0,0,331.32,131.23Z" transform="translate(-32.19 -19.23)"/><path class="cls-8" d="M334.93,133.11a1.32,1.32,0,1,1,1.3-1.34A1.33,1.33,0,0,1,334.93,133.11Zm0-1.94a.62.62,0,1,0,0,1.24.62.62,0,1,0,0-1.24Z" transform="translate(-32.19 -19.23)"/></g><g class="cls-9"><path class="cls-8" d="M193.21,393.23l-56.57,1c-1.64,0-3-1-3-2.31L133,354.38c0-1.3,1.28-2.38,2.92-2.41l56.57-1c1.64,0,3,1,3,2.3l.68,37.57C196.16,392.12,194.85,393.2,193.21,393.23Zm-57.33-40.56c-1.25,0-2.25.79-2.23,1.7l.68,37.57c0,.91,1,1.64,2.29,1.61l56.58-1c1.25,0,2.25-.79,2.23-1.7l-.68-37.57c0-.91-1.05-1.64-2.29-1.61Z" transform="translate(-32.19 -19.23)"/><rect class="cls-8" x="133.39" y="359.12" width="61.44" height="0.7" transform="translate(-38.69 -16.19) rotate(-1.04)"/><path class="cls-8" d="M137.82,357.78a1.33,1.33,0,0,1-1.35-1.3,1.33,1.33,0,1,1,1.35,1.3Zm0-1.94a.61.61,0,0,0-.61.63.62.62,0,0,0,.63.61.63.63,0,0,0,.61-.63A.62.62,0,0,0,137.79,355.84Z" transform="translate(-32.19 -19.23)"/><path class="cls-8" d="M141.47,357.72a1.33,1.33,0,1,1,1.29-1.35A1.33,1.33,0,0,1,141.47,357.72Zm0-2a.63.63,0,0,0-.61.63.62.62,0,1,0,1.24,0A.62.62,0,0,0,141.43,355.77Z" transform="translate(-32.19 -19.23)"/><path class="cls-8" d="M145,357.65a1.32,1.32,0,1,1,1.3-1.35A1.32,1.32,0,0,1,145,357.65Zm0-1.94a.61.61,0,0,0-.61.63.62.62,0,1,0,1.24,0A.62.62,0,0,0,145,355.71Z" transform="translate(-32.19 -19.23)"/></g><g class="cls-10"><path class="cls-8" d="M428.3,286.94l-5.86-4.69a28.72,28.72,0,0,0,3.35-11.5l7.46-.82a2.56,2.56,0,0,0,2.26-2.83l-.6-5.47a2.56,2.56,0,0,0-2.83-2.27l-7.45.82a28.92,28.92,0,0,0-5.77-10.5l4.69-5.85a2.55,2.55,0,0,0-.4-3.6l-4.29-3.45a2.57,2.57,0,0,0-3.61.4L410.56,243a28.87,28.87,0,0,0-11.5-3.34l-.82-7.46a2.57,2.57,0,0,0-2.83-2.27l-5.47.61a2.56,2.56,0,0,0-2.27,2.83l.82,7.45a28.92,28.92,0,0,0-10.5,5.77l-5.85-4.69a2.56,2.56,0,0,0-3.6.39l-3.45,4.3a2.57,2.57,0,0,0,.4,3.61l5.85,4.69a28.78,28.78,0,0,0-3.34,11.5l-7.46.82a2.56,2.56,0,0,0-2.27,2.83l.61,5.47a2.56,2.56,0,0,0,2.83,2.27l7.45-.82a28.8,28.8,0,0,0,5.77,10.49l-4.69,5.86a2.56,2.56,0,0,0,.39,3.6l4.3,3.44a2.57,2.57,0,0,0,3.61-.39l4.69-5.86a28.63,28.63,0,0,0,11.5,3.35l.82,7.46a2.56,2.56,0,0,0,2.83,2.26l5.47-.6a2.56,2.56,0,0,0,2.27-2.83l-.82-7.45a28.8,28.8,0,0,0,10.49-5.77l5.86,4.69a2.55,2.55,0,0,0,3.6-.4l3.45-4.29A2.58,2.58,0,0,0,428.3,286.94Zm-40.72-6.74a14.89,14.89,0,1,1,20.93-2.3A14.89,14.89,0,0,1,387.58,280.2Z" transform="translate(-32.19 -19.23)"/><path class="cls-8" d="M398.09,307.72a3,3,0,0,1-1.91-.67,3.08,3.08,0,0,1-1.13-2.06l-.78-7.05a29,29,0,0,1-10.91-3.17l-4.43,5.53a3.07,3.07,0,0,1-4.31.48l-4.3-3.45a3,3,0,0,1-1.13-2.05,3.07,3.07,0,0,1,.66-2.26l4.43-5.53a29,29,0,0,1-5.47-10l-7.05.78a3.1,3.1,0,0,1-2.25-.66,3,3,0,0,1-1.13-2.06l-.6-5.47a3.06,3.06,0,0,1,2.71-3.38l7-.78a29.16,29.16,0,0,1,3.18-10.91l-5.53-4.44a3.06,3.06,0,0,1-.48-4.3l3.45-4.3a3,3,0,0,1,4.3-.47L378,246a29.12,29.12,0,0,1,10-5.47l-.78-7.05a3.07,3.07,0,0,1,2.71-3.38l5.47-.6a3.08,3.08,0,0,1,3.39,2.71l.77,7a29.26,29.26,0,0,1,10.92,3.18l4.43-5.53a3.08,3.08,0,0,1,4.31-.48l4.3,3.45a3,3,0,0,1,.47,4.3l-4.43,5.53a29.12,29.12,0,0,1,5.47,10l7-.78a3.07,3.07,0,0,1,3.38,2.71L436,267a3.06,3.06,0,0,1-2.71,3.39l-7,.77a29.26,29.26,0,0,1-3.18,10.92l5.53,4.43a3.06,3.06,0,0,1,.47,4.31l-3.44,4.29a3.08,3.08,0,0,1-4.31.48l-5.53-4.43a29,29,0,0,1-10,5.47l.78,7.05a3.07,3.07,0,0,1-2.72,3.38l-5.47.6Zm-15-14.22.36.19a28,28,0,0,0,11.3,3.29l.42,0,.87,7.87a2,2,0,0,0,.76,1.39,2.05,2.05,0,0,0,1.51.44l5.48-.61a2,2,0,0,0,1.38-.76,2,2,0,0,0,.44-1.51l-.87-7.87.4-.12a28.28,28.28,0,0,0,10.32-5.67l.31-.27,6.18,5a2.06,2.06,0,0,0,2.9-.32l3.44-4.3a2,2,0,0,0,.45-1.51,2.07,2.07,0,0,0-.76-1.39h0l-6.18-4.95L422,282a28,28,0,0,0,3.29-11.3l0-.41,7.87-.87a2.06,2.06,0,0,0,1.83-2.28l-.61-5.47a2,2,0,0,0-.76-1.38,2,2,0,0,0-1.51-.44l-7.87.86-.12-.4A28.18,28.18,0,0,0,418.48,250l-.27-.31,5-6.18a2.06,2.06,0,0,0-.32-2.9l-4.29-3.45a2.08,2.08,0,0,0-2.91.32l-4.95,6.18-.37-.2a28.15,28.15,0,0,0-11.3-3.28l-.41,0-.87-7.86a2.07,2.07,0,0,0-2.28-1.83l-5.47.6a2.06,2.06,0,0,0-1.82,2.28l.86,7.87-.4.12A28,28,0,0,0,378.32,247l-.31.27-6.18-5a2.06,2.06,0,0,0-2.9.32l-3.45,4.29a2.08,2.08,0,0,0-.44,1.52,2,2,0,0,0,.76,1.38l6.18,5-.2.36a28.19,28.19,0,0,0-3.28,11.3l0,.42-7.87.86a2.12,2.12,0,0,0-1.39.77,2.05,2.05,0,0,0-.44,1.51l.6,5.47a2.07,2.07,0,0,0,.76,1.39,2.09,2.09,0,0,0,1.52.44l7.87-.86.12.39a28.15,28.15,0,0,0,5.67,10.32l.27.31-4.95,6.18a2.06,2.06,0,0,0,.32,2.9l4.29,3.45a2.08,2.08,0,0,0,2.91-.32ZM396.88,284a15.39,15.39,0,1,1,12-5.76A15.32,15.32,0,0,1,396.88,284Zm0-29.78a14.4,14.4,0,1,0,9,3.17A14.3,14.3,0,0,0,396.92,254.19Z" transform="translate(-32.19 -19.23)"/></g><g class="cls-11"><path class="cls-8" d="M465.61,331.39H409a2,2,0,0,1-1.77-2.11V308.44a2,2,0,0,1,1.77-2.11h56.62a2,2,0,0,1,1.77,2.11v20.84A2,2,0,0,1,465.61,331.39ZM409,307.33c-.42,0-.77.51-.77,1.11v20.84c0,.6.35,1.11.77,1.11h56.62c.42,0,.77-.51.77-1.11V308.44c0-.6-.35-1.11-.77-1.11Z" transform="translate(-32.19 -19.23)"/><rect class="cls-8" x="386.68" y="295.16" width="38.33" height="1"/><path class="cls-8" d="M457.2,315.89H418.87a1,1,0,0,1,0-2H457.2a1,1,0,0,1,0,2Zm0-1v0Z" transform="translate(-32.19 -19.23)"/><rect class="cls-8" x="386.68" y="299.7" width="17.13" height="1"/><path class="cls-8" d="M436,320.43H418.87a1,1,0,0,1,0-2H436a1,1,0,0,1,0,2Zm0-1v0Z" transform="translate(-32.19 -19.23)"/><rect class="cls-8" x="407.88" y="299.7" width="17.13" height="1"/><path class="cls-8" d="M457.2,320.43H440.07a1,1,0,0,1,0-2H457.2a1,1,0,0,1,0,2Zm0-1v0Z" transform="translate(-32.19 -19.23)"/><rect class="cls-8" x="386.68" y="304.46" width="38.33" height="1"/><path class="cls-8" d="M457.2,325.19H418.87a1,1,0,0,1,0-2H457.2a1,1,0,0,1,0,2Zm0-1v0Z" transform="translate(-32.19 -19.23)"/></g><g class="cls-10"><path class="cls-8" d="M308,424a3.44,3.44,0,0,1-2.16-.77,3.48,3.48,0,0,1-1.29-2.33l-.7-6.39a28.66,28.66,0,0,1-9.95-2.9l-4,5a3.48,3.48,0,0,1-4.89.54l-4.15-3.33a3.48,3.48,0,0,1-.54-4.89l4-5a28.64,28.64,0,0,1-5-9.07l-6.39.7a3.49,3.49,0,0,1-3.84-3.08l-.58-5.29a3.49,3.49,0,0,1,3.08-3.84l6.39-.7a28.75,28.75,0,0,1,2.89-9.94l-5-4a3.49,3.49,0,0,1-.54-4.89l3.33-4.15a3.49,3.49,0,0,1,4.89-.54l5,4a28.79,28.79,0,0,1,9.08-5l-.7-6.39a3.47,3.47,0,0,1,3.07-3.84l5.29-.58a3.47,3.47,0,0,1,3.84,3.08l.71,6.39a28.81,28.81,0,0,1,9.94,2.89l4-5a3.48,3.48,0,0,1,4.89-.53l4.15,3.32a3.5,3.5,0,0,1,.54,4.9l-4,5a28.6,28.6,0,0,1,5,9.08l6.4-.7a3.49,3.49,0,0,1,3.84,3.07l.58,5.29a3.48,3.48,0,0,1-3.08,3.84l-6.39.71a28.55,28.55,0,0,1-2.9,9.94l5,4h0a3.46,3.46,0,0,1,.54,4.89L335,411.67a3.48,3.48,0,0,1-4.89.54l-5-4a28.72,28.72,0,0,1-9.07,5l.7,6.4a3.49,3.49,0,0,1-3.08,3.84l-5.29.58Zm-14.62-14.92.73.39a26.67,26.67,0,0,0,10.72,3.12l.83.06.88,8a1.47,1.47,0,0,0,1.63,1.31l5.29-.58a1.47,1.47,0,0,0,1.31-1.63l-.88-8,.79-.24a26.68,26.68,0,0,0,9.79-5.37l.63-.55,6.3,5.06a1.47,1.47,0,0,0,2.08-.23l3.33-4.15a1.47,1.47,0,0,0-.23-2.08h0l-6.3-5.06.39-.73a26.76,26.76,0,0,0,3.12-10.72l.06-.83,8-.88a1.49,1.49,0,0,0,1.31-1.64l-.58-5.29a1.48,1.48,0,0,0-1.64-1.3l-8,.88-.24-.8a26.59,26.59,0,0,0-5.38-9.78l-.54-.63,5.06-6.31a1.5,1.5,0,0,0-.23-2.08l-4.15-3.32a1.48,1.48,0,0,0-2.08.23l-5.06,6.3-.73-.39a26.76,26.76,0,0,0-10.72-3.12l-.83-.06-.88-8a1.5,1.5,0,0,0-.55-1,1.52,1.52,0,0,0-1.09-.31l-5.29.58a1.49,1.49,0,0,0-1.31,1.63l.89,8-.8.24a26.71,26.71,0,0,0-9.78,5.37l-.63.55-6.31-5.06a1.46,1.46,0,0,0-1.08-.32,1.5,1.5,0,0,0-1,.55l-3.32,4.15a1.48,1.48,0,0,0,.22,2.08l6.31,5.06-.39.73a26.71,26.71,0,0,0-3.12,10.72l-.06.83-8,.88a1.47,1.47,0,0,0-1.31,1.63l.58,5.29a1.47,1.47,0,0,0,1.63,1.31l8-.88.24.79a26.68,26.68,0,0,0,5.37,9.79l.55.63-5.06,6.3a1.47,1.47,0,0,0,.23,2.08l4.15,3.33a1.48,1.48,0,0,0,2.08-.23Zm13.45-8a15.39,15.39,0,1,1,12-5.76A15.34,15.34,0,0,1,306.78,401.05Zm0-28.79a12.54,12.54,0,0,0-1.49.09,13.4,13.4,0,0,0-6.91,23.76h0a13.4,13.4,0,1,0,8.4-23.85Z" transform="translate(-32.19 -19.23)"/></g><polygon class="cls-12" points="132.19 107.75 133.21 111.25 133.21 106.58 132.19 107.75"/><polygon class="cls-12" points="133.31 337.05 133.31 332.38 132.28 335.88 133.31 337.05"/><path class="cls-13" d="M165.39,105.68v24.81l0,55.88,0,109.35,0,55.89v18.27a14.37,14.37,0,0,0,14.33,14.32h10.21l112.43-.05a14.34,14.34,0,0,0,14.32-14.34l-.12-264.2a14.35,14.35,0,0,0-14.33-14.32l-122.64.06A14.33,14.33,0,0,0,165.39,105.68Z" transform="translate(-32.19 -19.23)"/><path class="cls-14" d="M166.44,110.69v24l0,54.07.05,105.8,0,54.06v17.68a13.85,13.85,0,0,0,9.18,13,14.25,14.25,0,0,0,4.95.9h10.07l110.87-.05a14.24,14.24,0,0,0,8-2.43,13.77,13.77,0,0,0,6.14-11.43l-.11-255.61A13.73,13.73,0,0,0,310.59,100a14.2,14.2,0,0,0-9.08-3.24l-120.94,0A14,14,0,0,0,166.44,110.69Z" transform="translate(-32.19 -19.23)"/><path class="cls-8" d="M308.79,131.55l.09,212.33a3.43,3.43,0,0,1-3.43,3.44l-128.61.05a3.42,3.42,0,0,1-3.43-3.43l-.1-212.33a3.43,3.43,0,0,1,3.44-3.43l128.6-.06A3.44,3.44,0,0,1,308.79,131.55Z" transform="translate(-32.19 -19.23)"/><path class="cls-15" d="M308.79,131.46v13.77l-135.47.06V131.35a3.28,3.28,0,0,1,3.29-3.28L305.33,128A3.45,3.45,0,0,1,308.79,131.46Z" transform="translate(-32.19 -19.23)"/><path class="cls-8" d="M292.07,134.7a.5.5,0,0,1-.5-.5.5.5,0,0,1,.5-.5h10.16a.51.51,0,0,1,.5.5.5.5,0,0,1-.5.5Z" transform="translate(-32.19 -19.23)"/><path class="cls-8" d="M292.07,137.29a.5.5,0,0,1-.5-.5.5.5,0,0,1,.5-.5h10.16a.5.5,0,0,1,.5.5.51.51,0,0,1-.5.5Z" transform="translate(-32.19 -19.23)"/><path class="cls-8" d="M292.07,139.89a.5.5,0,0,1,0-1h10.16a.5.5,0,0,1,.5.5.5.5,0,0,1-.5.5Z" transform="translate(-32.19 -19.23)"/><path class="cls-8" d="M185.43,141.54a.5.5,0,0,1-.36-.14l-3.69-3.69a.81.81,0,0,1,0-1.15l3.55-3.56a.5.5,0,0,1,.71.71l-3.42,3.42,3.56,3.56a.5.5,0,0,1-.35.85Z" transform="translate(-32.19 -19.23)"/><path class="cls-8" d="M241.17,115.41a3.67,3.67,0,1,1,0-7.33h0a3.67,3.67,0,1,1,0,7.33Zm0-5.78h0a2.12,2.12,0,0,0,0,4.23h0a2.1,2.1,0,0,0,1.5-.62,2.13,2.13,0,0,0,.61-1.5,2.12,2.12,0,0,0-2.11-2.11Z" transform="translate(-32.19 -19.23)"/><path class="cls-8" d="M237.68,373.73a2.36,2.36,0,0,1-2.35-2.36v-6.95a2.35,2.35,0,0,1,2.35-2.35h6.95a2.35,2.35,0,0,1,2.35,2.35v6.95a2.36,2.36,0,0,1-2.36,2.35Zm6.95-10.66h-6.95a1.34,1.34,0,0,0-1.35,1.35v6.95a1.36,1.36,0,0,0,1.35,1.36h6.95a1.35,1.35,0,0,0,1.36-1.35v-6.95A1.35,1.35,0,0,0,244.63,363.07Z" transform="translate(-32.19 -19.23)"/><path class="cls-8" d="M195.81,364.2a.5.5,0,0,1,0-1h6.69a.5.5,0,0,1,.5.5.5.5,0,0,1-.5.5Z" transform="translate(-32.19 -19.23)"/><path class="cls-8" d="M195.81,367.82a.51.51,0,0,1-.5-.5.5.5,0,0,1,.5-.5h6.69a.5.5,0,0,1,.5.5.5.5,0,0,1-.5.5Z" transform="translate(-32.19 -19.23)"/><path class="cls-8" d="M195.82,371.47a.5.5,0,0,1-.5-.5.5.5,0,0,1,.5-.5h6.69a.5.5,0,0,1,0,1Z" transform="translate(-32.19 -19.23)"/><path class="cls-8" d="M288.2,373.7a.54.54,0,0,1-.36-.14l-5.26-5.26,5.12-5.13a.51.51,0,0,1,.71,0,.5.5,0,0,1,0,.71L284,368.3l4.55,4.55a.5.5,0,0,1,0,.71A.54.54,0,0,1,288.2,373.7Z" transform="translate(-32.19 -19.23)"/><rect class="cls-16" x="141.34" y="126.24" width="135.27" height="44.3"/><rect class="cls-17" x="152.41" y="135.2" width="51.39" height="10.98" rx="1.41"/><rect class="cls-17" x="152.42" y="152.32" width="78.07" height="5.49" rx="1.41"/><path class="cls-17" d="M292.15,176.12a10.39,10.39,0,1,1,0-20.77h0a10.38,10.38,0,0,1,10.38,10.38h0a10.38,10.38,0,0,1-10.38,10.39Zm0-18.77h0a8.39,8.39,0,1,0,0,16.77h0a8.38,8.38,0,0,0,8.38-8.39h0a8.38,8.38,0,0,0-8.38-8.38Z" transform="translate(-32.19 -19.23)"/><rect class="cls-13" x="153.32" y="186.62" width="31.49" height="31.49" rx="4.56"/><g class="cls-18"><path class="cls-15" d="M208.05,221.74a6.8,6.8,0,1,1-6.8-6.79A6.79,6.79,0,0,1,208.05,221.74Z" transform="translate(-32.19 -19.23)"/></g><g class="cls-19"><rect class="cls-14" x="190.29" y="191.51" width="19.98" height="5.65" rx="1.14"/><path class="cls-14" d="M222.48,225.08a1,1,0,0,1-1-1,1,1,0,0,1,1-1l34.11,0h0a1,1,0,0,1,0,2l-34.1,0Z" transform="translate(-32.19 -19.23)"/><path class="cls-14" d="M222.49,232.21a1,1,0,0,1,0-2l55.61,0h0a1,1,0,0,1,0,2l-55.61,0Z" transform="translate(-32.19 -19.23)"/><path class="cls-14" d="M264.19,225.06a1,1,0,0,1,0-2l34.1,0h0a1,1,0,0,1,0,2l-34.1,0Z" transform="translate(-32.19 -19.23)"/></g><rect class="cls-15" x="153.36" y="278.22" width="31.49" height="31.49" rx="4.56"/><g class="cls-20"><path class="cls-14" d="M208.09,313.35a6.8,6.8,0,1,1-6.8-6.79A6.8,6.8,0,0,1,208.09,313.35Z" transform="translate(-32.19 -19.23)"/></g><g class="cls-19"><rect class="cls-14" x="190.33" y="283.12" width="19.98" height="5.65" rx="1.14"/><path class="cls-14" d="M222.53,316.68a1,1,0,0,1,0-2h34.11a1,1,0,0,1,0,2Z" transform="translate(-32.19 -19.23)"/><path class="cls-14" d="M222.53,323.82a1,1,0,0,1,0-2l55.61,0h0a1,1,0,0,1,0,2l-55.61,0Z" transform="translate(-32.19 -19.23)"/><path class="cls-14" d="M264.23,316.66a1,1,0,0,1,0-2h34.1a1,1,0,1,1,0,2Z" transform="translate(-32.19 -19.23)"/></g><rect class="cls-21" x="153.34" y="232.32" width="31.49" height="31.49" rx="4.56"/><circle class="cls-17" cx="169.08" cy="248.21" r="6.8"/><g class="cls-19"><rect class="cls-14" x="190.31" y="237.21" width="19.98" height="5.65" rx="1.14"/><path class="cls-14" d="M222.51,270.77a1,1,0,0,1,0-2h15.78a1,1,0,0,1,0,2Z" transform="translate(-32.19 -19.23)"/><path class="cls-14" d="M222.51,277.91a1,1,0,0,1,0-2h32.36a1,1,0,0,1,0,2Z" transform="translate(-32.19 -19.23)"/><path class="cls-14" d="M244.88,270.76a1,1,0,0,1,0-2h31.49a1,1,0,0,1,0,2Z" transform="translate(-32.19 -19.23)"/><path class="cls-14" d="M282.24,270.75a1,1,0,0,1,0-2H298a1,1,0,0,1,0,2Z" transform="translate(-32.19 -19.23)"/></g><rect class="cls-22" x="341.36" y="280.5" width="70.83" height="114.6" rx="3.43" transform="translate(-36.27 -14.63) rotate(-0.7)"/><rect class="cls-23" x="341.36" y="280.5" width="70.83" height="114.6" rx="3.43" transform="translate(-36.27 -14.63) rotate(-0.7)"/><path class="cls-21" d="M411.77,283.47l.07,5.55-70.83.86-.07-5.72a3.28,3.28,0,0,1,3.25-3.32l64.08-.78A3.45,3.45,0,0,1,411.77,283.47Z" transform="translate(-32.19 -19.23)"/><path class="cls-8" d="M345.81,286.64a1.46,1.46,0,1,1,1.45-1.47A1.47,1.47,0,0,1,345.81,286.64Zm0-2.34a.87.87,0,0,0-.86.89.86.86,0,0,0,.88.86.87.87,0,0,0,.87-.88A.89.89,0,0,0,345.79,284.3Z" transform="translate(-32.19 -19.23)"/><path class="cls-8" d="M350.68,286.6a1.46,1.46,0,1,1,1.45-1.47A1.46,1.46,0,0,1,350.68,286.6Zm0-2.33a.88.88,0,0,0,0,1.75.89.89,0,0,0,.87-.88A.87.87,0,0,0,350.66,284.27Z" transform="translate(-32.19 -19.23)"/><path class="cls-8" d="M355.42,286.57a1.46,1.46,0,0,1,0-2.92,1.46,1.46,0,0,1,0,2.92Zm0-2.34a.89.89,0,0,0-.87.88.88.88,0,1,0,.87-.88Z" transform="translate(-32.19 -19.23)"/><path class="cls-8" d="M379.81,300l-32.73.25a.6.6,0,0,1-.59-.58.59.59,0,0,1,.58-.59l32.73-.25a.59.59,0,0,1,0,1.17Z" transform="translate(-32.19 -19.23)"/><path class="cls-8" d="M390.72,299.92l-6.79.05a.58.58,0,0,1-.59-.58.59.59,0,0,1,.58-.59l6.79-.05a.59.59,0,0,1,.59.58A.6.6,0,0,1,390.72,299.92Z" transform="translate(-32.19 -19.23)"/><path class="cls-8" d="M380,327.17l-32.73.25a.58.58,0,0,1-.59-.58.6.6,0,0,1,.58-.59L380,326a.58.58,0,0,1,0,1.16Z" transform="translate(-32.19 -19.23)"/><path class="cls-8" d="M390.93,327.09l-6.8.05a.59.59,0,0,1,0-1.17l6.8-.05a.58.58,0,0,1,.58.58A.57.57,0,0,1,390.93,327.09Z" transform="translate(-32.19 -19.23)"/><path class="cls-8" d="M379.91,313l-32.73.25a.59.59,0,0,1-.59-.58.58.58,0,0,1,.58-.59l32.73-.25a.6.6,0,0,1,.59.58A.59.59,0,0,1,379.91,313Z" transform="translate(-32.19 -19.23)"/><path class="cls-8" d="M390.82,312.89l-6.79.05a.59.59,0,1,1,0-1.17l6.79,0a.59.59,0,0,1,0,1.17Z" transform="translate(-32.19 -19.23)"/><path class="cls-8" d="M402,312.8l-6.79.05a.58.58,0,1,1,0-1.16l6.79-.06a.59.59,0,0,1,0,1.17Z" transform="translate(-32.19 -19.23)"/><path class="cls-8" d="M369,306.46l-21.82.17a.59.59,0,1,1,0-1.17l21.82-.16a.58.58,0,1,1,0,1.16Z" transform="translate(-32.19 -19.23)"/><path class="cls-8" d="M382.53,306.36l-9.57.07a.58.58,0,1,1,0-1.16l9.58-.08a.58.58,0,0,1,.58.58A.57.57,0,0,1,382.53,306.36Z" transform="translate(-32.19 -19.23)"/><path class="cls-8" d="M382.64,320l-21.82.16a.59.59,0,0,1-.59-.58.6.6,0,0,1,.58-.59l21.82-.16a.59.59,0,0,1,0,1.17Z" transform="translate(-32.19 -19.23)"/><path class="cls-8" d="M356.8,320.22l-9.57.07a.58.58,0,1,1,0-1.16l9.58-.07a.58.58,0,1,1,0,1.16Z" transform="translate(-32.19 -19.23)"/><path class="cls-8" d="M380.09,336.33l-32.73.25a.58.58,0,0,1-.59-.58.59.59,0,0,1,.58-.59l32.73-.24a.58.58,0,0,1,0,1.16Z" transform="translate(-32.19 -19.23)"/><path class="cls-8" d="M391,336.25l-6.8.05a.59.59,0,1,1,0-1.17l6.8-.05a.58.58,0,0,1,.58.58A.57.57,0,0,1,391,336.25Z" transform="translate(-32.19 -19.23)"/><path class="cls-8" d="M380.29,363.5l-32.73.25a.59.59,0,1,1,0-1.17l32.73-.24a.58.58,0,1,1,0,1.16Z" transform="translate(-32.19 -19.23)"/><path class="cls-8" d="M391.2,363.42l-6.79.05a.58.58,0,1,1,0-1.16l6.79-.06a.59.59,0,0,1,.59.58A.58.58,0,0,1,391.2,363.42Z" transform="translate(-32.19 -19.23)"/><path class="cls-8" d="M380.18,349.3l-32.73.25a.59.59,0,0,1,0-1.17l32.72-.25a.59.59,0,0,1,0,1.17Z" transform="translate(-32.19 -19.23)"/><path class="cls-8" d="M391.09,349.22l-6.79,0a.6.6,0,0,1-.59-.58.59.59,0,0,1,.58-.59l6.79-.05a.58.58,0,0,1,.59.58A.59.59,0,0,1,391.09,349.22Z" transform="translate(-32.19 -19.23)"/><path class="cls-8" d="M402.28,349.13l-6.8.05a.58.58,0,1,1,0-1.16l6.79,0a.58.58,0,1,1,0,1.16Z" transform="translate(-32.19 -19.23)"/><path class="cls-8" d="M369.22,342.8,347.4,343a.59.59,0,0,1,0-1.17l21.81-.16a.58.58,0,0,1,.59.58A.59.59,0,0,1,369.22,342.8Z" transform="translate(-32.19 -19.23)"/><path class="cls-8" d="M382.81,342.69l-9.57.07a.57.57,0,0,1-.59-.57.58.58,0,0,1,.58-.59l9.57-.07a.57.57,0,0,1,.59.57A.58.58,0,0,1,382.81,342.69Z" transform="translate(-32.19 -19.23)"/><path class="cls-8" d="M382.91,356.36l-21.82.16a.58.58,0,0,1,0-1.16l21.82-.17a.59.59,0,0,1,0,1.17Z" transform="translate(-32.19 -19.23)"/><path class="cls-8" d="M357.08,356.55l-9.57.08a.59.59,0,0,1-.59-.58.58.58,0,0,1,.58-.59l9.57-.07a.58.58,0,1,1,0,1.16Z" transform="translate(-32.19 -19.23)"/><path class="cls-8" d="M380.35,371.91l-32.72.24a.58.58,0,1,1,0-1.16l32.73-.25a.59.59,0,0,1,0,1.17Z" transform="translate(-32.19 -19.23)"/><path class="cls-8" d="M391.26,371.82l-6.79.05a.58.58,0,1,1,0-1.16l6.8,0a.58.58,0,0,1,0,1.16Z" transform="translate(-32.19 -19.23)"/><path class="cls-8" d="M391.39,389l-6.79,0a.59.59,0,1,1,0-1.17l6.8-.05a.59.59,0,0,1,0,1.17Z" transform="translate(-32.19 -19.23)"/><path class="cls-8" d="M402.58,388.89l-6.79.06a.59.59,0,1,1,0-1.17l6.79,0a.59.59,0,0,1,.59.58A.58.58,0,0,1,402.58,388.89Z" transform="translate(-32.19 -19.23)"/><path class="cls-8" d="M369.49,378.37l-21.82.16a.58.58,0,0,1,0-1.16l21.82-.17a.58.58,0,0,1,.59.58A.59.59,0,0,1,369.49,378.37Z" transform="translate(-32.19 -19.23)"/><path class="cls-8" d="M383.08,378.27l-9.57.07a.58.58,0,0,1-.59-.58.59.59,0,0,1,.58-.59l9.57-.07a.59.59,0,0,1,.59.58A.6.6,0,0,1,383.08,378.27Z" transform="translate(-32.19 -19.23)"/><rect class="cls-24" x="348.25" y="116.21" width="83.88" height="135.72" rx="3.43" transform="translate(-34.05 -15.24) rotate(-0.59)"/><rect class="cls-8" x="343.66" y="110.25" width="83.88" height="135.72" rx="3.43" transform="translate(-33.99 -15.28) rotate(-0.59)"/><path class="cls-15" d="M427.16,113.21l.07,7.2-83.87.86-.08-7.37a3.29,3.29,0,0,1,3.26-3.32l77.13-.79A3.45,3.45,0,0,1,427.16,113.21Z" transform="translate(-32.19 -19.23)"/><path class="cls-8" d="M416.81,114.19a.51.51,0,0,1-.5-.5.5.5,0,0,1,.5-.5l6.29-.07a.49.49,0,0,1,.5.5.5.5,0,0,1-.49.5l-6.3.07Z" transform="translate(-32.19 -19.23)"/><path class="cls-8" d="M416.83,115.79a.49.49,0,0,1-.5-.49.5.5,0,0,1,.49-.51l6.29-.06a.55.55,0,0,1,.51.49.5.5,0,0,1-.5.51l-6.29.06Z" transform="translate(-32.19 -19.23)"/><path class="cls-8" d="M416.84,117.4a.51.51,0,0,1-.5-.5.5.5,0,0,1,.5-.5l6.29-.06h0a.5.5,0,0,1,0,1l-6.29.06Z" transform="translate(-32.19 -19.23)"/><path class="cls-8" d="M350.83,119.07a.52.52,0,0,1-.35-.14l-2.31-2.26a.71.71,0,0,1,0-1l2.18-2.22a.5.5,0,0,1,.71.7l-2,2,2.09,2a.5.5,0,0,1-.35.86Z" transform="translate(-32.19 -19.23)"/><path class="cls-16" d="M424.62,245.8l-77.27.43a3.37,3.37,0,0,1-3.39-3.35l-.16-26.78,84-.47L428,242.4A3.37,3.37,0,0,1,424.62,245.8Z" transform="translate(-32.19 -19.23)"/><rect class="cls-13" x="367.37" y="133.71" width="35.99" height="5.93" rx="1.12" transform="translate(-32.96 -17.06) rotate(-0.32)"/><rect class="cls-25" x="353.25" y="153.24" width="64.47" height="10.63" rx="4.73" transform="translate(-33.08 -17.06) rotate(-0.32)"/><path class="cls-17" d="M362.08,158.72a3.27,3.27,0,1,1-3.28-3.25A3.26,3.26,0,0,1,362.08,158.72Z" transform="translate(-32.19 -19.23)"/><path class="cls-8" d="M360,157.8a1.18,1.18,0,1,1-1.19-1.17A1.17,1.17,0,0,1,360,157.8Z" transform="translate(-32.19 -19.23)"/><path class="cls-8" d="M360.57,160.84l-3.49,0v-.43a1.82,1.82,0,0,1,1.82-1.84h0a1.66,1.66,0,0,1,1.67,1.65Z" transform="translate(-32.19 -19.23)"/><rect class="cls-25" x="353.35" y="170.55" width="64.47" height="10.63" rx="4.73" transform="translate(-33.18 -17.06) rotate(-0.32)"/><path class="cls-17" d="M362.18,176a3.27,3.27,0,1,1-3.29-3.25A3.26,3.26,0,0,1,362.18,176Z" transform="translate(-32.19 -19.23)"/><rect class="cls-8" x="357.49" y="175.51" width="2.84" height="2.6" rx="0.32" transform="translate(-33.18 -17.22) rotate(-0.32)"/><path class="cls-8" d="M357.77,175.75v-.81a.83.83,0,0,1,.23-.57.79.79,0,0,1,.57-.23h.74a.72.72,0,0,1,.72.72v.89h-.25v-.89a.48.48,0,0,0-.47-.47h-.74a.55.55,0,0,0-.55.55v.81Z" transform="translate(-32.19 -19.23)"/><path class="cls-21" d="M398.65,200.35l-23.73.14a5.21,5.21,0,0,1-5.23-5.17h0a5.19,5.19,0,0,1,5.17-5.23l23.73-.14a5.21,5.21,0,0,1,5.23,5.17h0A5.2,5.2,0,0,1,398.65,200.35Z" transform="translate(-32.19 -19.23)"/><path class="cls-8" d="M362.91,227.14a1,1,0,1,1,0-2l45.91-.26h0a1,1,0,0,1,0,2l-45.92.26Z" transform="translate(-32.19 -19.23)"/><path class="cls-8" d="M372.26,234.05a1,1,0,0,1,0-2l27.31-.16h0a1,1,0,0,1,0,2l-27.31.16Z" transform="translate(-32.19 -19.23)"/><rect class="cls-24" x="289.6" y="203.68" width="83.88" height="135.72" rx="3.43" transform="translate(-34.95 -15.83) rotate(-0.59)"/><rect class="cls-8" x="285.01" y="197.72" width="83.88" height="135.72" rx="3.43" transform="matrix(1, -0.01, 0.01, 1, -34.89, -15.88)"/><rect class="cls-26" x="285.01" y="197.72" width="83.88" height="135.72" rx="3.43" transform="matrix(1, -0.01, 0.01, 1, -34.89, -15.88)"/><path class="cls-15" d="M368.51,200.68l.08,7.2-83.88.86-.07-7.37a3.27,3.27,0,0,1,3.25-3.32l77.13-.79A3.45,3.45,0,0,1,368.51,200.68Z" transform="translate(-32.19 -19.23)"/><path class="cls-8" d="M358.16,201.66a.51.51,0,0,1-.5-.5.5.5,0,0,1,.5-.5l6.29-.07a.53.53,0,0,1,.5.5.49.49,0,0,1-.49.5l-6.29.07Z" transform="translate(-32.19 -19.23)"/><path class="cls-8" d="M358.18,203.26a.5.5,0,0,1-.5-.49.51.51,0,0,1,.49-.51l6.3-.06h0a.5.5,0,0,1,0,1l-6.3.06Z" transform="translate(-32.19 -19.23)"/><path class="cls-8" d="M358.2,204.87a.5.5,0,0,1,0-1l6.29-.06h0a.5.5,0,1,1,0,1l-6.29.06Z" transform="translate(-32.19 -19.23)"/><path class="cls-8" d="M292.18,206.54a.54.54,0,0,1-.35-.14l-2.31-2.26a.72.72,0,0,1,0-1l2.18-2.22a.5.5,0,0,1,.71,0,.49.49,0,0,1,0,.7l-2,2,2.09,2.05a.5.5,0,0,1-.35.86Z" transform="translate(-32.19 -19.23)"/><g class="cls-18"><path class="cls-8" d="M366,333.27l-77.27.43a3.37,3.37,0,0,1-3.39-3.35l-.15-26.78,84-.47.16,26.77A3.38,3.38,0,0,1,366,333.27Z" transform="translate(-32.19 -19.23)"/><path class="cls-8" d="M288.68,334.2a3.88,3.88,0,0,1-3.87-3.85l-.16-27.28,85-.48.15,27.28a3.88,3.88,0,0,1-3.85,3.9l-77.27.43Zm-3-30.13.15,26.27a2.87,2.87,0,0,0,2.87,2.86h0l77.27-.43a2.88,2.88,0,0,0,2.85-2.89l-.14-26.28Z" transform="translate(-32.19 -19.23)"/></g><rect class="cls-8" x="324.36" y="191.38" width="9.94" height="64.47" rx="1.95" transform="translate(73.12 533.44) rotate(-89.93)"/><path class="cls-8" d="M359.91,236.33l-61.18-.08a1.64,1.64,0,0,1-1.64-1.65h0a1.64,1.64,0,0,1,1.65-1.64l61.17.07a1.65,1.65,0,0,1,1.65,1.65h0A1.66,1.66,0,0,1,359.91,236.33Z" transform="translate(-32.19 -19.23)"/><path class="cls-8" d="M359.9,243.93l-61.18-.08a1.64,1.64,0,0,1-1.64-1.65h0a1.65,1.65,0,0,1,1.65-1.65l61.17.08a1.65,1.65,0,0,1,1.65,1.65h0A1.66,1.66,0,0,1,359.9,243.93Z" transform="translate(-32.19 -19.23)"/><path class="cls-21" d="M305.35,255.06a4.15,4.15,0,1,1-4.14-4.15A4.15,4.15,0,0,1,305.35,255.06Z" transform="translate(-32.19 -19.23)"/><path class="cls-21" d="M305.33,273.86a4.15,4.15,0,1,1-4.14-4.15A4.15,4.15,0,0,1,305.33,273.86Z" transform="translate(-32.19 -19.23)"/><path class="cls-21" d="M305.31,292.11a4.15,4.15,0,1,1-4.14-4.15A4.14,4.14,0,0,1,305.31,292.11Z" transform="translate(-32.19 -19.23)"/><path class="cls-8" d="M347.39,253.59h0l-39.68-.05a.5.5,0,0,1-.5-.5.5.5,0,0,1,.5-.5h0l39.68.05a.51.51,0,0,1,.5.5A.5.5,0,0,1,347.39,253.59Z" transform="translate(-32.19 -19.23)"/><path class="cls-8" d="M327.54,257.79h0l-19.84,0a.5.5,0,0,1-.5-.5.51.51,0,0,1,.5-.5h0l19.84,0a.5.5,0,0,1,.5.5A.5.5,0,0,1,327.54,257.79Z" transform="translate(-32.19 -19.23)"/><path class="cls-8" d="M347.36,273h0L307.68,273a.51.51,0,0,1-.5-.5.5.5,0,0,1,.5-.5h0l39.68.05a.5.5,0,0,1,0,1Z" transform="translate(-32.19 -19.23)"/><path class="cls-8" d="M327.52,277.21h0l-19.84,0a.5.5,0,0,1,0-1h0l19.84,0a.5.5,0,0,1,.5.5A.51.51,0,0,1,327.52,277.21Z" transform="translate(-32.19 -19.23)"/><path class="cls-8" d="M347.34,290.74h0l-39.68-.05a.51.51,0,0,1-.5-.5.5.5,0,0,1,.5-.5h0l39.68.05a.5.5,0,0,1,0,1Z" transform="translate(-32.19 -19.23)"/><path class="cls-8" d="M327.5,294.94h0l-19.85,0a.5.5,0,0,1,0-1h0l19.84,0a.5.5,0,0,1,.5.5A.51.51,0,0,1,327.5,294.94Z" transform="translate(-32.19 -19.23)"/><path class="cls-8" d="M304.26,314.61a1,1,0,1,1,0-2l45.92-.26h0a1,1,0,0,1,1,1,1,1,0,0,1-1,1l-45.92.26Z" transform="translate(-32.19 -19.23)"/><path class="cls-8" d="M313.61,321.52a1,1,0,0,1,0-2l27.3-.16h0a1,1,0,0,1,1,1,1,1,0,0,1-1,1l-27.3.16Z" transform="translate(-32.19 -19.23)"/></g></svg>