<svg xmlns="http://www.w3.org/2000/svg" xmlns:xlink="http://www.w3.org/1999/xlink" viewBox="0 0 373 305"><style><![CDATA[.x{fill:#fff}.y{fill:#354e6e}.z{stroke-miterlimit:10}.AA{stroke-linejoin:round}.AB{stroke-linecap:round}.AC{fill:none}.AD{fill:#b9d1f6}.AE{fill:#d41f26}.AF{fill:#89e1ff}.AG{opacity:.56}.AH{stroke:#354e6e}.AI{stroke-width:.971}.AJ{fill:#69d6f4}.AK{opacity:.23}.AL{fill:#072945}.AM{fill:#8ba3c6}.AN{stroke:#051d2b}.AO{fill:#acc4e5}.AP{stroke-width:.739}]]></style><linearGradient id="A" gradientUnits="userSpaceOnUse" x1="87.338" y1="169.38" x2="426.224" y2="-118.076"><stop offset="0" stop-color="#b9d1f6" stop-opacity="0"/><stop offset=".144" stop-color="#b9d1f6" stop-opacity=".144"/><stop offset="1" stop-color="#b9d1f6"/></linearGradient><circle cx="160.2" cy="107.5" r="101.6" fill="url(#A)"/><linearGradient id="B" gradientUnits="userSpaceOnUse" x1="24.656" y1="138.213" x2="140.947" y2="39.571"><stop offset="0" stop-color="#b9d1f6" stop-opacity="0"/><stop offset=".144" stop-color="#b9d1f6" stop-opacity=".144"/><stop offset="1" stop-color="#b9d1f6"/></linearGradient><circle cx="49.7" cy="117" r="34.9" fill="url(#B)"/><linearGradient id="C" gradientUnits="userSpaceOnUse" x1="292.668" y1="58.7" x2="358.347" y2="15.577"><stop offset="0" stop-color="#b9d1f6" stop-opacity="0"/><stop offset=".144" stop-color="#b9d1f6" stop-opacity=".144"/><stop offset="1" stop-color="#b9d1f6"/></linearGradient><circle cx="301.9" cy="52.6" r="11" fill="url(#C)"/><linearGradient id="D" gradientUnits="userSpaceOnUse" x1="381.593" y1="242.058" x2="-323.847" y2="388.896"><stop offset="0" stop-color="#fff"/><stop offset=".01" stop-color="#fdfdff"/><stop offset=".132" stop-color="#e4edfc"/><stop offset=".268" stop-color="#d1e1f9"/><stop offset=".426" stop-color="#c3d8f7"/><stop offset=".626" stop-color="#bbd3f6"/><stop offset=".997" stop-color="#b9d1f6"/></linearGradient><path d="M358.2 277.8c-7.8 8.3-18.4 12.3-29.6 12.4-7.4.1-14.8-1-22.2-.8-19.2.6-37.1 9.7-56.3 9.6-20.8-.1-41.3-4.2-61.8-7.3-27.1-4.1-54.5-5.8-81.8-6.4-26.4-.5-52.9.9-78.4-7.3-.3-.1-.7-.2-1-.3h331.1" fill="url(#D)"/><path d="M49.2 201.9c.9-.1 1.8.3 2.5 1.4 1.2 1.9 1.6 4.6 3.6 5.7 1.2.7 2.7.5 4.1.7.5 0 1.1.1 1.6.5.6.5.7 1.3.7 2-.1 5.1 1.1 7.3 5.8 9.2 4.5 1.8 3.6 4.9 1.5 8.7-7 13 6.2 7.4 1.8 17.9s1.3 23.1-5.3 17.9c0 0-5.8-12.7-11.8-16.6s3.6-8.6 1.7-13.9c-2.7-7.7-9.3-7.4-4.5-15.8 1.9-3.3.7-6.6-1.1-9.7-1-1.6-2.8-3.5-2.7-5.5.1-1.5 1.1-2.4 2.1-2.5z" fill="#a7c3ea"/><defs><path id="E" d="M49.2 201.9c.9-.1 1.8.3 2.5 1.4 1.2 1.9 1.6 4.6 3.6 5.7 1.2.7 2.7.5 4.1.7.5 0 1.1.1 1.6.5.6.5.7 1.3.7 2-.1 5.1 1.1 7.3 5.8 9.2 4.5 1.8 3.6 4.9 1.5 8.7-7 13 6.2 7.4 1.8 17.9s1.3 23.1-5.3 17.9c0 0-5.8-12.7-11.8-16.6s3.6-8.6 1.7-13.9c-2.7-7.7-9.3-7.4-4.5-15.8 1.9-3.3.7-6.6-1.1-9.7-1-1.6-2.8-3.5-2.7-5.5.1-1.5 1.1-2.4 2.1-2.5z"/><path id="F" d="M120.9 42.2s9.2 88.6 55.7 92.1 14.7 110.1 50.9 132.9S109 289 109 289l11.9-246.8z"/><path id="G" d="M98.2 59.6s7.8 35.9 77.7 53 14.7 45.7 67.8 66.5S90.3 288 90.3 288l-20-161.9 27.9-66.5z"/><path id="H" d="M205.9 129h-18.5c-4.7 0-8.5-3.8-8.5-8.5h0c0-4.7 3.8-8.5 8.5-8.5h18.5c4.7 0 8.5 3.8 8.5 8.5h0c0 4.7-3.8 8.5-8.5 8.5z"/><path id="I" d="M215.3 101.5h-36.9a5.59 5.59 0 0 1-5.6-5.6v-6.7a5.59 5.59 0 0 1 5.6-5.6h36.9a5.59 5.59 0 0 1 5.6 5.6v6.7c-.1 3.1-2.6 5.6-5.6 5.6z"/><path id="J" d="M116 77.3s3.4 18.3 38.7 28.1 6.8 23.4 33.4 34.8-74.6-1.6-74.6-1.6l-12.8-28.1L116 77.3z"/><path id="K" d="M98.2 172.7s7.8 35.9 77.7 53 14.7 45.7 67.8 66.5C296.9 313 90.3 401.1 90.3 401.1l-20-161.9 27.9-66.5z"/><path id="L" d="M116 190.4s3.4 18.3 38.7 28.1c35.3 9.9 6.8 23.4 33.4 34.8s-74.6-1.6-74.6-1.6l-12.8-28.1 15.3-33.2z"/><path id="M" d="M283.1 157.4h-69.3c-2.4 0-4.4-2-4.4-4.4v-7.8c0-2.4 2-4.4 4.4-4.4h69.3c2.4 0 4.4 2 4.4 4.4v7.8c0 2.4-2 4.4-4.4 4.4z"/></defs><clipPath id="N"><use xlink:href="#E"/></clipPath><linearGradient id="O" gradientUnits="userSpaceOnUse" x1="52.257" y1="240.96" x2="76.859" y2="240.96"><stop offset="0" stop-color="#fff"/><stop offset=".997" stop-color="#b9d1f6"/></linearGradient><path d="M54.4 200.5c.9-.1 1.8.4 2.5 1.7 1.2 2.4 1.6 5.7 3.6 7.1 1.2.9 2.7.7 4.1.8.5.1 1.1.2 1.6.6.6.6.7 1.6.7 2.5-.1 6.4 1.1 9.1 5.8 11.4 4.5 2.2 3.6 6.1 1.5 10.9-7 16.2 6.2 9.2 1.8 22.2-4.4 13.1 1.3 28.7-5.3 22.3 0 0-5.8-15.8-11.8-20.7s3.6-10.7 1.7-17.3c-2.7-9.6-9.3-9.3-4.5-19.6 1.9-4.1.7-8.3-1.1-12-1-2-2.8-4.3-2.7-6.8.1-1.9 1-3 2.1-3.1z" clip-path="url(#N)" fill="url(#O)" class="AK"/><path d="M77.1 212.3c-3-1-2.4 4.7-3.6 9-1.3 4.2-14 1.9-8.6 12.5 5.3 10.6-6.8 3.6-3.1 12.8 3.6 9.3.3 19.2 4.2 16.7s2.2-14.2 6.3-15.6 4.8-3 .7-6.8c-4-3.8 10.6-7.5 7-15.1-3.7-7.7.5-12.4-2.9-13.5z" class="AM"/><defs><path id="P" d="M77.1 212.3c-3-1-2.4 4.7-3.6 9-1.3 4.2-14 1.9-8.6 12.5 5.3 10.6-6.8 3.6-3.1 12.8 3.6 9.3.3 19.2 4.2 16.7s2.2-14.2 6.3-15.6 4.8-3 .7-6.8c-4-3.8 10.6-7.5 7-15.1-3.7-7.7.5-12.4-2.9-13.5z"/></defs><clipPath id="Q"><use xlink:href="#P"/></clipPath><linearGradient id="R" gradientUnits="userSpaceOnUse" x1="64.089" y1="247.321" x2="83.582" y2="247.321"><stop offset="0" stop-color="#fff"/><stop offset=".997" stop-color="#b9d1f6"/></linearGradient><path d="M80.2 212c-3-1.4-2.4 6.5-3.6 12.4-1.3 5.9-14 2.6-8.6 17.2 5.3 14.7-6.8 4.9-3.1 17.7 3.6 12.8.3 26.5 4.2 23s2.2-19.6 6.3-21.5 4.8-4.1.7-9.4c-4-5.2 10.6-10.4 7-20.9-3.7-10.5.5-16.9-2.9-18.5z" clip-path="url(#Q)" fill="url(#R)" class="AK"/><path d="M71.5 278.7H58.2a3.33 3.33 0 0 1-3.3-3.3v-19.1h19.8v19.1c0 1.9-1.4 3.3-3.2 3.3z" class="y"/><defs><path id="S" d="M71.5 278.7H58.2a3.33 3.33 0 0 1-3.3-3.3v-19.1h19.8v19.1c0 1.9-1.4 3.3-3.2 3.3z"/></defs><clipPath id="T"><use xlink:href="#S"/></clipPath><path d="M73.2 252.7s-4.6 1.8-4.4 14.9-7.1 12.9-12.4 13.5-7.8-16.4-7.8-17 6.2-12.7 6.3-12.8c.2-.2 18.3 1.4 18.3 1.4z" clip-path="url(#T)" fill="#5f7799"/><path d="M237.3 46.4h-71c-3.5 0-6.3-2.8-6.3-6.3v-5.2c0-3.5 2.8-6.3 6.3-6.3h71c3.5 0 6.3 2.8 6.3 6.3v5.2c0 3.4-2.8 6.3-6.3 6.3z" class="AM"/><defs><path id="U" d="M237.3 46.4h-71c-3.5 0-6.3-2.8-6.3-6.3v-5.2c0-3.5 2.8-6.3 6.3-6.3h71c3.5 0 6.3 2.8 6.3 6.3v5.2c0 3.4-2.8 6.3-6.3 6.3z"/></defs><clipPath id="V"><use xlink:href="#U"/></clipPath><linearGradient id="W" gradientUnits="userSpaceOnUse" x1="119.861" y1="47.099" x2="250.665" y2="47.099"><stop offset="0" stop-color="#fff"/><stop offset=".997" stop-color="#b9d1f6"/></linearGradient><path d="M127.2 26.9s11.2 10.6 60.4 4.7 17.4 12.7 56.1 10.8-96.9 24.9-96.9 24.9l-26.9-13.7 7.3-26.7z" clip-path="url(#V)" fill="url(#W)" class="AK"/><g class="AA AC AN AP"><g class="z"><path d="M170.4 32.6h62.9v9.8h-62.9z"/><path d="M175 37.5h31.1" class="AB"/></g><circle cx="227.9" cy="37.1" r="1.9"/><path d="M229.3 38.4l1.8 1.8" class="z AB"/></g><path d="M165.2 97.2h-29c-1.6 0-2.9-1.3-2.9-2.9V64.2c0-1.6 1.3-2.9 2.9-2.9h29c1.6 0 2.9 1.3 2.9 2.9v30.1c0 1.6-1.3 2.9-2.9 2.9z" class="AD"/><defs><path id="X" d="M165.2 97.2h-29c-1.6 0-2.9-1.3-2.9-2.9V64.2c0-1.6 1.3-2.9 2.9-2.9h29c1.6 0 2.9 1.3 2.9 2.9v30.1c0 1.6-1.3 2.9-2.9 2.9z"/></defs><clipPath id="Y"><use xlink:href="#X"/></clipPath><linearGradient id="Z" gradientUnits="userSpaceOnUse" x1="166.056" y1="58.691" x2="130.58" y2="104.602"><stop offset="0" stop-color="#fff"/><stop offset=".997" stop-color="#b9d1f6"/></linearGradient><path d="M126.8 61.6s3.8 13.3 23.3 13.9 6.1 16.6 21.3 20-49.6 3.3-49.6 3.3l5-37.2z" opacity=".6" clip-path="url(#Y)" fill="url(#Z)"/><path d="M157.8 89.7h-14.2a3.33 3.33 0 0 1-3.3-3.3V76h20.9v10.4c0 1.8-1.5 3.3-3.4 3.3z" class="x"/><circle cx="150.7" cy="82.3" r="2.6" class="AD"/><path d="M161 77.8h-20.6a2.22 2.22 0 0 1-2.2-2.2h0a2.22 2.22 0 0 1 2.2-2.2H161a2.22 2.22 0 0 1 2.2 2.2h0a2.22 2.22 0 0 1-2.2 2.2z" class="y"/><path d="M150.7 75.3l8.7-9.7" stroke-width="2.047" class="z AA AB AC AN"/><path d="M213.7 277.2h-69.4c-10.9 0-19.8-8.9-19.8-19.8V72.5c0-10.9 8.9-19.8 19.8-19.8h69.4c10.9 0 19.8 8.9 19.8 19.8v184.9c.1 10.9-8.8 19.8-19.8 19.8z" class="AL"/><defs><path id="a" d="M213.7 277.2h-69.4c-10.9 0-19.8-8.9-19.8-19.8V72.5c0-10.9 8.9-19.8 19.8-19.8h69.4c10.9 0 19.8 8.9 19.8 19.8v184.9c.1 10.9-8.8 19.8-19.8 19.8z"/></defs><clipPath id="b"><use xlink:href="#a"/></clipPath><use xlink:href="#F" clip-path="url(#b)" fill="#051d2b"/><path d="M210.8 272.6h-64.7c-9.4 0-17.1-7.7-17.1-17.1V74.8c0-9.4 7.7-17.1 17.1-17.1h64.7c9.4 0 17.1 7.7 17.1 17.1v180.7c0 9.5-7.7 17.1-17.1 17.1z" class="x"/><defs><path id="c" d="M210.8 272.6h-64.7c-9.4 0-17.1-7.7-17.1-17.1V74.8c0-9.4 7.7-17.1 17.1-17.1h64.7c9.4 0 17.1 7.7 17.1 17.1v180.7c0 9.5-7.7 17.1-17.1 17.1z"/></defs><clipPath id="d"><use xlink:href="#c"/></clipPath><linearGradient id="e" gradientUnits="userSpaceOnUse" x1="191.046" y1="134.837" x2="133.047" y2="217.283"><stop offset="0" stop-color="#fff"/><stop offset=".361" stop-color="#e6effc"/><stop offset=".997" stop-color="#b9d1f6"/></linearGradient><path d="M120.9 42.2s9.2 85.8 55.7 89.2 14.7 106.6 50.9 128.7S109 281.2 109 281.2l11.9-239z" opacity=".25" clip-path="url(#d)" fill="url(#e)"/><defs><path id="f" d="M210.8 272.6h-64.7c-9.4 0-17.1-7.7-17.1-17.1V74.8c0-9.4 7.7-17.1 17.1-17.1h64.7c9.4 0 17.1 7.7 17.1 17.1v180.7c0 9.5-7.7 17.1-17.1 17.1z"/></defs><clipPath id="g"><use xlink:href="#f"/></clipPath><g clip-path="url(#g)"><path d="M175.2 77.8h-34.3c-1.6 0-2.8-1.3-2.8-2.8v-3.9c0-1.6 1.3-2.8 2.8-2.8h34.3c1.6 0 2.8 1.3 2.8 2.8V75c0 1.6-1.3 2.8-2.8 2.8z" class="AE"/><g stroke="#435067" stroke-width=".534" class="x z AA AB"><path d="M211.9 70.3h5.8m-5.8 1.8h5.8m-5.8 1.8h5.8"/></g><path d="M173.9 189.5h-32.4a6.02 6.02 0 0 1-6-6v-36.9a6.02 6.02 0 0 1 6-6h32.4a6.02 6.02 0 0 1 6 6v36.9a6.02 6.02 0 0 1-6 6z" class="AF"/><path d="M215.4 189.5h-22.6c-3 0-5.4-2.4-5.4-5.4V146c0-3 2.4-5.4 5.4-5.4h22.6c3 0 5.4 2.4 5.4 5.4v38.1c0 2.9-2.4 5.4-5.4 5.4z" class="AD"/><defs><path id="h" d="M173.9 189.5h-32.4a6.02 6.02 0 0 1-6-6v-36.9a6.02 6.02 0 0 1 6-6h32.4a6.02 6.02 0 0 1 6 6v36.9a6.02 6.02 0 0 1-6 6z"/></defs><clipPath id="i"><use xlink:href="#h"/></clipPath><path d="M127.7 129.4s2.4 19.4 22.3 25.3c23.7 7 10.1 16.3 27 27.1 34.9 22.4-55.1 9.8-55.1 9.8l5.8-62.2z" clip-path="url(#i)" class="AJ"/><path d="M220.8 110.9v20.2c0 2.4-2 4.4-4.4 4.4h-76.5c-2.4 0-4.4-2-4.4-4.4v-5.7c0-2.4 2-4.4 4.4-4.4h28.5c2.4 0 4.4-2 4.4-4.4v-5.7c0-2.4 2-4.4 4.4-4.4h39.3c2.4 0 4.3 2 4.3 4.4z" class="x"/><defs><path id="j" d="M220.8 110.9v20.2c0 2.4-2 4.4-4.4 4.4h-76.5c-2.4 0-4.4-2-4.4-4.4v-5.7c0-2.4 2-4.4 4.4-4.4h28.5c2.4 0 4.4-2 4.4-4.4v-5.7c0-2.4 2-4.4 4.4-4.4h39.3c2.4 0 4.3 2 4.3 4.4z"/></defs><clipPath id="k"><use xlink:href="#j"/></clipPath><linearGradient id="l" gradientUnits="userSpaceOnUse" x1="224.421" y1="103.606" x2="152.245" y2="145.034"><stop offset="0" stop-color="#fff"/><stop offset=".997" stop-color="#b9d1f6"/></linearGradient><use xlink:href="#G" clip-path="url(#k)" fill="url(#l)" class="AG"/><use xlink:href="#H" class="AF"/><defs><path id="m" d="M205.9 129h-18.5c-4.7 0-8.5-3.8-8.5-8.5h0c0-4.7 3.8-8.5 8.5-8.5h18.5c4.7 0 8.5 3.8 8.5 8.5h0c0 4.7-3.8 8.5-8.5 8.5z"/></defs><clipPath id="n"><use xlink:href="#m"/></clipPath><use xlink:href="#G" clip-path="url(#n)" class="AJ"/><g class="z AA AB AC AH AI"><path d="M143.8 146.9h27.8m-27.8 4.6h23m-23 9.3h10.6m-10.6-4.6h27.8"/></g><defs><path id="o" d="M215.4 189.5h-22.6c-3 0-5.4-2.4-5.4-5.4V146c0-3 2.4-5.4 5.4-5.4h22.6c3 0 5.4 2.4 5.4 5.4v38.1c0 2.9-2.4 5.4-5.4 5.4z"/></defs><clipPath id="p"><use xlink:href="#o"/></clipPath><use xlink:href="#G" clip-path="url(#p)" class="AO"/><g class="z AA AB AC AH AI"><path d="M190.3 147.3H218m-27.7 4.6h20.1m-20.1 9.3h6.9m-6.9-4.6H218m-27.7 10.2H218m-27.7 4.7h20.1m-20.1 9.3h6.9m-6.9-4.7H218m-74.2-7h27.8m-27.8 4.7h27.8m-27.8 9.3H168m-24.2-4.6h27.8"/></g><use xlink:href="#I" class="x"/><defs><path id="q" d="M215.3 101.5h-36.9a5.59 5.59 0 0 1-5.6-5.6v-6.7a5.59 5.59 0 0 1 5.6-5.6h36.9a5.59 5.59 0 0 1 5.6 5.6v6.7c-.1 3.1-2.6 5.6-5.6 5.6z"/></defs><clipPath id="r"><use xlink:href="#q"/></clipPath><linearGradient id="s" gradientUnits="userSpaceOnUse" x1="150.776" y1="97.207" x2="224.198" y2="97.207"><stop offset="0" stop-color="#fff"/><stop offset=".997" stop-color="#b9d1f6"/></linearGradient><path d="M150.8 73.6s10.6 16.4 31.1 13.1c24.4-3.9 16.7 7.6 36.1 12.7 28.7 7.6-50.8 21.5-50.8 21.5l-16.4-47.3z" clip-path="url(#r)" fill="url(#s)" class="AG"/><g class="z AA AB AC AH AI"><path d="M184.4 87.8h30.5M178.7 91h36.2m-36.2 3.1h36.2m-36.2 3.2h18.5"/></g><path d="M160.9 114.7h-19.7c-3.1 0-5.7-2.5-5.7-5.7V89.3c0-3.1 2.5-5.7 5.7-5.7h19.7c3.1 0 5.7 2.5 5.7 5.7V109c0 3.2-2.6 5.7-5.7 5.7z" class="AD"/><defs><path id="t" d="M160.9 114.7h-19.7c-3.1 0-5.7-2.5-5.7-5.7V89.3c0-3.1 2.5-5.7 5.7-5.7h19.7c3.1 0 5.7 2.5 5.7 5.7V109c0 3.2-2.6 5.7-5.7 5.7z"/></defs><clipPath id="u"><use xlink:href="#t"/></clipPath><use xlink:href="#J" clip-path="url(#u)" class="AO"/><defs><path id="v" d="M160.9 114.7h-19.7c-3.1 0-5.7-2.5-5.7-5.7V89.3c0-3.1 2.5-5.7 5.7-5.7h19.7c3.1 0 5.7 2.5 5.7 5.7V109c0 3.2-2.6 5.7-5.7 5.7z"/></defs><clipPath id="w"><use xlink:href="#v"/></clipPath><g clip-path="url(#w)"><g class="x"><path d="M134.5 107.8l9.3-10.5 8.6 6.1 9.6-10.8 6.3 4.7v20.2H132z"/><circle cx="150.2" cy="92.6" r="3.9"/></g><defs><path id="x" d="M134.5 107.8l9.3-10.5 8.6 6.1 9.6-10.8 6.3 4.7v20.2H132z"/></defs><clipPath id="y"><use xlink:href="#x"/></clipPath><linearGradient id="z" gradientUnits="userSpaceOnUse" x1="100.746" y1="111.114" x2="192.61" y2="111.114"><stop offset="0" stop-color="#fff"/><stop offset=".997" stop-color="#b9d1f6"/></linearGradient><use xlink:href="#J" clip-path="url(#y)" fill="url(#z)" class="AG"/></g><path d="M173.9 302.5h-32.4a6.02 6.02 0 0 1-6-6v-36.9a6.02 6.02 0 0 1 6-6h32.4a6.02 6.02 0 0 1 6 6v36.9c0 3.4-2.7 6-6 6z" class="AF"/><path d="M215.4 302.5h-22.6c-3 0-5.4-2.4-5.4-5.4V259c0-3 2.4-5.4 5.4-5.4h22.6c3 0 5.4 2.4 5.4 5.4v38.1c0 3-2.4 5.4-5.4 5.4z" class="AD"/><defs><path id="AA" d="M173.9 302.5h-32.4a6.02 6.02 0 0 1-6-6v-36.9a6.02 6.02 0 0 1 6-6h32.4a6.02 6.02 0 0 1 6 6v36.9c0 3.4-2.7 6-6 6z"/></defs><clipPath id="AB"><use xlink:href="#AA"/></clipPath><path d="M127.7 242.5s2.4 19.4 22.3 25.3c23.7 7 10.1 16.3 27 27.1 34.9 22.4-55.1 9.8-55.1 9.8l5.8-62.2z" clip-path="url(#AB)" class="AJ"/><path d="M220.8 224v20.2c0 2.4-2 4.4-4.4 4.4h-76.5c-2.4 0-4.4-2-4.4-4.4v-5.7c0-2.4 2-4.4 4.4-4.4h28.5c2.4 0 4.4-2 4.4-4.4V224c0-2.4 2-4.4 4.4-4.4h39.3c2.4 0 4.3 2 4.3 4.4z" class="x"/><defs><path id="AC" d="M220.8 224v20.2c0 2.4-2 4.4-4.4 4.4h-76.5c-2.4 0-4.4-2-4.4-4.4v-5.7c0-2.4 2-4.4 4.4-4.4h28.5c2.4 0 4.4-2 4.4-4.4V224c0-2.4 2-4.4 4.4-4.4h39.3c2.4 0 4.3 2 4.3 4.4z"/></defs><clipPath id="AD"><use xlink:href="#AC"/></clipPath><linearGradient id="AE" gradientUnits="userSpaceOnUse" x1="224.421" y1="216.697" x2="152.245" y2="258.125"><stop offset="0" stop-color="#fff"/><stop offset=".997" stop-color="#b9d1f6"/></linearGradient><use xlink:href="#K" clip-path="url(#AD)" fill="url(#AE)" class="AG"/><path d="M205.9 242.1h-18.5c-4.7 0-8.5-3.8-8.5-8.5h0c0-4.7 3.8-8.5 8.5-8.5h18.5c4.7 0 8.5 3.8 8.5 8.5h0c0 4.7-3.8 8.5-8.5 8.5z" class="AF"/><defs><path id="AF" d="M205.9 242.1h-18.5c-4.7 0-8.5-3.8-8.5-8.5h0c0-4.7 3.8-8.5 8.5-8.5h18.5c4.7 0 8.5 3.8 8.5 8.5h0c0 4.7-3.8 8.5-8.5 8.5z"/></defs><clipPath id="AG"><use xlink:href="#AF"/></clipPath><use xlink:href="#K" clip-path="url(#AG)" class="AJ"/><g class="z AA AB AC AH AI"><path d="M143.8 260h27.8m-27.8 4.6h23m-23 9.3h10.6m-10.6-4.6h27.8"/></g><defs><path id="AH" d="M215.4 302.5h-22.6c-3 0-5.4-2.4-5.4-5.4V259c0-3 2.4-5.4 5.4-5.4h22.6c3 0 5.4 2.4 5.4 5.4v38.1c0 3-2.4 5.4-5.4 5.4z"/></defs><clipPath id="AI"><use xlink:href="#AH"/></clipPath><use xlink:href="#K" clip-path="url(#AI)" class="AO"/><g class="z AA AB AC AH AI"><path d="M190.3 260.3H218m-27.7 4.7h20.1m-20.1 9.3h6.9m-6.9-4.6H218m-27.7 10.2H218m-27.7 4.7h20.1m-20.1 9.3h6.9m-6.9-4.7H218m-74.2-7h27.8m-27.8 4.7h27.8m-27.8 9.3H168m-24.2-4.6h27.8"/></g><path d="M215.3 214.6h-36.9a5.59 5.59 0 0 1-5.6-5.6v-6.7a5.59 5.59 0 0 1 5.6-5.6h36.9a5.59 5.59 0 0 1 5.6 5.6v6.7c-.1 3.1-2.6 5.6-5.6 5.6z" class="x"/><defs><path id="AJ" d="M215.3 214.6h-36.9a5.59 5.59 0 0 1-5.6-5.6v-6.7a5.59 5.59 0 0 1 5.6-5.6h36.9a5.59 5.59 0 0 1 5.6 5.6v6.7c-.1 3.1-2.6 5.6-5.6 5.6z"/></defs><clipPath id="AK"><use xlink:href="#AJ"/></clipPath><linearGradient id="AL" gradientUnits="userSpaceOnUse" x1="150.776" y1="210.297" x2="224.198" y2="210.297"><stop offset="0" stop-color="#fff"/><stop offset=".997" stop-color="#b9d1f6"/></linearGradient><path d="M150.8 186.7s10.6 16.4 31.1 13.1c24.4-3.9 16.7 7.6 36.1 12.7 28.7 7.6-50.8 21.5-50.8 21.5l-16.4-47.3z" clip-path="url(#AK)" fill="url(#AL)" class="AG"/><g class="z AA AB AC AH AI"><path d="M184.4 200.9h30.5m-36.2 3.2h36.2m-36.2 3.1h36.2m-36.2 3.2h18.5"/></g><path d="M160.9 227.8h-19.7c-3.1 0-5.7-2.5-5.7-5.7v-19.7c0-3.1 2.5-5.7 5.7-5.7h19.7c3.1 0 5.7 2.5 5.7 5.7v19.7c0 3.2-2.6 5.7-5.7 5.7z" class="AE"/><defs><path id="AM" d="M160.9 227.8h-19.7c-3.1 0-5.7-2.5-5.7-5.7v-19.7c0-3.1 2.5-5.7 5.7-5.7h19.7c3.1 0 5.7 2.5 5.7 5.7v19.7c0 3.2-2.6 5.7-5.7 5.7z"/></defs><clipPath id="AN"><use xlink:href="#AM"/></clipPath><use xlink:href="#L" clip-path="url(#AN)" fill="#b1000e"/><defs><path id="AO" d="M160.9 227.8h-19.7c-3.1 0-5.7-2.5-5.7-5.7v-19.7c0-3.1 2.5-5.7 5.7-5.7h19.7c3.1 0 5.7 2.5 5.7 5.7v19.7c0 3.2-2.6 5.7-5.7 5.7z"/></defs><clipPath id="AP"><use xlink:href="#AO"/></clipPath><g clip-path="url(#AP)"><g class="x"><path d="M134.5 220.9l9.3-10.5 8.6 6.1 9.6-10.8 6.3 4.7v20.1H132z"/><circle cx="150.2" cy="205.7" r="3.9"/></g><defs><path id="AQ" d="M134.5 220.9l9.3-10.5 8.6 6.1 9.6-10.8 6.3 4.7v20.1H132z"/></defs><clipPath id="AR"><use xlink:href="#AQ"/></clipPath><linearGradient id="AS" gradientUnits="userSpaceOnUse" x1="100.746" y1="224.205" x2="192.61" y2="224.205"><stop offset="0" stop-color="#fff"/><stop offset=".997" stop-color="#b9d1f6"/></linearGradient><use xlink:href="#L" clip-path="url(#AR)" fill="url(#AS)" class="AG"/></g></g><defs><path id="AT" d="M210.8 272.6h-64.7c-9.4 0-17.1-7.7-17.1-17.1V74.8c0-9.4 7.7-17.1 17.1-17.1h64.7c9.4 0 17.1 7.7 17.1 17.1v180.7c0 9.5-7.7 17.1-17.1 17.1z"/></defs><clipPath id="AU"><use xlink:href="#AT"/></clipPath><linearGradient id="AV" gradientUnits="userSpaceOnUse" x1="192.136" y1="136.966" x2="132.314" y2="222.002"><stop offset="0" stop-color="#fff"/><stop offset=".361" stop-color="#e6effc"/><stop offset=".997" stop-color="#b9d1f6"/></linearGradient><use xlink:href="#F" opacity=".25" clip-path="url(#AU)" fill="url(#AV)"/><path d="M123.6 118h1.1v16.1h-1.1zm-.1-20.5h2.2v16.4h-2.2zm-.2-16.3h1.9v9.1h-1.9zm108.8 21.7h2.5v26.7h-2.5zM193.9 65h-31.1a12.08 12.08 0 0 1-12.1-12.1H206A12.08 12.08 0 0 1 193.9 65z" class="AL"/><g class="AF"><path d="M183.5 60.6h-10.8c-.5 0-.9-.4-.9-.9h0c0-.5.4-.9.9-.9h10.8c.5 0 .9.4.9.9h0c0 .5-.4.9-.9.9z"/><circle cx="190.3" cy="59.3" r="1.1"/><path d="M199.6 60.2c0 1.3-1.1 2.4-2.4 2.4s-2.4-1.1-2.4-2.4 1.1-2.4 2.4-2.4 2.4 1.1 2.4 2.4zm-30.8.2c0 .7-.6 1.2-1.2 1.2-.7 0-1.2-.6-1.2-1.2 0-.7.6-1.2 1.2-1.2.7-.1 1.2.5 1.2 1.2zm-6.3.1a2.3 2.3 0 1 1-4.6 0 2.3 2.3 0 1 1 4.6 0z"/></g><linearGradient id="AW" gradientUnits="userSpaceOnUse" x1="232.261" y1="72.999" x2="234.069" y2="72.999"><stop offset="0" stop-color="#fff"/><stop offset=".01" stop-color="#fdfdff"/><stop offset=".132" stop-color="#e4edfc"/><stop offset=".268" stop-color="#d1e1f9"/><stop offset=".426" stop-color="#c3d8f7"/><stop offset=".626" stop-color="#bbd3f6"/><stop offset=".997" stop-color="#b9d1f6"/></linearGradient><path d="M234.1 72.2h-1.8v1.5h1.7c0 .1 0-1.6.1-1.5z" fill="url(#AW)"/><linearGradient id="AX" gradientUnits="userSpaceOnUse" x1="124.051" y1="73.033" x2="125.858" y2="73.033"><stop offset="0" stop-color="#fff"/><stop offset=".01" stop-color="#fdfdff"/><stop offset=".132" stop-color="#e4edfc"/><stop offset=".268" stop-color="#d1e1f9"/><stop offset=".426" stop-color="#c3d8f7"/><stop offset=".626" stop-color="#bbd3f6"/><stop offset=".997" stop-color="#b9d1f6"/></linearGradient><path d="M124.2 72.3h1.7v1.4h-1.8c0 .1.1-1.7.1-1.4z" fill="url(#AX)"/><path d="M124.4 254h1.8v2h-1.8s-.2-2 0-2zm107.5-.3v2.2h1.9v-2.3s-1.9-.2-1.9.1z" class="x"/><path d="M196.4 266.9h-33.7a.47.47 0 0 1-.5-.5h0a.47.47 0 0 1 .5-.5h33.7a.47.47 0 0 1 .5.5h0a.47.47 0 0 1-.5.5z" class="AL"/><path d="M130.7 186.8h-38c-2.1 0-3.7-1.7-3.7-3.7v-39.5c0-2.1 1.7-3.7 3.7-3.7h38c2.1 0 3.7 1.7 3.7 3.7V183c.1 2.1-1.6 3.8-3.7 3.8z" class="AE"/><path d="M125.1 155h0c.9-.7 1-1.9.3-2.8-.8-.9-1.6-1.8-2.6-2.6-.9-.7-2.1-.6-2.8.3h0c-.6.7-1.6 1-2.4.6-.3-.2-.7-.3-1-.4-.9-.3-1.4-1.2-1.3-2.1h0c.2-1.1-.6-2.1-1.7-2.2-.6-.1-1.2-.1-1.8-.1s-1.2 0-1.8.1c-1.1.1-1.9 1.1-1.7 2.2h0c.1.9-.4 1.8-1.3 2.1-.4.1-.7.3-1 .4-.8.4-1.8.2-2.4-.6h0c-.7-.9-1.9-1-2.8-.3-.9.8-1.8 1.6-2.6 2.6-.7.9-.6 2.1.3 2.8h0c.7.6 1 1.6.6 2.4-.2.3-.3.7-.4 1-.3.9-1.2 1.4-2.1 1.3h0c-1.1-.2-2.1.6-2.2 1.7-.1.6-.1 1.2-.1 1.8s0 1.2.1 1.8c.1 1.1 1.1 1.9 2.2 1.7h0c.9-.1 1.8.4 2.1 1.3.1.4.3.7.4 1 .4.8.2 1.8-.6 2.4h0c-.9.7-1 1.9-.3 2.8.8.9 1.6 1.8 2.6 2.6.9.7 2.1.6 2.8-.3h0c.6-.7 1.6-1 2.4-.6.3.2.7.3 1 .4.9.3 1.4 1.2 1.3 2.1h0c-.2 1.1.6 2.1 1.7 2.2.6.1 1.2.1 1.8.1s1.2 0 1.8-.1c1.1-.1 1.9-1.1 1.7-2.2h0c-.1-.9.4-1.8 1.3-2.1.4-.1.7-.3 1-.4.8-.4 1.8-.2 2.4.6h0c.7.9 1.9 1 2.8.3.9-.8 1.8-1.6 2.6-2.6.7-.9.6-2.1-.3-2.8h0c-.7-.6-1-1.6-.6-2.4.2-.3.3-.7.4-1 .3-.9 1.2-1.4 2.1-1.3h0c1.1.2 2.1-.6 2.2-1.7.1-.6.1-1.2.1-1.8s0-1.2-.1-1.8c-.1-1.1-1.1-1.9-2.2-1.7h0c-.9.1-1.8-.4-2.1-1.3-.1-.4-.3-.7-.4-1-.4-.9-.1-1.9.6-2.4zm-11.9 16.8c-5.9 1-10.9-4.1-10-10a8.72 8.72 0 0 1 7.1-7.1c5.9-1 10.9 4.1 10 10-.7 3.6-3.6 6.5-7.1 7.1z" class="x"/><path d="M113.7 175c-8.1 1.3-15-5.6-13.7-13.7.8-4.9 4.8-8.9 9.7-9.7 8.1-1.3 15 5.6 13.7 13.7-.8 4.9-4.8 8.9-9.7 9.7z" class="z AA AC AN AP"/><path d="M112.6 168.2c-3.4.6-6.3-2.3-5.8-5.8.3-2.1 2-3.7 4.1-4.1 3.4-.6 6.3 2.3 5.8 5.8-.4 2.1-2.1 3.8-4.1 4.1z" class="x"/><path d="M100 118.6h58c2 0 3.6-1.6 3.6-3.6V84c0-2-1.6-3.6-3.6-3.6h-58c-2 0-3.6 1.6-3.6 3.6v31c0 2 1.6 3.6 3.6 3.6z" class="AM"/><defs><path id="AY" d="M100 118.6h58c2 0 3.6-1.6 3.6-3.6V84c0-2-1.6-3.6-3.6-3.6h-58c-2 0-3.6 1.6-3.6 3.6v31c0 2 1.6 3.6 3.6 3.6z"/></defs><clipPath id="AZ"><use xlink:href="#AY"/></clipPath><linearGradient id="Aa" gradientUnits="userSpaceOnUse" x1="119.961" y1="106.514" x2="128.777" y2="118.636"><stop offset="0" stop-color="#fff"/><stop offset=".997" stop-color="#b9d1f6"/></linearGradient><path d="M92 85s6.4 13.6 38.7 14.1c32.4.5 10.2 16.9 35.4 20.4s-66.1 3.4-66.1 3.4l-15-9L92 85z" clip-path="url(#AZ)" fill="url(#Aa)" class="AK"/><path d="M100.9 85h7.3v.7h-7.3zm9.4 5.6h5.3v.7h-5.3z" class="x"/><path d="M116.4 90.6h3.5v.7h-3.5zm7.1 22.6h3.5v.7h-3.5zm-22.5-8.5h3.5v.7H101z" class="y"/><path d="M120.6 90.6h8.4v.7h-8.4zM101 101.9h5.4v.7H101zm14.6 5.7h5.4v.7h-5.4zm20.3 5.6h5.4v.7h-5.4zm-27.3-5.6h3.3v.7h-3.3z" class="x"/><path d="M101 107.6h6.6v.7H101z" class="y"/><path d="M101 110.4h3.6v.7H101z" class="x"/><path d="M109.7 85h5.2v.7h-5.2z" class="AD"/><path d="M109.7 93.4h5.2v.7h-5.2z" class="y"/><path d="M107.1 96.2h2.2v.7h-2.2z" class="x"/><path d="M104.9 99.1h5v.7h-5z" class="AD"/><path d="M110.6 99.1h6.9v.7h-6.9zm21.7 11.3h6.9v.7h-6.9zM101 96.2h5.2v.7H101zm0 2.9h3.1v.7H101z" class="y"/><path d="M110.3 96.2h2.9v.7h-2.9zm-9.2 17h2.9v.7h-2.9z" class="AE"/><path d="M101 90.6h5.2v.7H101zm4.6 14.1h5.2v.7h-5.2zm0 5.7h5.2v.7h-5.2zm9.3 0h5.2v.7h-5.2zm-13.9-17h7.4v.7H101zm34.6-8.4h5.2v.7h-5.2zm-18.4 28.2h5.2v.7h-5.2zM142.4 85h3.5v.7h-3.5zm11.8 2.8h3.5v.7h-3.5z" class="AD"/><path d="M116.2 85h6.6v.7h-6.6zm26.2 28.2h6.6v.7h-6.6zm-37.3 0h6.6v.7h-6.6zM142 87.8h6.6v.7H142zm-8.1 2.8h6.6v.7h-6.6zm-5.8 22.6h6.6v.7h-6.6zm-1-5.6h6.6v.7h-6.6z" class="y"/><path d="M112.9 107.6h1.4v.7h-1.4zM127.7 85h6.6v.7h-6.6zm-10.5 19.8h3.9v.7h-3.9z" class="AE"/><path d="M124.1 85h2.4v.7h-2.4zm-7.9 8.4h2.4v.7h-2.4zm34-5.6h2.4v.7h-2.4z" class="x"/><path d="M100.9 87.8h3.8v.7h-3.8zm10.1 14.1h3v.7h-3zm-5.4-14.1h1.2v.7h-1.2z" class="y"/><path d="M130.7 87.8h10.1v.7h-10.1zm-9.7 22.6h10.1v.7H121z" class="x"/><path d="M107.8 87.8h1.2v.7h-1.2z" class="AE"/><path d="M126.5 87.8h3.3v.7h-3.3z" class="y"/><path d="M129.8 90.6h3.3v.7h-3.3zm-7.4 17h3.3v.7h-3.3zm-9.6 5.6h3.3v.7h-3.3z" class="AE"/><path d="M118.6 87.8h7v.7h-7zm16.3 19.8h7v.7h-7zm-22.9-2.8h4.1v.7H112zm-.2 5.6h2.1v.7h-2.1z" class="y"/><path d="M115.2 87.8h2.4v.7h-2.4z" class="AD"/><path d="M140.1 110.4h2.4v.7h-2.4zM107 90.6h2.4v.7H107zm.5 11.3h2.4v.7h-2.4z" class="AE"/><path d="M110 87.8h4.2v.7H110z" class="y"/><path d="M294.7,85.7h-92.6v101.5c0,4.9,4,9,9,9h74.7c4.9,0,9-4,9-9V85.7z" class="AL"/><defs><path id="Ab" d="M294.7,85.7h-92.6v102c0,4.6,3.8,8.4,8.4,8.4h75.8c4.6,0,8.4-3.8,8.4-8.4V85.7z"/></defs><clipPath id="Ac"><use xlink:href="#Ab"/></clipPath><path d="M181.8 76.8s6.5 29.9 64.8 44.2 12.2 38.1 56.5 55.4-127.8 90.7-127.8 90.7l-16.7-134.9 23.2-55.4z" clip-path="url(#Ac)" fill="#051d2b"/><path d="M294.7 90.4h-92.6V84c0-2.6 2.1-4.6 4.6-4.6H290c2.6 0 4.6 2.1 4.6 4.6v6.4z" class="AF"/><defs><path id="Ad" d="M294.7 90.4h-92.6V84c0-2.6 2.1-4.6 4.6-4.6H290c2.6 0 4.6 2.1 4.6 4.6v6.4z"/></defs><clipPath id="Ae"><use xlink:href="#Ad"/></clipPath><path d="M186.5 77.3s19.6 11.9 47.9 6.2c33.7-6.8 25.9 3.8 55 5.2 43 2.1-66.5 25-66.5 25l-36.4-36.4z" clip-path="url(#Ae)" class="AJ"/><g class="x"><circle cx="283" cy="83.8" r="1.1"/><circle cx="286.6" cy="83.8" r="1.1"/><circle cx="290.2" cy="83.8" r="1.1"/></g><circle cx="248.5" cy="114.3" r="15.5" class="AE"/><use xlink:href="#M" class="x"/><defs><path id="Af" d="M283.1 157.4h-69.3c-2.4 0-4.4-2-4.4-4.4v-7.8c0-2.4 2-4.4 4.4-4.4h69.3c2.4 0 4.4 2 4.4 4.4v7.8c0 2.4-2 4.4-4.4 4.4z"/></defs><clipPath id="Ag"><use xlink:href="#Af"/></clipPath><linearGradient id="Ah" gradientUnits="userSpaceOnUse" x1="189.032" y1="159.706" x2="314.35" y2="136.391"><stop offset="0" stop-color="#fff"/><stop offset=".01" stop-color="#fdfdff"/><stop offset=".132" stop-color="#e4edfc"/><stop offset=".268" stop-color="#d1e1f9"/><stop offset=".426" stop-color="#c3d8f7"/><stop offset=".626" stop-color="#bbd3f6"/><stop offset=".997" stop-color="#b9d1f6"/></linearGradient><path d="M204.5 139s7.3 8.1 42.3 7 11.5 10 38.9 11.1c27.4 1-69.9 11.5-69.9 11.5l-18.1-11.3 6.8-18.3z" opacity=".54" clip-path="url(#Ag)" fill="url(#Ah)"/><use xlink:href="#M" y="19.3" class="x"/><defs><path id="Ai" d="M283.1 176.7h-69.3c-2.4 0-4.4-2-4.4-4.4v-7.8c0-2.4 2-4.4 4.4-4.4h69.3c2.4 0 4.4 2 4.4 4.4v7.8c0 2.4-2 4.4-4.4 4.4z"/></defs><clipPath id="Aj"><use xlink:href="#Ai"/></clipPath><linearGradient id="Ak" gradientUnits="userSpaceOnUse" x1="189.032" y1="179.006" x2="314.35" y2="155.691"><stop offset="0" stop-color="#fff"/><stop offset=".01" stop-color="#fdfdff"/><stop offset=".132" stop-color="#e4edfc"/><stop offset=".268" stop-color="#d1e1f9"/><stop offset=".426" stop-color="#c3d8f7"/><stop offset=".626" stop-color="#bbd3f6"/><stop offset=".997" stop-color="#b9d1f6"/></linearGradient><path d="M204.5 158.3s7.3 8.1 42.3 7 11.5 10 38.9 11.1c27.4 1-69.9 11.5-69.9 11.5l-18.1-11.3 6.8-18.3z" opacity=".54" clip-path="url(#Aj)" fill="url(#Ak)"/><defs><circle id="Al" cx="248.5" cy="114.3" r="15.5"/></defs><clipPath id="Am"><use xlink:href="#Al"/></clipPath><path d="M218.9 93s4 13.7 24 14.3 6.3 17.1 22 20.6-41 3.5-41 3.5l-9.4-9 4.4-29.4z" clip-path="url(#Am)" fill="#b71521"/></svg>