<?xml version="1.0" encoding="utf-8"?>
<!-- Svg Vector Icons : http://www.onlinewebfonts.com/icon -->
<!DOCTYPE svg PUBLIC "-//W3C//DTD SVG 1.1//EN" "http://www.w3.org/Graphics/SVG/1.1/DTD/svg11.dtd">
<svg version="1.1" xmlns="http://www.w3.org/2000/svg" xmlns:xlink="http://www.w3.org/1999/xlink" x="0px" y="0px" viewBox="0 0 1000 1000" enable-background="new 0 0 1000 1000" xml:space="preserve">
<metadata> Svg Vector Icons : http://www.onlinewebfonts.com/icon </metadata>
<g><path d="M245.6,774.3h-37.8c-1.3-64-5-124.2-11-180.5h-0.3l-57.6,180.5h-28.8L52.8,593.7h-0.3c-4.2,54.1-6.9,114.3-8,180.5H10c2.2-80.5,7.8-156,16.7-226.5h46.9l54.6,166.4h0.3l54.9-166.4h44.8C238,630.3,243.8,705.8,245.6,774.3"/><path d="M409.6,607.1c-15.4,83.8-35.7,144.6-60.9,182.6c-19.6,29.3-41.2,43.9-64.6,43.9c-6.2,0-13.9-1.9-23.1-5.6v-20.2c4.5,0.7,9.7,1,15.7,1c10.9,0,19.7-3,26.4-9.1c8-7.4,12-15.6,12-24.8c0-6.3-3.1-19.1-9.4-38.6l-41.5-129.2h37.1l29.8,96.6c6.7,21.9,9.5,37.3,8.4,46c16.3-43.6,27.7-91.2,34.1-142.6H409.6"/><path d="M575.3,711.5c0,19.2-7,35-21.1,47.3c-14,12.3-32.9,18.4-56.5,18.4c-22.1,0-43.5-7.1-64.3-21.2l9.7-19.5c17.9,8.9,34,13.4,48.5,13.4c13.6,0,24.3-3,32-9c7.7-6,12.3-14.5,12.3-25.2c0-13.5-9.4-24.9-26.5-34.6c-15.8-8.7-47.5-26.9-47.5-26.9c-17.2-12.5-25.8-26-25.8-48.2c0-18.3,6.4-33.2,19.2-44.5c12.8-11.3,29.4-17,49.7-17c21,0,40,5.6,57.2,16.8l-8.7,19.4c-14.7-6.2-29.2-9.4-43.5-9.4c-11.6,0-20.5,2.8-26.8,8.4c-6.3,5.6-10.1,12.7-10.1,21.5c0,13.4,9.6,25.1,27.2,34.9c16,8.7,48.5,27.3,48.5,27.3C566.5,676.1,575.3,689.5,575.3,711.5"/><path d="M642.9,729c-9.2-14.8-13.7-38.5-13.7-71.1c0-57,17.3-85.6,51.9-85.6c18.1,0,31.3,6.8,39.8,20.5c9.1,14.8,13.7,38.3,13.7,70.5c0,57.5-17.3,86.3-51.9,86.3C664.6,749.4,651.3,742.6,642.9,729 M777.4,779.7l-41.5-20.5c3.7-3,7.2-6.3,10.4-10.1c17.6-20.8,26.5-51.5,26.5-92.3c0-74.9-29.3-112.4-88-112.4c-28.8,0-51.2,9.5-67.3,28.5c-17.6,20.8-26.4,51.5-26.4,91.9c0,39.8,7.8,69,23.4,87.6c14.2,16.8,35.8,25.2,64.6,25.2c10.7,0,20.6-1.3,29.6-4l54.1,31.6L777.4,779.7"/><path d="M913,774.3H805.5V547.7h36.1v198.7H913V774.3"/><path d="M938.7,774.2h6v-23h7.8v-4.7h-22v4.7h8.1V774.2z M984.3,774.2h5.6v-27.8h-8.5l-6.9,18.9l-7.5-18.9h-8.2v27.8h5.3v-21.1h0.3l7.9,21.1h4.1l7.9-21.1V774.2"/><path d="M958.3,471.9c-21.8-0.5-38.8,1.6-53,7.7c-4.1,1.6-10.6,1.6-11.2,6.8c2.2,2.2,2.5,5.7,4.4,8.8c3.3,5.5,9,12.9,14.2,16.7c5.7,4.4,11.5,8.7,17.5,12.6c10.6,6.6,22.7,10.4,33,17c6,3.8,12,8.8,18,12.9c3,2.2,4.9,5.8,8.7,7.1v-0.8c-1.9-2.5-2.5-6-4.4-8.8c-2.7-2.7-5.5-5.2-8.2-7.9c-7.9-10.7-17.8-20-28.4-27.6c-8.7-6-27.9-14.3-31.4-24.3c0,0-0.3-0.3-0.6-0.6c6-0.6,13.1-2.7,18.8-4.4c9.3-2.5,17.7-1.9,27.3-4.4c4.4-1.1,8.7-2.5,13.1-3.8v-2.5c-4.9-4.9-8.5-11.5-13.7-16.1c-13.9-12-29.2-23.8-45-33.7c-8.5-5.5-19.4-9-28.4-13.7c-3.3-1.6-8.7-2.5-10.6-5.2c-4.9-6-7.7-13.9-11.2-21.1c-7.9-15-15.6-31.7-22.4-47.6c-4.9-10.7-7.9-21.3-13.9-31.2c-28.1-46.5-58.7-74.7-105.6-102.4c-10.1-5.8-22.1-8.2-34.9-11.2c-6.8-0.3-13.7-0.8-20.5-1.1c-4.4-1.9-8.8-7.1-12.6-9.6c-15.6-9.8-55.7-31.2-67.1-3c-7.4,17.8,10.9,35.3,17.2,44.3c4.6,6.3,10.6,13.4,13.9,20.5c1.9,4.7,2.5,9.6,4.4,14.5c4.4,12,8.5,25.5,14.2,36.7c3,5.7,6.3,11.8,10.1,17c2.2,3,6,4.4,6.8,9.3c-3.8,5.5-4.1,13.7-6.3,20.5c-9.8,30.9-6,69.2,7.9,92c4.4,6.8,14.7,21.9,28.7,16.1c12.3-4.9,9.6-20.5,13.1-34.2c0.8-3.3,0.3-5.5,1.9-7.7v0.6c3.8,7.7,7.7,15,11.2,22.7c8.5,13.4,23.2,27.4,35.5,36.7c6.5,4.9,11.7,13.4,19.9,16.4V485h-0.5c-1.6-2.5-4.1-3.6-6.3-5.5c-4.9-4.9-10.4-11-14.2-16.4c-11.5-15.3-21.6-32.3-30.6-49.8c-4.4-8.5-8.2-17.8-11.7-26.3c-1.6-3.3-1.6-8.2-4.4-9.8c-4.1,6-10.1,11.2-13.1,18.6c-5.2,11.8-5.7,26.3-7.7,41.3c-1.1,0.3-0.5,0-1.1,0.5c-8.7-2.2-11.7-11.2-15-18.9c-8.2-19.5-9.6-50.7-2.5-73.1c1.9-5.7,10.1-23.8,6.8-29.3c-1.7-5.2-7.1-8.2-10.1-12.3c-3.5-5.2-7.4-11.8-9.8-17.5c-6.6-15.3-9.8-32.3-16.9-47.6c-3.3-7.1-9-14.5-13.6-21.1c-5.2-7.4-10.9-12.6-15-21.3c-1.4-3-3.3-7.9-1.1-11.2c0.5-2.2,1.6-3,3.8-3.6c3.5-3,13.6,0.8,17.2,2.5c10.1,4.1,18.6,7.9,27,13.7c3.8,2.7,7.9,7.9,12.8,9.3h5.7c8.7,1.9,18.6,0.5,26.8,3c14.5,4.6,27.6,11.5,39.3,18.9c35.7,22.7,65.2,55,85.1,93.6c3.3,6.3,4.7,12,7.7,18.6c5.7,13.4,12.8,27.1,18.6,40.2c5.7,12.9,11.2,26,19.4,36.7c4.1,5.7,20.5,8.7,27.8,11.8c5.4,2.5,13.9,4.6,18.8,7.7c9.3,5.7,18.5,12.3,27.3,18.6C943.9,459.6,957.5,466.4,958.3,471.9"/><path d="M679.9,234c-4.6,0-7.9,0.6-11.2,1.4v0.5h0.5c2.2,4.4,6,7.4,8.7,11.2c2.2,4.4,4.1,8.7,6.3,13.1c0.3-0.3,0.5-0.6,0.5-0.6c3.8-2.7,5.8-7.1,5.8-13.7c-1.7-1.9-1.9-3.8-3.3-5.8C685.6,237.6,682.1,236.2,679.9,234"/></g>
</svg>