<svg id="Layer_1" data-name="Layer 1" xmlns="http://www.w3.org/2000/svg" xmlns:xlink="http://www.w3.org/1999/xlink" viewBox="0 0 121.32 130.09"><defs><style>.cls-1{fill:url(#linear-gradient);}.cls-2{fill:none;}.cls-3{opacity:0.95;}.cls-4{fill:#dbe8ef;}.cls-5{fill:#2a3c67;}.cls-6{fill:#eef6ff;}.cls-7{fill:url(#linear-gradient-2);}.cls-8{fill:url(#linear-gradient-3);}.cls-9{opacity:0.06;}.cls-10{opacity:0.12;}.cls-11{fill:#0f0f0f;}.cls-12{fill:url(#linear-gradient-4);}.cls-13{fill:url(#linear-gradient-5);}.cls-14{fill:url(#linear-gradient-6);}.cls-15{fill:url(#linear-gradient-7);}.cls-16{fill:#e20613;}.cls-17{fill:#009ee2;}.cls-18{fill:#f8af00;}.cls-19{fill:#93c01f;}.cls-20{fill:url(#linear-gradient-8);}.cls-21{clip-path:url(#clip-path);}.cls-22{fill:url(#linear-gradient-10);}.cls-23{fill:url(#linear-gradient-11);}.cls-24{fill:url(#linear-gradient-12);}.cls-25{fill:url(#linear-gradient-13);}.cls-26{fill:url(#linear-gradient-14);}.cls-27{fill:url(#linear-gradient-15);}.cls-28{fill:url(#linear-gradient-16);}.cls-29{fill:url(#linear-gradient-17);}.cls-30{fill:url(#linear-gradient-18);}.cls-31{fill:url(#linear-gradient-19);}.cls-32{fill:url(#linear-gradient-20);}.cls-33{fill:url(#linear-gradient-21);}.cls-34{opacity:0.2;}.cls-35{clip-path:url(#clip-path-2);}</style><linearGradient id="linear-gradient" x1="19.72" y1="75.02" x2="37.17" y2="75.02" gradientUnits="userSpaceOnUse"><stop offset="0.04" stop-color="#9f19ab"/><stop offset="0.24" stop-color="#ae25b1"/><stop offset="0.65" stop-color="#d744bf"/><stop offset="1" stop-color="#ff63ce"/></linearGradient><linearGradient id="linear-gradient-2" x1="53.13" y1="102.79" x2="103.89" y2="102.79" gradientUnits="userSpaceOnUse"><stop offset="0" stop-color="#2d085d"/><stop offset="1" stop-color="#410f82"/></linearGradient><linearGradient id="linear-gradient-3" x1="53.26" y1="92.08" x2="136.07" y2="92.08" gradientUnits="userSpaceOnUse"><stop offset="0.04" stop-color="#8b4fda"/><stop offset="0.43" stop-color="#9a47d4"/><stop offset="0.98" stop-color="#b737ca"/></linearGradient><linearGradient id="linear-gradient-4" x1="124.24" y1="109.3" x2="141" y2="109.3" gradientUnits="userSpaceOnUse"><stop offset="0.04" stop-color="#8649da"/><stop offset="0.4" stop-color="#9541d4"/><stop offset="0.98" stop-color="#b62fc8"/></linearGradient><linearGradient id="linear-gradient-5" x1="23.21" y1="120.4" x2="49.42" y2="120.4" gradientUnits="userSpaceOnUse"><stop offset="0.04" stop-color="#9962dc"/><stop offset="0.52" stop-color="#a859d6"/><stop offset="0.98" stop-color="#bb4fcf"/></linearGradient><linearGradient id="linear-gradient-6" x1="48.75" y1="46.85" x2="109.75" y2="46.85" gradientUnits="userSpaceOnUse"><stop offset="0.04" stop-color="#6b24d6"/><stop offset="0.32" stop-color="#7a1cd0"/><stop offset="0.86" stop-color="#a306c1"/><stop offset="0.98" stop-color="#ad00bd"/></linearGradient><linearGradient id="linear-gradient-7" x1="48.26" y1="47.62" x2="107.42" y2="47.62" xlink:href="#linear-gradient-2"/><linearGradient id="linear-gradient-8" x1="51.7" y1="52.06" x2="74.28" y2="52.06" xlink:href="#linear-gradient"/><clipPath id="clip-path" transform="translate(-19.68 -3.39)"><path class="cls-1" d="M34.7,71.46h0a.17.17,0,0,0-.1,0c-.05,0-.15,0-.19-.09s0,0,0,0l-.2-.1s0,0,0,0l-.25-.1h0c-.09,0-.14,0-.24-.09h-.05a.49.49,0,0,0-.24-.05h0a.51.51,0,0,0-.24,0h0a11,11,0,0,0-6.59.63C21,74,19.92,77.57,19.73,78.87c-.05.29.29.54.82.54s1.06,0,1.79,0H24a.83.83,0,0,0,.34,0h.19a.59.59,0,0,0,.29,0H25a.36.36,0,0,0,.24,0,.33.33,0,0,0,.19,0,.4.4,0,0,0,.24-.05.38.38,0,0,0,.2,0,2.35,2.35,0,0,0,.24,0,.33.33,0,0,0,.19-.05,2.17,2.17,0,0,0,.25,0,.35.35,0,0,0,.19,0c.1,0,.19,0,.34,0s.1,0,.1,0a1.76,1.76,0,0,1,.48,0s0,0,.1,0a.9.9,0,0,1,.39,0,.17.17,0,0,0,.14,0,.7.7,0,0,1,.34-.05c.15,0,.1,0,.19,0s.2,0,.29,0,.1,0,.2,0,.19,0,.29,0,.1,0,.19,0l.34-.1c.05,0,.1-.05.2-.05a2.38,2.38,0,0,0,.38-.09c.05,0,.05,0,.1-.05l.49-.15a.19.19,0,0,0,.09,0,2.94,2.94,0,0,0,.34-.1c.05,0,.1,0,.19,0l.34-.1s.1,0,.2,0,.19,0,.29-.09a.27.27,0,0,1,.19,0,.72.72,0,0,1,.29-.1c0-.05.1-.05.2-.05a.77.77,0,0,1,.34-.09c.14,0,.09,0,.14,0s.34-.15.49-.2l.53-.29c.34-.19.63-.38.92-.58,1.6-1.31,1.79-3,.24-4.26"/></clipPath><linearGradient id="linear-gradient-10" x1="0" y1="71.6" x2="8.14" y2="71.6" xlink:href="#linear-gradient"/><linearGradient id="linear-gradient-11" x1="7.41" y1="71.6" x2="9.25" y2="71.6" xlink:href="#linear-gradient"/><linearGradient id="linear-gradient-12" x1="8.58" y1="71.6" x2="10.42" y2="71.6" xlink:href="#linear-gradient"/><linearGradient id="linear-gradient-13" x1="9.69" y1="71.6" x2="11.53" y2="71.6" xlink:href="#linear-gradient"/><linearGradient id="linear-gradient-14" x1="10.8" y1="71.6" x2="12.65" y2="71.6" xlink:href="#linear-gradient"/><linearGradient id="linear-gradient-15" x1="11.97" y1="71.6" x2="13.81" y2="71.6" xlink:href="#linear-gradient"/><linearGradient id="linear-gradient-16" x1="13.08" y1="71.6" x2="14.92" y2="71.6" xlink:href="#linear-gradient"/><linearGradient id="linear-gradient-17" x1="14.24" y1="71.6" x2="16.09" y2="71.6" xlink:href="#linear-gradient"/><linearGradient id="linear-gradient-18" x1="15.36" y1="71.6" x2="17.2" y2="71.6" xlink:href="#linear-gradient"/><linearGradient id="linear-gradient-19" x1="16.47" y1="71.6" x2="17.73" y2="71.6" xlink:href="#linear-gradient"/><linearGradient id="linear-gradient-20" x1="17.64" y1="67.75" x2="17.73" y2="67.75" xlink:href="#linear-gradient"/><linearGradient id="linear-gradient-21" x1="26.7" y1="64.14" x2="39.01" y2="64.14" xlink:href="#linear-gradient"/><clipPath id="clip-path-2" transform="translate(-19.68 -3.39)"><path class="cls-2" d="M36.05,68.8a6.28,6.28,0,0,1-6.2-6.35v-.19a15.81,15.81,0,0,1,1.46-6.35A17.65,17.65,0,0,0,26.7,67.05a6.29,6.29,0,0,0,6.06,6.54h.14A6.07,6.07,0,0,0,39,68,6,6,0,0,1,36.05,68.8Z"/></clipPath></defs><title>print-event</title><g id="Layer_1-2" data-name="Layer 1-2"><g class="cls-3"><path class="cls-4" d="M43.51,98.84l11.1-6.25a1.3,1.3,0,0,1,1.21,0l35.57,20a17.53,17.53,0,0,0,17,0l13.13-7.27a.81.81,0,0,1,.68,0l12,6.44a.65.65,0,0,1,.24.92.64.64,0,0,1-.24.25l-25.73,14.73a17.47,17.47,0,0,1-17.3,0L43.51,100.92a1.24,1.24,0,0,1-.43-1.7A1.15,1.15,0,0,1,43.51,98.84Z" transform="translate(-19.68 -3.39)"/></g><path class="cls-5" d="M116.82,96.9l-6.25,8.72c-.09.24.24-.15,0,0-5.23,2.76-10.32,4.84-15.45,1.94L65.56,90.79h0a1.2,1.2,0,0,0-1.6.49l-4.07,6.59a1.22,1.22,0,0,1-.34.34c-.63.43-.14.72.63,1.21l0,0,34.6,22.77.09.05a17.34,17.34,0,0,0,17.15-.1l23.31-13.47a1.3,1.3,0,0,0,.68-1.16V93.07a1.22,1.22,0,0,0-1.12-1.21L125.45,91a1.28,1.28,0,0,0-.83.19l-7.41,5.23A1.31,1.31,0,0,0,116.82,96.9Z" transform="translate(-19.68 -3.39)"/><path class="cls-6" d="M103,102.28" transform="translate(-19.68 -3.39)"/><path class="cls-7" d="M103.89,124.52a18.94,18.94,0,0,1-9-2.28l-41-23.31c-.82-.48-.82-1.26-.67-2.23v-14l7.51-1.7s7.07,2.28,7.07,2.72a44.78,44.78,0,0,1,.34,6.3l27.47,15.5c2.71,1.55,5.28,3.1,8.29,3.05Z" transform="translate(-19.68 -3.39)"/><path class="cls-8" d="M125.16,85.37l10.22,5.57a1.34,1.34,0,0,1,.53,1.79,1.51,1.51,0,0,1-.48.53l-23.55,13.47c-6.93,3.93-11.24,2.33-16.57-.67L53.93,83.53a1.35,1.35,0,0,1-.48-1.85,1.17,1.17,0,0,1,.48-.48l10.47-6a1,1,0,0,1,1,0l29.84,17a16.93,16.93,0,0,0,16.67,0l12.21-6.83a1.05,1.05,0,0,1,1,0" transform="translate(-19.68 -3.39)"/><g class="cls-9"><path d="M119.29,106.15v12l16.77-9.88V97.72a1.1,1.1,0,0,0-1.12-1.11,1.41,1.41,0,0,0-.58.14l-14.49,8.39A1.15,1.15,0,0,0,119.29,106.15Z" transform="translate(-19.68 -3.39)"/></g><g class="cls-10"><polygon class="cls-11" points="99.62 114.73 100.73 115.65 114.54 107.85 112.55 107.02 99.62 114.73"/></g><path class="cls-12" d="M124.24,107.46v12.07a1.09,1.09,0,0,0,1.11,1.11,1.25,1.25,0,0,0,.58-.15L140.47,112a1.12,1.12,0,0,0,.53-1V99.08A1.1,1.1,0,0,0,139.89,98a1.29,1.29,0,0,0-.59.15l-14.48,8.38A1.1,1.1,0,0,0,124.24,107.46Z" transform="translate(-19.68 -3.39)"/><polygon class="cls-13" points="46.76 122.53 42.93 125.87 40.02 118.41 36.34 121.99 33.29 114.73 29.51 118.46 26.89 110.7 23.21 115.26 49.42 130.09 46.76 122.53"/><path class="cls-14" d="M109.75,37.69v50.2c0,.82-2.86,2.76-3.59,2.37l-55-34.4a1,1,0,0,1-.53-.92L48.75,5.13c0-.82,2.76-2.08,3.44-1.65l57.07,33.34A1.08,1.08,0,0,1,109.75,37.69Z" transform="translate(-19.68 -3.39)"/><path class="cls-15" d="M107.42,39.19v50.2a1.07,1.07,0,0,1-1.06,1.06,1,1,0,0,1-.54-.14l-57-32.95a1,1,0,0,1-.54-.92V5.86a1.08,1.08,0,0,1,1.07-1.07.94.94,0,0,1,.53.15l57,33.33A1,1,0,0,1,107.42,39.19Z" transform="translate(-19.68 -3.39)"/><path d="M83.49,55.81a3.78,3.78,0,0,1-1.17,1.31l4,6.83a6.75,6.75,0,0,0,2.37-2.71l-5.18-5.43" transform="translate(-19.68 -3.39)"/><path d="M86.35,43l-4,2.28A25.23,25.23,0,0,1,83.54,48l5.18.53A32.29,32.29,0,0,0,86.35,43" transform="translate(-19.68 -3.39)"/><path d="M89.88,56.15,84.26,52.9A7.77,7.77,0,0,1,83.83,55L89,60.46a11.25,11.25,0,0,0,.87-4.31" transform="translate(-19.68 -3.39)"/><path d="M89.11,49.75l-5.19-.53a14.63,14.63,0,0,1,.39,2.57L89.93,55a24.51,24.51,0,0,0-.82-5.29" transform="translate(-19.68 -3.39)"/><path d="M76.56,32.46c-3.44-1.94-6.83-2.43-9.5-.92a7.35,7.35,0,0,0-3.2,4,10.77,10.77,0,0,0-.87,4.6,21,21,0,0,0,.83,5.48,21.4,21.4,0,0,0,1,3A31.52,31.52,0,0,0,67,53.29a27.28,27.28,0,0,0,9.45,10c3.3,1.89,6.54,2.43,9.11,1.17l-4-6.84a5.8,5.8,0,0,1-5.14-.72A16,16,0,0,1,71,51.11c-3.06-5.23-3-10.9.05-12.64,1.5-.88,3.53-.59,5.52.58a15.46,15.46,0,0,1,5.13,5.23l4-2.28a25.93,25.93,0,0,0-9.11-9.54" transform="translate(-19.68 -3.39)"/><path class="cls-16" d="M72.2,60A3.73,3.73,0,0,1,71,61.33l4,6.84a6.71,6.71,0,0,0,2.37-2.72L72.2,60" transform="translate(-19.68 -3.39)"/><path class="cls-17" d="M75.06,47.24l-4,2.27a25.52,25.52,0,0,1,1.17,2.62l5.18.53a31.46,31.46,0,0,0-2.37-5.42" transform="translate(-19.68 -3.39)"/><path class="cls-18" d="M78.59,60.32,73,57.07a9.44,9.44,0,0,1-.38,2.08l5.18,5.48a14.08,14.08,0,0,0,.82-4.31" transform="translate(-19.68 -3.39)"/><path class="cls-19" d="M77.77,53.92l-5.18-.53A14.34,14.34,0,0,1,73,56l5.62,3.24a24.38,24.38,0,0,0-.82-5.28" transform="translate(-19.68 -3.39)"/><path class="cls-20" d="M65.27,36.67c-3.44-2-6.83-2.47-9.5-1a7.31,7.31,0,0,0-3.19,4,10.78,10.78,0,0,0-.88,4.6,20.83,20.83,0,0,0,.83,5.47,21.11,21.11,0,0,0,1,3,32,32,0,0,0,2.22,4.65,27.44,27.44,0,0,0,9.45,10c3.3,1.89,6.54,2.42,9.11,1.16l-4-6.83A5.78,5.78,0,0,1,65.17,61a15.93,15.93,0,0,1-5.52-5.81c-3-5.23-3-10.9.05-12.65,1.5-.87,3.53-.58,5.47.59a15.49,15.49,0,0,1,5.14,5.23l4-2.28a25.42,25.42,0,0,0-9-9.45" transform="translate(-19.68 -3.39)"/><path class="cls-1" d="M34.7,71.46h0a.17.17,0,0,0-.1,0c-.05,0-.15,0-.19-.09s0,0,0,0l-.2-.1s0,0,0,0l-.25-.1h0c-.09,0-.14,0-.24-.09h-.05a.49.49,0,0,0-.24-.05h0a.51.51,0,0,0-.24,0h0a11,11,0,0,0-6.59.63C21,74,19.92,77.57,19.73,78.87c-.05.29.29.54.82.54s1.06,0,1.79,0H24a.83.83,0,0,0,.34,0h.19a.59.59,0,0,0,.29,0H25a.36.36,0,0,0,.24,0,.33.33,0,0,0,.19,0,.4.4,0,0,0,.24-.05.38.38,0,0,0,.2,0,2.35,2.35,0,0,0,.24,0,.33.33,0,0,0,.19-.05,2.17,2.17,0,0,0,.25,0,.35.35,0,0,0,.19,0c.1,0,.19,0,.34,0s.1,0,.1,0a1.76,1.76,0,0,1,.48,0s0,0,.1,0a.9.9,0,0,1,.39,0,.17.17,0,0,0,.14,0,.7.7,0,0,1,.34-.05c.15,0,.1,0,.19,0s.2,0,.29,0,.1,0,.2,0,.19,0,.29,0,.1,0,.19,0l.34-.1c.05,0,.1-.05.2-.05a2.38,2.38,0,0,0,.38-.09c.05,0,.05,0,.1-.05l.49-.15a.19.19,0,0,0,.09,0,2.94,2.94,0,0,0,.34-.1c.05,0,.1,0,.19,0l.34-.1s.1,0,.2,0,.19,0,.29-.09a.27.27,0,0,1,.19,0,.72.72,0,0,1,.29-.1c0-.05.1-.05.2-.05a.77.77,0,0,1,.34-.09c.14,0,.09,0,.14,0s.34-.15.49-.2l.53-.29c.34-.19.63-.38.92-.58,1.6-1.31,1.79-3,.24-4.26" transform="translate(-19.68 -3.39)"/><g class="cls-21"><polygon class="cls-22" points="7.41 67.05 8.14 76.16 0 76.16 0 67.05 7.41 67.05"/><polygon class="cls-23" points="8.58 67.05 9.25 76.16 8.14 76.16 7.41 67.05 8.58 67.05"/><polygon class="cls-24" points="9.69 67.05 10.42 76.16 9.25 76.16 8.58 67.05 9.69 67.05"/><polygon class="cls-25" points="10.8 67.05 11.53 76.16 10.42 76.16 9.69 67.05 10.8 67.05"/><polygon class="cls-26" points="11.97 67.05 12.65 76.16 11.53 76.16 10.8 67.05 11.97 67.05"/><polygon class="cls-27" points="13.08 67.05 13.81 76.16 12.65 76.16 11.97 67.05 13.08 67.05"/><polygon class="cls-28" points="14.24 67.05 14.92 76.16 13.81 76.16 13.08 67.05 14.24 67.05"/><polygon class="cls-29" points="15.36 67.05 16.09 76.16 14.92 76.16 14.24 67.05 15.36 67.05"/><polygon class="cls-30" points="16.47 67.05 17.2 76.16 17.15 76.16 16.09 76.16 15.36 67.05 16.47 67.05"/><polygon class="cls-31" points="17.64 67.05 17.73 68.45 17.73 76.11 17.2 76.16 16.47 67.05 17.64 67.05"/><polygon class="cls-32" points="17.73 68.45 17.64 67.05 17.73 67.05 17.73 68.45"/></g><path class="cls-33" d="M32.27,54.94A17.92,17.92,0,0,0,26.7,67.1a6.29,6.29,0,0,0,6.11,6.49h.09A6.12,6.12,0,0,0,39,67.44a17.44,17.44,0,0,0-5.57-12.5A.8.8,0,0,0,32.27,54.94Z" transform="translate(-19.68 -3.39)"/><g class="cls-34"><g class="cls-35"><polygon points="6.93 66.56 13.57 70.2 6.93 70.2 6.93 66.56"/><polygon points="6.93 58.13 19.28 64.97 19.28 69.28 18.8 70.2 13.57 70.2 6.93 66.56 6.93 58.13"/><polygon points="6.93 56.73 9.25 52.51 19.28 52.51 19.28 64.97 6.93 58.13 6.93 56.73"/></g></g></g></svg>