<?xml version="1.0" encoding="utf-8"?>
<!-- Generator: Adobe Illustrator 21.1.0, SVG Export Plug-In . SVG Version: 6.00 Build 0)  -->
<svg version="1.1" id="Layer_1" xmlns="http://www.w3.org/2000/svg" xmlns:xlink="http://www.w3.org/1999/xlink" x="0px" y="0px"
	 viewBox="0 0 267.1 276.5" style="enable-background:new 0 0 267.1 276.5;" xml:space="preserve">
<style type="text/css">
	.st0{opacity:0.95;}
	.st1{fill:#DBE8EF;}
	.st2{fill:#2A3C67;}
	.st3{fill:#EEF6FF;}
	.st4{fill:#FFE269;}
	.st5{opacity:6.000000e-02;}
	.st6{opacity:0.12;}
	.st7{fill:#0F0F0F;}
	.st8{fill:#5CB5F1;}
	.st9{fill:#9DCC4A;}
	.st10{fill:#A8C4DB;}
	.st11{fill:#E8F0F7;}
	.st12{opacity:0.58;}
	.st13{fill:#B1C5D1;}
	.st14{fill:#E20613;}
	.st15{fill:#009EE2;}
	.st16{fill:#F8AF00;}
	.st17{fill:#93C01F;}
	.st18{opacity:0.33;}
	.st19{clip-path:url(#SVGID_2_);}
	.st20{fill:#A5BDCB;}
	.st21{fill:#A6BECC;}
	.st22{fill:#A7BFCD;}
	.st23{fill:#A8C0CE;}
	.st24{fill:#A9C1CF;}
	.st25{fill:#AAC2D0;}
	.st26{fill:#ACC3D1;}
	.st27{fill:#ADC3D1;}
	.st28{fill:#AEC4D2;}
	.st29{fill:#AFC5D3;}
	.st30{opacity:0.2;}
	.st31{clip-path:url(#SVGID_4_);}
</style>
<title>Event_Icon</title>
<g id="Layer_2">
	<g id="Layer_1-2">
		<g class="st0">
			<path class="st1" d="M65.9,197l22.9-12.9c0.8-0.4,1.7-0.4,2.5,0l73.4,41.2c10.9,6.1,24.3,6.2,35.2,0.1l27.1-15
				c0.4-0.2,1-0.2,1.4,0l24.7,13.3c0.7,0.4,0.9,1.2,0.5,1.9c-0.1,0.2-0.3,0.4-0.5,0.5L200,256.5c-11,6.3-24.6,6.4-35.7,0.1
				l-98.4-55.3c-1.2-0.7-1.6-2.2-0.9-3.5C65.2,197.5,65.5,197.2,65.9,197z"/>
		</g>
		<path class="st2" d="M217.2,193l-12.9,18c-0.2,0.5,0.5-0.3,0,0c-10.8,5.7-21.3,10-31.9,4l-61-34.6l0,0c-1.2-0.6-2.6-0.2-3.3,1
			L99.7,195c-0.2,0.3-0.4,0.5-0.7,0.7c-1.3,0.9-0.3,1.5,1.3,2.5l0.1,0.1l71.4,47l0.2,0.1c11,6.2,24.5,6.1,35.4-0.2l48.1-27.8
			c0.9-0.5,1.4-1.4,1.4-2.4v-29.9c0-1.3-1-2.4-2.3-2.5l-19.6-1.8c-0.6-0.1-1.2,0.1-1.7,0.4L218,192
			C217.6,192.3,217.4,192.6,217.2,193z"/>
		<path class="st3" d="M188.6,204.1"/>
		<path class="st2" d="M190.5,250c-6.5,0-12.9-1.6-18.6-4.7l-84.6-48.1c-1.7-1-1.7-2.6-1.4-4.6v-28.8l15.5-3.5
			c0,0,14.6,4.7,14.6,5.6c0,0.7,1.1,8.7,0.7,13l56.7,32c5.6,3.2,10.9,6.4,17.1,6.3L190.5,250z"/>
		<path class="st4" d="M234.4,169.2l21.1,11.5c1.3,0.7,1.8,2.4,1.1,3.7c-0.2,0.4-0.6,0.8-1,1.1l-48.6,27.8
			c-14.3,8.1-23.2,4.8-34.2-1.4l-85.4-46.5c-1.3-0.8-1.8-2.4-1-3.8c0.2-0.4,0.6-0.8,1-1l21.6-12.3c0.7-0.4,1.5-0.4,2.1,0l61.6,35
			c10.7,6.1,23.7,6.1,34.4,0.1l25.2-14.1C232.9,168.9,233.7,168.9,234.4,169.2"/>
		<g class="st5">
			<path d="M222.3,212.1v24.7l34.6-20.4v-21.7c0-1.3-1-2.3-2.3-2.3c-0.4,0-0.8,0.1-1.2,0.3l-29.9,17.3
				C222.7,210.5,222.3,211.2,222.3,212.1z"/>
		</g>
		<g class="st6">
			<polygon class="st7" points="222.3,236.8 224.6,238.7 253.1,222.6 249,220.9 			"/>
		</g>
		<path class="st8" d="M232.5,214.8v24.9c0,1.3,1,2.3,2.3,2.3c0.4,0,0.8-0.1,1.2-0.3l30-17.6c0.7-0.4,1.1-1.2,1.1-2v-24.6
			c0-1.3-1-2.3-2.3-2.3c-0.4,0-0.8,0.1-1.2,0.3l-29.9,17.3C233,213.2,232.5,213.9,232.5,214.8z"/>
		<polygon class="st9" points="113.2,252.9 105.3,259.8 99.3,244.4 91.7,251.8 85.4,236.8 77.6,244.5 72.2,228.5 64.6,237.9 
			118.7,268.5 		"/>
		<path class="st10" d="M202.6,70.8v103.6c0,1.7-5.9,5.7-7.4,4.9L81.7,108.3c-0.7-0.4-1.1-1.1-1.1-1.9L76.7,3.6
			c0-1.7,5.7-4.3,7.1-3.4L201.6,69C202.2,69.4,202.6,70.1,202.6,70.8z"/>
		<path class="st11" d="M197.8,73.9v103.6c0,1.2-1,2.2-2.2,2.2c-0.4,0-0.8-0.1-1.1-0.3L76.8,111.4c-0.7-0.4-1.1-1.1-1.1-1.9V5.1
			c0-1.2,1-2.2,2.2-2.2c0.4,0,0.8,0.1,1.1,0.3L196.7,72C197.4,72.4,197.8,73.1,197.8,73.9z"/>
		<g class="st12">
			<g>
				<path class="st13" d="M148.4,108.2c-0.6,1.1-1.4,2-2.4,2.7l8.2,14.1c2.1-1.4,3.8-3.3,4.9-5.6L148.4,108.2"/>
				<path class="st13" d="M154.3,81.8l-8.2,4.7c0.9,1.8,1.7,3.6,2.4,5.5l10.7,1.1C157.9,89.2,156.3,85.4,154.3,81.8"/>
				<path class="st13" d="M161.6,108.9l-11.6-6.7c-0.1,1.5-0.4,2.9-0.9,4.3l10.7,11.3C161,114.9,161.6,111.9,161.6,108.9"/>
				<path class="st13" d="M160,95.7l-10.7-1.1c0.4,1.7,0.7,3.5,0.8,5.3l11.6,6.7C161.5,102.9,161,99.2,160,95.7"/>
				<path class="st13" d="M134.1,60c-7.1-4-14.1-5-19.6-1.9c-3.1,1.9-5.5,4.8-6.6,8.3c-1.3,3-1.9,6.3-1.8,9.5
					c0.1,3.8,0.6,7.6,1.7,11.3c0.5,2.1,1.2,4.2,2,6.2c1.3,3.3,2.8,6.6,4.6,9.6c5.4,9.3,12.4,16.5,19.5,20.6c6.8,3.9,13.5,5,18.8,2.4
					l-8.2-14.1c-3,1.3-6.8,0.7-10.6-1.5c-4.7-2.9-8.6-7.1-11.3-11.9c-6.3-10.8-6.2-22.5,0.1-26.1c3.1-1.8,7.3-1.2,11.4,1.2
					c4.3,2.7,8,6.4,10.6,10.8l8.2-4.7C147.7,70.7,141,64,134.1,60"/>
			</g>
		</g>
		<g>
			<path class="st14" d="M125.1,116.9c-0.6,1.1-1.4,2-2.4,2.7l8.2,14.1c2.1-1.4,3.8-3.3,4.9-5.6L125.1,116.9"/>
			<path class="st15" d="M131,90.5l-8.2,4.7c0.9,1.7,1.7,3.6,2.4,5.4l10.7,1.1C134.6,97.8,133,94.1,131,90.5"/>
			<path class="st16" d="M138.3,117.5l-11.6-6.7c-0.1,1.5-0.4,2.9-0.8,4.3l10.7,11.3C137.6,123.6,138.2,120.6,138.3,117.5"/>
			<path class="st17" d="M136.6,104.3l-10.7-1.1c0.4,1.7,0.7,3.5,0.8,5.3l11.6,6.7C138.1,111.5,137.6,107.9,136.6,104.3"/>
			<path class="st2" d="M110.8,68.7c-7.1-4.1-14.1-5.1-19.6-2c-3.1,1.9-5.5,4.8-6.6,8.3c-1.3,3-1.9,6.3-1.8,9.5
				c0.1,3.8,0.6,7.6,1.7,11.3c0.5,2.1,1.2,4.2,2,6.2c1.3,3.3,2.8,6.6,4.6,9.6c5.4,9.3,12.4,16.5,19.5,20.6c6.8,3.9,13.5,5,18.8,2.4
				l-8.2-14.1c-3,1.3-6.8,0.7-10.6-1.5c-4.8-3-8.7-7.1-11.4-12c-6.3-10.8-6.2-22.5,0.1-26.1c3.1-1.8,7.3-1.2,11.3,1.2
				c4.3,2.7,8,6.4,10.6,10.8l8.2-4.7C124.3,79.3,117.6,72.6,110.8,68.7"/>
		</g>
		<g class="st18">
			<g>
				<defs>
					<path id="SVGID_1_" d="M47.7,140.5L47.7,140.5c0,0-0.1-0.1-0.2-0.1c-0.1-0.1-0.3-0.1-0.4-0.2c-0.1,0-0.1,0-0.1-0.1l-0.4-0.2
						c0,0-0.1,0-0.1-0.1l-0.5-0.2H46c-0.2-0.1-0.3-0.1-0.5-0.2h-0.1c-0.2-0.1-0.4-0.1-0.5-0.1l0,0c-0.2-0.1-0.4-0.1-0.5-0.1l0,0
						c-4.5-1-9.3-0.5-13.6,1.3c-11.3,5.3-13.6,12.6-14,15.3c-0.1,0.6,0.6,1.1,1.7,1.1c0.9,0.1,2.2,0.1,3.7,0.1h3.5
						c0.2,0,0.5,0,0.7-0.1h0.4c0.2,0,0.4,0,0.6-0.1h0.3c0.2,0,0.4,0,0.5-0.1c0.1,0,0.2,0,0.4-0.1c0.2,0,0.3,0,0.5-0.1
						c0.1,0,0.2,0,0.4-0.1c0.2,0,0.4-0.1,0.5-0.1c0.1,0,0.2,0,0.4-0.1c0.2,0,0.4-0.1,0.5-0.1c0.1,0,0.2,0,0.4-0.1
						c0.2,0,0.4-0.1,0.7-0.1c0.1,0,0.2,0,0.2-0.1c0.3-0.1,0.6-0.1,1-0.1c0.1,0,0.1,0,0.2-0.1c0.2-0.1,0.5-0.1,0.8-0.1
						c0.1,0,0.2,0,0.3-0.1c0.2-0.1,0.4-0.1,0.7-0.1s0.2-0.1,0.4-0.1s0.4-0.1,0.6-0.1s0.2-0.1,0.4-0.1s0.4-0.1,0.6-0.1
						s0.2-0.1,0.4-0.1l0.7-0.2c0.1,0,0.2-0.1,0.4-0.1c0.3-0.1,0.6-0.1,0.8-0.2c0.1,0,0.1,0,0.2-0.1c0.3-0.1,0.7-0.2,1-0.3
						c0.1,0,0.2-0.1,0.2-0.1c0.3-0.1,0.5-0.1,0.7-0.2c0.1-0.1,0.2-0.1,0.4-0.1l0.7-0.2c0.1-0.1,0.2-0.1,0.4-0.1
						c0.2-0.1,0.4-0.1,0.6-0.2c0.1-0.1,0.3-0.1,0.4-0.1c0.2-0.1,0.4-0.2,0.6-0.2c0.1-0.1,0.2-0.1,0.4-0.1c0.2-0.1,0.4-0.2,0.7-0.2
						s0.2-0.1,0.3-0.1c0.3-0.1,0.7-0.3,1-0.4l1.1-0.6c0.7-0.4,1.3-0.8,1.9-1.2c3.3-2.7,3.7-6.1,0.5-8.8"/>
				</defs>
				<clipPath id="SVGID_2_">
					<use xlink:href="#SVGID_1_"  style="overflow:visible;"/>
				</clipPath>
				<g class="st19">
					<polygon class="st20" points="32,138.4 33.5,157.2 16.7,157.2 16.7,138.4 					"/>
					<polygon class="st20" points="34.4,138.4 35.8,157.2 33.5,157.2 32,138.4 					"/>
					<polygon class="st21" points="36.7,138.4 38.2,157.2 35.8,157.2 34.4,138.4 					"/>
					<polygon class="st22" points="39,138.4 40.5,157.2 38.2,157.2 36.7,138.4 					"/>
					<polygon class="st23" points="41.4,138.4 42.8,157.2 40.5,157.2 39,138.4 					"/>
					<polygon class="st24" points="43.7,138.4 45.2,157.2 42.8,157.2 41.4,138.4 					"/>
					<polygon class="st25" points="46.1,138.4 47.5,157.2 45.2,157.2 43.7,138.4 					"/>
					<polygon class="st26" points="48.4,138.4 49.9,157.2 47.5,157.2 46.1,138.4 					"/>
					<polygon class="st27" points="50.7,138.4 52.2,157.2 52.1,157.2 49.9,157.2 48.4,138.4 					"/>
					<polygon class="st28" points="53.1,138.4 53.3,141.3 53.3,157.1 52.2,157.2 50.7,138.4 					"/>
					<polygon class="st29" points="53.3,141.3 53.1,138.4 53.3,138.4 					"/>
				</g>
			</g>
		</g>
		<path class="st9" d="M42.7,106.4c-3.2,3-11.1,11.9-11.5,25.1c-0.2,7.2,5.4,13.2,12.6,13.4c0.1,0,0.2,0,0.2,0
			c7,0,12.6-5.7,12.6-12.7c0-13.6-8.2-22.8-11.5-25.8C44.5,105.7,43.3,105.7,42.7,106.4z"/>
		<g class="st30">
			<g>
				<defs>
					<path id="SVGID_3_" d="M50.5,135c-7.1-0.1-12.9-5.9-12.8-13.1c0-0.1,0-0.2,0-0.4c0.1-4.5,1.1-9,3-13.1
						c-5.8,6.3-9.1,14.5-9.5,23c-0.3,7.2,5.3,13.2,12.5,13.5c0.1,0,0.2,0,0.3,0c6.5,0,12-5,12.5-11.5C54.7,134.4,52.6,135,50.5,135z
						"/>
				</defs>
				<clipPath id="SVGID_4_">
					<use xlink:href="#SVGID_3_"  style="overflow:visible;"/>
				</clipPath>
				<g class="st31">
					<polygon points="31,137.4 44.7,144.9 31,144.9 					"/>
					<polygon points="31,120 56.5,134.1 56.5,143 55.5,144.9 44.7,144.9 31,137.4 					"/>
					<polygon points="31,117.1 35.8,108.4 56.5,108.4 56.5,134.1 31,120 					"/>
				</g>
			</g>
		</g>
	</g>
</g>
</svg>

