<svg id="Layer_1" data-name="Layer 1" xmlns="http://www.w3.org/2000/svg" viewBox="0 0 601.44 487.33"><defs><style>.cls-1{fill:#240035;}.cls-2{fill:#8fa4f0;}.cls-3{fill:#c0cbf0;}</style></defs><title>service-bg</title><path class="cls-1" d="M601.21,361.66a64.65,64.65,0,0,0-19.48,4.2c-8.85,3.47-16.85,8.86-26.46,10.33-15.65,2.38-30.49-6.18-46.17-8.44-16.41-2.36-34.08,2.79-45.21,13.17-9.53,8.88-14.2,20.9-24.09,29.5-3.95,3.42-8.88,6.3-14.49,7a48.57,48.57,0,0,1-9.26-.05c-10.92-.69-23.55,0-30.3,7.24-13.32,14.28,2.26,29.64,7.77,42.77,2,4.69,1.07,9.83,1.19,14.81a36.21,36.21,0,0,0,5,17.16H601.21Zm-194,72.88a1.77,1.77,0,0,1,0,3.53A1.77,1.77,0,0,1,407.18,434.54Zm2.51,57.65a1.9,1.9,0,0,1,0-3.79A1.9,1.9,0,0,1,409.69,492.19Zm37.15-39.9a5.09,5.09,0,0,1-.65-2.29,5.23,5.23,0,0,1,.63-2.29,3.49,3.49,0,0,1,2.11-1.63,4.26,4.26,0,0,1,1.88,0,3.34,3.34,0,0,1,1.83,1.27,2.58,2.58,0,0,1,.63,1.2l.13.94a2.16,2.16,0,0,0,0,.44c-.05-.32-.09-.64-.13-1,.05.34.08.68.12,1,0,.1,0,.2,0,.3a.17.17,0,0,1,0,.07v-.06a3.73,3.73,0,0,1-.45,2,3.33,3.33,0,0,1-1.7,1.46A3.55,3.55,0,0,1,446.84,452.29Zm6.8,39.12a1.75,1.75,0,0,1,0-3.49A1.75,1.75,0,0,1,453.64,491.41Zm18.83-20a1.2,1.2,0,0,1,0-2.39A1.2,1.2,0,0,1,472.47,471.4Zm13.86-44,0,.07a2.37,2.37,0,0,1-1.13,1,2.19,2.19,0,0,1-1.55.12,7.11,7.11,0,0,1-.94-.42,2.18,2.18,0,0,1,0-3.74,8.71,8.71,0,0,1,.94-.42,2.41,2.41,0,0,1,2.68,1.09l0,.07A2.18,2.18,0,0,1,486.33,427.39Zm.58-18.38c-2.85,0-2.84-4.42,0-4.42S489.75,409,486.91,409Zm11.3,48.84a1.46,1.46,0,0,1,0-2.91A1.46,1.46,0,0,1,498.21,457.85Zm12.55-26.56a1.89,1.89,0,0,1,0-3.78A1.89,1.89,0,0,1,510.76,431.29Zm2.51-38a1.6,1.6,0,0,1,0-3.2A1.6,1.6,0,0,1,513.27,393.33ZM524.48,458a3.27,3.27,0,0,1-3.11.83l-.15,0a3.22,3.22,0,0,1-2.32-3.05,3.16,3.16,0,0,1,2.32-3l.15,0a3.2,3.2,0,0,1,3.11,5.34Zm17.67-24.73c-2.58,0-2.58-4,0-4S544.73,433.29,542.15,433.29Zm13.18,57.77c-2.6,0-2.6-4.05,0-4.05S557.94,491.06,555.33,491.06ZM571,409.89a1.84,1.84,0,0,1,0-3.67A1.84,1.84,0,0,1,571,409.89Zm5-17.43c-2.56,0-2.56-4,0-4S578.61,392.46,576.05,392.46Zm5,95.35c-3.27,0-3.26-5.08,0-5.08S584.34,487.81,581.07,487.81Z" transform="translate(0.23 -12.05)"/><path class="cls-2" d="M453,452.29a3.73,3.73,0,0,0,.45-2v.06a.17.17,0,0,0,0-.07c0-.1,0-.2,0-.3,0-.34-.07-.68-.12-1,0,.32.08.64.13,1a2.16,2.16,0,0,1,0-.44l-.13-.94a2.58,2.58,0,0,0-.63-1.2,3.34,3.34,0,0,0-1.83-1.27,4.26,4.26,0,0,0-1.88,0,3.49,3.49,0,0,0-2.11,1.63,5.23,5.23,0,0,0-.63,2.29,5.09,5.09,0,0,0,.65,2.29,3.55,3.55,0,0,0,4.44,1.46A3.33,3.33,0,0,0,453,452.29Z" transform="translate(0.23 -12.05)"/><path class="cls-2" d="M486.91,404.59c-2.84,0-2.85,4.42,0,4.42S489.75,404.59,486.91,404.59Z" transform="translate(0.23 -12.05)"/><path class="cls-2" d="M521.37,452.68l-.15,0a3.16,3.16,0,0,0-2.32,3,3.22,3.22,0,0,0,2.32,3.05l.15,0a3.27,3.27,0,0,0,3.11-.83,3.2,3.2,0,0,0-3.11-5.34Z" transform="translate(0.23 -12.05)"/><path class="cls-2" d="M542.15,429.28c-2.58,0-2.58,4,0,4S544.74,429.28,542.15,429.28Z" transform="translate(0.23 -12.05)"/><path class="cls-2" d="M510.76,427.51a1.89,1.89,0,0,0,0,3.78A1.89,1.89,0,0,0,510.76,427.51Z" transform="translate(0.23 -12.05)"/><path class="cls-2" d="M498.21,454.94a1.46,1.46,0,0,0,0,2.91A1.46,1.46,0,0,0,498.21,454.94Z" transform="translate(0.23 -12.05)"/><path class="cls-2" d="M581.07,482.73c-3.26,0-3.27,5.08,0,5.08S584.34,482.73,581.07,482.73Z" transform="translate(0.23 -12.05)"/><path class="cls-3" d="M513.27,390.13a1.6,1.6,0,0,0,0,3.2A1.6,1.6,0,0,0,513.27,390.13Z" transform="translate(0.23 -12.05)"/><path class="cls-3" d="M486.29,425.06a2.41,2.41,0,0,0-2.68-1.09,8.71,8.71,0,0,0-.94.42,2.18,2.18,0,0,0,0,3.74,7.11,7.11,0,0,0,.94.42,2.19,2.19,0,0,0,1.55-.12,2.37,2.37,0,0,0,1.13-1l0-.07a2.18,2.18,0,0,0,0-2.26Z" transform="translate(0.23 -12.05)"/><path class="cls-3" d="M472.47,469a1.2,1.2,0,0,0,0,2.39A1.2,1.2,0,0,0,472.47,469Z" transform="translate(0.23 -12.05)"/><path class="cls-3" d="M453.64,487.92a1.75,1.75,0,0,0,0,3.49A1.75,1.75,0,0,0,453.64,487.92Z" transform="translate(0.23 -12.05)"/><path class="cls-3" d="M407.18,434.54a1.77,1.77,0,0,0,0,3.53A1.77,1.77,0,0,0,407.18,434.54Z" transform="translate(0.23 -12.05)"/><path class="cls-3" d="M576.05,388.49c-2.56,0-2.56,4,0,4S578.61,388.49,576.05,388.49Z" transform="translate(0.23 -12.05)"/><path class="cls-3" d="M571,406.22a1.84,1.84,0,0,0,0,3.67A1.84,1.84,0,0,0,571,406.22Z" transform="translate(0.23 -12.05)"/><path class="cls-3" d="M409.69,488.4a1.9,1.9,0,0,0,0,3.79A1.9,1.9,0,0,0,409.69,488.4Z" transform="translate(0.23 -12.05)"/><path class="cls-3" d="M555.33,487c-2.6,0-2.6,4.05,0,4.05S557.94,487,555.33,487Z" transform="translate(0.23 -12.05)"/><path class="cls-1" d="M13.34,249.24c7.25,6,17.32,9.56,26.2,6.45,4.67-1.63,8.56-4.92,12.91-7.27,10.23-5.5,22.47-5.59,34-4.4,5.1.52,10.23,1.26,15.33.79,7.52-.69,14.56-4,21.11-7.74,3.85-2.21,7.78-4.78,9.77-8.75,4.1-8.18-2.3-18.37-10.67-22.09s-17.9-3-27.05-3.12c-10.48-.15-21.19-1.61-30.43-6.56-14.48-7.77-24.06-23.41-39.48-29.12-4.16-1.54-8.82-2.27-13-.84C7.49,168.12,4.15,171.88.54,175c-.26.22-.51.42-.77.62v28.56a2.07,2.07,0,0,1,1.26.55,2.08,2.08,0,0,1,.58,1.42A2.2,2.2,0,0,1,1,207.58c-.17.19-.33.39-.49.59a1.61,1.61,0,0,1-.77.5v24.85C3.79,239.23,8,244.82,13.34,249.24Zm105-30.87a1.23,1.23,0,0,1,0,2.45A1.23,1.23,0,0,1,118.37,218.37Zm-21.19,9.25.5.13a1,1,0,0,1,0,1.95l-.5.14a1.15,1.15,0,1,1,0-2.22ZM77.48,226l.5-.57a1.64,1.64,0,1,1,2.32,2.32l-.57.5A1.59,1.59,0,0,1,77.48,226Zm-17.69-9.25a.7.7,0,0,1,0,1.4A.7.7,0,0,1,59.79,216.74Zm-24.18,0a1.26,1.26,0,0,1,0,2.52A1.26,1.26,0,0,1,35.61,216.72ZM34,245.11a1.89,1.89,0,0,1,0,3.78A1.89,1.89,0,0,1,34,245.11Zm-9.56-15.65A2.61,2.61,0,0,1,26,228.12a1.76,1.76,0,0,1,2.15,2.15,2.61,2.61,0,0,1-1.34,1.57,1.82,1.82,0,0,1-2.11-.27A1.8,1.8,0,0,1,24.44,229.46ZM12,224.16a.81.81,0,0,1,0,1.61A.81.81,0,0,1,12,224.16ZM7.13,187.9a1.09,1.09,0,0,1,0-2.17A1.09,1.09,0,0,1,7.13,187.9Z" transform="translate(0.23 -12.05)"/><path class="cls-1" d="M576.77,33.3c-15.68,16.23-23.38,41.28-15.07,62.27,3.83,9.7,10.69,18,14.68,27.58,8.7,21,2.7,45.07,6.24,67.52a79.82,79.82,0,0,0,15,35.35c.78,1,1.59,2.06,2.41,3.07V145.34a1.79,1.79,0,0,1-3.35-.81c0-2,2.63-2.22,3.35-.8V33.55a3,3,0,0,1-.87-.59,2.85,2.85,0,0,1-.34-.41.16.16,0,0,0,0-.07,2.45,2.45,0,0,1-.44-1.5A3.34,3.34,0,0,1,600,27.83V12.05C593,19.58,584,25.8,576.77,33.3Z" transform="translate(0.23 -12.05)"/></svg>