<svg id="_x33_0" enable-background="new 0 0 64 64" height="512" viewBox="0 0 64 64" width="512" xmlns="http://www.w3.org/2000/svg" xmlns:xlink="http://www.w3.org/1999/xlink"><linearGradient id="SVGID_1_" gradientUnits="userSpaceOnUse" x1="32" x2="32" y1="63" y2="1"><stop offset="0" stop-color="#9f2fff"/><stop offset="1" stop-color="#0bb1d3"/></linearGradient><path d="m25 43h2v6h-2zm-4 6h2v-6h-2zm16 0h2v-6h-2zm4 0h2v-6h-2zm-2-29v7c0 1.103-.897 2-2 2h-10c-1.103 0-2-.897-2-2v-7c0-3.859 3.14-7 7-7s7 3.141 7 7zm-1.999 7-.001-7c0-2.757-2.243-5-5-5s-5 2.243-5 5v7zm-32.001 8h2v-4h4v-2h-4v-4h-2v4h-4v2h4zm8-2v2h-2v2h2v2h2v-2h2v-2h-2v-2zm48-32h-2v2h-2v2h2v2h2v-2h2v-2h-2zm-16 2v2h-2v2h2v2h2v-2h2v-2h-2v-2zm-40 38h2v-2h-2zm10-14h2v-2h-2zm2 4h2v-2h-2zm26 4.534v1.567c2.114.431 3.722 2.207 3.948 4.387l1.019.849c2.615 2.18 5.718 3.698 9.033 4.442v-.779c0-1.654 1.346-3 3-3s3 1.346 3 3v7c0 1.103-.897 2-2 2h-14v2c0 1.103-.897 2-2 2h-2v2c0 1.103-.897 2-2 2h-6c-1.103 0-2-.897-2-2v-2h-2v2c0 1.103-.897 2-2 2h-6c-1.103 0-2-.897-2-2v-2h-2c-1.103 0-2-.897-2-2v-2h-14c-1.103 0-2-.897-2-2v-7c0-1.654 1.346-3 3-3s3 1.346 3 3v.779c3.314-.744 6.418-2.263 9.033-4.442l1.019-.849c.226-2.18 1.834-3.956 3.948-4.387v-18.127c-1.825 2.438-4.727 4.026-8 4.026-5.514 0-10-4.486-10-10s4.486-10 10-10c4.322 0 8.001 2.761 9.395 6.608 1.449-3.334 3.962-6.172 7.245-7.997 1.441-.802 3.28-.8 4.72 0 4.427 2.458 7.453 6.759 8.354 11.638 2.14-1.452 4.666-2.249 7.286-2.249 2.371 0 4.589.649 6.505 1.762 2.993-1.846 4.896-2.238 5.933-1.201 1.149 1.149.331 3.443-1.204 5.928 1.116 1.918 1.766 4.138 1.766 6.511 0 7.168-5.832 13-13 13-2.306 0-4.542-.618-6.506-1.755-.169.104-.33.194-.494.289zm16.968-16.157c-2.763 3.835-6.468 7.565-6.747 7.843-2.698 2.698-5.419 5.033-7.834 6.757 1.434.664 3.003 1.023 4.613 1.023 6.065 0 11-4.935 11-11 0-1.652-.377-3.215-1.032-4.623zm-1.657-5.363c.61.509 1.174 1.072 1.682 1.683.762-1.343 1.09-2.283 1.014-2.698-.291-.036-1.124.134-2.696 1.015zm-15.336 1.536c.011.249.025.496.025.746v16.175c.161.133.319.269.487.392 2.487-1.686 5.454-4.19 8.32-7.056 3.235-3.235 5.549-6.09 7.051-8.302-2.004-2.725-5.223-4.505-8.858-4.505-2.579 0-5.052.909-7.025 2.55zm-1.975.746c0-1.841-.35-3.63-.989-5.296h-16.021c-.64 1.666-.99 3.455-.99 5.296v20.704h18zm-16.068-7.296h14.136c-1.319-2.326-3.261-4.297-5.68-5.641-.847-.471-1.929-.471-2.777 0-2.418 1.345-4.36 3.315-5.679 5.641zm-11.932 12c2.021 0 3.864-.759 5.274-2h-5.274v-2h6.918c.36-.619.635-1.29.819-2h-10.737c-1.654 0-3-1.346-3-3s1.346-3 3-3 3 1.346 3 3v1h8c0-1.458-.398-2.822-1.082-4h-4.918v-2h3.274c-1.41-1.241-3.253-2-5.274-2-4.411 0-8 3.589-8 8 0 1.458.398 2.822 1.082 4h4.918v2h-3.274c1.41 1.241 3.253 2 5.274 2zm-3-10c-.551 0-1 .448-1 1s.449 1 1 1h1v-1c0-.552-.449-1-1-1zm-5 35c0-.552-.449-1-1-1s-1 .448-1 1v7h2zm12 7v-8.882c-2.909 2.342-6.342 3.953-10 4.701v4.181zm2 4h10v-4h-10zm10 2h-6v2h6zm4-2v-12h-2v12zm8 2h-6v2h6zm4-2v-4h-10v4zm14-4h2v-7c0-.552-.449-1-1-1s-1 .448-1 1zm-12-8.882v8.882h10v-4.182c-3.658-.748-7.091-2.358-10-4.7zm-5-5.118h-20c-1.654 0-3 1.346-3 3v9h10v-6c0-1.103.897-2 2-2h2c1.103 0 2 .897 2 2v6h10v-9c0-1.654-1.346-3-3-3zm13-30v2h2v-2zm-3-8v2h2v-2z" fill="url(#SVGID_1_)"/></svg>