<?xml version="1.0" encoding="UTF-8"?><svg xmlns="http://www.w3.org/2000/svg" xmlns:xlink="http://www.w3.org/1999/xlink" version="1.1" id="Layer_1" x="0px" y="0px" viewBox="0 0 16 16" xml:space="preserve"><path d="M9.862 1c7.034 4.694 4.753 9.852 4.753 9.852S16.613 13.063 15.81 15c0 0-.829-1.353-2.205-1.353-1.33 0-2.117 1.353-4.802 1.353C2.831 15 0 10.106 0 10.106c5.382 3.48 9.059 1.014 9.059 1.014-2.43-1.378-7.584-7.977-7.584-7.977 4.493 3.751 6.432 4.736 6.432 4.736-1.166-.936-4.415-5.523-4.415-5.523 2.6 2.579 7.768 6.175 7.768 6.175C12.742 4.557 9.862 1 9.862 1z"/><metadata><rdf:RDF xmlns:rdf="http://www.w3.org/1999/02/22-rdf-syntax-ns#" xmlns:rdfs="http://www.w3.org/2000/01/rdf-schema#" xmlns:dc="http://purl.org/dc/elements/1.1/"><rdf:Description about="https://iconscout.com/legal#licenses" dc:title="swift,logo,solid,e" dc:description="swift,logo,solid,e" dc:publisher="Iconscout" dc:date="2018-03-05" dc:format="image/svg+xml" dc:language="en"><dc:creator><rdf:Bag><rdf:li>Pixel Icons</rdf:li></rdf:Bag></dc:creator></rdf:Description></rdf:RDF></metadata></svg>