<svg xmlns="http://www.w3.org/2000/svg" xmlns:xlink="http://www.w3.org/1999/xlink" viewBox="0 0 159.28 107.94"><defs><style>.cls-1{mask:url(#mask);}.cls-121,.cls-137,.cls-141,.cls-2{mix-blend-mode:multiply;}.cls-2{fill:url(#linear-gradient);}.cls-3{isolation:isolate;}.cls-4{fill:#fff;}.cls-175,.cls-5{opacity:0.2;}.cls-6{opacity:0;}.cls-7{opacity:0.09;}.cls-8{opacity:0.18;}.cls-9{opacity:0.27;}.cls-10{opacity:0.36;}.cls-11{opacity:0.45;}.cls-12{opacity:0.55;}.cls-13{opacity:0.64;}.cls-14{opacity:0.73;}.cls-15{opacity:0.82;}.cls-16{opacity:0.91;}.cls-17{fill:url(#linear-gradient-2);}.cls-18{fill:url(#linear-gradient-3);}.cls-19{fill:url(#linear-gradient-4);}.cls-20{fill:url(#linear-gradient-5);}.cls-21{fill:url(#linear-gradient-6);}.cls-22{fill:url(#linear-gradient-7);}.cls-23{fill:url(#linear-gradient-8);}.cls-24{fill:url(#linear-gradient-9);}.cls-25{fill:url(#linear-gradient-10);}.cls-26{fill:url(#linear-gradient-11);}.cls-27{fill:url(#linear-gradient-12);}.cls-28{fill:url(#linear-gradient-13);}.cls-29{fill:url(#linear-gradient-14);}.cls-30{fill:url(#linear-gradient-15);}.cls-31{fill:url(#linear-gradient-16);}.cls-32{fill:url(#linear-gradient-17);}.cls-33{fill:url(#linear-gradient-18);}.cls-34{fill:url(#linear-gradient-19);}.cls-35{fill:url(#linear-gradient-20);}.cls-36{fill:url(#linear-gradient-21);}.cls-37{fill:url(#linear-gradient-22);}.cls-38{fill:url(#linear-gradient-23);}.cls-39{fill:url(#linear-gradient-24);}.cls-40{fill:url(#linear-gradient-25);}.cls-41{fill:url(#linear-gradient-26);}.cls-42{fill:url(#linear-gradient-27);}.cls-43{fill:url(#linear-gradient-28);}.cls-44{fill:url(#linear-gradient-29);}.cls-45{fill:url(#linear-gradient-30);}.cls-46{fill:url(#linear-gradient-31);}.cls-47{fill:url(#linear-gradient-32);}.cls-48{fill:url(#linear-gradient-33);}.cls-49{fill:url(#linear-gradient-34);}.cls-50{fill:url(#linear-gradient-35);}.cls-51{fill:url(#linear-gradient-36);}.cls-52{fill:url(#linear-gradient-37);}.cls-53{fill:url(#linear-gradient-38);}.cls-54{fill:url(#linear-gradient-39);}.cls-55{fill:url(#linear-gradient-40);}.cls-56{fill:url(#linear-gradient-41);}.cls-57{fill:url(#linear-gradient-42);}.cls-58{fill:url(#linear-gradient-43);}.cls-59{fill:url(#linear-gradient-44);}.cls-60{fill:#cba6e3;}.cls-61{fill:#cca7e3;}.cls-62{fill:#cca8e4;}.cls-63{fill:#cda9e4;}.cls-64{fill:#cdaae4;}.cls-65{fill:#ceabe4;}.cls-66{fill:#ceace5;}.cls-67{fill:#cfade5;}.cls-68{fill:#cfaee5;}.cls-69{fill:#d0afe6;}.cls-70{fill:#d1b0e6;}.cls-71{fill:#d1b1e6;}.cls-72{fill:#d2b2e6;}.cls-73{fill:#d2b3e7;}.cls-74{fill:#d3b4e7;}.cls-75{fill:#d3b5e7;}.cls-76{fill:#d4b6e7;}.cls-77{fill:#d5b7e8;}.cls-78{fill:#d5b8e8;}.cls-79{fill:#d6b9e8;}.cls-80{fill:#d6bae9;}.cls-81{fill:#d7bbe9;}.cls-82{fill:#d7bce9;}.cls-83{fill:#d8bde9;}.cls-84{fill:#d8beea;}.cls-85{fill:#d9bfea;}.cls-86{fill:#dac0ea;}.cls-87{fill:#dac1eb;}.cls-88{fill:#dbc2eb;}.cls-89{fill:#dcc3eb;}.cls-90{fill:#dcc4ec;}.cls-91{fill:#ddc5ec;}.cls-92{fill:#dec6ec;}.cls-93{fill:#dec7ed;}.cls-94{fill:#dfc8ed;}.cls-95{fill:#dfc9ed;}.cls-96{fill:#e0caed;}.cls-97{fill:#e0cbee;}.cls-98{fill:#e1ccee;}.cls-99{fill:#e1cdee;}.cls-100{fill:#e2ceef;}.cls-101{fill:#e3cfef;}.cls-102{fill:#e3d0ef;}.cls-103{fill:#e4d1ef;}.cls-104{fill:#e4d2f0;}.cls-105{fill:#e5d3f0;}.cls-106{fill:#e5d4f0;}.cls-107{fill:#e6d5f0;}.cls-108{fill:#e7d6f1;}.cls-109{fill:#e7d7f1;}.cls-110{fill:#e8d8f1;}.cls-111{fill:#e8d9f2;}.cls-112{fill:#e9daf2;}.cls-113{fill:#e9dbf2;}.cls-114{fill:#eadcf2;}.cls-115{fill:#eaddf3;}.cls-116,.cls-138,.cls-171{fill:#ebdef3;}.cls-117{fill:url(#linear-gradient-45);}.cls-118{fill:url(#linear-gradient-46);}.cls-119{fill:url(#linear-gradient-47);}.cls-120{fill:url(#linear-gradient-48);}.cls-121{fill:url(#linear-gradient-49);}.cls-122,.cls-141{fill:#d1b4e3;}.cls-123,.cls-160{opacity:0.7;}.cls-124{opacity:0.02;}.cls-125{opacity:0.05;}.cls-126{opacity:0.07;}.cls-127{opacity:0.1;}.cls-128{opacity:0.12;}.cls-129{opacity:0.15;}.cls-130{opacity:0.17;}.cls-131{opacity:0.2;}.cls-132{opacity:0.22;}.cls-133{opacity:0.25;}.cls-134{opacity:0.27;}.cls-135,.cls-180{opacity:0.3;}.cls-136{fill:url(#linear-gradient-50);}.cls-137,.cls-143,.cls-160{fill:#e5d4ef;}.cls-138{mix-blend-mode:screen;}.cls-139{fill:url(#linear-gradient-51);}.cls-140{fill:#231f20;}.cls-140,.cls-187{mix-blend-mode:color-dodge;}.cls-142,.cls-173{opacity:0.5;}.cls-144,.cls-161,.cls-163,.cls-171,.cls-174{opacity:0.8;}.cls-145,.cls-178{opacity:0.6;}.cls-146{fill:url(#linear-gradient-52);}.cls-147{fill:url(#linear-gradient-53);}.cls-148{fill:url(#linear-gradient-54);}.cls-149{fill:url(#linear-gradient-55);}.cls-150{fill:url(#linear-gradient-56);}.cls-151{fill:url(#linear-gradient-57);}.cls-152{fill:url(#linear-gradient-58);}.cls-153{fill:url(#linear-gradient-59);}.cls-154{fill:url(#linear-gradient-60);}.cls-155{fill:url(#linear-gradient-61);}.cls-156{fill:url(#linear-gradient-62);}.cls-157{fill:url(#linear-gradient-63);}.cls-158{fill:url(#linear-gradient-64);}.cls-159{fill:url(#linear-gradient-65);}.cls-161{fill:url(#linear-gradient-66);}.cls-162{fill:url(#linear-gradient-67);}.cls-163{fill:url(#linear-gradient-68);}.cls-164{fill:url(#linear-gradient-69);}.cls-165{fill:url(#linear-gradient-70);}.cls-166{fill:url(#linear-gradient-71);}.cls-167{fill:url(#linear-gradient-72);}.cls-168{fill:url(#linear-gradient-73);}.cls-169{fill:url(#linear-gradient-74);}.cls-170{fill:url(#linear-gradient-75);}.cls-172,.cls-173,.cls-174,.cls-175,.cls-176,.cls-177,.cls-178,.cls-179,.cls-180{fill:#45108a;}.cls-176{opacity:0.85;}.cls-177{opacity:0.75;}.cls-179{opacity:0.4;}.cls-181{fill:url(#linear-gradient-76);}.cls-182{mask:url(#mask-2);}.cls-183{fill:url(#linear-gradient-77);}.cls-184{fill:url(#linear-gradient-78);}.cls-185{fill:#ede2f3;}.cls-186{fill:url(#linear-gradient-79);}.cls-187{fill:#414042;}.cls-188{filter:url(#luminosity-noclip-2);}.cls-189{filter:url(#luminosity-noclip);}</style><filter id="luminosity-noclip" x="65.35" y="-8267" width="45.93" height="32766" filterUnits="userSpaceOnUse" color-interpolation-filters="sRGB"><feFlood flood-color="#fff" result="bg"/><feBlend in="SourceGraphic" in2="bg"/></filter><mask id="mask" x="65.35" y="-8267" width="45.93" height="32766" maskUnits="userSpaceOnUse"><g class="cls-189"/></mask><linearGradient id="linear-gradient" x1="85.18" y1="59.53" x2="98.03" y2="36.51" gradientUnits="userSpaceOnUse"><stop offset="0"/><stop offset="1" stop-color="#fff"/></linearGradient><linearGradient id="linear-gradient-2" x1="87.52" y1="97.49" x2="87.52" y2="110.43" gradientUnits="userSpaceOnUse"><stop offset="0.04" stop-color="#6b24d6"/><stop offset="0.32" stop-color="#7a1cd0"/><stop offset="0.86" stop-color="#a306c1"/><stop offset="0.98" stop-color="#ad00bd"/></linearGradient><linearGradient id="linear-gradient-3" x1="87.06" y1="95.86" x2="86.04" y2="111.66" xlink:href="#linear-gradient-2"/><linearGradient id="linear-gradient-4" x1="86.83" y1="94.06" x2="84.39" y2="112.76" xlink:href="#linear-gradient-2"/><linearGradient id="linear-gradient-5" x1="86.86" y1="92.12" x2="82.59" y2="113.71" xlink:href="#linear-gradient-2"/><linearGradient id="linear-gradient-6" x1="87.17" y1="90.08" x2="80.67" y2="114.48" xlink:href="#linear-gradient-2"/><linearGradient id="linear-gradient-7" x1="87.77" y1="88" x2="78.65" y2="115.06" xlink:href="#linear-gradient-2"/><linearGradient id="linear-gradient-8" x1="88.67" y1="85.93" x2="76.54" y2="115.43" xlink:href="#linear-gradient-2"/><linearGradient id="linear-gradient-9" x1="89.87" y1="83.91" x2="74.37" y2="115.56" xlink:href="#linear-gradient-2"/><linearGradient id="linear-gradient-10" x1="91.43" y1="81.86" x2="72.2" y2="115.43" xlink:href="#linear-gradient-2"/><linearGradient id="linear-gradient-11" x1="93.53" y1="79.6" x2="69.16" y2="116.38" xlink:href="#linear-gradient-2"/><linearGradient id="linear-gradient-12" x1="96.04" y1="77.45" x2="65.9" y2="117.08" xlink:href="#linear-gradient-2"/><linearGradient id="linear-gradient-13" x1="98.97" y1="75.47" x2="62.52" y2="117.42" xlink:href="#linear-gradient-2"/><linearGradient id="linear-gradient-14" x1="102.29" y1="73.71" x2="59.06" y2="117.38" xlink:href="#linear-gradient-2"/><linearGradient id="linear-gradient-15" x1="105.97" y1="72.27" x2="55.58" y2="116.95" xlink:href="#linear-gradient-2"/><linearGradient id="linear-gradient-16" x1="109.94" y1="71.2" x2="52.12" y2="116.11" xlink:href="#linear-gradient-2"/><linearGradient id="linear-gradient-17" x1="114.16" y1="70.55" x2="48.75" y2="114.85" xlink:href="#linear-gradient-2"/><linearGradient id="linear-gradient-18" x1="118.53" y1="70.37" x2="45.5" y2="113.19" xlink:href="#linear-gradient-2"/><linearGradient id="linear-gradient-19" x1="122.97" y1="70.68" x2="42.44" y2="111.1" xlink:href="#linear-gradient-2"/><linearGradient id="linear-gradient-20" x1="127.43" y1="71.51" x2="39.63" y2="108.65" xlink:href="#linear-gradient-2"/><linearGradient id="linear-gradient-21" x1="131.82" y1="72.89" x2="37.13" y2="105.87" xlink:href="#linear-gradient-2"/><linearGradient id="linear-gradient-22" x1="136.04" y1="74.8" x2="34.98" y2="102.79" xlink:href="#linear-gradient-2"/><linearGradient id="linear-gradient-23" x1="140.01" y1="77.24" x2="33.22" y2="99.46" xlink:href="#linear-gradient-2"/><linearGradient id="linear-gradient-24" x1="139.57" y1="78.05" x2="32.75" y2="98.86" xlink:href="#linear-gradient-2"/><linearGradient id="linear-gradient-25" x1="139.53" y1="77.95" x2="32.76" y2="98.76" gradientUnits="userSpaceOnUse"><stop offset="0.04" stop-color="#702ad7"/><stop offset="0.33" stop-color="#7f22d1"/><stop offset="0.9" stop-color="#a80cc1"/><stop offset="0.98" stop-color="#ae08bf"/></linearGradient><linearGradient id="linear-gradient-26" x1="139.5" y1="77.85" x2="32.76" y2="98.65" gradientUnits="userSpaceOnUse"><stop offset="0.04" stop-color="#7430d7"/><stop offset="0.34" stop-color="#8328d1"/><stop offset="0.93" stop-color="#ac12c3"/><stop offset="0.98" stop-color="#b010c1"/></linearGradient><linearGradient id="linear-gradient-27" x1="139.47" y1="77.75" x2="32.77" y2="98.54" gradientUnits="userSpaceOnUse"><stop offset="0.04" stop-color="#7937d8"/><stop offset="0.36" stop-color="#882ed2"/><stop offset="0.98" stop-color="#b118c2"/><stop offset="0.98" stop-color="#b118c2"/></linearGradient><linearGradient id="linear-gradient-28" x1="139.44" y1="77.64" x2="32.77" y2="98.43" gradientUnits="userSpaceOnUse"><stop offset="0.04" stop-color="#7d3dd8"/><stop offset="0.37" stop-color="#8c35d2"/><stop offset="0.98" stop-color="#b320c4"/></linearGradient><linearGradient id="linear-gradient-29" x1="139.41" y1="77.54" x2="32.77" y2="98.32" gradientUnits="userSpaceOnUse"><stop offset="0.04" stop-color="#8243d9"/><stop offset="0.39" stop-color="#913bd3"/><stop offset="0.98" stop-color="#b428c6"/></linearGradient><linearGradient id="linear-gradient-30" x1="139.38" y1="77.44" x2="32.77" y2="98.22" gradientUnits="userSpaceOnUse"><stop offset="0.04" stop-color="#8649da"/><stop offset="0.4" stop-color="#9541d4"/><stop offset="0.98" stop-color="#b62fc8"/></linearGradient><linearGradient id="linear-gradient-31" x1="139.36" y1="77.34" x2="32.77" y2="98.11" gradientUnits="userSpaceOnUse"><stop offset="0.04" stop-color="#8b4fda"/><stop offset="0.43" stop-color="#9a47d4"/><stop offset="0.98" stop-color="#b737ca"/></linearGradient><linearGradient id="linear-gradient-32" x1="139.33" y1="77.23" x2="32.77" y2="98" gradientUnits="userSpaceOnUse"><stop offset="0.04" stop-color="#9056db"/><stop offset="0.46" stop-color="#9f4dd5"/><stop offset="0.98" stop-color="#b83fcb"/></linearGradient><linearGradient id="linear-gradient-33" x1="139.3" y1="77.13" x2="32.77" y2="97.89" gradientUnits="userSpaceOnUse"><stop offset="0.04" stop-color="#945cdc"/><stop offset="0.48" stop-color="#a353d6"/><stop offset="0.98" stop-color="#ba47cd"/></linearGradient><linearGradient id="linear-gradient-34" x1="139.28" y1="77.03" x2="32.77" y2="97.79" gradientUnits="userSpaceOnUse"><stop offset="0.04" stop-color="#9962dc"/><stop offset="0.52" stop-color="#a859d6"/><stop offset="0.98" stop-color="#bb4fcf"/></linearGradient><linearGradient id="linear-gradient-35" x1="139.26" y1="76.93" x2="32.77" y2="97.68" gradientUnits="userSpaceOnUse"><stop offset="0.04" stop-color="#9d68dd"/><stop offset="0.55" stop-color="#ac60d7"/><stop offset="0.98" stop-color="#bd57d1"/></linearGradient><linearGradient id="linear-gradient-36" x1="139.24" y1="76.82" x2="32.77" y2="97.57" gradientUnits="userSpaceOnUse"><stop offset="0.04" stop-color="#a26edd"/><stop offset="0.61" stop-color="#b166d8"/><stop offset="0.98" stop-color="#be5fd3"/></linearGradient><linearGradient id="linear-gradient-37" x1="139.22" y1="76.72" x2="32.77" y2="97.46" gradientUnits="userSpaceOnUse"><stop offset="0.04" stop-color="#a674de"/><stop offset="0.65" stop-color="#b56cd9"/><stop offset="0.98" stop-color="#c067d5"/></linearGradient><linearGradient id="linear-gradient-38" x1="139.2" y1="76.61" x2="32.77" y2="97.35" gradientUnits="userSpaceOnUse"><stop offset="0.04" stop-color="#ab7bdf"/><stop offset="0.74" stop-color="#ba73d9"/><stop offset="0.98" stop-color="#c16fd6"/></linearGradient><linearGradient id="linear-gradient-39" x1="139.19" y1="76.51" x2="32.77" y2="97.25" gradientUnits="userSpaceOnUse"><stop offset="0.04" stop-color="#b081df"/><stop offset="0.87" stop-color="#bf78d9"/><stop offset="0.98" stop-color="#c277d8"/></linearGradient><linearGradient id="linear-gradient-40" x1="139.18" y1="76.4" x2="32.77" y2="97.14" gradientUnits="userSpaceOnUse"><stop offset="0.04" stop-color="#b487e0"/><stop offset="0.95" stop-color="#c37eda"/><stop offset="0.98" stop-color="#c47eda"/></linearGradient><linearGradient id="linear-gradient-41" x1="139.17" y1="76.3" x2="32.77" y2="97.03" gradientUnits="userSpaceOnUse"><stop offset="0.04" stop-color="#b98de1"/><stop offset="0.98" stop-color="#c586dc"/></linearGradient><linearGradient id="linear-gradient-42" x1="139.16" y1="76.19" x2="32.77" y2="96.93" gradientUnits="userSpaceOnUse"><stop offset="0.04" stop-color="#bd93e1"/><stop offset="0.98" stop-color="#c78ede"/></linearGradient><linearGradient id="linear-gradient-43" x1="139.16" y1="76.08" x2="32.76" y2="96.82" gradientUnits="userSpaceOnUse"><stop offset="0.04" stop-color="#c29ae2"/><stop offset="0.98" stop-color="#c896df"/></linearGradient><linearGradient id="linear-gradient-44" x1="139.15" y1="75.98" x2="32.76" y2="96.71" gradientUnits="userSpaceOnUse"><stop offset="0.04" stop-color="#c6a0e2"/><stop offset="0.98" stop-color="#ca9ee1"/></linearGradient><linearGradient id="linear-gradient-45" x1="127.07" y1="88.08" x2="125.73" y2="85.13" xlink:href="#linear-gradient-2"/><linearGradient id="linear-gradient-46" x1="9412.26" y1="-1059.55" x2="9409.98" y2="-1055.3" gradientTransform="matrix(-0.87, 0.5, -0.5, 1.44, 7746.99, -3071.12)" xlink:href="#linear-gradient-39"/><linearGradient id="linear-gradient-47" x1="121.87" y1="92.5" x2="119.95" y2="87.77" xlink:href="#linear-gradient-2"/><linearGradient id="linear-gradient-48" x1="9417.28" y1="-1056.86" x2="9415" y2="-1052.6" gradientTransform="matrix(-0.87, 0.5, -0.5, 1.44, 7746.99, -3071.12)" xlink:href="#linear-gradient-39"/><linearGradient id="linear-gradient-49" x1="104.29" y1="59.12" x2="54.28" y2="137.52" gradientUnits="userSpaceOnUse"><stop offset="0" stop-color="#fff"/><stop offset="1" stop-color="#e5d4ef"/></linearGradient><linearGradient id="linear-gradient-50" x1="74.29" y1="83.94" x2="69.64" y2="108.24" xlink:href="#linear-gradient-2"/><linearGradient id="linear-gradient-51" x1="32.23" y1="-1.19" x2="99.27" y2="125.56" xlink:href="#linear-gradient-2"/><linearGradient id="linear-gradient-52" x1="65.57" y1="72.32" x2="74.83" y2="72.32" gradientUnits="userSpaceOnUse"><stop offset="0" stop-color="#2d085d"/><stop offset="1" stop-color="#410f82"/></linearGradient><linearGradient id="linear-gradient-53" x1="61.69" y1="68.97" x2="74.78" y2="68.97" xlink:href="#linear-gradient-52"/><linearGradient id="linear-gradient-54" x1="57.81" y1="67.43" x2="68.51" y2="67.43" xlink:href="#linear-gradient-52"/><linearGradient id="linear-gradient-55" x1="53.93" y1="65.6" x2="63.19" y2="65.6" xlink:href="#linear-gradient-52"/><linearGradient id="linear-gradient-56" x1="50.05" y1="63.92" x2="57.4" y2="63.92" xlink:href="#linear-gradient-52"/><linearGradient id="linear-gradient-57" x1="46.18" y1="60.81" x2="56.52" y2="60.81" xlink:href="#linear-gradient-52"/><linearGradient id="linear-gradient-58" x1="42.3" y1="59.03" x2="51.04" y2="59.03" xlink:href="#linear-gradient-52"/><linearGradient id="linear-gradient-59" x1="65.57" y1="72.85" x2="72.97" y2="72.85" xlink:href="#linear-gradient-52"/><linearGradient id="linear-gradient-60" x1="61.69" y1="69.79" x2="71.97" y2="69.79" xlink:href="#linear-gradient-52"/><linearGradient id="linear-gradient-61" x1="57.81" y1="67.82" x2="67.13" y2="67.82" xlink:href="#linear-gradient-52"/><linearGradient id="linear-gradient-62" x1="53.93" y1="66.14" x2="61.34" y2="66.14" xlink:href="#linear-gradient-52"/><linearGradient id="linear-gradient-63" x1="50.05" y1="64.45" x2="55.54" y2="64.45" xlink:href="#linear-gradient-52"/><linearGradient id="linear-gradient-64" x1="46.18" y1="61.34" x2="54.67" y2="61.34" xlink:href="#linear-gradient-52"/><linearGradient id="linear-gradient-65" x1="42.3" y1="59.84" x2="48.23" y2="59.84" xlink:href="#linear-gradient-52"/><linearGradient id="linear-gradient-66" x1="669.42" y1="1362.61" x2="668.47" y2="1383.02" gradientTransform="matrix(0.87, 0.5, -1, 0.58, 818.18, -1051.62)" xlink:href="#linear-gradient-52"/><linearGradient id="linear-gradient-67" x1="37.24" y1="60.94" x2="40.33" y2="70.93" xlink:href="#linear-gradient-2"/><linearGradient id="linear-gradient-68" x1="17.7" y1="78.22" x2="24.42" y2="78.22" xlink:href="#linear-gradient-52"/><linearGradient id="linear-gradient-69" x1="47.76" y1="-21.35" x2="114.8" y2="105.39" gradientUnits="userSpaceOnUse"><stop offset="0.04" stop-color="#9f19ab"/><stop offset="0.24" stop-color="#ae25b1"/><stop offset="0.65" stop-color="#d744bf"/><stop offset="1" stop-color="#ff63ce"/></linearGradient><linearGradient id="linear-gradient-70" x1="5006.54" y1="36.11" x2="5033.72" y2="61.97" gradientTransform="matrix(-1, 0, 0, 1, 5084.95, 0)" xlink:href="#linear-gradient-2"/><linearGradient id="linear-gradient-71" x1="5026.68" y1="38.14" x2="5030.79" y2="58.43" gradientTransform="matrix(-1, 0, 0, 1, 5084.95, 0)" xlink:href="#linear-gradient-2"/><linearGradient id="linear-gradient-72" x1="5032.97" y1="45.89" x2="5041.59" y2="70.95" gradientTransform="matrix(-1, 0, 0, 1, 5084.95, 0)" xlink:href="#linear-gradient-2"/><linearGradient id="linear-gradient-73" x1="36.59" y1="56.44" x2="39.51" y2="68.39" xlink:href="#linear-gradient-2"/><linearGradient id="linear-gradient-74" x1="48.13" y1="57.78" x2="51.52" y2="67.89" xlink:href="#linear-gradient-2"/><linearGradient id="linear-gradient-75" x1="40.23" y1="53.18" x2="46.63" y2="69.28" xlink:href="#linear-gradient-2"/><linearGradient id="linear-gradient-76" x1="77.2" y1="-29.56" x2="144.24" y2="97.19" xlink:href="#linear-gradient-52"/><filter id="luminosity-noclip-2" x="65.35" y="43.82" width="45.93" height="23.76" filterUnits="userSpaceOnUse" color-interpolation-filters="sRGB"><feFlood flood-color="#fff" result="bg"/><feBlend in="SourceGraphic" in2="bg"/></filter><mask id="mask-2" x="81.63" y="22.48" width="45.93" height="23.76" maskUnits="userSpaceOnUse"><g class="cls-188"><g transform="translate(16.28 -21.34)"><g class="cls-1"><path class="cls-2" d="M72.4,43.89c.79.46,7.81-.7,9.88.5s-1.68,5.39.87,6.87,17.68-3.09,20-1.77-2,6.56.21,7.86,6.28.34,7.56,1.08-1,2.08-.29,2.51L99.09,67.58,65.35,48.11Z"/></g></g></g></mask><linearGradient id="linear-gradient-77" x1="85.18" y1="59.53" x2="98.03" y2="36.51" gradientUnits="userSpaceOnUse"><stop offset="0" stop-color="#5513ab"/><stop offset="1" stop-color="#be3bff"/></linearGradient><linearGradient id="linear-gradient-78" x1="72.27" y1="52.36" x2="111.55" y2="52.36" xlink:href="#linear-gradient-69"/><linearGradient id="linear-gradient-79" x1="88.95" y1="18.3" x2="122.37" y2="67.56" xlink:href="#linear-gradient-69"/></defs><title>Untitled-4</title><g class="cls-3"><g id="Layer_1" data-name="Layer 1"><rect class="cls-4" width="3.14" height="3.14"/><g class="cls-5"><path class="cls-6" d="M70.21,129.28a9.38,9.38,0,0,0,4.69-1.13l65.41-37.64a5,5,0,0,0,2.69-4.3,5.78,5.78,0,0,0-3.24-4.87L111.55,65.06a11.52,11.52,0,0,0-5.7-1.45,9.42,9.42,0,0,0-4.7,1.13l-65.4,37.64a5,5,0,0,0-2.69,4.3,5.78,5.78,0,0,0,3.24,4.87l28.21,16.28A11.5,11.5,0,0,0,70.21,129.28Z" transform="translate(16.28 -21.34)"/><path class="cls-7" d="M101.2,64.85,35.8,102.5a4.74,4.74,0,0,0-2.57,4.09,5.57,5.57,0,0,0,3.12,4.64L63.3,126.79l1.4.79a11.38,11.38,0,0,0,5.74,1.28,10.12,10.12,0,0,0,4.63-1.23l65-37.44a4.72,4.72,0,0,0,2.57-4.09,5.54,5.54,0,0,0-3.12-4.64l-28-16.19a11,11,0,0,0-2.06-.92,11.89,11.89,0,0,0-3.59-.59A9.22,9.22,0,0,0,101.2,64.85Z" transform="translate(16.28 -21.34)"/><path class="cls-8" d="M101.26,65,35.85,102.61a4.48,4.48,0,0,0-2.44,3.89,5.31,5.31,0,0,0,3,4.41l27.08,15.63c.09,0,1.32.75,1.42.78a11.24,11.24,0,0,0,10.33-.22l64.68-37.23A4.47,4.47,0,0,0,142.36,86a5.31,5.31,0,0,0-3-4.41l-27.87-16.1a14,14,0,0,0-2-.93,12.25,12.25,0,0,0-3.55-.63A9.07,9.07,0,0,0,101.26,65Z" transform="translate(16.28 -21.34)"/><path class="cls-9" d="M101.31,65.08l-65.4,37.64a4.22,4.22,0,0,0-2.32,3.69,5.07,5.07,0,0,0,2.87,4.18l27.2,15.71c.13.07,1.28.72,1.43.76a10.59,10.59,0,0,0,5.81,1,12.1,12.1,0,0,0,4.49-1.44l64.33-37A4.2,4.2,0,0,0,142,85.86a5.11,5.11,0,0,0-2.87-4.18l-27.71-16a16.23,16.23,0,0,0-2-.94,12,12,0,0,0-3.51-.68A8.8,8.8,0,0,0,101.31,65.08Z" transform="translate(16.28 -21.34)"/><path class="cls-10" d="M101.36,65.19,36,102.84a4,4,0,0,0-2.19,3.49,4.82,4.82,0,0,0,2.74,3.94l27.33,15.78c.17.1,1.25.69,1.45.76a10.36,10.36,0,0,0,5.84.79,13.33,13.33,0,0,0,4.42-1.55l64-36.82a4,4,0,0,0,2.19-3.49A4.8,4.8,0,0,0,139,81.8L111.43,65.89a21.49,21.49,0,0,0-2-1,12.18,12.18,0,0,0-3.48-.72A8.74,8.74,0,0,0,101.36,65.19Z" transform="translate(16.28 -21.34)"/><path class="cls-11" d="M101.41,65.3,36,103a3.72,3.72,0,0,0-2.07,3.29A4.62,4.62,0,0,0,36.56,110L64,125.81c.22.12,1.21.66,1.47.74a10,10,0,0,0,5.87.63,15.39,15.39,0,0,0,4.36-1.65l63.61-36.62a3.68,3.68,0,0,0,2.06-3.29,4.58,4.58,0,0,0-2.61-3.71L111.4,66.1a21.19,21.19,0,0,0-2-1,11.87,11.87,0,0,0-3.45-.76A8.46,8.46,0,0,0,101.41,65.3Z" transform="translate(16.28 -21.34)"/><path class="cls-12" d="M101.47,65.42,36.06,103.06a3.46,3.46,0,0,0-1.94,3.09,4.41,4.41,0,0,0,2.49,3.49L64.2,125.56a12.71,12.71,0,0,0,1.48.73,9.68,9.68,0,0,0,5.91.47A17.74,17.74,0,0,0,75.88,125l63.25-36.4a3.48,3.48,0,0,0,1.94-3.1A4.37,4.37,0,0,0,138.58,82L111.37,66.31c-.29-.17-1.62-.86-2-1a11.57,11.57,0,0,0-3.41-.8A8.24,8.24,0,0,0,101.47,65.42Z" transform="translate(16.28 -21.34)"/><path class="cls-13" d="M101.52,65.53l-65.4,37.64a3.21,3.21,0,0,0-1.82,2.9,4.16,4.16,0,0,0,2.37,3.25l27.7,16a11,11,0,0,0,1.51.71,9.31,9.31,0,0,0,5.94.31A22,22,0,0,0,76,124.48l62.89-36.2a3.2,3.2,0,0,0,1.82-2.9,4.16,4.16,0,0,0-2.37-3.25l-27-15.61c-.23-.13-1.66-.9-1.92-1a11.5,11.5,0,0,0-3.38-.85A8.08,8.08,0,0,0,101.52,65.53Z" transform="translate(16.28 -21.34)"/><path class="cls-14" d="M101.57,65.64l-65.4,37.65A2.93,2.93,0,0,0,34.48,106a3.9,3.9,0,0,0,2.24,3l27.83,16.07a10.58,10.58,0,0,0,1.52.71,9,9,0,0,0,6,.13,29.34,29.34,0,0,0,4.16-2l62.53-36a3,3,0,0,0,1.69-2.69,3.93,3.93,0,0,0-2.24-3L111.31,66.73c-.17-.1-1.71-.94-1.9-1a11.84,11.84,0,0,0-3.34-.89A8,8,0,0,0,101.57,65.64Z" transform="translate(16.28 -21.34)"/><path class="cls-15" d="M101.62,65.75,36.22,103.4a2.71,2.71,0,0,0-1.57,2.49,3.72,3.72,0,0,0,2.12,2.79l28,16.15a9.36,9.36,0,0,0,1.54.69,8.72,8.72,0,0,0,6,0,43.43,43.43,0,0,0,4.09-2.06l62.17-35.79a2.71,2.71,0,0,0,1.57-2.49A3.72,3.72,0,0,0,138,82.36L111.28,66.94c-.12-.07-1.75-1-1.88-1a11.7,11.7,0,0,0-3.31-.94A7.87,7.87,0,0,0,101.62,65.75Z" transform="translate(16.28 -21.34)"/><path class="cls-16" d="M101.68,65.87,36.27,103.51a2.47,2.47,0,0,0-1.44,2.3,3.48,3.48,0,0,0,2,2.55l28.09,16.22a7.74,7.74,0,0,0,1.55.68,8.44,8.44,0,0,0,6.05-.19c.17,0,3.9-2.1,4-2.17l61.81-35.58A2.45,2.45,0,0,0,139.79,85a3.54,3.54,0,0,0-2-2.56L111.25,67.15l-1.86-1.05a11.38,11.38,0,0,0-3.27-1A7.51,7.51,0,0,0,101.68,65.87Z" transform="translate(16.28 -21.34)"/><path d="M72.74,124.65,138.15,87c2-1.14,1.71-3.12-.55-4.43L109.39,66.3c-2.27-1.31-5.7-1.45-7.66-.32l-65.4,37.64c-2,1.14-1.72,3.12.55,4.43l28.21,16.28C67.35,125.64,70.78,125.78,72.74,124.65Z" transform="translate(16.28 -21.34)"/></g><path class="cls-17" d="M63.48,118.28,37.1,103.05a3.43,3.43,0,0,1-2-2.86c0-.1,0-.92,0-1,.11-1.24,1.06-.56,2.83-1.58l62-35.81c3.43-2,8.63-2.19,11.6-.48l26.38,15.23c1.33.77,2-.58,2,.49,0,.1,0,1.31,0,1.41-.11,1.24-1.07,2.53-2.83,3.55l-62,35.81C71.65,119.78,66.45,120,63.48,118.28Z" transform="translate(16.28 -21.34)"/><path class="cls-18" d="M100,61.69c3.43-2,8.63-2.2,11.6-.48l26.38,15.22c1.3.76,1.92-.5,2,.55,0,.11,0,1.29,0,1.4-.1,1.25-1.06,2.54-2.83,3.57l-62,35.8c-3.44,2-8.64,2.2-11.61.48L37.1,103a3.45,3.45,0,0,1-2-2.88c0-.1,0-.9,0-1,.14-1.23,1.07-.62,2.82-1.63Z" transform="translate(16.28 -21.34)"/><path class="cls-19" d="M100,61.58c3.43-2,8.63-2.2,11.6-.48l26.38,15.23c1.28.74,1.87-.42,2,.6,0,.13,0,1.27,0,1.4-.1,1.25-1.06,2.54-2.83,3.57l-62,35.8c-3.44,2-8.64,2.2-11.61.49L37.1,103a3.44,3.44,0,0,1-2-2.89c0-.11,0-.89,0-1,.17-1.21,1.08-.68,2.81-1.67Z" transform="translate(16.28 -21.34)"/><path class="cls-20" d="M100,61.47c3.43-2,8.63-2.2,11.6-.48l26.38,15.23c1.26.72,1.83-.34,2,.66,0,.15,0,1.25,0,1.4-.1,1.25-1.06,2.54-2.83,3.57l-62,35.81c-3.44,2-8.64,2.19-11.61.48L37.1,102.91a3.41,3.41,0,0,1-2-2.89c0-.13,0-.88,0-1,.2-1.2,1.09-.75,2.8-1.73Z" transform="translate(16.28 -21.34)"/><path class="cls-21" d="M100,61.36c3.43-2,8.63-2.19,11.6-.48l26.38,15.23c1.23.71,1.79-.26,1.95.72,0,.16.06,1.23.05,1.4-.09,1.25-1.06,2.55-2.83,3.57l-62,35.81c-3.44,2-8.64,2.2-11.61.48L37.1,102.86a3.41,3.41,0,0,1-2-2.9c0-.14,0-.87,0-1,.22-1.18,1.1-.81,2.79-1.78Z" transform="translate(16.28 -21.34)"/><path class="cls-22" d="M100,61.26c3.43-2,8.63-2.2,11.6-.48L137.94,76c1.21.7,1.76-.17,1.94.78,0,.18.07,1.21.06,1.39-.09,1.26-1.06,2.56-2.83,3.58l-62,35.81c-3.44,2-8.64,2.2-11.61.48L37.1,102.81a3.44,3.44,0,0,1-2-2.91c0-.15,0-.85.06-1,.24-1.16,1.12-.87,2.78-1.83Z" transform="translate(16.28 -21.34)"/><path class="cls-23" d="M100,61.15c3.43-2,8.63-2.2,11.6-.48L137.94,75.9c1.19.68,1.73-.1,1.93.83a12.94,12.94,0,0,1,.07,1.39c-.09,1.25-1.05,2.56-2.83,3.58l-62,35.81c-3.44,2-8.64,2.2-11.61.48L37.1,102.76a3.4,3.4,0,0,1-2-2.91c0-.17,0-.85.07-1,.26-1.15,1.13-.94,2.77-1.88Z" transform="translate(16.28 -21.34)"/><path class="cls-24" d="M100,61c3.43-2,8.63-2.2,11.6-.48l26.38,15.23c1.16.67,1.7,0,1.91.9a10.54,10.54,0,0,1,.09,1.38c-.08,1.25-1.05,2.56-2.83,3.59l-62,35.8c-3.44,2-8.64,2.2-11.61.48L37.1,102.72a3.42,3.42,0,0,1-2-2.93,8.59,8.59,0,0,1,.08-1c.27-1.13,1.14-1,2.76-1.93Z" transform="translate(16.28 -21.34)"/><path class="cls-25" d="M100,60.93c3.43-2,8.63-2.2,11.6-.48l26.38,15.23c1.14.66,1.68.07,1.9,1a8.93,8.93,0,0,1,.1,1.37c-.08,1.26-1.05,2.57-2.83,3.6l-62,35.81c-3.44,2-8.64,2.19-11.61.48L37.1,102.67a3.4,3.4,0,0,1-2-2.94,8.61,8.61,0,0,1,.09-1c.29-1.11,1.15-1.06,2.75-2Z" transform="translate(16.28 -21.34)"/><path class="cls-26" d="M100,60.83c3.43-2,8.63-2.2,11.6-.49l26.38,15.23c1.12.65,1.65.15,1.89,1a7.83,7.83,0,0,1,.11,1.37c-.08,1.26-1.05,2.57-2.83,3.6l-62,35.81c-3.44,2-8.64,2.2-11.61.48L37.1,102.62a3.4,3.4,0,0,1-2-3,6,6,0,0,1,.11-1c.29-1.1,1.15-1.12,2.73-2Z" transform="translate(16.28 -21.34)"/><path class="cls-27" d="M100,60.72c3.43-2,8.63-2.2,11.6-.48l26.38,15.22c1.09.64,1.63.23,1.87,1.08a6.3,6.3,0,0,1,.13,1.37c-.08,1.26-1,2.57-2.83,3.6l-62,35.81c-3.44,2-8.64,2.2-11.61.48L37.1,102.57a3.41,3.41,0,0,1-2-2.95,5.8,5.8,0,0,1,.12-1c.3-1.09,1.16-1.18,2.72-2.08Z" transform="translate(16.28 -21.34)"/><path class="cls-28" d="M100,60.61c3.43-2,8.63-2.2,11.6-.48l26.38,15.23c1.07.62,1.61.3,1.86,1.13a6.31,6.31,0,0,1,.14,1.37c-.08,1.26-1,2.57-2.83,3.6l-62,35.81c-3.44,2-8.64,2.2-11.61.48L37.1,102.52a3.38,3.38,0,0,1-2-3,5,5,0,0,1,.13-1c.31-1.07,1.17-1.24,2.71-2.13Z" transform="translate(16.28 -21.34)"/><path class="cls-29" d="M100,60.5c3.43-2,8.63-2.2,11.6-.48l26.38,15.23c1.05.61,1.59.38,1.85,1.19a5.67,5.67,0,0,1,.15,1.36c-.07,1.27-1,2.58-2.83,3.62l-62,35.8c-3.44,2-8.64,2.2-11.61.48L37.1,102.48a3.4,3.4,0,0,1-2-3,6,6,0,0,1,.14-1c.32-1.06,1.18-1.3,2.7-2.18Z" transform="translate(16.28 -21.34)"/><path class="cls-30" d="M100,60.4c3.43-2,8.63-2.2,11.6-.49l26.38,15.23c1,.59,1.57.46,1.83,1.25a4.83,4.83,0,0,1,.17,1.36c-.07,1.26-1,2.58-2.83,3.62l-62,35.8c-3.44,2-8.64,2.2-11.61.49L37.1,102.43a3.41,3.41,0,0,1-2-3,5.13,5.13,0,0,1,.15-1c.33-1,1.19-1.36,2.69-2.23Z" transform="translate(16.28 -21.34)"/><path class="cls-31" d="M100,60.29c3.43-2,8.63-2.2,11.6-.48L137.94,75c1,.58,1.55.54,1.82,1.31a4.8,4.8,0,0,1,.18,1.36c-.07,1.26-1,2.58-2.83,3.62l-62,35.81c-3.44,2-8.64,2.2-11.61.48L37.1,102.38a3.4,3.4,0,0,1-2-3,4.43,4.43,0,0,1,.16-1c.34-1,1.2-1.43,2.68-2.29Z" transform="translate(16.28 -21.34)"/><path class="cls-32" d="M100,60.18c3.43-2,8.63-2.2,11.6-.48l26.38,15.23c1,.56,1.53.61,1.81,1.36a4.45,4.45,0,0,1,.19,1.35c-.07,1.27-1,2.59-2.83,3.63l-62,35.81c-3.44,2-8.64,2.2-11.61.48L37.1,102.33a3.39,3.39,0,0,1-2-3,4.45,4.45,0,0,1,.17-1c.35-1,1.21-1.49,2.67-2.33Z" transform="translate(16.28 -21.34)"/><path class="cls-33" d="M100,60.07c3.43-2,8.63-2.2,11.6-.48l26.38,15.23c1,.55,1.51.69,1.79,1.42a3.93,3.93,0,0,1,.21,1.35c-.07,1.27-1,2.59-2.83,3.63L75.09,117c-3.44,2-8.64,2.2-11.61.48L37.1,102.28a3.4,3.4,0,0,1-2-3,4.05,4.05,0,0,1,.18-1c.36-1,1.22-1.55,2.66-2.38Z" transform="translate(16.28 -21.34)"/><path class="cls-34" d="M100,60c3.43-2,8.63-2.2,11.6-.49l26.38,15.23c.93.54,1.49.77,1.78,1.48a3.68,3.68,0,0,1,.22,1.35c-.07,1.27-1,2.59-2.83,3.64l-62,35.8c-3.44,2-8.64,2.2-11.61.48L37.1,102.24a3.4,3.4,0,0,1-2-3,4.16,4.16,0,0,1,.19-1c.37-1,1.23-1.61,2.65-2.43Z" transform="translate(16.28 -21.34)"/><path class="cls-35" d="M100,59.86c3.43-2,8.63-2.2,11.6-.48L137.94,74.6c.91.53,1.47.85,1.77,1.54a3.49,3.49,0,0,1,.23,1.35c-.07,1.27-1,2.59-2.83,3.64l-62,35.8c-3.44,2-8.64,2.2-11.61.48L37.1,102.19a3.41,3.41,0,0,1-2-3,3.31,3.31,0,0,1,.21-1,5.33,5.33,0,0,1,2.63-2.49Z" transform="translate(16.28 -21.34)"/><path class="cls-36" d="M100,59.75c3.43-2,8.63-2.2,11.6-.48L137.94,74.5a3.68,3.68,0,0,1,1.75,1.59,3.13,3.13,0,0,1,.25,1.34c-.06,1.28-1,2.6-2.83,3.65l-62,35.81c-3.44,2-8.64,2.19-11.61.48L37.1,102.14a3.38,3.38,0,0,1-2-3,3.11,3.11,0,0,1,.22-1,5.44,5.44,0,0,1,2.62-2.53Z" transform="translate(16.28 -21.34)"/><path class="cls-37" d="M100,59.64c3.43-2,8.63-2.2,11.6-.48l26.38,15.23A4,4,0,0,1,139.68,76a2.87,2.87,0,0,1,.26,1.34c-.06,1.27-1,2.6-2.83,3.65l-62,35.81c-3.44,2-8.64,2.2-11.61.48L37.1,102.09a3.39,3.39,0,0,1-2-3,3.13,3.13,0,0,1,.23-1,5.62,5.62,0,0,1,2.61-2.58Z" transform="translate(16.28 -21.34)"/><path class="cls-38" d="M63.48,117.27,37.1,102c-3-1.71-2.6-4.72.84-6.7l62-35.81c3.43-2,8.63-2.19,11.6-.48l26.38,15.23c3,1.72,2.6,4.72-.83,6.7l-62,35.81C71.65,118.77,66.45,119,63.48,117.27Z" transform="translate(16.28 -21.34)"/><path class="cls-39" d="M63.48,117.3,37.1,102.07a3.43,3.43,0,0,1-2-2.86c0-.1,0-2.17,0-2.26.11-1.25,1.06-.56,2.83-1.58l62-35.81c3.43-2,8.63-2.19,11.6-.48l26.38,15.23c1.33.77,2-.58,2,.49,0,.09,0,2.56,0,2.66-.11,1.24-1.07,2.53-2.83,3.55l-62,35.81C71.65,118.8,66.45,119,63.48,117.3Z" transform="translate(16.28 -21.34)"/><path class="cls-40" d="M100,59.46c3.43-2,8.63-2.2,11.6-.48L137.94,74.2c1.3.75,1.87-.5,2,.54,0,.12,0,2.51,0,2.63a5,5,0,0,1-2.82,3.53l-62,35.81c-3.44,2-8.64,2.2-11.61.48L37.1,102a3.47,3.47,0,0,1-2-2.85c0-.12,0-2.12,0-2.24.19-1.21,1.07-.61,2.81-1.61Z" transform="translate(16.28 -21.34)"/><path class="cls-41" d="M100,59.35c3.43-2,8.63-2.2,11.6-.48L137.94,74.1c1.27.73,1.8-.43,2,.58,0,.15,0,2.45,0,2.61a5.16,5.16,0,0,1-2.82,3.51l-62,35.8c-3.44,2-8.64,2.2-11.61.48L37.1,101.86a3.54,3.54,0,0,1-2-2.84c0-.15,0-2.08,0-2.23.25-1.18,1.08-.65,2.79-1.63Z" transform="translate(16.28 -21.34)"/><path class="cls-42" d="M100,59.24c3.43-2,8.63-2.2,11.6-.48L137.94,74c1.24.71,1.74-.35,1.94.62,0,.19.07,2.41,0,2.6a5.15,5.15,0,0,1-2.81,3.48l-62,35.81c-3.44,2-8.64,2.19-11.61.48L37.1,101.75a3.53,3.53,0,0,1-2-2.82c0-.18,0-2,.07-2.22.29-1.15,1.1-.7,2.77-1.66Z" transform="translate(16.28 -21.34)"/><path class="cls-43" d="M100,59.13c3.43-2,8.63-2.2,11.6-.48l26.38,15.23c1.21.7,1.7-.28,1.92.67a22.05,22.05,0,0,1,.06,2.57,5.19,5.19,0,0,1-2.81,3.46l-62,35.81c-3.44,2-8.64,2.2-11.61.48L37.1,101.64a3.55,3.55,0,0,1-2-2.8c0-.21,0-2,.1-2.21.31-1.13,1.1-.74,2.74-1.69Z" transform="translate(16.28 -21.34)"/><path class="cls-44" d="M100,59c3.43-2,8.63-2.2,11.6-.48l26.38,15.22c1.18.69,1.66-.2,1.9.72a18.06,18.06,0,0,1,.07,2.55,5.19,5.19,0,0,1-2.8,3.43l-62,35.81c-3.44,2-8.64,2.2-11.61.48L37.1,101.53a3.53,3.53,0,0,1-2-2.79,20.23,20.23,0,0,1,.12-2.19c.33-1.1,1.11-.79,2.72-1.72Z" transform="translate(16.28 -21.34)"/><path class="cls-45" d="M100,58.92c3.43-2,8.63-2.2,11.6-.48l26.38,15.23c1.15.66,1.63-.13,1.88.75a16.6,16.6,0,0,1,.09,2.54,5.27,5.27,0,0,1-2.8,3.41l-62,35.8c-3.44,2-8.64,2.2-11.61.48L37.1,101.43a3.58,3.58,0,0,1-2-2.78,16.06,16.06,0,0,1,.14-2.18c.35-1.08,1.12-.83,2.7-1.74Z" transform="translate(16.28 -21.34)"/><path class="cls-46" d="M100,58.81c3.43-2,8.63-2.2,11.6-.48l26.38,15.23c1.12.65,1.59-.06,1.86.8a13.26,13.26,0,0,1,.11,2.52,5.29,5.29,0,0,1-2.8,3.38l-62,35.81c-3.44,2-8.64,2.19-11.61.48L37.1,101.32a3.6,3.6,0,0,1-2-2.76,13.37,13.37,0,0,1,.16-2.17c.36-1,1.13-.88,2.68-1.77Z" transform="translate(16.28 -21.34)"/><path class="cls-47" d="M100,58.7c3.43-2,8.63-2.2,11.6-.48l26.38,15.23c1.09.63,1.56,0,1.84.85a11.52,11.52,0,0,1,.12,2.49,5.27,5.27,0,0,1-2.79,3.36L75.09,116c-3.44,2-8.64,2.2-11.61.48L37.1,101.21a3.58,3.58,0,0,1-2-2.75,11.3,11.3,0,0,1,.19-2.15c.37-1,1.13-.93,2.65-1.8Z" transform="translate(16.28 -21.34)"/><path class="cls-48" d="M100,58.6c3.43-2,8.63-2.2,11.6-.49l26.38,15.23c1.06.62,1.54.09,1.82.89a9.82,9.82,0,0,1,.14,2.48A5.29,5.29,0,0,1,137.11,80l-62,35.81c-3.44,2-8.64,2.2-11.61.48L37.1,101.1a3.56,3.56,0,0,1-2-2.73,9.81,9.81,0,0,1,.2-2.14c.38-1,1.14-1,2.63-1.83Z" transform="translate(16.28 -21.34)"/><path class="cls-49" d="M100,58.49c3.43-2,8.63-2.2,11.6-.48l26.38,15.22c1,.6,1.51.16,1.8.94a8.48,8.48,0,0,1,.15,2.46,5.3,5.3,0,0,1-2.78,3.31l-62,35.8c-3.44,2-8.64,2.2-11.61.48L37.1,101a3.59,3.59,0,0,1-2-2.72,8.21,8.21,0,0,1,.22-2.13c.39-1,1.16-1,2.61-1.86Z" transform="translate(16.28 -21.34)"/><path class="cls-50" d="M100,58.38c3.43-2,8.63-2.2,11.6-.48l26.38,15.23c1,.58,1.48.22,1.78,1a7.42,7.42,0,0,1,.17,2.44,5.36,5.36,0,0,1-2.78,3.28l-62,35.81c-3.44,2-8.64,2.19-11.61.48L37.1,100.89a3.58,3.58,0,0,1-2-2.71,7.73,7.73,0,0,1,.24-2.11c.4-1,1.17-1.06,2.59-1.88Z" transform="translate(16.28 -21.34)"/><path class="cls-51" d="M100,58.27c3.43-2,8.63-2.2,11.6-.48L137.94,73c1,.56,1.46.3,1.76,1a6.53,6.53,0,0,1,.18,2.41,5.34,5.34,0,0,1-2.77,3.26l-62,35.81c-3.44,2-8.64,2.2-11.61.48L37.1,100.78a3.58,3.58,0,0,1-2-2.69,6.66,6.66,0,0,1,.27-2.1c.4-.94,1.17-1.11,2.56-1.91Z" transform="translate(16.28 -21.34)"/><path class="cls-52" d="M100,58.17c3.43-2,8.63-2.2,11.6-.49l26.38,15.23c.95.55,1.43.37,1.73,1.07a5.75,5.75,0,0,1,.21,2.4,5.36,5.36,0,0,1-2.77,3.23l-62,35.81c-3.44,2-8.64,2.2-11.61.48L37.1,100.67a3.56,3.56,0,0,1-2-2.67,5.87,5.87,0,0,1,.29-2.09c.41-.92,1.18-1.15,2.54-1.94Z" transform="translate(16.28 -21.34)"/><path class="cls-53" d="M100,58.06c3.43-2,8.63-2.2,11.6-.48L137.94,72.8c.92.53,1.41.44,1.71,1.12a5.21,5.21,0,0,1,.22,2.38,5.37,5.37,0,0,1-2.76,3.21l-62,35.8c-3.44,2-8.64,2.2-11.61.48L37.1,100.57a3.62,3.62,0,0,1-2-2.66,5.63,5.63,0,0,1,.31-2.08c.42-.9,1.19-1.2,2.52-2Z" transform="translate(16.28 -21.34)"/><path class="cls-54" d="M100,58c3.43-2,8.63-2.2,11.6-.48L137.94,72.7c.89.51,1.38.5,1.69,1.16a4.74,4.74,0,0,1,.24,2.36,5.4,5.4,0,0,1-2.76,3.18l-62,35.8c-3.44,2-8.64,2.2-11.61.49L37.1,100.46a3.63,3.63,0,0,1-2-2.65,5,5,0,0,1,.34-2.06c.42-.88,1.19-1.25,2.49-2Z" transform="translate(16.28 -21.34)"/><path class="cls-55" d="M100,57.84c3.43-2,8.63-2.2,11.6-.48l26.38,15.23c.86.5,1.36.57,1.67,1.2a4.28,4.28,0,0,1,.26,2.34,5.41,5.41,0,0,1-2.76,3.16l-62,35.81c-3.44,2-8.64,2.2-11.61.48L37.1,100.35a3.61,3.61,0,0,1-2-2.63,4.55,4.55,0,0,1,.36-2c.43-.86,1.2-1.29,2.47-2Z" transform="translate(16.28 -21.34)"/><path class="cls-56" d="M100,57.73c3.43-2,8.63-2.19,11.6-.48l26.38,15.23c.83.48,1.33.64,1.65,1.25a4,4,0,0,1,.27,2.32,5.42,5.42,0,0,1-2.75,3.13L75.09,115c-3.44,2-8.64,2.2-11.61.48L37.1,100.24a3.6,3.6,0,0,1-2-2.61,4.26,4.26,0,0,1,.38-2,5.57,5.57,0,0,1,2.45-2Z" transform="translate(16.28 -21.34)"/><path class="cls-57" d="M100,57.63c3.43-2,8.63-2.2,11.6-.48l26.38,15.22c.8.47,1.31.71,1.63,1.3a3.59,3.59,0,0,1,.29,2.3,5.46,5.46,0,0,1-2.75,3.11l-62,35.8c-3.44,2-8.64,2.2-11.61.48L37.1,100.14a3.6,3.6,0,0,1-2-2.61,3.79,3.79,0,0,1,.39-2,5.85,5.85,0,0,1,2.43-2.08Z" transform="translate(16.28 -21.34)"/><path class="cls-58" d="M100,57.52c3.43-2,8.63-2.2,11.6-.48l26.38,15.23a3.81,3.81,0,0,1,1.61,1.34,3.22,3.22,0,0,1,.3,2.27A5.42,5.42,0,0,1,137.11,79l-62,35.8c-3.44,2-8.64,2.2-11.61.49L37.1,100a3.6,3.6,0,0,1-2-2.59,3.43,3.43,0,0,1,.42-2,5.83,5.83,0,0,1,2.4-2.1Z" transform="translate(16.28 -21.34)"/><path class="cls-59" d="M100,57.41c3.43-2,8.63-2.2,11.6-.48l26.38,15.23a4.15,4.15,0,0,1,1.59,1.38,3,3,0,0,1,.32,2.26,5.44,5.44,0,0,1-2.74,3.06l-62,35.81c-3.44,2-8.64,2.2-11.61.48L37.1,99.92a3.62,3.62,0,0,1-2-2.57,3.26,3.26,0,0,1,.44-2,6.15,6.15,0,0,1,2.38-2.13Z" transform="translate(16.28 -21.34)"/><path class="cls-60" d="M63.48,115,37.1,99.81c-3-1.72-2.6-4.72.84-6.7L100,57.3c3.43-2,8.63-2.19,11.6-.48l26.38,15.23c3,1.72,2.6,4.72-.83,6.7l-62,35.81C71.65,116.54,66.45,116.76,63.48,115Z" transform="translate(16.28 -21.34)"/><path class="cls-60" d="M63.48,115,37.1,99.81c-3-1.72-2.6-4.72.84-6.7L100,57.3c3.43-2,8.63-2.19,11.6-.48l26.38,15.23c3,1.72,2.6,4.72-.83,6.7l-62,35.81C71.65,116.54,66.45,116.76,63.48,115Z" transform="translate(16.28 -21.34)"/><path class="cls-61" d="M38,93.11l62-35.79c3.43-2,8.61-2.2,11.58-.48l26.37,15.22c3,1.71,2.59,4.7-.83,6.68l-62,35.8c-3.42,2-8.61,2.19-11.58.48L37.13,99.8C34.16,98.08,34.53,95.09,38,93.11Z" transform="translate(16.28 -21.34)"/><path class="cls-62" d="M38,93.12l62-35.79c3.42-2,8.59-2.19,11.55-.48l26.36,15.21c3,1.71,2.58,4.7-.83,6.67l-62,35.79c-3.42,2-8.59,2.19-11.55.48L37.15,99.78C34.19,98.08,34.56,95.09,38,93.12Z" transform="translate(16.28 -21.34)"/><path class="cls-63" d="M38,93.12l62-35.78c3.42-2,8.57-2.18,11.53-.48l26.34,15.21c3,1.71,2.59,4.69-.82,6.65l-62,35.78c-3.41,2-8.57,2.19-11.53.48L37.18,99.77C34.22,98.07,34.59,95.09,38,93.12Z" transform="translate(16.28 -21.34)"/><path class="cls-64" d="M38,93.12l62-35.77c3.4-2,8.55-2.18,11.5-.48l26.33,15.21c2.95,1.7,2.58,4.67-.82,6.64L75,114.48c-3.4,2-8.55,2.18-11.49.48L37.2,99.76C34.26,98.06,34.62,95.08,38,93.12Z" transform="translate(16.28 -21.34)"/><path class="cls-65" d="M38.05,93.12,100,57.36c3.39-2,8.53-2.17,11.46-.47l26.33,15.2c2.94,1.69,2.57,4.66-.82,6.62L75,114.47c-3.39,2-8.53,2.17-11.47.47L37.23,99.74C34.29,98.05,34.66,95.08,38.05,93.12Z" transform="translate(16.28 -21.34)"/><path class="cls-66" d="M38.07,93.12,100,57.37c3.39-1.95,8.51-2.16,11.44-.47l26.32,15.19c2.93,1.7,2.56,4.65-.82,6.61L75,114.45c-3.39,2-8.51,2.16-11.44.47L37.25,99.73C34.32,98,34.69,95.08,38.07,93.12Z" transform="translate(16.28 -21.34)"/><path class="cls-67" d="M38.09,93.13,100,57.39c3.38-2,8.49-2.17,11.41-.48L137.72,72.1c2.92,1.69,2.55,4.64-.82,6.59L75,114.43c-3.38,1.95-8.48,2.16-11.41.47L37.28,99.71C34.35,98,34.72,95.08,38.09,93.13Z" transform="translate(16.28 -21.34)"/><path class="cls-68" d="M38.12,93.13,100,57.4c3.36-1.95,8.46-2.16,11.38-.48l26.3,15.19c2.91,1.68,2.55,4.62-.82,6.57L75,114.41c-3.37,2-8.47,2.16-11.38.47L37.3,99.7C34.38,98,34.75,95.07,38.12,93.13Z" transform="translate(16.28 -21.34)"/><path class="cls-69" d="M38.14,93.13,100,57.41c3.36-1.94,8.45-2.15,11.36-.47l26.28,15.17c2.91,1.68,2.55,4.62-.81,6.56L75,114.39c-3.37,1.94-8.45,2.15-11.36.47L37.32,99.69C34.41,98,34.78,95.07,38.14,93.13Z" transform="translate(16.28 -21.34)"/><path class="cls-70" d="M38.16,93.13,100,57.42c3.35-1.94,8.42-2.15,11.33-.47l26.27,15.17c2.91,1.68,2.54,4.61-.81,6.54L75,114.37c-3.35,1.94-8.42,2.15-11.33.47L37.35,99.67C34.45,98,34.81,95.07,38.16,93.13Z" transform="translate(16.28 -21.34)"/><path class="cls-71" d="M38.18,93.13,100,57.43c3.35-1.93,8.41-2.14,11.3-.47l26.27,15.17c2.9,1.67,2.53,4.59-.81,6.52L74.94,114.36c-3.35,1.93-8.4,2.14-11.3.46L37.37,99.66C34.48,98,34.84,95.07,38.18,93.13Z" transform="translate(16.28 -21.34)"/><path class="cls-72" d="M38.21,93.14,100,57.44c3.34-1.92,8.38-2.13,11.27-.46l26.26,15.16c2.89,1.66,2.52,4.58-.81,6.5l-61.82,35.7c-3.34,1.92-8.39,2.13-11.28.46L37.4,99.64C34.51,98,34.87,95.06,38.21,93.14Z" transform="translate(16.28 -21.34)"/><path class="cls-73" d="M38.23,93.14,100,57.45c3.32-1.92,8.36-2.13,11.24-.46l26.25,15.15c2.88,1.67,2.52,4.57-.81,6.49L74.91,114.32c-3.33,1.92-8.36,2.13-11.24.46L37.42,99.63C34.54,98,34.9,95.06,38.23,93.14Z" transform="translate(16.28 -21.34)"/><path class="cls-74" d="M38.25,93.14,100,57.47c3.32-1.92,8.34-2.13,11.22-.47l26.23,15.15c2.88,1.66,2.52,4.56-.8,6.47L74.9,114.3c-3.32,1.92-8.34,2.12-11.22.46L37.45,99.62C34.57,98,34.93,95.06,38.25,93.14Z" transform="translate(16.28 -21.34)"/><path class="cls-75" d="M38.27,93.14l61.78-35.66c3.31-1.91,8.32-2.12,11.19-.47l26.22,15.15c2.87,1.65,2.51,4.54-.8,6.45L74.88,114.28c-3.31,1.91-8.31,2.12-11.18.46L37.47,99.6C34.6,98,35,95.06,38.27,93.14Z" transform="translate(16.28 -21.34)"/><path class="cls-76" d="M38.3,93.15l61.76-35.66c3.3-1.91,8.29-2.11,11.15-.46l26.22,15.13c2.86,1.65,2.5,4.54-.8,6.45L74.87,114.26c-3.3,1.91-8.3,2.12-11.16.46L37.5,99.59C34.63,97.94,35,95.05,38.3,93.15Z" transform="translate(16.28 -21.34)"/><path class="cls-77" d="M38.32,93.15,100.06,57.5c3.3-1.9,8.28-2.11,11.13-.46L137.4,72.17c2.85,1.65,2.5,4.52-.8,6.43L74.86,114.24c-3.3,1.91-8.28,2.11-11.13.47L37.52,99.57C34.67,97.93,35,95.05,38.32,93.15Z" transform="translate(16.28 -21.34)"/><path class="cls-78" d="M38.34,93.15l61.73-35.64c3.28-1.89,8.26-2.1,11.1-.46l26.2,15.13c2.84,1.64,2.49,4.51-.8,6.41L74.84,114.23c-3.28,1.89-8.25,2.1-11.1.46L37.54,99.56C34.7,97.92,35.06,95.05,38.34,93.15Z" transform="translate(16.28 -21.34)"/><path class="cls-79" d="M38.36,93.15l61.71-35.63c3.28-1.89,8.24-2.09,11.08-.46l26.19,15.12c2.84,1.64,2.48,4.51-.8,6.4L74.83,114.21c-3.28,1.89-8.24,2.09-11.07.46L37.57,99.55C34.73,97.91,35.09,95,38.36,93.15Z" transform="translate(16.28 -21.34)"/><path class="cls-80" d="M38.39,93.15l61.69-35.61c3.27-1.89,8.22-2.1,11-.46L137.3,72.19c2.84,1.64,2.48,4.49-.79,6.38L74.82,114.19c-3.27,1.89-8.22,2.09-11,.46L37.59,99.53C34.76,97.9,35.12,95,38.39,93.15Z" transform="translate(16.28 -21.34)"/><path class="cls-81" d="M38.41,93.16l61.68-35.61c3.26-1.89,8.19-2.09,11-.46L137.27,72.2c2.83,1.63,2.47,4.48-.79,6.36L74.8,114.17c-3.26,1.88-8.19,2.09-11,.46L37.62,99.52C34.79,97.89,35.15,95,38.41,93.16Z" transform="translate(16.28 -21.34)"/><path class="cls-82" d="M38.43,93.16l61.66-35.6c3.26-1.88,8.18-2.08,11-.46l26.16,15.11c2.82,1.62,2.47,4.46-.79,6.34l-61.66,35.6c-3.25,1.88-8.17,2.08-11,.46L37.64,99.5C34.82,97.88,35.18,95,38.43,93.16Z" transform="translate(16.28 -21.34)"/><path class="cls-83" d="M38.45,93.16,100.1,57.57c3.24-1.87,8.15-2.08,11-.45l26.15,15.09c2.81,1.62,2.46,4.46-.79,6.33L74.78,114.13c-3.25,1.88-8.16,2.08-11,.46L37.67,99.49C34.86,97.87,35.21,95,38.45,93.16Z" transform="translate(16.28 -21.34)"/><path class="cls-84" d="M38.48,93.16,100.1,57.58c3.24-1.87,8.14-2.07,10.94-.45l26.14,15.09c2.8,1.62,2.45,4.44-.79,6.31L74.76,114.11c-3.23,1.87-8.13,2.08-10.93.46L37.69,99.48C34.89,97.86,35.24,95,38.48,93.16Z" transform="translate(16.28 -21.34)"/><path class="cls-85" d="M38.5,93.17l61.61-35.58c3.23-1.86,8.11-2.06,10.91-.45l26.13,15.09c2.79,1.61,2.44,4.43-.79,6.29L74.75,114.1c-3.23,1.86-8.11,2.06-10.91.45L37.72,99.46C34.92,97.85,35.27,95,38.5,93.17Z" transform="translate(16.28 -21.34)"/><path class="cls-86" d="M38.52,93.17l61.6-35.57c3.22-1.85,8.09-2.06,10.88-.45l26.11,15.08c2.79,1.61,2.44,4.43-.78,6.28L74.74,114.08c-3.22,1.86-8.09,2.06-10.88.45L37.74,99.45C35,97.84,35.3,95,38.52,93.17Z" transform="translate(16.28 -21.34)"/><path class="cls-87" d="M38.54,93.17l61.58-35.55c3.22-1.86,8.07-2.06,10.85-.45l26.11,15.07c2.78,1.61,2.44,4.41-.78,6.27L74.72,114.06c-3.21,1.85-8.07,2-10.85.45L37.76,99.43C35,97.83,35.33,95,38.54,93.17Z" transform="translate(16.28 -21.34)"/><path class="cls-88" d="M38.57,93.17l61.56-35.54c3.2-1.85,8.05-2.05,10.82-.45l26.1,15.07c2.78,1.6,2.43,4.4-.78,6.25L74.71,114c-3.2,1.85-8,2-10.82.45L37.79,99.42C35,97.82,35.36,95,38.57,93.17Z" transform="translate(16.28 -21.34)"/><path class="cls-88" d="M38.59,93.17l61.55-35.53c3.19-1.85,8-2,10.79-.45L137,72.25c2.77,1.6,2.42,4.39-.78,6.24L74.7,114c-3.2,1.85-8,2-10.8.45L37.81,99.41C35.05,97.81,35.39,95,38.59,93.17Z" transform="translate(16.28 -21.34)"/><path class="cls-89" d="M38.61,93.18l61.53-35.53c3.19-1.84,8-2,10.77-.45L137,72.26c2.76,1.59,2.41,4.38-.78,6.22L74.68,114c-3.18,1.84-8,2-10.76.45L37.84,99.39C35.08,97.8,35.42,95,38.61,93.18Z" transform="translate(16.28 -21.34)"/><path class="cls-90" d="M38.63,93.18l61.52-35.52c3.18-1.83,8-2,10.74-.44l26.07,15c2.75,1.59,2.4,4.36-.77,6.2L74.67,114c-3.18,1.84-8,2-10.74.45L37.86,99.38C35.11,97.79,35.45,95,38.63,93.18Z" transform="translate(16.28 -21.34)"/><path class="cls-91" d="M38.66,93.18l61.49-35.51c3.17-1.83,8-2,10.72-.44l26,15.05c2.75,1.58,2.41,4.35-.76,6.18L74.66,114c-3.17,1.83-8,2-10.71.44l-26.06-15C35.14,97.78,35.49,95,38.66,93.18Z" transform="translate(16.28 -21.34)"/><path class="cls-92" d="M38.68,93.18l61.48-35.49c3.16-1.83,8-2,10.68-.45l26,15c2.74,1.58,2.4,4.34-.76,6.17L74.64,114c-3.16,1.82-7.94,2-10.68.44l-26.05-15C35.17,97.77,35.52,95,38.68,93.18Z" transform="translate(16.28 -21.34)"/><path class="cls-93" d="M38.7,93.18,100.17,57.7c3.15-1.82,7.92-2,10.65-.44l26,15c2.73,1.58,2.39,4.33-.76,6.15L74.63,113.93c-3.15,1.82-7.92,2-10.66.44l-26-15C35.2,97.76,35.55,95,38.7,93.18Z" transform="translate(16.28 -21.34)"/><path class="cls-94" d="M38.72,93.19l61.45-35.48c3.15-1.82,7.91-2,10.63-.44l26,15c2.72,1.57,2.38,4.32-.76,6.13L74.62,113.91c-3.15,1.82-7.91,2-10.63.44l-26-15C35.24,97.75,35.58,95,38.72,93.19Z" transform="translate(16.28 -21.34)"/><path class="cls-95" d="M38.75,93.19l61.43-35.47c3.14-1.81,7.88-2,10.6-.44l26,15c2.71,1.57,2.37,4.31-.76,6.12L74.6,113.89c-3.13,1.81-7.88,2-10.6.44l-26-15C35.27,97.74,35.61,95,38.75,93.19Z" transform="translate(16.28 -21.34)"/><path class="cls-96" d="M38.77,93.19l61.42-35.46c3.12-1.8,7.86-2,10.57-.44l26,15c2.71,1.56,2.37,4.3-.76,6.1L74.59,113.87c-3.13,1.81-7.86,2-10.57.44l-26-15C35.3,97.73,35.64,95,38.77,93.19Z" transform="translate(16.28 -21.34)"/><path class="cls-97" d="M38.79,93.19l61.4-35.45c3.12-1.8,7.84-2,10.54-.43l26,15c2.71,1.56,2.37,4.28-.75,6.08l-61.4,35.45c-3.12,1.81-7.84,2-10.55.44l-26-15C35.33,97.72,35.67,95,38.79,93.19Z" transform="translate(16.28 -21.34)"/><path class="cls-98" d="M38.81,93.2,100.2,57.76c3.11-1.8,7.82-2,10.51-.44l26,15c2.7,1.56,2.36,4.28-.75,6.08L74.56,113.84c-3.11,1.79-7.82,2-10.51.43l-26-15C35.36,97.71,35.7,95,38.81,93.2Z" transform="translate(16.28 -21.34)"/><path class="cls-99" d="M38.84,93.2,100.2,57.77c3.11-1.8,7.8-2,10.49-.44l26,15c2.69,1.55,2.35,4.26-.75,6.06L74.55,113.82c-3.1,1.79-7.8,2-10.49.43l-26-15C35.39,97.7,35.73,95,38.84,93.2Z" transform="translate(16.28 -21.34)"/><path class="cls-100" d="M38.86,93.2l61.35-35.42c3.1-1.79,7.78-2,10.46-.44l26,15c2.68,1.55,2.34,4.25-.75,6L74.54,113.8c-3.1,1.79-7.78,2-10.46.43l-26-15C35.43,97.69,35.76,95,38.86,93.2Z" transform="translate(16.28 -21.34)"/><path class="cls-101" d="M38.88,93.2l61.34-35.41c3.08-1.78,7.75-2,10.43-.43l26,15c2.67,1.54,2.34,4.24-.75,6L74.52,113.78c-3.08,1.78-7.75,2-10.43.43l-26-15C35.46,97.68,35.79,95,38.88,93.2Z" transform="translate(16.28 -21.34)"/><path class="cls-102" d="M38.9,93.2l61.32-35.4c3.08-1.78,7.74-2,10.41-.43l26,15c2.66,1.54,2.33,4.23-.75,6l-61.32,35.4c-3.08,1.78-7.74,2-10.4.43l-25.95-15C35.49,97.67,35.82,95,38.9,93.2Z" transform="translate(16.28 -21.34)"/><path class="cls-103" d="M38.93,93.21l61.3-35.4c3.07-1.77,7.71-2,10.37-.43l25.94,15c2.66,1.53,2.33,4.22-.74,6L74.5,113.74c-3.08,1.78-7.72,2-10.38.43l-25.94-15C35.52,97.66,35.85,95,38.93,93.21Z" transform="translate(16.28 -21.34)"/><path class="cls-104" d="M39,93.21l61.29-35.39c3.06-1.76,7.69-2,10.34-.42l25.93,15c2.65,1.53,2.32,4.2-.74,6L74.48,113.72c-3.06,1.77-7.69,2-10.34.43l-25.94-15C35.55,97.65,35.89,95,39,93.21Z" transform="translate(16.28 -21.34)"/><path class="cls-105" d="M39,93.21l61.27-35.37c3.06-1.77,7.68-2,10.32-.43l25.92,15c2.65,1.53,2.31,4.2-.74,6L74.47,113.71c-3.06,1.76-7.68,2-10.32.42l-25.92-15C35.58,97.64,35.92,95,39,93.21Z" transform="translate(16.28 -21.34)"/><path class="cls-106" d="M39,93.21l61.26-35.36c3-1.76,7.65-2,10.29-.43l25.91,15c2.64,1.52,2.31,4.18-.74,5.94L74.46,113.69c-3,1.76-7.66,2-10.3.42l-25.91-15C35.62,97.63,36,95,39,93.21Z" transform="translate(16.28 -21.34)"/><path class="cls-107" d="M39,93.22l61.24-35.36c3-1.75,7.64-1.94,10.27-.43l25.9,15c2.63,1.52,2.3,4.17-.74,5.92L74.44,113.67c-3,1.75-7.63,1.94-10.26.42l-25.9-15C35.65,97.62,36,95,39,93.22Z" transform="translate(16.28 -21.34)"/><path class="cls-108" d="M39,93.22l61.22-35.35c3-1.75,7.61-1.94,10.23-.42l25.9,14.94c2.62,1.52,2.29,4.16-.74,5.91L74.43,113.65c-3,1.75-7.61,1.94-10.24.42L38.3,99.13C35.68,97.61,36,95,39,93.22Z" transform="translate(16.28 -21.34)"/><path class="cls-109" d="M39.06,93.22l61.21-35.34c3-1.74,7.59-1.93,10.2-.42L136.35,72.4c2.62,1.51,2.29,4.15-.73,5.89l-61.2,35.34c-3,1.75-7.6,1.94-10.21.43l-25.88-15C35.71,97.6,36,95,39.06,93.22Z" transform="translate(16.28 -21.34)"/><path class="cls-110" d="M39.08,93.22l61.19-35.33c3-1.74,7.57-1.92,10.18-.42l25.87,14.94c2.61,1.51,2.28,4.14-.73,5.88L74.4,113.61c-3,1.74-7.57,1.93-10.18.43L38.35,99.1C35.74,97.59,36.07,95,39.08,93.22Z" transform="translate(16.28 -21.34)"/><path class="cls-111" d="M39.1,93.22l61.18-35.31c3-1.74,7.55-1.93,10.15-.43l25.86,14.94c2.6,1.5,2.28,4.12-.73,5.86L74.39,113.6c-3,1.73-7.55,1.92-10.15.42L38.38,99.08C35.77,97.58,36.1,95,39.1,93.22Z" transform="translate(16.28 -21.34)"/><path class="cls-112" d="M39.13,93.23l61.15-35.31c3-1.73,7.53-1.92,10.13-.42l25.85,14.92c2.59,1.5,2.27,4.12-.73,5.85L74.37,113.58c-3,1.73-7.52,1.91-10.12.42L38.4,99.07C35.81,97.57,36.13,95,39.13,93.23Z" transform="translate(16.28 -21.34)"/><path class="cls-113" d="M39.15,93.23l61.14-35.3c3-1.73,7.51-1.91,10.1-.42l25.84,14.92c2.58,1.49,2.26,4.1-.73,5.83l-61.14,35.3c-3,1.72-7.51,1.91-10.09.42L38.42,99.06C35.84,97.56,36.16,95,39.15,93.23Z" transform="translate(16.28 -21.34)"/><path class="cls-114" d="M39.17,93.23,100.3,57.94c3-1.72,7.48-1.91,10.06-.42L136.2,72.44c2.58,1.49,2.25,4.09-.73,5.81L74.35,113.54c-3,1.72-7.49,1.91-10.07.42L38.45,99C35.87,97.55,36.19,95,39.17,93.23Z" transform="translate(16.28 -21.34)"/><path class="cls-115" d="M39.19,93.23,100.3,58c3-1.71,7.47-1.9,10-.41l25.82,14.9c2.58,1.49,2.25,4.08-.72,5.8L74.33,113.52c-3,1.72-7.46,1.9-10,.42L38.47,99C35.9,97.54,36.22,95,39.19,93.23Z" transform="translate(16.28 -21.34)"/><path class="cls-116" d="M39.22,93.23,100.31,58c3-1.71,7.44-1.89,10-.41l25.81,14.9c2.57,1.48,2.25,4.07-.72,5.78L74.32,113.5c-3,1.71-7.44,1.9-10,.42L38.5,99C35.93,97.53,36.25,95,39.22,93.23Z" transform="translate(16.28 -21.34)"/><path class="cls-117" d="M124.76,88.3l3.14-1.81a1.69,1.69,0,0,0,.7-1.35h0c0-.53-.31-.77-.7-.54l-3.14,1.81a1.71,1.71,0,0,0-.71,1.36h0C124.05,88.29,124.37,88.53,124.76,88.3Z" transform="translate(16.28 -21.34)"/><path class="cls-118" d="M124.48,88.2a.41.41,0,0,0,.19-.06l3.13-1.81a1.5,1.5,0,0,0,.62-1.19c0-.2-.06-.44-.24-.44a.38.38,0,0,0-.19.06l-3.14,1.81a1.53,1.53,0,0,0-.62,1.2C124.23,88,124.3,88.2,124.48,88.2Z" transform="translate(16.28 -21.34)"/><path class="cls-119" d="M119.16,91.53l3.14-1.81a1.68,1.68,0,0,0,.7-1.35h0c0-.52-.31-.76-.7-.54l-3.14,1.81a1.72,1.72,0,0,0-.71,1.36h0C118.45,91.52,118.77,91.76,119.16,91.53Z" transform="translate(16.28 -21.34)"/><path class="cls-120" d="M118.88,91.43a.41.41,0,0,0,.19-.06l3.13-1.81a1.5,1.5,0,0,0,.62-1.19c0-.2-.06-.44-.24-.44a.38.38,0,0,0-.19.06l-3.14,1.81a1.55,1.55,0,0,0-.62,1.2C118.63,91.2,118.7,91.43,118.88,91.43Z" transform="translate(16.28 -21.34)"/><path class="cls-121" d="M68.77,114h0a7.77,7.77,0,0,1-3.82-.92L39.87,98.63a2.44,2.44,0,0,1,0-4.6L102.31,58a7.61,7.61,0,0,1,3.78-.91,7.83,7.83,0,0,1,3.83.92L135,72.46a2.81,2.81,0,0,1,1.64,2.31A2.78,2.78,0,0,1,135,77.06L72.55,113.12A7.61,7.61,0,0,1,68.77,114Zm37.32-56.61a7.26,7.26,0,0,0-3.6.86L40,94.34a2.09,2.09,0,0,0,0,4L65.13,112.8a7.39,7.39,0,0,0,3.64.87h0a7.27,7.27,0,0,0,3.61-.86l62.46-36.06a2.09,2.09,0,0,0,0-4L109.74,58.29A7.43,7.43,0,0,0,106.09,57.42Z" transform="translate(16.28 -21.34)"/><path class="cls-122" d="M123.66,68.45l-6.23-3.6c-.24-.14-.21-.38.07-.55h0a1.09,1.09,0,0,1,1,0l6.22,3.6c.24.14.21.38-.07.55h0A1.07,1.07,0,0,1,123.66,68.45Z" transform="translate(16.28 -21.34)"/><g class="cls-123"><path class="cls-124" d="M77.6,104.9a5,5,0,0,1-2.51-.59l-6-3.45-6-3.44a2.33,2.33,0,0,1-1.29-2,2.87,2.87,0,0,1,1.63-2.36,6.46,6.46,0,0,1,3.13-.79,5.08,5.08,0,0,1,2.52.6l6,3.44,6,3.45a2.33,2.33,0,0,1,1.29,2,2.84,2.84,0,0,1-1.63,2.35A6.35,6.35,0,0,1,77.6,104.9Z" transform="translate(16.28 -21.34)"/><path class="cls-125" d="M63.71,93.13h0a6.19,6.19,0,0,1,3.05-.76,5.11,5.11,0,0,1,2.18.44l.26.14L75,96.31l.48.28,5.33,3.07a2.89,2.89,0,0,1,1,1,2,2,0,0,1,.27.92,2.67,2.67,0,0,1-1.55,2.3,6.27,6.27,0,0,1-3,.77,5.11,5.11,0,0,1-2.18-.45l-.26-.14-5.81-3.36-.49-.27-5.33-3.08a3,3,0,0,1-1-1,2,2,0,0,1-.27-.92A2.69,2.69,0,0,1,63.71,93.13Z" transform="translate(16.28 -21.34)"/><path class="cls-126" d="M63.94,93.2h0a6.16,6.16,0,0,1,3-.74A5,5,0,0,1,69,92.9l.25.13,5.67,3.27.47.27,5.18,3a3.1,3.1,0,0,1,1,.94,1.93,1.93,0,0,1,.3.88,2.51,2.51,0,0,1-1.48,2.23,6.08,6.08,0,0,1-3,.75,5,5,0,0,1-2.12-.44l-.25-.13-5.67-3.27-.47-.28-5.18-3a3.1,3.1,0,0,1-1-.94,1.93,1.93,0,0,1-.3-.88A2.53,2.53,0,0,1,63.94,93.2Z" transform="translate(16.28 -21.34)"/><path class="cls-127" d="M64.16,93.27h0a6,6,0,0,1,2.89-.72,4.84,4.84,0,0,1,2,.44l.24.12,5.51,3.19.46.26,5,2.91a3.51,3.51,0,0,1,1,.9,1.94,1.94,0,0,1,.32.83,2.33,2.33,0,0,1-1.4,2.18,5.75,5.75,0,0,1-2.88.72,4.73,4.73,0,0,1-2.06-.43l-.24-.13-5.51-3.18-.46-.27-5-2.91a3.41,3.41,0,0,1-1-.9,1.85,1.85,0,0,1-.32-.83A2.37,2.37,0,0,1,64.16,93.27Z" transform="translate(16.28 -21.34)"/><path class="cls-128" d="M64.38,93.34h0a5.71,5.71,0,0,1,2.81-.69,4.59,4.59,0,0,1,2,.42l.23.13,5.36,3.09.45.26,4.9,2.83a3.76,3.76,0,0,1,1,.85,2,2,0,0,1,.35.79,2.2,2.2,0,0,1-1.33,2.12,5.67,5.67,0,0,1-2.8.69,4.56,4.56,0,0,1-2-.42,1.71,1.71,0,0,1-.23-.13l-5.36-3.09-.45-.26L64.4,97.1a3.81,3.81,0,0,1-1-.85,2.11,2.11,0,0,1-.34-.79A2.21,2.21,0,0,1,64.38,93.34Z" transform="translate(16.28 -21.34)"/><path class="cls-129" d="M64.61,93.42h0a5.39,5.39,0,0,1,2.72-.68,4.65,4.65,0,0,1,1.93.42l.22.12,5.21,3,.43.25,4.76,2.74a4.41,4.41,0,0,1,1,.81,1.74,1.74,0,0,1-.87,2.8,5.67,5.67,0,0,1-2.73.68,4.65,4.65,0,0,1-1.93-.42l-.22-.12-5.21-3-.43-.25L64.71,97a4.12,4.12,0,0,1-1-.8,1.74,1.74,0,0,1,.88-2.8Z" transform="translate(16.28 -21.34)"/><path class="cls-130" d="M64.83,93.49h0a5.41,5.41,0,0,1,2.64-.66,4.36,4.36,0,0,1,1.87.42l.21.11,5,2.92.42.24,4.62,2.67a5,5,0,0,1,1,.76,2,2,0,0,1,.4.7,1.91,1.91,0,0,1-1.17,2,5.35,5.35,0,0,1-2.64.65,4.33,4.33,0,0,1-1.87-.41l-.21-.12-5.06-2.92-.42-.24L65,97a6.27,6.27,0,0,1-1-.76,2.08,2.08,0,0,1-.39-.71C63.48,94.78,63.9,94,64.83,93.49Z" transform="translate(16.28 -21.34)"/><path class="cls-131" d="M65.05,93.56h0a5.11,5.11,0,0,1,2.56-.63,4.23,4.23,0,0,1,1.81.4,1.28,1.28,0,0,0,.2.11l4.9,2.84.41.23,4.47,2.58a6,6,0,0,1,1,.72,2.13,2.13,0,0,1,.43.66c.2.67-.19,1.41-1.1,1.93a5.14,5.14,0,0,1-2.56.63,4.09,4.09,0,0,1-1.81-.4l-.2-.11-4.9-2.83-.41-.24-4.47-2.58a6.64,6.64,0,0,1-1-.71,2.29,2.29,0,0,1-.43-.67C63.75,94.82,64.14,94.08,65.05,93.56Z" transform="translate(16.28 -21.34)"/><path class="cls-132" d="M65.27,93.63h0A5,5,0,0,1,67.75,93a4.14,4.14,0,0,1,1.75.4l.18.11,4.76,2.74.39.23L79.17,99a6.55,6.55,0,0,1,.94.66,1.51,1.51,0,0,1,.45.62c.23.64-.13,1.37-1,1.88a4.93,4.93,0,0,1-2.48.61,4.06,4.06,0,0,1-1.74-.4l-.19-.11-4.76-2.74L70,99.29l-4.33-2.5a7,7,0,0,1-1-.67,1.43,1.43,0,0,1-.45-.61C64,94.86,64.38,94.14,65.27,93.63Z" transform="translate(16.28 -21.34)"/><path class="cls-133" d="M65.5,93.7h0a4.63,4.63,0,0,1,2.39-.58,3.86,3.86,0,0,1,1.69.39l.17.1,4.61,2.65.38.23,4.19,2.41a10.73,10.73,0,0,1,.93.62,1.44,1.44,0,0,1,.48.58c.26.61-.08,1.31-1,1.82a4.84,4.84,0,0,1-2.4.58,4,4,0,0,1-1.68-.39l-.18-.1-4.6-2.66-.38-.22L66,96.71a8,8,0,0,1-.94-.62,1.47,1.47,0,0,1-.47-.57C64.29,94.91,64.62,94.2,65.5,93.7Z" transform="translate(16.28 -21.34)"/><path class="cls-134" d="M65.72,93.77h0A4.66,4.66,0,0,1,68,93.21a3.75,3.75,0,0,1,1.62.38l.16.1,4.45,2.57.37.21,4,2.34s.9.53.92.57a1.46,1.46,0,0,1,.5.53c.29.58,0,1.27-.87,1.76a4.65,4.65,0,0,1-2.31.56,3.69,3.69,0,0,1-1.62-.38l-.17-.1-4.45-2.57L70.32,99l-4-2.34s-.9-.53-.92-.57a1.46,1.46,0,0,1-.5-.53C64.56,95,64.86,94.26,65.72,93.77Z" transform="translate(16.28 -21.34)"/><path class="cls-135" d="M75.3,101.59l-4.81-2.78L65.67,96c-1-.56-.85-1.54.27-2.19h0a4.21,4.21,0,0,1,3.79-.16l4.82,2.78,4.81,2.78c1,.56.85,1.54-.27,2.19h0A4.21,4.21,0,0,1,75.3,101.59Z" transform="translate(16.28 -21.34)"/></g><path class="cls-136" d="M75.56,100.24,63.63,93.35c-1.21-.7-1.06-1.91.33-2.71h0a5.22,5.22,0,0,1,4.7-.2l11.93,6.89c1.21.7,1.06,1.91-.33,2.71h0A5.22,5.22,0,0,1,75.56,100.24Z" transform="translate(16.28 -21.34)"/><path class="cls-137" d="M75.56,100.08,63.63,93.19c-1.21-.69-1.06-1.91.33-2.71h0a5.25,5.25,0,0,1,4.7-.2l11.93,6.89c1.21.7,1.06,1.91-.33,2.72h0A5.22,5.22,0,0,1,75.56,100.08Z" transform="translate(16.28 -21.34)"/><polygon class="cls-116" points="91.65 75.53 91.33 74.48 90.83 74.77 87.61 72.91 87.11 73.2 90.33 75.06 89.83 75.35 91.65 75.53"/><polygon class="cls-138" points="90.69 76.85 91.37 77.24 92.6 76.53 91.92 76.14 90.69 76.85"/><polygon class="cls-138" points="91.58 77.36 92.26 77.75 94.41 76.51 93.73 76.12 91.58 77.36"/><polygon class="cls-138" points="95.54 76.09 92.46 77.87 93.14 78.26 96.22 76.48 95.54 76.09"/><path class="cls-137" d="M93.7,83.61l-3-1.73-.71.4L93,84Zm-1.37,1.08-3.58-2.07-.7.41,3.58,2.07Zm4.41.68-2.46-1.43-.7.41L96,85.77Zm1.54.88-1-.55-.7.41,1,.55Zm-14.1-8.14L82,76.85l-.7.4,2.2,1.27Zm-.46,1.61-3.36-1.94-.7.41L83,80.12ZM92.91,85l-.7.4.94.54.71-.4ZM88.67,80.7l-3.91-2.25-.7.4L88,81.11Zm1.45.84-.87-.5-.7.4.86.51Zm-2,.75L86.29,81.2l-.7.41,1.88,1.08ZM84.3,80.05l-.7.41,1.41.81.7-.4Zm9.43,6.26,2.57,1.48.71-.4L94.43,85.9Zm8.3,2.11-3.17-1.83-.7.4,3.17,1.83Zm2,1.18-1.46-.85-.7.41,1.46.84Zm-16.4-.71L85.2,87.47l-.7.41L87,89.3Zm.77-.61L91,89.76l.7-.4-2.57-1.49Zm3.86.36,1.12.65.71-.41L93,88.24Zm-3.06,2L91.71,92l.7-.41L90,90.21Zm2.35-.51,1.1.63.7-.4-1.1-.64ZM77.25,81.82l1.41.81.7-.4L78,81.41ZM81,85.07l-.87-.5-.7.4.87.5Zm.79-1.42-1.89-1.09-.7.41,1.88,1.09ZM86,86.06,82.41,84l-.71.4,3.59,2.07Zm.71,4.14-2.57-1.48-.7.4L86,90.61Zm-7-8.81,3.91,2.25.7-.4L80.44,81Zm9.52,5.49,2.46,1.43.7-.41L90,86.48Zm-2.51,6,.7-.4-1-.56-.7.41Zm5,.24-4.52-2.61-.7.4,4.52,2.62Zm-2.42-7-3-1.73-.7.4,3,1.74Zm-8.95.45-3-1.76-.7.41,3,1.75Zm8.13,1-2-1.15-.7.4,2,1.15Zm-11.75-3-1.88-1.09-.7.4,1.88,1.09ZM75,82.38l3.91,2.26.7-.41L75.68,82ZM77.84,87,73.93,84.7l-.7.4,3.91,2.26Zm6.78.18-3-1.74-.7.41,3,1.73Zm1.29,4.48L83.45,90.2l-.7.4L85.21,92Zm-4.53.06.94.55.71-.41-1-.54Zm1.52.88,2.57,1.49.71-.41L83.6,92.16Zm-3.74-4,3,1.74.7-.41-3-1.73Zm-4.4-.67L76.64,89l.7-.41-1.88-1.09Zm8.79.52L81,86.92l-.7.41,2.54,1.46Zm-5.83-.68.86.5.71-.41-.87-.5Zm20.57,3.59-.7.4,1.46.85.71-.41ZM95.06,94l.76.44.7-.41-.76-.44Zm-3.32,0,2.46,1.42.7-.4-2.46-1.42Zm-.66,1.49,1.46.85.7-.41L91.78,95Zm-3.75-2.16,3.17,1.83.7-.41L88,92.84Zm-10.11-4,3.58,2.07.7-.41-3.58-2.07Zm2.64-8.63-2.23-1.29-.7.4,2.23,1.29Zm14.14,9,3,1.74.7-.41-3-1.73ZM84.23,84l.87.5.7-.4-.87-.51ZM98.08,93,93.86,90.6l-.7.41,4.22,2.43Zm-2.78.26L93,92l-.7.4,2.31,1.34Zm-5.93-3.43-1.13-.64-.7.4,1.13.65Zm-12-8.79L76,80.29l-.7.41,1.36.79Zm-8.54,3.36,3.36,1.93.7-.4L69.53,84Zm4.52-.07-2.2-1.27-.7.4,2.2,1.27Zm1-1.29-1.58-.92-.7.41,1.58.91Zm.75-1.44-.71-.41-.7.4.71.41Zm-2.33,5.07,1.41.81.7-.4-1.41-.82Z" transform="translate(16.28 -21.34)"/><path class="cls-124" d="M50.5,105.19,14.84,84.65a3.46,3.46,0,0,1,0-6L43.27,62.11a3.49,3.49,0,0,1,3.48,0L82.41,82.64a3.48,3.48,0,0,1,0,6L54,105.18A3.45,3.45,0,0,1,50.5,105.19Z" transform="translate(16.28 -21.34)"/><path class="cls-125" d="M50.65,104.85,15.22,84.45a3.38,3.38,0,0,1,0-5.85L43.15,62.36a3.39,3.39,0,0,1,3.39,0L82,82.75a3.39,3.39,0,0,1,0,5.86L54,104.85A3.37,3.37,0,0,1,50.65,104.85Z" transform="translate(16.28 -21.34)"/><path class="cls-126" d="M50.81,104.52,15.61,84.25a3.29,3.29,0,0,1,0-5.7L43,62.6a3.3,3.3,0,0,1,3.3,0L81.52,82.86a3.3,3.3,0,0,1,0,5.71L54.11,104.51A3.3,3.3,0,0,1,50.81,104.52Z" transform="translate(16.28 -21.34)"/><path class="cls-127" d="M51,104.18,16,84.05a3.21,3.21,0,0,1,0-5.55L42.9,62.85a3.22,3.22,0,0,1,3.22,0L81.08,83a3.2,3.2,0,0,1,0,5.54L54.17,104.18A3.23,3.23,0,0,1,51,104.18Z" transform="translate(16.28 -21.34)"/><path class="cls-128" d="M51.12,103.84l-34.74-20a3.12,3.12,0,0,1,0-5.4l26.4-15.36a3.13,3.13,0,0,1,3.13,0l34.73,20a3.11,3.11,0,0,1,0,5.39l-26.4,15.36A3.11,3.11,0,0,1,51.12,103.84Z" transform="translate(16.28 -21.34)"/><path class="cls-129" d="M51.27,103.51,16.77,83.64a3,3,0,0,1,0-5.24l25.9-15.06a3,3,0,0,1,3,0L80.19,83.2a3,3,0,0,1,0,5.24L54.31,103.5A3,3,0,0,1,51.27,103.51Z" transform="translate(16.28 -21.34)"/><path class="cls-130" d="M51.42,103.17,17.16,83.44a2.94,2.94,0,0,1,0-5.09L42.54,63.58a2.94,2.94,0,0,1,3,0L79.75,83.31a2.94,2.94,0,0,1,0,5.09L54.37,103.17A2.94,2.94,0,0,1,51.42,103.17Z" transform="translate(16.28 -21.34)"/><path class="cls-131" d="M51.58,102.84l-34-19.6a2.85,2.85,0,0,1,0-4.94L42.41,63.83a2.84,2.84,0,0,1,2.86,0l34,19.6a2.86,2.86,0,0,1,0,4.94L54.44,102.83A2.84,2.84,0,0,1,51.58,102.84Z" transform="translate(16.28 -21.34)"/><path class="cls-132" d="M51.73,102.5,17.93,83a2.77,2.77,0,0,1,0-4.79L42.29,64.07a2.75,2.75,0,0,1,2.77,0L78.87,83.53a2.77,2.77,0,0,1,0,4.79L54.51,102.5A2.76,2.76,0,0,1,51.73,102.5Z" transform="translate(16.28 -21.34)"/><path class="cls-133" d="M51.89,102.17,18.32,82.84a2.68,2.68,0,0,1,0-4.64L42.17,64.32a2.65,2.65,0,0,1,2.68,0L78.42,83.64a2.67,2.67,0,0,1,0,4.63L54.57,102.16A2.7,2.7,0,0,1,51.89,102.17Z" transform="translate(16.28 -21.34)"/><path class="cls-134" d="M52,101.83,18.71,82.64a2.59,2.59,0,0,1,0-4.49L42.05,64.56a2.58,2.58,0,0,1,2.59,0L78,83.75a2.59,2.59,0,0,1,0,4.48l-23.35,13.6A2.62,2.62,0,0,1,52,101.83Z" transform="translate(16.28 -21.34)"/><path class="cls-135" d="M52.2,101.49,19.09,82.43a2.5,2.5,0,0,1,0-4.33L41.92,64.81a2.5,2.5,0,0,1,2.51,0L77.54,83.86a2.5,2.5,0,0,1,0,4.33l-22.83,13.3A2.5,2.5,0,0,1,52.2,101.49Z" transform="translate(16.28 -21.34)"/><polygon class="cls-139" points="68.89 80.04 27.32 56.09 59.09 37.67 100.66 61.61 68.89 80.04"/><polygon class="cls-140" points="68.89 79.74 27.75 55.84 27.32 56.09 68.89 80.04 100.05 61.87 99.62 61.82 68.89 79.74"/><polygon class="cls-141" points="89.81 64.75 60.78 47.99 60.94 47.9 89.96 64.66 89.81 64.75"/><polygon class="cls-141" points="83.87 68.17 54.84 51.42 55 51.33 84.02 68.09 83.87 68.17"/><polygon class="cls-141" points="92.78 63.03 63.76 46.27 63.91 46.18 92.93 62.94 92.78 63.03"/><polygon class="cls-141" points="86.84 66.46 57.81 49.7 57.97 49.61 86.99 66.37 86.84 66.46"/><g class="cls-142"><polygon class="cls-143" points="59.1 53.71 57.12 52.57 64.4 48.37 66.38 49.51 59.1 53.71"/><polygon class="cls-143" points="62.98 55.95 61 54.81 72.11 48.39 74.09 49.53 62.98 55.95"/><polygon class="cls-143" points="66.86 58.19 64.88 57.05 73.6 52.02 75.58 53.16 66.86 58.19"/><polygon class="cls-143" points="70.73 60.43 68.76 59.29 76.04 55.08 78.02 56.23 70.73 60.43"/><polygon class="cls-143" points="74.61 62.67 72.64 61.53 78 58.43 79.98 59.57 74.61 62.67"/><polygon class="cls-143" points="78.49 64.91 76.51 63.77 83.8 59.56 85.77 60.7 78.49 64.91"/><polygon class="cls-143" points="82.37 67.15 80.39 66.01 90.55 60.14 92.53 61.28 82.37 67.15"/></g><g class="cls-144"><polygon class="cls-143" points="59.1 53.71 57.12 52.57 62.55 49.44 64.53 50.58 59.1 53.71"/><polygon class="cls-143" points="62.98 55.95 61 54.81 69.3 50.02 71.28 51.16 62.98 55.95"/><polygon class="cls-143" points="66.86 58.19 64.88 57.05 72.22 52.81 74.2 53.95 66.86 58.19"/><polygon class="cls-143" points="70.73 60.43 68.76 59.29 74.19 56.15 76.16 57.3 70.73 60.43"/><polygon class="cls-143" points="74.61 62.67 72.64 61.53 76.15 59.5 78.13 60.64 74.61 62.67"/><polygon class="cls-143" points="78.49 64.91 76.51 63.77 81.94 60.63 83.92 61.77 78.49 64.91"/><polygon class="cls-143" points="82.37 67.15 80.39 66.01 87.74 61.77 89.72 62.91 82.37 67.15"/></g><polygon class="cls-141" points="46.46 56.12 75.48 72.88 75.64 72.79 46.61 56.03 46.46 56.12"/><polygon class="cls-141" points="40.52 59.55 69.54 76.31 69.69 76.22 40.67 59.46 40.52 59.55"/><polygon class="cls-141" points="49.43 54.41 78.45 71.16 78.61 71.07 49.58 54.32 49.43 54.41"/><polygon class="cls-141" points="43.49 57.84 72.51 74.59 72.66 74.5 43.64 57.75 43.49 57.84"/><g class="cls-145"><polygon class="cls-146" points="65.57 73.85 67.54 74.99 74.83 70.79 72.85 69.65 65.57 73.85"/><polygon class="cls-147" points="61.69 71.61 63.66 72.75 74.78 66.34 72.8 65.19 61.69 71.61"/><polygon class="cls-148" points="57.81 69.37 59.79 70.51 68.51 65.48 66.53 64.34 57.81 69.37"/><polygon class="cls-149" points="53.93 67.13 55.91 68.28 63.19 64.07 61.21 62.93 53.93 67.13"/><polygon class="cls-150" points="50.05 64.89 52.03 66.03 57.4 62.94 55.42 61.8 50.05 64.89"/><polygon class="cls-151" points="46.17 62.66 48.15 63.8 56.52 58.97 54.54 57.82 46.17 62.66"/><polygon class="cls-152" points="42.3 60.42 44.27 61.56 51.05 57.65 49.07 56.51 42.3 60.42"/></g><g class="cls-144"><polygon class="cls-153" points="65.57 73.85 67.54 74.99 72.97 71.86 71 70.72 65.57 73.85"/><polygon class="cls-154" points="61.69 71.61 63.66 72.75 71.97 67.96 69.99 66.82 61.69 71.61"/><polygon class="cls-155" points="57.81 69.37 59.79 70.51 67.13 66.27 65.16 65.13 57.81 69.37"/><polygon class="cls-156" points="53.93 67.13 55.91 68.28 61.34 65.14 59.36 64 53.93 67.13"/><polygon class="cls-157" points="50.05 64.89 52.03 66.03 55.54 64.01 53.57 62.87 50.05 64.89"/><polygon class="cls-158" points="46.17 62.66 48.15 63.8 54.67 60.03 52.69 58.89 46.17 62.66"/><polygon class="cls-159" points="42.3 60.42 44.27 61.56 48.23 59.27 46.26 58.13 42.3 60.42"/></g><path class="cls-160" d="M42.35,68.62a6.87,6.87,0,0,1-6.2,0c-1.72-1-1.73-2.6,0-3.58a6.84,6.84,0,0,1,6.2,0C44,66,44.05,67.63,42.35,68.62Z" transform="translate(16.28 -21.34)"/><path class="cls-161" d="M28.13,77.12a6.84,6.84,0,0,1-6.2,0c-1.72-1-1.72-2.59,0-3.58a6.87,6.87,0,0,1,6.2,0C29.83,74.54,29.84,76.14,28.13,77.12Z" transform="translate(16.28 -21.34)"/><path class="cls-162" d="M39.8,67.51a.52.52,0,0,1-.19-.37c0-.07.1-.14.24-.14a2.29,2.29,0,0,0,.52,0,.5.5,0,0,0,.34,0c.09,0,.11-.12.07-.16.35-.23.52-.49,0-.78a1.3,1.3,0,0,0-1.35,0,.38.38,0,0,0-.29,0,.12.12,0,0,0,0,.19.51.51,0,0,0-.1.3c0,.08-.1.15-.24.14a2,2,0,0,1-.64-.11,1.05,1.05,0,0,0-.82.06l-.39.22c-.08.05-.08.12,0,.16L39,68.21a.26.26,0,0,0,.27,0L39.7,68C39.93,67.86,40,67.66,39.8,67.51Z" transform="translate(16.28 -21.34)"/><path class="cls-160" d="M26.88,74.2a4,4,0,0,0-3.65,0c-1,.58-1,1.52,0,2.11a4,4,0,0,0,3.65,0A1.11,1.11,0,0,0,26.88,74.2Zm-.36,1.89a3.2,3.2,0,0,1-2.92,0c-.81-.47-.82-1.23,0-1.69a3.25,3.25,0,0,1,2.93,0A.89.89,0,0,1,26.52,76.09Zm-.12-1.62a.38.38,0,0,0-.36,0l-1.37.79L26,76a.38.38,0,0,0,.36,0c.1-.06.1-.15,0-.21l-.92-.53,1-.58C26.5,74.62,26.5,74.53,26.4,74.47Z" transform="translate(16.28 -21.34)"/><path class="cls-163" d="M24.42,79.76,20.85,77.7l-.69.4,3.56,2.06Zm-4.14-2.4L18.4,76.28l-.7.4,1.88,1.09Z" transform="translate(16.28 -21.34)"/><polygon class="cls-160" points="47.82 46.96 51.71 49.21 52.41 48.81 48.52 46.56 47.82 46.96"/><polygon class="cls-160" points="52.29 49.54 53.15 50.04 53.85 49.64 52.99 49.14 52.29 49.54"/><path class="cls-124" d="M66,85,30.36,64.49a3.48,3.48,0,0,1,0-6L58.8,42a3.47,3.47,0,0,1,3.47,0L97.93,62.48a3.47,3.47,0,0,1,0,6L69.5,85A3.46,3.46,0,0,1,66,85Z" transform="translate(16.28 -21.34)"/><path class="cls-125" d="M66.17,84.69,30.75,64.29a3.38,3.38,0,0,1,0-5.85L58.67,42.2a3.39,3.39,0,0,1,3.39,0l35.43,20.4a3.39,3.39,0,0,1,0,5.86L69.56,84.68A3.39,3.39,0,0,1,66.17,84.69Z" transform="translate(16.28 -21.34)"/><path class="cls-126" d="M66.33,84.35,31.13,64.09a3.29,3.29,0,0,1,0-5.7l27.42-16a3.3,3.3,0,0,1,3.3,0L97.05,62.7a3.29,3.29,0,0,1,0,5.7L69.63,84.35A3.3,3.3,0,0,1,66.33,84.35Z" transform="translate(16.28 -21.34)"/><path class="cls-127" d="M66.48,84l-35-20.13a3.21,3.21,0,0,1,0-5.55L58.43,42.69a3.2,3.2,0,0,1,3.21,0l35,20.13a3.21,3.21,0,0,1,0,5.55L69.7,84A3.22,3.22,0,0,1,66.48,84Z" transform="translate(16.28 -21.34)"/><path class="cls-128" d="M66.64,83.68l-34.73-20a3.11,3.11,0,0,1,0-5.39L58.3,42.93a3.13,3.13,0,0,1,3.13,0l34.73,20a3.12,3.12,0,0,1,0,5.4L69.76,83.68A3.11,3.11,0,0,1,66.64,83.68Z" transform="translate(16.28 -21.34)"/><path class="cls-129" d="M66.79,83.35,32.3,63.48a3,3,0,0,1,0-5.24L58.18,43.18a3,3,0,0,1,3,0L95.72,63a3,3,0,0,1,0,5.25L69.83,83.34A3,3,0,0,1,66.79,83.35Z" transform="translate(16.28 -21.34)"/><path class="cls-130" d="M67,83,32.68,63.28a2.94,2.94,0,0,1,0-5.09L58.06,43.42a2.94,2.94,0,0,1,2.95,0L95.27,63.15a2.94,2.94,0,0,1,0,5.09L69.9,83A2.94,2.94,0,0,1,67,83Z" transform="translate(16.28 -21.34)"/><path class="cls-131" d="M67.1,82.67l-34-19.59a2.86,2.86,0,0,1,0-4.94L57.94,43.66a2.86,2.86,0,0,1,2.86,0l34,19.6a2.85,2.85,0,0,1,0,4.94L70,82.67A2.84,2.84,0,0,1,67.1,82.67Z" transform="translate(16.28 -21.34)"/><path class="cls-132" d="M67.26,82.34,33.46,62.88a2.77,2.77,0,0,1,0-4.79L57.81,43.91a2.76,2.76,0,0,1,2.78,0l33.8,19.46a2.76,2.76,0,0,1,0,4.78L70,82.33A2.77,2.77,0,0,1,67.26,82.34Z" transform="translate(16.28 -21.34)"/><path class="cls-133" d="M67.41,82,33.84,62.68a2.68,2.68,0,0,1,0-4.64L57.69,44.15a2.69,2.69,0,0,1,2.69,0L94,63.48a2.67,2.67,0,0,1,0,4.63L70.1,82A2.69,2.69,0,0,1,67.41,82Z" transform="translate(16.28 -21.34)"/><path class="cls-134" d="M67.57,81.67,34.23,62.47a2.59,2.59,0,0,1,0-4.48L57.57,44.4a2.57,2.57,0,0,1,2.6,0L93.5,63.59a2.59,2.59,0,0,1,0,4.48L70.16,81.66A2.58,2.58,0,0,1,67.57,81.67Z" transform="translate(16.28 -21.34)"/><path class="cls-135" d="M67.72,81.33,34.62,62.27a2.5,2.5,0,0,1,0-4.33l22.84-13.3a2.48,2.48,0,0,1,2.5,0L93.06,63.7a2.5,2.5,0,0,1,0,4.33L70.23,81.33A2.5,2.5,0,0,1,67.72,81.33Z" transform="translate(16.28 -21.34)"/><polygon class="cls-164" points="84.41 59.87 42.84 35.93 74.62 17.5 116.18 41.45 84.41 59.87"/><polygon class="cls-140" points="84.41 59.57 43.28 35.68 42.84 35.93 84.41 59.87 115.57 41.7 115.14 41.66 84.41 59.57"/><path class="cls-165" d="M61.73,58a11.09,11.09,0,0,0,2.54-1c2.16-1.25,3-3,2.64-4.58-.69-2.56-4.53-4.51-9.15-4.5a14.19,14.19,0,0,0-1.47.07l-.67-2.22A21,21,0,0,1,62.4,46a18.09,18.09,0,0,1,3,.91h0l.09,0,.46.2.36.17h0a9.52,9.52,0,0,1,3.42,2.59c3,3.79.17,8.31-6.41,10.09Z" transform="translate(16.28 -21.34)"/><path class="cls-166" d="M47.77,58.06c-2.06-1.42-3.06-3-3.05-4.87h3.71v0a4.32,4.32,0,0,0,2.17,3.46,12.8,12.8,0,0,0,7.1,1.89,14.62,14.62,0,0,0,4.79-.77l1.91,1.91C58.81,61.59,51.9,60.9,47.77,58.06Z" transform="translate(16.28 -21.34)"/><path class="cls-167" d="M48.43,53.18H44.72c0-3.72,4.55-6.84,10.9-7.49l.67,2.22C51.88,48.33,48.49,50.53,48.43,53.18Z" transform="translate(16.28 -21.34)"/><path class="cls-168" d="M38.08,60.16l2.4-1.38c.19-.11.19-.29,0-.4l-3.83-2.22a.76.76,0,0,0-.69,0l-2.4,1.38c-.19.11-.19.29,0,.41l1.58.91-.33.2-.23-.14a.8.8,0,0,0-.71,0l-.06,0L35.63,60l.06,0c.2-.11.2-.29,0-.41l-.23-.13.34-.2,1.58.92A.78.78,0,0,0,38.08,60.16ZM34,57.8l2.38-1.38L40,58.52,37.64,59.9Z" transform="translate(16.28 -21.34)"/><path class="cls-169" d="M54.34,66.23l-2-1.13a.76.76,0,0,0-.69,0l-3.63,2.1a.21.21,0,0,0,0,.4l2,1.14a.76.76,0,0,0,.69,0l3.64-2.1C54.54,66.52,54.54,66.34,54.34,66.23Zm-3.71,2.14-2-1.13L52,65.3,54,66.43Z" transform="translate(16.28 -21.34)"/><path class="cls-170" d="M47.61,63l-4-2.32a.76.76,0,0,0-.69,0l-2.49,1.44a.21.21,0,0,0,0,.4l4,2.31a.76.76,0,0,0,.69,0l2.49-1.43C47.81,63.25,47.81,63.07,47.61,63Zm-3,1.52L41,62.38,43.43,61l3.65,2.1Z" transform="translate(16.28 -21.34)"/><polygon class="cls-171" points="55.53 37.78 57.32 36.74 56.6 36.33 54.81 37.36 54.26 37.04 53.98 38.26 56.08 38.09 55.53 37.78"/><polygon class="cls-171" points="62.88 41.22 61.09 42.26 61.81 42.67 63.6 41.64 64.15 41.95 64.43 40.74 62.33 40.91 62.88 41.22"/><polygon class="cls-171" points="68.99 44.97 67.2 46 67.92 46.42 69.71 45.38 70.26 45.7 70.54 44.49 68.44 44.65 68.99 44.97"/><polygon class="cls-172" points="97.31 34.86 98.69 34.06 97.32 33.28 95.95 34.07 97.31 34.86"/><polygon class="cls-172" points="94.73 36.35 96.1 35.56 94.74 34.77 93.36 35.56 94.73 36.35"/><polygon class="cls-172" points="92.15 37.84 93.52 37.05 92.16 36.26 90.78 37.05 92.15 37.84"/><polygon class="cls-173" points="89.56 39.33 90.94 38.54 89.57 37.75 88.2 38.54 89.56 39.33"/><polygon class="cls-173" points="86.98 40.82 88.36 40.03 86.99 39.24 85.61 40.03 86.98 40.82"/><polygon class="cls-173" points="84.4 42.32 85.77 41.52 84.41 40.73 83.03 41.53 84.4 42.32"/><polygon class="cls-172" points="81.81 43.81 83.19 43.01 81.82 42.22 80.45 43.02 81.81 43.81"/><polygon class="cls-173" points="79.23 45.3 80.61 44.51 79.24 43.72 77.86 44.51 79.23 45.3"/><polygon class="cls-172" points="99.75 36.27 101.13 35.48 99.76 34.69 98.39 35.48 99.75 36.27"/><polygon class="cls-173" points="97.17 37.76 98.55 36.97 97.18 36.18 95.8 36.97 97.17 37.76"/><polygon class="cls-174" points="94.59 39.25 95.96 38.46 94.6 37.67 93.22 38.46 94.59 39.25"/><polygon class="cls-173" points="92 40.74 93.38 39.95 92.01 39.16 90.64 39.95 92 40.74"/><polygon class="cls-174" points="89.42 42.23 90.8 41.44 89.43 40.65 88.06 41.45 89.42 42.23"/><polygon class="cls-172" points="86.84 43.73 88.21 42.93 86.85 42.14 85.47 42.94 86.84 43.73"/><polygon class="cls-173" points="84.25 45.22 85.63 44.42 84.26 43.63 82.89 44.43 84.25 45.22"/><polygon class="cls-173" points="81.67 46.71 83.05 45.91 81.68 45.13 80.31 45.92 81.67 46.71"/><polygon class="cls-173" points="102.19 37.68 103.57 36.88 102.2 36.09 100.83 36.89 102.19 37.68"/><polygon class="cls-172" points="99.61 39.17 100.99 38.38 99.62 37.59 98.25 38.38 99.61 39.17"/><polygon class="cls-172" points="97.03 40.66 98.4 39.87 97.04 39.08 95.66 39.87 97.03 40.66"/><polygon class="cls-172" points="94.45 42.15 95.82 41.36 94.45 40.57 93.08 41.36 94.45 42.15"/><polygon class="cls-173" points="91.86 43.64 93.24 42.85 91.87 42.06 90.5 42.85 91.86 43.64"/><polygon class="cls-172" points="89.28 45.13 90.66 44.34 89.29 43.55 87.91 44.35 89.28 45.13"/><polygon class="cls-173" points="86.7 46.63 88.07 45.83 86.7 45.04 85.33 45.84 86.7 46.63"/><polygon class="cls-172" points="84.11 48.12 85.49 47.32 84.12 46.53 82.75 47.33 84.11 48.12"/><polygon class="cls-172" points="104.64 39.09 106.01 38.29 104.64 37.51 103.27 38.3 104.64 39.09"/><polygon class="cls-173" points="102.05 40.58 103.43 39.78 102.06 39 100.69 39.79 102.05 40.58"/><polygon class="cls-173" points="99.47 42.07 100.84 41.28 99.48 40.49 98.1 41.28 99.47 42.07"/><polygon class="cls-172" points="96.89 43.56 98.26 42.77 96.9 41.98 95.52 42.77 96.89 43.56"/><polygon class="cls-172" points="94.3 45.05 95.68 44.26 94.31 43.47 92.94 44.26 94.3 45.05"/><polygon class="cls-172" points="91.72 46.54 93.1 45.75 91.73 44.96 90.35 45.76 91.72 46.54"/><polygon class="cls-174" points="89.14 48.04 90.51 47.24 89.15 46.45 87.77 47.25 89.14 48.04"/><polygon class="cls-174" points="86.56 49.53 87.93 48.73 86.56 47.94 85.19 48.74 86.56 49.53"/><polygon class="cls-173" points="107.08 40.5 108.45 39.7 107.09 38.91 105.71 39.71 107.08 40.5"/><polygon class="cls-172" points="104.5 41.99 105.87 41.2 104.5 40.41 103.13 41.2 104.5 41.99"/><polygon class="cls-174" points="101.91 43.48 103.29 42.69 101.92 41.9 100.55 42.69 101.91 43.48"/><polygon class="cls-174" points="99.33 44.97 100.7 44.18 99.34 43.39 97.96 44.18 99.33 44.97"/><polygon class="cls-173" points="96.75 46.46 98.12 45.67 96.75 44.88 95.38 45.67 96.75 46.46"/><polygon class="cls-173" points="94.16 47.95 95.54 47.16 94.17 46.37 92.8 47.16 94.16 47.95"/><polygon class="cls-173" points="91.58 49.45 92.95 48.65 91.59 47.86 90.21 48.66 91.58 49.45"/><polygon class="cls-173" points="89 50.94 90.37 50.14 89 49.35 87.63 50.15 89 50.94"/><polygon class="cls-172" points="109.52 41.91 110.89 41.11 109.53 40.32 108.15 41.12 109.52 41.91"/><polygon class="cls-172" points="106.94 43.4 108.31 42.6 106.94 41.81 105.57 42.61 106.94 43.4"/><polygon class="cls-173" points="104.35 44.89 105.73 44.09 104.36 43.31 102.99 44.1 104.35 44.89"/><polygon class="cls-172" points="101.77 46.38 103.14 45.59 101.78 44.8 100.4 45.59 101.77 46.38"/><polygon class="cls-173" points="99.19 47.87 100.56 47.08 99.19 46.29 97.82 47.08 99.19 47.87"/><polygon class="cls-173" points="96.6 49.36 97.98 48.57 96.61 47.78 95.24 48.57 96.6 49.36"/><polygon class="cls-172" points="94.02 50.85 95.4 50.06 94.03 49.27 92.65 50.07 94.02 50.85"/><polygon class="cls-175" points="91.44 52.35 92.81 51.55 91.45 50.76 90.07 51.56 91.44 52.35"/><polygon class="cls-141" points="53.75 32.77 90.29 53.86 90.48 53.75 53.94 32.65 53.75 32.77"/><polygon class="cls-172" points="72.09 50.44 76.79 47.59 75.42 46.8 70.72 49.65 72.09 50.44"/><polygon class="cls-176" points="74.47 51.87 78.28 49.53 76.91 48.74 73.1 51.08 74.47 51.87"/><polygon class="cls-177" points="76.97 53.3 79.82 51.55 78.46 50.77 75.6 52.51 76.97 53.3"/><polygon class="cls-178" points="79.41 54.66 81.49 53.28 80.12 52.49 78.04 53.88 79.41 54.66"/><polygon class="cls-179" points="81.78 56.21 83.15 55.36 81.79 54.57 80.42 55.42 81.78 56.21"/><polygon class="cls-180" points="84.16 57.58 84.94 57.09 83.57 56.3 82.8 56.79 84.16 57.58"/><path class="cls-171" d="M60.08,54.58a1.92,1.92,0,0,0,.26-.17l1.1.15.06-.06a2.14,2.14,0,0,0,.44-.62l0-.07-1-.34A1.14,1.14,0,0,0,61,53l1-.34,0-.07a2.26,2.26,0,0,0-.45-.62l-.06-.06-1.09.15a2.73,2.73,0,0,0-.56-.32l.26-.63-.1,0a7.1,7.1,0,0,0-1.08-.26l-.12,0-.59.56a5.08,5.08,0,0,0-.78,0l-.59-.56-.12,0a7.1,7.1,0,0,0-1.08.25l-.1,0,.26.63-.29.15-.26.17-1.1-.15L54,52a2.14,2.14,0,0,0-.44.62l0,.07,1,.34a1,1,0,0,0,0,.45l-1,.34,0,.07a2,2,0,0,0,.45.62l.06.06,1.09-.15a3,3,0,0,0,.56.32l-.26.63.11,0a6.83,6.83,0,0,0,1.08.26l.11,0,.59-.56a6.77,6.77,0,0,0,.78,0l.59.55.12,0A6.08,6.08,0,0,0,60,55.4l.1,0-.26-.63Zm-.4.69a4.92,4.92,0,0,1-.78.18l-.57-.54h-.11a4.51,4.51,0,0,1-.9,0h-.11l-.57.54a5.78,5.78,0,0,1-.77-.19l.25-.61-.09,0a2.62,2.62,0,0,1-.64-.37l-.06-.05-1.07.14a2.14,2.14,0,0,1-.32-.44l.93-.33,0-.06a1.14,1.14,0,0,1,0-.52l0-.07-.94-.33a2.5,2.5,0,0,1,.32-.45l1.07.15.06-.05.29-.2a3,3,0,0,1,.35-.16l.08,0-.26-.62q.38-.1.78-.18l.57.54h.11a6.76,6.76,0,0,1,.9,0h.11l.57-.54a6.35,6.35,0,0,1,.78.19l-.26.62.09,0a3,3,0,0,1,.64.37l.06,0,1.07-.14a1.82,1.82,0,0,1,.32.44l-.93.33,0,.07a1,1,0,0,1,0,.52l0,.06.94.33a1.69,1.69,0,0,1-.32.45L60.2,54.2l-.06,0a2.51,2.51,0,0,1-.29.2,3.68,3.68,0,0,1-.34.16l-.09,0Zm-.92-2.6a2.23,2.23,0,0,0-2,0,.61.61,0,0,0,0,1.16,2.21,2.21,0,0,0,2,0A.61.61,0,0,0,58.76,52.67Zm-1.76,1a.46.46,0,0,1,0-.88,1.67,1.67,0,0,1,1.54,0,.47.47,0,0,1,0,.89A1.68,1.68,0,0,1,57,53.68Z" transform="translate(16.28 -21.34)"/><path class="cls-137" d="M97.84,80l7.11-4.1-2.24-1.3L95.6,78.67Zm13.08-4.18-2.24-1.29L98.52,80.35l2.23,1.29Zm-16,2.5,4-2.35-2.23-1.29L92.68,77ZM110.69,77l-9.88,5.71L90.86,77,100,71.7l6.09,3.52.79-.46-6.89-4L89.28,77l11.53,6.66,10.68-6.16Z" transform="translate(16.28 -21.34)"/><path class="cls-124" d="M95.46,76.82,59.8,56.28a3.47,3.47,0,0,1,0-6L88.24,33.74a3.47,3.47,0,0,1,3.47,0l35.66,20.53a3.47,3.47,0,0,1,0,6L98.94,76.81A3.46,3.46,0,0,1,95.46,76.82Z" transform="translate(16.28 -21.34)"/><path class="cls-125" d="M95.61,76.48,60.19,56.08a3.38,3.38,0,0,1,0-5.85L88.11,34a3.39,3.39,0,0,1,3.39,0l35.43,20.4a3.39,3.39,0,0,1,0,5.86L99,76.48A3.37,3.37,0,0,1,95.61,76.48Z" transform="translate(16.28 -21.34)"/><path class="cls-126" d="M95.77,76.15,60.57,55.88a3.29,3.29,0,0,1,0-5.7L88,34.23a3.3,3.3,0,0,1,3.3,0l35.2,20.26a3.31,3.31,0,0,1,0,5.71L99.07,76.14A3.3,3.3,0,0,1,95.77,76.15Z" transform="translate(16.28 -21.34)"/><path class="cls-127" d="M95.92,75.81,61,55.68a3.21,3.21,0,0,1,0-5.55L87.87,34.48a3.2,3.2,0,0,1,3.21,0l35,20.14a3.2,3.2,0,0,1,0,5.54L99.14,75.81A3.25,3.25,0,0,1,95.92,75.81Z" transform="translate(16.28 -21.34)"/><path class="cls-128" d="M96.08,75.47l-34.73-20a3.12,3.12,0,0,1,0-5.4L87.75,34.72a3.11,3.11,0,0,1,3.12,0l34.73,20a3.11,3.11,0,0,1,0,5.39L99.2,75.47A3.11,3.11,0,0,1,96.08,75.47Z" transform="translate(16.28 -21.34)"/><path class="cls-129" d="M96.23,75.14,61.74,55.27a3,3,0,0,1,0-5.24L87.62,35a3,3,0,0,1,3,0l34.5,19.87a3,3,0,0,1,0,5.24L99.27,75.13A3,3,0,0,1,96.23,75.14Z" transform="translate(16.28 -21.34)"/><path class="cls-130" d="M96.39,74.8,62.12,55.07a2.94,2.94,0,0,1,0-5.09L87.5,35.21a2.94,2.94,0,0,1,3,0l34.27,19.73a2.94,2.94,0,0,1,0,5.09L99.34,74.8A2.94,2.94,0,0,1,96.39,74.8Z" transform="translate(16.28 -21.34)"/><path class="cls-131" d="M96.54,74.47l-34-19.6a2.86,2.86,0,0,1,0-4.94L87.38,35.46a2.84,2.84,0,0,1,2.86,0l34,19.6a2.85,2.85,0,0,1,0,4.94L99.41,74.46A2.86,2.86,0,0,1,96.54,74.47Z" transform="translate(16.28 -21.34)"/><path class="cls-132" d="M96.7,74.13,62.9,54.67a2.77,2.77,0,0,1,0-4.79L87.25,35.7a2.76,2.76,0,0,1,2.78,0l33.8,19.46a2.77,2.77,0,0,1,0,4.79L99.47,74.13A2.77,2.77,0,0,1,96.7,74.13Z" transform="translate(16.28 -21.34)"/><path class="cls-133" d="M96.85,73.79,63.28,54.47a2.68,2.68,0,0,1,0-4.64L87.13,36a2.67,2.67,0,0,1,2.69,0l33.57,19.33a2.67,2.67,0,0,1,0,4.63L99.54,73.79A2.69,2.69,0,0,1,96.85,73.79Z" transform="translate(16.28 -21.34)"/><path class="cls-134" d="M97,73.46,63.67,54.27a2.6,2.6,0,0,1,0-4.49L87,36.19a2.57,2.57,0,0,1,2.6,0l33.33,19.19a2.59,2.59,0,0,1,0,4.48L99.61,73.46A2.62,2.62,0,0,1,97,73.46Z" transform="translate(16.28 -21.34)"/><path class="cls-135" d="M97.16,73.12,64.06,54.06a2.5,2.5,0,0,1,0-4.33L86.89,36.44a2.5,2.5,0,0,1,2.51,0l33.1,19.06a2.5,2.5,0,0,1,0,4.33L99.67,73.12A2.5,2.5,0,0,1,97.16,73.12Z" transform="translate(16.28 -21.34)"/><polygon class="cls-181" points="113.85 51.67 72.28 27.72 104.06 9.3 145.63 33.24 113.85 51.67"/><path class="cls-141" d="M86.74,35.43l-.07,0L64.59,48.13,99,68l.07,0L121.17,55.3Zm.81,9.13,8.65,5-7.06,4.08-8.66-5ZM80.2,48.48,72.38,44l7.06-4.08,7.82,4.52Zm16.29.91-8.66-5,6.94-4,8.65,5Zm7.22-3.84,8.65,5-6.93,4-8.66-5ZM88.85,53.8l-6.88,4,.06.11-8.77-5.07,6.94-4Zm.29.17,8.65,5-6.88,4L91,63,82.2,58Zm.28-.17,7.07-4.08,8.65,5L98.08,58.8Zm16,1.08,7.95,4.59-7.07,4.08-8-4.59Zm.28-.16,6.94-4,7.95,4.58-6.94,4ZM94.48,40.23l-6.93,4-7.82-4.51,6.94-4Zm-22.39,3.9,7.82,4.51-6.88,4,.06.1-7.93-4.58Zm19,19,6.94-4L106,63.72l-6.93,4Z" transform="translate(16.28 -21.34)"/><g class="cls-182"><path class="cls-183" d="M72.4,43.89c.79.46,7.81-.7,9.88.5s-1.68,5.39.87,6.87,17.68-3.09,20-1.77-2,6.56.21,7.86,6.28.34,7.56,1.08-1,2.08-.29,2.51L99.09,67.58,65.35,48.11Z" transform="translate(16.28 -21.34)"/></g><path class="cls-184" d="M110.46,61.17a.55.55,0,0,1-.27-.35c-.07-.32.15-.63.4-1s.47-.66.42-.9c0,0,0-.14-.25-.27a7.07,7.07,0,0,0-2.68-.29c-1.66,0-3.54,0-4.88-.79s-.75-2.51-.22-4.2,1-3.1,0-3.65-5.25.16-9.34.9c-4.74.86-9.23,1.67-10.62.86s-1.09-2.59-.7-4.09.55-2.36-.17-2.78c-1.21-.7-4.4-.54-6.72-.43-1.84.1-2.81.13-3.16-.07l.26-.46a13.52,13.52,0,0,0,2.87,0c2.53-.13,5.67-.28,7,.5,1.13.65.78,2,.43,3.37s-.73,2.82.45,3.5,6-.16,10.25-.93c4.57-.82,8.51-1.53,9.71-.84s.78,2.55.24,4.28c-.49,1.56-.95,3,0,3.58,1.22.7,3,.71,4.61.72a6.88,6.88,0,0,1,3,.36.94.94,0,0,1,.5.62,1.83,1.83,0,0,1-.5,1.32,2,2,0,0,0-.32.56Z" transform="translate(16.28 -21.34)"/><path class="cls-185" d="M104.39,49.32c0,.26-.36.46-.8.46s-.8-.21-.8-.46.36-.46.8-.46S104.39,49.07,104.39,49.32Z" transform="translate(16.28 -21.34)"/><path class="cls-124" d="M104.28,50.25l-2.65-4.54L89.9,38.91a2.39,2.39,0,0,1,0-4.14l5.42-3.18a2.4,2.4,0,0,1,2.39,0l8.72,5.05,8.71,5a2.39,2.39,0,0,1,0,4.14l-8.46,4.44A2.39,2.39,0,0,1,104.28,50.25Z" transform="translate(16.28 -21.34)"/><path class="cls-125" d="M90.16,34.74l2-1.21c.05,0,2-1.15,2.06-1.12l1.19-.61a2.47,2.47,0,0,1,2.33.09l6.95,4,1.56.9,8.52,4.94.12.07a2.33,2.33,0,0,1-.11,4L112.62,47c-.05,0-2.17,1.11-2.22,1.08l-3.8,1.72a2.45,2.45,0,0,1-2.32-.08l-2.71-4.29-.49-.29L90.16,38.77A2.33,2.33,0,0,1,90.16,34.74Z" transform="translate(16.28 -21.34)"/><path class="cls-126" d="M90.42,34.71l2-1.19a16.55,16.55,0,0,1,2-1L95.61,32a2.6,2.6,0,0,1,2.27.17l6.78,3.93,1.52.88,8.33,4.82.11.07a2.27,2.27,0,0,1-.09,3.87l-2.15,1.15a18.77,18.77,0,0,1-2.17,1l-3.69,1.39a2.54,2.54,0,0,1-2.24-.16l-2.76-4-.48-.28L90.43,38.64A2.27,2.27,0,0,1,90.42,34.71Z" transform="translate(16.28 -21.34)"/><path class="cls-127" d="M90.69,34.67l2-1.16a10.5,10.5,0,0,1,2-.89l1.14-.39a2.77,2.77,0,0,1,2.2.26l6.61,3.83,1.49.87,8.12,4.7.11.07a2.21,2.21,0,0,1-.08,3.77l-2.08,1.13a10.84,10.84,0,0,1-2.12.86l-3.58,1.07a2.67,2.67,0,0,1-2.16-.24l-2.81-3.81-.48-.28-10.29-6A2.21,2.21,0,0,1,90.69,34.67Z" transform="translate(16.28 -21.34)"/><path class="cls-128" d="M91,34.64l1.9-1.14a7.16,7.16,0,0,1,2-.78l1.1-.27c.47-.28,1.66.08,2.13.35l6.45,3.73,1.45.84L113.88,42,114,42a2.15,2.15,0,0,1-.07,3.67l-2,1.11a7.51,7.51,0,0,1-2.07.75l-3.47.74a2.86,2.86,0,0,1-2.08-.32l-2.86-3.57-.47-.26L91,38.36A2.15,2.15,0,0,1,91,34.64Z" transform="translate(16.28 -21.34)"/><path class="cls-129" d="M91.23,34.6l1.85-1.11c.24-.14,1.68-.81,1.92-.67l1.07-.16c.41-.23,1.67.21,2.07.44l6.28,3.64,1.41.82L113.57,42l.1.07a2.09,2.09,0,0,1-.06,3.57l-2,1.09c-.24.14-1.78.79-2,.65l-3.36.4c-.41.24-1.6-.16-2-.4l-2.92-3.32-.45-.26-9.68-5.61A2.09,2.09,0,0,1,91.23,34.6Z" transform="translate(16.28 -21.34)"/><path class="cls-130" d="M91.49,34.57l1.8-1.08c.29-.17,1.6-.73,1.9-.57l1,0c.33-.2,1.66.33,2,.52l6.11,3.54,1.38.8,7.53,4.37.11.06a2,2,0,0,1-.06,3.47l-1.88,1.07c-.29.17-1.68.71-2,.54l-3.25.08c-.34.19-1.59-.29-1.93-.48l-3-3.09-.44-.25L91.5,38.08A2,2,0,0,1,91.49,34.57Z" transform="translate(16.28 -21.34)"/><path class="cls-131" d="M91.76,34.54l1.75-1.06c.34-.2,1.52-.65,1.86-.45l1,.06c.27-.15,1.66.46,1.93.62l6,3.44,1.34.78,7.34,4.25.1.06a2,2,0,0,1,0,3.37l-1.82,1c-.34.19-1.58.63-1.92.43l-3.14-.25c-.27.16-1.58-.41-1.85-.56l-3-2.84-.43-.25-9.07-5.25A2,2,0,0,1,91.76,34.54Z" transform="translate(16.28 -21.34)"/><path class="cls-132" d="M92,34.5l1.7-1c.38-.23,1.43-.56,1.82-.34l1,.18c.2-.12,1.66.59,1.86.7l5.78,3.35,1.3.75,7.15,4.14.09.06a1.9,1.9,0,0,1,0,3.27l-1.74,1c-.39.22-1.49.55-1.88.32l-3-.58c-.2.12-1.56-.52-1.77-.64l-3.07-2.59-.41-.25L92,37.8A1.91,1.91,0,0,1,92,34.5Z" transform="translate(16.28 -21.34)"/><path class="cls-133" d="M92.29,34.47l1.65-1a2.3,2.3,0,0,1,1.8-.23l1,.3a9.06,9.06,0,0,1,1.8.79l5.61,3.24,1.27.74,6.94,4,.1,0a1.86,1.86,0,0,1,0,3.19l-1.68,1a2.33,2.33,0,0,1-1.83.21l-2.92-.9a7.92,7.92,0,0,1-1.69-.73l-3.12-2.35-.4-.23-8.45-4.9A1.84,1.84,0,0,1,92.29,34.47Z" transform="translate(16.28 -21.34)"/><path class="cls-134" d="M92.56,34.43l1.6-1a2,2,0,0,1,1.76-.11l.92.4a17.76,17.76,0,0,1,1.74.88L104,37.77l1.23.71L112,42.39l.09,0a1.8,1.8,0,0,1,0,3.09l-1.61,1a2,2,0,0,1-1.78.11l-2.81-1.24a15,15,0,0,1-1.61-.8l-3.17-2.11-.39-.23-8.15-4.72A1.79,1.79,0,0,1,92.56,34.43Z" transform="translate(16.28 -21.34)"/><path class="cls-135" d="M108.5,46.46l-7.84-4.54-7.83-4.54a1.72,1.72,0,0,1,0-3l1.55-1a1.71,1.71,0,0,1,1.72,0L103.94,38l7.83,4.53a1.73,1.73,0,0,1,0,3l-1.55,1A1.7,1.7,0,0,1,108.5,46.46Z" transform="translate(16.28 -21.34)"/><path class="cls-186" d="M104.75,48.55l-1.34-5.17-14.2-8.23c-1.7-1-1.49-2.69.47-3.82l1.85-1.07A7.36,7.36,0,0,1,98.15,30l16.31,9.44c1.69,1,1.48,2.69-.48,3.82Z" transform="translate(16.28 -21.34)"/><path class="cls-171" d="M112,40.51l-3-1.73-.69.41,3,1.72Zm-2.83.23-3.57-2.06-.7.4,3.57,2.06Zm-3.65-4-3.9-2.25-.7.41,3.9,2.24Zm2.91,1.68L106,37.1l-.7.41,2.34,1.34Zm-3.41-.1-1.87-1.09-.7.41,1.87,1.08Zm-4.79-2.81-.7.41,2.34,1.38.7-.4Zm-2.86,1.72,3.89,2.24.7-.4L98,36.85Zm4.47,2.58.86.5.7-.41-.86-.5Z" transform="translate(16.28 -21.34)"/><path class="cls-171" d="M94.65,34.92l3.13-1.81-1-.57-3.13,1.81Zm5.76-1.84-1-.57L95,35.09l1,.57Zm-7,1.1,1.79-1-1-.56-1.78,1Zm7-.57L96,36.12l-4.39-2.53,4-2.31,2.69,1.55.35-.2-3-1.75-4.7,2.71L96,36.53l4.7-2.72Z" transform="translate(16.28 -21.34)"/><polygon class="cls-187" points="113.85 51.37 72.72 27.47 72.28 27.72 113.85 51.67 145.01 33.5 144.58 33.45 113.85 51.37"/></g></g></svg>